  0
SECTION
  2
HEADER
  9
$ACADVER
  1
AC1009
  9
$INSBASE
 10
0.0
 20
0.0
 30
0.0
  9
$EXTMIN
 10
0.0
 20
0.0
 30
0.0
  9
$EXTMAX
 10
0.0
 20
0.0
 30
0.0
  0
ENDSEC
  0
SECTION
  2
TABLES
  0
TABLE
  2
VPORT
 70
0
  0
ENDTAB
  0
TABLE
  2
LTYPE
 70
1
  0
LTYPE
  2
CONTINUOUS
 70
0
  3
Solid line
 72
65
 73
0
 40
0.0
  0
ENDTAB
  0
TABLE
  2
LAYER
 70
1
  0
LAYER
  2
0
 70
64
 62
7
  6
continuous
  0
ENDTAB
  0
TABLE
  2
STYLE
 70
1
  0
STYLE
  2
STANDARD
 70
0
 40
0
 41
1.0
 50
0.0
 71
0
 42
1
 3
ARIAL.TTF
 4

  0
ENDTAB
  0
TABLE
  2
VIEW
 70
0
  0
ENDTAB
  0
ENDSEC
  0
SECTION
  2
BLOCKS
  0
BLOCK
  8
0
  2
FACEFEAT
 70
0
 10
0.0
 20
0.0
 30
0.0
  3
FACEFEAT
  0
ARC
  8
0
 62
0
 10
256.0
 20
-329.0
 30
0.0
 40
3.300000000000025
 50
-0.0
 51
-180.0
  0
ARC
  8
0
 62
0
 10
-33.0
 20
-329.0
 30
0.0
 40
3.3000000000000007
 50
-0.0
 51
-180.0
  0
ARC
  8
0
 62
0
 10
-335.0
 20
-250.0
 30
0.0
 40
3.300000000000025
 50
-0.0
 51
-180.0
  0
ARC
  8
0
 62
0
 10
335.0
 20
263.0
 30
0.0
 40
3.300000000000025
 50
-0.0
 51
-180.0
  0
ARC
  8
0
 62
0
 10
-335.0
 20
263.0
 30
0.0
 40
3.300000000000025
 50
-0.0
 51
-180.0
  0
ARC
  8
0
 62
0
 10
66.0
 20
329.0
 30
0.0
 40
3.299999999999997
 50
-0.0
 51
-180.0
  0
ARC
  8
0
 62
0
 10
-269.0
 20
329.0
 30
0.0
 40
3.300000000000025
 50
-0.0
 51
-180.0
  0
ARC
  8
0
 62
0
 10
-74.0
 20
329.0
 30
0.0
 40
3.299999999999997
 50
-0.0
 51
-180.0
  0
ARC
  8
0
 62
0
 10
269.0
 20
329.0
 30
0.0
 40
3.300000000000025
 50
-0.0
 51
-180.0
  0
ARC
  8
0
 62
0
 10
-335.0
 20
7.7599843496156e-14
 30
0.0
 40
3.300000000000025
 50
0.0
 51
-180.0
  0
ARC
  8
0
 62
0
 10
335.0
 20
1.88088961488927e-13
 30
0.0
 40
3.300000000000025
 50
0.0
 51
-180.0
  0
ARC
  8
0
 62
0
 10
-256.0
 20
-329.0
 30
0.0
 40
3.300000000000025
 50
-0.0
 51
-180.0
  0
ARC
  8
0
 62
0
 10
33.0
 20
-329.0
 30
0.0
 40
3.299999999999997
 50
-0.0
 51
-180.0
  0
ARC
  8
0
 62
0
 10
335.0
 20
-250.0
 30
0.0
 40
3.300000000000025
 50
-0.0
 51
-180.0
  0
LINE
  8
0
 62
0
 10
320.0
 20
314.0
 30
0.0
 11
284.0
 21
313.99999999999994
 31
0.0
  0
LINE
  8
0
 62
0
 10
320.0
 20
314.0
 30
0.0
 11
320.0
 21
278.0
 31
0.0
  0
LINE
  8
0
 62
0
 10
320.0
 20
278.0
 30
0.0
 11
349.0
 21
278.00000000000006
 31
0.0
  0
LINE
  8
0
 62
0
 10
349.0
 20
-314.0
 30
0.0
 11
349.00000000000017
 21
278.0
 31
0.0
  0
LINE
  8
0
 62
0
 10
340.2
 20
-314.0
 30
0.0
 11
349.0
 21
-314.0
 31
0.0
  0
LINE
  8
0
 62
0
 10
329.79999999999995
 20
-275.2
 30
0.0
 11
329.8000000000001
 21
-314.0
 31
0.0
  0
LINE
  8
0
 62
0
 10
323.0
 20
-314.0
 30
0.0
 11
329.79999999999995
 21
-314.0
 31
0.0
  0
LINE
  8
0
 62
0
 10
323.0
 20
-270.0
 30
0.0
 11
323.0
 21
-314.0
 31
0.0
  0
LINE
  8
0
 62
0
 10
283.0
 20
-270.0
 30
0.0
 11
323.0
 21
-269.9999999999999
 31
0.0
  0
LINE
  8
0
 62
0
 10
320.0
 20
-317.0
 30
0.0
 11
276.0
 21
-316.99999999999994
 31
0.0
  0
LINE
  8
0
 62
0
 10
320.0
 20
-323.79999999999995
 30
0.0
 11
319.99999999999994
 21
-317.0
 31
0.0
  0
LINE
  8
0
 62
0
 10
281.2
 20
-334.2
 30
0.0
 11
320.0
 21
-334.19999999999976
 31
0.0
  0
LINE
  8
0
 62
0
 10
320.0
 20
-341.5
 30
0.0
 11
320.0
 21
-334.2
 31
0.0
  0
LINE
  8
0
 62
0
 10
-320.0
 20
-341.5
 30
0.0
 11
320.0
 21
-341.5
 31
0.0
  0
LINE
  8
0
 62
0
 10
-319.99999999999994
 20
-341.5
 30
0.0
 11
-319.9999999999999
 21
-334.2
 31
0.0
  0
LINE
  8
0
 62
0
 10
-281.2
 20
-334.2
 30
0.0
 11
-320.0
 21
-334.19999999999993
 31
0.0
  0
LINE
  8
0
 62
0
 10
-319.9999999999998
 20
-323.79999999999995
 30
0.0
 11
-319.99999999999966
 21
-317.0
 31
0.0
  0
LINE
  8
0
 62
0
 10
-320.0
 20
-317.0
 30
0.0
 11
-276.0
 21
-317.0
 31
0.0
  0
LINE
  8
0
 62
0
 10
-276.0
 20
-317.0
 30
0.0
 11
-276.0
 21
-277.0
 31
0.0
  0
LINE
  8
0
 62
0
 10
-323.0
 20
-270.0
 30
0.0
 11
-322.99999999999994
 21
-314.0
 31
0.0
  0
LINE
  8
0
 62
0
 10
-323.0
 20
-314.0
 30
0.0
 11
-329.79999999999995
 21
-314.0
 31
0.0
  0
LINE
  8
0
 62
0
 10
-329.79999999999995
 20
-275.2
 30
0.0
 11
-329.8
 21
-314.0
 31
0.0
  0
LINE
  8
0
 62
0
 10
-340.2
 20
-314.0
 30
0.0
 11
-349.0
 21
-313.99999999999994
 31
0.0
  0
LINE
  8
0
 62
0
 10
-348.99999999999994
 20
278.0
 30
0.0
 11
-348.99999999999966
 21
-314.0
 31
0.0
  0
LINE
  8
0
 62
0
 10
-320.0
 20
278.0
 30
0.0
 11
-349.0
 21
277.99999999999994
 31
0.0
  0
LINE
  8
0
 62
0
 10
-320.0
 20
314.0
 30
0.0
 11
-319.99999999999994
 21
278.0
 31
0.0
  0
LINE
  8
0
 62
0
 10
-320.0
 20
314.0
 30
0.0
 11
-284.0
 21
314.0
 31
0.0
  0
LINE
  8
0
 62
0
 10
-284.0
 20
314.0
 30
0.0
 11
-283.99999999999994
 21
343.0
 31
0.0
  0
LINE
  8
0
 62
0
 10
-59.0
 20
343.0
 30
0.0
 11
-284.0
 21
343.0
 31
0.0
  0
LINE
  8
0
 62
0
 10
-59.0
 20
343.0
 30
0.0
 11
-58.99999999999997
 21
266.5
 31
0.0
  0
LINE
  8
0
 62
0
 10
-51.0
 20
258.5
 30
0.0
 11
-59.00000000000007
 21
266.49999999999994
 31
0.0
  0
LINE
  8
0
 62
0
 10
11.5
 20
258.5
 30
0.0
 11
-51.0
 21
258.5
 31
0.0
  0
LINE
  8
0
 62
0
 10
19.5
 20
266.5
 30
0.0
 11
11.499999999999984
 21
258.5
 31
0.0
  0
LINE
  8
0
 62
0
 10
19.5
 20
314.0
 30
0.0
 11
19.5
 21
266.5
 31
0.0
  0
LINE
  8
0
 62
0
 10
19.5
 20
314.0
 30
0.0
 11
51.0
 21
314.0
 31
0.0
  0
LINE
  8
0
 62
0
 10
51.0
 20
314.0
 30
0.0
 11
50.99999999999982
 21
343.0
 31
0.0
  0
LINE
  8
0
 62
0
 10
284.0
 20
343.0
 30
0.0
 11
51.0
 21
343.0
 31
0.0
  0
LINE
  8
0
 62
0
 10
284.0
 20
314.0
 30
0.0
 11
283.99999999999994
 21
343.0
 31
0.0
  0
LINE
  8
0
 62
0
 10
-283.0
 20
-270.0
 30
0.0
 11
-323.0
 21
-270.0
 31
0.0
  0
LINE
  8
0
 62
0
 10
-276.0
 20
-277.0
 30
0.0
 11
-283.0
 21
-270.0
 31
0.0
  0
LINE
  8
0
 62
0
 10
276.0
 20
-317.0
 30
0.0
 11
276.0
 21
-277.0
 31
0.0
  0
LINE
  8
0
 62
0
 10
283.0
 20
-270.0
 30
0.0
 11
276.0
 21
-277.0
 31
0.0
  0
ARC
  8
0
 62
0
 10
281.2
 20
-329.0
 30
0.0
 40
5.199999999999982
 50
90.0
 51
-90.0
  0
LINE
  8
0
 62
0
 10
281.2
 20
-323.79999999999995
 30
0.0
 11
320.0
 21
-323.7999999999999
 31
0.0
  0
ARC
  8
0
 62
0
 10
335.0
 20
-275.2
 30
0.0
 40
5.199999999999982
 50
0.0
 51
-180.0
  0
LINE
  8
0
 62
0
 10
340.2
 20
-275.2
 30
0.0
 11
340.2000000000002
 21
-314.0
 31
0.0
  0
LINE
  8
0
 62
0
 10
-340.2
 20
-275.2
 30
0.0
 11
-340.2000000000002
 21
-314.0
 31
0.0
  0
ARC
  8
0
 62
0
 10
-335.0
 20
-275.2
 30
0.0
 40
5.199999999999982
 50
-0.0
 51
180.0
  0
LINE
  8
0
 62
0
 10
-281.2
 20
-323.79999999999995
 30
0.0
 11
-320.0
 21
-323.7999999999999
 31
0.0
  0
ARC
  8
0
 62
0
 10
-281.2
 20
-329.0
 30
0.0
 40
5.199999999999982
 50
-90.0
 51
90.0
  0
ARC
  8
0
 62
0
 10
335.0
 20
-250.0
 30
0.0
 40
3.300000000000025
 50
-180.0
 51
-0.0
  0
ARC
  8
0
 62
0
 10
33.0
 20
-329.0
 30
0.0
 40
3.299999999999997
 50
-180.0
 51
-0.0
  0
ARC
  8
0
 62
0
 10
-256.0
 20
-329.0
 30
0.0
 40
3.300000000000025
 50
-180.0
 51
-0.0
  0
ARC
  8
0
 62
0
 10
335.0
 20
1.88088961488927e-13
 30
0.0
 40
3.300000000000025
 50
-180.0
 51
-0.0
  0
ARC
  8
0
 62
0
 10
-335.0
 20
7.7599843496156e-14
 30
0.0
 40
3.300000000000025
 50
-180.0
 51
-0.0
  0
ARC
  8
0
 62
0
 10
269.0
 20
329.0
 30
0.0
 40
3.300000000000025
 50
-180.0
 51
-0.0
  0
ARC
  8
0
 62
0
 10
-74.0
 20
329.0
 30
0.0
 40
3.299999999999997
 50
-180.0
 51
-0.0
  0
ARC
  8
0
 62
0
 10
-269.0
 20
329.0
 30
0.0
 40
3.300000000000025
 50
-180.0
 51
-0.0
  0
ARC
  8
0
 62
0
 10
66.0
 20
329.0
 30
0.0
 40
3.299999999999997
 50
-180.0
 51
-0.0
  0
ARC
  8
0
 62
0
 10
-335.0
 20
263.0
 30
0.0
 40
3.300000000000025
 50
-180.0
 51
-0.0
  0
ARC
  8
0
 62
0
 10
335.0
 20
263.0
 30
0.0
 40
3.300000000000025
 50
-180.0
 51
-0.0
  0
ARC
  8
0
 62
0
 10
-335.0
 20
-250.0
 30
0.0
 40
3.300000000000025
 50
-180.0
 51
-0.0
  0
ARC
  8
0
 62
0
 10
-33.0
 20
-329.0
 30
0.0
 40
3.3000000000000007
 50
-180.0
 51
-0.0
  0
ARC
  8
0
 62
0
 10
256.0
 20
-329.0
 30
0.0
 40
3.300000000000025
 50
-180.0
 51
-0.0
  0
ENDBLK
  0
ENDSEC
  0
SECTION
  2
ENTITIES
  0
INSERT
  2
FACEFEAT
  8
0
 62
0
 10
0.0
 20
0.0
 30
0.0
  0
ENDSEC
  0
EOF
