999
Created by ADMesh version 0.98.3
0
SECTION
2
HEADER
0
ENDSEC
0
SECTION
2
TABLES
0
TABLE
2
LAYER
70
1
0
LAYER
2
0
70
0
62
7
6
CONTINUOUS
0
ENDTAB
0
ENDSEC
0
SECTION
2
BLOCKS
0
ENDSEC
0
SECTION
2
ENTITIES
0
3DFACE
8
0
10
-338.299988
20
0.000000
30
0.000000
11
-338.299988
21
0.000000
31
-4.000000
12
-337.921997
22
1.533600
32
0.000000
13
-337.921997
23
1.533600
33
0.000000
0
3DFACE
8
0
10
-337.921997
20
1.533600
30
0.000000
11
-337.921997
21
1.533600
31
-4.000000
12
-336.875000
22
2.715800
32
0.000000
13
-336.875000
23
2.715800
33
0.000000
0
3DFACE
8
0
10
-338.299988
20
0.000000
30
-4.000000
11
-337.921997
21
1.533600
31
-4.000000
12
-337.921997
22
1.533600
32
0.000000
13
-337.921997
23
1.533600
33
0.000000
0
3DFACE
8
0
10
-336.875000
20
2.715800
30
0.000000
11
-336.875000
21
2.715800
31
-4.000000
12
-335.398010
22
3.275900
32
0.000000
13
-335.398010
23
3.275900
33
0.000000
0
3DFACE
8
0
10
-337.921997
20
1.533600
30
-4.000000
11
-336.875000
21
2.715800
31
-4.000000
12
-336.875000
22
2.715800
32
0.000000
13
-336.875000
23
2.715800
33
0.000000
0
3DFACE
8
0
10
-335.398010
20
3.275900
30
0.000000
11
-335.398010
21
3.275900
31
-4.000000
12
-333.829987
22
3.085600
32
0.000000
13
-333.829987
23
3.085600
33
0.000000
0
3DFACE
8
0
10
-336.875000
20
2.715800
30
-4.000000
11
-335.398010
21
3.275900
31
-4.000000
12
-335.398010
22
3.275900
32
0.000000
13
-335.398010
23
3.275900
33
0.000000
0
3DFACE
8
0
10
-333.829987
20
3.085600
30
0.000000
11
-333.829987
21
3.085600
31
-4.000000
12
-332.529999
22
2.188300
32
0.000000
13
-332.529999
23
2.188300
33
0.000000
0
3DFACE
8
0
10
-335.398010
20
3.275900
30
-4.000000
11
-333.829987
21
3.085600
31
-4.000000
12
-333.829987
22
3.085600
32
0.000000
13
-333.829987
23
3.085600
33
0.000000
0
3DFACE
8
0
10
-332.529999
20
2.188300
30
0.000000
11
-332.529999
21
2.188300
31
-4.000000
12
-331.795990
22
0.789700
32
0.000000
13
-331.795990
23
0.789700
33
0.000000
0
3DFACE
8
0
10
-333.829987
20
3.085600
30
-4.000000
11
-332.529999
21
2.188300
31
-4.000000
12
-332.529999
22
2.188300
32
0.000000
13
-332.529999
23
2.188300
33
0.000000
0
3DFACE
8
0
10
-331.795990
20
0.789700
30
0.000000
11
-331.795990
21
0.789700
31
-4.000000
12
-331.795990
22
-0.789700
32
0.000000
13
-331.795990
23
-0.789700
33
0.000000
0
3DFACE
8
0
10
-332.529999
20
2.188300
30
-4.000000
11
-331.795990
21
0.789700
31
-4.000000
12
-331.795990
22
0.789700
32
0.000000
13
-331.795990
23
0.789700
33
0.000000
0
3DFACE
8
0
10
-331.795990
20
-0.789700
30
0.000000
11
-331.795990
21
-0.789700
31
-4.000000
12
-332.529999
22
-2.188300
32
0.000000
13
-332.529999
23
-2.188300
33
0.000000
0
3DFACE
8
0
10
-331.795990
20
0.789700
30
-4.000000
11
-331.795990
21
-0.789700
31
-4.000000
12
-331.795990
22
-0.789700
32
0.000000
13
-331.795990
23
-0.789700
33
0.000000
0
3DFACE
8
0
10
-332.529999
20
-2.188300
30
0.000000
11
-332.529999
21
-2.188300
31
-4.000000
12
-333.829987
22
-3.085600
32
0.000000
13
-333.829987
23
-3.085600
33
0.000000
0
3DFACE
8
0
10
-331.795990
20
-0.789700
30
-4.000000
11
-332.529999
21
-2.188300
31
-4.000000
12
-332.529999
22
-2.188300
32
0.000000
13
-332.529999
23
-2.188300
33
0.000000
0
3DFACE
8
0
10
-333.829987
20
-3.085600
30
0.000000
11
-333.829987
21
-3.085600
31
-4.000000
12
-335.398010
22
-3.275900
32
0.000000
13
-335.398010
23
-3.275900
33
0.000000
0
3DFACE
8
0
10
-332.529999
20
-2.188300
30
-4.000000
11
-333.829987
21
-3.085600
31
-4.000000
12
-333.829987
22
-3.085600
32
0.000000
13
-333.829987
23
-3.085600
33
0.000000
0
3DFACE
8
0
10
-333.829987
20
-3.085600
30
-4.000000
11
-335.398010
21
-3.275900
31
-4.000000
12
-335.398010
22
-3.275900
32
0.000000
13
-335.398010
23
-3.275900
33
0.000000
0
3DFACE
8
0
10
-335.398010
20
-3.275900
30
0.000000
11
-336.875000
21
-2.715800
31
-4.000000
12
-336.875000
22
-2.715800
32
0.000000
13
-336.875000
23
-2.715800
33
0.000000
0
3DFACE
8
0
10
-336.875000
20
-2.715800
30
0.000000
11
-336.875000
21
-2.715800
31
-4.000000
12
-337.921997
22
-1.533600
32
0.000000
13
-337.921997
23
-1.533600
33
0.000000
0
3DFACE
8
0
10
-335.398010
20
-3.275900
30
-4.000000
11
-336.875000
21
-2.715800
31
-4.000000
12
-335.398010
22
-3.275900
32
0.000000
13
-335.398010
23
-3.275900
33
0.000000
0
3DFACE
8
0
10
-337.921997
20
-1.533600
30
0.000000
11
-337.921997
21
-1.533600
31
-4.000000
12
-338.299988
22
0.000000
32
0.000000
13
-338.299988
23
0.000000
33
0.000000
0
3DFACE
8
0
10
-336.875000
20
-2.715800
30
-4.000000
11
-337.921997
21
-1.533600
31
-4.000000
12
-337.921997
22
-1.533600
32
0.000000
13
-337.921997
23
-1.533600
33
0.000000
0
3DFACE
8
0
10
-337.921997
20
-1.533600
30
-4.000000
11
-338.299988
21
0.000000
31
-4.000000
12
-338.299988
22
0.000000
32
0.000000
13
-338.299988
23
0.000000
33
0.000000
0
3DFACE
8
0
10
-3.300100
20
-132.000000
30
0.000000
11
-3.300100
21
-132.000000
31
-4.000000
12
-2.922100
22
-130.466003
32
0.000000
13
-2.922100
23
-130.466003
33
0.000000
0
3DFACE
8
0
10
-2.922100
20
-130.466003
30
0.000000
11
-2.922100
21
-130.466003
31
-4.000000
12
-1.874700
22
-129.283997
32
0.000000
13
-1.874700
23
-129.283997
33
0.000000
0
3DFACE
8
0
10
-3.300100
20
-132.000000
30
-4.000000
11
-2.922100
21
-130.466003
31
-4.000000
12
-2.922100
22
-130.466003
32
0.000000
13
-2.922100
23
-130.466003
33
0.000000
0
3DFACE
8
0
10
-1.874700
20
-129.283997
30
0.000000
11
-1.874700
21
-129.283997
31
-4.000000
12
-0.397900
22
-128.723999
32
0.000000
13
-0.397900
23
-128.723999
33
0.000000
0
3DFACE
8
0
10
-2.922100
20
-130.466003
30
-4.000000
11
-1.874700
21
-129.283997
31
-4.000000
12
-1.874700
22
-129.283997
32
0.000000
13
-1.874700
23
-129.283997
33
0.000000
0
3DFACE
8
0
10
-0.397900
20
-128.723999
30
0.000000
11
-0.397900
21
-128.723999
31
-4.000000
12
1.170100
22
-128.914001
32
0.000000
13
1.170100
23
-128.914001
33
0.000000
0
3DFACE
8
0
10
-1.874700
20
-129.283997
30
-4.000000
11
-0.397900
21
-128.723999
31
-4.000000
12
-0.397900
22
-128.723999
32
0.000000
13
-0.397900
23
-128.723999
33
0.000000
0
3DFACE
8
0
10
1.170100
20
-128.914001
30
0.000000
11
1.170100
21
-128.914001
31
-4.000000
12
2.470000
22
-129.811996
32
0.000000
13
2.470000
23
-129.811996
33
0.000000
0
3DFACE
8
0
10
-0.397900
20
-128.723999
30
-4.000000
11
1.170100
21
-128.914001
31
-4.000000
12
1.170100
22
-128.914001
32
0.000000
13
1.170100
23
-128.914001
33
0.000000
0
3DFACE
8
0
10
2.470000
20
-129.811996
30
0.000000
11
2.470000
21
-129.811996
31
-4.000000
12
3.204000
22
-131.210007
32
0.000000
13
3.204000
23
-131.210007
33
0.000000
0
3DFACE
8
0
10
1.170100
20
-128.914001
30
-4.000000
11
2.470000
21
-129.811996
31
-4.000000
12
2.470000
22
-129.811996
32
0.000000
13
2.470000
23
-129.811996
33
0.000000
0
3DFACE
8
0
10
3.204000
20
-131.210007
30
0.000000
11
3.204000
21
-131.210007
31
-4.000000
12
3.204000
22
-132.789993
32
0.000000
13
3.204000
23
-132.789993
33
0.000000
0
3DFACE
8
0
10
2.470000
20
-129.811996
30
-4.000000
11
3.204000
21
-131.210007
31
-4.000000
12
3.204000
22
-131.210007
32
0.000000
13
3.204000
23
-131.210007
33
0.000000
0
3DFACE
8
0
10
3.204000
20
-132.789993
30
0.000000
11
3.204000
21
-132.789993
31
-4.000000
12
2.470000
22
-134.188004
32
0.000000
13
2.470000
23
-134.188004
33
0.000000
0
3DFACE
8
0
10
3.204000
20
-131.210007
30
-4.000000
11
3.204000
21
-132.789993
31
-4.000000
12
3.204000
22
-132.789993
32
0.000000
13
3.204000
23
-132.789993
33
0.000000
0
3DFACE
8
0
10
2.470000
20
-134.188004
30
0.000000
11
2.470000
21
-134.188004
31
-4.000000
12
1.170100
22
-135.085999
32
0.000000
13
1.170100
23
-135.085999
33
0.000000
0
3DFACE
8
0
10
3.204000
20
-132.789993
30
-4.000000
11
2.470000
21
-134.188004
31
-4.000000
12
2.470000
22
-134.188004
32
0.000000
13
2.470000
23
-134.188004
33
0.000000
0
3DFACE
8
0
10
1.170100
20
-135.085999
30
0.000000
11
1.170100
21
-135.085999
31
-4.000000
12
-0.397900
22
-135.276001
32
0.000000
13
-0.397900
23
-135.276001
33
0.000000
0
3DFACE
8
0
10
2.470000
20
-134.188004
30
-4.000000
11
1.170100
21
-135.085999
31
-4.000000
12
1.170100
22
-135.085999
32
0.000000
13
1.170100
23
-135.085999
33
0.000000
0
3DFACE
8
0
10
1.170100
20
-135.085999
30
-4.000000
11
-0.397900
21
-135.276001
31
-4.000000
12
-0.397900
22
-135.276001
32
0.000000
13
-0.397900
23
-135.276001
33
0.000000
0
3DFACE
8
0
10
-0.397900
20
-135.276001
30
0.000000
11
-1.874700
21
-134.716003
31
-4.000000
12
-1.874700
22
-134.716003
32
0.000000
13
-1.874700
23
-134.716003
33
0.000000
0
3DFACE
8
0
10
-1.874700
20
-134.716003
30
0.000000
11
-1.874700
21
-134.716003
31
-4.000000
12
-2.922100
22
-133.533997
32
0.000000
13
-2.922100
23
-133.533997
33
0.000000
0
3DFACE
8
0
10
-0.397900
20
-135.276001
30
-4.000000
11
-1.874700
21
-134.716003
31
-4.000000
12
-0.397900
22
-135.276001
32
0.000000
13
-0.397900
23
-135.276001
33
0.000000
0
3DFACE
8
0
10
-2.922100
20
-133.533997
30
0.000000
11
-2.922100
21
-133.533997
31
-4.000000
12
-3.300100
22
-132.000000
32
0.000000
13
-3.300100
23
-132.000000
33
0.000000
0
3DFACE
8
0
10
-1.874700
20
-134.716003
30
-4.000000
11
-2.922100
21
-133.533997
31
-4.000000
12
-2.922100
22
-133.533997
32
0.000000
13
-2.922100
23
-133.533997
33
0.000000
0
3DFACE
8
0
10
-2.922100
20
-133.533997
30
-4.000000
11
-3.300100
21
-132.000000
31
-4.000000
12
-3.300100
22
-132.000000
32
0.000000
13
-3.300100
23
-132.000000
33
0.000000
0
3DFACE
8
0
10
226.699997
20
132.000000
30
0.000000
11
226.699997
21
132.000000
31
-4.000000
12
227.078003
22
133.533997
32
0.000000
13
227.078003
23
133.533997
33
0.000000
0
3DFACE
8
0
10
227.078003
20
133.533997
30
0.000000
11
227.078003
21
133.533997
31
-4.000000
12
228.125000
22
134.716003
32
0.000000
13
228.125000
23
134.716003
33
0.000000
0
3DFACE
8
0
10
226.699997
20
132.000000
30
-4.000000
11
227.078003
21
133.533997
31
-4.000000
12
227.078003
22
133.533997
32
0.000000
13
227.078003
23
133.533997
33
0.000000
0
3DFACE
8
0
10
228.125000
20
134.716003
30
0.000000
11
228.125000
21
134.716003
31
-4.000000
12
229.602005
22
135.276001
32
0.000000
13
229.602005
23
135.276001
33
0.000000
0
3DFACE
8
0
10
227.078003
20
133.533997
30
-4.000000
11
228.125000
21
134.716003
31
-4.000000
12
228.125000
22
134.716003
32
0.000000
13
228.125000
23
134.716003
33
0.000000
0
3DFACE
8
0
10
229.602005
20
135.276001
30
0.000000
11
229.602005
21
135.276001
31
-4.000000
12
231.169998
22
135.085999
32
0.000000
13
231.169998
23
135.085999
33
0.000000
0
3DFACE
8
0
10
228.125000
20
134.716003
30
-4.000000
11
229.602005
21
135.276001
31
-4.000000
12
229.602005
22
135.276001
32
0.000000
13
229.602005
23
135.276001
33
0.000000
0
3DFACE
8
0
10
231.169998
20
135.085999
30
0.000000
11
231.169998
21
135.085999
31
-4.000000
12
232.470001
22
134.188004
32
0.000000
13
232.470001
23
134.188004
33
0.000000
0
3DFACE
8
0
10
229.602005
20
135.276001
30
-4.000000
11
231.169998
21
135.085999
31
-4.000000
12
231.169998
22
135.085999
32
0.000000
13
231.169998
23
135.085999
33
0.000000
0
3DFACE
8
0
10
232.470001
20
134.188004
30
0.000000
11
232.470001
21
134.188004
31
-4.000000
12
233.203995
22
132.789993
32
0.000000
13
233.203995
23
132.789993
33
0.000000
0
3DFACE
8
0
10
231.169998
20
135.085999
30
-4.000000
11
232.470001
21
134.188004
31
-4.000000
12
232.470001
22
134.188004
32
0.000000
13
232.470001
23
134.188004
33
0.000000
0
3DFACE
8
0
10
233.203995
20
132.789993
30
0.000000
11
233.203995
21
132.789993
31
-4.000000
12
233.203995
22
131.210007
32
0.000000
13
233.203995
23
131.210007
33
0.000000
0
3DFACE
8
0
10
232.470001
20
134.188004
30
-4.000000
11
233.203995
21
132.789993
31
-4.000000
12
233.203995
22
132.789993
32
0.000000
13
233.203995
23
132.789993
33
0.000000
0
3DFACE
8
0
10
233.203995
20
131.210007
30
0.000000
11
233.203995
21
131.210007
31
-4.000000
12
232.470001
22
129.811996
32
0.000000
13
232.470001
23
129.811996
33
0.000000
0
3DFACE
8
0
10
233.203995
20
132.789993
30
-4.000000
11
233.203995
21
131.210007
31
-4.000000
12
233.203995
22
131.210007
32
0.000000
13
233.203995
23
131.210007
33
0.000000
0
3DFACE
8
0
10
232.470001
20
129.811996
30
0.000000
11
232.470001
21
129.811996
31
-4.000000
12
231.169998
22
128.914001
32
0.000000
13
231.169998
23
128.914001
33
0.000000
0
3DFACE
8
0
10
233.203995
20
131.210007
30
-4.000000
11
232.470001
21
129.811996
31
-4.000000
12
232.470001
22
129.811996
32
0.000000
13
232.470001
23
129.811996
33
0.000000
0
3DFACE
8
0
10
231.169998
20
128.914001
30
0.000000
11
231.169998
21
128.914001
31
-4.000000
12
229.602005
22
128.723999
32
0.000000
13
229.602005
23
128.723999
33
0.000000
0
3DFACE
8
0
10
232.470001
20
129.811996
30
-4.000000
11
231.169998
21
128.914001
31
-4.000000
12
231.169998
22
128.914001
32
0.000000
13
231.169998
23
128.914001
33
0.000000
0
3DFACE
8
0
10
231.169998
20
128.914001
30
-4.000000
11
229.602005
21
128.723999
31
-4.000000
12
229.602005
22
128.723999
32
0.000000
13
229.602005
23
128.723999
33
0.000000
0
3DFACE
8
0
10
229.602005
20
128.723999
30
0.000000
11
228.125000
21
129.283997
31
-4.000000
12
228.125000
22
129.283997
32
0.000000
13
228.125000
23
129.283997
33
0.000000
0
3DFACE
8
0
10
228.125000
20
129.283997
30
0.000000
11
228.125000
21
129.283997
31
-4.000000
12
227.078003
22
130.466003
32
0.000000
13
227.078003
23
130.466003
33
0.000000
0
3DFACE
8
0
10
229.602005
20
128.723999
30
-4.000000
11
228.125000
21
129.283997
31
-4.000000
12
229.602005
22
128.723999
32
0.000000
13
229.602005
23
128.723999
33
0.000000
0
3DFACE
8
0
10
227.078003
20
130.466003
30
0.000000
11
227.078003
21
130.466003
31
-4.000000
12
226.699997
22
132.000000
32
0.000000
13
226.699997
23
132.000000
33
0.000000
0
3DFACE
8
0
10
228.125000
20
129.283997
30
-4.000000
11
227.078003
21
130.466003
31
-4.000000
12
227.078003
22
130.466003
32
0.000000
13
227.078003
23
130.466003
33
0.000000
0
3DFACE
8
0
10
227.078003
20
130.466003
30
-4.000000
11
226.699997
21
132.000000
31
-4.000000
12
226.699997
22
132.000000
32
0.000000
13
226.699997
23
132.000000
33
0.000000
0
3DFACE
8
0
10
-233.300003
20
132.000000
30
0.000000
11
-233.300003
21
132.000000
31
-4.000000
12
-232.921997
22
133.533997
32
0.000000
13
-232.921997
23
133.533997
33
0.000000
0
3DFACE
8
0
10
-232.921997
20
133.533997
30
0.000000
11
-232.921997
21
133.533997
31
-4.000000
12
-231.875000
22
134.716003
32
0.000000
13
-231.875000
23
134.716003
33
0.000000
0
3DFACE
8
0
10
-233.300003
20
132.000000
30
-4.000000
11
-232.921997
21
133.533997
31
-4.000000
12
-232.921997
22
133.533997
32
0.000000
13
-232.921997
23
133.533997
33
0.000000
0
3DFACE
8
0
10
-231.875000
20
134.716003
30
0.000000
11
-231.875000
21
134.716003
31
-4.000000
12
-230.397995
22
135.276001
32
0.000000
13
-230.397995
23
135.276001
33
0.000000
0
3DFACE
8
0
10
-232.921997
20
133.533997
30
-4.000000
11
-231.875000
21
134.716003
31
-4.000000
12
-231.875000
22
134.716003
32
0.000000
13
-231.875000
23
134.716003
33
0.000000
0
3DFACE
8
0
10
-230.397995
20
135.276001
30
0.000000
11
-230.397995
21
135.276001
31
-4.000000
12
-228.830002
22
135.085999
32
0.000000
13
-228.830002
23
135.085999
33
0.000000
0
3DFACE
8
0
10
-231.875000
20
134.716003
30
-4.000000
11
-230.397995
21
135.276001
31
-4.000000
12
-230.397995
22
135.276001
32
0.000000
13
-230.397995
23
135.276001
33
0.000000
0
3DFACE
8
0
10
-228.830002
20
135.085999
30
0.000000
11
-228.830002
21
135.085999
31
-4.000000
12
-227.529999
22
134.188004
32
0.000000
13
-227.529999
23
134.188004
33
0.000000
0
3DFACE
8
0
10
-230.397995
20
135.276001
30
-4.000000
11
-228.830002
21
135.085999
31
-4.000000
12
-228.830002
22
135.085999
32
0.000000
13
-228.830002
23
135.085999
33
0.000000
0
3DFACE
8
0
10
-227.529999
20
134.188004
30
0.000000
11
-227.529999
21
134.188004
31
-4.000000
12
-226.796005
22
132.789993
32
0.000000
13
-226.796005
23
132.789993
33
0.000000
0
3DFACE
8
0
10
-228.830002
20
135.085999
30
-4.000000
11
-227.529999
21
134.188004
31
-4.000000
12
-227.529999
22
134.188004
32
0.000000
13
-227.529999
23
134.188004
33
0.000000
0
3DFACE
8
0
10
-226.796005
20
132.789993
30
0.000000
11
-226.796005
21
132.789993
31
-4.000000
12
-226.796005
22
131.210007
32
0.000000
13
-226.796005
23
131.210007
33
0.000000
0
3DFACE
8
0
10
-227.529999
20
134.188004
30
-4.000000
11
-226.796005
21
132.789993
31
-4.000000
12
-226.796005
22
132.789993
32
0.000000
13
-226.796005
23
132.789993
33
0.000000
0
3DFACE
8
0
10
-226.796005
20
131.210007
30
0.000000
11
-226.796005
21
131.210007
31
-4.000000
12
-227.529999
22
129.811996
32
0.000000
13
-227.529999
23
129.811996
33
0.000000
0
3DFACE
8
0
10
-226.796005
20
132.789993
30
-4.000000
11
-226.796005
21
131.210007
31
-4.000000
12
-226.796005
22
131.210007
32
0.000000
13
-226.796005
23
131.210007
33
0.000000
0
3DFACE
8
0
10
-227.529999
20
129.811996
30
0.000000
11
-227.529999
21
129.811996
31
-4.000000
12
-228.830002
22
128.914001
32
0.000000
13
-228.830002
23
128.914001
33
0.000000
0
3DFACE
8
0
10
-226.796005
20
131.210007
30
-4.000000
11
-227.529999
21
129.811996
31
-4.000000
12
-227.529999
22
129.811996
32
0.000000
13
-227.529999
23
129.811996
33
0.000000
0
3DFACE
8
0
10
-228.830002
20
128.914001
30
0.000000
11
-228.830002
21
128.914001
31
-4.000000
12
-230.397995
22
128.723999
32
0.000000
13
-230.397995
23
128.723999
33
0.000000
0
3DFACE
8
0
10
-227.529999
20
129.811996
30
-4.000000
11
-228.830002
21
128.914001
31
-4.000000
12
-228.830002
22
128.914001
32
0.000000
13
-228.830002
23
128.914001
33
0.000000
0
3DFACE
8
0
10
-228.830002
20
128.914001
30
-4.000000
11
-230.397995
21
128.723999
31
-4.000000
12
-230.397995
22
128.723999
32
0.000000
13
-230.397995
23
128.723999
33
0.000000
0
3DFACE
8
0
10
-230.397995
20
128.723999
30
0.000000
11
-231.875000
21
129.283997
31
-4.000000
12
-231.875000
22
129.283997
32
0.000000
13
-231.875000
23
129.283997
33
0.000000
0
3DFACE
8
0
10
-231.875000
20
129.283997
30
0.000000
11
-231.875000
21
129.283997
31
-4.000000
12
-232.921997
22
130.466003
32
0.000000
13
-232.921997
23
130.466003
33
0.000000
0
3DFACE
8
0
10
-230.397995
20
128.723999
30
-4.000000
11
-231.875000
21
129.283997
31
-4.000000
12
-230.397995
22
128.723999
32
0.000000
13
-230.397995
23
128.723999
33
0.000000
0
3DFACE
8
0
10
-232.921997
20
130.466003
30
0.000000
11
-232.921997
21
130.466003
31
-4.000000
12
-233.300003
22
132.000000
32
0.000000
13
-233.300003
23
132.000000
33
0.000000
0
3DFACE
8
0
10
-231.875000
20
129.283997
30
-4.000000
11
-232.921997
21
130.466003
31
-4.000000
12
-232.921997
22
130.466003
32
0.000000
13
-232.921997
23
130.466003
33
0.000000
0
3DFACE
8
0
10
-232.921997
20
130.466003
30
-4.000000
11
-233.300003
21
132.000000
31
-4.000000
12
-233.300003
22
132.000000
32
0.000000
13
-233.300003
23
132.000000
33
0.000000
0
3DFACE
8
0
10
-3.300100
20
132.000000
30
0.000000
11
-3.300100
21
132.000000
31
-4.000000
12
-2.922100
22
133.533997
32
0.000000
13
-2.922100
23
133.533997
33
0.000000
0
3DFACE
8
0
10
-2.922100
20
133.533997
30
0.000000
11
-2.922100
21
133.533997
31
-4.000000
12
-1.874700
22
134.716003
32
0.000000
13
-1.874700
23
134.716003
33
0.000000
0
3DFACE
8
0
10
-3.300100
20
132.000000
30
-4.000000
11
-2.922100
21
133.533997
31
-4.000000
12
-2.922100
22
133.533997
32
0.000000
13
-2.922100
23
133.533997
33
0.000000
0
3DFACE
8
0
10
-1.874700
20
134.716003
30
0.000000
11
-1.874700
21
134.716003
31
-4.000000
12
-0.397900
22
135.276001
32
0.000000
13
-0.397900
23
135.276001
33
0.000000
0
3DFACE
8
0
10
-2.922100
20
133.533997
30
-4.000000
11
-1.874700
21
134.716003
31
-4.000000
12
-1.874700
22
134.716003
32
0.000000
13
-1.874700
23
134.716003
33
0.000000
0
3DFACE
8
0
10
-0.397900
20
135.276001
30
0.000000
11
-0.397900
21
135.276001
31
-4.000000
12
1.170100
22
135.085999
32
0.000000
13
1.170100
23
135.085999
33
0.000000
0
3DFACE
8
0
10
-1.874700
20
134.716003
30
-4.000000
11
-0.397900
21
135.276001
31
-4.000000
12
-0.397900
22
135.276001
32
0.000000
13
-0.397900
23
135.276001
33
0.000000
0
3DFACE
8
0
10
1.170100
20
135.085999
30
0.000000
11
1.170100
21
135.085999
31
-4.000000
12
2.470000
22
134.188004
32
0.000000
13
2.470000
23
134.188004
33
0.000000
0
3DFACE
8
0
10
-0.397900
20
135.276001
30
-4.000000
11
1.170100
21
135.085999
31
-4.000000
12
1.170100
22
135.085999
32
0.000000
13
1.170100
23
135.085999
33
0.000000
0
3DFACE
8
0
10
2.470000
20
134.188004
30
0.000000
11
2.470000
21
134.188004
31
-4.000000
12
3.204000
22
132.789993
32
0.000000
13
3.204000
23
132.789993
33
0.000000
0
3DFACE
8
0
10
1.170100
20
135.085999
30
-4.000000
11
2.470000
21
134.188004
31
-4.000000
12
2.470000
22
134.188004
32
0.000000
13
2.470000
23
134.188004
33
0.000000
0
3DFACE
8
0
10
3.204000
20
132.789993
30
0.000000
11
3.204000
21
132.789993
31
-4.000000
12
3.204000
22
131.210007
32
0.000000
13
3.204000
23
131.210007
33
0.000000
0
3DFACE
8
0
10
2.470000
20
134.188004
30
-4.000000
11
3.204000
21
132.789993
31
-4.000000
12
3.204000
22
132.789993
32
0.000000
13
3.204000
23
132.789993
33
0.000000
0
3DFACE
8
0
10
3.204000
20
131.210007
30
0.000000
11
3.204000
21
131.210007
31
-4.000000
12
2.470000
22
129.811996
32
0.000000
13
2.470000
23
129.811996
33
0.000000
0
3DFACE
8
0
10
3.204000
20
132.789993
30
-4.000000
11
3.204000
21
131.210007
31
-4.000000
12
3.204000
22
131.210007
32
0.000000
13
3.204000
23
131.210007
33
0.000000
0
3DFACE
8
0
10
2.470000
20
129.811996
30
0.000000
11
2.470000
21
129.811996
31
-4.000000
12
1.170100
22
128.914001
32
0.000000
13
1.170100
23
128.914001
33
0.000000
0
3DFACE
8
0
10
3.204000
20
131.210007
30
-4.000000
11
2.470000
21
129.811996
31
-4.000000
12
2.470000
22
129.811996
32
0.000000
13
2.470000
23
129.811996
33
0.000000
0
3DFACE
8
0
10
1.170100
20
128.914001
30
0.000000
11
1.170100
21
128.914001
31
-4.000000
12
-0.397900
22
128.723999
32
0.000000
13
-0.397900
23
128.723999
33
0.000000
0
3DFACE
8
0
10
2.470000
20
129.811996
30
-4.000000
11
1.170100
21
128.914001
31
-4.000000
12
1.170100
22
128.914001
32
0.000000
13
1.170100
23
128.914001
33
0.000000
0
3DFACE
8
0
10
1.170100
20
128.914001
30
-4.000000
11
-0.397900
21
128.723999
31
-4.000000
12
-0.397900
22
128.723999
32
0.000000
13
-0.397900
23
128.723999
33
0.000000
0
3DFACE
8
0
10
-0.397900
20
128.723999
30
0.000000
11
-1.874700
21
129.283997
31
-4.000000
12
-1.874700
22
129.283997
32
0.000000
13
-1.874700
23
129.283997
33
0.000000
0
3DFACE
8
0
10
-1.874700
20
129.283997
30
0.000000
11
-1.874700
21
129.283997
31
-4.000000
12
-2.922100
22
130.466003
32
0.000000
13
-2.922100
23
130.466003
33
0.000000
0
3DFACE
8
0
10
-0.397900
20
128.723999
30
-4.000000
11
-1.874700
21
129.283997
31
-4.000000
12
-0.397900
22
128.723999
32
0.000000
13
-0.397900
23
128.723999
33
0.000000
0
3DFACE
8
0
10
-2.922100
20
130.466003
30
0.000000
11
-2.922100
21
130.466003
31
-4.000000
12
-3.300100
22
132.000000
32
0.000000
13
-3.300100
23
132.000000
33
0.000000
0
3DFACE
8
0
10
-1.874700
20
129.283997
30
-4.000000
11
-2.922100
21
130.466003
31
-4.000000
12
-2.922100
22
130.466003
32
0.000000
13
-2.922100
23
130.466003
33
0.000000
0
3DFACE
8
0
10
-2.922100
20
130.466003
30
-4.000000
11
-3.300100
21
132.000000
31
-4.000000
12
-3.300100
22
132.000000
32
0.000000
13
-3.300100
23
132.000000
33
0.000000
0
3DFACE
8
0
10
-233.300003
20
-132.000000
30
0.000000
11
-233.300003
21
-132.000000
31
-4.000000
12
-232.921997
22
-130.466003
32
0.000000
13
-232.921997
23
-130.466003
33
0.000000
0
3DFACE
8
0
10
-232.921997
20
-130.466003
30
0.000000
11
-232.921997
21
-130.466003
31
-4.000000
12
-231.875000
22
-129.283997
32
0.000000
13
-231.875000
23
-129.283997
33
0.000000
0
3DFACE
8
0
10
-233.300003
20
-132.000000
30
-4.000000
11
-232.921997
21
-130.466003
31
-4.000000
12
-232.921997
22
-130.466003
32
0.000000
13
-232.921997
23
-130.466003
33
0.000000
0
3DFACE
8
0
10
-231.875000
20
-129.283997
30
0.000000
11
-231.875000
21
-129.283997
31
-4.000000
12
-230.397995
22
-128.723999
32
0.000000
13
-230.397995
23
-128.723999
33
0.000000
0
3DFACE
8
0
10
-232.921997
20
-130.466003
30
-4.000000
11
-231.875000
21
-129.283997
31
-4.000000
12
-231.875000
22
-129.283997
32
0.000000
13
-231.875000
23
-129.283997
33
0.000000
0
3DFACE
8
0
10
-230.397995
20
-128.723999
30
0.000000
11
-230.397995
21
-128.723999
31
-4.000000
12
-228.830002
22
-128.914001
32
0.000000
13
-228.830002
23
-128.914001
33
0.000000
0
3DFACE
8
0
10
-231.875000
20
-129.283997
30
-4.000000
11
-230.397995
21
-128.723999
31
-4.000000
12
-230.397995
22
-128.723999
32
0.000000
13
-230.397995
23
-128.723999
33
0.000000
0
3DFACE
8
0
10
-228.830002
20
-128.914001
30
0.000000
11
-228.830002
21
-128.914001
31
-4.000000
12
-227.529999
22
-129.811996
32
0.000000
13
-227.529999
23
-129.811996
33
0.000000
0
3DFACE
8
0
10
-230.397995
20
-128.723999
30
-4.000000
11
-228.830002
21
-128.914001
31
-4.000000
12
-228.830002
22
-128.914001
32
0.000000
13
-228.830002
23
-128.914001
33
0.000000
0
3DFACE
8
0
10
-227.529999
20
-129.811996
30
0.000000
11
-227.529999
21
-129.811996
31
-4.000000
12
-226.796005
22
-131.210007
32
0.000000
13
-226.796005
23
-131.210007
33
0.000000
0
3DFACE
8
0
10
-228.830002
20
-128.914001
30
-4.000000
11
-227.529999
21
-129.811996
31
-4.000000
12
-227.529999
22
-129.811996
32
0.000000
13
-227.529999
23
-129.811996
33
0.000000
0
3DFACE
8
0
10
-226.796005
20
-131.210007
30
0.000000
11
-226.796005
21
-131.210007
31
-4.000000
12
-226.796005
22
-132.789993
32
0.000000
13
-226.796005
23
-132.789993
33
0.000000
0
3DFACE
8
0
10
-227.529999
20
-129.811996
30
-4.000000
11
-226.796005
21
-131.210007
31
-4.000000
12
-226.796005
22
-131.210007
32
0.000000
13
-226.796005
23
-131.210007
33
0.000000
0
3DFACE
8
0
10
-226.796005
20
-132.789993
30
0.000000
11
-226.796005
21
-132.789993
31
-4.000000
12
-227.529999
22
-134.188004
32
0.000000
13
-227.529999
23
-134.188004
33
0.000000
0
3DFACE
8
0
10
-226.796005
20
-131.210007
30
-4.000000
11
-226.796005
21
-132.789993
31
-4.000000
12
-226.796005
22
-132.789993
32
0.000000
13
-226.796005
23
-132.789993
33
0.000000
0
3DFACE
8
0
10
-227.529999
20
-134.188004
30
0.000000
11
-227.529999
21
-134.188004
31
-4.000000
12
-228.830002
22
-135.085999
32
0.000000
13
-228.830002
23
-135.085999
33
0.000000
0
3DFACE
8
0
10
-226.796005
20
-132.789993
30
-4.000000
11
-227.529999
21
-134.188004
31
-4.000000
12
-227.529999
22
-134.188004
32
0.000000
13
-227.529999
23
-134.188004
33
0.000000
0
3DFACE
8
0
10
-228.830002
20
-135.085999
30
0.000000
11
-228.830002
21
-135.085999
31
-4.000000
12
-230.397995
22
-135.276001
32
0.000000
13
-230.397995
23
-135.276001
33
0.000000
0
3DFACE
8
0
10
-227.529999
20
-134.188004
30
-4.000000
11
-228.830002
21
-135.085999
31
-4.000000
12
-228.830002
22
-135.085999
32
0.000000
13
-228.830002
23
-135.085999
33
0.000000
0
3DFACE
8
0
10
-228.830002
20
-135.085999
30
-4.000000
11
-230.397995
21
-135.276001
31
-4.000000
12
-230.397995
22
-135.276001
32
0.000000
13
-230.397995
23
-135.276001
33
0.000000
0
3DFACE
8
0
10
-230.397995
20
-135.276001
30
0.000000
11
-231.875000
21
-134.716003
31
-4.000000
12
-231.875000
22
-134.716003
32
0.000000
13
-231.875000
23
-134.716003
33
0.000000
0
3DFACE
8
0
10
-231.875000
20
-134.716003
30
0.000000
11
-231.875000
21
-134.716003
31
-4.000000
12
-232.921997
22
-133.533997
32
0.000000
13
-232.921997
23
-133.533997
33
0.000000
0
3DFACE
8
0
10
-230.397995
20
-135.276001
30
-4.000000
11
-231.875000
21
-134.716003
31
-4.000000
12
-230.397995
22
-135.276001
32
0.000000
13
-230.397995
23
-135.276001
33
0.000000
0
3DFACE
8
0
10
-232.921997
20
-133.533997
30
0.000000
11
-232.921997
21
-133.533997
31
-4.000000
12
-233.300003
22
-132.000000
32
0.000000
13
-233.300003
23
-132.000000
33
0.000000
0
3DFACE
8
0
10
-231.875000
20
-134.716003
30
-4.000000
11
-232.921997
21
-133.533997
31
-4.000000
12
-232.921997
22
-133.533997
32
0.000000
13
-232.921997
23
-133.533997
33
0.000000
0
3DFACE
8
0
10
-232.921997
20
-133.533997
30
-4.000000
11
-233.300003
21
-132.000000
31
-4.000000
12
-233.300003
22
-132.000000
32
0.000000
13
-233.300003
23
-132.000000
33
0.000000
0
3DFACE
8
0
10
226.699997
20
-132.000000
30
0.000000
11
226.699997
21
-132.000000
31
-4.000000
12
227.078003
22
-130.466003
32
0.000000
13
227.078003
23
-130.466003
33
0.000000
0
3DFACE
8
0
10
227.078003
20
-130.466003
30
0.000000
11
227.078003
21
-130.466003
31
-4.000000
12
228.125000
22
-129.283997
32
0.000000
13
228.125000
23
-129.283997
33
0.000000
0
3DFACE
8
0
10
226.699997
20
-132.000000
30
-4.000000
11
227.078003
21
-130.466003
31
-4.000000
12
227.078003
22
-130.466003
32
0.000000
13
227.078003
23
-130.466003
33
0.000000
0
3DFACE
8
0
10
228.125000
20
-129.283997
30
0.000000
11
228.125000
21
-129.283997
31
-4.000000
12
229.602005
22
-128.723999
32
0.000000
13
229.602005
23
-128.723999
33
0.000000
0
3DFACE
8
0
10
227.078003
20
-130.466003
30
-4.000000
11
228.125000
21
-129.283997
31
-4.000000
12
228.125000
22
-129.283997
32
0.000000
13
228.125000
23
-129.283997
33
0.000000
0
3DFACE
8
0
10
229.602005
20
-128.723999
30
0.000000
11
229.602005
21
-128.723999
31
-4.000000
12
231.169998
22
-128.914001
32
0.000000
13
231.169998
23
-128.914001
33
0.000000
0
3DFACE
8
0
10
228.125000
20
-129.283997
30
-4.000000
11
229.602005
21
-128.723999
31
-4.000000
12
229.602005
22
-128.723999
32
0.000000
13
229.602005
23
-128.723999
33
0.000000
0
3DFACE
8
0
10
231.169998
20
-128.914001
30
0.000000
11
231.169998
21
-128.914001
31
-4.000000
12
232.470001
22
-129.811996
32
0.000000
13
232.470001
23
-129.811996
33
0.000000
0
3DFACE
8
0
10
229.602005
20
-128.723999
30
-4.000000
11
231.169998
21
-128.914001
31
-4.000000
12
231.169998
22
-128.914001
32
0.000000
13
231.169998
23
-128.914001
33
0.000000
0
3DFACE
8
0
10
232.470001
20
-129.811996
30
0.000000
11
232.470001
21
-129.811996
31
-4.000000
12
233.203995
22
-131.210007
32
0.000000
13
233.203995
23
-131.210007
33
0.000000
0
3DFACE
8
0
10
231.169998
20
-128.914001
30
-4.000000
11
232.470001
21
-129.811996
31
-4.000000
12
232.470001
22
-129.811996
32
0.000000
13
232.470001
23
-129.811996
33
0.000000
0
3DFACE
8
0
10
233.203995
20
-131.210007
30
0.000000
11
233.203995
21
-131.210007
31
-4.000000
12
233.203995
22
-132.789993
32
0.000000
13
233.203995
23
-132.789993
33
0.000000
0
3DFACE
8
0
10
232.470001
20
-129.811996
30
-4.000000
11
233.203995
21
-131.210007
31
-4.000000
12
233.203995
22
-131.210007
32
0.000000
13
233.203995
23
-131.210007
33
0.000000
0
3DFACE
8
0
10
233.203995
20
-132.789993
30
0.000000
11
233.203995
21
-132.789993
31
-4.000000
12
232.470001
22
-134.188004
32
0.000000
13
232.470001
23
-134.188004
33
0.000000
0
3DFACE
8
0
10
233.203995
20
-131.210007
30
-4.000000
11
233.203995
21
-132.789993
31
-4.000000
12
233.203995
22
-132.789993
32
0.000000
13
233.203995
23
-132.789993
33
0.000000
0
3DFACE
8
0
10
232.470001
20
-134.188004
30
0.000000
11
232.470001
21
-134.188004
31
-4.000000
12
231.169998
22
-135.085999
32
0.000000
13
231.169998
23
-135.085999
33
0.000000
0
3DFACE
8
0
10
233.203995
20
-132.789993
30
-4.000000
11
232.470001
21
-134.188004
31
-4.000000
12
232.470001
22
-134.188004
32
0.000000
13
232.470001
23
-134.188004
33
0.000000
0
3DFACE
8
0
10
231.169998
20
-135.085999
30
0.000000
11
231.169998
21
-135.085999
31
-4.000000
12
229.602005
22
-135.276001
32
0.000000
13
229.602005
23
-135.276001
33
0.000000
0
3DFACE
8
0
10
232.470001
20
-134.188004
30
-4.000000
11
231.169998
21
-135.085999
31
-4.000000
12
231.169998
22
-135.085999
32
0.000000
13
231.169998
23
-135.085999
33
0.000000
0
3DFACE
8
0
10
231.169998
20
-135.085999
30
-4.000000
11
229.602005
21
-135.276001
31
-4.000000
12
229.602005
22
-135.276001
32
0.000000
13
229.602005
23
-135.276001
33
0.000000
0
3DFACE
8
0
10
229.602005
20
-135.276001
30
0.000000
11
228.125000
21
-134.716003
31
-4.000000
12
228.125000
22
-134.716003
32
0.000000
13
228.125000
23
-134.716003
33
0.000000
0
3DFACE
8
0
10
228.125000
20
-134.716003
30
0.000000
11
228.125000
21
-134.716003
31
-4.000000
12
227.078003
22
-133.533997
32
0.000000
13
227.078003
23
-133.533997
33
0.000000
0
3DFACE
8
0
10
229.602005
20
-135.276001
30
-4.000000
11
228.125000
21
-134.716003
31
-4.000000
12
229.602005
22
-135.276001
32
0.000000
13
229.602005
23
-135.276001
33
0.000000
0
3DFACE
8
0
10
227.078003
20
-133.533997
30
0.000000
11
227.078003
21
-133.533997
31
-4.000000
12
226.699997
22
-132.000000
32
0.000000
13
226.699997
23
-132.000000
33
0.000000
0
3DFACE
8
0
10
228.125000
20
-134.716003
30
-4.000000
11
227.078003
21
-133.533997
31
-4.000000
12
227.078003
22
-133.533997
32
0.000000
13
227.078003
23
-133.533997
33
0.000000
0
3DFACE
8
0
10
227.078003
20
-133.533997
30
-4.000000
11
226.699997
21
-132.000000
31
-4.000000
12
226.699997
22
-132.000000
32
0.000000
13
226.699997
23
-132.000000
33
0.000000
0
3DFACE
8
0
10
331.700012
20
0.000000
30
0.000000
11
331.700012
21
0.000000
31
-4.000000
12
332.078003
22
1.533600
32
0.000000
13
332.078003
23
1.533600
33
0.000000
0
3DFACE
8
0
10
332.078003
20
1.533600
30
0.000000
11
332.078003
21
1.533600
31
-4.000000
12
333.125000
22
2.715800
32
0.000000
13
333.125000
23
2.715800
33
0.000000
0
3DFACE
8
0
10
331.700012
20
0.000000
30
-4.000000
11
332.078003
21
1.533600
31
-4.000000
12
332.078003
22
1.533600
32
0.000000
13
332.078003
23
1.533600
33
0.000000
0
3DFACE
8
0
10
333.125000
20
2.715800
30
0.000000
11
333.125000
21
2.715800
31
-4.000000
12
334.601990
22
3.275900
32
0.000000
13
334.601990
23
3.275900
33
0.000000
0
3DFACE
8
0
10
332.078003
20
1.533600
30
-4.000000
11
333.125000
21
2.715800
31
-4.000000
12
333.125000
22
2.715800
32
0.000000
13
333.125000
23
2.715800
33
0.000000
0
3DFACE
8
0
10
334.601990
20
3.275900
30
0.000000
11
334.601990
21
3.275900
31
-4.000000
12
336.170013
22
3.085600
32
0.000000
13
336.170013
23
3.085600
33
0.000000
0
3DFACE
8
0
10
333.125000
20
2.715800
30
-4.000000
11
334.601990
21
3.275900
31
-4.000000
12
334.601990
22
3.275900
32
0.000000
13
334.601990
23
3.275900
33
0.000000
0
3DFACE
8
0
10
336.170013
20
3.085600
30
0.000000
11
336.170013
21
3.085600
31
-4.000000
12
337.470001
22
2.188300
32
0.000000
13
337.470001
23
2.188300
33
0.000000
0
3DFACE
8
0
10
334.601990
20
3.275900
30
-4.000000
11
336.170013
21
3.085600
31
-4.000000
12
336.170013
22
3.085600
32
0.000000
13
336.170013
23
3.085600
33
0.000000
0
3DFACE
8
0
10
337.470001
20
2.188300
30
0.000000
11
337.470001
21
2.188300
31
-4.000000
12
338.204010
22
0.789700
32
0.000000
13
338.204010
23
0.789700
33
0.000000
0
3DFACE
8
0
10
336.170013
20
3.085600
30
-4.000000
11
337.470001
21
2.188300
31
-4.000000
12
337.470001
22
2.188300
32
0.000000
13
337.470001
23
2.188300
33
0.000000
0
3DFACE
8
0
10
338.204010
20
0.789700
30
0.000000
11
338.204010
21
0.789700
31
-4.000000
12
338.204010
22
-0.789700
32
0.000000
13
338.204010
23
-0.789700
33
0.000000
0
3DFACE
8
0
10
337.470001
20
2.188300
30
-4.000000
11
338.204010
21
0.789700
31
-4.000000
12
338.204010
22
0.789700
32
0.000000
13
338.204010
23
0.789700
33
0.000000
0
3DFACE
8
0
10
338.204010
20
-0.789700
30
0.000000
11
338.204010
21
-0.789700
31
-4.000000
12
337.470001
22
-2.188300
32
0.000000
13
337.470001
23
-2.188300
33
0.000000
0
3DFACE
8
0
10
338.204010
20
0.789700
30
-4.000000
11
338.204010
21
-0.789700
31
-4.000000
12
338.204010
22
-0.789700
32
0.000000
13
338.204010
23
-0.789700
33
0.000000
0
3DFACE
8
0
10
337.470001
20
-2.188300
30
0.000000
11
337.470001
21
-2.188300
31
-4.000000
12
336.170013
22
-3.085600
32
0.000000
13
336.170013
23
-3.085600
33
0.000000
0
3DFACE
8
0
10
338.204010
20
-0.789700
30
-4.000000
11
337.470001
21
-2.188300
31
-4.000000
12
337.470001
22
-2.188300
32
0.000000
13
337.470001
23
-2.188300
33
0.000000
0
3DFACE
8
0
10
336.170013
20
-3.085600
30
0.000000
11
336.170013
21
-3.085600
31
-4.000000
12
334.601990
22
-3.275900
32
0.000000
13
334.601990
23
-3.275900
33
0.000000
0
3DFACE
8
0
10
337.470001
20
-2.188300
30
-4.000000
11
336.170013
21
-3.085600
31
-4.000000
12
336.170013
22
-3.085600
32
0.000000
13
336.170013
23
-3.085600
33
0.000000
0
3DFACE
8
0
10
336.170013
20
-3.085600
30
-4.000000
11
334.601990
21
-3.275900
31
-4.000000
12
334.601990
22
-3.275900
32
0.000000
13
334.601990
23
-3.275900
33
0.000000
0
3DFACE
8
0
10
334.601990
20
-3.275900
30
0.000000
11
333.125000
21
-2.715800
31
-4.000000
12
333.125000
22
-2.715800
32
0.000000
13
333.125000
23
-2.715800
33
0.000000
0
3DFACE
8
0
10
333.125000
20
-2.715800
30
0.000000
11
333.125000
21
-2.715800
31
-4.000000
12
332.078003
22
-1.533600
32
0.000000
13
332.078003
23
-1.533600
33
0.000000
0
3DFACE
8
0
10
334.601990
20
-3.275900
30
-4.000000
11
333.125000
21
-2.715800
31
-4.000000
12
334.601990
22
-3.275900
32
0.000000
13
334.601990
23
-3.275900
33
0.000000
0
3DFACE
8
0
10
332.078003
20
-1.533600
30
0.000000
11
332.078003
21
-1.533600
31
-4.000000
12
331.700012
22
0.000000
32
0.000000
13
331.700012
23
0.000000
33
0.000000
0
3DFACE
8
0
10
333.125000
20
-2.715800
30
-4.000000
11
332.078003
21
-1.533600
31
-4.000000
12
332.078003
22
-1.533600
32
0.000000
13
332.078003
23
-1.533600
33
0.000000
0
3DFACE
8
0
10
332.078003
20
-1.533600
30
-4.000000
11
331.700012
21
0.000000
31
-4.000000
12
331.700012
22
0.000000
32
0.000000
13
331.700012
23
0.000000
33
0.000000
0
3DFACE
8
0
10
259.500000
20
116.796997
30
-4.000000
11
259.500000
21
147.000000
31
0.000000
12
259.500000
22
116.796997
32
0.000000
13
259.500000
23
116.796997
33
0.000000
0
3DFACE
8
0
10
259.500000
20
116.796997
30
-4.000000
11
259.500000
21
147.000000
31
-4.000000
12
259.500000
22
147.000000
32
0.000000
13
259.500000
23
147.000000
33
0.000000
0
3DFACE
8
0
10
259.500000
20
147.000000
30
-4.000000
11
-259.500000
21
147.000000
31
0.000000
12
259.500000
22
147.000000
32
0.000000
13
259.500000
23
147.000000
33
0.000000
0
3DFACE
8
0
10
259.500000
20
147.000000
30
-4.000000
11
-259.500000
21
147.000000
31
-4.000000
12
-259.500000
22
147.000000
32
0.000000
13
-259.500000
23
147.000000
33
0.000000
0
3DFACE
8
0
10
-259.500000
20
147.000000
30
0.000000
11
-259.500000
21
116.796997
31
-4.000000
12
-259.500000
22
116.796997
32
0.000000
13
-259.500000
23
116.796997
33
0.000000
0
3DFACE
8
0
10
-259.500000
20
147.000000
30
-4.000000
11
-259.500000
21
116.796997
31
-4.000000
12
-259.500000
22
147.000000
32
0.000000
13
-259.500000
23
147.000000
33
0.000000
0
3DFACE
8
0
10
-259.500000
20
116.796997
30
-4.000000
11
-319.796997
21
56.500000
31
0.000000
12
-259.500000
22
116.796997
32
0.000000
13
-259.500000
23
116.796997
33
0.000000
0
3DFACE
8
0
10
-259.500000
20
116.796997
30
-4.000000
11
-319.796997
21
56.500000
31
-4.000000
12
-319.796997
22
56.500000
32
0.000000
13
-319.796997
23
56.500000
33
0.000000
0
3DFACE
8
0
10
-319.796997
20
56.500000
30
0.000000
11
-350.000000
21
56.500000
31
-4.000000
12
-350.000000
22
56.500000
32
0.000000
13
-350.000000
23
56.500000
33
0.000000
0
3DFACE
8
0
10
-319.796997
20
56.500000
30
-4.000000
11
-350.000000
21
56.500000
31
-4.000000
12
-319.796997
22
56.500000
32
0.000000
13
-319.796997
23
56.500000
33
0.000000
0
3DFACE
8
0
10
-350.000000
20
56.500000
30
0.000000
11
-350.000000
21
-56.500000
31
-4.000000
12
-350.000000
22
-56.500000
32
0.000000
13
-350.000000
23
-56.500000
33
0.000000
0
3DFACE
8
0
10
-350.000000
20
56.500000
30
-4.000000
11
-350.000000
21
-56.500000
31
-4.000000
12
-350.000000
22
56.500000
32
0.000000
13
-350.000000
23
56.500000
33
0.000000
0
3DFACE
8
0
10
-350.000000
20
-56.500000
30
-4.000000
11
-319.796997
21
-56.500000
31
0.000000
12
-350.000000
22
-56.500000
32
0.000000
13
-350.000000
23
-56.500000
33
0.000000
0
3DFACE
8
0
10
-350.000000
20
-56.500000
30
-4.000000
11
-319.796997
21
-56.500000
31
-4.000000
12
-319.796997
22
-56.500000
32
0.000000
13
-319.796997
23
-56.500000
33
0.000000
0
3DFACE
8
0
10
-319.796997
20
-56.500000
30
-4.000000
11
-259.500000
21
-116.796997
31
0.000000
12
-319.796997
22
-56.500000
32
0.000000
13
-319.796997
23
-56.500000
33
0.000000
0
3DFACE
8
0
10
-319.796997
20
-56.500000
30
-4.000000
11
-259.500000
21
-116.796997
31
-4.000000
12
-259.500000
22
-116.796997
32
0.000000
13
-259.500000
23
-116.796997
33
0.000000
0
3DFACE
8
0
10
-259.500000
20
-116.796997
30
-4.000000
11
-259.500000
21
-153.000000
31
0.000000
12
-259.500000
22
-116.796997
32
0.000000
13
-259.500000
23
-116.796997
33
0.000000
0
3DFACE
8
0
10
-259.500000
20
-116.796997
30
-4.000000
11
-259.500000
21
-153.000000
31
-4.000000
12
-259.500000
22
-153.000000
32
0.000000
13
-259.500000
23
-153.000000
33
0.000000
0
3DFACE
8
0
10
-259.500000
20
-153.000000
30
0.000000
11
259.500000
21
-153.000000
31
-4.000000
12
259.500000
22
-153.000000
32
0.000000
13
259.500000
23
-153.000000
33
0.000000
0
3DFACE
8
0
10
-259.500000
20
-153.000000
30
-4.000000
11
259.500000
21
-153.000000
31
-4.000000
12
-259.500000
22
-153.000000
32
0.000000
13
-259.500000
23
-153.000000
33
0.000000
0
3DFACE
8
0
10
259.500000
20
-153.000000
30
-4.000000
11
259.500000
21
-116.796997
31
0.000000
12
259.500000
22
-153.000000
32
0.000000
13
259.500000
23
-153.000000
33
0.000000
0
3DFACE
8
0
10
259.500000
20
-153.000000
30
-4.000000
11
259.500000
21
-116.796997
31
-4.000000
12
259.500000
22
-116.796997
32
0.000000
13
259.500000
23
-116.796997
33
0.000000
0
3DFACE
8
0
10
259.500000
20
-116.796997
30
-4.000000
11
319.796997
21
-56.500000
31
0.000000
12
259.500000
22
-116.796997
32
0.000000
13
259.500000
23
-116.796997
33
0.000000
0
3DFACE
8
0
10
259.500000
20
-116.796997
30
-4.000000
11
319.796997
21
-56.500000
31
-4.000000
12
319.796997
22
-56.500000
32
0.000000
13
319.796997
23
-56.500000
33
0.000000
0
3DFACE
8
0
10
319.796997
20
-56.500000
30
-4.000000
11
350.000000
21
-56.500000
31
0.000000
12
319.796997
22
-56.500000
32
0.000000
13
319.796997
23
-56.500000
33
0.000000
0
3DFACE
8
0
10
319.796997
20
-56.500000
30
-4.000000
11
350.000000
21
-56.500000
31
-4.000000
12
350.000000
22
-56.500000
32
0.000000
13
350.000000
23
-56.500000
33
0.000000
0
3DFACE
8
0
10
350.000000
20
-56.500000
30
-4.000000
11
350.000000
21
56.500000
31
0.000000
12
350.000000
22
-56.500000
32
0.000000
13
350.000000
23
-56.500000
33
0.000000
0
3DFACE
8
0
10
350.000000
20
-56.500000
30
-4.000000
11
350.000000
21
56.500000
31
-4.000000
12
350.000000
22
56.500000
32
0.000000
13
350.000000
23
56.500000
33
0.000000
0
3DFACE
8
0
10
350.000000
20
56.500000
30
-4.000000
11
319.796997
21
56.500000
31
0.000000
12
350.000000
22
56.500000
32
0.000000
13
350.000000
23
56.500000
33
0.000000
0
3DFACE
8
0
10
350.000000
20
56.500000
30
-4.000000
11
319.796997
21
56.500000
31
-4.000000
12
319.796997
22
56.500000
32
0.000000
13
319.796997
23
56.500000
33
0.000000
0
3DFACE
8
0
10
319.796997
20
56.500000
30
-4.000000
11
259.500000
21
116.796997
31
0.000000
12
319.796997
22
56.500000
32
0.000000
13
319.796997
23
56.500000
33
0.000000
0
3DFACE
8
0
10
319.796997
20
56.500000
30
-4.000000
11
259.500000
21
116.796997
31
-4.000000
12
259.500000
22
116.796997
32
0.000000
13
259.500000
23
116.796997
33
0.000000
0
3DFACE
8
0
10
-232.921997
20
-133.533997
30
0.000000
11
-259.500000
21
-153.000000
31
0.000000
12
-231.875000
22
-134.716003
32
0.000000
13
-231.875000
23
-134.716003
33
0.000000
0
3DFACE
8
0
10
-230.397995
20
-135.276001
30
0.000000
11
-231.875000
21
-134.716003
31
0.000000
12
-259.500000
22
-153.000000
32
0.000000
13
-259.500000
23
-153.000000
33
0.000000
0
3DFACE
8
0
10
-233.300003
20
-132.000000
30
0.000000
11
-259.500000
21
-116.796997
31
0.000000
12
-259.500000
22
-153.000000
32
0.000000
13
-259.500000
23
-153.000000
33
0.000000
0
3DFACE
8
0
10
-233.300003
20
-132.000000
30
0.000000
11
-259.500000
21
-153.000000
31
0.000000
12
-232.921997
22
-133.533997
32
0.000000
13
-232.921997
23
-133.533997
33
0.000000
0
3DFACE
8
0
10
-228.830002
20
-135.085999
30
0.000000
11
-230.397995
21
-135.276001
31
0.000000
12
-259.500000
22
-153.000000
32
0.000000
13
-259.500000
23
-153.000000
33
0.000000
0
3DFACE
8
0
10
-232.921997
20
-130.466003
30
0.000000
11
-259.500000
21
-116.796997
31
0.000000
12
-233.300003
22
-132.000000
32
0.000000
13
-233.300003
23
-132.000000
33
0.000000
0
3DFACE
8
0
10
-231.875000
20
-129.283997
30
0.000000
11
-259.500000
21
-116.796997
31
0.000000
12
-232.921997
22
-130.466003
32
0.000000
13
-232.921997
23
-130.466003
33
0.000000
0
3DFACE
8
0
10
-230.397995
20
-128.723999
30
0.000000
11
-259.500000
21
-116.796997
31
0.000000
12
-231.875000
22
-129.283997
32
0.000000
13
-231.875000
23
-129.283997
33
0.000000
0
3DFACE
8
0
10
-228.830002
20
-128.914001
30
0.000000
11
-259.500000
21
-116.796997
31
0.000000
12
-230.397995
22
-128.723999
32
0.000000
13
-230.397995
23
-128.723999
33
0.000000
0
3DFACE
8
0
10
-337.921997
20
-1.533600
30
0.000000
11
-350.000000
21
-56.500000
31
0.000000
12
-336.875000
22
-2.715800
32
0.000000
13
-336.875000
23
-2.715800
33
0.000000
0
3DFACE
8
0
10
-335.398010
20
-3.275900
30
0.000000
11
-350.000000
21
-56.500000
31
0.000000
12
-319.796997
22
-56.500000
32
0.000000
13
-319.796997
23
-56.500000
33
0.000000
0
3DFACE
8
0
10
-335.398010
20
-3.275900
30
0.000000
11
-336.875000
21
-2.715800
31
0.000000
12
-350.000000
22
-56.500000
32
0.000000
13
-350.000000
23
-56.500000
33
0.000000
0
3DFACE
8
0
10
-338.299988
20
0.000000
30
0.000000
11
-350.000000
21
-56.500000
31
0.000000
12
-337.921997
22
-1.533600
32
0.000000
13
-337.921997
23
-1.533600
33
0.000000
0
3DFACE
8
0
10
-333.829987
20
-3.085600
30
0.000000
11
-335.398010
21
-3.275900
31
0.000000
12
-319.796997
22
-56.500000
32
0.000000
13
-319.796997
23
-56.500000
33
0.000000
0
3DFACE
8
0
10
-332.529999
20
-2.188300
30
0.000000
11
-333.829987
21
-3.085600
31
0.000000
12
-319.796997
22
-56.500000
32
0.000000
13
-319.796997
23
-56.500000
33
0.000000
0
3DFACE
8
0
10
-331.795990
20
-0.789700
30
0.000000
11
-319.796997
21
-56.500000
31
0.000000
12
-259.500000
22
-116.796997
32
0.000000
13
-259.500000
23
-116.796997
33
0.000000
0
3DFACE
8
0
10
-331.795990
20
-0.789700
30
0.000000
11
-332.529999
21
-2.188300
31
0.000000
12
-319.796997
22
-56.500000
32
0.000000
13
-319.796997
23
-56.500000
33
0.000000
0
3DFACE
8
0
10
-331.795990
20
0.789700
30
0.000000
11
-331.795990
21
-0.789700
31
0.000000
12
-259.500000
22
-116.796997
32
0.000000
13
-259.500000
23
-116.796997
33
0.000000
0
3DFACE
8
0
10
-350.000000
20
56.500000
30
0.000000
11
-338.299988
21
0.000000
31
0.000000
12
-337.921997
22
1.533600
32
0.000000
13
-337.921997
23
1.533600
33
0.000000
0
3DFACE
8
0
10
-350.000000
20
56.500000
30
0.000000
11
-337.921997
21
1.533600
31
0.000000
12
-336.875000
22
2.715800
32
0.000000
13
-336.875000
23
2.715800
33
0.000000
0
3DFACE
8
0
10
-350.000000
20
56.500000
30
0.000000
11
-336.875000
21
2.715800
31
0.000000
12
-335.398010
22
3.275900
32
0.000000
13
-335.398010
23
3.275900
33
0.000000
0
3DFACE
8
0
10
-350.000000
20
56.500000
30
0.000000
11
-350.000000
21
-56.500000
31
0.000000
12
-338.299988
22
0.000000
32
0.000000
13
-338.299988
23
0.000000
33
0.000000
0
3DFACE
8
0
10
-319.796997
20
56.500000
30
0.000000
11
-335.398010
21
3.275900
31
0.000000
12
-333.829987
22
3.085600
32
0.000000
13
-333.829987
23
3.085600
33
0.000000
0
3DFACE
8
0
10
-319.796997
20
56.500000
30
0.000000
11
-333.829987
21
3.085600
31
0.000000
12
-332.529999
22
2.188300
32
0.000000
13
-332.529999
23
2.188300
33
0.000000
0
3DFACE
8
0
10
-319.796997
20
56.500000
30
0.000000
11
-332.529999
21
2.188300
31
0.000000
12
-331.795990
22
0.789700
32
0.000000
13
-331.795990
23
0.789700
33
0.000000
0
3DFACE
8
0
10
-319.796997
20
56.500000
30
0.000000
11
-350.000000
21
56.500000
31
0.000000
12
-335.398010
22
3.275900
32
0.000000
13
-335.398010
23
3.275900
33
0.000000
0
3DFACE
8
0
10
-259.500000
20
116.796997
30
0.000000
11
-319.796997
21
56.500000
31
0.000000
12
-331.795990
22
0.789700
32
0.000000
13
-331.795990
23
0.789700
33
0.000000
0
3DFACE
8
0
10
-259.500000
20
116.796997
30
0.000000
11
-331.795990
21
0.789700
31
0.000000
12
-259.500000
22
-116.796997
32
0.000000
13
-259.500000
23
-116.796997
33
0.000000
0
3DFACE
8
0
10
-1.874700
20
-134.716003
30
0.000000
11
-228.830002
21
-135.085999
31
0.000000
12
-259.500000
22
-153.000000
32
0.000000
13
-259.500000
23
-153.000000
33
0.000000
0
3DFACE
8
0
10
-1.874700
20
-134.716003
30
0.000000
11
-227.529999
21
-134.188004
31
0.000000
12
-228.830002
22
-135.085999
32
0.000000
13
-228.830002
23
-135.085999
33
0.000000
0
3DFACE
8
0
10
-2.922100
20
-133.533997
30
0.000000
11
-226.796005
21
-132.789993
31
0.000000
12
-227.529999
22
-134.188004
32
0.000000
13
-227.529999
23
-134.188004
33
0.000000
0
3DFACE
8
0
10
-2.922100
20
-133.533997
30
0.000000
11
-227.529999
21
-134.188004
31
0.000000
12
-1.874700
22
-134.716003
32
0.000000
13
-1.874700
23
-134.716003
33
0.000000
0
3DFACE
8
0
10
-0.397900
20
-135.276001
30
0.000000
11
-1.874700
21
-134.716003
31
0.000000
12
-259.500000
22
-153.000000
32
0.000000
13
-259.500000
23
-153.000000
33
0.000000
0
3DFACE
8
0
10
-3.300100
20
-132.000000
30
0.000000
11
-226.796005
21
-131.210007
31
0.000000
12
-226.796005
22
-132.789993
32
0.000000
13
-226.796005
23
-132.789993
33
0.000000
0
3DFACE
8
0
10
-3.300100
20
-132.000000
30
0.000000
11
-226.796005
21
-132.789993
31
0.000000
12
-2.922100
22
-133.533997
32
0.000000
13
-2.922100
23
-133.533997
33
0.000000
0
3DFACE
8
0
10
-2.922100
20
-130.466003
30
0.000000
11
-227.529999
21
-129.811996
31
0.000000
12
-226.796005
22
-131.210007
32
0.000000
13
-226.796005
23
-131.210007
33
0.000000
0
3DFACE
8
0
10
-2.922100
20
-130.466003
30
0.000000
11
-226.796005
21
-131.210007
31
0.000000
12
-3.300100
22
-132.000000
32
0.000000
13
-3.300100
23
-132.000000
33
0.000000
0
3DFACE
8
0
10
-1.874700
20
-129.283997
30
0.000000
11
-227.529999
21
-129.811996
31
0.000000
12
-2.922100
22
-130.466003
32
0.000000
13
-2.922100
23
-130.466003
33
0.000000
0
3DFACE
8
0
10
-232.921997
20
130.466003
30
0.000000
11
-259.500000
21
116.796997
31
0.000000
12
-231.875000
22
129.283997
32
0.000000
13
-231.875000
23
129.283997
33
0.000000
0
3DFACE
8
0
10
-230.397995
20
128.723999
30
0.000000
11
-231.875000
21
129.283997
31
0.000000
12
-259.500000
22
116.796997
32
0.000000
13
-259.500000
23
116.796997
33
0.000000
0
3DFACE
8
0
10
-233.300003
20
132.000000
30
0.000000
11
-259.500000
21
147.000000
31
0.000000
12
-259.500000
22
116.796997
32
0.000000
13
-259.500000
23
116.796997
33
0.000000
0
3DFACE
8
0
10
-233.300003
20
132.000000
30
0.000000
11
-259.500000
21
116.796997
31
0.000000
12
-232.921997
22
130.466003
32
0.000000
13
-232.921997
23
130.466003
33
0.000000
0
3DFACE
8
0
10
-228.830002
20
128.914001
30
0.000000
11
-230.397995
21
128.723999
31
0.000000
12
-259.500000
22
116.796997
32
0.000000
13
-259.500000
23
116.796997
33
0.000000
0
3DFACE
8
0
10
-228.830002
20
128.914001
30
0.000000
11
-259.500000
21
116.796997
31
0.000000
12
-259.500000
22
-116.796997
32
0.000000
13
-259.500000
23
-116.796997
33
0.000000
0
3DFACE
8
0
10
-228.830002
20
128.914001
30
0.000000
11
-259.500000
21
-116.796997
31
0.000000
12
-228.830002
22
-128.914001
32
0.000000
13
-228.830002
23
-128.914001
33
0.000000
0
3DFACE
8
0
10
-232.921997
20
133.533997
30
0.000000
11
-259.500000
21
147.000000
31
0.000000
12
-233.300003
22
132.000000
32
0.000000
13
-233.300003
23
132.000000
33
0.000000
0
3DFACE
8
0
10
-227.529999
20
129.811996
30
0.000000
11
-228.830002
21
128.914001
31
0.000000
12
-228.830002
22
-128.914001
32
0.000000
13
-228.830002
23
-128.914001
33
0.000000
0
3DFACE
8
0
10
-227.529999
20
129.811996
30
0.000000
11
-228.830002
21
-128.914001
31
0.000000
12
-227.529999
22
-129.811996
32
0.000000
13
-227.529999
23
-129.811996
33
0.000000
0
3DFACE
8
0
10
-227.529999
20
129.811996
30
0.000000
11
-227.529999
21
-129.811996
31
0.000000
12
-1.874700
22
-129.283997
32
0.000000
13
-1.874700
23
-129.283997
33
0.000000
0
3DFACE
8
0
10
-231.875000
20
134.716003
30
0.000000
11
-259.500000
21
147.000000
31
0.000000
12
-232.921997
22
133.533997
32
0.000000
13
-232.921997
23
133.533997
33
0.000000
0
3DFACE
8
0
10
-230.397995
20
135.276001
30
0.000000
11
-259.500000
21
147.000000
31
0.000000
12
-231.875000
22
134.716003
32
0.000000
13
-231.875000
23
134.716003
33
0.000000
0
3DFACE
8
0
10
-228.830002
20
135.085999
30
0.000000
11
-259.500000
21
147.000000
31
0.000000
12
-230.397995
22
135.276001
32
0.000000
13
-230.397995
23
135.276001
33
0.000000
0
3DFACE
8
0
10
228.125000
20
-134.716003
30
0.000000
11
2.470000
21
-134.188004
31
0.000000
12
1.170100
22
-135.085999
32
0.000000
13
1.170100
23
-135.085999
33
0.000000
0
3DFACE
8
0
10
227.078003
20
-133.533997
30
0.000000
11
3.204000
21
-132.789993
31
0.000000
12
2.470000
22
-134.188004
32
0.000000
13
2.470000
23
-134.188004
33
0.000000
0
3DFACE
8
0
10
227.078003
20
-133.533997
30
0.000000
11
2.470000
21
-134.188004
31
0.000000
12
228.125000
22
-134.716003
32
0.000000
13
228.125000
23
-134.716003
33
0.000000
0
3DFACE
8
0
10
226.699997
20
-132.000000
30
0.000000
11
3.204000
21
-131.210007
31
0.000000
12
3.204000
22
-132.789993
32
0.000000
13
3.204000
23
-132.789993
33
0.000000
0
3DFACE
8
0
10
226.699997
20
-132.000000
30
0.000000
11
3.204000
21
-132.789993
31
0.000000
12
227.078003
22
-133.533997
32
0.000000
13
227.078003
23
-133.533997
33
0.000000
0
3DFACE
8
0
10
227.078003
20
-130.466003
30
0.000000
11
2.470000
21
-129.811996
31
0.000000
12
3.204000
22
-131.210007
32
0.000000
13
3.204000
23
-131.210007
33
0.000000
0
3DFACE
8
0
10
227.078003
20
-130.466003
30
0.000000
11
3.204000
21
-131.210007
31
0.000000
12
226.699997
22
-132.000000
32
0.000000
13
226.699997
23
-132.000000
33
0.000000
0
3DFACE
8
0
10
228.125000
20
-129.283997
30
0.000000
11
2.470000
21
-129.811996
31
0.000000
12
227.078003
22
-130.466003
32
0.000000
13
227.078003
23
-130.466003
33
0.000000
0
3DFACE
8
0
10
259.500000
20
-153.000000
30
0.000000
11
233.203995
21
-132.789993
31
0.000000
12
232.470001
22
-134.188004
32
0.000000
13
232.470001
23
-134.188004
33
0.000000
0
3DFACE
8
0
10
259.500000
20
-153.000000
30
0.000000
11
232.470001
21
-134.188004
31
0.000000
12
231.169998
22
-135.085999
32
0.000000
13
231.169998
23
-135.085999
33
0.000000
0
3DFACE
8
0
10
259.500000
20
-153.000000
30
0.000000
11
231.169998
21
-135.085999
31
0.000000
12
229.602005
22
-135.276001
32
0.000000
13
229.602005
23
-135.276001
33
0.000000
0
3DFACE
8
0
10
259.500000
20
-153.000000
30
0.000000
11
229.602005
21
-135.276001
31
0.000000
12
228.125000
22
-134.716003
32
0.000000
13
228.125000
23
-134.716003
33
0.000000
0
3DFACE
8
0
10
259.500000
20
-153.000000
30
0.000000
11
1.170100
21
-135.085999
31
0.000000
12
-0.397900
22
-135.276001
32
0.000000
13
-0.397900
23
-135.276001
33
0.000000
0
3DFACE
8
0
10
259.500000
20
-153.000000
30
0.000000
11
228.125000
21
-134.716003
31
0.000000
12
1.170100
22
-135.085999
32
0.000000
13
1.170100
23
-135.085999
33
0.000000
0
3DFACE
8
0
10
259.500000
20
-153.000000
30
0.000000
11
-0.397900
21
-135.276001
31
0.000000
12
-259.500000
22
-153.000000
32
0.000000
13
-259.500000
23
-153.000000
33
0.000000
0
3DFACE
8
0
10
-1.874700
20
129.283997
30
0.000000
11
-227.529999
21
129.811996
31
0.000000
12
-1.874700
22
-129.283997
32
0.000000
13
-1.874700
23
-129.283997
33
0.000000
0
3DFACE
8
0
10
-2.922100
20
130.466003
30
0.000000
11
-227.529999
21
129.811996
31
0.000000
12
-1.874700
22
129.283997
32
0.000000
13
-1.874700
23
129.283997
33
0.000000
0
3DFACE
8
0
10
-2.922100
20
130.466003
30
0.000000
11
-226.796005
21
131.210007
31
0.000000
12
-227.529999
22
129.811996
32
0.000000
13
-227.529999
23
129.811996
33
0.000000
0
3DFACE
8
0
10
-0.397900
20
128.723999
30
0.000000
11
-1.874700
21
-129.283997
31
0.000000
12
-0.397900
22
-128.723999
32
0.000000
13
-0.397900
23
-128.723999
33
0.000000
0
3DFACE
8
0
10
-0.397900
20
128.723999
30
0.000000
11
-1.874700
21
129.283997
31
0.000000
12
-1.874700
22
-129.283997
32
0.000000
13
-1.874700
23
-129.283997
33
0.000000
0
3DFACE
8
0
10
-3.300100
20
132.000000
30
0.000000
11
-226.796005
21
132.789993
31
0.000000
12
-226.796005
22
131.210007
32
0.000000
13
-226.796005
23
131.210007
33
0.000000
0
3DFACE
8
0
10
-3.300100
20
132.000000
30
0.000000
11
-226.796005
21
131.210007
31
0.000000
12
-2.922100
22
130.466003
32
0.000000
13
-2.922100
23
130.466003
33
0.000000
0
3DFACE
8
0
10
1.170100
20
128.914001
30
0.000000
11
-0.397900
21
-128.723999
31
0.000000
12
1.170100
22
-128.914001
32
0.000000
13
1.170100
23
-128.914001
33
0.000000
0
3DFACE
8
0
10
1.170100
20
128.914001
30
0.000000
11
-0.397900
21
128.723999
31
0.000000
12
-0.397900
22
-128.723999
32
0.000000
13
-0.397900
23
-128.723999
33
0.000000
0
3DFACE
8
0
10
-2.922100
20
133.533997
30
0.000000
11
-226.796005
21
132.789993
31
0.000000
12
-3.300100
22
132.000000
32
0.000000
13
-3.300100
23
132.000000
33
0.000000
0
3DFACE
8
0
10
-2.922100
20
133.533997
30
0.000000
11
-227.529999
21
134.188004
31
0.000000
12
-226.796005
22
132.789993
32
0.000000
13
-226.796005
23
132.789993
33
0.000000
0
3DFACE
8
0
10
2.470000
20
129.811996
30
0.000000
11
2.470000
21
-129.811996
31
0.000000
12
228.125000
22
-129.283997
32
0.000000
13
228.125000
23
-129.283997
33
0.000000
0
3DFACE
8
0
10
2.470000
20
129.811996
30
0.000000
11
1.170100
21
128.914001
31
0.000000
12
1.170100
22
-128.914001
32
0.000000
13
1.170100
23
-128.914001
33
0.000000
0
3DFACE
8
0
10
2.470000
20
129.811996
30
0.000000
11
1.170100
21
-128.914001
31
0.000000
12
2.470000
22
-129.811996
32
0.000000
13
2.470000
23
-129.811996
33
0.000000
0
3DFACE
8
0
10
-1.874700
20
134.716003
30
0.000000
11
-228.830002
21
135.085999
31
0.000000
12
-227.529999
22
134.188004
32
0.000000
13
-227.529999
23
134.188004
33
0.000000
0
3DFACE
8
0
10
-1.874700
20
134.716003
30
0.000000
11
-227.529999
21
134.188004
31
0.000000
12
-2.922100
22
133.533997
32
0.000000
13
-2.922100
23
133.533997
33
0.000000
0
3DFACE
8
0
10
-0.397900
20
135.276001
30
0.000000
11
-259.500000
21
147.000000
31
0.000000
12
-228.830002
22
135.085999
32
0.000000
13
-228.830002
23
135.085999
33
0.000000
0
3DFACE
8
0
10
-0.397900
20
135.276001
30
0.000000
11
-228.830002
21
135.085999
31
0.000000
12
-1.874700
22
134.716003
32
0.000000
13
-1.874700
23
134.716003
33
0.000000
0
3DFACE
8
0
10
259.500000
20
-116.796997
30
0.000000
11
233.203995
21
-131.210007
31
0.000000
12
233.203995
22
-132.789993
32
0.000000
13
233.203995
23
-132.789993
33
0.000000
0
3DFACE
8
0
10
259.500000
20
-116.796997
30
0.000000
11
233.203995
21
-132.789993
31
0.000000
12
259.500000
22
-153.000000
32
0.000000
13
259.500000
23
-153.000000
33
0.000000
0
3DFACE
8
0
10
259.500000
20
-116.796997
30
0.000000
11
229.602005
21
-128.723999
31
0.000000
12
231.169998
22
-128.914001
32
0.000000
13
231.169998
23
-128.914001
33
0.000000
0
3DFACE
8
0
10
259.500000
20
-116.796997
30
0.000000
11
231.169998
21
-128.914001
31
0.000000
12
232.470001
22
-129.811996
32
0.000000
13
232.470001
23
-129.811996
33
0.000000
0
3DFACE
8
0
10
259.500000
20
-116.796997
30
0.000000
11
232.470001
21
-129.811996
31
0.000000
12
233.203995
22
-131.210007
32
0.000000
13
233.203995
23
-131.210007
33
0.000000
0
3DFACE
8
0
10
332.078003
20
-1.533600
30
0.000000
11
319.796997
21
-56.500000
31
0.000000
12
333.125000
22
-2.715800
32
0.000000
13
333.125000
23
-2.715800
33
0.000000
0
3DFACE
8
0
10
334.601990
20
-3.275900
30
0.000000
11
319.796997
21
-56.500000
31
0.000000
12
350.000000
22
-56.500000
32
0.000000
13
350.000000
23
-56.500000
33
0.000000
0
3DFACE
8
0
10
334.601990
20
-3.275900
30
0.000000
11
333.125000
21
-2.715800
31
0.000000
12
319.796997
22
-56.500000
32
0.000000
13
319.796997
23
-56.500000
33
0.000000
0
3DFACE
8
0
10
331.700012
20
0.000000
30
0.000000
11
319.796997
21
-56.500000
31
0.000000
12
332.078003
22
-1.533600
32
0.000000
13
332.078003
23
-1.533600
33
0.000000
0
3DFACE
8
0
10
331.700012
20
0.000000
30
0.000000
11
259.500000
21
-116.796997
31
0.000000
12
319.796997
22
-56.500000
32
0.000000
13
319.796997
23
-56.500000
33
0.000000
0
3DFACE
8
0
10
336.170013
20
-3.085600
30
0.000000
11
334.601990
21
-3.275900
31
0.000000
12
350.000000
22
-56.500000
32
0.000000
13
350.000000
23
-56.500000
33
0.000000
0
3DFACE
8
0
10
337.470001
20
-2.188300
30
0.000000
11
336.170013
21
-3.085600
31
0.000000
12
350.000000
22
-56.500000
32
0.000000
13
350.000000
23
-56.500000
33
0.000000
0
3DFACE
8
0
10
338.204010
20
-0.789700
30
0.000000
11
337.470001
21
-2.188300
31
0.000000
12
350.000000
22
-56.500000
32
0.000000
13
350.000000
23
-56.500000
33
0.000000
0
3DFACE
8
0
10
338.204010
20
0.789700
30
0.000000
11
338.204010
21
-0.789700
31
0.000000
12
350.000000
22
-56.500000
32
0.000000
13
350.000000
23
-56.500000
33
0.000000
0
3DFACE
8
0
10
228.125000
20
129.283997
30
0.000000
11
2.470000
21
129.811996
31
0.000000
12
228.125000
22
-129.283997
32
0.000000
13
228.125000
23
-129.283997
33
0.000000
0
3DFACE
8
0
10
227.078003
20
130.466003
30
0.000000
11
2.470000
21
129.811996
31
0.000000
12
228.125000
22
129.283997
32
0.000000
13
228.125000
23
129.283997
33
0.000000
0
3DFACE
8
0
10
227.078003
20
130.466003
30
0.000000
11
3.204000
21
131.210007
31
0.000000
12
2.470000
22
129.811996
32
0.000000
13
2.470000
23
129.811996
33
0.000000
0
3DFACE
8
0
10
229.602005
20
128.723999
30
0.000000
11
229.602005
21
-128.723999
31
0.000000
12
259.500000
22
-116.796997
32
0.000000
13
259.500000
23
-116.796997
33
0.000000
0
3DFACE
8
0
10
229.602005
20
128.723999
30
0.000000
11
228.125000
21
129.283997
31
0.000000
12
228.125000
22
-129.283997
32
0.000000
13
228.125000
23
-129.283997
33
0.000000
0
3DFACE
8
0
10
229.602005
20
128.723999
30
0.000000
11
228.125000
21
-129.283997
31
0.000000
12
229.602005
22
-128.723999
32
0.000000
13
229.602005
23
-128.723999
33
0.000000
0
3DFACE
8
0
10
226.699997
20
132.000000
30
0.000000
11
3.204000
21
131.210007
31
0.000000
12
227.078003
22
130.466003
32
0.000000
13
227.078003
23
130.466003
33
0.000000
0
3DFACE
8
0
10
226.699997
20
132.000000
30
0.000000
11
3.204000
21
132.789993
31
0.000000
12
3.204000
22
131.210007
32
0.000000
13
3.204000
23
131.210007
33
0.000000
0
3DFACE
8
0
10
227.078003
20
133.533997
30
0.000000
11
3.204000
21
132.789993
31
0.000000
12
226.699997
22
132.000000
32
0.000000
13
226.699997
23
132.000000
33
0.000000
0
3DFACE
8
0
10
227.078003
20
133.533997
30
0.000000
11
2.470000
21
134.188004
31
0.000000
12
3.204000
22
132.789993
32
0.000000
13
3.204000
23
132.789993
33
0.000000
0
3DFACE
8
0
10
228.125000
20
134.716003
30
0.000000
11
2.470000
21
134.188004
31
0.000000
12
227.078003
22
133.533997
32
0.000000
13
227.078003
23
133.533997
33
0.000000
0
3DFACE
8
0
10
228.125000
20
134.716003
30
0.000000
11
1.170100
21
135.085999
31
0.000000
12
2.470000
22
134.188004
32
0.000000
13
2.470000
23
134.188004
33
0.000000
0
3DFACE
8
0
10
229.602005
20
135.276001
30
0.000000
11
1.170100
21
135.085999
31
0.000000
12
228.125000
22
134.716003
32
0.000000
13
228.125000
23
134.716003
33
0.000000
0
3DFACE
8
0
10
259.500000
20
116.796997
30
0.000000
11
259.500000
21
-116.796997
31
0.000000
12
331.700012
22
0.000000
32
0.000000
13
331.700012
23
0.000000
33
0.000000
0
3DFACE
8
0
10
259.500000
20
116.796997
30
0.000000
11
233.203995
21
131.210007
31
0.000000
12
232.470001
22
129.811996
32
0.000000
13
232.470001
23
129.811996
33
0.000000
0
3DFACE
8
0
10
259.500000
20
116.796997
30
0.000000
11
232.470001
21
129.811996
31
0.000000
12
231.169998
22
128.914001
32
0.000000
13
231.169998
23
128.914001
33
0.000000
0
3DFACE
8
0
10
259.500000
20
116.796997
30
0.000000
11
231.169998
21
128.914001
31
0.000000
12
229.602005
22
128.723999
32
0.000000
13
229.602005
23
128.723999
33
0.000000
0
3DFACE
8
0
10
259.500000
20
116.796997
30
0.000000
11
229.602005
21
128.723999
31
0.000000
12
259.500000
22
-116.796997
32
0.000000
13
259.500000
23
-116.796997
33
0.000000
0
3DFACE
8
0
10
319.796997
20
56.500000
30
0.000000
11
331.700012
21
0.000000
31
0.000000
12
332.078003
22
1.533600
32
0.000000
13
332.078003
23
1.533600
33
0.000000
0
3DFACE
8
0
10
319.796997
20
56.500000
30
0.000000
11
332.078003
21
1.533600
31
0.000000
12
333.125000
22
2.715800
32
0.000000
13
333.125000
23
2.715800
33
0.000000
0
3DFACE
8
0
10
319.796997
20
56.500000
30
0.000000
11
333.125000
21
2.715800
31
0.000000
12
334.601990
22
3.275900
32
0.000000
13
334.601990
23
3.275900
33
0.000000
0
3DFACE
8
0
10
319.796997
20
56.500000
30
0.000000
11
259.500000
21
116.796997
31
0.000000
12
331.700012
22
0.000000
32
0.000000
13
331.700012
23
0.000000
33
0.000000
0
3DFACE
8
0
10
259.500000
20
147.000000
30
0.000000
11
233.203995
21
131.210007
31
0.000000
12
259.500000
22
116.796997
32
0.000000
13
259.500000
23
116.796997
33
0.000000
0
3DFACE
8
0
10
259.500000
20
147.000000
30
0.000000
11
229.602005
21
135.276001
31
0.000000
12
231.169998
22
135.085999
32
0.000000
13
231.169998
23
135.085999
33
0.000000
0
3DFACE
8
0
10
259.500000
20
147.000000
30
0.000000
11
1.170100
21
135.085999
31
0.000000
12
229.602005
22
135.276001
32
0.000000
13
229.602005
23
135.276001
33
0.000000
0
3DFACE
8
0
10
259.500000
20
147.000000
30
0.000000
11
231.169998
21
135.085999
31
0.000000
12
232.470001
22
134.188004
32
0.000000
13
232.470001
23
134.188004
33
0.000000
0
3DFACE
8
0
10
259.500000
20
147.000000
30
0.000000
11
232.470001
21
134.188004
31
0.000000
12
233.203995
22
132.789993
32
0.000000
13
233.203995
23
132.789993
33
0.000000
0
3DFACE
8
0
10
259.500000
20
147.000000
30
0.000000
11
233.203995
21
132.789993
31
0.000000
12
233.203995
22
131.210007
32
0.000000
13
233.203995
23
131.210007
33
0.000000
0
3DFACE
8
0
10
350.000000
20
56.500000
30
0.000000
11
334.601990
21
3.275900
31
0.000000
12
336.170013
22
3.085600
32
0.000000
13
336.170013
23
3.085600
33
0.000000
0
3DFACE
8
0
10
350.000000
20
56.500000
30
0.000000
11
336.170013
21
3.085600
31
0.000000
12
337.470001
22
2.188300
32
0.000000
13
337.470001
23
2.188300
33
0.000000
0
3DFACE
8
0
10
350.000000
20
56.500000
30
0.000000
11
337.470001
21
2.188300
31
0.000000
12
338.204010
22
0.789700
32
0.000000
13
338.204010
23
0.789700
33
0.000000
0
3DFACE
8
0
10
350.000000
20
56.500000
30
0.000000
11
319.796997
21
56.500000
31
0.000000
12
334.601990
22
3.275900
32
0.000000
13
334.601990
23
3.275900
33
0.000000
0
3DFACE
8
0
10
350.000000
20
56.500000
30
0.000000
11
338.204010
21
0.789700
31
0.000000
12
350.000000
22
-56.500000
32
0.000000
13
350.000000
23
-56.500000
33
0.000000
0
3DFACE
8
0
10
259.500000
20
147.000000
30
0.000000
11
-259.500000
21
147.000000
31
0.000000
12
-0.397900
22
135.276001
32
0.000000
13
-0.397900
23
135.276001
33
0.000000
0
3DFACE
8
0
10
259.500000
20
147.000000
30
0.000000
11
-0.397900
21
135.276001
31
0.000000
12
1.170100
22
135.085999
32
0.000000
13
1.170100
23
135.085999
33
0.000000
0
3DFACE
8
0
10
231.169998
20
-135.085999
30
-4.000000
11
232.470001
21
-134.188004
31
-4.000000
12
259.500000
22
-153.000000
32
-4.000000
13
259.500000
23
-153.000000
33
-4.000000
0
3DFACE
8
0
10
233.203995
20
-132.789993
30
-4.000000
11
259.500000
21
-116.796997
31
-4.000000
12
259.500000
22
-153.000000
32
-4.000000
13
259.500000
23
-153.000000
33
-4.000000
0
3DFACE
8
0
10
233.203995
20
-132.789993
30
-4.000000
11
259.500000
21
-153.000000
31
-4.000000
12
232.470001
22
-134.188004
32
-4.000000
13
232.470001
23
-134.188004
33
-4.000000
0
3DFACE
8
0
10
229.602005
20
-135.276001
30
-4.000000
11
231.169998
21
-135.085999
31
-4.000000
12
259.500000
22
-153.000000
32
-4.000000
13
259.500000
23
-153.000000
33
-4.000000
0
3DFACE
8
0
10
233.203995
20
-131.210007
30
-4.000000
11
259.500000
21
-116.796997
31
-4.000000
12
233.203995
22
-132.789993
32
-4.000000
13
233.203995
23
-132.789993
33
-4.000000
0
3DFACE
8
0
10
228.125000
20
-134.716003
30
-4.000000
11
229.602005
21
-135.276001
31
-4.000000
12
259.500000
22
-153.000000
32
-4.000000
13
259.500000
23
-153.000000
33
-4.000000
0
3DFACE
8
0
10
232.470001
20
-129.811996
30
-4.000000
11
259.500000
21
-116.796997
31
-4.000000
12
233.203995
22
-131.210007
32
-4.000000
13
233.203995
23
-131.210007
33
-4.000000
0
3DFACE
8
0
10
231.169998
20
-128.914001
30
-4.000000
11
259.500000
21
-116.796997
31
-4.000000
12
232.470001
22
-129.811996
32
-4.000000
13
232.470001
23
-129.811996
33
-4.000000
0
3DFACE
8
0
10
229.602005
20
-128.723999
30
-4.000000
11
259.500000
21
-116.796997
31
-4.000000
12
231.169998
22
-128.914001
32
-4.000000
13
231.169998
23
-128.914001
33
-4.000000
0
3DFACE
8
0
10
336.170013
20
-3.085600
30
-4.000000
11
337.470001
21
-2.188300
31
-4.000000
12
350.000000
22
-56.500000
32
-4.000000
13
350.000000
23
-56.500000
33
-4.000000
0
3DFACE
8
0
10
338.204010
20
-0.789700
30
-4.000000
11
350.000000
21
-56.500000
31
-4.000000
12
337.470001
22
-2.188300
32
-4.000000
13
337.470001
23
-2.188300
33
-4.000000
0
3DFACE
8
0
10
334.601990
20
-3.275900
30
-4.000000
11
350.000000
21
-56.500000
31
-4.000000
12
319.796997
22
-56.500000
32
-4.000000
13
319.796997
23
-56.500000
33
-4.000000
0
3DFACE
8
0
10
334.601990
20
-3.275900
30
-4.000000
11
336.170013
21
-3.085600
31
-4.000000
12
350.000000
22
-56.500000
32
-4.000000
13
350.000000
23
-56.500000
33
-4.000000
0
3DFACE
8
0
10
338.204010
20
0.789700
30
-4.000000
11
350.000000
21
-56.500000
31
-4.000000
12
338.204010
22
-0.789700
32
-4.000000
13
338.204010
23
-0.789700
33
-4.000000
0
3DFACE
8
0
10
333.125000
20
-2.715800
30
-4.000000
11
334.601990
21
-3.275900
31
-4.000000
12
319.796997
22
-56.500000
32
-4.000000
13
319.796997
23
-56.500000
33
-4.000000
0
3DFACE
8
0
10
332.078003
20
-1.533600
30
-4.000000
11
333.125000
21
-2.715800
31
-4.000000
12
319.796997
22
-56.500000
32
-4.000000
13
319.796997
23
-56.500000
33
-4.000000
0
3DFACE
8
0
10
331.700012
20
0.000000
30
-4.000000
11
319.796997
21
-56.500000
31
-4.000000
12
259.500000
22
-116.796997
32
-4.000000
13
259.500000
23
-116.796997
33
-4.000000
0
3DFACE
8
0
10
331.700012
20
0.000000
30
-4.000000
11
332.078003
21
-1.533600
31
-4.000000
12
319.796997
22
-56.500000
32
-4.000000
13
319.796997
23
-56.500000
33
-4.000000
0
3DFACE
8
0
10
350.000000
20
56.500000
30
-4.000000
11
338.204010
21
0.789700
31
-4.000000
12
337.470001
22
2.188300
32
-4.000000
13
337.470001
23
2.188300
33
-4.000000
0
3DFACE
8
0
10
350.000000
20
56.500000
30
-4.000000
11
337.470001
21
2.188300
31
-4.000000
12
336.170013
22
3.085600
32
-4.000000
13
336.170013
23
3.085600
33
-4.000000
0
3DFACE
8
0
10
350.000000
20
56.500000
30
-4.000000
11
336.170013
21
3.085600
31
-4.000000
12
334.601990
22
3.275900
32
-4.000000
13
334.601990
23
3.275900
33
-4.000000
0
3DFACE
8
0
10
350.000000
20
56.500000
30
-4.000000
11
350.000000
21
-56.500000
31
-4.000000
12
338.204010
22
0.789700
32
-4.000000
13
338.204010
23
0.789700
33
-4.000000
0
3DFACE
8
0
10
319.796997
20
56.500000
30
-4.000000
11
334.601990
21
3.275900
31
-4.000000
12
333.125000
22
2.715800
32
-4.000000
13
333.125000
23
2.715800
33
-4.000000
0
3DFACE
8
0
10
319.796997
20
56.500000
30
-4.000000
11
333.125000
21
2.715800
31
-4.000000
12
332.078003
22
1.533600
32
-4.000000
13
332.078003
23
1.533600
33
-4.000000
0
3DFACE
8
0
10
319.796997
20
56.500000
30
-4.000000
11
332.078003
21
1.533600
31
-4.000000
12
331.700012
22
0.000000
32
-4.000000
13
331.700012
23
0.000000
33
-4.000000
0
3DFACE
8
0
10
319.796997
20
56.500000
30
-4.000000
11
350.000000
21
56.500000
31
-4.000000
12
334.601990
22
3.275900
32
-4.000000
13
334.601990
23
3.275900
33
-4.000000
0
3DFACE
8
0
10
259.500000
20
116.796997
30
-4.000000
11
331.700012
21
0.000000
31
-4.000000
12
259.500000
22
-116.796997
32
-4.000000
13
259.500000
23
-116.796997
33
-4.000000
0
3DFACE
8
0
10
259.500000
20
116.796997
30
-4.000000
11
319.796997
21
56.500000
31
-4.000000
12
331.700012
22
0.000000
32
-4.000000
13
331.700012
23
0.000000
33
-4.000000
0
3DFACE
8
0
10
2.470000
20
-134.188004
30
-4.000000
11
227.078003
21
-133.533997
31
-4.000000
12
228.125000
22
-134.716003
32
-4.000000
13
228.125000
23
-134.716003
33
-4.000000
0
3DFACE
8
0
10
1.170100
20
-135.085999
30
-4.000000
11
228.125000
21
-134.716003
31
-4.000000
12
259.500000
22
-153.000000
32
-4.000000
13
259.500000
23
-153.000000
33
-4.000000
0
3DFACE
8
0
10
1.170100
20
-135.085999
30
-4.000000
11
2.470000
21
-134.188004
31
-4.000000
12
228.125000
22
-134.716003
32
-4.000000
13
228.125000
23
-134.716003
33
-4.000000
0
3DFACE
8
0
10
3.204000
20
-132.789993
30
-4.000000
11
227.078003
21
-133.533997
31
-4.000000
12
2.470000
22
-134.188004
32
-4.000000
13
2.470000
23
-134.188004
33
-4.000000
0
3DFACE
8
0
10
3.204000
20
-132.789993
30
-4.000000
11
226.699997
21
-132.000000
31
-4.000000
12
227.078003
22
-133.533997
32
-4.000000
13
227.078003
23
-133.533997
33
-4.000000
0
3DFACE
8
0
10
-0.397900
20
-135.276001
30
-4.000000
11
1.170100
21
-135.085999
31
-4.000000
12
259.500000
22
-153.000000
32
-4.000000
13
259.500000
23
-153.000000
33
-4.000000
0
3DFACE
8
0
10
3.204000
20
-131.210007
30
-4.000000
11
227.078003
21
-130.466003
31
-4.000000
12
226.699997
22
-132.000000
32
-4.000000
13
226.699997
23
-132.000000
33
-4.000000
0
3DFACE
8
0
10
3.204000
20
-131.210007
30
-4.000000
11
226.699997
21
-132.000000
31
-4.000000
12
3.204000
22
-132.789993
32
-4.000000
13
3.204000
23
-132.789993
33
-4.000000
0
3DFACE
8
0
10
2.470000
20
-129.811996
30
-4.000000
11
228.125000
21
-129.283997
31
-4.000000
12
227.078003
22
-130.466003
32
-4.000000
13
227.078003
23
-130.466003
33
-4.000000
0
3DFACE
8
0
10
2.470000
20
-129.811996
30
-4.000000
11
227.078003
21
-130.466003
31
-4.000000
12
3.204000
22
-131.210007
32
-4.000000
13
3.204000
23
-131.210007
33
-4.000000
0
3DFACE
8
0
10
231.169998
20
128.914001
30
-4.000000
11
232.470001
21
129.811996
31
-4.000000
12
259.500000
22
116.796997
32
-4.000000
13
259.500000
23
116.796997
33
-4.000000
0
3DFACE
8
0
10
233.203995
20
131.210007
30
-4.000000
11
259.500000
21
147.000000
31
-4.000000
12
259.500000
22
116.796997
32
-4.000000
13
259.500000
23
116.796997
33
-4.000000
0
3DFACE
8
0
10
233.203995
20
131.210007
30
-4.000000
11
259.500000
21
116.796997
31
-4.000000
12
232.470001
22
129.811996
32
-4.000000
13
232.470001
23
129.811996
33
-4.000000
0
3DFACE
8
0
10
229.602005
20
128.723999
30
-4.000000
11
231.169998
21
128.914001
31
-4.000000
12
259.500000
22
116.796997
32
-4.000000
13
259.500000
23
116.796997
33
-4.000000
0
3DFACE
8
0
10
229.602005
20
128.723999
30
-4.000000
11
259.500000
21
-116.796997
31
-4.000000
12
229.602005
22
-128.723999
32
-4.000000
13
229.602005
23
-128.723999
33
-4.000000
0
3DFACE
8
0
10
229.602005
20
128.723999
30
-4.000000
11
259.500000
21
116.796997
31
-4.000000
12
259.500000
22
-116.796997
32
-4.000000
13
259.500000
23
-116.796997
33
-4.000000
0
3DFACE
8
0
10
233.203995
20
132.789993
30
-4.000000
11
259.500000
21
147.000000
31
-4.000000
12
233.203995
22
131.210007
32
-4.000000
13
233.203995
23
131.210007
33
-4.000000
0
3DFACE
8
0
10
228.125000
20
129.283997
30
-4.000000
11
229.602005
21
-128.723999
31
-4.000000
12
228.125000
22
-129.283997
32
-4.000000
13
228.125000
23
-129.283997
33
-4.000000
0
3DFACE
8
0
10
228.125000
20
129.283997
30
-4.000000
11
229.602005
21
128.723999
31
-4.000000
12
229.602005
22
-128.723999
32
-4.000000
13
229.602005
23
-128.723999
33
-4.000000
0
3DFACE
8
0
10
232.470001
20
134.188004
30
-4.000000
11
259.500000
21
147.000000
31
-4.000000
12
233.203995
22
132.789993
32
-4.000000
13
233.203995
23
132.789993
33
-4.000000
0
3DFACE
8
0
10
231.169998
20
135.085999
30
-4.000000
11
259.500000
21
147.000000
31
-4.000000
12
232.470001
22
134.188004
32
-4.000000
13
232.470001
23
134.188004
33
-4.000000
0
3DFACE
8
0
10
229.602005
20
135.276001
30
-4.000000
11
259.500000
21
147.000000
31
-4.000000
12
231.169998
22
135.085999
32
-4.000000
13
231.169998
23
135.085999
33
-4.000000
0
3DFACE
8
0
10
-227.529999
20
-134.188004
30
-4.000000
11
-2.922100
21
-133.533997
31
-4.000000
12
-1.874700
22
-134.716003
32
-4.000000
13
-1.874700
23
-134.716003
33
-4.000000
0
3DFACE
8
0
10
-228.830002
20
-135.085999
30
-4.000000
11
-227.529999
21
-134.188004
31
-4.000000
12
-1.874700
22
-134.716003
32
-4.000000
13
-1.874700
23
-134.716003
33
-4.000000
0
3DFACE
8
0
10
-226.796005
20
-132.789993
30
-4.000000
11
-3.300100
21
-132.000000
31
-4.000000
12
-2.922100
22
-133.533997
32
-4.000000
13
-2.922100
23
-133.533997
33
-4.000000
0
3DFACE
8
0
10
-226.796005
20
-132.789993
30
-4.000000
11
-2.922100
21
-133.533997
31
-4.000000
12
-227.529999
22
-134.188004
32
-4.000000
13
-227.529999
23
-134.188004
33
-4.000000
0
3DFACE
8
0
10
-226.796005
20
-131.210007
30
-4.000000
11
-3.300100
21
-132.000000
31
-4.000000
12
-226.796005
22
-132.789993
32
-4.000000
13
-226.796005
23
-132.789993
33
-4.000000
0
3DFACE
8
0
10
-226.796005
20
-131.210007
30
-4.000000
11
-2.922100
21
-130.466003
31
-4.000000
12
-3.300100
22
-132.000000
32
-4.000000
13
-3.300100
23
-132.000000
33
-4.000000
0
3DFACE
8
0
10
-227.529999
20
-129.811996
30
-4.000000
11
-1.874700
21
-129.283997
31
-4.000000
12
-2.922100
22
-130.466003
32
-4.000000
13
-2.922100
23
-130.466003
33
-4.000000
0
3DFACE
8
0
10
-227.529999
20
-129.811996
30
-4.000000
11
-2.922100
21
-130.466003
31
-4.000000
12
-226.796005
22
-131.210007
32
-4.000000
13
-226.796005
23
-131.210007
33
-4.000000
0
3DFACE
8
0
10
-259.500000
20
-153.000000
30
-4.000000
11
-228.830002
21
-135.085999
31
-4.000000
12
-1.874700
22
-134.716003
32
-4.000000
13
-1.874700
23
-134.716003
33
-4.000000
0
3DFACE
8
0
10
-259.500000
20
-153.000000
30
-4.000000
11
-1.874700
21
-134.716003
31
-4.000000
12
-0.397900
22
-135.276001
32
-4.000000
13
-0.397900
23
-135.276001
33
-4.000000
0
3DFACE
8
0
10
-259.500000
20
-153.000000
30
-4.000000
11
-233.300003
21
-132.000000
31
-4.000000
12
-232.921997
22
-133.533997
32
-4.000000
13
-232.921997
23
-133.533997
33
-4.000000
0
3DFACE
8
0
10
-259.500000
20
-153.000000
30
-4.000000
11
-232.921997
21
-133.533997
31
-4.000000
12
-231.875000
22
-134.716003
32
-4.000000
13
-231.875000
23
-134.716003
33
-4.000000
0
3DFACE
8
0
10
-259.500000
20
-153.000000
30
-4.000000
11
-231.875000
21
-134.716003
31
-4.000000
12
-230.397995
22
-135.276001
32
-4.000000
13
-230.397995
23
-135.276001
33
-4.000000
0
3DFACE
8
0
10
-259.500000
20
-153.000000
30
-4.000000
11
-230.397995
21
-135.276001
31
-4.000000
12
-228.830002
22
-135.085999
32
-4.000000
13
-228.830002
23
-135.085999
33
-4.000000
0
3DFACE
8
0
10
-259.500000
20
-153.000000
30
-4.000000
11
-0.397900
21
-135.276001
31
-4.000000
12
259.500000
22
-153.000000
32
-4.000000
13
259.500000
23
-153.000000
33
-4.000000
0
3DFACE
8
0
10
2.470000
20
129.811996
30
-4.000000
11
2.470000
21
-129.811996
31
-4.000000
12
1.170100
22
-128.914001
32
-4.000000
13
1.170100
23
-128.914001
33
-4.000000
0
3DFACE
8
0
10
2.470000
20
129.811996
30
-4.000000
11
227.078003
21
130.466003
31
-4.000000
12
228.125000
22
129.283997
32
-4.000000
13
228.125000
23
129.283997
33
-4.000000
0
3DFACE
8
0
10
2.470000
20
129.811996
30
-4.000000
11
228.125000
21
129.283997
31
-4.000000
12
228.125000
22
-129.283997
32
-4.000000
13
228.125000
23
-129.283997
33
-4.000000
0
3DFACE
8
0
10
2.470000
20
129.811996
30
-4.000000
11
228.125000
21
-129.283997
31
-4.000000
12
2.470000
22
-129.811996
32
-4.000000
13
2.470000
23
-129.811996
33
-4.000000
0
3DFACE
8
0
10
1.170100
20
128.914001
30
-4.000000
11
1.170100
21
-128.914001
31
-4.000000
12
-0.397900
22
-128.723999
32
-4.000000
13
-0.397900
23
-128.723999
33
-4.000000
0
3DFACE
8
0
10
1.170100
20
128.914001
30
-4.000000
11
2.470000
21
129.811996
31
-4.000000
12
1.170100
22
-128.914001
32
-4.000000
13
1.170100
23
-128.914001
33
-4.000000
0
3DFACE
8
0
10
3.204000
20
131.210007
30
-4.000000
11
227.078003
21
130.466003
31
-4.000000
12
2.470000
22
129.811996
32
-4.000000
13
2.470000
23
129.811996
33
-4.000000
0
3DFACE
8
0
10
3.204000
20
131.210007
30
-4.000000
11
226.699997
21
132.000000
31
-4.000000
12
227.078003
22
130.466003
32
-4.000000
13
227.078003
23
130.466003
33
-4.000000
0
3DFACE
8
0
10
-0.397900
20
128.723999
30
-4.000000
11
1.170100
21
128.914001
31
-4.000000
12
-0.397900
22
-128.723999
32
-4.000000
13
-0.397900
23
-128.723999
33
-4.000000
0
3DFACE
8
0
10
3.204000
20
132.789993
30
-4.000000
11
226.699997
21
132.000000
31
-4.000000
12
3.204000
22
131.210007
32
-4.000000
13
3.204000
23
131.210007
33
-4.000000
0
3DFACE
8
0
10
3.204000
20
132.789993
30
-4.000000
11
227.078003
21
133.533997
31
-4.000000
12
226.699997
22
132.000000
32
-4.000000
13
226.699997
23
132.000000
33
-4.000000
0
3DFACE
8
0
10
-1.874700
20
129.283997
30
-4.000000
11
-0.397900
21
-128.723999
31
-4.000000
12
-1.874700
22
-129.283997
32
-4.000000
13
-1.874700
23
-129.283997
33
-4.000000
0
3DFACE
8
0
10
-1.874700
20
129.283997
30
-4.000000
11
-0.397900
21
128.723999
31
-4.000000
12
-0.397900
22
-128.723999
32
-4.000000
13
-0.397900
23
-128.723999
33
-4.000000
0
3DFACE
8
0
10
2.470000
20
134.188004
30
-4.000000
11
227.078003
21
133.533997
31
-4.000000
12
3.204000
22
132.789993
32
-4.000000
13
3.204000
23
132.789993
33
-4.000000
0
3DFACE
8
0
10
2.470000
20
134.188004
30
-4.000000
11
228.125000
21
134.716003
31
-4.000000
12
227.078003
22
133.533997
32
-4.000000
13
227.078003
23
133.533997
33
-4.000000
0
3DFACE
8
0
10
1.170100
20
135.085999
30
-4.000000
11
259.500000
21
147.000000
31
-4.000000
12
229.602005
22
135.276001
32
-4.000000
13
229.602005
23
135.276001
33
-4.000000
0
3DFACE
8
0
10
1.170100
20
135.085999
30
-4.000000
11
229.602005
21
135.276001
31
-4.000000
12
228.125000
22
134.716003
32
-4.000000
13
228.125000
23
134.716003
33
-4.000000
0
3DFACE
8
0
10
1.170100
20
135.085999
30
-4.000000
11
228.125000
21
134.716003
31
-4.000000
12
2.470000
22
134.188004
32
-4.000000
13
2.470000
23
134.188004
33
-4.000000
0
3DFACE
8
0
10
-259.500000
20
-116.796997
30
-4.000000
11
-233.300003
21
-132.000000
31
-4.000000
12
-259.500000
22
-153.000000
32
-4.000000
13
-259.500000
23
-153.000000
33
-4.000000
0
3DFACE
8
0
10
-259.500000
20
-116.796997
30
-4.000000
11
-228.830002
21
-128.914001
31
-4.000000
12
-230.397995
22
-128.723999
32
-4.000000
13
-230.397995
23
-128.723999
33
-4.000000
0
3DFACE
8
0
10
-259.500000
20
-116.796997
30
-4.000000
11
-230.397995
21
-128.723999
31
-4.000000
12
-231.875000
22
-129.283997
32
-4.000000
13
-231.875000
23
-129.283997
33
-4.000000
0
3DFACE
8
0
10
-259.500000
20
-116.796997
30
-4.000000
11
-231.875000
21
-129.283997
31
-4.000000
12
-232.921997
22
-130.466003
32
-4.000000
13
-232.921997
23
-130.466003
33
-4.000000
0
3DFACE
8
0
10
-259.500000
20
-116.796997
30
-4.000000
11
-232.921997
21
-130.466003
31
-4.000000
12
-233.300003
22
-132.000000
32
-4.000000
13
-233.300003
23
-132.000000
33
-4.000000
0
3DFACE
8
0
10
-333.829987
20
-3.085600
30
-4.000000
11
-332.529999
21
-2.188300
31
-4.000000
12
-319.796997
22
-56.500000
32
-4.000000
13
-319.796997
23
-56.500000
33
-4.000000
0
3DFACE
8
0
10
-331.795990
20
-0.789700
30
-4.000000
11
-259.500000
21
-116.796997
31
-4.000000
12
-319.796997
22
-56.500000
32
-4.000000
13
-319.796997
23
-56.500000
33
-4.000000
0
3DFACE
8
0
10
-331.795990
20
-0.789700
30
-4.000000
11
-319.796997
21
-56.500000
31
-4.000000
12
-332.529999
22
-2.188300
32
-4.000000
13
-332.529999
23
-2.188300
33
-4.000000
0
3DFACE
8
0
10
-335.398010
20
-3.275900
30
-4.000000
11
-319.796997
21
-56.500000
31
-4.000000
12
-350.000000
22
-56.500000
32
-4.000000
13
-350.000000
23
-56.500000
33
-4.000000
0
3DFACE
8
0
10
-335.398010
20
-3.275900
30
-4.000000
11
-333.829987
21
-3.085600
31
-4.000000
12
-319.796997
22
-56.500000
32
-4.000000
13
-319.796997
23
-56.500000
33
-4.000000
0
3DFACE
8
0
10
-331.795990
20
0.789700
30
-4.000000
11
-259.500000
21
-116.796997
31
-4.000000
12
-331.795990
22
-0.789700
32
-4.000000
13
-331.795990
23
-0.789700
33
-4.000000
0
3DFACE
8
0
10
-336.875000
20
-2.715800
30
-4.000000
11
-335.398010
21
-3.275900
31
-4.000000
12
-350.000000
22
-56.500000
32
-4.000000
13
-350.000000
23
-56.500000
33
-4.000000
0
3DFACE
8
0
10
-337.921997
20
-1.533600
30
-4.000000
11
-336.875000
21
-2.715800
31
-4.000000
12
-350.000000
22
-56.500000
32
-4.000000
13
-350.000000
23
-56.500000
33
-4.000000
0
3DFACE
8
0
10
-338.299988
20
0.000000
30
-4.000000
11
-337.921997
21
-1.533600
31
-4.000000
12
-350.000000
22
-56.500000
32
-4.000000
13
-350.000000
23
-56.500000
33
-4.000000
0
3DFACE
8
0
10
-227.529999
20
129.811996
30
-4.000000
11
-1.874700
21
129.283997
31
-4.000000
12
-1.874700
22
-129.283997
32
-4.000000
13
-1.874700
23
-129.283997
33
-4.000000
0
3DFACE
8
0
10
-227.529999
20
129.811996
30
-4.000000
11
-1.874700
21
-129.283997
31
-4.000000
12
-227.529999
22
-129.811996
32
-4.000000
13
-227.529999
23
-129.811996
33
-4.000000
0
3DFACE
8
0
10
-227.529999
20
129.811996
30
-4.000000
11
-2.922100
21
130.466003
31
-4.000000
12
-1.874700
22
129.283997
32
-4.000000
13
-1.874700
23
129.283997
33
-4.000000
0
3DFACE
8
0
10
-228.830002
20
128.914001
30
-4.000000
11
-228.830002
21
-128.914001
31
-4.000000
12
-259.500000
22
-116.796997
32
-4.000000
13
-259.500000
23
-116.796997
33
-4.000000
0
3DFACE
8
0
10
-228.830002
20
128.914001
30
-4.000000
11
-227.529999
21
129.811996
31
-4.000000
12
-227.529999
22
-129.811996
32
-4.000000
13
-227.529999
23
-129.811996
33
-4.000000
0
3DFACE
8
0
10
-228.830002
20
128.914001
30
-4.000000
11
-227.529999
21
-129.811996
31
-4.000000
12
-228.830002
22
-128.914001
32
-4.000000
13
-228.830002
23
-128.914001
33
-4.000000
0
3DFACE
8
0
10
-226.796005
20
131.210007
30
-4.000000
11
-3.300100
21
132.000000
31
-4.000000
12
-2.922100
22
130.466003
32
-4.000000
13
-2.922100
23
130.466003
33
-4.000000
0
3DFACE
8
0
10
-226.796005
20
131.210007
30
-4.000000
11
-2.922100
21
130.466003
31
-4.000000
12
-227.529999
22
129.811996
32
-4.000000
13
-227.529999
23
129.811996
33
-4.000000
0
3DFACE
8
0
10
-226.796005
20
132.789993
30
-4.000000
11
-3.300100
21
132.000000
31
-4.000000
12
-226.796005
22
131.210007
32
-4.000000
13
-226.796005
23
131.210007
33
-4.000000
0
3DFACE
8
0
10
-226.796005
20
132.789993
30
-4.000000
11
-2.922100
21
133.533997
31
-4.000000
12
-3.300100
22
132.000000
32
-4.000000
13
-3.300100
23
132.000000
33
-4.000000
0
3DFACE
8
0
10
-227.529999
20
134.188004
30
-4.000000
11
-2.922100
21
133.533997
31
-4.000000
12
-226.796005
22
132.789993
32
-4.000000
13
-226.796005
23
132.789993
33
-4.000000
0
3DFACE
8
0
10
-227.529999
20
134.188004
30
-4.000000
11
-1.874700
21
134.716003
31
-4.000000
12
-2.922100
22
133.533997
32
-4.000000
13
-2.922100
23
133.533997
33
-4.000000
0
3DFACE
8
0
10
-228.830002
20
135.085999
30
-4.000000
11
-1.874700
21
134.716003
31
-4.000000
12
-227.529999
22
134.188004
32
-4.000000
13
-227.529999
23
134.188004
33
-4.000000
0
3DFACE
8
0
10
-228.830002
20
135.085999
30
-4.000000
11
-0.397900
21
135.276001
31
-4.000000
12
-1.874700
22
134.716003
32
-4.000000
13
-1.874700
23
134.716003
33
-4.000000
0
3DFACE
8
0
10
-259.500000
20
116.796997
30
-4.000000
11
-259.500000
21
-116.796997
31
-4.000000
12
-331.795990
22
0.789700
32
-4.000000
13
-331.795990
23
0.789700
33
-4.000000
0
3DFACE
8
0
10
-259.500000
20
116.796997
30
-4.000000
11
-233.300003
21
132.000000
31
-4.000000
12
-232.921997
22
130.466003
32
-4.000000
13
-232.921997
23
130.466003
33
-4.000000
0
3DFACE
8
0
10
-259.500000
20
116.796997
30
-4.000000
11
-232.921997
21
130.466003
31
-4.000000
12
-231.875000
22
129.283997
32
-4.000000
13
-231.875000
23
129.283997
33
-4.000000
0
3DFACE
8
0
10
-259.500000
20
116.796997
30
-4.000000
11
-231.875000
21
129.283997
31
-4.000000
12
-230.397995
22
128.723999
32
-4.000000
13
-230.397995
23
128.723999
33
-4.000000
0
3DFACE
8
0
10
-259.500000
20
116.796997
30
-4.000000
11
-230.397995
21
128.723999
31
-4.000000
12
-228.830002
22
128.914001
32
-4.000000
13
-228.830002
23
128.914001
33
-4.000000
0
3DFACE
8
0
10
-259.500000
20
116.796997
30
-4.000000
11
-228.830002
21
128.914001
31
-4.000000
12
-259.500000
22
-116.796997
32
-4.000000
13
-259.500000
23
-116.796997
33
-4.000000
0
3DFACE
8
0
10
-319.796997
20
56.500000
30
-4.000000
11
-259.500000
21
116.796997
31
-4.000000
12
-331.795990
22
0.789700
32
-4.000000
13
-331.795990
23
0.789700
33
-4.000000
0
3DFACE
8
0
10
-319.796997
20
56.500000
30
-4.000000
11
-331.795990
21
0.789700
31
-4.000000
12
-332.529999
22
2.188300
32
-4.000000
13
-332.529999
23
2.188300
33
-4.000000
0
3DFACE
8
0
10
-319.796997
20
56.500000
30
-4.000000
11
-332.529999
21
2.188300
31
-4.000000
12
-333.829987
22
3.085600
32
-4.000000
13
-333.829987
23
3.085600
33
-4.000000
0
3DFACE
8
0
10
-319.796997
20
56.500000
30
-4.000000
11
-333.829987
21
3.085600
31
-4.000000
12
-335.398010
22
3.275900
32
-4.000000
13
-335.398010
23
3.275900
33
-4.000000
0
3DFACE
8
0
10
-259.500000
20
147.000000
30
-4.000000
11
-233.300003
21
132.000000
31
-4.000000
12
-259.500000
22
116.796997
32
-4.000000
13
-259.500000
23
116.796997
33
-4.000000
0
3DFACE
8
0
10
-259.500000
20
147.000000
30
-4.000000
11
-0.397900
21
135.276001
31
-4.000000
12
-228.830002
22
135.085999
32
-4.000000
13
-228.830002
23
135.085999
33
-4.000000
0
3DFACE
8
0
10
-259.500000
20
147.000000
30
-4.000000
11
-228.830002
21
135.085999
31
-4.000000
12
-230.397995
22
135.276001
32
-4.000000
13
-230.397995
23
135.276001
33
-4.000000
0
3DFACE
8
0
10
-259.500000
20
147.000000
30
-4.000000
11
-230.397995
21
135.276001
31
-4.000000
12
-231.875000
22
134.716003
32
-4.000000
13
-231.875000
23
134.716003
33
-4.000000
0
3DFACE
8
0
10
-259.500000
20
147.000000
30
-4.000000
11
-231.875000
21
134.716003
31
-4.000000
12
-232.921997
22
133.533997
32
-4.000000
13
-232.921997
23
133.533997
33
-4.000000
0
3DFACE
8
0
10
-259.500000
20
147.000000
30
-4.000000
11
-232.921997
21
133.533997
31
-4.000000
12
-233.300003
22
132.000000
32
-4.000000
13
-233.300003
23
132.000000
33
-4.000000
0
3DFACE
8
0
10
-350.000000
20
56.500000
30
-4.000000
11
-338.299988
21
0.000000
31
-4.000000
12
-350.000000
22
-56.500000
32
-4.000000
13
-350.000000
23
-56.500000
33
-4.000000
0
3DFACE
8
0
10
-350.000000
20
56.500000
30
-4.000000
11
-335.398010
21
3.275900
31
-4.000000
12
-336.875000
22
2.715800
32
-4.000000
13
-336.875000
23
2.715800
33
-4.000000
0
3DFACE
8
0
10
-350.000000
20
56.500000
30
-4.000000
11
-336.875000
21
2.715800
31
-4.000000
12
-337.921997
22
1.533600
32
-4.000000
13
-337.921997
23
1.533600
33
-4.000000
0
3DFACE
8
0
10
-350.000000
20
56.500000
30
-4.000000
11
-337.921997
21
1.533600
31
-4.000000
12
-338.299988
22
0.000000
32
-4.000000
13
-338.299988
23
0.000000
33
-4.000000
0
3DFACE
8
0
10
-350.000000
20
56.500000
30
-4.000000
11
-319.796997
21
56.500000
31
-4.000000
12
-335.398010
22
3.275900
32
-4.000000
13
-335.398010
23
3.275900
33
-4.000000
0
3DFACE
8
0
10
-259.500000
20
147.000000
30
-4.000000
11
259.500000
21
147.000000
31
-4.000000
12
-0.397900
22
135.276001
32
-4.000000
13
-0.397900
23
135.276001
33
-4.000000
0
3DFACE
8
0
10
-0.397900
20
135.276001
30
-4.000000
11
259.500000
21
147.000000
31
-4.000000
12
1.170100
22
135.085999
32
-4.000000
13
1.170100
23
135.085999
33
-4.000000
0
ENDSEC
0
EOF
