999
Created by ADMesh version 0.98.3
0
SECTION
2
HEADER
0
ENDSEC
0
SECTION
2
TABLES
0
TABLE
2
LAYER
70
1
0
LAYER
2
0
70
0
62
7
6
CONTINUOUS
0
ENDTAB
0
ENDSEC
0
SECTION
2
BLOCKS
0
ENDSEC
0
SECTION
2
ENTITIES
0
3DFACE
8
0
10
-121.675003
20
352.500000
30
0.000000
11
-121.675003
21
352.500000
31
-4.000000
12
-121.296997
22
354.033997
32
0.000000
13
-121.296997
23
354.033997
33
0.000000
0
3DFACE
8
0
10
-121.296997
20
354.033997
30
0.000000
11
-121.296997
21
354.033997
31
-4.000000
12
-120.250000
22
355.216003
32
0.000000
13
-120.250000
23
355.216003
33
0.000000
0
3DFACE
8
0
10
-121.675003
20
352.500000
30
-4.000000
11
-121.296997
21
354.033997
31
-4.000000
12
-121.296997
22
354.033997
32
0.000000
13
-121.296997
23
354.033997
33
0.000000
0
3DFACE
8
0
10
-120.250000
20
355.216003
30
0.000000
11
-120.250000
21
355.216003
31
-4.000000
12
-118.773003
22
355.776001
32
0.000000
13
-118.773003
23
355.776001
33
0.000000
0
3DFACE
8
0
10
-121.296997
20
354.033997
30
-4.000000
11
-120.250000
21
355.216003
31
-4.000000
12
-120.250000
22
355.216003
32
0.000000
13
-120.250000
23
355.216003
33
0.000000
0
3DFACE
8
0
10
-118.773003
20
355.776001
30
0.000000
11
-118.773003
21
355.776001
31
-4.000000
12
-117.205002
22
355.585999
32
0.000000
13
-117.205002
23
355.585999
33
0.000000
0
3DFACE
8
0
10
-120.250000
20
355.216003
30
-4.000000
11
-118.773003
21
355.776001
31
-4.000000
12
-118.773003
22
355.776001
32
0.000000
13
-118.773003
23
355.776001
33
0.000000
0
3DFACE
8
0
10
-117.205002
20
355.585999
30
0.000000
11
-117.205002
21
355.585999
31
-4.000000
12
-115.904999
22
354.687988
32
0.000000
13
-115.904999
23
354.687988
33
0.000000
0
3DFACE
8
0
10
-118.773003
20
355.776001
30
-4.000000
11
-117.205002
21
355.585999
31
-4.000000
12
-117.205002
22
355.585999
32
0.000000
13
-117.205002
23
355.585999
33
0.000000
0
3DFACE
8
0
10
-115.904999
20
354.687988
30
0.000000
11
-115.904999
21
354.687988
31
-4.000000
12
-115.170998
22
353.290009
32
0.000000
13
-115.170998
23
353.290009
33
0.000000
0
3DFACE
8
0
10
-117.205002
20
355.585999
30
-4.000000
11
-115.904999
21
354.687988
31
-4.000000
12
-115.904999
22
354.687988
32
0.000000
13
-115.904999
23
354.687988
33
0.000000
0
3DFACE
8
0
10
-115.170998
20
353.290009
30
0.000000
11
-115.170998
21
353.290009
31
-4.000000
12
-115.170998
22
351.709991
32
0.000000
13
-115.170998
23
351.709991
33
0.000000
0
3DFACE
8
0
10
-115.904999
20
354.687988
30
-4.000000
11
-115.170998
21
353.290009
31
-4.000000
12
-115.170998
22
353.290009
32
0.000000
13
-115.170998
23
353.290009
33
0.000000
0
3DFACE
8
0
10
-115.170998
20
351.709991
30
0.000000
11
-115.170998
21
351.709991
31
-4.000000
12
-115.904999
22
350.312012
32
0.000000
13
-115.904999
23
350.312012
33
0.000000
0
3DFACE
8
0
10
-115.170998
20
353.290009
30
-4.000000
11
-115.170998
21
351.709991
31
-4.000000
12
-115.170998
22
351.709991
32
0.000000
13
-115.170998
23
351.709991
33
0.000000
0
3DFACE
8
0
10
-115.904999
20
350.312012
30
0.000000
11
-115.904999
21
350.312012
31
-4.000000
12
-117.205002
22
349.414001
32
0.000000
13
-117.205002
23
349.414001
33
0.000000
0
3DFACE
8
0
10
-115.170998
20
351.709991
30
-4.000000
11
-115.904999
21
350.312012
31
-4.000000
12
-115.904999
22
350.312012
32
0.000000
13
-115.904999
23
350.312012
33
0.000000
0
3DFACE
8
0
10
-117.205002
20
349.414001
30
0.000000
11
-117.205002
21
349.414001
31
-4.000000
12
-118.773003
22
349.223999
32
0.000000
13
-118.773003
23
349.223999
33
0.000000
0
3DFACE
8
0
10
-115.904999
20
350.312012
30
-4.000000
11
-117.205002
21
349.414001
31
-4.000000
12
-117.205002
22
349.414001
32
0.000000
13
-117.205002
23
349.414001
33
0.000000
0
3DFACE
8
0
10
-117.205002
20
349.414001
30
-4.000000
11
-118.773003
21
349.223999
31
-4.000000
12
-118.773003
22
349.223999
32
0.000000
13
-118.773003
23
349.223999
33
0.000000
0
3DFACE
8
0
10
-118.773003
20
349.223999
30
0.000000
11
-120.250000
21
349.783997
31
-4.000000
12
-120.250000
22
349.783997
32
0.000000
13
-120.250000
23
349.783997
33
0.000000
0
3DFACE
8
0
10
-120.250000
20
349.783997
30
0.000000
11
-120.250000
21
349.783997
31
-4.000000
12
-121.296997
22
350.966003
32
0.000000
13
-121.296997
23
350.966003
33
0.000000
0
3DFACE
8
0
10
-118.773003
20
349.223999
30
-4.000000
11
-120.250000
21
349.783997
31
-4.000000
12
-118.773003
22
349.223999
32
0.000000
13
-118.773003
23
349.223999
33
0.000000
0
3DFACE
8
0
10
-121.296997
20
350.966003
30
0.000000
11
-121.296997
21
350.966003
31
-4.000000
12
-121.675003
22
352.500000
32
0.000000
13
-121.675003
23
352.500000
33
0.000000
0
3DFACE
8
0
10
-120.250000
20
349.783997
30
-4.000000
11
-121.296997
21
350.966003
31
-4.000000
12
-121.296997
22
350.966003
32
0.000000
13
-121.296997
23
350.966003
33
0.000000
0
3DFACE
8
0
10
-121.296997
20
350.966003
30
-4.000000
11
-121.675003
21
352.500000
31
-4.000000
12
-121.675003
22
352.500000
32
0.000000
13
-121.675003
23
352.500000
33
0.000000
0
3DFACE
8
0
10
-338.299988
20
0.000000
30
0.000000
11
-338.299988
21
0.000000
31
-4.000000
12
-337.921997
22
1.533600
32
0.000000
13
-337.921997
23
1.533600
33
0.000000
0
3DFACE
8
0
10
-337.921997
20
1.533600
30
0.000000
11
-337.921997
21
1.533600
31
-4.000000
12
-336.875000
22
2.715800
32
0.000000
13
-336.875000
23
2.715800
33
0.000000
0
3DFACE
8
0
10
-338.299988
20
0.000000
30
-4.000000
11
-337.921997
21
1.533600
31
-4.000000
12
-337.921997
22
1.533600
32
0.000000
13
-337.921997
23
1.533600
33
0.000000
0
3DFACE
8
0
10
-336.875000
20
2.715800
30
0.000000
11
-336.875000
21
2.715800
31
-4.000000
12
-335.398010
22
3.275900
32
0.000000
13
-335.398010
23
3.275900
33
0.000000
0
3DFACE
8
0
10
-337.921997
20
1.533600
30
-4.000000
11
-336.875000
21
2.715800
31
-4.000000
12
-336.875000
22
2.715800
32
0.000000
13
-336.875000
23
2.715800
33
0.000000
0
3DFACE
8
0
10
-335.398010
20
3.275900
30
0.000000
11
-335.398010
21
3.275900
31
-4.000000
12
-333.829987
22
3.085600
32
0.000000
13
-333.829987
23
3.085600
33
0.000000
0
3DFACE
8
0
10
-336.875000
20
2.715800
30
-4.000000
11
-335.398010
21
3.275900
31
-4.000000
12
-335.398010
22
3.275900
32
0.000000
13
-335.398010
23
3.275900
33
0.000000
0
3DFACE
8
0
10
-333.829987
20
3.085600
30
0.000000
11
-333.829987
21
3.085600
31
-4.000000
12
-332.529999
22
2.188300
32
0.000000
13
-332.529999
23
2.188300
33
0.000000
0
3DFACE
8
0
10
-335.398010
20
3.275900
30
-4.000000
11
-333.829987
21
3.085600
31
-4.000000
12
-333.829987
22
3.085600
32
0.000000
13
-333.829987
23
3.085600
33
0.000000
0
3DFACE
8
0
10
-332.529999
20
2.188300
30
0.000000
11
-332.529999
21
2.188300
31
-4.000000
12
-331.795990
22
0.789700
32
0.000000
13
-331.795990
23
0.789700
33
0.000000
0
3DFACE
8
0
10
-333.829987
20
3.085600
30
-4.000000
11
-332.529999
21
2.188300
31
-4.000000
12
-332.529999
22
2.188300
32
0.000000
13
-332.529999
23
2.188300
33
0.000000
0
3DFACE
8
0
10
-331.795990
20
0.789700
30
0.000000
11
-331.795990
21
0.789700
31
-4.000000
12
-331.795990
22
-0.789700
32
0.000000
13
-331.795990
23
-0.789700
33
0.000000
0
3DFACE
8
0
10
-332.529999
20
2.188300
30
-4.000000
11
-331.795990
21
0.789700
31
-4.000000
12
-331.795990
22
0.789700
32
0.000000
13
-331.795990
23
0.789700
33
0.000000
0
3DFACE
8
0
10
-331.795990
20
-0.789700
30
0.000000
11
-331.795990
21
-0.789700
31
-4.000000
12
-332.529999
22
-2.188300
32
0.000000
13
-332.529999
23
-2.188300
33
0.000000
0
3DFACE
8
0
10
-331.795990
20
0.789700
30
-4.000000
11
-331.795990
21
-0.789700
31
-4.000000
12
-331.795990
22
-0.789700
32
0.000000
13
-331.795990
23
-0.789700
33
0.000000
0
3DFACE
8
0
10
-332.529999
20
-2.188300
30
0.000000
11
-332.529999
21
-2.188300
31
-4.000000
12
-333.829987
22
-3.085600
32
0.000000
13
-333.829987
23
-3.085600
33
0.000000
0
3DFACE
8
0
10
-331.795990
20
-0.789700
30
-4.000000
11
-332.529999
21
-2.188300
31
-4.000000
12
-332.529999
22
-2.188300
32
0.000000
13
-332.529999
23
-2.188300
33
0.000000
0
3DFACE
8
0
10
-333.829987
20
-3.085600
30
0.000000
11
-333.829987
21
-3.085600
31
-4.000000
12
-335.398010
22
-3.275900
32
0.000000
13
-335.398010
23
-3.275900
33
0.000000
0
3DFACE
8
0
10
-332.529999
20
-2.188300
30
-4.000000
11
-333.829987
21
-3.085600
31
-4.000000
12
-333.829987
22
-3.085600
32
0.000000
13
-333.829987
23
-3.085600
33
0.000000
0
3DFACE
8
0
10
-333.829987
20
-3.085600
30
-4.000000
11
-335.398010
21
-3.275900
31
-4.000000
12
-335.398010
22
-3.275900
32
0.000000
13
-335.398010
23
-3.275900
33
0.000000
0
3DFACE
8
0
10
-335.398010
20
-3.275900
30
0.000000
11
-336.875000
21
-2.715800
31
-4.000000
12
-336.875000
22
-2.715800
32
0.000000
13
-336.875000
23
-2.715800
33
0.000000
0
3DFACE
8
0
10
-336.875000
20
-2.715800
30
0.000000
11
-336.875000
21
-2.715800
31
-4.000000
12
-337.921997
22
-1.533600
32
0.000000
13
-337.921997
23
-1.533600
33
0.000000
0
3DFACE
8
0
10
-335.398010
20
-3.275900
30
-4.000000
11
-336.875000
21
-2.715800
31
-4.000000
12
-335.398010
22
-3.275900
32
0.000000
13
-335.398010
23
-3.275900
33
0.000000
0
3DFACE
8
0
10
-337.921997
20
-1.533600
30
0.000000
11
-337.921997
21
-1.533600
31
-4.000000
12
-338.299988
22
0.000000
32
0.000000
13
-338.299988
23
0.000000
33
0.000000
0
3DFACE
8
0
10
-336.875000
20
-2.715800
30
-4.000000
11
-337.921997
21
-1.533600
31
-4.000000
12
-337.921997
22
-1.533600
32
0.000000
13
-337.921997
23
-1.533600
33
0.000000
0
3DFACE
8
0
10
-337.921997
20
-1.533600
30
-4.000000
11
-338.299988
21
0.000000
31
-4.000000
12
-338.299988
22
0.000000
32
0.000000
13
-338.299988
23
0.000000
33
0.000000
0
3DFACE
8
0
10
226.699997
20
-352.500000
30
0.000000
11
226.699997
21
-352.500000
31
-4.000000
12
227.078003
22
-350.966003
32
0.000000
13
227.078003
23
-350.966003
33
0.000000
0
3DFACE
8
0
10
227.078003
20
-350.966003
30
0.000000
11
227.078003
21
-350.966003
31
-4.000000
12
228.125000
22
-349.783997
32
0.000000
13
228.125000
23
-349.783997
33
0.000000
0
3DFACE
8
0
10
226.699997
20
-352.500000
30
-4.000000
11
227.078003
21
-350.966003
31
-4.000000
12
227.078003
22
-350.966003
32
0.000000
13
227.078003
23
-350.966003
33
0.000000
0
3DFACE
8
0
10
228.125000
20
-349.783997
30
0.000000
11
228.125000
21
-349.783997
31
-4.000000
12
229.602005
22
-349.223999
32
0.000000
13
229.602005
23
-349.223999
33
0.000000
0
3DFACE
8
0
10
227.078003
20
-350.966003
30
-4.000000
11
228.125000
21
-349.783997
31
-4.000000
12
228.125000
22
-349.783997
32
0.000000
13
228.125000
23
-349.783997
33
0.000000
0
3DFACE
8
0
10
229.602005
20
-349.223999
30
0.000000
11
229.602005
21
-349.223999
31
-4.000000
12
231.169998
22
-349.414001
32
0.000000
13
231.169998
23
-349.414001
33
0.000000
0
3DFACE
8
0
10
228.125000
20
-349.783997
30
-4.000000
11
229.602005
21
-349.223999
31
-4.000000
12
229.602005
22
-349.223999
32
0.000000
13
229.602005
23
-349.223999
33
0.000000
0
3DFACE
8
0
10
231.169998
20
-349.414001
30
0.000000
11
231.169998
21
-349.414001
31
-4.000000
12
232.470001
22
-350.312012
32
0.000000
13
232.470001
23
-350.312012
33
0.000000
0
3DFACE
8
0
10
229.602005
20
-349.223999
30
-4.000000
11
231.169998
21
-349.414001
31
-4.000000
12
231.169998
22
-349.414001
32
0.000000
13
231.169998
23
-349.414001
33
0.000000
0
3DFACE
8
0
10
232.470001
20
-350.312012
30
0.000000
11
232.470001
21
-350.312012
31
-4.000000
12
233.203995
22
-351.709991
32
0.000000
13
233.203995
23
-351.709991
33
0.000000
0
3DFACE
8
0
10
231.169998
20
-349.414001
30
-4.000000
11
232.470001
21
-350.312012
31
-4.000000
12
232.470001
22
-350.312012
32
0.000000
13
232.470001
23
-350.312012
33
0.000000
0
3DFACE
8
0
10
233.203995
20
-351.709991
30
0.000000
11
233.203995
21
-351.709991
31
-4.000000
12
233.203995
22
-353.290009
32
0.000000
13
233.203995
23
-353.290009
33
0.000000
0
3DFACE
8
0
10
232.470001
20
-350.312012
30
-4.000000
11
233.203995
21
-351.709991
31
-4.000000
12
233.203995
22
-351.709991
32
0.000000
13
233.203995
23
-351.709991
33
0.000000
0
3DFACE
8
0
10
233.203995
20
-353.290009
30
0.000000
11
233.203995
21
-353.290009
31
-4.000000
12
232.470001
22
-354.687988
32
0.000000
13
232.470001
23
-354.687988
33
0.000000
0
3DFACE
8
0
10
233.203995
20
-351.709991
30
-4.000000
11
233.203995
21
-353.290009
31
-4.000000
12
233.203995
22
-353.290009
32
0.000000
13
233.203995
23
-353.290009
33
0.000000
0
3DFACE
8
0
10
232.470001
20
-354.687988
30
0.000000
11
232.470001
21
-354.687988
31
-4.000000
12
231.169998
22
-355.585999
32
0.000000
13
231.169998
23
-355.585999
33
0.000000
0
3DFACE
8
0
10
233.203995
20
-353.290009
30
-4.000000
11
232.470001
21
-354.687988
31
-4.000000
12
232.470001
22
-354.687988
32
0.000000
13
232.470001
23
-354.687988
33
0.000000
0
3DFACE
8
0
10
231.169998
20
-355.585999
30
0.000000
11
231.169998
21
-355.585999
31
-4.000000
12
229.602005
22
-355.776001
32
0.000000
13
229.602005
23
-355.776001
33
0.000000
0
3DFACE
8
0
10
232.470001
20
-354.687988
30
-4.000000
11
231.169998
21
-355.585999
31
-4.000000
12
231.169998
22
-355.585999
32
0.000000
13
231.169998
23
-355.585999
33
0.000000
0
3DFACE
8
0
10
231.169998
20
-355.585999
30
-4.000000
11
229.602005
21
-355.776001
31
-4.000000
12
229.602005
22
-355.776001
32
0.000000
13
229.602005
23
-355.776001
33
0.000000
0
3DFACE
8
0
10
229.602005
20
-355.776001
30
0.000000
11
228.125000
21
-355.216003
31
-4.000000
12
228.125000
22
-355.216003
32
0.000000
13
228.125000
23
-355.216003
33
0.000000
0
3DFACE
8
0
10
228.125000
20
-355.216003
30
0.000000
11
228.125000
21
-355.216003
31
-4.000000
12
227.078003
22
-354.033997
32
0.000000
13
227.078003
23
-354.033997
33
0.000000
0
3DFACE
8
0
10
229.602005
20
-355.776001
30
-4.000000
11
228.125000
21
-355.216003
31
-4.000000
12
229.602005
22
-355.776001
32
0.000000
13
229.602005
23
-355.776001
33
0.000000
0
3DFACE
8
0
10
227.078003
20
-354.033997
30
0.000000
11
227.078003
21
-354.033997
31
-4.000000
12
226.699997
22
-352.500000
32
0.000000
13
226.699997
23
-352.500000
33
0.000000
0
3DFACE
8
0
10
228.125000
20
-355.216003
30
-4.000000
11
227.078003
21
-354.033997
31
-4.000000
12
227.078003
22
-354.033997
32
0.000000
13
227.078003
23
-354.033997
33
0.000000
0
3DFACE
8
0
10
227.078003
20
-354.033997
30
-4.000000
11
226.699997
21
-352.500000
31
-4.000000
12
226.699997
22
-352.500000
32
0.000000
13
226.699997
23
-352.500000
33
0.000000
0
3DFACE
8
0
10
-233.300003
20
-352.500000
30
0.000000
11
-233.300003
21
-352.500000
31
-4.000000
12
-232.921997
22
-350.966003
32
0.000000
13
-232.921997
23
-350.966003
33
0.000000
0
3DFACE
8
0
10
-232.921997
20
-350.966003
30
0.000000
11
-232.921997
21
-350.966003
31
-4.000000
12
-231.875000
22
-349.783997
32
0.000000
13
-231.875000
23
-349.783997
33
0.000000
0
3DFACE
8
0
10
-233.300003
20
-352.500000
30
-4.000000
11
-232.921997
21
-350.966003
31
-4.000000
12
-232.921997
22
-350.966003
32
0.000000
13
-232.921997
23
-350.966003
33
0.000000
0
3DFACE
8
0
10
-231.875000
20
-349.783997
30
0.000000
11
-231.875000
21
-349.783997
31
-4.000000
12
-230.397995
22
-349.223999
32
0.000000
13
-230.397995
23
-349.223999
33
0.000000
0
3DFACE
8
0
10
-232.921997
20
-350.966003
30
-4.000000
11
-231.875000
21
-349.783997
31
-4.000000
12
-231.875000
22
-349.783997
32
0.000000
13
-231.875000
23
-349.783997
33
0.000000
0
3DFACE
8
0
10
-230.397995
20
-349.223999
30
0.000000
11
-230.397995
21
-349.223999
31
-4.000000
12
-228.830002
22
-349.414001
32
0.000000
13
-228.830002
23
-349.414001
33
0.000000
0
3DFACE
8
0
10
-231.875000
20
-349.783997
30
-4.000000
11
-230.397995
21
-349.223999
31
-4.000000
12
-230.397995
22
-349.223999
32
0.000000
13
-230.397995
23
-349.223999
33
0.000000
0
3DFACE
8
0
10
-228.830002
20
-349.414001
30
0.000000
11
-228.830002
21
-349.414001
31
-4.000000
12
-227.529999
22
-350.312012
32
0.000000
13
-227.529999
23
-350.312012
33
0.000000
0
3DFACE
8
0
10
-230.397995
20
-349.223999
30
-4.000000
11
-228.830002
21
-349.414001
31
-4.000000
12
-228.830002
22
-349.414001
32
0.000000
13
-228.830002
23
-349.414001
33
0.000000
0
3DFACE
8
0
10
-227.529999
20
-350.312012
30
0.000000
11
-227.529999
21
-350.312012
31
-4.000000
12
-226.796005
22
-351.709991
32
0.000000
13
-226.796005
23
-351.709991
33
0.000000
0
3DFACE
8
0
10
-228.830002
20
-349.414001
30
-4.000000
11
-227.529999
21
-350.312012
31
-4.000000
12
-227.529999
22
-350.312012
32
0.000000
13
-227.529999
23
-350.312012
33
0.000000
0
3DFACE
8
0
10
-226.796005
20
-351.709991
30
0.000000
11
-226.796005
21
-351.709991
31
-4.000000
12
-226.796005
22
-353.290009
32
0.000000
13
-226.796005
23
-353.290009
33
0.000000
0
3DFACE
8
0
10
-227.529999
20
-350.312012
30
-4.000000
11
-226.796005
21
-351.709991
31
-4.000000
12
-226.796005
22
-351.709991
32
0.000000
13
-226.796005
23
-351.709991
33
0.000000
0
3DFACE
8
0
10
-226.796005
20
-353.290009
30
0.000000
11
-226.796005
21
-353.290009
31
-4.000000
12
-227.529999
22
-354.687988
32
0.000000
13
-227.529999
23
-354.687988
33
0.000000
0
3DFACE
8
0
10
-226.796005
20
-351.709991
30
-4.000000
11
-226.796005
21
-353.290009
31
-4.000000
12
-226.796005
22
-353.290009
32
0.000000
13
-226.796005
23
-353.290009
33
0.000000
0
3DFACE
8
0
10
-227.529999
20
-354.687988
30
0.000000
11
-227.529999
21
-354.687988
31
-4.000000
12
-228.830002
22
-355.585999
32
0.000000
13
-228.830002
23
-355.585999
33
0.000000
0
3DFACE
8
0
10
-226.796005
20
-353.290009
30
-4.000000
11
-227.529999
21
-354.687988
31
-4.000000
12
-227.529999
22
-354.687988
32
0.000000
13
-227.529999
23
-354.687988
33
0.000000
0
3DFACE
8
0
10
-228.830002
20
-355.585999
30
0.000000
11
-228.830002
21
-355.585999
31
-4.000000
12
-230.397995
22
-355.776001
32
0.000000
13
-230.397995
23
-355.776001
33
0.000000
0
3DFACE
8
0
10
-227.529999
20
-354.687988
30
-4.000000
11
-228.830002
21
-355.585999
31
-4.000000
12
-228.830002
22
-355.585999
32
0.000000
13
-228.830002
23
-355.585999
33
0.000000
0
3DFACE
8
0
10
-228.830002
20
-355.585999
30
-4.000000
11
-230.397995
21
-355.776001
31
-4.000000
12
-230.397995
22
-355.776001
32
0.000000
13
-230.397995
23
-355.776001
33
0.000000
0
3DFACE
8
0
10
-230.397995
20
-355.776001
30
0.000000
11
-231.875000
21
-355.216003
31
-4.000000
12
-231.875000
22
-355.216003
32
0.000000
13
-231.875000
23
-355.216003
33
0.000000
0
3DFACE
8
0
10
-231.875000
20
-355.216003
30
0.000000
11
-231.875000
21
-355.216003
31
-4.000000
12
-232.921997
22
-354.033997
32
0.000000
13
-232.921997
23
-354.033997
33
0.000000
0
3DFACE
8
0
10
-230.397995
20
-355.776001
30
-4.000000
11
-231.875000
21
-355.216003
31
-4.000000
12
-230.397995
22
-355.776001
32
0.000000
13
-230.397995
23
-355.776001
33
0.000000
0
3DFACE
8
0
10
-232.921997
20
-354.033997
30
0.000000
11
-232.921997
21
-354.033997
31
-4.000000
12
-233.300003
22
-352.500000
32
0.000000
13
-233.300003
23
-352.500000
33
0.000000
0
3DFACE
8
0
10
-231.875000
20
-355.216003
30
-4.000000
11
-232.921997
21
-354.033997
31
-4.000000
12
-232.921997
22
-354.033997
32
0.000000
13
-232.921997
23
-354.033997
33
0.000000
0
3DFACE
8
0
10
-232.921997
20
-354.033997
30
-4.000000
11
-233.300003
21
-352.500000
31
-4.000000
12
-233.300003
22
-352.500000
32
0.000000
13
-233.300003
23
-352.500000
33
0.000000
0
3DFACE
8
0
10
331.700012
20
247.500000
30
0.000000
11
331.700012
21
247.500000
31
-4.000000
12
332.078003
22
249.033997
32
0.000000
13
332.078003
23
249.033997
33
0.000000
0
3DFACE
8
0
10
332.078003
20
249.033997
30
0.000000
11
332.078003
21
249.033997
31
-4.000000
12
333.125000
22
250.216003
32
0.000000
13
333.125000
23
250.216003
33
0.000000
0
3DFACE
8
0
10
331.700012
20
247.500000
30
-4.000000
11
332.078003
21
249.033997
31
-4.000000
12
332.078003
22
249.033997
32
0.000000
13
332.078003
23
249.033997
33
0.000000
0
3DFACE
8
0
10
333.125000
20
250.216003
30
0.000000
11
333.125000
21
250.216003
31
-4.000000
12
334.601990
22
250.776001
32
0.000000
13
334.601990
23
250.776001
33
0.000000
0
3DFACE
8
0
10
332.078003
20
249.033997
30
-4.000000
11
333.125000
21
250.216003
31
-4.000000
12
333.125000
22
250.216003
32
0.000000
13
333.125000
23
250.216003
33
0.000000
0
3DFACE
8
0
10
334.601990
20
250.776001
30
0.000000
11
334.601990
21
250.776001
31
-4.000000
12
336.170013
22
250.585999
32
0.000000
13
336.170013
23
250.585999
33
0.000000
0
3DFACE
8
0
10
333.125000
20
250.216003
30
-4.000000
11
334.601990
21
250.776001
31
-4.000000
12
334.601990
22
250.776001
32
0.000000
13
334.601990
23
250.776001
33
0.000000
0
3DFACE
8
0
10
336.170013
20
250.585999
30
0.000000
11
336.170013
21
250.585999
31
-4.000000
12
337.470001
22
249.688004
32
0.000000
13
337.470001
23
249.688004
33
0.000000
0
3DFACE
8
0
10
334.601990
20
250.776001
30
-4.000000
11
336.170013
21
250.585999
31
-4.000000
12
336.170013
22
250.585999
32
0.000000
13
336.170013
23
250.585999
33
0.000000
0
3DFACE
8
0
10
337.470001
20
249.688004
30
0.000000
11
337.470001
21
249.688004
31
-4.000000
12
338.204010
22
248.289993
32
0.000000
13
338.204010
23
248.289993
33
0.000000
0
3DFACE
8
0
10
336.170013
20
250.585999
30
-4.000000
11
337.470001
21
249.688004
31
-4.000000
12
337.470001
22
249.688004
32
0.000000
13
337.470001
23
249.688004
33
0.000000
0
3DFACE
8
0
10
338.204010
20
248.289993
30
0.000000
11
338.204010
21
248.289993
31
-4.000000
12
338.204010
22
246.710007
32
0.000000
13
338.204010
23
246.710007
33
0.000000
0
3DFACE
8
0
10
337.470001
20
249.688004
30
-4.000000
11
338.204010
21
248.289993
31
-4.000000
12
338.204010
22
248.289993
32
0.000000
13
338.204010
23
248.289993
33
0.000000
0
3DFACE
8
0
10
338.204010
20
246.710007
30
0.000000
11
338.204010
21
246.710007
31
-4.000000
12
337.470001
22
245.311996
32
0.000000
13
337.470001
23
245.311996
33
0.000000
0
3DFACE
8
0
10
338.204010
20
248.289993
30
-4.000000
11
338.204010
21
246.710007
31
-4.000000
12
338.204010
22
246.710007
32
0.000000
13
338.204010
23
246.710007
33
0.000000
0
3DFACE
8
0
10
337.470001
20
245.311996
30
0.000000
11
337.470001
21
245.311996
31
-4.000000
12
336.170013
22
244.414001
32
0.000000
13
336.170013
23
244.414001
33
0.000000
0
3DFACE
8
0
10
338.204010
20
246.710007
30
-4.000000
11
337.470001
21
245.311996
31
-4.000000
12
337.470001
22
245.311996
32
0.000000
13
337.470001
23
245.311996
33
0.000000
0
3DFACE
8
0
10
336.170013
20
244.414001
30
0.000000
11
336.170013
21
244.414001
31
-4.000000
12
334.601990
22
244.223999
32
0.000000
13
334.601990
23
244.223999
33
0.000000
0
3DFACE
8
0
10
337.470001
20
245.311996
30
-4.000000
11
336.170013
21
244.414001
31
-4.000000
12
336.170013
22
244.414001
32
0.000000
13
336.170013
23
244.414001
33
0.000000
0
3DFACE
8
0
10
336.170013
20
244.414001
30
-4.000000
11
334.601990
21
244.223999
31
-4.000000
12
334.601990
22
244.223999
32
0.000000
13
334.601990
23
244.223999
33
0.000000
0
3DFACE
8
0
10
334.601990
20
244.223999
30
0.000000
11
333.125000
21
244.783997
31
-4.000000
12
333.125000
22
244.783997
32
0.000000
13
333.125000
23
244.783997
33
0.000000
0
3DFACE
8
0
10
333.125000
20
244.783997
30
0.000000
11
333.125000
21
244.783997
31
-4.000000
12
332.078003
22
245.966003
32
0.000000
13
332.078003
23
245.966003
33
0.000000
0
3DFACE
8
0
10
334.601990
20
244.223999
30
-4.000000
11
333.125000
21
244.783997
31
-4.000000
12
334.601990
22
244.223999
32
0.000000
13
334.601990
23
244.223999
33
0.000000
0
3DFACE
8
0
10
332.078003
20
245.966003
30
0.000000
11
332.078003
21
245.966003
31
-4.000000
12
331.700012
22
247.500000
32
0.000000
13
331.700012
23
247.500000
33
0.000000
0
3DFACE
8
0
10
333.125000
20
244.783997
30
-4.000000
11
332.078003
21
245.966003
31
-4.000000
12
332.078003
22
245.966003
32
0.000000
13
332.078003
23
245.966003
33
0.000000
0
3DFACE
8
0
10
332.078003
20
245.966003
30
-4.000000
11
331.700012
21
247.500000
31
-4.000000
12
331.700012
22
247.500000
32
0.000000
13
331.700012
23
247.500000
33
0.000000
0
3DFACE
8
0
10
-338.299988
20
247.500000
30
0.000000
11
-338.299988
21
247.500000
31
-4.000000
12
-337.921997
22
249.033997
32
0.000000
13
-337.921997
23
249.033997
33
0.000000
0
3DFACE
8
0
10
-337.921997
20
249.033997
30
0.000000
11
-337.921997
21
249.033997
31
-4.000000
12
-336.875000
22
250.216003
32
0.000000
13
-336.875000
23
250.216003
33
0.000000
0
3DFACE
8
0
10
-338.299988
20
247.500000
30
-4.000000
11
-337.921997
21
249.033997
31
-4.000000
12
-337.921997
22
249.033997
32
0.000000
13
-337.921997
23
249.033997
33
0.000000
0
3DFACE
8
0
10
-336.875000
20
250.216003
30
0.000000
11
-336.875000
21
250.216003
31
-4.000000
12
-335.398010
22
250.776001
32
0.000000
13
-335.398010
23
250.776001
33
0.000000
0
3DFACE
8
0
10
-337.921997
20
249.033997
30
-4.000000
11
-336.875000
21
250.216003
31
-4.000000
12
-336.875000
22
250.216003
32
0.000000
13
-336.875000
23
250.216003
33
0.000000
0
3DFACE
8
0
10
-335.398010
20
250.776001
30
0.000000
11
-335.398010
21
250.776001
31
-4.000000
12
-333.829987
22
250.585999
32
0.000000
13
-333.829987
23
250.585999
33
0.000000
0
3DFACE
8
0
10
-336.875000
20
250.216003
30
-4.000000
11
-335.398010
21
250.776001
31
-4.000000
12
-335.398010
22
250.776001
32
0.000000
13
-335.398010
23
250.776001
33
0.000000
0
3DFACE
8
0
10
-333.829987
20
250.585999
30
0.000000
11
-333.829987
21
250.585999
31
-4.000000
12
-332.529999
22
249.688004
32
0.000000
13
-332.529999
23
249.688004
33
0.000000
0
3DFACE
8
0
10
-335.398010
20
250.776001
30
-4.000000
11
-333.829987
21
250.585999
31
-4.000000
12
-333.829987
22
250.585999
32
0.000000
13
-333.829987
23
250.585999
33
0.000000
0
3DFACE
8
0
10
-332.529999
20
249.688004
30
0.000000
11
-332.529999
21
249.688004
31
-4.000000
12
-331.795990
22
248.289993
32
0.000000
13
-331.795990
23
248.289993
33
0.000000
0
3DFACE
8
0
10
-333.829987
20
250.585999
30
-4.000000
11
-332.529999
21
249.688004
31
-4.000000
12
-332.529999
22
249.688004
32
0.000000
13
-332.529999
23
249.688004
33
0.000000
0
3DFACE
8
0
10
-331.795990
20
248.289993
30
0.000000
11
-331.795990
21
248.289993
31
-4.000000
12
-331.795990
22
246.710007
32
0.000000
13
-331.795990
23
246.710007
33
0.000000
0
3DFACE
8
0
10
-332.529999
20
249.688004
30
-4.000000
11
-331.795990
21
248.289993
31
-4.000000
12
-331.795990
22
248.289993
32
0.000000
13
-331.795990
23
248.289993
33
0.000000
0
3DFACE
8
0
10
-331.795990
20
246.710007
30
0.000000
11
-331.795990
21
246.710007
31
-4.000000
12
-332.529999
22
245.311996
32
0.000000
13
-332.529999
23
245.311996
33
0.000000
0
3DFACE
8
0
10
-331.795990
20
248.289993
30
-4.000000
11
-331.795990
21
246.710007
31
-4.000000
12
-331.795990
22
246.710007
32
0.000000
13
-331.795990
23
246.710007
33
0.000000
0
3DFACE
8
0
10
-332.529999
20
245.311996
30
0.000000
11
-332.529999
21
245.311996
31
-4.000000
12
-333.829987
22
244.414001
32
0.000000
13
-333.829987
23
244.414001
33
0.000000
0
3DFACE
8
0
10
-331.795990
20
246.710007
30
-4.000000
11
-332.529999
21
245.311996
31
-4.000000
12
-332.529999
22
245.311996
32
0.000000
13
-332.529999
23
245.311996
33
0.000000
0
3DFACE
8
0
10
-333.829987
20
244.414001
30
0.000000
11
-333.829987
21
244.414001
31
-4.000000
12
-335.398010
22
244.223999
32
0.000000
13
-335.398010
23
244.223999
33
0.000000
0
3DFACE
8
0
10
-332.529999
20
245.311996
30
-4.000000
11
-333.829987
21
244.414001
31
-4.000000
12
-333.829987
22
244.414001
32
0.000000
13
-333.829987
23
244.414001
33
0.000000
0
3DFACE
8
0
10
-333.829987
20
244.414001
30
-4.000000
11
-335.398010
21
244.223999
31
-4.000000
12
-335.398010
22
244.223999
32
0.000000
13
-335.398010
23
244.223999
33
0.000000
0
3DFACE
8
0
10
-335.398010
20
244.223999
30
0.000000
11
-336.875000
21
244.783997
31
-4.000000
12
-336.875000
22
244.783997
32
0.000000
13
-336.875000
23
244.783997
33
0.000000
0
3DFACE
8
0
10
-336.875000
20
244.783997
30
0.000000
11
-336.875000
21
244.783997
31
-4.000000
12
-337.921997
22
245.966003
32
0.000000
13
-337.921997
23
245.966003
33
0.000000
0
3DFACE
8
0
10
-335.398010
20
244.223999
30
-4.000000
11
-336.875000
21
244.783997
31
-4.000000
12
-335.398010
22
244.223999
32
0.000000
13
-335.398010
23
244.223999
33
0.000000
0
3DFACE
8
0
10
-337.921997
20
245.966003
30
0.000000
11
-337.921997
21
245.966003
31
-4.000000
12
-338.299988
22
247.500000
32
0.000000
13
-338.299988
23
247.500000
33
0.000000
0
3DFACE
8
0
10
-336.875000
20
244.783997
30
-4.000000
11
-337.921997
21
245.966003
31
-4.000000
12
-337.921997
22
245.966003
32
0.000000
13
-337.921997
23
245.966003
33
0.000000
0
3DFACE
8
0
10
-337.921997
20
245.966003
30
-4.000000
11
-338.299988
21
247.500000
31
-4.000000
12
-338.299988
22
247.500000
32
0.000000
13
-338.299988
23
247.500000
33
0.000000
0
3DFACE
8
0
10
-338.299988
20
-247.500000
30
0.000000
11
-338.299988
21
-247.500000
31
-4.000000
12
-337.921997
22
-245.966003
32
0.000000
13
-337.921997
23
-245.966003
33
0.000000
0
3DFACE
8
0
10
-337.921997
20
-245.966003
30
0.000000
11
-337.921997
21
-245.966003
31
-4.000000
12
-336.875000
22
-244.783997
32
0.000000
13
-336.875000
23
-244.783997
33
0.000000
0
3DFACE
8
0
10
-338.299988
20
-247.500000
30
-4.000000
11
-337.921997
21
-245.966003
31
-4.000000
12
-337.921997
22
-245.966003
32
0.000000
13
-337.921997
23
-245.966003
33
0.000000
0
3DFACE
8
0
10
-336.875000
20
-244.783997
30
0.000000
11
-336.875000
21
-244.783997
31
-4.000000
12
-335.398010
22
-244.223999
32
0.000000
13
-335.398010
23
-244.223999
33
0.000000
0
3DFACE
8
0
10
-337.921997
20
-245.966003
30
-4.000000
11
-336.875000
21
-244.783997
31
-4.000000
12
-336.875000
22
-244.783997
32
0.000000
13
-336.875000
23
-244.783997
33
0.000000
0
3DFACE
8
0
10
-335.398010
20
-244.223999
30
0.000000
11
-335.398010
21
-244.223999
31
-4.000000
12
-333.829987
22
-244.414001
32
0.000000
13
-333.829987
23
-244.414001
33
0.000000
0
3DFACE
8
0
10
-336.875000
20
-244.783997
30
-4.000000
11
-335.398010
21
-244.223999
31
-4.000000
12
-335.398010
22
-244.223999
32
0.000000
13
-335.398010
23
-244.223999
33
0.000000
0
3DFACE
8
0
10
-333.829987
20
-244.414001
30
0.000000
11
-333.829987
21
-244.414001
31
-4.000000
12
-332.529999
22
-245.311996
32
0.000000
13
-332.529999
23
-245.311996
33
0.000000
0
3DFACE
8
0
10
-335.398010
20
-244.223999
30
-4.000000
11
-333.829987
21
-244.414001
31
-4.000000
12
-333.829987
22
-244.414001
32
0.000000
13
-333.829987
23
-244.414001
33
0.000000
0
3DFACE
8
0
10
-332.529999
20
-245.311996
30
0.000000
11
-332.529999
21
-245.311996
31
-4.000000
12
-331.795990
22
-246.710007
32
0.000000
13
-331.795990
23
-246.710007
33
0.000000
0
3DFACE
8
0
10
-333.829987
20
-244.414001
30
-4.000000
11
-332.529999
21
-245.311996
31
-4.000000
12
-332.529999
22
-245.311996
32
0.000000
13
-332.529999
23
-245.311996
33
0.000000
0
3DFACE
8
0
10
-331.795990
20
-246.710007
30
0.000000
11
-331.795990
21
-246.710007
31
-4.000000
12
-331.795990
22
-248.289993
32
0.000000
13
-331.795990
23
-248.289993
33
0.000000
0
3DFACE
8
0
10
-332.529999
20
-245.311996
30
-4.000000
11
-331.795990
21
-246.710007
31
-4.000000
12
-331.795990
22
-246.710007
32
0.000000
13
-331.795990
23
-246.710007
33
0.000000
0
3DFACE
8
0
10
-331.795990
20
-248.289993
30
0.000000
11
-331.795990
21
-248.289993
31
-4.000000
12
-332.529999
22
-249.688004
32
0.000000
13
-332.529999
23
-249.688004
33
0.000000
0
3DFACE
8
0
10
-331.795990
20
-246.710007
30
-4.000000
11
-331.795990
21
-248.289993
31
-4.000000
12
-331.795990
22
-248.289993
32
0.000000
13
-331.795990
23
-248.289993
33
0.000000
0
3DFACE
8
0
10
-332.529999
20
-249.688004
30
0.000000
11
-332.529999
21
-249.688004
31
-4.000000
12
-333.829987
22
-250.585999
32
0.000000
13
-333.829987
23
-250.585999
33
0.000000
0
3DFACE
8
0
10
-331.795990
20
-248.289993
30
-4.000000
11
-332.529999
21
-249.688004
31
-4.000000
12
-332.529999
22
-249.688004
32
0.000000
13
-332.529999
23
-249.688004
33
0.000000
0
3DFACE
8
0
10
-333.829987
20
-250.585999
30
0.000000
11
-333.829987
21
-250.585999
31
-4.000000
12
-335.398010
22
-250.776001
32
0.000000
13
-335.398010
23
-250.776001
33
0.000000
0
3DFACE
8
0
10
-332.529999
20
-249.688004
30
-4.000000
11
-333.829987
21
-250.585999
31
-4.000000
12
-333.829987
22
-250.585999
32
0.000000
13
-333.829987
23
-250.585999
33
0.000000
0
3DFACE
8
0
10
-333.829987
20
-250.585999
30
-4.000000
11
-335.398010
21
-250.776001
31
-4.000000
12
-335.398010
22
-250.776001
32
0.000000
13
-335.398010
23
-250.776001
33
0.000000
0
3DFACE
8
0
10
-335.398010
20
-250.776001
30
0.000000
11
-336.875000
21
-250.216003
31
-4.000000
12
-336.875000
22
-250.216003
32
0.000000
13
-336.875000
23
-250.216003
33
0.000000
0
3DFACE
8
0
10
-336.875000
20
-250.216003
30
0.000000
11
-336.875000
21
-250.216003
31
-4.000000
12
-337.921997
22
-249.033997
32
0.000000
13
-337.921997
23
-249.033997
33
0.000000
0
3DFACE
8
0
10
-335.398010
20
-250.776001
30
-4.000000
11
-336.875000
21
-250.216003
31
-4.000000
12
-335.398010
22
-250.776001
32
0.000000
13
-335.398010
23
-250.776001
33
0.000000
0
3DFACE
8
0
10
-337.921997
20
-249.033997
30
0.000000
11
-337.921997
21
-249.033997
31
-4.000000
12
-338.299988
22
-247.500000
32
0.000000
13
-338.299988
23
-247.500000
33
0.000000
0
3DFACE
8
0
10
-336.875000
20
-250.216003
30
-4.000000
11
-337.921997
21
-249.033997
31
-4.000000
12
-337.921997
22
-249.033997
32
0.000000
13
-337.921997
23
-249.033997
33
0.000000
0
3DFACE
8
0
10
-337.921997
20
-249.033997
30
-4.000000
11
-338.299988
21
-247.500000
31
-4.000000
12
-338.299988
22
-247.500000
32
0.000000
13
-338.299988
23
-247.500000
33
0.000000
0
3DFACE
8
0
10
-3.300000
20
-352.500000
30
0.000000
11
-3.300000
21
-352.500000
31
-4.000000
12
-2.922000
22
-350.966003
32
0.000000
13
-2.922000
23
-350.966003
33
0.000000
0
3DFACE
8
0
10
-2.922000
20
-350.966003
30
0.000000
11
-2.922000
21
-350.966003
31
-4.000000
12
-1.874600
22
-349.783997
32
0.000000
13
-1.874600
23
-349.783997
33
0.000000
0
3DFACE
8
0
10
-3.300000
20
-352.500000
30
-4.000000
11
-2.922000
21
-350.966003
31
-4.000000
12
-2.922000
22
-350.966003
32
0.000000
13
-2.922000
23
-350.966003
33
0.000000
0
3DFACE
8
0
10
-1.874600
20
-349.783997
30
0.000000
11
-1.874600
21
-349.783997
31
-4.000000
12
-0.397800
22
-349.223999
32
0.000000
13
-0.397800
23
-349.223999
33
0.000000
0
3DFACE
8
0
10
-2.922000
20
-350.966003
30
-4.000000
11
-1.874600
21
-349.783997
31
-4.000000
12
-1.874600
22
-349.783997
32
0.000000
13
-1.874600
23
-349.783997
33
0.000000
0
3DFACE
8
0
10
-0.397800
20
-349.223999
30
0.000000
11
-0.397800
21
-349.223999
31
-4.000000
12
1.170200
22
-349.414001
32
0.000000
13
1.170200
23
-349.414001
33
0.000000
0
3DFACE
8
0
10
-1.874600
20
-349.783997
30
-4.000000
11
-0.397800
21
-349.223999
31
-4.000000
12
-0.397800
22
-349.223999
32
0.000000
13
-0.397800
23
-349.223999
33
0.000000
0
3DFACE
8
0
10
1.170200
20
-349.414001
30
0.000000
11
1.170200
21
-349.414001
31
-4.000000
12
2.470100
22
-350.312012
32
0.000000
13
2.470100
23
-350.312012
33
0.000000
0
3DFACE
8
0
10
-0.397800
20
-349.223999
30
-4.000000
11
1.170200
21
-349.414001
31
-4.000000
12
1.170200
22
-349.414001
32
0.000000
13
1.170200
23
-349.414001
33
0.000000
0
3DFACE
8
0
10
2.470100
20
-350.312012
30
0.000000
11
2.470100
21
-350.312012
31
-4.000000
12
3.204100
22
-351.709991
32
0.000000
13
3.204100
23
-351.709991
33
0.000000
0
3DFACE
8
0
10
1.170200
20
-349.414001
30
-4.000000
11
2.470100
21
-350.312012
31
-4.000000
12
2.470100
22
-350.312012
32
0.000000
13
2.470100
23
-350.312012
33
0.000000
0
3DFACE
8
0
10
3.204100
20
-351.709991
30
0.000000
11
3.204100
21
-351.709991
31
-4.000000
12
3.204100
22
-353.290009
32
0.000000
13
3.204100
23
-353.290009
33
0.000000
0
3DFACE
8
0
10
2.470100
20
-350.312012
30
-4.000000
11
3.204100
21
-351.709991
31
-4.000000
12
3.204100
22
-351.709991
32
0.000000
13
3.204100
23
-351.709991
33
0.000000
0
3DFACE
8
0
10
3.204100
20
-353.290009
30
0.000000
11
3.204100
21
-353.290009
31
-4.000000
12
2.470100
22
-354.687988
32
0.000000
13
2.470100
23
-354.687988
33
0.000000
0
3DFACE
8
0
10
3.204100
20
-351.709991
30
-4.000000
11
3.204100
21
-353.290009
31
-4.000000
12
3.204100
22
-353.290009
32
0.000000
13
3.204100
23
-353.290009
33
0.000000
0
3DFACE
8
0
10
2.470100
20
-354.687988
30
0.000000
11
2.470100
21
-354.687988
31
-4.000000
12
1.170200
22
-355.585999
32
0.000000
13
1.170200
23
-355.585999
33
0.000000
0
3DFACE
8
0
10
3.204100
20
-353.290009
30
-4.000000
11
2.470100
21
-354.687988
31
-4.000000
12
2.470100
22
-354.687988
32
0.000000
13
2.470100
23
-354.687988
33
0.000000
0
3DFACE
8
0
10
1.170200
20
-355.585999
30
0.000000
11
1.170200
21
-355.585999
31
-4.000000
12
-0.397800
22
-355.776001
32
0.000000
13
-0.397800
23
-355.776001
33
0.000000
0
3DFACE
8
0
10
2.470100
20
-354.687988
30
-4.000000
11
1.170200
21
-355.585999
31
-4.000000
12
1.170200
22
-355.585999
32
0.000000
13
1.170200
23
-355.585999
33
0.000000
0
3DFACE
8
0
10
1.170200
20
-355.585999
30
-4.000000
11
-0.397800
21
-355.776001
31
-4.000000
12
-0.397800
22
-355.776001
32
0.000000
13
-0.397800
23
-355.776001
33
0.000000
0
3DFACE
8
0
10
-0.397800
20
-355.776001
30
0.000000
11
-1.874600
21
-355.216003
31
-4.000000
12
-1.874600
22
-355.216003
32
0.000000
13
-1.874600
23
-355.216003
33
0.000000
0
3DFACE
8
0
10
-1.874600
20
-355.216003
30
0.000000
11
-1.874600
21
-355.216003
31
-4.000000
12
-2.922000
22
-354.033997
32
0.000000
13
-2.922000
23
-354.033997
33
0.000000
0
3DFACE
8
0
10
-0.397800
20
-355.776001
30
-4.000000
11
-1.874600
21
-355.216003
31
-4.000000
12
-0.397800
22
-355.776001
32
0.000000
13
-0.397800
23
-355.776001
33
0.000000
0
3DFACE
8
0
10
-2.922000
20
-354.033997
30
0.000000
11
-2.922000
21
-354.033997
31
-4.000000
12
-3.300000
22
-352.500000
32
0.000000
13
-3.300000
23
-352.500000
33
0.000000
0
3DFACE
8
0
10
-1.874600
20
-355.216003
30
-4.000000
11
-2.922000
21
-354.033997
31
-4.000000
12
-2.922000
22
-354.033997
32
0.000000
13
-2.922000
23
-354.033997
33
0.000000
0
3DFACE
8
0
10
-2.922000
20
-354.033997
30
-4.000000
11
-3.300000
21
-352.500000
31
-4.000000
12
-3.300000
22
-352.500000
32
0.000000
13
-3.300000
23
-352.500000
33
0.000000
0
3DFACE
8
0
10
331.700012
20
-247.500000
30
0.000000
11
331.700012
21
-247.500000
31
-4.000000
12
332.078003
22
-245.966003
32
0.000000
13
332.078003
23
-245.966003
33
0.000000
0
3DFACE
8
0
10
332.078003
20
-245.966003
30
0.000000
11
332.078003
21
-245.966003
31
-4.000000
12
333.125000
22
-244.783997
32
0.000000
13
333.125000
23
-244.783997
33
0.000000
0
3DFACE
8
0
10
331.700012
20
-247.500000
30
-4.000000
11
332.078003
21
-245.966003
31
-4.000000
12
332.078003
22
-245.966003
32
0.000000
13
332.078003
23
-245.966003
33
0.000000
0
3DFACE
8
0
10
333.125000
20
-244.783997
30
0.000000
11
333.125000
21
-244.783997
31
-4.000000
12
334.601990
22
-244.223999
32
0.000000
13
334.601990
23
-244.223999
33
0.000000
0
3DFACE
8
0
10
332.078003
20
-245.966003
30
-4.000000
11
333.125000
21
-244.783997
31
-4.000000
12
333.125000
22
-244.783997
32
0.000000
13
333.125000
23
-244.783997
33
0.000000
0
3DFACE
8
0
10
334.601990
20
-244.223999
30
0.000000
11
334.601990
21
-244.223999
31
-4.000000
12
336.170013
22
-244.414001
32
0.000000
13
336.170013
23
-244.414001
33
0.000000
0
3DFACE
8
0
10
333.125000
20
-244.783997
30
-4.000000
11
334.601990
21
-244.223999
31
-4.000000
12
334.601990
22
-244.223999
32
0.000000
13
334.601990
23
-244.223999
33
0.000000
0
3DFACE
8
0
10
336.170013
20
-244.414001
30
0.000000
11
336.170013
21
-244.414001
31
-4.000000
12
337.470001
22
-245.311996
32
0.000000
13
337.470001
23
-245.311996
33
0.000000
0
3DFACE
8
0
10
334.601990
20
-244.223999
30
-4.000000
11
336.170013
21
-244.414001
31
-4.000000
12
336.170013
22
-244.414001
32
0.000000
13
336.170013
23
-244.414001
33
0.000000
0
3DFACE
8
0
10
337.470001
20
-245.311996
30
0.000000
11
337.470001
21
-245.311996
31
-4.000000
12
338.204010
22
-246.710007
32
0.000000
13
338.204010
23
-246.710007
33
0.000000
0
3DFACE
8
0
10
336.170013
20
-244.414001
30
-4.000000
11
337.470001
21
-245.311996
31
-4.000000
12
337.470001
22
-245.311996
32
0.000000
13
337.470001
23
-245.311996
33
0.000000
0
3DFACE
8
0
10
338.204010
20
-246.710007
30
0.000000
11
338.204010
21
-246.710007
31
-4.000000
12
338.204010
22
-248.289993
32
0.000000
13
338.204010
23
-248.289993
33
0.000000
0
3DFACE
8
0
10
337.470001
20
-245.311996
30
-4.000000
11
338.204010
21
-246.710007
31
-4.000000
12
338.204010
22
-246.710007
32
0.000000
13
338.204010
23
-246.710007
33
0.000000
0
3DFACE
8
0
10
338.204010
20
-248.289993
30
0.000000
11
338.204010
21
-248.289993
31
-4.000000
12
337.470001
22
-249.688004
32
0.000000
13
337.470001
23
-249.688004
33
0.000000
0
3DFACE
8
0
10
338.204010
20
-246.710007
30
-4.000000
11
338.204010
21
-248.289993
31
-4.000000
12
338.204010
22
-248.289993
32
0.000000
13
338.204010
23
-248.289993
33
0.000000
0
3DFACE
8
0
10
337.470001
20
-249.688004
30
0.000000
11
337.470001
21
-249.688004
31
-4.000000
12
336.170013
22
-250.585999
32
0.000000
13
336.170013
23
-250.585999
33
0.000000
0
3DFACE
8
0
10
338.204010
20
-248.289993
30
-4.000000
11
337.470001
21
-249.688004
31
-4.000000
12
337.470001
22
-249.688004
32
0.000000
13
337.470001
23
-249.688004
33
0.000000
0
3DFACE
8
0
10
336.170013
20
-250.585999
30
0.000000
11
336.170013
21
-250.585999
31
-4.000000
12
334.601990
22
-250.776001
32
0.000000
13
334.601990
23
-250.776001
33
0.000000
0
3DFACE
8
0
10
337.470001
20
-249.688004
30
-4.000000
11
336.170013
21
-250.585999
31
-4.000000
12
336.170013
22
-250.585999
32
0.000000
13
336.170013
23
-250.585999
33
0.000000
0
3DFACE
8
0
10
336.170013
20
-250.585999
30
-4.000000
11
334.601990
21
-250.776001
31
-4.000000
12
334.601990
22
-250.776001
32
0.000000
13
334.601990
23
-250.776001
33
0.000000
0
3DFACE
8
0
10
334.601990
20
-250.776001
30
0.000000
11
333.125000
21
-250.216003
31
-4.000000
12
333.125000
22
-250.216003
32
0.000000
13
333.125000
23
-250.216003
33
0.000000
0
3DFACE
8
0
10
333.125000
20
-250.216003
30
0.000000
11
333.125000
21
-250.216003
31
-4.000000
12
332.078003
22
-249.033997
32
0.000000
13
332.078003
23
-249.033997
33
0.000000
0
3DFACE
8
0
10
334.601990
20
-250.776001
30
-4.000000
11
333.125000
21
-250.216003
31
-4.000000
12
334.601990
22
-250.776001
32
0.000000
13
334.601990
23
-250.776001
33
0.000000
0
3DFACE
8
0
10
332.078003
20
-249.033997
30
0.000000
11
332.078003
21
-249.033997
31
-4.000000
12
331.700012
22
-247.500000
32
0.000000
13
331.700012
23
-247.500000
33
0.000000
0
3DFACE
8
0
10
333.125000
20
-250.216003
30
-4.000000
11
332.078003
21
-249.033997
31
-4.000000
12
332.078003
22
-249.033997
32
0.000000
13
332.078003
23
-249.033997
33
0.000000
0
3DFACE
8
0
10
332.078003
20
-249.033997
30
-4.000000
11
331.700012
21
-247.500000
31
-4.000000
12
331.700012
22
-247.500000
32
0.000000
13
331.700012
23
-247.500000
33
0.000000
0
3DFACE
8
0
10
331.700012
20
0.000000
30
0.000000
11
331.700012
21
0.000000
31
-4.000000
12
332.078003
22
1.533600
32
0.000000
13
332.078003
23
1.533600
33
0.000000
0
3DFACE
8
0
10
332.078003
20
1.533600
30
0.000000
11
332.078003
21
1.533600
31
-4.000000
12
333.125000
22
2.715800
32
0.000000
13
333.125000
23
2.715800
33
0.000000
0
3DFACE
8
0
10
331.700012
20
0.000000
30
-4.000000
11
332.078003
21
1.533600
31
-4.000000
12
332.078003
22
1.533600
32
0.000000
13
332.078003
23
1.533600
33
0.000000
0
3DFACE
8
0
10
333.125000
20
2.715800
30
0.000000
11
333.125000
21
2.715800
31
-4.000000
12
334.601990
22
3.275900
32
0.000000
13
334.601990
23
3.275900
33
0.000000
0
3DFACE
8
0
10
332.078003
20
1.533600
30
-4.000000
11
333.125000
21
2.715800
31
-4.000000
12
333.125000
22
2.715800
32
0.000000
13
333.125000
23
2.715800
33
0.000000
0
3DFACE
8
0
10
334.601990
20
3.275900
30
0.000000
11
334.601990
21
3.275900
31
-4.000000
12
336.170013
22
3.085600
32
0.000000
13
336.170013
23
3.085600
33
0.000000
0
3DFACE
8
0
10
333.125000
20
2.715800
30
-4.000000
11
334.601990
21
3.275900
31
-4.000000
12
334.601990
22
3.275900
32
0.000000
13
334.601990
23
3.275900
33
0.000000
0
3DFACE
8
0
10
336.170013
20
3.085600
30
0.000000
11
336.170013
21
3.085600
31
-4.000000
12
337.470001
22
2.188300
32
0.000000
13
337.470001
23
2.188300
33
0.000000
0
3DFACE
8
0
10
334.601990
20
3.275900
30
-4.000000
11
336.170013
21
3.085600
31
-4.000000
12
336.170013
22
3.085600
32
0.000000
13
336.170013
23
3.085600
33
0.000000
0
3DFACE
8
0
10
337.470001
20
2.188300
30
0.000000
11
337.470001
21
2.188300
31
-4.000000
12
338.204010
22
0.789700
32
0.000000
13
338.204010
23
0.789700
33
0.000000
0
3DFACE
8
0
10
336.170013
20
3.085600
30
-4.000000
11
337.470001
21
2.188300
31
-4.000000
12
337.470001
22
2.188300
32
0.000000
13
337.470001
23
2.188300
33
0.000000
0
3DFACE
8
0
10
338.204010
20
0.789700
30
0.000000
11
338.204010
21
0.789700
31
-4.000000
12
338.204010
22
-0.789700
32
0.000000
13
338.204010
23
-0.789700
33
0.000000
0
3DFACE
8
0
10
337.470001
20
2.188300
30
-4.000000
11
338.204010
21
0.789700
31
-4.000000
12
338.204010
22
0.789700
32
0.000000
13
338.204010
23
0.789700
33
0.000000
0
3DFACE
8
0
10
338.204010
20
-0.789700
30
0.000000
11
338.204010
21
-0.789700
31
-4.000000
12
337.470001
22
-2.188300
32
0.000000
13
337.470001
23
-2.188300
33
0.000000
0
3DFACE
8
0
10
338.204010
20
0.789700
30
-4.000000
11
338.204010
21
-0.789700
31
-4.000000
12
338.204010
22
-0.789700
32
0.000000
13
338.204010
23
-0.789700
33
0.000000
0
3DFACE
8
0
10
337.470001
20
-2.188300
30
0.000000
11
337.470001
21
-2.188300
31
-4.000000
12
336.170013
22
-3.085600
32
0.000000
13
336.170013
23
-3.085600
33
0.000000
0
3DFACE
8
0
10
338.204010
20
-0.789700
30
-4.000000
11
337.470001
21
-2.188300
31
-4.000000
12
337.470001
22
-2.188300
32
0.000000
13
337.470001
23
-2.188300
33
0.000000
0
3DFACE
8
0
10
336.170013
20
-3.085600
30
0.000000
11
336.170013
21
-3.085600
31
-4.000000
12
334.601990
22
-3.275900
32
0.000000
13
334.601990
23
-3.275900
33
0.000000
0
3DFACE
8
0
10
337.470001
20
-2.188300
30
-4.000000
11
336.170013
21
-3.085600
31
-4.000000
12
336.170013
22
-3.085600
32
0.000000
13
336.170013
23
-3.085600
33
0.000000
0
3DFACE
8
0
10
336.170013
20
-3.085600
30
-4.000000
11
334.601990
21
-3.275900
31
-4.000000
12
334.601990
22
-3.275900
32
0.000000
13
334.601990
23
-3.275900
33
0.000000
0
3DFACE
8
0
10
334.601990
20
-3.275900
30
0.000000
11
333.125000
21
-2.715800
31
-4.000000
12
333.125000
22
-2.715800
32
0.000000
13
333.125000
23
-2.715800
33
0.000000
0
3DFACE
8
0
10
333.125000
20
-2.715800
30
0.000000
11
333.125000
21
-2.715800
31
-4.000000
12
332.078003
22
-1.533600
32
0.000000
13
332.078003
23
-1.533600
33
0.000000
0
3DFACE
8
0
10
334.601990
20
-3.275900
30
-4.000000
11
333.125000
21
-2.715800
31
-4.000000
12
334.601990
22
-3.275900
32
0.000000
13
334.601990
23
-3.275900
33
0.000000
0
3DFACE
8
0
10
332.078003
20
-1.533600
30
0.000000
11
332.078003
21
-1.533600
31
-4.000000
12
331.700012
22
0.000000
32
0.000000
13
331.700012
23
0.000000
33
0.000000
0
3DFACE
8
0
10
333.125000
20
-2.715800
30
-4.000000
11
332.078003
21
-1.533600
31
-4.000000
12
332.078003
22
-1.533600
32
0.000000
13
332.078003
23
-1.533600
33
0.000000
0
3DFACE
8
0
10
332.078003
20
-1.533600
30
-4.000000
11
331.700012
21
0.000000
31
-4.000000
12
331.700012
22
0.000000
32
0.000000
13
331.700012
23
0.000000
33
0.000000
0
3DFACE
8
0
10
115.074997
20
352.500000
30
0.000000
11
115.074997
21
352.500000
31
-4.000000
12
115.453003
22
354.033997
32
0.000000
13
115.453003
23
354.033997
33
0.000000
0
3DFACE
8
0
10
115.453003
20
354.033997
30
0.000000
11
115.453003
21
354.033997
31
-4.000000
12
116.500000
22
355.216003
32
0.000000
13
116.500000
23
355.216003
33
0.000000
0
3DFACE
8
0
10
115.074997
20
352.500000
30
-4.000000
11
115.453003
21
354.033997
31
-4.000000
12
115.453003
22
354.033997
32
0.000000
13
115.453003
23
354.033997
33
0.000000
0
3DFACE
8
0
10
116.500000
20
355.216003
30
0.000000
11
116.500000
21
355.216003
31
-4.000000
12
117.976997
22
355.776001
32
0.000000
13
117.976997
23
355.776001
33
0.000000
0
3DFACE
8
0
10
115.453003
20
354.033997
30
-4.000000
11
116.500000
21
355.216003
31
-4.000000
12
116.500000
22
355.216003
32
0.000000
13
116.500000
23
355.216003
33
0.000000
0
3DFACE
8
0
10
117.976997
20
355.776001
30
0.000000
11
117.976997
21
355.776001
31
-4.000000
12
119.544998
22
355.585999
32
0.000000
13
119.544998
23
355.585999
33
0.000000
0
3DFACE
8
0
10
116.500000
20
355.216003
30
-4.000000
11
117.976997
21
355.776001
31
-4.000000
12
117.976997
22
355.776001
32
0.000000
13
117.976997
23
355.776001
33
0.000000
0
3DFACE
8
0
10
119.544998
20
355.585999
30
0.000000
11
119.544998
21
355.585999
31
-4.000000
12
120.845001
22
354.687988
32
0.000000
13
120.845001
23
354.687988
33
0.000000
0
3DFACE
8
0
10
117.976997
20
355.776001
30
-4.000000
11
119.544998
21
355.585999
31
-4.000000
12
119.544998
22
355.585999
32
0.000000
13
119.544998
23
355.585999
33
0.000000
0
3DFACE
8
0
10
120.845001
20
354.687988
30
0.000000
11
120.845001
21
354.687988
31
-4.000000
12
121.579002
22
353.290009
32
0.000000
13
121.579002
23
353.290009
33
0.000000
0
3DFACE
8
0
10
119.544998
20
355.585999
30
-4.000000
11
120.845001
21
354.687988
31
-4.000000
12
120.845001
22
354.687988
32
0.000000
13
120.845001
23
354.687988
33
0.000000
0
3DFACE
8
0
10
121.579002
20
353.290009
30
0.000000
11
121.579002
21
353.290009
31
-4.000000
12
121.579002
22
351.709991
32
0.000000
13
121.579002
23
351.709991
33
0.000000
0
3DFACE
8
0
10
120.845001
20
354.687988
30
-4.000000
11
121.579002
21
353.290009
31
-4.000000
12
121.579002
22
353.290009
32
0.000000
13
121.579002
23
353.290009
33
0.000000
0
3DFACE
8
0
10
121.579002
20
351.709991
30
0.000000
11
121.579002
21
351.709991
31
-4.000000
12
120.845001
22
350.312012
32
0.000000
13
120.845001
23
350.312012
33
0.000000
0
3DFACE
8
0
10
121.579002
20
353.290009
30
-4.000000
11
121.579002
21
351.709991
31
-4.000000
12
121.579002
22
351.709991
32
0.000000
13
121.579002
23
351.709991
33
0.000000
0
3DFACE
8
0
10
120.845001
20
350.312012
30
0.000000
11
120.845001
21
350.312012
31
-4.000000
12
119.544998
22
349.414001
32
0.000000
13
119.544998
23
349.414001
33
0.000000
0
3DFACE
8
0
10
121.579002
20
351.709991
30
-4.000000
11
120.845001
21
350.312012
31
-4.000000
12
120.845001
22
350.312012
32
0.000000
13
120.845001
23
350.312012
33
0.000000
0
3DFACE
8
0
10
119.544998
20
349.414001
30
0.000000
11
119.544998
21
349.414001
31
-4.000000
12
117.976997
22
349.223999
32
0.000000
13
117.976997
23
349.223999
33
0.000000
0
3DFACE
8
0
10
120.845001
20
350.312012
30
-4.000000
11
119.544998
21
349.414001
31
-4.000000
12
119.544998
22
349.414001
32
0.000000
13
119.544998
23
349.414001
33
0.000000
0
3DFACE
8
0
10
119.544998
20
349.414001
30
-4.000000
11
117.976997
21
349.223999
31
-4.000000
12
117.976997
22
349.223999
32
0.000000
13
117.976997
23
349.223999
33
0.000000
0
3DFACE
8
0
10
117.976997
20
349.223999
30
0.000000
11
116.500000
21
349.783997
31
-4.000000
12
116.500000
22
349.783997
32
0.000000
13
116.500000
23
349.783997
33
0.000000
0
3DFACE
8
0
10
116.500000
20
349.783997
30
0.000000
11
116.500000
21
349.783997
31
-4.000000
12
115.453003
22
350.966003
32
0.000000
13
115.453003
23
350.966003
33
0.000000
0
3DFACE
8
0
10
117.976997
20
349.223999
30
-4.000000
11
116.500000
21
349.783997
31
-4.000000
12
117.976997
22
349.223999
32
0.000000
13
117.976997
23
349.223999
33
0.000000
0
3DFACE
8
0
10
115.453003
20
350.966003
30
0.000000
11
115.453003
21
350.966003
31
-4.000000
12
115.074997
22
352.500000
32
0.000000
13
115.074997
23
352.500000
33
0.000000
0
3DFACE
8
0
10
116.500000
20
349.783997
30
-4.000000
11
115.453003
21
350.966003
31
-4.000000
12
115.453003
22
350.966003
32
0.000000
13
115.453003
23
350.966003
33
0.000000
0
3DFACE
8
0
10
115.453003
20
350.966003
30
-4.000000
11
115.074997
21
352.500000
31
-4.000000
12
115.074997
22
352.500000
32
0.000000
13
115.074997
23
352.500000
33
0.000000
0
3DFACE
8
0
10
22.750000
20
367.500000
30
-4.000000
11
22.750000
21
341.500000
31
0.000000
12
22.750000
22
367.500000
32
0.000000
13
22.750000
23
367.500000
33
0.000000
0
3DFACE
8
0
10
22.750000
20
367.500000
30
-4.000000
11
22.750000
21
341.500000
31
-4.000000
12
22.750000
22
341.500000
32
0.000000
13
22.750000
23
341.500000
33
0.000000
0
3DFACE
8
0
10
22.750000
20
341.500000
30
-4.000000
11
-22.750000
21
341.500000
31
0.000000
12
22.750000
22
341.500000
32
0.000000
13
22.750000
23
341.500000
33
0.000000
0
3DFACE
8
0
10
22.750000
20
341.500000
30
-4.000000
11
-22.750000
21
341.500000
31
-4.000000
12
-22.750000
22
341.500000
32
0.000000
13
-22.750000
23
341.500000
33
0.000000
0
3DFACE
8
0
10
-22.750000
20
341.500000
30
-4.000000
11
-22.750000
21
367.500000
31
0.000000
12
-22.750000
22
341.500000
32
0.000000
13
-22.750000
23
341.500000
33
0.000000
0
3DFACE
8
0
10
-22.750000
20
341.500000
30
-4.000000
11
-22.750000
21
367.500000
31
-4.000000
12
-22.750000
22
367.500000
32
0.000000
13
-22.750000
23
367.500000
33
0.000000
0
3DFACE
8
0
10
-22.750000
20
367.500000
30
-4.000000
11
-214.000000
21
367.500000
31
0.000000
12
-22.750000
22
367.500000
32
0.000000
13
-22.750000
23
367.500000
33
0.000000
0
3DFACE
8
0
10
-22.750000
20
367.500000
30
-4.000000
11
-214.000000
21
367.500000
31
-4.000000
12
-214.000000
22
367.500000
32
0.000000
13
-214.000000
23
367.500000
33
0.000000
0
3DFACE
8
0
10
-214.000000
20
367.500000
30
-4.000000
11
-214.000000
21
341.500000
31
0.000000
12
-214.000000
22
367.500000
32
0.000000
13
-214.000000
23
367.500000
33
0.000000
0
3DFACE
8
0
10
-214.000000
20
367.500000
30
-4.000000
11
-214.000000
21
341.500000
31
-4.000000
12
-214.000000
22
341.500000
32
0.000000
13
-214.000000
23
341.500000
33
0.000000
0
3DFACE
8
0
10
-214.000000
20
341.500000
30
-4.000000
11
-259.500000
21
341.500000
31
0.000000
12
-214.000000
22
341.500000
32
0.000000
13
-214.000000
23
341.500000
33
0.000000
0
3DFACE
8
0
10
-214.000000
20
341.500000
30
-4.000000
11
-259.500000
21
341.500000
31
-4.000000
12
-259.500000
22
341.500000
32
0.000000
13
-259.500000
23
341.500000
33
0.000000
0
3DFACE
8
0
10
-259.500000
20
341.500000
30
-4.000000
11
-259.500000
21
337.296997
31
0.000000
12
-259.500000
22
341.500000
32
0.000000
13
-259.500000
23
341.500000
33
0.000000
0
3DFACE
8
0
10
-259.500000
20
341.500000
30
-4.000000
11
-259.500000
21
337.296997
31
-4.000000
12
-259.500000
22
337.296997
32
0.000000
13
-259.500000
23
337.296997
33
0.000000
0
3DFACE
8
0
10
-259.500000
20
337.296997
30
-4.000000
11
-319.796997
21
277.000000
31
0.000000
12
-259.500000
22
337.296997
32
0.000000
13
-259.500000
23
337.296997
33
0.000000
0
3DFACE
8
0
10
-259.500000
20
337.296997
30
-4.000000
11
-319.796997
21
277.000000
31
-4.000000
12
-319.796997
22
277.000000
32
0.000000
13
-319.796997
23
277.000000
33
0.000000
0
3DFACE
8
0
10
-319.796997
20
277.000000
30
-4.000000
11
-350.000000
21
277.000000
31
0.000000
12
-319.796997
22
277.000000
32
0.000000
13
-319.796997
23
277.000000
33
0.000000
0
3DFACE
8
0
10
-319.796997
20
277.000000
30
-4.000000
11
-350.000000
21
277.000000
31
-4.000000
12
-350.000000
22
277.000000
32
0.000000
13
-350.000000
23
277.000000
33
0.000000
0
3DFACE
8
0
10
-350.000000
20
277.000000
30
-4.000000
11
-350.000000
21
-277.000000
31
0.000000
12
-350.000000
22
277.000000
32
0.000000
13
-350.000000
23
277.000000
33
0.000000
0
3DFACE
8
0
10
-350.000000
20
277.000000
30
-4.000000
11
-350.000000
21
-277.000000
31
-4.000000
12
-350.000000
22
-277.000000
32
0.000000
13
-350.000000
23
-277.000000
33
0.000000
0
3DFACE
8
0
10
-350.000000
20
-277.000000
30
-4.000000
11
-319.796997
21
-277.000000
31
0.000000
12
-350.000000
22
-277.000000
32
0.000000
13
-350.000000
23
-277.000000
33
0.000000
0
3DFACE
8
0
10
-350.000000
20
-277.000000
30
-4.000000
11
-319.796997
21
-277.000000
31
-4.000000
12
-319.796997
22
-277.000000
32
0.000000
13
-319.796997
23
-277.000000
33
0.000000
0
3DFACE
8
0
10
-319.796997
20
-277.000000
30
-4.000000
11
-259.500000
21
-337.296997
31
0.000000
12
-319.796997
22
-277.000000
32
0.000000
13
-319.796997
23
-277.000000
33
0.000000
0
3DFACE
8
0
10
-319.796997
20
-277.000000
30
-4.000000
11
-259.500000
21
-337.296997
31
-4.000000
12
-259.500000
22
-337.296997
32
0.000000
13
-259.500000
23
-337.296997
33
0.000000
0
3DFACE
8
0
10
-259.500000
20
-337.296997
30
-4.000000
11
-259.500000
21
-367.500000
31
0.000000
12
-259.500000
22
-337.296997
32
0.000000
13
-259.500000
23
-337.296997
33
0.000000
0
3DFACE
8
0
10
-259.500000
20
-337.296997
30
-4.000000
11
-259.500000
21
-367.500000
31
-4.000000
12
-259.500000
22
-367.500000
32
0.000000
13
-259.500000
23
-367.500000
33
0.000000
0
3DFACE
8
0
10
-259.500000
20
-367.500000
30
-4.000000
11
259.500000
21
-367.500000
31
0.000000
12
-259.500000
22
-367.500000
32
0.000000
13
-259.500000
23
-367.500000
33
0.000000
0
3DFACE
8
0
10
-259.500000
20
-367.500000
30
-4.000000
11
259.500000
21
-367.500000
31
-4.000000
12
259.500000
22
-367.500000
32
0.000000
13
259.500000
23
-367.500000
33
0.000000
0
3DFACE
8
0
10
259.500000
20
-367.500000
30
-4.000000
11
259.500000
21
-337.296997
31
0.000000
12
259.500000
22
-367.500000
32
0.000000
13
259.500000
23
-367.500000
33
0.000000
0
3DFACE
8
0
10
259.500000
20
-367.500000
30
-4.000000
11
259.500000
21
-337.296997
31
-4.000000
12
259.500000
22
-337.296997
32
0.000000
13
259.500000
23
-337.296997
33
0.000000
0
3DFACE
8
0
10
259.500000
20
-337.296997
30
-4.000000
11
319.796997
21
-277.000000
31
0.000000
12
259.500000
22
-337.296997
32
0.000000
13
259.500000
23
-337.296997
33
0.000000
0
3DFACE
8
0
10
259.500000
20
-337.296997
30
-4.000000
11
319.796997
21
-277.000000
31
-4.000000
12
319.796997
22
-277.000000
32
0.000000
13
319.796997
23
-277.000000
33
0.000000
0
3DFACE
8
0
10
319.796997
20
-277.000000
30
-4.000000
11
350.000000
21
-277.000000
31
0.000000
12
319.796997
22
-277.000000
32
0.000000
13
319.796997
23
-277.000000
33
0.000000
0
3DFACE
8
0
10
319.796997
20
-277.000000
30
-4.000000
11
350.000000
21
-277.000000
31
-4.000000
12
350.000000
22
-277.000000
32
0.000000
13
350.000000
23
-277.000000
33
0.000000
0
3DFACE
8
0
10
350.000000
20
-277.000000
30
0.000000
11
350.000000
21
277.000000
31
-4.000000
12
350.000000
22
277.000000
32
0.000000
13
350.000000
23
277.000000
33
0.000000
0
3DFACE
8
0
10
350.000000
20
-277.000000
30
-4.000000
11
350.000000
21
277.000000
31
-4.000000
12
350.000000
22
-277.000000
32
0.000000
13
350.000000
23
-277.000000
33
0.000000
0
3DFACE
8
0
10
350.000000
20
277.000000
30
-4.000000
11
319.796997
21
277.000000
31
0.000000
12
350.000000
22
277.000000
32
0.000000
13
350.000000
23
277.000000
33
0.000000
0
3DFACE
8
0
10
350.000000
20
277.000000
30
-4.000000
11
319.796997
21
277.000000
31
-4.000000
12
319.796997
22
277.000000
32
0.000000
13
319.796997
23
277.000000
33
0.000000
0
3DFACE
8
0
10
319.796997
20
277.000000
30
-4.000000
11
259.500000
21
337.296997
31
0.000000
12
319.796997
22
277.000000
32
0.000000
13
319.796997
23
277.000000
33
0.000000
0
3DFACE
8
0
10
319.796997
20
277.000000
30
-4.000000
11
259.500000
21
337.296997
31
-4.000000
12
259.500000
22
337.296997
32
0.000000
13
259.500000
23
337.296997
33
0.000000
0
3DFACE
8
0
10
259.500000
20
337.296997
30
-4.000000
11
259.500000
21
341.500000
31
0.000000
12
259.500000
22
337.296997
32
0.000000
13
259.500000
23
337.296997
33
0.000000
0
3DFACE
8
0
10
259.500000
20
337.296997
30
-4.000000
11
259.500000
21
341.500000
31
-4.000000
12
259.500000
22
341.500000
32
0.000000
13
259.500000
23
341.500000
33
0.000000
0
3DFACE
8
0
10
259.500000
20
341.500000
30
-4.000000
11
214.000000
21
341.500000
31
0.000000
12
259.500000
22
341.500000
32
0.000000
13
259.500000
23
341.500000
33
0.000000
0
3DFACE
8
0
10
259.500000
20
341.500000
30
-4.000000
11
214.000000
21
341.500000
31
-4.000000
12
214.000000
22
341.500000
32
0.000000
13
214.000000
23
341.500000
33
0.000000
0
3DFACE
8
0
10
214.000000
20
341.500000
30
-4.000000
11
214.000000
21
367.500000
31
0.000000
12
214.000000
22
341.500000
32
0.000000
13
214.000000
23
341.500000
33
0.000000
0
3DFACE
8
0
10
214.000000
20
341.500000
30
-4.000000
11
214.000000
21
367.500000
31
-4.000000
12
214.000000
22
367.500000
32
0.000000
13
214.000000
23
367.500000
33
0.000000
0
3DFACE
8
0
10
214.000000
20
367.500000
30
-4.000000
11
22.750000
21
367.500000
31
0.000000
12
214.000000
22
367.500000
32
0.000000
13
214.000000
23
367.500000
33
0.000000
0
3DFACE
8
0
10
214.000000
20
367.500000
30
-4.000000
11
22.750000
21
367.500000
31
-4.000000
12
22.750000
22
367.500000
32
0.000000
13
22.750000
23
367.500000
33
0.000000
0
3DFACE
8
0
10
-337.921997
20
-249.033997
30
0.000000
11
-350.000000
21
-277.000000
31
0.000000
12
-336.875000
22
-250.216003
32
0.000000
13
-336.875000
23
-250.216003
33
0.000000
0
3DFACE
8
0
10
-232.921997
20
-354.033997
30
0.000000
11
-259.500000
21
-367.500000
31
0.000000
12
-231.875000
22
-355.216003
32
0.000000
13
-231.875000
23
-355.216003
33
0.000000
0
3DFACE
8
0
10
-335.398010
20
-250.776001
30
0.000000
11
-350.000000
21
-277.000000
31
0.000000
12
-319.796997
22
-277.000000
32
0.000000
13
-319.796997
23
-277.000000
33
0.000000
0
3DFACE
8
0
10
-335.398010
20
-250.776001
30
0.000000
11
-336.875000
21
-250.216003
31
0.000000
12
-350.000000
22
-277.000000
32
0.000000
13
-350.000000
23
-277.000000
33
0.000000
0
3DFACE
8
0
10
-230.397995
20
-355.776001
30
0.000000
11
-231.875000
21
-355.216003
31
0.000000
12
-259.500000
22
-367.500000
32
0.000000
13
-259.500000
23
-367.500000
33
0.000000
0
3DFACE
8
0
10
-338.299988
20
-247.500000
30
0.000000
11
-350.000000
21
-277.000000
31
0.000000
12
-337.921997
22
-249.033997
32
0.000000
13
-337.921997
23
-249.033997
33
0.000000
0
3DFACE
8
0
10
-233.300003
20
-352.500000
30
0.000000
11
-259.500000
21
-337.296997
31
0.000000
12
-259.500000
22
-367.500000
32
0.000000
13
-259.500000
23
-367.500000
33
0.000000
0
3DFACE
8
0
10
-233.300003
20
-352.500000
30
0.000000
11
-259.500000
21
-367.500000
31
0.000000
12
-232.921997
22
-354.033997
32
0.000000
13
-232.921997
23
-354.033997
33
0.000000
0
3DFACE
8
0
10
-333.829987
20
-250.585999
30
0.000000
11
-335.398010
21
-250.776001
31
0.000000
12
-319.796997
22
-277.000000
32
0.000000
13
-319.796997
23
-277.000000
33
0.000000
0
3DFACE
8
0
10
-228.830002
20
-355.585999
30
0.000000
11
-230.397995
21
-355.776001
31
0.000000
12
-259.500000
22
-367.500000
32
0.000000
13
-259.500000
23
-367.500000
33
0.000000
0
3DFACE
8
0
10
-337.921997
20
-245.966003
30
0.000000
11
-350.000000
21
-277.000000
31
0.000000
12
-338.299988
22
-247.500000
32
0.000000
13
-338.299988
23
-247.500000
33
0.000000
0
3DFACE
8
0
10
-232.921997
20
-350.966003
30
0.000000
11
-259.500000
21
-337.296997
31
0.000000
12
-233.300003
22
-352.500000
32
0.000000
13
-233.300003
23
-352.500000
33
0.000000
0
3DFACE
8
0
10
-332.529999
20
-249.688004
30
0.000000
11
-333.829987
21
-250.585999
31
0.000000
12
-319.796997
22
-277.000000
32
0.000000
13
-319.796997
23
-277.000000
33
0.000000
0
3DFACE
8
0
10
-231.875000
20
-349.783997
30
0.000000
11
-259.500000
21
-337.296997
31
0.000000
12
-232.921997
22
-350.966003
32
0.000000
13
-232.921997
23
-350.966003
33
0.000000
0
3DFACE
8
0
10
-331.795990
20
-248.289993
30
0.000000
11
-332.529999
21
-249.688004
31
0.000000
12
-319.796997
22
-277.000000
32
0.000000
13
-319.796997
23
-277.000000
33
0.000000
0
3DFACE
8
0
10
-230.397995
20
-349.223999
30
0.000000
11
-259.500000
21
-337.296997
31
0.000000
12
-231.875000
22
-349.783997
32
0.000000
13
-231.875000
23
-349.783997
33
0.000000
0
3DFACE
8
0
10
-331.795990
20
-246.710007
30
0.000000
11
-331.795990
21
-248.289993
31
0.000000
12
-319.796997
22
-277.000000
32
0.000000
13
-319.796997
23
-277.000000
33
0.000000
0
3DFACE
8
0
10
-331.795990
20
-246.710007
30
0.000000
11
-319.796997
21
-277.000000
31
0.000000
12
-259.500000
22
-337.296997
32
0.000000
13
-259.500000
23
-337.296997
33
0.000000
0
3DFACE
8
0
10
-228.830002
20
-349.414001
30
0.000000
11
-331.795990
21
-246.710007
31
0.000000
12
-259.500000
22
-337.296997
32
0.000000
13
-259.500000
23
-337.296997
33
0.000000
0
3DFACE
8
0
10
-228.830002
20
-349.414001
30
0.000000
11
-259.500000
21
-337.296997
31
0.000000
12
-230.397995
22
-349.223999
32
0.000000
13
-230.397995
23
-349.223999
33
0.000000
0
3DFACE
8
0
10
-1.874600
20
-355.216003
30
0.000000
11
-227.529999
21
-354.687988
31
0.000000
12
-228.830002
22
-355.585999
32
0.000000
13
-228.830002
23
-355.585999
33
0.000000
0
3DFACE
8
0
10
-2.922000
20
-354.033997
30
0.000000
11
-227.529999
21
-354.687988
31
0.000000
12
-1.874600
22
-355.216003
32
0.000000
13
-1.874600
23
-355.216003
33
0.000000
0
3DFACE
8
0
10
-2.922000
20
-354.033997
30
0.000000
11
-226.796005
21
-353.290009
31
0.000000
12
-227.529999
22
-354.687988
32
0.000000
13
-227.529999
23
-354.687988
33
0.000000
0
3DFACE
8
0
10
-0.397800
20
-355.776001
30
0.000000
11
-1.874600
21
-355.216003
31
0.000000
12
-228.830002
22
-355.585999
32
0.000000
13
-228.830002
23
-355.585999
33
0.000000
0
3DFACE
8
0
10
-0.397800
20
-355.776001
30
0.000000
11
-228.830002
21
-355.585999
31
0.000000
12
-259.500000
22
-367.500000
32
0.000000
13
-259.500000
23
-367.500000
33
0.000000
0
3DFACE
8
0
10
-3.300000
20
-352.500000
30
0.000000
11
-226.796005
21
-353.290009
31
0.000000
12
-2.922000
22
-354.033997
32
0.000000
13
-2.922000
23
-354.033997
33
0.000000
0
3DFACE
8
0
10
-3.300000
20
-352.500000
30
0.000000
11
-226.796005
21
-351.709991
31
0.000000
12
-226.796005
22
-353.290009
32
0.000000
13
-226.796005
23
-353.290009
33
0.000000
0
3DFACE
8
0
10
-2.922000
20
-350.966003
30
0.000000
11
-226.796005
21
-351.709991
31
0.000000
12
-3.300000
22
-352.500000
32
0.000000
13
-3.300000
23
-352.500000
33
0.000000
0
3DFACE
8
0
10
-2.922000
20
-350.966003
30
0.000000
11
-227.529999
21
-350.312012
31
0.000000
12
-226.796005
22
-351.709991
32
0.000000
13
-226.796005
23
-351.709991
33
0.000000
0
3DFACE
8
0
10
-1.874600
20
-349.783997
30
0.000000
11
-331.795990
21
-246.710007
31
0.000000
12
-228.830002
22
-349.414001
32
0.000000
13
-228.830002
23
-349.414001
33
0.000000
0
3DFACE
8
0
10
-1.874600
20
-349.783997
30
0.000000
11
-332.529999
21
-245.311996
31
0.000000
12
-331.795990
22
-246.710007
32
0.000000
13
-331.795990
23
-246.710007
33
0.000000
0
3DFACE
8
0
10
-1.874600
20
-349.783997
30
0.000000
11
-227.529999
21
-350.312012
31
0.000000
12
-2.922000
22
-350.966003
32
0.000000
13
-2.922000
23
-350.966003
33
0.000000
0
3DFACE
8
0
10
-1.874600
20
-349.783997
30
0.000000
11
-228.830002
21
-349.414001
31
0.000000
12
-227.529999
22
-350.312012
32
0.000000
13
-227.529999
23
-350.312012
33
0.000000
0
3DFACE
8
0
10
-337.921997
20
-1.533600
30
0.000000
11
-350.000000
21
-277.000000
31
0.000000
12
-337.921997
22
-245.966003
32
0.000000
13
-337.921997
23
-245.966003
33
0.000000
0
3DFACE
8
0
10
-337.921997
20
-1.533600
30
0.000000
11
-337.921997
21
-245.966003
31
0.000000
12
-336.875000
22
-244.783997
32
0.000000
13
-336.875000
23
-244.783997
33
0.000000
0
3DFACE
8
0
10
-337.921997
20
-1.533600
30
0.000000
11
-336.875000
21
-244.783997
31
0.000000
12
-336.875000
22
-2.715800
32
0.000000
13
-336.875000
23
-2.715800
33
0.000000
0
3DFACE
8
0
10
-335.398010
20
-3.275900
30
0.000000
11
-336.875000
21
-244.783997
31
0.000000
12
-335.398010
22
-244.223999
32
0.000000
13
-335.398010
23
-244.223999
33
0.000000
0
3DFACE
8
0
10
-335.398010
20
-3.275900
30
0.000000
11
-336.875000
21
-2.715800
31
0.000000
12
-336.875000
22
-244.783997
32
0.000000
13
-336.875000
23
-244.783997
33
0.000000
0
3DFACE
8
0
10
-338.299988
20
0.000000
30
0.000000
11
-350.000000
21
-277.000000
31
0.000000
12
-337.921997
22
-1.533600
32
0.000000
13
-337.921997
23
-1.533600
33
0.000000
0
3DFACE
8
0
10
-333.829987
20
-3.085600
30
0.000000
11
-335.398010
21
-244.223999
31
0.000000
12
-333.829987
22
-244.414001
32
0.000000
13
-333.829987
23
-244.414001
33
0.000000
0
3DFACE
8
0
10
-333.829987
20
-3.085600
30
0.000000
11
-335.398010
21
-3.275900
31
0.000000
12
-335.398010
22
-244.223999
32
0.000000
13
-335.398010
23
-244.223999
33
0.000000
0
3DFACE
8
0
10
-332.529999
20
-2.188300
30
0.000000
11
-333.829987
21
-244.414001
31
0.000000
12
-332.529999
22
-245.311996
32
0.000000
13
-332.529999
23
-245.311996
33
0.000000
0
3DFACE
8
0
10
-332.529999
20
-2.188300
30
0.000000
11
-332.529999
21
-245.311996
31
0.000000
12
-1.874600
22
-349.783997
32
0.000000
13
-1.874600
23
-349.783997
33
0.000000
0
3DFACE
8
0
10
-332.529999
20
-2.188300
30
0.000000
11
-333.829987
21
-3.085600
31
0.000000
12
-333.829987
22
-244.414001
32
0.000000
13
-333.829987
23
-244.414001
33
0.000000
0
3DFACE
8
0
10
-331.795990
20
-0.789700
30
0.000000
11
-1.874600
21
-349.783997
31
0.000000
12
-0.397800
22
-349.223999
32
0.000000
13
-0.397800
23
-349.223999
33
0.000000
0
3DFACE
8
0
10
-331.795990
20
-0.789700
30
0.000000
11
-332.529999
21
-2.188300
31
0.000000
12
-1.874600
22
-349.783997
32
0.000000
13
-1.874600
23
-349.783997
33
0.000000
0
3DFACE
8
0
10
228.125000
20
-355.216003
30
0.000000
11
2.470100
21
-354.687988
31
0.000000
12
1.170200
22
-355.585999
32
0.000000
13
1.170200
23
-355.585999
33
0.000000
0
3DFACE
8
0
10
227.078003
20
-354.033997
30
0.000000
11
3.204100
21
-353.290009
31
0.000000
12
2.470100
22
-354.687988
32
0.000000
13
2.470100
23
-354.687988
33
0.000000
0
3DFACE
8
0
10
227.078003
20
-354.033997
30
0.000000
11
2.470100
21
-354.687988
31
0.000000
12
228.125000
22
-355.216003
32
0.000000
13
228.125000
23
-355.216003
33
0.000000
0
3DFACE
8
0
10
229.602005
20
-355.776001
30
0.000000
11
228.125000
21
-355.216003
31
0.000000
12
1.170200
22
-355.585999
32
0.000000
13
1.170200
23
-355.585999
33
0.000000
0
3DFACE
8
0
10
226.699997
20
-352.500000
30
0.000000
11
3.204100
21
-351.709991
31
0.000000
12
3.204100
22
-353.290009
32
0.000000
13
3.204100
23
-353.290009
33
0.000000
0
3DFACE
8
0
10
226.699997
20
-352.500000
30
0.000000
11
3.204100
21
-353.290009
31
0.000000
12
227.078003
22
-354.033997
32
0.000000
13
227.078003
23
-354.033997
33
0.000000
0
3DFACE
8
0
10
227.078003
20
-350.966003
30
0.000000
11
2.470100
21
-350.312012
31
0.000000
12
3.204100
22
-351.709991
32
0.000000
13
3.204100
23
-351.709991
33
0.000000
0
3DFACE
8
0
10
227.078003
20
-350.966003
30
0.000000
11
3.204100
21
-351.709991
31
0.000000
12
226.699997
22
-352.500000
32
0.000000
13
226.699997
23
-352.500000
33
0.000000
0
3DFACE
8
0
10
228.125000
20
-349.783997
30
0.000000
11
1.170200
21
-349.414001
31
0.000000
12
2.470100
22
-350.312012
32
0.000000
13
2.470100
23
-350.312012
33
0.000000
0
3DFACE
8
0
10
228.125000
20
-349.783997
30
0.000000
11
2.470100
21
-350.312012
31
0.000000
12
227.078003
22
-350.966003
32
0.000000
13
227.078003
23
-350.966003
33
0.000000
0
3DFACE
8
0
10
259.500000
20
-367.500000
30
0.000000
11
1.170200
21
-355.585999
31
0.000000
12
-0.397800
22
-355.776001
32
0.000000
13
-0.397800
23
-355.776001
33
0.000000
0
3DFACE
8
0
10
259.500000
20
-367.500000
30
0.000000
11
233.203995
21
-351.709991
31
0.000000
12
233.203995
22
-353.290009
32
0.000000
13
233.203995
23
-353.290009
33
0.000000
0
3DFACE
8
0
10
259.500000
20
-367.500000
30
0.000000
11
233.203995
21
-353.290009
31
0.000000
12
232.470001
22
-354.687988
32
0.000000
13
232.470001
23
-354.687988
33
0.000000
0
3DFACE
8
0
10
259.500000
20
-367.500000
30
0.000000
11
232.470001
21
-354.687988
31
0.000000
12
231.169998
22
-355.585999
32
0.000000
13
231.169998
23
-355.585999
33
0.000000
0
3DFACE
8
0
10
259.500000
20
-367.500000
30
0.000000
11
231.169998
21
-355.585999
31
0.000000
12
229.602005
22
-355.776001
32
0.000000
13
229.602005
23
-355.776001
33
0.000000
0
3DFACE
8
0
10
259.500000
20
-367.500000
30
0.000000
11
229.602005
21
-355.776001
31
0.000000
12
1.170200
22
-355.585999
32
0.000000
13
1.170200
23
-355.585999
33
0.000000
0
3DFACE
8
0
10
-336.875000
20
244.783997
30
0.000000
11
-337.921997
21
1.533600
31
0.000000
12
-336.875000
22
2.715800
32
0.000000
13
-336.875000
23
2.715800
33
0.000000
0
3DFACE
8
0
10
-337.921997
20
245.966003
30
0.000000
11
-337.921997
21
1.533600
31
0.000000
12
-336.875000
22
244.783997
32
0.000000
13
-336.875000
23
244.783997
33
0.000000
0
3DFACE
8
0
10
-335.398010
20
244.223999
30
0.000000
11
-336.875000
21
2.715800
31
0.000000
12
-335.398010
22
3.275900
32
0.000000
13
-335.398010
23
3.275900
33
0.000000
0
3DFACE
8
0
10
-335.398010
20
244.223999
30
0.000000
11
-336.875000
21
244.783997
31
0.000000
12
-336.875000
22
2.715800
32
0.000000
13
-336.875000
23
2.715800
33
0.000000
0
3DFACE
8
0
10
-333.829987
20
244.414001
30
0.000000
11
-335.398010
21
3.275900
31
0.000000
12
-333.829987
22
3.085600
32
0.000000
13
-333.829987
23
3.085600
33
0.000000
0
3DFACE
8
0
10
-333.829987
20
244.414001
30
0.000000
11
-333.829987
21
3.085600
31
0.000000
12
-332.529999
22
2.188300
32
0.000000
13
-332.529999
23
2.188300
33
0.000000
0
3DFACE
8
0
10
-333.829987
20
244.414001
30
0.000000
11
-335.398010
21
244.223999
31
0.000000
12
-335.398010
22
3.275900
32
0.000000
13
-335.398010
23
3.275900
33
0.000000
0
3DFACE
8
0
10
-332.529999
20
245.311996
30
0.000000
11
-333.829987
21
244.414001
31
0.000000
12
-332.529999
22
2.188300
32
0.000000
13
-332.529999
23
2.188300
33
0.000000
0
3DFACE
8
0
10
259.500000
20
-337.296997
30
0.000000
11
233.203995
21
-351.709991
31
0.000000
12
259.500000
22
-367.500000
32
0.000000
13
259.500000
23
-367.500000
33
0.000000
0
3DFACE
8
0
10
259.500000
20
-337.296997
30
0.000000
11
229.602005
21
-349.223999
31
0.000000
12
231.169998
22
-349.414001
32
0.000000
13
231.169998
23
-349.414001
33
0.000000
0
3DFACE
8
0
10
259.500000
20
-337.296997
30
0.000000
11
231.169998
21
-349.414001
31
0.000000
12
232.470001
22
-350.312012
32
0.000000
13
232.470001
23
-350.312012
33
0.000000
0
3DFACE
8
0
10
259.500000
20
-337.296997
30
0.000000
11
232.470001
21
-350.312012
31
0.000000
12
233.203995
22
-351.709991
32
0.000000
13
233.203995
23
-351.709991
33
0.000000
0
3DFACE
8
0
10
-350.000000
20
277.000000
30
0.000000
11
-337.921997
21
245.966003
31
0.000000
12
-338.299988
22
247.500000
32
0.000000
13
-338.299988
23
247.500000
33
0.000000
0
3DFACE
8
0
10
-350.000000
20
277.000000
30
0.000000
11
-338.299988
21
0.000000
31
0.000000
12
-337.921997
22
1.533600
32
0.000000
13
-337.921997
23
1.533600
33
0.000000
0
3DFACE
8
0
10
-350.000000
20
277.000000
30
0.000000
11
-337.921997
21
1.533600
31
0.000000
12
-337.921997
22
245.966003
32
0.000000
13
-337.921997
23
245.966003
33
0.000000
0
3DFACE
8
0
10
-350.000000
20
277.000000
30
0.000000
11
-338.299988
21
247.500000
31
0.000000
12
-337.921997
22
249.033997
32
0.000000
13
-337.921997
23
249.033997
33
0.000000
0
3DFACE
8
0
10
-350.000000
20
277.000000
30
0.000000
11
-337.921997
21
249.033997
31
0.000000
12
-336.875000
22
250.216003
32
0.000000
13
-336.875000
23
250.216003
33
0.000000
0
3DFACE
8
0
10
-350.000000
20
277.000000
30
0.000000
11
-336.875000
21
250.216003
31
0.000000
12
-335.398010
22
250.776001
32
0.000000
13
-335.398010
23
250.776001
33
0.000000
0
3DFACE
8
0
10
-319.796997
20
277.000000
30
0.000000
11
-350.000000
21
277.000000
31
0.000000
12
-335.398010
22
250.776001
32
0.000000
13
-335.398010
23
250.776001
33
0.000000
0
3DFACE
8
0
10
-319.796997
20
277.000000
30
0.000000
11
-335.398010
21
250.776001
31
0.000000
12
-333.829987
22
250.585999
32
0.000000
13
-333.829987
23
250.585999
33
0.000000
0
3DFACE
8
0
10
-319.796997
20
277.000000
30
0.000000
11
-333.829987
21
250.585999
31
0.000000
12
-332.529999
22
249.688004
32
0.000000
13
-332.529999
23
249.688004
33
0.000000
0
3DFACE
8
0
10
-319.796997
20
277.000000
30
0.000000
11
-332.529999
21
249.688004
31
0.000000
12
-331.795990
22
248.289993
32
0.000000
13
-331.795990
23
248.289993
33
0.000000
0
3DFACE
8
0
10
-319.796997
20
277.000000
30
0.000000
11
-331.795990
21
248.289993
31
0.000000
12
-331.795990
22
246.710007
32
0.000000
13
-331.795990
23
246.710007
33
0.000000
0
3DFACE
8
0
10
319.796997
20
-277.000000
30
0.000000
11
229.602005
21
-349.223999
31
0.000000
12
259.500000
22
-337.296997
32
0.000000
13
259.500000
23
-337.296997
33
0.000000
0
3DFACE
8
0
10
332.078003
20
-249.033997
30
0.000000
11
319.796997
21
-277.000000
31
0.000000
12
333.125000
22
-250.216003
32
0.000000
13
333.125000
23
-250.216003
33
0.000000
0
3DFACE
8
0
10
334.601990
20
-250.776001
30
0.000000
11
333.125000
21
-250.216003
31
0.000000
12
319.796997
22
-277.000000
32
0.000000
13
319.796997
23
-277.000000
33
0.000000
0
3DFACE
8
0
10
334.601990
20
-250.776001
30
0.000000
11
319.796997
21
-277.000000
31
0.000000
12
350.000000
22
-277.000000
32
0.000000
13
350.000000
23
-277.000000
33
0.000000
0
3DFACE
8
0
10
331.700012
20
-247.500000
30
0.000000
11
319.796997
21
-277.000000
31
0.000000
12
332.078003
22
-249.033997
32
0.000000
13
332.078003
23
-249.033997
33
0.000000
0
3DFACE
8
0
10
336.170013
20
-250.585999
30
0.000000
11
334.601990
21
-250.776001
31
0.000000
12
350.000000
22
-277.000000
32
0.000000
13
350.000000
23
-277.000000
33
0.000000
0
3DFACE
8
0
10
332.078003
20
-245.966003
30
0.000000
11
229.602005
21
-349.223999
31
0.000000
12
319.796997
22
-277.000000
32
0.000000
13
319.796997
23
-277.000000
33
0.000000
0
3DFACE
8
0
10
332.078003
20
-245.966003
30
0.000000
11
228.125000
21
-349.783997
31
0.000000
12
229.602005
22
-349.223999
32
0.000000
13
229.602005
23
-349.223999
33
0.000000
0
3DFACE
8
0
10
332.078003
20
-245.966003
30
0.000000
11
319.796997
21
-277.000000
31
0.000000
12
331.700012
22
-247.500000
32
0.000000
13
331.700012
23
-247.500000
33
0.000000
0
3DFACE
8
0
10
332.078003
20
-245.966003
30
0.000000
11
1.170200
21
-349.414001
31
0.000000
12
228.125000
22
-349.783997
32
0.000000
13
228.125000
23
-349.783997
33
0.000000
0
3DFACE
8
0
10
337.470001
20
-249.688004
30
0.000000
11
336.170013
21
-250.585999
31
0.000000
12
350.000000
22
-277.000000
32
0.000000
13
350.000000
23
-277.000000
33
0.000000
0
3DFACE
8
0
10
338.204010
20
-248.289993
30
0.000000
11
337.470001
21
-249.688004
31
0.000000
12
350.000000
22
-277.000000
32
0.000000
13
350.000000
23
-277.000000
33
0.000000
0
3DFACE
8
0
10
338.204010
20
-246.710007
30
0.000000
11
338.204010
21
-248.289993
31
0.000000
12
350.000000
22
-277.000000
32
0.000000
13
350.000000
23
-277.000000
33
0.000000
0
3DFACE
8
0
10
-214.000000
20
341.500000
30
0.000000
11
-259.500000
21
341.500000
31
0.000000
12
-259.500000
22
337.296997
32
0.000000
13
-259.500000
23
337.296997
33
0.000000
0
3DFACE
8
0
10
-214.000000
20
341.500000
30
0.000000
11
-259.500000
21
337.296997
31
0.000000
12
-319.796997
22
277.000000
32
0.000000
13
-319.796997
23
277.000000
33
0.000000
0
3DFACE
8
0
10
-214.000000
20
341.500000
30
0.000000
11
-319.796997
21
277.000000
31
0.000000
12
-331.795990
22
246.710007
32
0.000000
13
-331.795990
23
246.710007
33
0.000000
0
3DFACE
8
0
10
-214.000000
20
341.500000
30
0.000000
11
-331.795990
21
246.710007
31
0.000000
12
-332.529999
22
245.311996
32
0.000000
13
-332.529999
23
245.311996
33
0.000000
0
3DFACE
8
0
10
-121.296997
20
350.966003
30
0.000000
11
-214.000000
21
341.500000
31
0.000000
12
-120.250000
22
349.783997
32
0.000000
13
-120.250000
23
349.783997
33
0.000000
0
3DFACE
8
0
10
-118.773003
20
349.223999
30
0.000000
11
-332.529999
21
245.311996
31
0.000000
12
-332.529999
22
2.188300
32
0.000000
13
-332.529999
23
2.188300
33
0.000000
0
3DFACE
8
0
10
-118.773003
20
349.223999
30
0.000000
11
-120.250000
21
349.783997
31
0.000000
12
-214.000000
22
341.500000
32
0.000000
13
-214.000000
23
341.500000
33
0.000000
0
3DFACE
8
0
10
-118.773003
20
349.223999
30
0.000000
11
-332.529999
21
2.188300
31
0.000000
12
-331.795990
22
0.789700
32
0.000000
13
-331.795990
23
0.789700
33
0.000000
0
3DFACE
8
0
10
-118.773003
20
349.223999
30
0.000000
11
-214.000000
21
341.500000
31
0.000000
12
-332.529999
22
245.311996
32
0.000000
13
-332.529999
23
245.311996
33
0.000000
0
3DFACE
8
0
10
-121.675003
20
352.500000
30
0.000000
11
-214.000000
21
367.500000
31
0.000000
12
-214.000000
22
341.500000
32
0.000000
13
-214.000000
23
341.500000
33
0.000000
0
3DFACE
8
0
10
-121.675003
20
352.500000
30
0.000000
11
-214.000000
21
341.500000
31
0.000000
12
-121.296997
22
350.966003
32
0.000000
13
-121.296997
23
350.966003
33
0.000000
0
3DFACE
8
0
10
-121.296997
20
354.033997
30
0.000000
11
-214.000000
21
367.500000
31
0.000000
12
-121.675003
22
352.500000
32
0.000000
13
-121.675003
23
352.500000
33
0.000000
0
3DFACE
8
0
10
-120.250000
20
355.216003
30
0.000000
11
-214.000000
21
367.500000
31
0.000000
12
-121.296997
22
354.033997
32
0.000000
13
-121.296997
23
354.033997
33
0.000000
0
3DFACE
8
0
10
-118.773003
20
355.776001
30
0.000000
11
-214.000000
21
367.500000
31
0.000000
12
-120.250000
22
355.216003
32
0.000000
13
-120.250000
23
355.216003
33
0.000000
0
3DFACE
8
0
10
-22.750000
20
341.500000
30
0.000000
11
-115.170998
21
353.290009
31
0.000000
12
-115.170998
22
351.709991
32
0.000000
13
-115.170998
23
351.709991
33
0.000000
0
3DFACE
8
0
10
-22.750000
20
341.500000
30
0.000000
11
-115.170998
21
351.709991
31
0.000000
12
-115.904999
22
350.312012
32
0.000000
13
-115.904999
23
350.312012
33
0.000000
0
3DFACE
8
0
10
-22.750000
20
341.500000
30
0.000000
11
-115.904999
21
350.312012
31
0.000000
12
-117.205002
22
349.414001
32
0.000000
13
-117.205002
23
349.414001
33
0.000000
0
3DFACE
8
0
10
-22.750000
20
341.500000
30
0.000000
11
-117.205002
21
349.414001
31
0.000000
12
-118.773003
22
349.223999
32
0.000000
13
-118.773003
23
349.223999
33
0.000000
0
3DFACE
8
0
10
-22.750000
20
341.500000
30
0.000000
11
-118.773003
21
349.223999
31
0.000000
12
-331.795990
22
0.789700
32
0.000000
13
-331.795990
23
0.789700
33
0.000000
0
3DFACE
8
0
10
333.125000
20
-2.715800
30
0.000000
11
333.125000
21
-244.783997
31
0.000000
12
334.601990
22
-244.223999
32
0.000000
13
334.601990
23
-244.223999
33
0.000000
0
3DFACE
8
0
10
332.078003
20
-1.533600
30
0.000000
11
333.125000
21
-244.783997
31
0.000000
12
333.125000
22
-2.715800
32
0.000000
13
333.125000
23
-2.715800
33
0.000000
0
3DFACE
8
0
10
332.078003
20
-1.533600
30
0.000000
11
332.078003
21
-245.966003
31
0.000000
12
333.125000
22
-244.783997
32
0.000000
13
333.125000
23
-244.783997
33
0.000000
0
3DFACE
8
0
10
332.078003
20
-1.533600
30
0.000000
11
1.170200
21
-349.414001
31
0.000000
12
332.078003
22
-245.966003
32
0.000000
13
332.078003
23
-245.966003
33
0.000000
0
3DFACE
8
0
10
334.601990
20
-3.275900
30
0.000000
11
333.125000
21
-2.715800
31
0.000000
12
334.601990
22
-244.223999
32
0.000000
13
334.601990
23
-244.223999
33
0.000000
0
3DFACE
8
0
10
334.601990
20
-3.275900
30
0.000000
11
334.601990
21
-244.223999
31
0.000000
12
336.170013
22
-244.414001
32
0.000000
13
336.170013
23
-244.414001
33
0.000000
0
3DFACE
8
0
10
331.700012
20
0.000000
30
0.000000
11
-22.750000
21
341.500000
31
0.000000
12
-331.795990
22
0.789700
32
0.000000
13
-331.795990
23
0.789700
33
0.000000
0
3DFACE
8
0
10
331.700012
20
0.000000
30
0.000000
11
-0.397800
21
-349.223999
31
0.000000
12
1.170200
22
-349.414001
32
0.000000
13
1.170200
23
-349.414001
33
0.000000
0
3DFACE
8
0
10
331.700012
20
0.000000
30
0.000000
11
-331.795990
21
0.789700
31
0.000000
12
-331.795990
22
-0.789700
32
0.000000
13
-331.795990
23
-0.789700
33
0.000000
0
3DFACE
8
0
10
331.700012
20
0.000000
30
0.000000
11
-331.795990
21
-0.789700
31
0.000000
12
-0.397800
22
-349.223999
32
0.000000
13
-0.397800
23
-349.223999
33
0.000000
0
3DFACE
8
0
10
331.700012
20
0.000000
30
0.000000
11
1.170200
21
-349.414001
31
0.000000
12
332.078003
22
-1.533600
32
0.000000
13
332.078003
23
-1.533600
33
0.000000
0
3DFACE
8
0
10
336.170013
20
-3.085600
30
0.000000
11
334.601990
21
-3.275900
31
0.000000
12
336.170013
22
-244.414001
32
0.000000
13
336.170013
23
-244.414001
33
0.000000
0
3DFACE
8
0
10
337.470001
20
-2.188300
30
0.000000
11
336.170013
21
-3.085600
31
0.000000
12
336.170013
22
-244.414001
32
0.000000
13
336.170013
23
-244.414001
33
0.000000
0
3DFACE
8
0
10
337.470001
20
-2.188300
30
0.000000
11
336.170013
21
-244.414001
31
0.000000
12
337.470001
22
-245.311996
32
0.000000
13
337.470001
23
-245.311996
33
0.000000
0
3DFACE
8
0
10
337.470001
20
-2.188300
30
0.000000
11
337.470001
21
-245.311996
31
0.000000
12
338.204010
22
-246.710007
32
0.000000
13
338.204010
23
-246.710007
33
0.000000
0
3DFACE
8
0
10
338.204010
20
-0.789700
30
0.000000
11
337.470001
21
-2.188300
31
0.000000
12
338.204010
22
-246.710007
32
0.000000
13
338.204010
23
-246.710007
33
0.000000
0
3DFACE
8
0
10
338.204010
20
-0.789700
30
0.000000
11
338.204010
21
-246.710007
31
0.000000
12
350.000000
22
-277.000000
32
0.000000
13
350.000000
23
-277.000000
33
0.000000
0
3DFACE
8
0
10
-22.750000
20
367.500000
30
0.000000
11
-118.773003
21
355.776001
31
0.000000
12
-117.205002
22
355.585999
32
0.000000
13
-117.205002
23
355.585999
33
0.000000
0
3DFACE
8
0
10
-22.750000
20
367.500000
30
0.000000
11
-117.205002
21
355.585999
31
0.000000
12
-115.904999
22
354.687988
32
0.000000
13
-115.904999
23
354.687988
33
0.000000
0
3DFACE
8
0
10
-22.750000
20
367.500000
30
0.000000
11
-115.904999
21
354.687988
31
0.000000
12
-115.170998
22
353.290009
32
0.000000
13
-115.170998
23
353.290009
33
0.000000
0
3DFACE
8
0
10
-22.750000
20
367.500000
30
0.000000
11
-115.170998
21
353.290009
31
0.000000
12
-22.750000
22
341.500000
32
0.000000
13
-22.750000
23
341.500000
33
0.000000
0
3DFACE
8
0
10
22.750000
20
341.500000
30
0.000000
11
331.700012
21
0.000000
31
0.000000
12
332.078003
22
1.533600
32
0.000000
13
332.078003
23
1.533600
33
0.000000
0
3DFACE
8
0
10
22.750000
20
341.500000
30
0.000000
11
-22.750000
21
341.500000
31
0.000000
12
331.700012
22
0.000000
32
0.000000
13
331.700012
23
0.000000
33
0.000000
0
3DFACE
8
0
10
115.453003
20
350.966003
30
0.000000
11
22.750000
21
341.500000
31
0.000000
12
116.500000
22
349.783997
32
0.000000
13
116.500000
23
349.783997
33
0.000000
0
3DFACE
8
0
10
117.976997
20
349.223999
30
0.000000
11
22.750000
21
341.500000
31
0.000000
12
332.078003
22
1.533600
32
0.000000
13
332.078003
23
1.533600
33
0.000000
0
3DFACE
8
0
10
117.976997
20
349.223999
30
0.000000
11
116.500000
21
349.783997
31
0.000000
12
22.750000
22
341.500000
32
0.000000
13
22.750000
23
341.500000
33
0.000000
0
3DFACE
8
0
10
115.074997
20
352.500000
30
0.000000
11
22.750000
21
367.500000
31
0.000000
12
22.750000
22
341.500000
32
0.000000
13
22.750000
23
341.500000
33
0.000000
0
3DFACE
8
0
10
115.074997
20
352.500000
30
0.000000
11
22.750000
21
341.500000
31
0.000000
12
115.453003
22
350.966003
32
0.000000
13
115.453003
23
350.966003
33
0.000000
0
3DFACE
8
0
10
115.453003
20
354.033997
30
0.000000
11
22.750000
21
367.500000
31
0.000000
12
115.074997
22
352.500000
32
0.000000
13
115.074997
23
352.500000
33
0.000000
0
3DFACE
8
0
10
116.500000
20
355.216003
30
0.000000
11
22.750000
21
367.500000
31
0.000000
12
115.453003
22
354.033997
32
0.000000
13
115.453003
23
354.033997
33
0.000000
0
3DFACE
8
0
10
117.976997
20
355.776001
30
0.000000
11
22.750000
21
367.500000
31
0.000000
12
116.500000
22
355.216003
32
0.000000
13
116.500000
23
355.216003
33
0.000000
0
3DFACE
8
0
10
214.000000
20
341.500000
30
0.000000
11
121.579002
21
353.290009
31
0.000000
12
121.579002
22
351.709991
32
0.000000
13
121.579002
23
351.709991
33
0.000000
0
3DFACE
8
0
10
214.000000
20
341.500000
30
0.000000
11
121.579002
21
351.709991
31
0.000000
12
120.845001
22
350.312012
32
0.000000
13
120.845001
23
350.312012
33
0.000000
0
3DFACE
8
0
10
214.000000
20
341.500000
30
0.000000
11
120.845001
21
350.312012
31
0.000000
12
119.544998
22
349.414001
32
0.000000
13
119.544998
23
349.414001
33
0.000000
0
3DFACE
8
0
10
332.078003
20
245.966003
30
0.000000
11
117.976997
21
349.223999
31
0.000000
12
332.078003
22
1.533600
32
0.000000
13
332.078003
23
1.533600
33
0.000000
0
3DFACE
8
0
10
332.078003
20
245.966003
30
0.000000
11
332.078003
21
1.533600
31
0.000000
12
333.125000
22
2.715800
32
0.000000
13
333.125000
23
2.715800
33
0.000000
0
3DFACE
8
0
10
332.078003
20
245.966003
30
0.000000
11
214.000000
21
341.500000
31
0.000000
12
119.544998
22
349.414001
32
0.000000
13
119.544998
23
349.414001
33
0.000000
0
3DFACE
8
0
10
332.078003
20
245.966003
30
0.000000
11
333.125000
21
2.715800
31
0.000000
12
333.125000
22
244.783997
32
0.000000
13
333.125000
23
244.783997
33
0.000000
0
3DFACE
8
0
10
332.078003
20
245.966003
30
0.000000
11
119.544998
21
349.414001
31
0.000000
12
117.976997
22
349.223999
32
0.000000
13
117.976997
23
349.223999
33
0.000000
0
3DFACE
8
0
10
334.601990
20
244.223999
30
0.000000
11
333.125000
21
2.715800
31
0.000000
12
334.601990
22
3.275900
32
0.000000
13
334.601990
23
3.275900
33
0.000000
0
3DFACE
8
0
10
334.601990
20
244.223999
30
0.000000
11
333.125000
21
244.783997
31
0.000000
12
333.125000
22
2.715800
32
0.000000
13
333.125000
23
2.715800
33
0.000000
0
3DFACE
8
0
10
336.170013
20
244.414001
30
0.000000
11
334.601990
21
3.275900
31
0.000000
12
336.170013
22
3.085600
32
0.000000
13
336.170013
23
3.085600
33
0.000000
0
3DFACE
8
0
10
336.170013
20
244.414001
30
0.000000
11
336.170013
21
3.085600
31
0.000000
12
337.470001
22
2.188300
32
0.000000
13
337.470001
23
2.188300
33
0.000000
0
3DFACE
8
0
10
336.170013
20
244.414001
30
0.000000
11
334.601990
21
244.223999
31
0.000000
12
334.601990
22
3.275900
32
0.000000
13
334.601990
23
3.275900
33
0.000000
0
3DFACE
8
0
10
214.000000
20
367.500000
30
0.000000
11
117.976997
21
355.776001
31
0.000000
12
119.544998
22
355.585999
32
0.000000
13
119.544998
23
355.585999
33
0.000000
0
3DFACE
8
0
10
214.000000
20
367.500000
30
0.000000
11
119.544998
21
355.585999
31
0.000000
12
120.845001
22
354.687988
32
0.000000
13
120.845001
23
354.687988
33
0.000000
0
3DFACE
8
0
10
214.000000
20
367.500000
30
0.000000
11
120.845001
21
354.687988
31
0.000000
12
121.579002
22
353.290009
32
0.000000
13
121.579002
23
353.290009
33
0.000000
0
3DFACE
8
0
10
214.000000
20
367.500000
30
0.000000
11
121.579002
21
353.290009
31
0.000000
12
214.000000
22
341.500000
32
0.000000
13
214.000000
23
341.500000
33
0.000000
0
3DFACE
8
0
10
337.470001
20
245.311996
30
0.000000
11
336.170013
21
244.414001
31
0.000000
12
337.470001
22
2.188300
32
0.000000
13
337.470001
23
2.188300
33
0.000000
0
3DFACE
8
0
10
338.204010
20
246.710007
30
0.000000
11
337.470001
21
2.188300
31
0.000000
12
338.204010
22
0.789700
32
0.000000
13
338.204010
23
0.789700
33
0.000000
0
3DFACE
8
0
10
338.204010
20
246.710007
30
0.000000
11
337.470001
21
245.311996
31
0.000000
12
337.470001
22
2.188300
32
0.000000
13
337.470001
23
2.188300
33
0.000000
0
3DFACE
8
0
10
319.796997
20
277.000000
30
0.000000
11
214.000000
21
341.500000
31
0.000000
12
332.078003
22
245.966003
32
0.000000
13
332.078003
23
245.966003
33
0.000000
0
3DFACE
8
0
10
319.796997
20
277.000000
30
0.000000
11
331.700012
21
247.500000
31
0.000000
12
332.078003
22
249.033997
32
0.000000
13
332.078003
23
249.033997
33
0.000000
0
3DFACE
8
0
10
319.796997
20
277.000000
30
0.000000
11
332.078003
21
249.033997
31
0.000000
12
333.125000
22
250.216003
32
0.000000
13
333.125000
23
250.216003
33
0.000000
0
3DFACE
8
0
10
319.796997
20
277.000000
30
0.000000
11
333.125000
21
250.216003
31
0.000000
12
334.601990
22
250.776001
32
0.000000
13
334.601990
23
250.776001
33
0.000000
0
3DFACE
8
0
10
319.796997
20
277.000000
30
0.000000
11
332.078003
21
245.966003
31
0.000000
12
331.700012
22
247.500000
32
0.000000
13
331.700012
23
247.500000
33
0.000000
0
3DFACE
8
0
10
259.500000
20
337.296997
30
0.000000
11
214.000000
21
341.500000
31
0.000000
12
319.796997
22
277.000000
32
0.000000
13
319.796997
23
277.000000
33
0.000000
0
3DFACE
8
0
10
259.500000
20
341.500000
30
0.000000
11
214.000000
21
341.500000
31
0.000000
12
259.500000
22
337.296997
32
0.000000
13
259.500000
23
337.296997
33
0.000000
0
3DFACE
8
0
10
350.000000
20
277.000000
30
0.000000
11
338.204010
21
246.710007
31
0.000000
12
338.204010
22
0.789700
32
0.000000
13
338.204010
23
0.789700
33
0.000000
0
3DFACE
8
0
10
350.000000
20
277.000000
30
0.000000
11
334.601990
21
250.776001
31
0.000000
12
336.170013
22
250.585999
32
0.000000
13
336.170013
23
250.585999
33
0.000000
0
3DFACE
8
0
10
350.000000
20
277.000000
30
0.000000
11
336.170013
21
250.585999
31
0.000000
12
337.470001
22
249.688004
32
0.000000
13
337.470001
23
249.688004
33
0.000000
0
3DFACE
8
0
10
350.000000
20
277.000000
30
0.000000
11
337.470001
21
249.688004
31
0.000000
12
338.204010
22
248.289993
32
0.000000
13
338.204010
23
248.289993
33
0.000000
0
3DFACE
8
0
10
350.000000
20
277.000000
30
0.000000
11
338.204010
21
248.289993
31
0.000000
12
338.204010
22
246.710007
32
0.000000
13
338.204010
23
246.710007
33
0.000000
0
3DFACE
8
0
10
350.000000
20
277.000000
30
0.000000
11
319.796997
21
277.000000
31
0.000000
12
334.601990
22
250.776001
32
0.000000
13
334.601990
23
250.776001
33
0.000000
0
3DFACE
8
0
10
214.000000
20
367.500000
30
0.000000
11
22.750000
21
367.500000
31
0.000000
12
117.976997
22
355.776001
32
0.000000
13
117.976997
23
355.776001
33
0.000000
0
3DFACE
8
0
10
-22.750000
20
367.500000
30
0.000000
11
-214.000000
21
367.500000
31
0.000000
12
-118.773003
22
355.776001
32
0.000000
13
-118.773003
23
355.776001
33
0.000000
0
3DFACE
8
0
10
-350.000000
20
277.000000
30
0.000000
11
-350.000000
21
-277.000000
31
0.000000
12
-338.299988
22
0.000000
32
0.000000
13
-338.299988
23
0.000000
33
0.000000
0
3DFACE
8
0
10
-259.500000
20
-367.500000
30
0.000000
11
259.500000
21
-367.500000
31
0.000000
12
-0.397800
22
-355.776001
32
0.000000
13
-0.397800
23
-355.776001
33
0.000000
0
3DFACE
8
0
10
350.000000
20
-277.000000
30
0.000000
11
350.000000
21
277.000000
31
0.000000
12
338.204010
22
-0.789700
32
0.000000
13
338.204010
23
-0.789700
33
0.000000
0
3DFACE
8
0
10
338.204010
20
-0.789700
30
0.000000
11
350.000000
21
277.000000
31
0.000000
12
338.204010
22
0.789700
32
0.000000
13
338.204010
23
0.789700
33
0.000000
0
3DFACE
8
0
10
231.169998
20
-355.585999
30
-4.000000
11
232.470001
21
-354.687988
31
-4.000000
12
259.500000
22
-367.500000
32
-4.000000
13
259.500000
23
-367.500000
33
-4.000000
0
3DFACE
8
0
10
336.170013
20
-250.585999
30
-4.000000
11
337.470001
21
-249.688004
31
-4.000000
12
350.000000
22
-277.000000
32
-4.000000
13
350.000000
23
-277.000000
33
-4.000000
0
3DFACE
8
0
10
233.203995
20
-353.290009
30
-4.000000
11
259.500000
21
-367.500000
31
-4.000000
12
232.470001
22
-354.687988
32
-4.000000
13
232.470001
23
-354.687988
33
-4.000000
0
3DFACE
8
0
10
338.204010
20
-248.289993
30
-4.000000
11
350.000000
21
-277.000000
31
-4.000000
12
337.470001
22
-249.688004
32
-4.000000
13
337.470001
23
-249.688004
33
-4.000000
0
3DFACE
8
0
10
229.602005
20
-355.776001
30
-4.000000
11
231.169998
21
-355.585999
31
-4.000000
12
259.500000
22
-367.500000
32
-4.000000
13
259.500000
23
-367.500000
33
-4.000000
0
3DFACE
8
0
10
334.601990
20
-250.776001
30
-4.000000
11
350.000000
21
-277.000000
31
-4.000000
12
319.796997
22
-277.000000
32
-4.000000
13
319.796997
23
-277.000000
33
-4.000000
0
3DFACE
8
0
10
334.601990
20
-250.776001
30
-4.000000
11
336.170013
21
-250.585999
31
-4.000000
12
350.000000
22
-277.000000
32
-4.000000
13
350.000000
23
-277.000000
33
-4.000000
0
3DFACE
8
0
10
233.203995
20
-351.709991
30
-4.000000
11
259.500000
21
-337.296997
31
-4.000000
12
259.500000
22
-367.500000
32
-4.000000
13
259.500000
23
-367.500000
33
-4.000000
0
3DFACE
8
0
10
233.203995
20
-351.709991
30
-4.000000
11
259.500000
21
-367.500000
31
-4.000000
12
233.203995
22
-353.290009
32
-4.000000
13
233.203995
23
-353.290009
33
-4.000000
0
3DFACE
8
0
10
338.204010
20
-246.710007
30
-4.000000
11
350.000000
21
-277.000000
31
-4.000000
12
338.204010
22
-248.289993
32
-4.000000
13
338.204010
23
-248.289993
33
-4.000000
0
3DFACE
8
0
10
333.125000
20
-250.216003
30
-4.000000
11
334.601990
21
-250.776001
31
-4.000000
12
319.796997
22
-277.000000
32
-4.000000
13
319.796997
23
-277.000000
33
-4.000000
0
3DFACE
8
0
10
232.470001
20
-350.312012
30
-4.000000
11
259.500000
21
-337.296997
31
-4.000000
12
233.203995
22
-351.709991
32
-4.000000
13
233.203995
23
-351.709991
33
-4.000000
0
3DFACE
8
0
10
332.078003
20
-249.033997
30
-4.000000
11
333.125000
21
-250.216003
31
-4.000000
12
319.796997
22
-277.000000
32
-4.000000
13
319.796997
23
-277.000000
33
-4.000000
0
3DFACE
8
0
10
231.169998
20
-349.414001
30
-4.000000
11
259.500000
21
-337.296997
31
-4.000000
12
232.470001
22
-350.312012
32
-4.000000
13
232.470001
23
-350.312012
33
-4.000000
0
3DFACE
8
0
10
331.700012
20
-247.500000
30
-4.000000
11
332.078003
21
-249.033997
31
-4.000000
12
319.796997
22
-277.000000
32
-4.000000
13
319.796997
23
-277.000000
33
-4.000000
0
3DFACE
8
0
10
229.602005
20
-349.223999
30
-4.000000
11
319.796997
21
-277.000000
31
-4.000000
12
259.500000
22
-337.296997
32
-4.000000
13
259.500000
23
-337.296997
33
-4.000000
0
3DFACE
8
0
10
229.602005
20
-349.223999
30
-4.000000
11
259.500000
21
-337.296997
31
-4.000000
12
231.169998
22
-349.414001
32
-4.000000
13
231.169998
23
-349.414001
33
-4.000000
0
3DFACE
8
0
10
332.078003
20
-245.966003
30
-4.000000
11
319.796997
21
-277.000000
31
-4.000000
12
229.602005
22
-349.223999
32
-4.000000
13
229.602005
23
-349.223999
33
-4.000000
0
3DFACE
8
0
10
332.078003
20
-245.966003
30
-4.000000
11
331.700012
21
-247.500000
31
-4.000000
12
319.796997
22
-277.000000
32
-4.000000
13
319.796997
23
-277.000000
33
-4.000000
0
3DFACE
8
0
10
228.125000
20
-349.783997
30
-4.000000
11
332.078003
21
-245.966003
31
-4.000000
12
229.602005
22
-349.223999
32
-4.000000
13
229.602005
23
-349.223999
33
-4.000000
0
3DFACE
8
0
10
2.470100
20
-354.687988
30
-4.000000
11
227.078003
21
-354.033997
31
-4.000000
12
228.125000
22
-355.216003
32
-4.000000
13
228.125000
23
-355.216003
33
-4.000000
0
3DFACE
8
0
10
1.170200
20
-355.585999
30
-4.000000
11
228.125000
21
-355.216003
31
-4.000000
12
229.602005
22
-355.776001
32
-4.000000
13
229.602005
23
-355.776001
33
-4.000000
0
3DFACE
8
0
10
1.170200
20
-355.585999
30
-4.000000
11
2.470100
21
-354.687988
31
-4.000000
12
228.125000
22
-355.216003
32
-4.000000
13
228.125000
23
-355.216003
33
-4.000000
0
3DFACE
8
0
10
1.170200
20
-355.585999
30
-4.000000
11
229.602005
21
-355.776001
31
-4.000000
12
259.500000
22
-367.500000
32
-4.000000
13
259.500000
23
-367.500000
33
-4.000000
0
3DFACE
8
0
10
3.204100
20
-353.290009
30
-4.000000
11
227.078003
21
-354.033997
31
-4.000000
12
2.470100
22
-354.687988
32
-4.000000
13
2.470100
23
-354.687988
33
-4.000000
0
3DFACE
8
0
10
3.204100
20
-353.290009
30
-4.000000
11
226.699997
21
-352.500000
31
-4.000000
12
227.078003
22
-354.033997
32
-4.000000
13
227.078003
23
-354.033997
33
-4.000000
0
3DFACE
8
0
10
-0.397800
20
-355.776001
30
-4.000000
11
1.170200
21
-355.585999
31
-4.000000
12
259.500000
22
-367.500000
32
-4.000000
13
259.500000
23
-367.500000
33
-4.000000
0
3DFACE
8
0
10
3.204100
20
-351.709991
30
-4.000000
11
226.699997
21
-352.500000
31
-4.000000
12
3.204100
22
-353.290009
32
-4.000000
13
3.204100
23
-353.290009
33
-4.000000
0
3DFACE
8
0
10
3.204100
20
-351.709991
30
-4.000000
11
227.078003
21
-350.966003
31
-4.000000
12
226.699997
22
-352.500000
32
-4.000000
13
226.699997
23
-352.500000
33
-4.000000
0
3DFACE
8
0
10
2.470100
20
-350.312012
30
-4.000000
11
227.078003
21
-350.966003
31
-4.000000
12
3.204100
22
-351.709991
32
-4.000000
13
3.204100
23
-351.709991
33
-4.000000
0
3DFACE
8
0
10
2.470100
20
-350.312012
30
-4.000000
11
228.125000
21
-349.783997
31
-4.000000
12
227.078003
22
-350.966003
32
-4.000000
13
227.078003
23
-350.966003
33
-4.000000
0
3DFACE
8
0
10
1.170200
20
-349.414001
30
-4.000000
11
332.078003
21
-245.966003
31
-4.000000
12
228.125000
22
-349.783997
32
-4.000000
13
228.125000
23
-349.783997
33
-4.000000
0
3DFACE
8
0
10
1.170200
20
-349.414001
30
-4.000000
11
228.125000
21
-349.783997
31
-4.000000
12
2.470100
22
-350.312012
32
-4.000000
13
2.470100
23
-350.312012
33
-4.000000
0
3DFACE
8
0
10
336.170013
20
-3.085600
30
-4.000000
11
337.470001
21
-245.311996
31
-4.000000
12
336.170013
22
-244.414001
32
-4.000000
13
336.170013
23
-244.414001
33
-4.000000
0
3DFACE
8
0
10
336.170013
20
-3.085600
30
-4.000000
11
337.470001
21
-2.188300
31
-4.000000
12
337.470001
22
-245.311996
32
-4.000000
13
337.470001
23
-245.311996
33
-4.000000
0
3DFACE
8
0
10
338.204010
20
-0.789700
30
-4.000000
11
338.204010
21
-246.710007
31
-4.000000
12
337.470001
22
-245.311996
32
-4.000000
13
337.470001
23
-245.311996
33
-4.000000
0
3DFACE
8
0
10
338.204010
20
-0.789700
30
-4.000000
11
337.470001
21
-245.311996
31
-4.000000
12
337.470001
22
-2.188300
32
-4.000000
13
337.470001
23
-2.188300
33
-4.000000
0
3DFACE
8
0
10
338.204010
20
-0.789700
30
-4.000000
11
350.000000
21
-277.000000
31
-4.000000
12
338.204010
22
-246.710007
32
-4.000000
13
338.204010
23
-246.710007
33
-4.000000
0
3DFACE
8
0
10
334.601990
20
-3.275900
30
-4.000000
11
336.170013
21
-3.085600
31
-4.000000
12
336.170013
22
-244.414001
32
-4.000000
13
336.170013
23
-244.414001
33
-4.000000
0
3DFACE
8
0
10
334.601990
20
-3.275900
30
-4.000000
11
336.170013
21
-244.414001
31
-4.000000
12
334.601990
22
-244.223999
32
-4.000000
13
334.601990
23
-244.223999
33
-4.000000
0
3DFACE
8
0
10
333.125000
20
-2.715800
30
-4.000000
11
334.601990
21
-244.223999
31
-4.000000
12
333.125000
22
-244.783997
32
-4.000000
13
333.125000
23
-244.783997
33
-4.000000
0
3DFACE
8
0
10
333.125000
20
-2.715800
30
-4.000000
11
333.125000
21
-244.783997
31
-4.000000
12
332.078003
22
-245.966003
32
-4.000000
13
332.078003
23
-245.966003
33
-4.000000
0
3DFACE
8
0
10
333.125000
20
-2.715800
30
-4.000000
11
334.601990
21
-3.275900
31
-4.000000
12
334.601990
22
-244.223999
32
-4.000000
13
334.601990
23
-244.223999
33
-4.000000
0
3DFACE
8
0
10
332.078003
20
-1.533600
30
-4.000000
11
333.125000
21
-2.715800
31
-4.000000
12
332.078003
22
-245.966003
32
-4.000000
13
332.078003
23
-245.966003
33
-4.000000
0
3DFACE
8
0
10
332.078003
20
-1.533600
30
-4.000000
11
332.078003
21
-245.966003
31
-4.000000
12
1.170200
22
-349.414001
32
-4.000000
13
1.170200
23
-349.414001
33
-4.000000
0
3DFACE
8
0
10
331.700012
20
0.000000
30
-4.000000
11
332.078003
21
-1.533600
31
-4.000000
12
1.170200
22
-349.414001
32
-4.000000
13
1.170200
23
-349.414001
33
-4.000000
0
3DFACE
8
0
10
331.700012
20
0.000000
30
-4.000000
11
1.170200
21
-349.414001
31
-4.000000
12
-0.397800
22
-349.223999
32
-4.000000
13
-0.397800
23
-349.223999
33
-4.000000
0
3DFACE
8
0
10
-227.529999
20
-354.687988
30
-4.000000
11
-2.922000
21
-354.033997
31
-4.000000
12
-1.874600
22
-355.216003
32
-4.000000
13
-1.874600
23
-355.216003
33
-4.000000
0
3DFACE
8
0
10
-228.830002
20
-355.585999
30
-4.000000
11
-1.874600
21
-355.216003
31
-4.000000
12
-0.397800
22
-355.776001
32
-4.000000
13
-0.397800
23
-355.776001
33
-4.000000
0
3DFACE
8
0
10
-228.830002
20
-355.585999
30
-4.000000
11
-227.529999
21
-354.687988
31
-4.000000
12
-1.874600
22
-355.216003
32
-4.000000
13
-1.874600
23
-355.216003
33
-4.000000
0
3DFACE
8
0
10
-226.796005
20
-353.290009
30
-4.000000
11
-3.300000
21
-352.500000
31
-4.000000
12
-2.922000
22
-354.033997
32
-4.000000
13
-2.922000
23
-354.033997
33
-4.000000
0
3DFACE
8
0
10
-226.796005
20
-353.290009
30
-4.000000
11
-2.922000
21
-354.033997
31
-4.000000
12
-227.529999
22
-354.687988
32
-4.000000
13
-227.529999
23
-354.687988
33
-4.000000
0
3DFACE
8
0
10
-226.796005
20
-351.709991
30
-4.000000
11
-2.922000
21
-350.966003
31
-4.000000
12
-3.300000
22
-352.500000
32
-4.000000
13
-3.300000
23
-352.500000
33
-4.000000
0
3DFACE
8
0
10
-226.796005
20
-351.709991
30
-4.000000
11
-3.300000
21
-352.500000
31
-4.000000
12
-226.796005
22
-353.290009
32
-4.000000
13
-226.796005
23
-353.290009
33
-4.000000
0
3DFACE
8
0
10
-227.529999
20
-350.312012
30
-4.000000
11
-1.874600
21
-349.783997
31
-4.000000
12
-2.922000
22
-350.966003
32
-4.000000
13
-2.922000
23
-350.966003
33
-4.000000
0
3DFACE
8
0
10
-227.529999
20
-350.312012
30
-4.000000
11
-2.922000
21
-350.966003
31
-4.000000
12
-226.796005
22
-351.709991
32
-4.000000
13
-226.796005
23
-351.709991
33
-4.000000
0
3DFACE
8
0
10
-228.830002
20
-349.414001
30
-4.000000
11
-1.874600
21
-349.783997
31
-4.000000
12
-227.529999
22
-350.312012
32
-4.000000
13
-227.529999
23
-350.312012
33
-4.000000
0
3DFACE
8
0
10
-259.500000
20
-367.500000
30
-4.000000
11
-233.300003
21
-352.500000
31
-4.000000
12
-232.921997
22
-354.033997
32
-4.000000
13
-232.921997
23
-354.033997
33
-4.000000
0
3DFACE
8
0
10
-259.500000
20
-367.500000
30
-4.000000
11
-232.921997
21
-354.033997
31
-4.000000
12
-231.875000
22
-355.216003
32
-4.000000
13
-231.875000
23
-355.216003
33
-4.000000
0
3DFACE
8
0
10
-259.500000
20
-367.500000
30
-4.000000
11
-231.875000
21
-355.216003
31
-4.000000
12
-230.397995
22
-355.776001
32
-4.000000
13
-230.397995
23
-355.776001
33
-4.000000
0
3DFACE
8
0
10
-259.500000
20
-367.500000
30
-4.000000
11
-230.397995
21
-355.776001
31
-4.000000
12
-228.830002
22
-355.585999
32
-4.000000
13
-228.830002
23
-355.585999
33
-4.000000
0
3DFACE
8
0
10
-259.500000
20
-367.500000
30
-4.000000
11
-228.830002
21
-355.585999
31
-4.000000
12
-0.397800
22
-355.776001
32
-4.000000
13
-0.397800
23
-355.776001
33
-4.000000
0
3DFACE
8
0
10
336.170013
20
244.414001
30
-4.000000
11
337.470001
21
2.188300
31
-4.000000
12
336.170013
22
3.085600
32
-4.000000
13
336.170013
23
3.085600
33
-4.000000
0
3DFACE
8
0
10
336.170013
20
244.414001
30
-4.000000
11
336.170013
21
3.085600
31
-4.000000
12
334.601990
22
3.275900
32
-4.000000
13
334.601990
23
3.275900
33
-4.000000
0
3DFACE
8
0
10
336.170013
20
244.414001
30
-4.000000
11
337.470001
21
245.311996
31
-4.000000
12
337.470001
22
2.188300
32
-4.000000
13
337.470001
23
2.188300
33
-4.000000
0
3DFACE
8
0
10
338.204010
20
246.710007
30
-4.000000
11
338.204010
21
0.789700
31
-4.000000
12
337.470001
22
2.188300
32
-4.000000
13
337.470001
23
2.188300
33
-4.000000
0
3DFACE
8
0
10
338.204010
20
246.710007
30
-4.000000
11
337.470001
21
2.188300
31
-4.000000
12
337.470001
22
245.311996
32
-4.000000
13
337.470001
23
245.311996
33
-4.000000
0
3DFACE
8
0
10
334.601990
20
244.223999
30
-4.000000
11
336.170013
21
244.414001
31
-4.000000
12
334.601990
22
3.275900
32
-4.000000
13
334.601990
23
3.275900
33
-4.000000
0
3DFACE
8
0
10
333.125000
20
244.783997
30
-4.000000
11
334.601990
21
3.275900
31
-4.000000
12
333.125000
22
2.715800
32
-4.000000
13
333.125000
23
2.715800
33
-4.000000
0
3DFACE
8
0
10
333.125000
20
244.783997
30
-4.000000
11
334.601990
21
244.223999
31
-4.000000
12
334.601990
22
3.275900
32
-4.000000
13
334.601990
23
3.275900
33
-4.000000
0
3DFACE
8
0
10
332.078003
20
245.966003
30
-4.000000
11
333.125000
21
244.783997
31
-4.000000
12
333.125000
22
2.715800
32
-4.000000
13
333.125000
23
2.715800
33
-4.000000
0
3DFACE
8
0
10
332.078003
20
245.966003
30
-4.000000
11
333.125000
21
2.715800
31
-4.000000
12
332.078003
22
1.533600
32
-4.000000
13
332.078003
23
1.533600
33
-4.000000
0
3DFACE
8
0
10
-259.500000
20
-337.296997
30
-4.000000
11
-228.830002
21
-349.414001
31
-4.000000
12
-230.397995
22
-349.223999
32
-4.000000
13
-230.397995
23
-349.223999
33
-4.000000
0
3DFACE
8
0
10
-259.500000
20
-337.296997
30
-4.000000
11
-230.397995
21
-349.223999
31
-4.000000
12
-231.875000
22
-349.783997
32
-4.000000
13
-231.875000
23
-349.783997
33
-4.000000
0
3DFACE
8
0
10
-259.500000
20
-337.296997
30
-4.000000
11
-231.875000
21
-349.783997
31
-4.000000
12
-232.921997
22
-350.966003
32
-4.000000
13
-232.921997
23
-350.966003
33
-4.000000
0
3DFACE
8
0
10
-259.500000
20
-337.296997
30
-4.000000
11
-232.921997
21
-350.966003
31
-4.000000
12
-233.300003
22
-352.500000
32
-4.000000
13
-233.300003
23
-352.500000
33
-4.000000
0
3DFACE
8
0
10
-259.500000
20
-337.296997
30
-4.000000
11
-233.300003
21
-352.500000
31
-4.000000
12
-259.500000
22
-367.500000
32
-4.000000
13
-259.500000
23
-367.500000
33
-4.000000
0
3DFACE
8
0
10
350.000000
20
277.000000
30
-4.000000
11
338.204010
21
0.789700
31
-4.000000
12
338.204010
22
246.710007
32
-4.000000
13
338.204010
23
246.710007
33
-4.000000
0
3DFACE
8
0
10
350.000000
20
277.000000
30
-4.000000
11
338.204010
21
246.710007
31
-4.000000
12
338.204010
22
248.289993
32
-4.000000
13
338.204010
23
248.289993
33
-4.000000
0
3DFACE
8
0
10
350.000000
20
277.000000
30
-4.000000
11
338.204010
21
248.289993
31
-4.000000
12
337.470001
22
249.688004
32
-4.000000
13
337.470001
23
249.688004
33
-4.000000
0
3DFACE
8
0
10
350.000000
20
277.000000
30
-4.000000
11
337.470001
21
249.688004
31
-4.000000
12
336.170013
22
250.585999
32
-4.000000
13
336.170013
23
250.585999
33
-4.000000
0
3DFACE
8
0
10
350.000000
20
277.000000
30
-4.000000
11
336.170013
21
250.585999
31
-4.000000
12
334.601990
22
250.776001
32
-4.000000
13
334.601990
23
250.776001
33
-4.000000
0
3DFACE
8
0
10
319.796997
20
277.000000
30
-4.000000
11
350.000000
21
277.000000
31
-4.000000
12
334.601990
22
250.776001
32
-4.000000
13
334.601990
23
250.776001
33
-4.000000
0
3DFACE
8
0
10
319.796997
20
277.000000
30
-4.000000
11
331.700012
21
247.500000
31
-4.000000
12
332.078003
22
245.966003
32
-4.000000
13
332.078003
23
245.966003
33
-4.000000
0
3DFACE
8
0
10
319.796997
20
277.000000
30
-4.000000
11
334.601990
21
250.776001
31
-4.000000
12
333.125000
22
250.216003
32
-4.000000
13
333.125000
23
250.216003
33
-4.000000
0
3DFACE
8
0
10
319.796997
20
277.000000
30
-4.000000
11
333.125000
21
250.216003
31
-4.000000
12
332.078003
22
249.033997
32
-4.000000
13
332.078003
23
249.033997
33
-4.000000
0
3DFACE
8
0
10
319.796997
20
277.000000
30
-4.000000
11
332.078003
21
249.033997
31
-4.000000
12
331.700012
22
247.500000
32
-4.000000
13
331.700012
23
247.500000
33
-4.000000
0
3DFACE
8
0
10
-333.829987
20
-250.585999
30
-4.000000
11
-332.529999
21
-249.688004
31
-4.000000
12
-319.796997
22
-277.000000
32
-4.000000
13
-319.796997
23
-277.000000
33
-4.000000
0
3DFACE
8
0
10
-331.795990
20
-248.289993
30
-4.000000
11
-319.796997
21
-277.000000
31
-4.000000
12
-332.529999
22
-249.688004
32
-4.000000
13
-332.529999
23
-249.688004
33
-4.000000
0
3DFACE
8
0
10
-335.398010
20
-250.776001
30
-4.000000
11
-319.796997
21
-277.000000
31
-4.000000
12
-350.000000
22
-277.000000
32
-4.000000
13
-350.000000
23
-277.000000
33
-4.000000
0
3DFACE
8
0
10
-335.398010
20
-250.776001
30
-4.000000
11
-333.829987
21
-250.585999
31
-4.000000
12
-319.796997
22
-277.000000
32
-4.000000
13
-319.796997
23
-277.000000
33
-4.000000
0
3DFACE
8
0
10
-331.795990
20
-246.710007
30
-4.000000
11
-259.500000
21
-337.296997
31
-4.000000
12
-319.796997
22
-277.000000
32
-4.000000
13
-319.796997
23
-277.000000
33
-4.000000
0
3DFACE
8
0
10
-331.795990
20
-246.710007
30
-4.000000
11
-228.830002
21
-349.414001
31
-4.000000
12
-259.500000
22
-337.296997
32
-4.000000
13
-259.500000
23
-337.296997
33
-4.000000
0
3DFACE
8
0
10
-331.795990
20
-246.710007
30
-4.000000
11
-1.874600
21
-349.783997
31
-4.000000
12
-228.830002
22
-349.414001
32
-4.000000
13
-228.830002
23
-349.414001
33
-4.000000
0
3DFACE
8
0
10
-331.795990
20
-246.710007
30
-4.000000
11
-319.796997
21
-277.000000
31
-4.000000
12
-331.795990
22
-248.289993
32
-4.000000
13
-331.795990
23
-248.289993
33
-4.000000
0
3DFACE
8
0
10
-336.875000
20
-250.216003
30
-4.000000
11
-335.398010
21
-250.776001
31
-4.000000
12
-350.000000
22
-277.000000
32
-4.000000
13
-350.000000
23
-277.000000
33
-4.000000
0
3DFACE
8
0
10
-332.529999
20
-245.311996
30
-4.000000
11
-1.874600
21
-349.783997
31
-4.000000
12
-331.795990
22
-246.710007
32
-4.000000
13
-331.795990
23
-246.710007
33
-4.000000
0
3DFACE
8
0
10
-337.921997
20
-249.033997
30
-4.000000
11
-336.875000
21
-250.216003
31
-4.000000
12
-350.000000
22
-277.000000
32
-4.000000
13
-350.000000
23
-277.000000
33
-4.000000
0
3DFACE
8
0
10
-338.299988
20
-247.500000
30
-4.000000
11
-337.921997
21
-249.033997
31
-4.000000
12
-350.000000
22
-277.000000
32
-4.000000
13
-350.000000
23
-277.000000
33
-4.000000
0
3DFACE
8
0
10
-337.921997
20
-245.966003
30
-4.000000
11
-338.299988
21
-247.500000
31
-4.000000
12
-350.000000
22
-277.000000
32
-4.000000
13
-350.000000
23
-277.000000
33
-4.000000
0
3DFACE
8
0
10
214.000000
20
341.500000
30
-4.000000
11
259.500000
21
341.500000
31
-4.000000
12
259.500000
22
337.296997
32
-4.000000
13
259.500000
23
337.296997
33
-4.000000
0
3DFACE
8
0
10
214.000000
20
341.500000
30
-4.000000
11
259.500000
21
337.296997
31
-4.000000
12
319.796997
22
277.000000
32
-4.000000
13
319.796997
23
277.000000
33
-4.000000
0
3DFACE
8
0
10
214.000000
20
341.500000
30
-4.000000
11
319.796997
21
277.000000
31
-4.000000
12
332.078003
22
245.966003
32
-4.000000
13
332.078003
23
245.966003
33
-4.000000
0
3DFACE
8
0
10
119.544998
20
349.414001
30
-4.000000
11
214.000000
21
341.500000
31
-4.000000
12
332.078003
22
245.966003
32
-4.000000
13
332.078003
23
245.966003
33
-4.000000
0
3DFACE
8
0
10
119.544998
20
349.414001
30
-4.000000
11
120.845001
21
350.312012
31
-4.000000
12
214.000000
22
341.500000
32
-4.000000
13
214.000000
23
341.500000
33
-4.000000
0
3DFACE
8
0
10
121.579002
20
351.709991
30
-4.000000
11
214.000000
21
341.500000
31
-4.000000
12
120.845001
22
350.312012
32
-4.000000
13
120.845001
23
350.312012
33
-4.000000
0
3DFACE
8
0
10
117.976997
20
349.223999
30
-4.000000
11
119.544998
21
349.414001
31
-4.000000
12
332.078003
22
245.966003
32
-4.000000
13
332.078003
23
245.966003
33
-4.000000
0
3DFACE
8
0
10
117.976997
20
349.223999
30
-4.000000
11
332.078003
21
245.966003
31
-4.000000
12
332.078003
22
1.533600
32
-4.000000
13
332.078003
23
1.533600
33
-4.000000
0
3DFACE
8
0
10
121.579002
20
353.290009
30
-4.000000
11
214.000000
21
367.500000
31
-4.000000
12
214.000000
22
341.500000
32
-4.000000
13
214.000000
23
341.500000
33
-4.000000
0
3DFACE
8
0
10
121.579002
20
353.290009
30
-4.000000
11
214.000000
21
341.500000
31
-4.000000
12
121.579002
22
351.709991
32
-4.000000
13
121.579002
23
351.709991
33
-4.000000
0
3DFACE
8
0
10
120.845001
20
354.687988
30
-4.000000
11
214.000000
21
367.500000
31
-4.000000
12
121.579002
22
353.290009
32
-4.000000
13
121.579002
23
353.290009
33
-4.000000
0
3DFACE
8
0
10
119.544998
20
355.585999
30
-4.000000
11
214.000000
21
367.500000
31
-4.000000
12
120.845001
22
354.687988
32
-4.000000
13
120.845001
23
354.687988
33
-4.000000
0
3DFACE
8
0
10
117.976997
20
355.776001
30
-4.000000
11
214.000000
21
367.500000
31
-4.000000
12
119.544998
22
355.585999
32
-4.000000
13
119.544998
23
355.585999
33
-4.000000
0
3DFACE
8
0
10
22.750000
20
341.500000
30
-4.000000
11
332.078003
21
1.533600
31
-4.000000
12
331.700012
22
0.000000
32
-4.000000
13
331.700012
23
0.000000
33
-4.000000
0
3DFACE
8
0
10
22.750000
20
341.500000
30
-4.000000
11
115.074997
21
352.500000
31
-4.000000
12
115.453003
22
350.966003
32
-4.000000
13
115.453003
23
350.966003
33
-4.000000
0
3DFACE
8
0
10
22.750000
20
341.500000
30
-4.000000
11
115.453003
21
350.966003
31
-4.000000
12
116.500000
22
349.783997
32
-4.000000
13
116.500000
23
349.783997
33
-4.000000
0
3DFACE
8
0
10
22.750000
20
341.500000
30
-4.000000
11
116.500000
21
349.783997
31
-4.000000
12
117.976997
22
349.223999
32
-4.000000
13
117.976997
23
349.223999
33
-4.000000
0
3DFACE
8
0
10
22.750000
20
341.500000
30
-4.000000
11
117.976997
21
349.223999
31
-4.000000
12
332.078003
22
1.533600
32
-4.000000
13
332.078003
23
1.533600
33
-4.000000
0
3DFACE
8
0
10
-332.529999
20
-2.188300
30
-4.000000
11
-332.529999
21
-245.311996
31
-4.000000
12
-333.829987
22
-244.414001
32
-4.000000
13
-333.829987
23
-244.414001
33
-4.000000
0
3DFACE
8
0
10
-332.529999
20
-2.188300
30
-4.000000
11
-1.874600
21
-349.783997
31
-4.000000
12
-332.529999
22
-245.311996
32
-4.000000
13
-332.529999
23
-245.311996
33
-4.000000
0
3DFACE
8
0
10
-333.829987
20
-3.085600
30
-4.000000
11
-332.529999
21
-2.188300
31
-4.000000
12
-333.829987
22
-244.414001
32
-4.000000
13
-333.829987
23
-244.414001
33
-4.000000
0
3DFACE
8
0
10
-331.795990
20
-0.789700
30
-4.000000
11
-0.397800
21
-349.223999
31
-4.000000
12
-1.874600
22
-349.783997
32
-4.000000
13
-1.874600
23
-349.783997
33
-4.000000
0
3DFACE
8
0
10
-331.795990
20
-0.789700
30
-4.000000
11
-1.874600
21
-349.783997
31
-4.000000
12
-332.529999
22
-2.188300
32
-4.000000
13
-332.529999
23
-2.188300
33
-4.000000
0
3DFACE
8
0
10
-331.795990
20
-0.789700
30
-4.000000
11
331.700012
21
0.000000
31
-4.000000
12
-0.397800
22
-349.223999
32
-4.000000
13
-0.397800
23
-349.223999
33
-4.000000
0
3DFACE
8
0
10
-335.398010
20
-3.275900
30
-4.000000
11
-333.829987
21
-3.085600
31
-4.000000
12
-333.829987
22
-244.414001
32
-4.000000
13
-333.829987
23
-244.414001
33
-4.000000
0
3DFACE
8
0
10
-335.398010
20
-3.275900
30
-4.000000
11
-333.829987
21
-244.414001
31
-4.000000
12
-335.398010
22
-244.223999
32
-4.000000
13
-335.398010
23
-244.223999
33
-4.000000
0
3DFACE
8
0
10
-331.795990
20
0.789700
30
-4.000000
11
331.700012
21
0.000000
31
-4.000000
12
-331.795990
22
-0.789700
32
-4.000000
13
-331.795990
23
-0.789700
33
-4.000000
0
3DFACE
8
0
10
-336.875000
20
-2.715800
30
-4.000000
11
-335.398010
21
-244.223999
31
-4.000000
12
-336.875000
22
-244.783997
32
-4.000000
13
-336.875000
23
-244.783997
33
-4.000000
0
3DFACE
8
0
10
-336.875000
20
-2.715800
30
-4.000000
11
-335.398010
21
-3.275900
31
-4.000000
12
-335.398010
22
-244.223999
32
-4.000000
13
-335.398010
23
-244.223999
33
-4.000000
0
3DFACE
8
0
10
-337.921997
20
-1.533600
30
-4.000000
11
-336.875000
21
-244.783997
31
-4.000000
12
-337.921997
22
-245.966003
32
-4.000000
13
-337.921997
23
-245.966003
33
-4.000000
0
3DFACE
8
0
10
-337.921997
20
-1.533600
30
-4.000000
11
-336.875000
21
-2.715800
31
-4.000000
12
-336.875000
22
-244.783997
32
-4.000000
13
-336.875000
23
-244.783997
33
-4.000000
0
3DFACE
8
0
10
-337.921997
20
-1.533600
30
-4.000000
11
-337.921997
21
-245.966003
31
-4.000000
12
-350.000000
22
-277.000000
32
-4.000000
13
-350.000000
23
-277.000000
33
-4.000000
0
3DFACE
8
0
10
-338.299988
20
0.000000
30
-4.000000
11
-337.921997
21
-1.533600
31
-4.000000
12
-350.000000
22
-277.000000
32
-4.000000
13
-350.000000
23
-277.000000
33
-4.000000
0
3DFACE
8
0
10
22.750000
20
367.500000
30
-4.000000
11
117.976997
21
355.776001
31
-4.000000
12
116.500000
22
355.216003
32
-4.000000
13
116.500000
23
355.216003
33
-4.000000
0
3DFACE
8
0
10
22.750000
20
367.500000
30
-4.000000
11
116.500000
21
355.216003
31
-4.000000
12
115.453003
22
354.033997
32
-4.000000
13
115.453003
23
354.033997
33
-4.000000
0
3DFACE
8
0
10
22.750000
20
367.500000
30
-4.000000
11
115.453003
21
354.033997
31
-4.000000
12
115.074997
22
352.500000
32
-4.000000
13
115.074997
23
352.500000
33
-4.000000
0
3DFACE
8
0
10
22.750000
20
367.500000
30
-4.000000
11
115.074997
21
352.500000
31
-4.000000
12
22.750000
22
341.500000
32
-4.000000
13
22.750000
23
341.500000
33
-4.000000
0
3DFACE
8
0
10
-22.750000
20
341.500000
30
-4.000000
11
331.700012
21
0.000000
31
-4.000000
12
-331.795990
22
0.789700
32
-4.000000
13
-331.795990
23
0.789700
33
-4.000000
0
3DFACE
8
0
10
-22.750000
20
341.500000
30
-4.000000
11
22.750000
21
341.500000
31
-4.000000
12
331.700012
22
0.000000
32
-4.000000
13
331.700012
23
0.000000
33
-4.000000
0
3DFACE
8
0
10
-117.205002
20
349.414001
30
-4.000000
11
-115.904999
21
350.312012
31
-4.000000
12
-22.750000
22
341.500000
32
-4.000000
13
-22.750000
23
341.500000
33
-4.000000
0
3DFACE
8
0
10
-115.170998
20
351.709991
30
-4.000000
11
-22.750000
21
341.500000
31
-4.000000
12
-115.904999
22
350.312012
32
-4.000000
13
-115.904999
23
350.312012
33
-4.000000
0
3DFACE
8
0
10
-118.773003
20
349.223999
30
-4.000000
11
-22.750000
21
341.500000
31
-4.000000
12
-331.795990
22
0.789700
32
-4.000000
13
-331.795990
23
0.789700
33
-4.000000
0
3DFACE
8
0
10
-118.773003
20
349.223999
30
-4.000000
11
-117.205002
21
349.414001
31
-4.000000
12
-22.750000
22
341.500000
32
-4.000000
13
-22.750000
23
341.500000
33
-4.000000
0
3DFACE
8
0
10
-118.773003
20
349.223999
30
-4.000000
11
-331.795990
21
0.789700
31
-4.000000
12
-332.529999
22
2.188300
32
-4.000000
13
-332.529999
23
2.188300
33
-4.000000
0
3DFACE
8
0
10
-115.170998
20
353.290009
30
-4.000000
11
-22.750000
21
367.500000
31
-4.000000
12
-22.750000
22
341.500000
32
-4.000000
13
-22.750000
23
341.500000
33
-4.000000
0
3DFACE
8
0
10
-115.170998
20
353.290009
30
-4.000000
11
-22.750000
21
341.500000
31
-4.000000
12
-115.170998
22
351.709991
32
-4.000000
13
-115.170998
23
351.709991
33
-4.000000
0
3DFACE
8
0
10
-115.904999
20
354.687988
30
-4.000000
11
-22.750000
21
367.500000
31
-4.000000
12
-115.170998
22
353.290009
32
-4.000000
13
-115.170998
23
353.290009
33
-4.000000
0
3DFACE
8
0
10
-117.205002
20
355.585999
30
-4.000000
11
-22.750000
21
367.500000
31
-4.000000
12
-115.904999
22
354.687988
32
-4.000000
13
-115.904999
23
354.687988
33
-4.000000
0
3DFACE
8
0
10
-118.773003
20
355.776001
30
-4.000000
11
-22.750000
21
367.500000
31
-4.000000
12
-117.205002
22
355.585999
32
-4.000000
13
-117.205002
23
355.585999
33
-4.000000
0
3DFACE
8
0
10
-214.000000
20
341.500000
30
-4.000000
11
-121.675003
21
352.500000
31
-4.000000
12
-121.296997
22
350.966003
32
-4.000000
13
-121.296997
23
350.966003
33
-4.000000
0
3DFACE
8
0
10
-214.000000
20
341.500000
30
-4.000000
11
-121.296997
21
350.966003
31
-4.000000
12
-120.250000
22
349.783997
32
-4.000000
13
-120.250000
23
349.783997
33
-4.000000
0
3DFACE
8
0
10
-214.000000
20
341.500000
30
-4.000000
11
-120.250000
21
349.783997
31
-4.000000
12
-118.773003
22
349.223999
32
-4.000000
13
-118.773003
23
349.223999
33
-4.000000
0
3DFACE
8
0
10
-332.529999
20
245.311996
30
-4.000000
11
-118.773003
21
349.223999
31
-4.000000
12
-332.529999
22
2.188300
32
-4.000000
13
-332.529999
23
2.188300
33
-4.000000
0
3DFACE
8
0
10
-332.529999
20
245.311996
30
-4.000000
11
-332.529999
21
2.188300
31
-4.000000
12
-333.829987
22
3.085600
32
-4.000000
13
-333.829987
23
3.085600
33
-4.000000
0
3DFACE
8
0
10
-332.529999
20
245.311996
30
-4.000000
11
-214.000000
21
341.500000
31
-4.000000
12
-118.773003
22
349.223999
32
-4.000000
13
-118.773003
23
349.223999
33
-4.000000
0
3DFACE
8
0
10
-333.829987
20
244.414001
30
-4.000000
11
-332.529999
21
245.311996
31
-4.000000
12
-333.829987
22
3.085600
32
-4.000000
13
-333.829987
23
3.085600
33
-4.000000
0
3DFACE
8
0
10
-331.795990
20
246.710007
30
-4.000000
11
-214.000000
21
341.500000
31
-4.000000
12
-332.529999
22
245.311996
32
-4.000000
13
-332.529999
23
245.311996
33
-4.000000
0
3DFACE
8
0
10
-335.398010
20
244.223999
30
-4.000000
11
-333.829987
21
3.085600
31
-4.000000
12
-335.398010
22
3.275900
32
-4.000000
13
-335.398010
23
3.275900
33
-4.000000
0
3DFACE
8
0
10
-335.398010
20
244.223999
30
-4.000000
11
-335.398010
21
3.275900
31
-4.000000
12
-336.875000
22
2.715800
32
-4.000000
13
-336.875000
23
2.715800
33
-4.000000
0
3DFACE
8
0
10
-335.398010
20
244.223999
30
-4.000000
11
-333.829987
21
244.414001
31
-4.000000
12
-333.829987
22
3.085600
32
-4.000000
13
-333.829987
23
3.085600
33
-4.000000
0
3DFACE
8
0
10
-214.000000
20
367.500000
30
-4.000000
11
-118.773003
21
355.776001
31
-4.000000
12
-120.250000
22
355.216003
32
-4.000000
13
-120.250000
23
355.216003
33
-4.000000
0
3DFACE
8
0
10
-214.000000
20
367.500000
30
-4.000000
11
-120.250000
21
355.216003
31
-4.000000
12
-121.296997
22
354.033997
32
-4.000000
13
-121.296997
23
354.033997
33
-4.000000
0
3DFACE
8
0
10
-214.000000
20
367.500000
30
-4.000000
11
-121.296997
21
354.033997
31
-4.000000
12
-121.675003
22
352.500000
32
-4.000000
13
-121.675003
23
352.500000
33
-4.000000
0
3DFACE
8
0
10
-214.000000
20
367.500000
30
-4.000000
11
-121.675003
21
352.500000
31
-4.000000
12
-214.000000
22
341.500000
32
-4.000000
13
-214.000000
23
341.500000
33
-4.000000
0
3DFACE
8
0
10
-336.875000
20
244.783997
30
-4.000000
11
-336.875000
21
2.715800
31
-4.000000
12
-337.921997
22
1.533600
32
-4.000000
13
-337.921997
23
1.533600
33
-4.000000
0
3DFACE
8
0
10
-336.875000
20
244.783997
30
-4.000000
11
-335.398010
21
244.223999
31
-4.000000
12
-336.875000
22
2.715800
32
-4.000000
13
-336.875000
23
2.715800
33
-4.000000
0
3DFACE
8
0
10
-337.921997
20
245.966003
30
-4.000000
11
-336.875000
21
244.783997
31
-4.000000
12
-337.921997
22
1.533600
32
-4.000000
13
-337.921997
23
1.533600
33
-4.000000
0
3DFACE
8
0
10
-319.796997
20
277.000000
30
-4.000000
11
-214.000000
21
341.500000
31
-4.000000
12
-331.795990
22
246.710007
32
-4.000000
13
-331.795990
23
246.710007
33
-4.000000
0
3DFACE
8
0
10
-319.796997
20
277.000000
30
-4.000000
11
-331.795990
21
246.710007
31
-4.000000
12
-331.795990
22
248.289993
32
-4.000000
13
-331.795990
23
248.289993
33
-4.000000
0
3DFACE
8
0
10
-319.796997
20
277.000000
30
-4.000000
11
-331.795990
21
248.289993
31
-4.000000
12
-332.529999
22
249.688004
32
-4.000000
13
-332.529999
23
249.688004
33
-4.000000
0
3DFACE
8
0
10
-319.796997
20
277.000000
30
-4.000000
11
-332.529999
21
249.688004
31
-4.000000
12
-333.829987
22
250.585999
32
-4.000000
13
-333.829987
23
250.585999
33
-4.000000
0
3DFACE
8
0
10
-319.796997
20
277.000000
30
-4.000000
11
-333.829987
21
250.585999
31
-4.000000
12
-335.398010
22
250.776001
32
-4.000000
13
-335.398010
23
250.776001
33
-4.000000
0
3DFACE
8
0
10
-259.500000
20
337.296997
30
-4.000000
11
-214.000000
21
341.500000
31
-4.000000
12
-319.796997
22
277.000000
32
-4.000000
13
-319.796997
23
277.000000
33
-4.000000
0
3DFACE
8
0
10
-259.500000
20
341.500000
30
-4.000000
11
-214.000000
21
341.500000
31
-4.000000
12
-259.500000
22
337.296997
32
-4.000000
13
-259.500000
23
337.296997
33
-4.000000
0
3DFACE
8
0
10
-350.000000
20
277.000000
30
-4.000000
11
-336.875000
21
250.216003
31
-4.000000
12
-337.921997
22
249.033997
32
-4.000000
13
-337.921997
23
249.033997
33
-4.000000
0
3DFACE
8
0
10
-350.000000
20
277.000000
30
-4.000000
11
-337.921997
21
249.033997
31
-4.000000
12
-338.299988
22
247.500000
32
-4.000000
13
-338.299988
23
247.500000
33
-4.000000
0
3DFACE
8
0
10
-350.000000
20
277.000000
30
-4.000000
11
-337.921997
21
1.533600
31
-4.000000
12
-338.299988
22
0.000000
32
-4.000000
13
-338.299988
23
0.000000
33
-4.000000
0
3DFACE
8
0
10
-350.000000
20
277.000000
30
-4.000000
11
-337.921997
21
245.966003
31
-4.000000
12
-337.921997
22
1.533600
32
-4.000000
13
-337.921997
23
1.533600
33
-4.000000
0
3DFACE
8
0
10
-350.000000
20
277.000000
30
-4.000000
11
-338.299988
21
247.500000
31
-4.000000
12
-337.921997
22
245.966003
32
-4.000000
13
-337.921997
23
245.966003
33
-4.000000
0
3DFACE
8
0
10
-350.000000
20
277.000000
30
-4.000000
11
-335.398010
21
250.776001
31
-4.000000
12
-336.875000
22
250.216003
32
-4.000000
13
-336.875000
23
250.216003
33
-4.000000
0
3DFACE
8
0
10
-350.000000
20
277.000000
30
-4.000000
11
-319.796997
21
277.000000
31
-4.000000
12
-335.398010
22
250.776001
32
-4.000000
13
-335.398010
23
250.776001
33
-4.000000
0
3DFACE
8
0
10
22.750000
20
367.500000
30
-4.000000
11
214.000000
21
367.500000
31
-4.000000
12
117.976997
22
355.776001
32
-4.000000
13
117.976997
23
355.776001
33
-4.000000
0
3DFACE
8
0
10
350.000000
20
277.000000
30
-4.000000
11
350.000000
21
-277.000000
31
-4.000000
12
338.204010
22
0.789700
32
-4.000000
13
338.204010
23
0.789700
33
-4.000000
0
3DFACE
8
0
10
338.204010
20
0.789700
30
-4.000000
11
350.000000
21
-277.000000
31
-4.000000
12
338.204010
22
-0.789700
32
-4.000000
13
338.204010
23
-0.789700
33
-4.000000
0
3DFACE
8
0
10
259.500000
20
-367.500000
30
-4.000000
11
-259.500000
21
-367.500000
31
-4.000000
12
-0.397800
22
-355.776001
32
-4.000000
13
-0.397800
23
-355.776001
33
-4.000000
0
3DFACE
8
0
10
-350.000000
20
-277.000000
30
-4.000000
11
-350.000000
21
277.000000
31
-4.000000
12
-338.299988
22
0.000000
32
-4.000000
13
-338.299988
23
0.000000
33
-4.000000
0
3DFACE
8
0
10
-214.000000
20
367.500000
30
-4.000000
11
-22.750000
21
367.500000
31
-4.000000
12
-118.773003
22
355.776001
32
-4.000000
13
-118.773003
23
355.776001
33
-4.000000
0
ENDSEC
0
EOF
