999
Created by ADMesh version 0.98.3
0
SECTION
2
HEADER
0
ENDSEC
0
SECTION
2
TABLES
0
TABLE
2
LAYER
70
1
0
LAYER
2
0
70
0
62
7
6
CONTINUOUS
0
ENDTAB
0
ENDSEC
0
SECTION
2
BLOCKS
0
ENDSEC
0
SECTION
2
ENTITIES
0
3DFACE
8
0
10
-47.799999
20
-99.000000
30
0.000000
11
-47.799999
21
-99.000000
31
-4.000000
12
-47.422001
22
-97.466400
32
0.000000
13
-47.422001
23
-97.466400
33
0.000000
0
3DFACE
8
0
10
-47.422001
20
-97.466400
30
0.000000
11
-47.422001
21
-97.466400
31
-4.000000
12
-46.374599
22
-96.284203
32
0.000000
13
-46.374599
23
-96.284203
33
0.000000
0
3DFACE
8
0
10
-47.799999
20
-99.000000
30
-4.000000
11
-47.422001
21
-97.466400
31
-4.000000
12
-47.422001
22
-97.466400
32
0.000000
13
-47.422001
23
-97.466400
33
0.000000
0
3DFACE
8
0
10
-46.374599
20
-96.284203
30
0.000000
11
-46.374599
21
-96.284203
31
-4.000000
12
-44.897800
22
-95.724098
32
0.000000
13
-44.897800
23
-95.724098
33
0.000000
0
3DFACE
8
0
10
-47.422001
20
-97.466400
30
-4.000000
11
-46.374599
21
-96.284203
31
-4.000000
12
-46.374599
22
-96.284203
32
0.000000
13
-46.374599
23
-96.284203
33
0.000000
0
3DFACE
8
0
10
-44.897800
20
-95.724098
30
0.000000
11
-44.897800
21
-95.724098
31
-4.000000
12
-43.329800
22
-95.914398
32
0.000000
13
-43.329800
23
-95.914398
33
0.000000
0
3DFACE
8
0
10
-46.374599
20
-96.284203
30
-4.000000
11
-44.897800
21
-95.724098
31
-4.000000
12
-44.897800
22
-95.724098
32
0.000000
13
-44.897800
23
-95.724098
33
0.000000
0
3DFACE
8
0
10
-43.329800
20
-95.914398
30
0.000000
11
-43.329800
21
-95.914398
31
-4.000000
12
-42.029900
22
-96.811699
32
0.000000
13
-42.029900
23
-96.811699
33
0.000000
0
3DFACE
8
0
10
-44.897800
20
-95.724098
30
-4.000000
11
-43.329800
21
-95.914398
31
-4.000000
12
-43.329800
22
-95.914398
32
0.000000
13
-43.329800
23
-95.914398
33
0.000000
0
3DFACE
8
0
10
-42.029900
20
-96.811699
30
0.000000
11
-42.029900
21
-96.811699
31
-4.000000
12
-41.295898
22
-98.210297
32
0.000000
13
-41.295898
23
-98.210297
33
0.000000
0
3DFACE
8
0
10
-43.329800
20
-95.914398
30
-4.000000
11
-42.029900
21
-96.811699
31
-4.000000
12
-42.029900
22
-96.811699
32
0.000000
13
-42.029900
23
-96.811699
33
0.000000
0
3DFACE
8
0
10
-41.295898
20
-98.210297
30
0.000000
11
-41.295898
21
-98.210297
31
-4.000000
12
-41.295898
22
-99.789703
32
0.000000
13
-41.295898
23
-99.789703
33
0.000000
0
3DFACE
8
0
10
-42.029900
20
-96.811699
30
-4.000000
11
-41.295898
21
-98.210297
31
-4.000000
12
-41.295898
22
-98.210297
32
0.000000
13
-41.295898
23
-98.210297
33
0.000000
0
3DFACE
8
0
10
-41.295898
20
-99.789703
30
0.000000
11
-41.295898
21
-99.789703
31
-4.000000
12
-42.029900
22
-101.188004
32
0.000000
13
-42.029900
23
-101.188004
33
0.000000
0
3DFACE
8
0
10
-41.295898
20
-98.210297
30
-4.000000
11
-41.295898
21
-99.789703
31
-4.000000
12
-41.295898
22
-99.789703
32
0.000000
13
-41.295898
23
-99.789703
33
0.000000
0
3DFACE
8
0
10
-42.029900
20
-101.188004
30
0.000000
11
-42.029900
21
-101.188004
31
-4.000000
12
-43.329800
22
-102.085999
32
0.000000
13
-43.329800
23
-102.085999
33
0.000000
0
3DFACE
8
0
10
-41.295898
20
-99.789703
30
-4.000000
11
-42.029900
21
-101.188004
31
-4.000000
12
-42.029900
22
-101.188004
32
0.000000
13
-42.029900
23
-101.188004
33
0.000000
0
3DFACE
8
0
10
-43.329800
20
-102.085999
30
0.000000
11
-43.329800
21
-102.085999
31
-4.000000
12
-44.897800
22
-102.276001
32
0.000000
13
-44.897800
23
-102.276001
33
0.000000
0
3DFACE
8
0
10
-42.029900
20
-101.188004
30
-4.000000
11
-43.329800
21
-102.085999
31
-4.000000
12
-43.329800
22
-102.085999
32
0.000000
13
-43.329800
23
-102.085999
33
0.000000
0
3DFACE
8
0
10
-43.329800
20
-102.085999
30
-4.000000
11
-44.897800
21
-102.276001
31
-4.000000
12
-44.897800
22
-102.276001
32
0.000000
13
-44.897800
23
-102.276001
33
0.000000
0
3DFACE
8
0
10
-44.897800
20
-102.276001
30
0.000000
11
-46.374599
21
-101.716003
31
-4.000000
12
-46.374599
22
-101.716003
32
0.000000
13
-46.374599
23
-101.716003
33
0.000000
0
3DFACE
8
0
10
-46.374599
20
-101.716003
30
0.000000
11
-46.374599
21
-101.716003
31
-4.000000
12
-47.422001
22
-100.533997
32
0.000000
13
-47.422001
23
-100.533997
33
0.000000
0
3DFACE
8
0
10
-44.897800
20
-102.276001
30
-4.000000
11
-46.374599
21
-101.716003
31
-4.000000
12
-44.897800
22
-102.276001
32
0.000000
13
-44.897800
23
-102.276001
33
0.000000
0
3DFACE
8
0
10
-47.422001
20
-100.533997
30
0.000000
11
-47.422001
21
-100.533997
31
-4.000000
12
-47.799999
22
-99.000000
32
0.000000
13
-47.799999
23
-99.000000
33
0.000000
0
3DFACE
8
0
10
-46.374599
20
-101.716003
30
-4.000000
11
-47.422001
21
-100.533997
31
-4.000000
12
-47.422001
22
-100.533997
32
0.000000
13
-47.422001
23
-100.533997
33
0.000000
0
3DFACE
8
0
10
-47.422001
20
-100.533997
30
-4.000000
11
-47.799999
21
-99.000000
31
-4.000000
12
-47.799999
22
-99.000000
32
0.000000
13
-47.799999
23
-99.000000
33
0.000000
0
3DFACE
8
0
10
-308.299988
20
-99.000000
30
0.000000
11
-308.299988
21
-99.000000
31
-4.000000
12
-307.921997
22
-97.466400
32
0.000000
13
-307.921997
23
-97.466400
33
0.000000
0
3DFACE
8
0
10
-307.921997
20
-97.466400
30
0.000000
11
-307.921997
21
-97.466400
31
-4.000000
12
-306.875000
22
-96.284203
32
0.000000
13
-306.875000
23
-96.284203
33
0.000000
0
3DFACE
8
0
10
-308.299988
20
-99.000000
30
-4.000000
11
-307.921997
21
-97.466400
31
-4.000000
12
-307.921997
22
-97.466400
32
0.000000
13
-307.921997
23
-97.466400
33
0.000000
0
3DFACE
8
0
10
-306.875000
20
-96.284203
30
0.000000
11
-306.875000
21
-96.284203
31
-4.000000
12
-305.398010
22
-95.724098
32
0.000000
13
-305.398010
23
-95.724098
33
0.000000
0
3DFACE
8
0
10
-307.921997
20
-97.466400
30
-4.000000
11
-306.875000
21
-96.284203
31
-4.000000
12
-306.875000
22
-96.284203
32
0.000000
13
-306.875000
23
-96.284203
33
0.000000
0
3DFACE
8
0
10
-305.398010
20
-95.724098
30
0.000000
11
-305.398010
21
-95.724098
31
-4.000000
12
-303.829987
22
-95.914398
32
0.000000
13
-303.829987
23
-95.914398
33
0.000000
0
3DFACE
8
0
10
-306.875000
20
-96.284203
30
-4.000000
11
-305.398010
21
-95.724098
31
-4.000000
12
-305.398010
22
-95.724098
32
0.000000
13
-305.398010
23
-95.724098
33
0.000000
0
3DFACE
8
0
10
-303.829987
20
-95.914398
30
0.000000
11
-303.829987
21
-95.914398
31
-4.000000
12
-302.529999
22
-96.811699
32
0.000000
13
-302.529999
23
-96.811699
33
0.000000
0
3DFACE
8
0
10
-305.398010
20
-95.724098
30
-4.000000
11
-303.829987
21
-95.914398
31
-4.000000
12
-303.829987
22
-95.914398
32
0.000000
13
-303.829987
23
-95.914398
33
0.000000
0
3DFACE
8
0
10
-302.529999
20
-96.811699
30
0.000000
11
-302.529999
21
-96.811699
31
-4.000000
12
-301.795990
22
-98.210297
32
0.000000
13
-301.795990
23
-98.210297
33
0.000000
0
3DFACE
8
0
10
-303.829987
20
-95.914398
30
-4.000000
11
-302.529999
21
-96.811699
31
-4.000000
12
-302.529999
22
-96.811699
32
0.000000
13
-302.529999
23
-96.811699
33
0.000000
0
3DFACE
8
0
10
-301.795990
20
-98.210297
30
0.000000
11
-301.795990
21
-98.210297
31
-4.000000
12
-301.795990
22
-99.789703
32
0.000000
13
-301.795990
23
-99.789703
33
0.000000
0
3DFACE
8
0
10
-302.529999
20
-96.811699
30
-4.000000
11
-301.795990
21
-98.210297
31
-4.000000
12
-301.795990
22
-98.210297
32
0.000000
13
-301.795990
23
-98.210297
33
0.000000
0
3DFACE
8
0
10
-301.795990
20
-99.789703
30
0.000000
11
-301.795990
21
-99.789703
31
-4.000000
12
-302.529999
22
-101.188004
32
0.000000
13
-302.529999
23
-101.188004
33
0.000000
0
3DFACE
8
0
10
-301.795990
20
-98.210297
30
-4.000000
11
-301.795990
21
-99.789703
31
-4.000000
12
-301.795990
22
-99.789703
32
0.000000
13
-301.795990
23
-99.789703
33
0.000000
0
3DFACE
8
0
10
-302.529999
20
-101.188004
30
0.000000
11
-302.529999
21
-101.188004
31
-4.000000
12
-303.829987
22
-102.085999
32
0.000000
13
-303.829987
23
-102.085999
33
0.000000
0
3DFACE
8
0
10
-301.795990
20
-99.789703
30
-4.000000
11
-302.529999
21
-101.188004
31
-4.000000
12
-302.529999
22
-101.188004
32
0.000000
13
-302.529999
23
-101.188004
33
0.000000
0
3DFACE
8
0
10
-303.829987
20
-102.085999
30
0.000000
11
-303.829987
21
-102.085999
31
-4.000000
12
-305.398010
22
-102.276001
32
0.000000
13
-305.398010
23
-102.276001
33
0.000000
0
3DFACE
8
0
10
-302.529999
20
-101.188004
30
-4.000000
11
-303.829987
21
-102.085999
31
-4.000000
12
-303.829987
22
-102.085999
32
0.000000
13
-303.829987
23
-102.085999
33
0.000000
0
3DFACE
8
0
10
-303.829987
20
-102.085999
30
-4.000000
11
-305.398010
21
-102.276001
31
-4.000000
12
-305.398010
22
-102.276001
32
0.000000
13
-305.398010
23
-102.276001
33
0.000000
0
3DFACE
8
0
10
-305.398010
20
-102.276001
30
0.000000
11
-306.875000
21
-101.716003
31
-4.000000
12
-306.875000
22
-101.716003
32
0.000000
13
-306.875000
23
-101.716003
33
0.000000
0
3DFACE
8
0
10
-306.875000
20
-101.716003
30
0.000000
11
-306.875000
21
-101.716003
31
-4.000000
12
-307.921997
22
-100.533997
32
0.000000
13
-307.921997
23
-100.533997
33
0.000000
0
3DFACE
8
0
10
-305.398010
20
-102.276001
30
-4.000000
11
-306.875000
21
-101.716003
31
-4.000000
12
-305.398010
22
-102.276001
32
0.000000
13
-305.398010
23
-102.276001
33
0.000000
0
3DFACE
8
0
10
-307.921997
20
-100.533997
30
0.000000
11
-307.921997
21
-100.533997
31
-4.000000
12
-308.299988
22
-99.000000
32
0.000000
13
-308.299988
23
-99.000000
33
0.000000
0
3DFACE
8
0
10
-306.875000
20
-101.716003
30
-4.000000
11
-307.921997
21
-100.533997
31
-4.000000
12
-307.921997
22
-100.533997
32
0.000000
13
-307.921997
23
-100.533997
33
0.000000
0
3DFACE
8
0
10
-307.921997
20
-100.533997
30
-4.000000
11
-308.299988
21
-99.000000
31
-4.000000
12
-308.299988
22
-99.000000
32
0.000000
13
-308.299988
23
-99.000000
33
0.000000
0
3DFACE
8
0
10
331.700012
20
30.000000
30
0.000000
11
331.700012
21
30.000000
31
-4.000000
12
332.078003
22
31.533600
32
0.000000
13
332.078003
23
31.533600
33
0.000000
0
3DFACE
8
0
10
332.078003
20
31.533600
30
0.000000
11
332.078003
21
31.533600
31
-4.000000
12
333.125000
22
32.715801
32
0.000000
13
333.125000
23
32.715801
33
0.000000
0
3DFACE
8
0
10
331.700012
20
30.000000
30
-4.000000
11
332.078003
21
31.533600
31
-4.000000
12
332.078003
22
31.533600
32
0.000000
13
332.078003
23
31.533600
33
0.000000
0
3DFACE
8
0
10
333.125000
20
32.715801
30
0.000000
11
333.125000
21
32.715801
31
-4.000000
12
334.601990
22
33.275902
32
0.000000
13
334.601990
23
33.275902
33
0.000000
0
3DFACE
8
0
10
332.078003
20
31.533600
30
-4.000000
11
333.125000
21
32.715801
31
-4.000000
12
333.125000
22
32.715801
32
0.000000
13
333.125000
23
32.715801
33
0.000000
0
3DFACE
8
0
10
334.601990
20
33.275902
30
0.000000
11
334.601990
21
33.275902
31
-4.000000
12
336.170013
22
33.085602
32
0.000000
13
336.170013
23
33.085602
33
0.000000
0
3DFACE
8
0
10
333.125000
20
32.715801
30
-4.000000
11
334.601990
21
33.275902
31
-4.000000
12
334.601990
22
33.275902
32
0.000000
13
334.601990
23
33.275902
33
0.000000
0
3DFACE
8
0
10
336.170013
20
33.085602
30
0.000000
11
336.170013
21
33.085602
31
-4.000000
12
337.470001
22
32.188301
32
0.000000
13
337.470001
23
32.188301
33
0.000000
0
3DFACE
8
0
10
334.601990
20
33.275902
30
-4.000000
11
336.170013
21
33.085602
31
-4.000000
12
336.170013
22
33.085602
32
0.000000
13
336.170013
23
33.085602
33
0.000000
0
3DFACE
8
0
10
337.470001
20
32.188301
30
0.000000
11
337.470001
21
32.188301
31
-4.000000
12
338.204010
22
30.789700
32
0.000000
13
338.204010
23
30.789700
33
0.000000
0
3DFACE
8
0
10
336.170013
20
33.085602
30
-4.000000
11
337.470001
21
32.188301
31
-4.000000
12
337.470001
22
32.188301
32
0.000000
13
337.470001
23
32.188301
33
0.000000
0
3DFACE
8
0
10
338.204010
20
30.789700
30
0.000000
11
338.204010
21
30.789700
31
-4.000000
12
338.204010
22
29.210300
32
0.000000
13
338.204010
23
29.210300
33
0.000000
0
3DFACE
8
0
10
337.470001
20
32.188301
30
-4.000000
11
338.204010
21
30.789700
31
-4.000000
12
338.204010
22
30.789700
32
0.000000
13
338.204010
23
30.789700
33
0.000000
0
3DFACE
8
0
10
338.204010
20
29.210300
30
0.000000
11
338.204010
21
29.210300
31
-4.000000
12
337.470001
22
27.811701
32
0.000000
13
337.470001
23
27.811701
33
0.000000
0
3DFACE
8
0
10
338.204010
20
30.789700
30
-4.000000
11
338.204010
21
29.210300
31
-4.000000
12
338.204010
22
29.210300
32
0.000000
13
338.204010
23
29.210300
33
0.000000
0
3DFACE
8
0
10
337.470001
20
27.811701
30
0.000000
11
337.470001
21
27.811701
31
-4.000000
12
336.170013
22
26.914400
32
0.000000
13
336.170013
23
26.914400
33
0.000000
0
3DFACE
8
0
10
338.204010
20
29.210300
30
-4.000000
11
337.470001
21
27.811701
31
-4.000000
12
337.470001
22
27.811701
32
0.000000
13
337.470001
23
27.811701
33
0.000000
0
3DFACE
8
0
10
336.170013
20
26.914400
30
0.000000
11
336.170013
21
26.914400
31
-4.000000
12
334.601990
22
26.724100
32
0.000000
13
334.601990
23
26.724100
33
0.000000
0
3DFACE
8
0
10
337.470001
20
27.811701
30
-4.000000
11
336.170013
21
26.914400
31
-4.000000
12
336.170013
22
26.914400
32
0.000000
13
336.170013
23
26.914400
33
0.000000
0
3DFACE
8
0
10
336.170013
20
26.914400
30
-4.000000
11
334.601990
21
26.724100
31
-4.000000
12
334.601990
22
26.724100
32
0.000000
13
334.601990
23
26.724100
33
0.000000
0
3DFACE
8
0
10
334.601990
20
26.724100
30
0.000000
11
333.125000
21
27.284201
31
-4.000000
12
333.125000
22
27.284201
32
0.000000
13
333.125000
23
27.284201
33
0.000000
0
3DFACE
8
0
10
333.125000
20
27.284201
30
0.000000
11
333.125000
21
27.284201
31
-4.000000
12
332.078003
22
28.466400
32
0.000000
13
332.078003
23
28.466400
33
0.000000
0
3DFACE
8
0
10
334.601990
20
26.724100
30
-4.000000
11
333.125000
21
27.284201
31
-4.000000
12
334.601990
22
26.724100
32
0.000000
13
334.601990
23
26.724100
33
0.000000
0
3DFACE
8
0
10
332.078003
20
28.466400
30
0.000000
11
332.078003
21
28.466400
31
-4.000000
12
331.700012
22
30.000000
32
0.000000
13
331.700012
23
30.000000
33
0.000000
0
3DFACE
8
0
10
333.125000
20
27.284201
30
-4.000000
11
332.078003
21
28.466400
31
-4.000000
12
332.078003
22
28.466400
32
0.000000
13
332.078003
23
28.466400
33
0.000000
0
3DFACE
8
0
10
332.078003
20
28.466400
30
-4.000000
11
331.700012
21
30.000000
31
-4.000000
12
331.700012
22
30.000000
32
0.000000
13
331.700012
23
30.000000
33
0.000000
0
3DFACE
8
0
10
-3.300000
20
135.000000
30
0.000000
11
-3.300000
21
135.000000
31
-4.000000
12
-2.922000
22
136.533997
32
0.000000
13
-2.922000
23
136.533997
33
0.000000
0
3DFACE
8
0
10
-2.922000
20
136.533997
30
0.000000
11
-2.922000
21
136.533997
31
-4.000000
12
-1.874600
22
137.716003
32
0.000000
13
-1.874600
23
137.716003
33
0.000000
0
3DFACE
8
0
10
-3.300000
20
135.000000
30
-4.000000
11
-2.922000
21
136.533997
31
-4.000000
12
-2.922000
22
136.533997
32
0.000000
13
-2.922000
23
136.533997
33
0.000000
0
3DFACE
8
0
10
-1.874600
20
137.716003
30
0.000000
11
-1.874600
21
137.716003
31
-4.000000
12
-0.397800
22
138.276001
32
0.000000
13
-0.397800
23
138.276001
33
0.000000
0
3DFACE
8
0
10
-2.922000
20
136.533997
30
-4.000000
11
-1.874600
21
137.716003
31
-4.000000
12
-1.874600
22
137.716003
32
0.000000
13
-1.874600
23
137.716003
33
0.000000
0
3DFACE
8
0
10
-0.397800
20
138.276001
30
0.000000
11
-0.397800
21
138.276001
31
-4.000000
12
1.170200
22
138.085999
32
0.000000
13
1.170200
23
138.085999
33
0.000000
0
3DFACE
8
0
10
-1.874600
20
137.716003
30
-4.000000
11
-0.397800
21
138.276001
31
-4.000000
12
-0.397800
22
138.276001
32
0.000000
13
-0.397800
23
138.276001
33
0.000000
0
3DFACE
8
0
10
1.170200
20
138.085999
30
0.000000
11
1.170200
21
138.085999
31
-4.000000
12
2.470100
22
137.188004
32
0.000000
13
2.470100
23
137.188004
33
0.000000
0
3DFACE
8
0
10
-0.397800
20
138.276001
30
-4.000000
11
1.170200
21
138.085999
31
-4.000000
12
1.170200
22
138.085999
32
0.000000
13
1.170200
23
138.085999
33
0.000000
0
3DFACE
8
0
10
2.470100
20
137.188004
30
0.000000
11
2.470100
21
137.188004
31
-4.000000
12
3.204100
22
135.789993
32
0.000000
13
3.204100
23
135.789993
33
0.000000
0
3DFACE
8
0
10
1.170200
20
138.085999
30
-4.000000
11
2.470100
21
137.188004
31
-4.000000
12
2.470100
22
137.188004
32
0.000000
13
2.470100
23
137.188004
33
0.000000
0
3DFACE
8
0
10
3.204100
20
135.789993
30
0.000000
11
3.204100
21
135.789993
31
-4.000000
12
3.204100
22
134.210007
32
0.000000
13
3.204100
23
134.210007
33
0.000000
0
3DFACE
8
0
10
2.470100
20
137.188004
30
-4.000000
11
3.204100
21
135.789993
31
-4.000000
12
3.204100
22
135.789993
32
0.000000
13
3.204100
23
135.789993
33
0.000000
0
3DFACE
8
0
10
3.204100
20
134.210007
30
0.000000
11
3.204100
21
134.210007
31
-4.000000
12
2.470100
22
132.811996
32
0.000000
13
2.470100
23
132.811996
33
0.000000
0
3DFACE
8
0
10
3.204100
20
135.789993
30
-4.000000
11
3.204100
21
134.210007
31
-4.000000
12
3.204100
22
134.210007
32
0.000000
13
3.204100
23
134.210007
33
0.000000
0
3DFACE
8
0
10
2.470100
20
132.811996
30
0.000000
11
2.470100
21
132.811996
31
-4.000000
12
1.170200
22
131.914001
32
0.000000
13
1.170200
23
131.914001
33
0.000000
0
3DFACE
8
0
10
3.204100
20
134.210007
30
-4.000000
11
2.470100
21
132.811996
31
-4.000000
12
2.470100
22
132.811996
32
0.000000
13
2.470100
23
132.811996
33
0.000000
0
3DFACE
8
0
10
1.170200
20
131.914001
30
0.000000
11
1.170200
21
131.914001
31
-4.000000
12
-0.397800
22
131.723999
32
0.000000
13
-0.397800
23
131.723999
33
0.000000
0
3DFACE
8
0
10
2.470100
20
132.811996
30
-4.000000
11
1.170200
21
131.914001
31
-4.000000
12
1.170200
22
131.914001
32
0.000000
13
1.170200
23
131.914001
33
0.000000
0
3DFACE
8
0
10
1.170200
20
131.914001
30
-4.000000
11
-0.397800
21
131.723999
31
-4.000000
12
-0.397800
22
131.723999
32
0.000000
13
-0.397800
23
131.723999
33
0.000000
0
3DFACE
8
0
10
-0.397800
20
131.723999
30
0.000000
11
-1.874600
21
132.283997
31
-4.000000
12
-1.874600
22
132.283997
32
0.000000
13
-1.874600
23
132.283997
33
0.000000
0
3DFACE
8
0
10
-1.874600
20
132.283997
30
0.000000
11
-1.874600
21
132.283997
31
-4.000000
12
-2.922000
22
133.466003
32
0.000000
13
-2.922000
23
133.466003
33
0.000000
0
3DFACE
8
0
10
-0.397800
20
131.723999
30
-4.000000
11
-1.874600
21
132.283997
31
-4.000000
12
-0.397800
22
131.723999
32
0.000000
13
-0.397800
23
131.723999
33
0.000000
0
3DFACE
8
0
10
-2.922000
20
133.466003
30
0.000000
11
-2.922000
21
133.466003
31
-4.000000
12
-3.300000
22
135.000000
32
0.000000
13
-3.300000
23
135.000000
33
0.000000
0
3DFACE
8
0
10
-1.874600
20
132.283997
30
-4.000000
11
-2.922000
21
133.466003
31
-4.000000
12
-2.922000
22
133.466003
32
0.000000
13
-2.922000
23
133.466003
33
0.000000
0
3DFACE
8
0
10
-2.922000
20
133.466003
30
-4.000000
11
-3.300000
21
135.000000
31
-4.000000
12
-3.300000
22
135.000000
32
0.000000
13
-3.300000
23
135.000000
33
0.000000
0
3DFACE
8
0
10
-338.299988
20
30.000000
30
0.000000
11
-338.299988
21
30.000000
31
-4.000000
12
-337.921997
22
31.533600
32
0.000000
13
-337.921997
23
31.533600
33
0.000000
0
3DFACE
8
0
10
-337.921997
20
31.533600
30
0.000000
11
-337.921997
21
31.533600
31
-4.000000
12
-336.875000
22
32.715801
32
0.000000
13
-336.875000
23
32.715801
33
0.000000
0
3DFACE
8
0
10
-338.299988
20
30.000000
30
-4.000000
11
-337.921997
21
31.533600
31
-4.000000
12
-337.921997
22
31.533600
32
0.000000
13
-337.921997
23
31.533600
33
0.000000
0
3DFACE
8
0
10
-336.875000
20
32.715801
30
0.000000
11
-336.875000
21
32.715801
31
-4.000000
12
-335.398010
22
33.275902
32
0.000000
13
-335.398010
23
33.275902
33
0.000000
0
3DFACE
8
0
10
-337.921997
20
31.533600
30
-4.000000
11
-336.875000
21
32.715801
31
-4.000000
12
-336.875000
22
32.715801
32
0.000000
13
-336.875000
23
32.715801
33
0.000000
0
3DFACE
8
0
10
-335.398010
20
33.275902
30
0.000000
11
-335.398010
21
33.275902
31
-4.000000
12
-333.829987
22
33.085602
32
0.000000
13
-333.829987
23
33.085602
33
0.000000
0
3DFACE
8
0
10
-336.875000
20
32.715801
30
-4.000000
11
-335.398010
21
33.275902
31
-4.000000
12
-335.398010
22
33.275902
32
0.000000
13
-335.398010
23
33.275902
33
0.000000
0
3DFACE
8
0
10
-333.829987
20
33.085602
30
0.000000
11
-333.829987
21
33.085602
31
-4.000000
12
-332.529999
22
32.188301
32
0.000000
13
-332.529999
23
32.188301
33
0.000000
0
3DFACE
8
0
10
-335.398010
20
33.275902
30
-4.000000
11
-333.829987
21
33.085602
31
-4.000000
12
-333.829987
22
33.085602
32
0.000000
13
-333.829987
23
33.085602
33
0.000000
0
3DFACE
8
0
10
-332.529999
20
32.188301
30
0.000000
11
-332.529999
21
32.188301
31
-4.000000
12
-331.795990
22
30.789700
32
0.000000
13
-331.795990
23
30.789700
33
0.000000
0
3DFACE
8
0
10
-333.829987
20
33.085602
30
-4.000000
11
-332.529999
21
32.188301
31
-4.000000
12
-332.529999
22
32.188301
32
0.000000
13
-332.529999
23
32.188301
33
0.000000
0
3DFACE
8
0
10
-331.795990
20
30.789700
30
0.000000
11
-331.795990
21
30.789700
31
-4.000000
12
-331.795990
22
29.210300
32
0.000000
13
-331.795990
23
29.210300
33
0.000000
0
3DFACE
8
0
10
-332.529999
20
32.188301
30
-4.000000
11
-331.795990
21
30.789700
31
-4.000000
12
-331.795990
22
30.789700
32
0.000000
13
-331.795990
23
30.789700
33
0.000000
0
3DFACE
8
0
10
-331.795990
20
29.210300
30
0.000000
11
-331.795990
21
29.210300
31
-4.000000
12
-332.529999
22
27.811701
32
0.000000
13
-332.529999
23
27.811701
33
0.000000
0
3DFACE
8
0
10
-331.795990
20
30.789700
30
-4.000000
11
-331.795990
21
29.210300
31
-4.000000
12
-331.795990
22
29.210300
32
0.000000
13
-331.795990
23
29.210300
33
0.000000
0
3DFACE
8
0
10
-332.529999
20
27.811701
30
0.000000
11
-332.529999
21
27.811701
31
-4.000000
12
-333.829987
22
26.914400
32
0.000000
13
-333.829987
23
26.914400
33
0.000000
0
3DFACE
8
0
10
-331.795990
20
29.210300
30
-4.000000
11
-332.529999
21
27.811701
31
-4.000000
12
-332.529999
22
27.811701
32
0.000000
13
-332.529999
23
27.811701
33
0.000000
0
3DFACE
8
0
10
-333.829987
20
26.914400
30
0.000000
11
-333.829987
21
26.914400
31
-4.000000
12
-335.398010
22
26.724100
32
0.000000
13
-335.398010
23
26.724100
33
0.000000
0
3DFACE
8
0
10
-332.529999
20
27.811701
30
-4.000000
11
-333.829987
21
26.914400
31
-4.000000
12
-333.829987
22
26.914400
32
0.000000
13
-333.829987
23
26.914400
33
0.000000
0
3DFACE
8
0
10
-333.829987
20
26.914400
30
-4.000000
11
-335.398010
21
26.724100
31
-4.000000
12
-335.398010
22
26.724100
32
0.000000
13
-335.398010
23
26.724100
33
0.000000
0
3DFACE
8
0
10
-335.398010
20
26.724100
30
0.000000
11
-336.875000
21
27.284201
31
-4.000000
12
-336.875000
22
27.284201
32
0.000000
13
-336.875000
23
27.284201
33
0.000000
0
3DFACE
8
0
10
-336.875000
20
27.284201
30
0.000000
11
-336.875000
21
27.284201
31
-4.000000
12
-337.921997
22
28.466400
32
0.000000
13
-337.921997
23
28.466400
33
0.000000
0
3DFACE
8
0
10
-335.398010
20
26.724100
30
-4.000000
11
-336.875000
21
27.284201
31
-4.000000
12
-335.398010
22
26.724100
32
0.000000
13
-335.398010
23
26.724100
33
0.000000
0
3DFACE
8
0
10
-337.921997
20
28.466400
30
0.000000
11
-337.921997
21
28.466400
31
-4.000000
12
-338.299988
22
30.000000
32
0.000000
13
-338.299988
23
30.000000
33
0.000000
0
3DFACE
8
0
10
-336.875000
20
27.284201
30
-4.000000
11
-337.921997
21
28.466400
31
-4.000000
12
-337.921997
22
28.466400
32
0.000000
13
-337.921997
23
28.466400
33
0.000000
0
3DFACE
8
0
10
-337.921997
20
28.466400
30
-4.000000
11
-338.299988
21
30.000000
31
-4.000000
12
-338.299988
22
30.000000
32
0.000000
13
-338.299988
23
30.000000
33
0.000000
0
3DFACE
8
0
10
-338.299988
20
-99.000000
30
0.000000
11
-338.299988
21
-99.000000
31
-4.000000
12
-337.921997
22
-97.466400
32
0.000000
13
-337.921997
23
-97.466400
33
0.000000
0
3DFACE
8
0
10
-337.921997
20
-97.466400
30
0.000000
11
-337.921997
21
-97.466400
31
-4.000000
12
-336.875000
22
-96.284203
32
0.000000
13
-336.875000
23
-96.284203
33
0.000000
0
3DFACE
8
0
10
-338.299988
20
-99.000000
30
-4.000000
11
-337.921997
21
-97.466400
31
-4.000000
12
-337.921997
22
-97.466400
32
0.000000
13
-337.921997
23
-97.466400
33
0.000000
0
3DFACE
8
0
10
-336.875000
20
-96.284203
30
0.000000
11
-336.875000
21
-96.284203
31
-4.000000
12
-335.398010
22
-95.724098
32
0.000000
13
-335.398010
23
-95.724098
33
0.000000
0
3DFACE
8
0
10
-337.921997
20
-97.466400
30
-4.000000
11
-336.875000
21
-96.284203
31
-4.000000
12
-336.875000
22
-96.284203
32
0.000000
13
-336.875000
23
-96.284203
33
0.000000
0
3DFACE
8
0
10
-335.398010
20
-95.724098
30
0.000000
11
-335.398010
21
-95.724098
31
-4.000000
12
-333.829987
22
-95.914398
32
0.000000
13
-333.829987
23
-95.914398
33
0.000000
0
3DFACE
8
0
10
-336.875000
20
-96.284203
30
-4.000000
11
-335.398010
21
-95.724098
31
-4.000000
12
-335.398010
22
-95.724098
32
0.000000
13
-335.398010
23
-95.724098
33
0.000000
0
3DFACE
8
0
10
-333.829987
20
-95.914398
30
0.000000
11
-333.829987
21
-95.914398
31
-4.000000
12
-332.529999
22
-96.811699
32
0.000000
13
-332.529999
23
-96.811699
33
0.000000
0
3DFACE
8
0
10
-335.398010
20
-95.724098
30
-4.000000
11
-333.829987
21
-95.914398
31
-4.000000
12
-333.829987
22
-95.914398
32
0.000000
13
-333.829987
23
-95.914398
33
0.000000
0
3DFACE
8
0
10
-332.529999
20
-96.811699
30
0.000000
11
-332.529999
21
-96.811699
31
-4.000000
12
-331.795990
22
-98.210297
32
0.000000
13
-331.795990
23
-98.210297
33
0.000000
0
3DFACE
8
0
10
-333.829987
20
-95.914398
30
-4.000000
11
-332.529999
21
-96.811699
31
-4.000000
12
-332.529999
22
-96.811699
32
0.000000
13
-332.529999
23
-96.811699
33
0.000000
0
3DFACE
8
0
10
-331.795990
20
-98.210297
30
0.000000
11
-331.795990
21
-98.210297
31
-4.000000
12
-331.795990
22
-99.789703
32
0.000000
13
-331.795990
23
-99.789703
33
0.000000
0
3DFACE
8
0
10
-332.529999
20
-96.811699
30
-4.000000
11
-331.795990
21
-98.210297
31
-4.000000
12
-331.795990
22
-98.210297
32
0.000000
13
-331.795990
23
-98.210297
33
0.000000
0
3DFACE
8
0
10
-331.795990
20
-99.789703
30
0.000000
11
-331.795990
21
-99.789703
31
-4.000000
12
-332.529999
22
-101.188004
32
0.000000
13
-332.529999
23
-101.188004
33
0.000000
0
3DFACE
8
0
10
-331.795990
20
-98.210297
30
-4.000000
11
-331.795990
21
-99.789703
31
-4.000000
12
-331.795990
22
-99.789703
32
0.000000
13
-331.795990
23
-99.789703
33
0.000000
0
3DFACE
8
0
10
-332.529999
20
-101.188004
30
0.000000
11
-332.529999
21
-101.188004
31
-4.000000
12
-333.829987
22
-102.085999
32
0.000000
13
-333.829987
23
-102.085999
33
0.000000
0
3DFACE
8
0
10
-331.795990
20
-99.789703
30
-4.000000
11
-332.529999
21
-101.188004
31
-4.000000
12
-332.529999
22
-101.188004
32
0.000000
13
-332.529999
23
-101.188004
33
0.000000
0
3DFACE
8
0
10
-333.829987
20
-102.085999
30
0.000000
11
-333.829987
21
-102.085999
31
-4.000000
12
-335.398010
22
-102.276001
32
0.000000
13
-335.398010
23
-102.276001
33
0.000000
0
3DFACE
8
0
10
-332.529999
20
-101.188004
30
-4.000000
11
-333.829987
21
-102.085999
31
-4.000000
12
-333.829987
22
-102.085999
32
0.000000
13
-333.829987
23
-102.085999
33
0.000000
0
3DFACE
8
0
10
-333.829987
20
-102.085999
30
-4.000000
11
-335.398010
21
-102.276001
31
-4.000000
12
-335.398010
22
-102.276001
32
0.000000
13
-335.398010
23
-102.276001
33
0.000000
0
3DFACE
8
0
10
-335.398010
20
-102.276001
30
0.000000
11
-336.875000
21
-101.716003
31
-4.000000
12
-336.875000
22
-101.716003
32
0.000000
13
-336.875000
23
-101.716003
33
0.000000
0
3DFACE
8
0
10
-336.875000
20
-101.716003
30
0.000000
11
-336.875000
21
-101.716003
31
-4.000000
12
-337.921997
22
-100.533997
32
0.000000
13
-337.921997
23
-100.533997
33
0.000000
0
3DFACE
8
0
10
-335.398010
20
-102.276001
30
-4.000000
11
-336.875000
21
-101.716003
31
-4.000000
12
-335.398010
22
-102.276001
32
0.000000
13
-335.398010
23
-102.276001
33
0.000000
0
3DFACE
8
0
10
-337.921997
20
-100.533997
30
0.000000
11
-337.921997
21
-100.533997
31
-4.000000
12
-338.299988
22
-99.000000
32
0.000000
13
-338.299988
23
-99.000000
33
0.000000
0
3DFACE
8
0
10
-336.875000
20
-101.716003
30
-4.000000
11
-337.921997
21
-100.533997
31
-4.000000
12
-337.921997
22
-100.533997
32
0.000000
13
-337.921997
23
-100.533997
33
0.000000
0
3DFACE
8
0
10
-337.921997
20
-100.533997
30
-4.000000
11
-338.299988
21
-99.000000
31
-4.000000
12
-338.299988
22
-99.000000
32
0.000000
13
-338.299988
23
-99.000000
33
0.000000
0
3DFACE
8
0
10
-233.300003
20
135.000000
30
0.000000
11
-233.300003
21
135.000000
31
-4.000000
12
-232.921997
22
136.533997
32
0.000000
13
-232.921997
23
136.533997
33
0.000000
0
3DFACE
8
0
10
-232.921997
20
136.533997
30
0.000000
11
-232.921997
21
136.533997
31
-4.000000
12
-231.875000
22
137.716003
32
0.000000
13
-231.875000
23
137.716003
33
0.000000
0
3DFACE
8
0
10
-233.300003
20
135.000000
30
-4.000000
11
-232.921997
21
136.533997
31
-4.000000
12
-232.921997
22
136.533997
32
0.000000
13
-232.921997
23
136.533997
33
0.000000
0
3DFACE
8
0
10
-231.875000
20
137.716003
30
0.000000
11
-231.875000
21
137.716003
31
-4.000000
12
-230.397995
22
138.276001
32
0.000000
13
-230.397995
23
138.276001
33
0.000000
0
3DFACE
8
0
10
-232.921997
20
136.533997
30
-4.000000
11
-231.875000
21
137.716003
31
-4.000000
12
-231.875000
22
137.716003
32
0.000000
13
-231.875000
23
137.716003
33
0.000000
0
3DFACE
8
0
10
-230.397995
20
138.276001
30
0.000000
11
-230.397995
21
138.276001
31
-4.000000
12
-228.830002
22
138.085999
32
0.000000
13
-228.830002
23
138.085999
33
0.000000
0
3DFACE
8
0
10
-231.875000
20
137.716003
30
-4.000000
11
-230.397995
21
138.276001
31
-4.000000
12
-230.397995
22
138.276001
32
0.000000
13
-230.397995
23
138.276001
33
0.000000
0
3DFACE
8
0
10
-228.830002
20
138.085999
30
0.000000
11
-228.830002
21
138.085999
31
-4.000000
12
-227.529999
22
137.188004
32
0.000000
13
-227.529999
23
137.188004
33
0.000000
0
3DFACE
8
0
10
-230.397995
20
138.276001
30
-4.000000
11
-228.830002
21
138.085999
31
-4.000000
12
-228.830002
22
138.085999
32
0.000000
13
-228.830002
23
138.085999
33
0.000000
0
3DFACE
8
0
10
-227.529999
20
137.188004
30
0.000000
11
-227.529999
21
137.188004
31
-4.000000
12
-226.796005
22
135.789993
32
0.000000
13
-226.796005
23
135.789993
33
0.000000
0
3DFACE
8
0
10
-228.830002
20
138.085999
30
-4.000000
11
-227.529999
21
137.188004
31
-4.000000
12
-227.529999
22
137.188004
32
0.000000
13
-227.529999
23
137.188004
33
0.000000
0
3DFACE
8
0
10
-226.796005
20
135.789993
30
0.000000
11
-226.796005
21
135.789993
31
-4.000000
12
-226.796005
22
134.210007
32
0.000000
13
-226.796005
23
134.210007
33
0.000000
0
3DFACE
8
0
10
-227.529999
20
137.188004
30
-4.000000
11
-226.796005
21
135.789993
31
-4.000000
12
-226.796005
22
135.789993
32
0.000000
13
-226.796005
23
135.789993
33
0.000000
0
3DFACE
8
0
10
-226.796005
20
134.210007
30
0.000000
11
-226.796005
21
134.210007
31
-4.000000
12
-227.529999
22
132.811996
32
0.000000
13
-227.529999
23
132.811996
33
0.000000
0
3DFACE
8
0
10
-226.796005
20
135.789993
30
-4.000000
11
-226.796005
21
134.210007
31
-4.000000
12
-226.796005
22
134.210007
32
0.000000
13
-226.796005
23
134.210007
33
0.000000
0
3DFACE
8
0
10
-227.529999
20
132.811996
30
0.000000
11
-227.529999
21
132.811996
31
-4.000000
12
-228.830002
22
131.914001
32
0.000000
13
-228.830002
23
131.914001
33
0.000000
0
3DFACE
8
0
10
-226.796005
20
134.210007
30
-4.000000
11
-227.529999
21
132.811996
31
-4.000000
12
-227.529999
22
132.811996
32
0.000000
13
-227.529999
23
132.811996
33
0.000000
0
3DFACE
8
0
10
-228.830002
20
131.914001
30
0.000000
11
-228.830002
21
131.914001
31
-4.000000
12
-230.397995
22
131.723999
32
0.000000
13
-230.397995
23
131.723999
33
0.000000
0
3DFACE
8
0
10
-227.529999
20
132.811996
30
-4.000000
11
-228.830002
21
131.914001
31
-4.000000
12
-228.830002
22
131.914001
32
0.000000
13
-228.830002
23
131.914001
33
0.000000
0
3DFACE
8
0
10
-228.830002
20
131.914001
30
-4.000000
11
-230.397995
21
131.723999
31
-4.000000
12
-230.397995
22
131.723999
32
0.000000
13
-230.397995
23
131.723999
33
0.000000
0
3DFACE
8
0
10
-230.397995
20
131.723999
30
0.000000
11
-231.875000
21
132.283997
31
-4.000000
12
-231.875000
22
132.283997
32
0.000000
13
-231.875000
23
132.283997
33
0.000000
0
3DFACE
8
0
10
-231.875000
20
132.283997
30
0.000000
11
-231.875000
21
132.283997
31
-4.000000
12
-232.921997
22
133.466003
32
0.000000
13
-232.921997
23
133.466003
33
0.000000
0
3DFACE
8
0
10
-230.397995
20
131.723999
30
-4.000000
11
-231.875000
21
132.283997
31
-4.000000
12
-230.397995
22
131.723999
32
0.000000
13
-230.397995
23
131.723999
33
0.000000
0
3DFACE
8
0
10
-232.921997
20
133.466003
30
0.000000
11
-232.921997
21
133.466003
31
-4.000000
12
-233.300003
22
135.000000
32
0.000000
13
-233.300003
23
135.000000
33
0.000000
0
3DFACE
8
0
10
-231.875000
20
132.283997
30
-4.000000
11
-232.921997
21
133.466003
31
-4.000000
12
-232.921997
22
133.466003
32
0.000000
13
-232.921997
23
133.466003
33
0.000000
0
3DFACE
8
0
10
-232.921997
20
133.466003
30
-4.000000
11
-233.300003
21
135.000000
31
-4.000000
12
-233.300003
22
135.000000
32
0.000000
13
-233.300003
23
135.000000
33
0.000000
0
3DFACE
8
0
10
226.699997
20
135.000000
30
0.000000
11
226.699997
21
135.000000
31
-4.000000
12
227.078003
22
136.533997
32
0.000000
13
227.078003
23
136.533997
33
0.000000
0
3DFACE
8
0
10
227.078003
20
136.533997
30
0.000000
11
227.078003
21
136.533997
31
-4.000000
12
228.125000
22
137.716003
32
0.000000
13
228.125000
23
137.716003
33
0.000000
0
3DFACE
8
0
10
226.699997
20
135.000000
30
-4.000000
11
227.078003
21
136.533997
31
-4.000000
12
227.078003
22
136.533997
32
0.000000
13
227.078003
23
136.533997
33
0.000000
0
3DFACE
8
0
10
228.125000
20
137.716003
30
0.000000
11
228.125000
21
137.716003
31
-4.000000
12
229.602005
22
138.276001
32
0.000000
13
229.602005
23
138.276001
33
0.000000
0
3DFACE
8
0
10
227.078003
20
136.533997
30
-4.000000
11
228.125000
21
137.716003
31
-4.000000
12
228.125000
22
137.716003
32
0.000000
13
228.125000
23
137.716003
33
0.000000
0
3DFACE
8
0
10
229.602005
20
138.276001
30
0.000000
11
229.602005
21
138.276001
31
-4.000000
12
231.169998
22
138.085999
32
0.000000
13
231.169998
23
138.085999
33
0.000000
0
3DFACE
8
0
10
228.125000
20
137.716003
30
-4.000000
11
229.602005
21
138.276001
31
-4.000000
12
229.602005
22
138.276001
32
0.000000
13
229.602005
23
138.276001
33
0.000000
0
3DFACE
8
0
10
231.169998
20
138.085999
30
0.000000
11
231.169998
21
138.085999
31
-4.000000
12
232.470001
22
137.188004
32
0.000000
13
232.470001
23
137.188004
33
0.000000
0
3DFACE
8
0
10
229.602005
20
138.276001
30
-4.000000
11
231.169998
21
138.085999
31
-4.000000
12
231.169998
22
138.085999
32
0.000000
13
231.169998
23
138.085999
33
0.000000
0
3DFACE
8
0
10
232.470001
20
137.188004
30
0.000000
11
232.470001
21
137.188004
31
-4.000000
12
233.203995
22
135.789993
32
0.000000
13
233.203995
23
135.789993
33
0.000000
0
3DFACE
8
0
10
231.169998
20
138.085999
30
-4.000000
11
232.470001
21
137.188004
31
-4.000000
12
232.470001
22
137.188004
32
0.000000
13
232.470001
23
137.188004
33
0.000000
0
3DFACE
8
0
10
233.203995
20
135.789993
30
0.000000
11
233.203995
21
135.789993
31
-4.000000
12
233.203995
22
134.210007
32
0.000000
13
233.203995
23
134.210007
33
0.000000
0
3DFACE
8
0
10
232.470001
20
137.188004
30
-4.000000
11
233.203995
21
135.789993
31
-4.000000
12
233.203995
22
135.789993
32
0.000000
13
233.203995
23
135.789993
33
0.000000
0
3DFACE
8
0
10
233.203995
20
134.210007
30
0.000000
11
233.203995
21
134.210007
31
-4.000000
12
232.470001
22
132.811996
32
0.000000
13
232.470001
23
132.811996
33
0.000000
0
3DFACE
8
0
10
233.203995
20
135.789993
30
-4.000000
11
233.203995
21
134.210007
31
-4.000000
12
233.203995
22
134.210007
32
0.000000
13
233.203995
23
134.210007
33
0.000000
0
3DFACE
8
0
10
232.470001
20
132.811996
30
0.000000
11
232.470001
21
132.811996
31
-4.000000
12
231.169998
22
131.914001
32
0.000000
13
231.169998
23
131.914001
33
0.000000
0
3DFACE
8
0
10
233.203995
20
134.210007
30
-4.000000
11
232.470001
21
132.811996
31
-4.000000
12
232.470001
22
132.811996
32
0.000000
13
232.470001
23
132.811996
33
0.000000
0
3DFACE
8
0
10
231.169998
20
131.914001
30
0.000000
11
231.169998
21
131.914001
31
-4.000000
12
229.602005
22
131.723999
32
0.000000
13
229.602005
23
131.723999
33
0.000000
0
3DFACE
8
0
10
232.470001
20
132.811996
30
-4.000000
11
231.169998
21
131.914001
31
-4.000000
12
231.169998
22
131.914001
32
0.000000
13
231.169998
23
131.914001
33
0.000000
0
3DFACE
8
0
10
231.169998
20
131.914001
30
-4.000000
11
229.602005
21
131.723999
31
-4.000000
12
229.602005
22
131.723999
32
0.000000
13
229.602005
23
131.723999
33
0.000000
0
3DFACE
8
0
10
229.602005
20
131.723999
30
0.000000
11
228.125000
21
132.283997
31
-4.000000
12
228.125000
22
132.283997
32
0.000000
13
228.125000
23
132.283997
33
0.000000
0
3DFACE
8
0
10
228.125000
20
132.283997
30
0.000000
11
228.125000
21
132.283997
31
-4.000000
12
227.078003
22
133.466003
32
0.000000
13
227.078003
23
133.466003
33
0.000000
0
3DFACE
8
0
10
229.602005
20
131.723999
30
-4.000000
11
228.125000
21
132.283997
31
-4.000000
12
229.602005
22
131.723999
32
0.000000
13
229.602005
23
131.723999
33
0.000000
0
3DFACE
8
0
10
227.078003
20
133.466003
30
0.000000
11
227.078003
21
133.466003
31
-4.000000
12
226.699997
22
135.000000
32
0.000000
13
226.699997
23
135.000000
33
0.000000
0
3DFACE
8
0
10
228.125000
20
132.283997
30
-4.000000
11
227.078003
21
133.466003
31
-4.000000
12
227.078003
22
133.466003
32
0.000000
13
227.078003
23
133.466003
33
0.000000
0
3DFACE
8
0
10
227.078003
20
133.466003
30
-4.000000
11
226.699997
21
135.000000
31
-4.000000
12
226.699997
22
135.000000
32
0.000000
13
226.699997
23
135.000000
33
0.000000
0
3DFACE
8
0
10
331.700012
20
-99.000000
30
0.000000
11
331.700012
21
-99.000000
31
-4.000000
12
332.078003
22
-97.466400
32
0.000000
13
332.078003
23
-97.466400
33
0.000000
0
3DFACE
8
0
10
332.078003
20
-97.466400
30
0.000000
11
332.078003
21
-97.466400
31
-4.000000
12
333.125000
22
-96.284203
32
0.000000
13
333.125000
23
-96.284203
33
0.000000
0
3DFACE
8
0
10
331.700012
20
-99.000000
30
-4.000000
11
332.078003
21
-97.466400
31
-4.000000
12
332.078003
22
-97.466400
32
0.000000
13
332.078003
23
-97.466400
33
0.000000
0
3DFACE
8
0
10
333.125000
20
-96.284203
30
0.000000
11
333.125000
21
-96.284203
31
-4.000000
12
334.601990
22
-95.724098
32
0.000000
13
334.601990
23
-95.724098
33
0.000000
0
3DFACE
8
0
10
332.078003
20
-97.466400
30
-4.000000
11
333.125000
21
-96.284203
31
-4.000000
12
333.125000
22
-96.284203
32
0.000000
13
333.125000
23
-96.284203
33
0.000000
0
3DFACE
8
0
10
334.601990
20
-95.724098
30
0.000000
11
334.601990
21
-95.724098
31
-4.000000
12
336.170013
22
-95.914398
32
0.000000
13
336.170013
23
-95.914398
33
0.000000
0
3DFACE
8
0
10
333.125000
20
-96.284203
30
-4.000000
11
334.601990
21
-95.724098
31
-4.000000
12
334.601990
22
-95.724098
32
0.000000
13
334.601990
23
-95.724098
33
0.000000
0
3DFACE
8
0
10
336.170013
20
-95.914398
30
0.000000
11
336.170013
21
-95.914398
31
-4.000000
12
337.470001
22
-96.811699
32
0.000000
13
337.470001
23
-96.811699
33
0.000000
0
3DFACE
8
0
10
334.601990
20
-95.724098
30
-4.000000
11
336.170013
21
-95.914398
31
-4.000000
12
336.170013
22
-95.914398
32
0.000000
13
336.170013
23
-95.914398
33
0.000000
0
3DFACE
8
0
10
337.470001
20
-96.811699
30
0.000000
11
337.470001
21
-96.811699
31
-4.000000
12
338.204010
22
-98.210297
32
0.000000
13
338.204010
23
-98.210297
33
0.000000
0
3DFACE
8
0
10
336.170013
20
-95.914398
30
-4.000000
11
337.470001
21
-96.811699
31
-4.000000
12
337.470001
22
-96.811699
32
0.000000
13
337.470001
23
-96.811699
33
0.000000
0
3DFACE
8
0
10
338.204010
20
-98.210297
30
0.000000
11
338.204010
21
-98.210297
31
-4.000000
12
338.204010
22
-99.789703
32
0.000000
13
338.204010
23
-99.789703
33
0.000000
0
3DFACE
8
0
10
337.470001
20
-96.811699
30
-4.000000
11
338.204010
21
-98.210297
31
-4.000000
12
338.204010
22
-98.210297
32
0.000000
13
338.204010
23
-98.210297
33
0.000000
0
3DFACE
8
0
10
338.204010
20
-99.789703
30
0.000000
11
338.204010
21
-99.789703
31
-4.000000
12
337.470001
22
-101.188004
32
0.000000
13
337.470001
23
-101.188004
33
0.000000
0
3DFACE
8
0
10
338.204010
20
-98.210297
30
-4.000000
11
338.204010
21
-99.789703
31
-4.000000
12
338.204010
22
-99.789703
32
0.000000
13
338.204010
23
-99.789703
33
0.000000
0
3DFACE
8
0
10
337.470001
20
-101.188004
30
0.000000
11
337.470001
21
-101.188004
31
-4.000000
12
336.170013
22
-102.085999
32
0.000000
13
336.170013
23
-102.085999
33
0.000000
0
3DFACE
8
0
10
338.204010
20
-99.789703
30
-4.000000
11
337.470001
21
-101.188004
31
-4.000000
12
337.470001
22
-101.188004
32
0.000000
13
337.470001
23
-101.188004
33
0.000000
0
3DFACE
8
0
10
336.170013
20
-102.085999
30
0.000000
11
336.170013
21
-102.085999
31
-4.000000
12
334.601990
22
-102.276001
32
0.000000
13
334.601990
23
-102.276001
33
0.000000
0
3DFACE
8
0
10
337.470001
20
-101.188004
30
-4.000000
11
336.170013
21
-102.085999
31
-4.000000
12
336.170013
22
-102.085999
32
0.000000
13
336.170013
23
-102.085999
33
0.000000
0
3DFACE
8
0
10
336.170013
20
-102.085999
30
-4.000000
11
334.601990
21
-102.276001
31
-4.000000
12
334.601990
22
-102.276001
32
0.000000
13
334.601990
23
-102.276001
33
0.000000
0
3DFACE
8
0
10
334.601990
20
-102.276001
30
0.000000
11
333.125000
21
-101.716003
31
-4.000000
12
333.125000
22
-101.716003
32
0.000000
13
333.125000
23
-101.716003
33
0.000000
0
3DFACE
8
0
10
333.125000
20
-101.716003
30
0.000000
11
333.125000
21
-101.716003
31
-4.000000
12
332.078003
22
-100.533997
32
0.000000
13
332.078003
23
-100.533997
33
0.000000
0
3DFACE
8
0
10
334.601990
20
-102.276001
30
-4.000000
11
333.125000
21
-101.716003
31
-4.000000
12
334.601990
22
-102.276001
32
0.000000
13
334.601990
23
-102.276001
33
0.000000
0
3DFACE
8
0
10
332.078003
20
-100.533997
30
0.000000
11
332.078003
21
-100.533997
31
-4.000000
12
331.700012
22
-99.000000
32
0.000000
13
331.700012
23
-99.000000
33
0.000000
0
3DFACE
8
0
10
333.125000
20
-101.716003
30
-4.000000
11
332.078003
21
-100.533997
31
-4.000000
12
332.078003
22
-100.533997
32
0.000000
13
332.078003
23
-100.533997
33
0.000000
0
3DFACE
8
0
10
332.078003
20
-100.533997
30
-4.000000
11
331.700012
21
-99.000000
31
-4.000000
12
331.700012
22
-99.000000
32
0.000000
13
331.700012
23
-99.000000
33
0.000000
0
3DFACE
8
0
10
301.700012
20
-99.000000
30
0.000000
11
301.700012
21
-99.000000
31
-4.000000
12
302.078003
22
-97.466400
32
0.000000
13
302.078003
23
-97.466400
33
0.000000
0
3DFACE
8
0
10
302.078003
20
-97.466400
30
0.000000
11
302.078003
21
-97.466400
31
-4.000000
12
303.125000
22
-96.284203
32
0.000000
13
303.125000
23
-96.284203
33
0.000000
0
3DFACE
8
0
10
301.700012
20
-99.000000
30
-4.000000
11
302.078003
21
-97.466400
31
-4.000000
12
302.078003
22
-97.466400
32
0.000000
13
302.078003
23
-97.466400
33
0.000000
0
3DFACE
8
0
10
303.125000
20
-96.284203
30
0.000000
11
303.125000
21
-96.284203
31
-4.000000
12
304.601990
22
-95.724098
32
0.000000
13
304.601990
23
-95.724098
33
0.000000
0
3DFACE
8
0
10
302.078003
20
-97.466400
30
-4.000000
11
303.125000
21
-96.284203
31
-4.000000
12
303.125000
22
-96.284203
32
0.000000
13
303.125000
23
-96.284203
33
0.000000
0
3DFACE
8
0
10
304.601990
20
-95.724098
30
0.000000
11
304.601990
21
-95.724098
31
-4.000000
12
306.170013
22
-95.914398
32
0.000000
13
306.170013
23
-95.914398
33
0.000000
0
3DFACE
8
0
10
303.125000
20
-96.284203
30
-4.000000
11
304.601990
21
-95.724098
31
-4.000000
12
304.601990
22
-95.724098
32
0.000000
13
304.601990
23
-95.724098
33
0.000000
0
3DFACE
8
0
10
306.170013
20
-95.914398
30
0.000000
11
306.170013
21
-95.914398
31
-4.000000
12
307.470001
22
-96.811699
32
0.000000
13
307.470001
23
-96.811699
33
0.000000
0
3DFACE
8
0
10
304.601990
20
-95.724098
30
-4.000000
11
306.170013
21
-95.914398
31
-4.000000
12
306.170013
22
-95.914398
32
0.000000
13
306.170013
23
-95.914398
33
0.000000
0
3DFACE
8
0
10
307.470001
20
-96.811699
30
0.000000
11
307.470001
21
-96.811699
31
-4.000000
12
308.204010
22
-98.210297
32
0.000000
13
308.204010
23
-98.210297
33
0.000000
0
3DFACE
8
0
10
306.170013
20
-95.914398
30
-4.000000
11
307.470001
21
-96.811699
31
-4.000000
12
307.470001
22
-96.811699
32
0.000000
13
307.470001
23
-96.811699
33
0.000000
0
3DFACE
8
0
10
308.204010
20
-98.210297
30
0.000000
11
308.204010
21
-98.210297
31
-4.000000
12
308.204010
22
-99.789703
32
0.000000
13
308.204010
23
-99.789703
33
0.000000
0
3DFACE
8
0
10
307.470001
20
-96.811699
30
-4.000000
11
308.204010
21
-98.210297
31
-4.000000
12
308.204010
22
-98.210297
32
0.000000
13
308.204010
23
-98.210297
33
0.000000
0
3DFACE
8
0
10
308.204010
20
-99.789703
30
0.000000
11
308.204010
21
-99.789703
31
-4.000000
12
307.470001
22
-101.188004
32
0.000000
13
307.470001
23
-101.188004
33
0.000000
0
3DFACE
8
0
10
308.204010
20
-98.210297
30
-4.000000
11
308.204010
21
-99.789703
31
-4.000000
12
308.204010
22
-99.789703
32
0.000000
13
308.204010
23
-99.789703
33
0.000000
0
3DFACE
8
0
10
307.470001
20
-101.188004
30
0.000000
11
307.470001
21
-101.188004
31
-4.000000
12
306.170013
22
-102.085999
32
0.000000
13
306.170013
23
-102.085999
33
0.000000
0
3DFACE
8
0
10
308.204010
20
-99.789703
30
-4.000000
11
307.470001
21
-101.188004
31
-4.000000
12
307.470001
22
-101.188004
32
0.000000
13
307.470001
23
-101.188004
33
0.000000
0
3DFACE
8
0
10
306.170013
20
-102.085999
30
0.000000
11
306.170013
21
-102.085999
31
-4.000000
12
304.601990
22
-102.276001
32
0.000000
13
304.601990
23
-102.276001
33
0.000000
0
3DFACE
8
0
10
307.470001
20
-101.188004
30
-4.000000
11
306.170013
21
-102.085999
31
-4.000000
12
306.170013
22
-102.085999
32
0.000000
13
306.170013
23
-102.085999
33
0.000000
0
3DFACE
8
0
10
306.170013
20
-102.085999
30
-4.000000
11
304.601990
21
-102.276001
31
-4.000000
12
304.601990
22
-102.276001
32
0.000000
13
304.601990
23
-102.276001
33
0.000000
0
3DFACE
8
0
10
304.601990
20
-102.276001
30
0.000000
11
303.125000
21
-101.716003
31
-4.000000
12
303.125000
22
-101.716003
32
0.000000
13
303.125000
23
-101.716003
33
0.000000
0
3DFACE
8
0
10
303.125000
20
-101.716003
30
0.000000
11
303.125000
21
-101.716003
31
-4.000000
12
302.078003
22
-100.533997
32
0.000000
13
302.078003
23
-100.533997
33
0.000000
0
3DFACE
8
0
10
304.601990
20
-102.276001
30
-4.000000
11
303.125000
21
-101.716003
31
-4.000000
12
304.601990
22
-102.276001
32
0.000000
13
304.601990
23
-102.276001
33
0.000000
0
3DFACE
8
0
10
302.078003
20
-100.533997
30
0.000000
11
302.078003
21
-100.533997
31
-4.000000
12
301.700012
22
-99.000000
32
0.000000
13
301.700012
23
-99.000000
33
0.000000
0
3DFACE
8
0
10
303.125000
20
-101.716003
30
-4.000000
11
302.078003
21
-100.533997
31
-4.000000
12
302.078003
22
-100.533997
32
0.000000
13
302.078003
23
-100.533997
33
0.000000
0
3DFACE
8
0
10
302.078003
20
-100.533997
30
-4.000000
11
301.700012
21
-99.000000
31
-4.000000
12
301.700012
22
-99.000000
32
0.000000
13
301.700012
23
-99.000000
33
0.000000
0
3DFACE
8
0
10
41.200001
20
-99.000000
30
0.000000
11
41.200001
21
-99.000000
31
-4.000000
12
41.577999
22
-97.466400
32
0.000000
13
41.577999
23
-97.466400
33
0.000000
0
3DFACE
8
0
10
41.577999
20
-97.466400
30
0.000000
11
41.577999
21
-97.466400
31
-4.000000
12
42.625401
22
-96.284203
32
0.000000
13
42.625401
23
-96.284203
33
0.000000
0
3DFACE
8
0
10
41.200001
20
-99.000000
30
-4.000000
11
41.577999
21
-97.466400
31
-4.000000
12
41.577999
22
-97.466400
32
0.000000
13
41.577999
23
-97.466400
33
0.000000
0
3DFACE
8
0
10
42.625401
20
-96.284203
30
0.000000
11
42.625401
21
-96.284203
31
-4.000000
12
44.102200
22
-95.724098
32
0.000000
13
44.102200
23
-95.724098
33
0.000000
0
3DFACE
8
0
10
41.577999
20
-97.466400
30
-4.000000
11
42.625401
21
-96.284203
31
-4.000000
12
42.625401
22
-96.284203
32
0.000000
13
42.625401
23
-96.284203
33
0.000000
0
3DFACE
8
0
10
44.102200
20
-95.724098
30
0.000000
11
44.102200
21
-95.724098
31
-4.000000
12
45.670200
22
-95.914398
32
0.000000
13
45.670200
23
-95.914398
33
0.000000
0
3DFACE
8
0
10
42.625401
20
-96.284203
30
-4.000000
11
44.102200
21
-95.724098
31
-4.000000
12
44.102200
22
-95.724098
32
0.000000
13
44.102200
23
-95.724098
33
0.000000
0
3DFACE
8
0
10
45.670200
20
-95.914398
30
0.000000
11
45.670200
21
-95.914398
31
-4.000000
12
46.970100
22
-96.811699
32
0.000000
13
46.970100
23
-96.811699
33
0.000000
0
3DFACE
8
0
10
44.102200
20
-95.724098
30
-4.000000
11
45.670200
21
-95.914398
31
-4.000000
12
45.670200
22
-95.914398
32
0.000000
13
45.670200
23
-95.914398
33
0.000000
0
3DFACE
8
0
10
46.970100
20
-96.811699
30
0.000000
11
46.970100
21
-96.811699
31
-4.000000
12
47.704102
22
-98.210297
32
0.000000
13
47.704102
23
-98.210297
33
0.000000
0
3DFACE
8
0
10
45.670200
20
-95.914398
30
-4.000000
11
46.970100
21
-96.811699
31
-4.000000
12
46.970100
22
-96.811699
32
0.000000
13
46.970100
23
-96.811699
33
0.000000
0
3DFACE
8
0
10
47.704102
20
-98.210297
30
0.000000
11
47.704102
21
-98.210297
31
-4.000000
12
47.704102
22
-99.789703
32
0.000000
13
47.704102
23
-99.789703
33
0.000000
0
3DFACE
8
0
10
46.970100
20
-96.811699
30
-4.000000
11
47.704102
21
-98.210297
31
-4.000000
12
47.704102
22
-98.210297
32
0.000000
13
47.704102
23
-98.210297
33
0.000000
0
3DFACE
8
0
10
47.704102
20
-99.789703
30
0.000000
11
47.704102
21
-99.789703
31
-4.000000
12
46.970100
22
-101.188004
32
0.000000
13
46.970100
23
-101.188004
33
0.000000
0
3DFACE
8
0
10
47.704102
20
-98.210297
30
-4.000000
11
47.704102
21
-99.789703
31
-4.000000
12
47.704102
22
-99.789703
32
0.000000
13
47.704102
23
-99.789703
33
0.000000
0
3DFACE
8
0
10
46.970100
20
-101.188004
30
0.000000
11
46.970100
21
-101.188004
31
-4.000000
12
45.670200
22
-102.085999
32
0.000000
13
45.670200
23
-102.085999
33
0.000000
0
3DFACE
8
0
10
47.704102
20
-99.789703
30
-4.000000
11
46.970100
21
-101.188004
31
-4.000000
12
46.970100
22
-101.188004
32
0.000000
13
46.970100
23
-101.188004
33
0.000000
0
3DFACE
8
0
10
45.670200
20
-102.085999
30
0.000000
11
45.670200
21
-102.085999
31
-4.000000
12
44.102200
22
-102.276001
32
0.000000
13
44.102200
23
-102.276001
33
0.000000
0
3DFACE
8
0
10
46.970100
20
-101.188004
30
-4.000000
11
45.670200
21
-102.085999
31
-4.000000
12
45.670200
22
-102.085999
32
0.000000
13
45.670200
23
-102.085999
33
0.000000
0
3DFACE
8
0
10
45.670200
20
-102.085999
30
-4.000000
11
44.102200
21
-102.276001
31
-4.000000
12
44.102200
22
-102.276001
32
0.000000
13
44.102200
23
-102.276001
33
0.000000
0
3DFACE
8
0
10
44.102200
20
-102.276001
30
0.000000
11
42.625401
21
-101.716003
31
-4.000000
12
42.625401
22
-101.716003
32
0.000000
13
42.625401
23
-101.716003
33
0.000000
0
3DFACE
8
0
10
42.625401
20
-101.716003
30
0.000000
11
42.625401
21
-101.716003
31
-4.000000
12
41.577999
22
-100.533997
32
0.000000
13
41.577999
23
-100.533997
33
0.000000
0
3DFACE
8
0
10
44.102200
20
-102.276001
30
-4.000000
11
42.625401
21
-101.716003
31
-4.000000
12
44.102200
22
-102.276001
32
0.000000
13
44.102200
23
-102.276001
33
0.000000
0
3DFACE
8
0
10
41.577999
20
-100.533997
30
0.000000
11
41.577999
21
-100.533997
31
-4.000000
12
41.200001
22
-99.000000
32
0.000000
13
41.200001
23
-99.000000
33
0.000000
0
3DFACE
8
0
10
42.625401
20
-101.716003
30
-4.000000
11
41.577999
21
-100.533997
31
-4.000000
12
41.577999
22
-100.533997
32
0.000000
13
41.577999
23
-100.533997
33
0.000000
0
3DFACE
8
0
10
41.577999
20
-100.533997
30
-4.000000
11
41.200001
21
-99.000000
31
-4.000000
12
41.200001
22
-99.000000
32
0.000000
13
41.200001
23
-99.000000
33
0.000000
0
3DFACE
8
0
10
-350.000000
20
-150.000000
30
0.000000
11
350.000000
21
-150.000000
31
-4.000000
12
350.000000
22
-150.000000
32
0.000000
13
350.000000
23
-150.000000
33
0.000000
0
3DFACE
8
0
10
-350.000000
20
-150.000000
30
-4.000000
11
350.000000
21
-150.000000
31
-4.000000
12
-350.000000
22
-150.000000
32
0.000000
13
-350.000000
23
-150.000000
33
0.000000
0
3DFACE
8
0
10
350.000000
20
-150.000000
30
-4.000000
11
350.000000
21
59.500000
31
0.000000
12
350.000000
22
-150.000000
32
0.000000
13
350.000000
23
-150.000000
33
0.000000
0
3DFACE
8
0
10
350.000000
20
-150.000000
30
-4.000000
11
350.000000
21
59.500000
31
-4.000000
12
350.000000
22
59.500000
32
0.000000
13
350.000000
23
59.500000
33
0.000000
0
3DFACE
8
0
10
350.000000
20
59.500000
30
-4.000000
11
319.796997
21
59.500000
31
0.000000
12
350.000000
22
59.500000
32
0.000000
13
350.000000
23
59.500000
33
0.000000
0
3DFACE
8
0
10
350.000000
20
59.500000
30
-4.000000
11
319.796997
21
59.500000
31
-4.000000
12
319.796997
22
59.500000
32
0.000000
13
319.796997
23
59.500000
33
0.000000
0
3DFACE
8
0
10
319.796997
20
59.500000
30
-4.000000
11
259.500000
21
119.796997
31
0.000000
12
319.796997
22
59.500000
32
0.000000
13
319.796997
23
59.500000
33
0.000000
0
3DFACE
8
0
10
319.796997
20
59.500000
30
-4.000000
11
259.500000
21
119.796997
31
-4.000000
12
259.500000
22
119.796997
32
0.000000
13
259.500000
23
119.796997
33
0.000000
0
3DFACE
8
0
10
259.500000
20
119.796997
30
-4.000000
11
259.500000
21
150.000000
31
0.000000
12
259.500000
22
119.796997
32
0.000000
13
259.500000
23
119.796997
33
0.000000
0
3DFACE
8
0
10
259.500000
20
119.796997
30
-4.000000
11
259.500000
21
150.000000
31
-4.000000
12
259.500000
22
150.000000
32
0.000000
13
259.500000
23
150.000000
33
0.000000
0
3DFACE
8
0
10
259.500000
20
150.000000
30
-4.000000
11
-259.500000
21
150.000000
31
0.000000
12
259.500000
22
150.000000
32
0.000000
13
259.500000
23
150.000000
33
0.000000
0
3DFACE
8
0
10
259.500000
20
150.000000
30
-4.000000
11
-259.500000
21
150.000000
31
-4.000000
12
-259.500000
22
150.000000
32
0.000000
13
-259.500000
23
150.000000
33
0.000000
0
3DFACE
8
0
10
-259.500000
20
150.000000
30
-4.000000
11
-259.500000
21
119.796997
31
0.000000
12
-259.500000
22
150.000000
32
0.000000
13
-259.500000
23
150.000000
33
0.000000
0
3DFACE
8
0
10
-259.500000
20
150.000000
30
-4.000000
11
-259.500000
21
119.796997
31
-4.000000
12
-259.500000
22
119.796997
32
0.000000
13
-259.500000
23
119.796997
33
0.000000
0
3DFACE
8
0
10
-259.500000
20
119.796997
30
0.000000
11
-319.796997
21
59.500000
31
-4.000000
12
-319.796997
22
59.500000
32
0.000000
13
-319.796997
23
59.500000
33
0.000000
0
3DFACE
8
0
10
-259.500000
20
119.796997
30
-4.000000
11
-319.796997
21
59.500000
31
-4.000000
12
-259.500000
22
119.796997
32
0.000000
13
-259.500000
23
119.796997
33
0.000000
0
3DFACE
8
0
10
-319.796997
20
59.500000
30
-4.000000
11
-350.000000
21
59.500000
31
0.000000
12
-319.796997
22
59.500000
32
0.000000
13
-319.796997
23
59.500000
33
0.000000
0
3DFACE
8
0
10
-319.796997
20
59.500000
30
-4.000000
11
-350.000000
21
59.500000
31
-4.000000
12
-350.000000
22
59.500000
32
0.000000
13
-350.000000
23
59.500000
33
0.000000
0
3DFACE
8
0
10
-350.000000
20
59.500000
30
-4.000000
11
-350.000000
21
-150.000000
31
0.000000
12
-350.000000
22
59.500000
32
0.000000
13
-350.000000
23
59.500000
33
0.000000
0
3DFACE
8
0
10
-350.000000
20
59.500000
30
-4.000000
11
-350.000000
21
-150.000000
31
-4.000000
12
-350.000000
22
-150.000000
32
0.000000
13
-350.000000
23
-150.000000
33
0.000000
0
3DFACE
8
0
10
-337.921997
20
-100.533997
30
0.000000
11
-350.000000
21
-150.000000
31
0.000000
12
-336.875000
22
-101.716003
32
0.000000
13
-336.875000
23
-101.716003
33
0.000000
0
3DFACE
8
0
10
-335.398010
20
-102.276001
30
0.000000
11
-336.875000
21
-101.716003
31
0.000000
12
-350.000000
22
-150.000000
32
0.000000
13
-350.000000
23
-150.000000
33
0.000000
0
3DFACE
8
0
10
-338.299988
20
-99.000000
30
0.000000
11
-350.000000
21
-150.000000
31
0.000000
12
-337.921997
22
-100.533997
32
0.000000
13
-337.921997
23
-100.533997
33
0.000000
0
3DFACE
8
0
10
-333.829987
20
-102.085999
30
0.000000
11
-335.398010
21
-102.276001
31
0.000000
12
-350.000000
22
-150.000000
32
0.000000
13
-350.000000
23
-150.000000
33
0.000000
0
3DFACE
8
0
10
-306.875000
20
-101.716003
30
0.000000
11
-333.829987
21
-102.085999
31
0.000000
12
-350.000000
22
-150.000000
32
0.000000
13
-350.000000
23
-150.000000
33
0.000000
0
3DFACE
8
0
10
-306.875000
20
-101.716003
30
0.000000
11
-332.529999
21
-101.188004
31
0.000000
12
-333.829987
22
-102.085999
32
0.000000
13
-333.829987
23
-102.085999
33
0.000000
0
3DFACE
8
0
10
-307.921997
20
-100.533997
30
0.000000
11
-331.795990
21
-99.789703
31
0.000000
12
-332.529999
22
-101.188004
32
0.000000
13
-332.529999
23
-101.188004
33
0.000000
0
3DFACE
8
0
10
-307.921997
20
-100.533997
30
0.000000
11
-332.529999
21
-101.188004
31
0.000000
12
-306.875000
22
-101.716003
32
0.000000
13
-306.875000
23
-101.716003
33
0.000000
0
3DFACE
8
0
10
-305.398010
20
-102.276001
30
0.000000
11
-306.875000
21
-101.716003
31
0.000000
12
-350.000000
22
-150.000000
32
0.000000
13
-350.000000
23
-150.000000
33
0.000000
0
3DFACE
8
0
10
-308.299988
20
-99.000000
30
0.000000
11
-331.795990
21
-98.210297
31
0.000000
12
-331.795990
22
-99.789703
32
0.000000
13
-331.795990
23
-99.789703
33
0.000000
0
3DFACE
8
0
10
-308.299988
20
-99.000000
30
0.000000
11
-331.795990
21
-99.789703
31
0.000000
12
-307.921997
22
-100.533997
32
0.000000
13
-307.921997
23
-100.533997
33
0.000000
0
3DFACE
8
0
10
-303.829987
20
-102.085999
30
0.000000
11
-305.398010
21
-102.276001
31
0.000000
12
-350.000000
22
-150.000000
32
0.000000
13
-350.000000
23
-150.000000
33
0.000000
0
3DFACE
8
0
10
-307.921997
20
-97.466400
30
0.000000
11
-332.529999
21
-96.811699
31
0.000000
12
-331.795990
22
-98.210297
32
0.000000
13
-331.795990
23
-98.210297
33
0.000000
0
3DFACE
8
0
10
-307.921997
20
-97.466400
30
0.000000
11
-331.795990
21
-98.210297
31
0.000000
12
-308.299988
22
-99.000000
32
0.000000
13
-308.299988
23
-99.000000
33
0.000000
0
3DFACE
8
0
10
-302.529999
20
-101.188004
30
0.000000
11
-303.829987
21
-102.085999
31
0.000000
12
-350.000000
22
-150.000000
32
0.000000
13
-350.000000
23
-150.000000
33
0.000000
0
3DFACE
8
0
10
-306.875000
20
-96.284203
30
0.000000
11
-333.829987
21
-95.914398
31
0.000000
12
-332.529999
22
-96.811699
32
0.000000
13
-332.529999
23
-96.811699
33
0.000000
0
3DFACE
8
0
10
-306.875000
20
-96.284203
30
0.000000
11
-332.529999
21
-96.811699
31
0.000000
12
-307.921997
22
-97.466400
32
0.000000
13
-307.921997
23
-97.466400
33
0.000000
0
3DFACE
8
0
10
-305.398010
20
-95.724098
30
0.000000
11
-333.829987
21
-95.914398
31
0.000000
12
-306.875000
22
-96.284203
32
0.000000
13
-306.875000
23
-96.284203
33
0.000000
0
3DFACE
8
0
10
-337.921997
20
28.466400
30
0.000000
11
-336.875000
21
-96.284203
31
0.000000
12
-336.875000
22
27.284201
32
0.000000
13
-336.875000
23
27.284201
33
0.000000
0
3DFACE
8
0
10
-337.921997
20
28.466400
30
0.000000
11
-337.921997
21
-97.466400
31
0.000000
12
-336.875000
22
-96.284203
32
0.000000
13
-336.875000
23
-96.284203
33
0.000000
0
3DFACE
8
0
10
-335.398010
20
26.724100
30
0.000000
11
-336.875000
21
27.284201
31
0.000000
12
-336.875000
22
-96.284203
32
0.000000
13
-336.875000
23
-96.284203
33
0.000000
0
3DFACE
8
0
10
-335.398010
20
26.724100
30
0.000000
11
-336.875000
21
-96.284203
31
0.000000
12
-335.398010
22
-95.724098
32
0.000000
13
-335.398010
23
-95.724098
33
0.000000
0
3DFACE
8
0
10
-333.829987
20
26.914400
30
0.000000
11
-333.829987
21
-95.914398
31
0.000000
12
-305.398010
22
-95.724098
32
0.000000
13
-305.398010
23
-95.724098
33
0.000000
0
3DFACE
8
0
10
-333.829987
20
26.914400
30
0.000000
11
-335.398010
21
26.724100
31
0.000000
12
-335.398010
22
-95.724098
32
0.000000
13
-335.398010
23
-95.724098
33
0.000000
0
3DFACE
8
0
10
-333.829987
20
26.914400
30
0.000000
11
-305.398010
21
-95.724098
31
0.000000
12
-303.829987
22
-95.914398
32
0.000000
13
-303.829987
23
-95.914398
33
0.000000
0
3DFACE
8
0
10
-333.829987
20
26.914400
30
0.000000
11
-335.398010
21
-95.724098
31
0.000000
12
-333.829987
22
-95.914398
32
0.000000
13
-333.829987
23
-95.914398
33
0.000000
0
3DFACE
8
0
10
-332.529999
20
27.811701
30
0.000000
11
-303.829987
21
-95.914398
31
0.000000
12
-302.529999
22
-96.811699
32
0.000000
13
-302.529999
23
-96.811699
33
0.000000
0
3DFACE
8
0
10
-332.529999
20
27.811701
30
0.000000
11
-333.829987
21
26.914400
31
0.000000
12
-303.829987
22
-95.914398
32
0.000000
13
-303.829987
23
-95.914398
33
0.000000
0
3DFACE
8
0
10
-331.795990
20
29.210300
30
0.000000
11
-332.529999
21
27.811701
31
0.000000
12
-302.529999
22
-96.811699
32
0.000000
13
-302.529999
23
-96.811699
33
0.000000
0
3DFACE
8
0
10
-350.000000
20
59.500000
30
0.000000
11
-337.921997
21
-97.466400
31
0.000000
12
-337.921997
22
28.466400
32
0.000000
13
-337.921997
23
28.466400
33
0.000000
0
3DFACE
8
0
10
-350.000000
20
59.500000
30
0.000000
11
-350.000000
21
-150.000000
31
0.000000
12
-338.299988
22
-99.000000
32
0.000000
13
-338.299988
23
-99.000000
33
0.000000
0
3DFACE
8
0
10
-350.000000
20
59.500000
30
0.000000
11
-338.299988
21
30.000000
31
0.000000
12
-337.921997
22
31.533600
32
0.000000
13
-337.921997
23
31.533600
33
0.000000
0
3DFACE
8
0
10
-350.000000
20
59.500000
30
0.000000
11
-337.921997
21
31.533600
31
0.000000
12
-336.875000
22
32.715801
32
0.000000
13
-336.875000
23
32.715801
33
0.000000
0
3DFACE
8
0
10
-350.000000
20
59.500000
30
0.000000
11
-336.875000
21
32.715801
31
0.000000
12
-335.398010
22
33.275902
32
0.000000
13
-335.398010
23
33.275902
33
0.000000
0
3DFACE
8
0
10
-350.000000
20
59.500000
30
0.000000
11
-337.921997
21
28.466400
31
0.000000
12
-338.299988
22
30.000000
32
0.000000
13
-338.299988
23
30.000000
33
0.000000
0
3DFACE
8
0
10
-350.000000
20
59.500000
30
0.000000
11
-338.299988
21
-99.000000
31
0.000000
12
-337.921997
22
-97.466400
32
0.000000
13
-337.921997
23
-97.466400
33
0.000000
0
3DFACE
8
0
10
-319.796997
20
59.500000
30
0.000000
11
-331.795990
21
29.210300
31
0.000000
12
-302.529999
22
-96.811699
32
0.000000
13
-302.529999
23
-96.811699
33
0.000000
0
3DFACE
8
0
10
-319.796997
20
59.500000
30
0.000000
11
-350.000000
21
59.500000
31
0.000000
12
-335.398010
22
33.275902
32
0.000000
13
-335.398010
23
33.275902
33
0.000000
0
3DFACE
8
0
10
-319.796997
20
59.500000
30
0.000000
11
-335.398010
21
33.275902
31
0.000000
12
-333.829987
22
33.085602
32
0.000000
13
-333.829987
23
33.085602
33
0.000000
0
3DFACE
8
0
10
-319.796997
20
59.500000
30
0.000000
11
-333.829987
21
33.085602
31
0.000000
12
-332.529999
22
32.188301
32
0.000000
13
-332.529999
23
32.188301
33
0.000000
0
3DFACE
8
0
10
-319.796997
20
59.500000
30
0.000000
11
-332.529999
21
32.188301
31
0.000000
12
-331.795990
22
30.789700
32
0.000000
13
-331.795990
23
30.789700
33
0.000000
0
3DFACE
8
0
10
-319.796997
20
59.500000
30
0.000000
11
-331.795990
21
30.789700
31
0.000000
12
-331.795990
22
29.210300
32
0.000000
13
-331.795990
23
29.210300
33
0.000000
0
3DFACE
8
0
10
-46.374599
20
-101.716003
30
0.000000
11
-302.529999
21
-101.188004
31
0.000000
12
-350.000000
22
-150.000000
32
0.000000
13
-350.000000
23
-150.000000
33
0.000000
0
3DFACE
8
0
10
-47.422001
20
-100.533997
30
0.000000
11
-301.795990
21
-99.789703
31
0.000000
12
-302.529999
22
-101.188004
32
0.000000
13
-302.529999
23
-101.188004
33
0.000000
0
3DFACE
8
0
10
-47.422001
20
-100.533997
30
0.000000
11
-302.529999
21
-101.188004
31
0.000000
12
-46.374599
22
-101.716003
32
0.000000
13
-46.374599
23
-101.716003
33
0.000000
0
3DFACE
8
0
10
-44.897800
20
-102.276001
30
0.000000
11
-46.374599
21
-101.716003
31
0.000000
12
-350.000000
22
-150.000000
32
0.000000
13
-350.000000
23
-150.000000
33
0.000000
0
3DFACE
8
0
10
-47.799999
20
-99.000000
30
0.000000
11
-301.795990
21
-99.789703
31
0.000000
12
-47.422001
22
-100.533997
32
0.000000
13
-47.422001
23
-100.533997
33
0.000000
0
3DFACE
8
0
10
-47.799999
20
-99.000000
30
0.000000
11
-301.795990
21
-98.210297
31
0.000000
12
-301.795990
22
-99.789703
32
0.000000
13
-301.795990
23
-99.789703
33
0.000000
0
3DFACE
8
0
10
-47.422001
20
-97.466400
30
0.000000
11
-302.529999
21
-96.811699
31
0.000000
12
-301.795990
22
-98.210297
32
0.000000
13
-301.795990
23
-98.210297
33
0.000000
0
3DFACE
8
0
10
-47.422001
20
-97.466400
30
0.000000
11
-301.795990
21
-98.210297
31
0.000000
12
-47.799999
22
-99.000000
32
0.000000
13
-47.799999
23
-99.000000
33
0.000000
0
3DFACE
8
0
10
-259.500000
20
119.796997
30
0.000000
11
-319.796997
21
59.500000
31
0.000000
12
-302.529999
22
-96.811699
32
0.000000
13
-302.529999
23
-96.811699
33
0.000000
0
3DFACE
8
0
10
-232.921997
20
133.466003
30
0.000000
11
-259.500000
21
119.796997
31
0.000000
12
-231.875000
22
132.283997
32
0.000000
13
-231.875000
23
132.283997
33
0.000000
0
3DFACE
8
0
10
-230.397995
20
131.723999
30
0.000000
11
-231.875000
21
132.283997
31
0.000000
12
-259.500000
22
119.796997
32
0.000000
13
-259.500000
23
119.796997
33
0.000000
0
3DFACE
8
0
10
-233.300003
20
135.000000
30
0.000000
11
-259.500000
21
150.000000
31
0.000000
12
-259.500000
22
119.796997
32
0.000000
13
-259.500000
23
119.796997
33
0.000000
0
3DFACE
8
0
10
-233.300003
20
135.000000
30
0.000000
11
-259.500000
21
119.796997
31
0.000000
12
-232.921997
22
133.466003
32
0.000000
13
-232.921997
23
133.466003
33
0.000000
0
3DFACE
8
0
10
-228.830002
20
131.914001
30
0.000000
11
-47.422001
21
-97.466400
31
0.000000
12
-46.374599
22
-96.284203
32
0.000000
13
-46.374599
23
-96.284203
33
0.000000
0
3DFACE
8
0
10
-228.830002
20
131.914001
30
0.000000
11
-302.529999
21
-96.811699
31
0.000000
12
-47.422001
22
-97.466400
32
0.000000
13
-47.422001
23
-97.466400
33
0.000000
0
3DFACE
8
0
10
-228.830002
20
131.914001
30
0.000000
11
-259.500000
21
119.796997
31
0.000000
12
-302.529999
22
-96.811699
32
0.000000
13
-302.529999
23
-96.811699
33
0.000000
0
3DFACE
8
0
10
-228.830002
20
131.914001
30
0.000000
11
-230.397995
21
131.723999
31
0.000000
12
-259.500000
22
119.796997
32
0.000000
13
-259.500000
23
119.796997
33
0.000000
0
3DFACE
8
0
10
-232.921997
20
136.533997
30
0.000000
11
-259.500000
21
150.000000
31
0.000000
12
-233.300003
22
135.000000
32
0.000000
13
-233.300003
23
135.000000
33
0.000000
0
3DFACE
8
0
10
-227.529999
20
132.811996
30
0.000000
11
-228.830002
21
131.914001
31
0.000000
12
-46.374599
22
-96.284203
32
0.000000
13
-46.374599
23
-96.284203
33
0.000000
0
3DFACE
8
0
10
-231.875000
20
137.716003
30
0.000000
11
-259.500000
21
150.000000
31
0.000000
12
-232.921997
22
136.533997
32
0.000000
13
-232.921997
23
136.533997
33
0.000000
0
3DFACE
8
0
10
-230.397995
20
138.276001
30
0.000000
11
-259.500000
21
150.000000
31
0.000000
12
-231.875000
22
137.716003
32
0.000000
13
-231.875000
23
137.716003
33
0.000000
0
3DFACE
8
0
10
-228.830002
20
138.085999
30
0.000000
11
-259.500000
21
150.000000
31
0.000000
12
-230.397995
22
138.276001
32
0.000000
13
-230.397995
23
138.276001
33
0.000000
0
3DFACE
8
0
10
42.625401
20
-101.716003
30
0.000000
11
-42.029900
21
-101.188004
31
0.000000
12
-43.329800
22
-102.085999
32
0.000000
13
-43.329800
23
-102.085999
33
0.000000
0
3DFACE
8
0
10
41.577999
20
-100.533997
30
0.000000
11
-41.295898
21
-99.789703
31
0.000000
12
-42.029900
22
-101.188004
32
0.000000
13
-42.029900
23
-101.188004
33
0.000000
0
3DFACE
8
0
10
41.577999
20
-100.533997
30
0.000000
11
-42.029900
21
-101.188004
31
0.000000
12
42.625401
22
-101.716003
32
0.000000
13
42.625401
23
-101.716003
33
0.000000
0
3DFACE
8
0
10
44.102200
20
-102.276001
30
0.000000
11
-43.329800
21
-102.085999
31
0.000000
12
-44.897800
22
-102.276001
32
0.000000
13
-44.897800
23
-102.276001
33
0.000000
0
3DFACE
8
0
10
44.102200
20
-102.276001
30
0.000000
11
42.625401
21
-101.716003
31
0.000000
12
-43.329800
22
-102.085999
32
0.000000
13
-43.329800
23
-102.085999
33
0.000000
0
3DFACE
8
0
10
44.102200
20
-102.276001
30
0.000000
11
-44.897800
21
-102.276001
31
0.000000
12
-350.000000
22
-150.000000
32
0.000000
13
-350.000000
23
-150.000000
33
0.000000
0
3DFACE
8
0
10
41.200001
20
-99.000000
30
0.000000
11
-41.295898
21
-98.210297
31
0.000000
12
-41.295898
22
-99.789703
32
0.000000
13
-41.295898
23
-99.789703
33
0.000000
0
3DFACE
8
0
10
41.200001
20
-99.000000
30
0.000000
11
-41.295898
21
-99.789703
31
0.000000
12
41.577999
22
-100.533997
32
0.000000
13
41.577999
23
-100.533997
33
0.000000
0
3DFACE
8
0
10
41.577999
20
-97.466400
30
0.000000
11
-42.029900
21
-96.811699
31
0.000000
12
-41.295898
22
-98.210297
32
0.000000
13
-41.295898
23
-98.210297
33
0.000000
0
3DFACE
8
0
10
41.577999
20
-97.466400
30
0.000000
11
-41.295898
21
-98.210297
31
0.000000
12
41.200001
22
-99.000000
32
0.000000
13
41.200001
23
-99.000000
33
0.000000
0
3DFACE
8
0
10
42.625401
20
-96.284203
30
0.000000
11
-43.329800
21
-95.914398
31
0.000000
12
-42.029900
22
-96.811699
32
0.000000
13
-42.029900
23
-96.811699
33
0.000000
0
3DFACE
8
0
10
42.625401
20
-96.284203
30
0.000000
11
-42.029900
21
-96.811699
31
0.000000
12
41.577999
22
-97.466400
32
0.000000
13
41.577999
23
-97.466400
33
0.000000
0
3DFACE
8
0
10
-1.874600
20
132.283997
30
0.000000
11
-46.374599
21
-96.284203
31
0.000000
12
-44.897800
22
-95.724098
32
0.000000
13
-44.897800
23
-95.724098
33
0.000000
0
3DFACE
8
0
10
-2.922000
20
133.466003
30
0.000000
11
-46.374599
21
-96.284203
31
0.000000
12
-1.874600
22
132.283997
32
0.000000
13
-1.874600
23
132.283997
33
0.000000
0
3DFACE
8
0
10
-2.922000
20
133.466003
30
0.000000
11
-227.529999
21
132.811996
31
0.000000
12
-46.374599
22
-96.284203
32
0.000000
13
-46.374599
23
-96.284203
33
0.000000
0
3DFACE
8
0
10
-2.922000
20
133.466003
30
0.000000
11
-226.796005
21
134.210007
31
0.000000
12
-227.529999
22
132.811996
32
0.000000
13
-227.529999
23
132.811996
33
0.000000
0
3DFACE
8
0
10
-0.397800
20
131.723999
30
0.000000
11
-43.329800
21
-95.914398
31
0.000000
12
42.625401
22
-96.284203
32
0.000000
13
42.625401
23
-96.284203
33
0.000000
0
3DFACE
8
0
10
-0.397800
20
131.723999
30
0.000000
11
-44.897800
21
-95.724098
31
0.000000
12
-43.329800
22
-95.914398
32
0.000000
13
-43.329800
23
-95.914398
33
0.000000
0
3DFACE
8
0
10
-0.397800
20
131.723999
30
0.000000
11
-1.874600
21
132.283997
31
0.000000
12
-44.897800
22
-95.724098
32
0.000000
13
-44.897800
23
-95.724098
33
0.000000
0
3DFACE
8
0
10
-0.397800
20
131.723999
30
0.000000
11
42.625401
21
-96.284203
31
0.000000
12
44.102200
22
-95.724098
32
0.000000
13
44.102200
23
-95.724098
33
0.000000
0
3DFACE
8
0
10
-3.300000
20
135.000000
30
0.000000
11
-226.796005
21
134.210007
31
0.000000
12
-2.922000
22
133.466003
32
0.000000
13
-2.922000
23
133.466003
33
0.000000
0
3DFACE
8
0
10
-3.300000
20
135.000000
30
0.000000
11
-226.796005
21
135.789993
31
0.000000
12
-226.796005
22
134.210007
32
0.000000
13
-226.796005
23
134.210007
33
0.000000
0
3DFACE
8
0
10
1.170200
20
131.914001
30
0.000000
11
-0.397800
21
131.723999
31
0.000000
12
44.102200
22
-95.724098
32
0.000000
13
44.102200
23
-95.724098
33
0.000000
0
3DFACE
8
0
10
1.170200
20
131.914001
30
0.000000
11
44.102200
21
-95.724098
31
0.000000
12
45.670200
22
-95.914398
32
0.000000
13
45.670200
23
-95.914398
33
0.000000
0
3DFACE
8
0
10
-2.922000
20
136.533997
30
0.000000
11
-226.796005
21
135.789993
31
0.000000
12
-3.300000
22
135.000000
32
0.000000
13
-3.300000
23
135.000000
33
0.000000
0
3DFACE
8
0
10
-2.922000
20
136.533997
30
0.000000
11
-227.529999
21
137.188004
31
0.000000
12
-226.796005
22
135.789993
32
0.000000
13
-226.796005
23
135.789993
33
0.000000
0
3DFACE
8
0
10
2.470100
20
132.811996
30
0.000000
11
1.170200
21
131.914001
31
0.000000
12
45.670200
22
-95.914398
32
0.000000
13
45.670200
23
-95.914398
33
0.000000
0
3DFACE
8
0
10
-1.874600
20
137.716003
30
0.000000
11
-227.529999
21
137.188004
31
0.000000
12
-2.922000
22
136.533997
32
0.000000
13
-2.922000
23
136.533997
33
0.000000
0
3DFACE
8
0
10
-1.874600
20
137.716003
30
0.000000
11
-228.830002
21
138.085999
31
0.000000
12
-227.529999
22
137.188004
32
0.000000
13
-227.529999
23
137.188004
33
0.000000
0
3DFACE
8
0
10
-0.397800
20
138.276001
30
0.000000
11
-228.830002
21
138.085999
31
0.000000
12
-1.874600
22
137.716003
32
0.000000
13
-1.874600
23
137.716003
33
0.000000
0
3DFACE
8
0
10
-0.397800
20
138.276001
30
0.000000
11
-259.500000
21
150.000000
31
0.000000
12
-228.830002
22
138.085999
32
0.000000
13
-228.830002
23
138.085999
33
0.000000
0
3DFACE
8
0
10
350.000000
20
-150.000000
30
0.000000
11
44.102200
21
-102.276001
31
0.000000
12
-350.000000
22
-150.000000
32
0.000000
13
-350.000000
23
-150.000000
33
0.000000
0
3DFACE
8
0
10
350.000000
20
-150.000000
30
0.000000
11
46.970100
21
-101.188004
31
0.000000
12
45.670200
22
-102.085999
32
0.000000
13
45.670200
23
-102.085999
33
0.000000
0
3DFACE
8
0
10
350.000000
20
-150.000000
30
0.000000
11
45.670200
21
-102.085999
31
0.000000
12
44.102200
22
-102.276001
32
0.000000
13
44.102200
23
-102.276001
33
0.000000
0
3DFACE
8
0
10
303.125000
20
-101.716003
30
0.000000
11
46.970100
21
-101.188004
31
0.000000
12
350.000000
22
-150.000000
32
0.000000
13
350.000000
23
-150.000000
33
0.000000
0
3DFACE
8
0
10
302.078003
20
-100.533997
30
0.000000
11
46.970100
21
-101.188004
31
0.000000
12
303.125000
22
-101.716003
32
0.000000
13
303.125000
23
-101.716003
33
0.000000
0
3DFACE
8
0
10
302.078003
20
-100.533997
30
0.000000
11
47.704102
21
-99.789703
31
0.000000
12
46.970100
22
-101.188004
32
0.000000
13
46.970100
23
-101.188004
33
0.000000
0
3DFACE
8
0
10
304.601990
20
-102.276001
30
0.000000
11
303.125000
21
-101.716003
31
0.000000
12
350.000000
22
-150.000000
32
0.000000
13
350.000000
23
-150.000000
33
0.000000
0
3DFACE
8
0
10
301.700012
20
-99.000000
30
0.000000
11
47.704102
21
-99.789703
31
0.000000
12
302.078003
22
-100.533997
32
0.000000
13
302.078003
23
-100.533997
33
0.000000
0
3DFACE
8
0
10
301.700012
20
-99.000000
30
0.000000
11
47.704102
21
-98.210297
31
0.000000
12
47.704102
22
-99.789703
32
0.000000
13
47.704102
23
-99.789703
33
0.000000
0
3DFACE
8
0
10
306.170013
20
-102.085999
30
0.000000
11
304.601990
21
-102.276001
31
0.000000
12
350.000000
22
-150.000000
32
0.000000
13
350.000000
23
-150.000000
33
0.000000
0
3DFACE
8
0
10
302.078003
20
-97.466400
30
0.000000
11
46.970100
21
-96.811699
31
0.000000
12
47.704102
22
-98.210297
32
0.000000
13
47.704102
23
-98.210297
33
0.000000
0
3DFACE
8
0
10
302.078003
20
-97.466400
30
0.000000
11
47.704102
21
-98.210297
31
0.000000
12
301.700012
22
-99.000000
32
0.000000
13
301.700012
23
-99.000000
33
0.000000
0
3DFACE
8
0
10
333.125000
20
-101.716003
30
0.000000
11
307.470001
21
-101.188004
31
0.000000
12
306.170013
22
-102.085999
32
0.000000
13
306.170013
23
-102.085999
33
0.000000
0
3DFACE
8
0
10
333.125000
20
-101.716003
30
0.000000
11
306.170013
21
-102.085999
31
0.000000
12
350.000000
22
-150.000000
32
0.000000
13
350.000000
23
-150.000000
33
0.000000
0
3DFACE
8
0
10
332.078003
20
-100.533997
30
0.000000
11
308.204010
21
-99.789703
31
0.000000
12
307.470001
22
-101.188004
32
0.000000
13
307.470001
23
-101.188004
33
0.000000
0
3DFACE
8
0
10
332.078003
20
-100.533997
30
0.000000
11
307.470001
21
-101.188004
31
0.000000
12
333.125000
22
-101.716003
32
0.000000
13
333.125000
23
-101.716003
33
0.000000
0
3DFACE
8
0
10
334.601990
20
-102.276001
30
0.000000
11
333.125000
21
-101.716003
31
0.000000
12
350.000000
22
-150.000000
32
0.000000
13
350.000000
23
-150.000000
33
0.000000
0
3DFACE
8
0
10
331.700012
20
-99.000000
30
0.000000
11
308.204010
21
-98.210297
31
0.000000
12
308.204010
22
-99.789703
32
0.000000
13
308.204010
23
-99.789703
33
0.000000
0
3DFACE
8
0
10
331.700012
20
-99.000000
30
0.000000
11
308.204010
21
-99.789703
31
0.000000
12
332.078003
22
-100.533997
32
0.000000
13
332.078003
23
-100.533997
33
0.000000
0
3DFACE
8
0
10
336.170013
20
-102.085999
30
0.000000
11
334.601990
21
-102.276001
31
0.000000
12
350.000000
22
-150.000000
32
0.000000
13
350.000000
23
-150.000000
33
0.000000
0
3DFACE
8
0
10
332.078003
20
-97.466400
30
0.000000
11
307.470001
21
-96.811699
31
0.000000
12
308.204010
22
-98.210297
32
0.000000
13
308.204010
23
-98.210297
33
0.000000
0
3DFACE
8
0
10
332.078003
20
-97.466400
30
0.000000
11
308.204010
21
-98.210297
31
0.000000
12
331.700012
22
-99.000000
32
0.000000
13
331.700012
23
-99.000000
33
0.000000
0
3DFACE
8
0
10
337.470001
20
-101.188004
30
0.000000
11
336.170013
21
-102.085999
31
0.000000
12
350.000000
22
-150.000000
32
0.000000
13
350.000000
23
-150.000000
33
0.000000
0
3DFACE
8
0
10
333.125000
20
-96.284203
30
0.000000
11
306.170013
21
-95.914398
31
0.000000
12
307.470001
22
-96.811699
32
0.000000
13
307.470001
23
-96.811699
33
0.000000
0
3DFACE
8
0
10
333.125000
20
-96.284203
30
0.000000
11
307.470001
21
-96.811699
31
0.000000
12
332.078003
22
-97.466400
32
0.000000
13
332.078003
23
-97.466400
33
0.000000
0
3DFACE
8
0
10
338.204010
20
-99.789703
30
0.000000
11
337.470001
21
-101.188004
31
0.000000
12
350.000000
22
-150.000000
32
0.000000
13
350.000000
23
-150.000000
33
0.000000
0
3DFACE
8
0
10
334.601990
20
-95.724098
30
0.000000
11
306.170013
21
-95.914398
31
0.000000
12
333.125000
22
-96.284203
32
0.000000
13
333.125000
23
-96.284203
33
0.000000
0
3DFACE
8
0
10
338.204010
20
-98.210297
30
0.000000
11
338.204010
21
-99.789703
31
0.000000
12
350.000000
22
-150.000000
32
0.000000
13
350.000000
23
-150.000000
33
0.000000
0
3DFACE
8
0
10
333.125000
20
27.284201
30
0.000000
11
303.125000
21
-96.284203
31
0.000000
12
304.601990
22
-95.724098
32
0.000000
13
304.601990
23
-95.724098
33
0.000000
0
3DFACE
8
0
10
228.125000
20
132.283997
30
0.000000
11
45.670200
21
-95.914398
31
0.000000
12
46.970100
22
-96.811699
32
0.000000
13
46.970100
23
-96.811699
33
0.000000
0
3DFACE
8
0
10
332.078003
20
28.466400
30
0.000000
11
302.078003
21
-97.466400
31
0.000000
12
303.125000
22
-96.284203
32
0.000000
13
303.125000
23
-96.284203
33
0.000000
0
3DFACE
8
0
10
332.078003
20
28.466400
30
0.000000
11
303.125000
21
-96.284203
31
0.000000
12
333.125000
22
27.284201
32
0.000000
13
333.125000
23
27.284201
33
0.000000
0
3DFACE
8
0
10
227.078003
20
133.466003
30
0.000000
11
45.670200
21
-95.914398
31
0.000000
12
228.125000
22
132.283997
32
0.000000
13
228.125000
23
132.283997
33
0.000000
0
3DFACE
8
0
10
227.078003
20
133.466003
30
0.000000
11
2.470100
21
132.811996
31
0.000000
12
45.670200
22
-95.914398
32
0.000000
13
45.670200
23
-95.914398
33
0.000000
0
3DFACE
8
0
10
227.078003
20
133.466003
30
0.000000
11
3.204100
21
134.210007
31
0.000000
12
2.470100
22
132.811996
32
0.000000
13
2.470100
23
132.811996
33
0.000000
0
3DFACE
8
0
10
334.601990
20
26.724100
30
0.000000
11
304.601990
21
-95.724098
31
0.000000
12
306.170013
22
-95.914398
32
0.000000
13
306.170013
23
-95.914398
33
0.000000
0
3DFACE
8
0
10
334.601990
20
26.724100
30
0.000000
11
306.170013
21
-95.914398
31
0.000000
12
334.601990
22
-95.724098
32
0.000000
13
334.601990
23
-95.724098
33
0.000000
0
3DFACE
8
0
10
334.601990
20
26.724100
30
0.000000
11
333.125000
21
27.284201
31
0.000000
12
304.601990
22
-95.724098
32
0.000000
13
304.601990
23
-95.724098
33
0.000000
0
3DFACE
8
0
10
229.602005
20
131.723999
30
0.000000
11
228.125000
21
132.283997
31
0.000000
12
46.970100
22
-96.811699
32
0.000000
13
46.970100
23
-96.811699
33
0.000000
0
3DFACE
8
0
10
229.602005
20
131.723999
30
0.000000
11
46.970100
21
-96.811699
31
0.000000
12
302.078003
22
-97.466400
32
0.000000
13
302.078003
23
-97.466400
33
0.000000
0
3DFACE
8
0
10
226.699997
20
135.000000
30
0.000000
11
3.204100
21
134.210007
31
0.000000
12
227.078003
22
133.466003
32
0.000000
13
227.078003
23
133.466003
33
0.000000
0
3DFACE
8
0
10
226.699997
20
135.000000
30
0.000000
11
3.204100
21
135.789993
31
0.000000
12
3.204100
22
134.210007
32
0.000000
13
3.204100
23
134.210007
33
0.000000
0
3DFACE
8
0
10
336.170013
20
26.914400
30
0.000000
11
334.601990
21
26.724100
31
0.000000
12
334.601990
22
-95.724098
32
0.000000
13
334.601990
23
-95.724098
33
0.000000
0
3DFACE
8
0
10
336.170013
20
26.914400
30
0.000000
11
334.601990
21
-95.724098
31
0.000000
12
336.170013
22
-95.914398
32
0.000000
13
336.170013
23
-95.914398
33
0.000000
0
3DFACE
8
0
10
227.078003
20
136.533997
30
0.000000
11
3.204100
21
135.789993
31
0.000000
12
226.699997
22
135.000000
32
0.000000
13
226.699997
23
135.000000
33
0.000000
0
3DFACE
8
0
10
227.078003
20
136.533997
30
0.000000
11
2.470100
21
137.188004
31
0.000000
12
3.204100
22
135.789993
32
0.000000
13
3.204100
23
135.789993
33
0.000000
0
3DFACE
8
0
10
337.470001
20
27.811701
30
0.000000
11
336.170013
21
-95.914398
31
0.000000
12
337.470001
22
-96.811699
32
0.000000
13
337.470001
23
-96.811699
33
0.000000
0
3DFACE
8
0
10
337.470001
20
27.811701
30
0.000000
11
337.470001
21
-96.811699
31
0.000000
12
338.204010
22
-98.210297
32
0.000000
13
338.204010
23
-98.210297
33
0.000000
0
3DFACE
8
0
10
337.470001
20
27.811701
30
0.000000
11
336.170013
21
26.914400
31
0.000000
12
336.170013
22
-95.914398
32
0.000000
13
336.170013
23
-95.914398
33
0.000000
0
3DFACE
8
0
10
228.125000
20
137.716003
30
0.000000
11
2.470100
21
137.188004
31
0.000000
12
227.078003
22
136.533997
32
0.000000
13
227.078003
23
136.533997
33
0.000000
0
3DFACE
8
0
10
228.125000
20
137.716003
30
0.000000
11
1.170200
21
138.085999
31
0.000000
12
2.470100
22
137.188004
32
0.000000
13
2.470100
23
137.188004
33
0.000000
0
3DFACE
8
0
10
338.204010
20
29.210300
30
0.000000
11
337.470001
21
27.811701
31
0.000000
12
338.204010
22
-98.210297
32
0.000000
13
338.204010
23
-98.210297
33
0.000000
0
3DFACE
8
0
10
229.602005
20
138.276001
30
0.000000
11
1.170200
21
138.085999
31
0.000000
12
228.125000
22
137.716003
32
0.000000
13
228.125000
23
137.716003
33
0.000000
0
3DFACE
8
0
10
259.500000
20
119.796997
30
0.000000
11
229.602005
21
131.723999
31
0.000000
12
302.078003
22
-97.466400
32
0.000000
13
302.078003
23
-97.466400
33
0.000000
0
3DFACE
8
0
10
259.500000
20
119.796997
30
0.000000
11
233.203995
21
134.210007
31
0.000000
12
232.470001
22
132.811996
32
0.000000
13
232.470001
23
132.811996
33
0.000000
0
3DFACE
8
0
10
259.500000
20
119.796997
30
0.000000
11
232.470001
21
132.811996
31
0.000000
12
231.169998
22
131.914001
32
0.000000
13
231.169998
23
131.914001
33
0.000000
0
3DFACE
8
0
10
259.500000
20
119.796997
30
0.000000
11
231.169998
21
131.914001
31
0.000000
12
229.602005
22
131.723999
32
0.000000
13
229.602005
23
131.723999
33
0.000000
0
3DFACE
8
0
10
319.796997
20
59.500000
30
0.000000
11
302.078003
21
-97.466400
31
0.000000
12
332.078003
22
28.466400
32
0.000000
13
332.078003
23
28.466400
33
0.000000
0
3DFACE
8
0
10
319.796997
20
59.500000
30
0.000000
11
331.700012
21
30.000000
31
0.000000
12
332.078003
22
31.533600
32
0.000000
13
332.078003
23
31.533600
33
0.000000
0
3DFACE
8
0
10
319.796997
20
59.500000
30
0.000000
11
332.078003
21
31.533600
31
0.000000
12
333.125000
22
32.715801
32
0.000000
13
333.125000
23
32.715801
33
0.000000
0
3DFACE
8
0
10
319.796997
20
59.500000
30
0.000000
11
333.125000
21
32.715801
31
0.000000
12
334.601990
22
33.275902
32
0.000000
13
334.601990
23
33.275902
33
0.000000
0
3DFACE
8
0
10
319.796997
20
59.500000
30
0.000000
11
259.500000
21
119.796997
31
0.000000
12
302.078003
22
-97.466400
32
0.000000
13
302.078003
23
-97.466400
33
0.000000
0
3DFACE
8
0
10
319.796997
20
59.500000
30
0.000000
11
332.078003
21
28.466400
31
0.000000
12
331.700012
22
30.000000
32
0.000000
13
331.700012
23
30.000000
33
0.000000
0
3DFACE
8
0
10
350.000000
20
59.500000
30
0.000000
11
338.204010
21
29.210300
31
0.000000
12
338.204010
22
-98.210297
32
0.000000
13
338.204010
23
-98.210297
33
0.000000
0
3DFACE
8
0
10
350.000000
20
59.500000
30
0.000000
11
319.796997
21
59.500000
31
0.000000
12
334.601990
22
33.275902
32
0.000000
13
334.601990
23
33.275902
33
0.000000
0
3DFACE
8
0
10
350.000000
20
59.500000
30
0.000000
11
334.601990
21
33.275902
31
0.000000
12
336.170013
22
33.085602
32
0.000000
13
336.170013
23
33.085602
33
0.000000
0
3DFACE
8
0
10
350.000000
20
59.500000
30
0.000000
11
336.170013
21
33.085602
31
0.000000
12
337.470001
22
32.188301
32
0.000000
13
337.470001
23
32.188301
33
0.000000
0
3DFACE
8
0
10
350.000000
20
59.500000
30
0.000000
11
337.470001
21
32.188301
31
0.000000
12
338.204010
22
30.789700
32
0.000000
13
338.204010
23
30.789700
33
0.000000
0
3DFACE
8
0
10
350.000000
20
59.500000
30
0.000000
11
338.204010
21
30.789700
31
0.000000
12
338.204010
22
29.210300
32
0.000000
13
338.204010
23
29.210300
33
0.000000
0
3DFACE
8
0
10
350.000000
20
59.500000
30
0.000000
11
338.204010
21
-98.210297
31
0.000000
12
350.000000
22
-150.000000
32
0.000000
13
350.000000
23
-150.000000
33
0.000000
0
3DFACE
8
0
10
259.500000
20
150.000000
30
0.000000
11
229.602005
21
138.276001
31
0.000000
12
231.169998
22
138.085999
32
0.000000
13
231.169998
23
138.085999
33
0.000000
0
3DFACE
8
0
10
259.500000
20
150.000000
30
0.000000
11
233.203995
21
134.210007
31
0.000000
12
259.500000
22
119.796997
32
0.000000
13
259.500000
23
119.796997
33
0.000000
0
3DFACE
8
0
10
259.500000
20
150.000000
30
0.000000
11
231.169998
21
138.085999
31
0.000000
12
232.470001
22
137.188004
32
0.000000
13
232.470001
23
137.188004
33
0.000000
0
3DFACE
8
0
10
259.500000
20
150.000000
30
0.000000
11
232.470001
21
137.188004
31
0.000000
12
233.203995
22
135.789993
32
0.000000
13
233.203995
23
135.789993
33
0.000000
0
3DFACE
8
0
10
259.500000
20
150.000000
30
0.000000
11
233.203995
21
135.789993
31
0.000000
12
233.203995
22
134.210007
32
0.000000
13
233.203995
23
134.210007
33
0.000000
0
3DFACE
8
0
10
259.500000
20
150.000000
30
0.000000
11
1.170200
21
138.085999
31
0.000000
12
229.602005
22
138.276001
32
0.000000
13
229.602005
23
138.276001
33
0.000000
0
3DFACE
8
0
10
259.500000
20
150.000000
30
0.000000
11
-259.500000
21
150.000000
31
0.000000
12
-0.397800
22
138.276001
32
0.000000
13
-0.397800
23
138.276001
33
0.000000
0
3DFACE
8
0
10
259.500000
20
150.000000
30
0.000000
11
-0.397800
21
138.276001
31
0.000000
12
1.170200
22
138.085999
32
0.000000
13
1.170200
23
138.085999
33
0.000000
0
3DFACE
8
0
10
336.170013
20
-102.085999
30
-4.000000
11
337.470001
21
-101.188004
31
-4.000000
12
350.000000
22
-150.000000
32
-4.000000
13
350.000000
23
-150.000000
33
-4.000000
0
3DFACE
8
0
10
338.204010
20
-99.789703
30
-4.000000
11
350.000000
21
-150.000000
31
-4.000000
12
337.470001
22
-101.188004
32
-4.000000
13
337.470001
23
-101.188004
33
-4.000000
0
3DFACE
8
0
10
334.601990
20
-102.276001
30
-4.000000
11
336.170013
21
-102.085999
31
-4.000000
12
350.000000
22
-150.000000
32
-4.000000
13
350.000000
23
-150.000000
33
-4.000000
0
3DFACE
8
0
10
338.204010
20
-98.210297
30
-4.000000
11
350.000000
21
-150.000000
31
-4.000000
12
338.204010
22
-99.789703
32
-4.000000
13
338.204010
23
-99.789703
33
-4.000000
0
3DFACE
8
0
10
333.125000
20
-101.716003
30
-4.000000
11
334.601990
21
-102.276001
31
-4.000000
12
350.000000
22
-150.000000
32
-4.000000
13
350.000000
23
-150.000000
33
-4.000000
0
3DFACE
8
0
10
307.470001
20
-101.188004
30
-4.000000
11
332.078003
21
-100.533997
31
-4.000000
12
333.125000
22
-101.716003
32
-4.000000
13
333.125000
23
-101.716003
33
-4.000000
0
3DFACE
8
0
10
306.170013
20
-102.085999
30
-4.000000
11
333.125000
21
-101.716003
31
-4.000000
12
350.000000
22
-150.000000
32
-4.000000
13
350.000000
23
-150.000000
33
-4.000000
0
3DFACE
8
0
10
306.170013
20
-102.085999
30
-4.000000
11
307.470001
21
-101.188004
31
-4.000000
12
333.125000
22
-101.716003
32
-4.000000
13
333.125000
23
-101.716003
33
-4.000000
0
3DFACE
8
0
10
308.204010
20
-99.789703
30
-4.000000
11
331.700012
21
-99.000000
31
-4.000000
12
332.078003
22
-100.533997
32
-4.000000
13
332.078003
23
-100.533997
33
-4.000000
0
3DFACE
8
0
10
308.204010
20
-99.789703
30
-4.000000
11
332.078003
21
-100.533997
31
-4.000000
12
307.470001
22
-101.188004
32
-4.000000
13
307.470001
23
-101.188004
33
-4.000000
0
3DFACE
8
0
10
304.601990
20
-102.276001
30
-4.000000
11
306.170013
21
-102.085999
31
-4.000000
12
350.000000
22
-150.000000
32
-4.000000
13
350.000000
23
-150.000000
33
-4.000000
0
3DFACE
8
0
10
308.204010
20
-98.210297
30
-4.000000
11
332.078003
21
-97.466400
31
-4.000000
12
331.700012
22
-99.000000
32
-4.000000
13
331.700012
23
-99.000000
33
-4.000000
0
3DFACE
8
0
10
308.204010
20
-98.210297
30
-4.000000
11
331.700012
21
-99.000000
31
-4.000000
12
308.204010
22
-99.789703
32
-4.000000
13
308.204010
23
-99.789703
33
-4.000000
0
3DFACE
8
0
10
303.125000
20
-101.716003
30
-4.000000
11
304.601990
21
-102.276001
31
-4.000000
12
350.000000
22
-150.000000
32
-4.000000
13
350.000000
23
-150.000000
33
-4.000000
0
3DFACE
8
0
10
307.470001
20
-96.811699
30
-4.000000
11
333.125000
21
-96.284203
31
-4.000000
12
332.078003
22
-97.466400
32
-4.000000
13
332.078003
23
-97.466400
33
-4.000000
0
3DFACE
8
0
10
307.470001
20
-96.811699
30
-4.000000
11
332.078003
21
-97.466400
31
-4.000000
12
308.204010
22
-98.210297
32
-4.000000
13
308.204010
23
-98.210297
33
-4.000000
0
3DFACE
8
0
10
306.170013
20
-95.914398
30
-4.000000
11
334.601990
21
-95.724098
31
-4.000000
12
333.125000
22
-96.284203
32
-4.000000
13
333.125000
23
-96.284203
33
-4.000000
0
3DFACE
8
0
10
306.170013
20
-95.914398
30
-4.000000
11
333.125000
21
-96.284203
31
-4.000000
12
307.470001
22
-96.811699
32
-4.000000
13
307.470001
23
-96.811699
33
-4.000000
0
3DFACE
8
0
10
336.170013
20
26.914400
30
-4.000000
11
337.470001
21
-96.811699
31
-4.000000
12
336.170013
22
-95.914398
32
-4.000000
13
336.170013
23
-95.914398
33
-4.000000
0
3DFACE
8
0
10
336.170013
20
26.914400
30
-4.000000
11
337.470001
21
27.811701
31
-4.000000
12
337.470001
22
-96.811699
32
-4.000000
13
337.470001
23
-96.811699
33
-4.000000
0
3DFACE
8
0
10
338.204010
20
29.210300
30
-4.000000
11
338.204010
21
-98.210297
31
-4.000000
12
337.470001
22
-96.811699
32
-4.000000
13
337.470001
23
-96.811699
33
-4.000000
0
3DFACE
8
0
10
338.204010
20
29.210300
30
-4.000000
11
337.470001
21
-96.811699
31
-4.000000
12
337.470001
22
27.811701
32
-4.000000
13
337.470001
23
27.811701
33
-4.000000
0
3DFACE
8
0
10
334.601990
20
26.724100
30
-4.000000
11
336.170013
21
26.914400
31
-4.000000
12
336.170013
22
-95.914398
32
-4.000000
13
336.170013
23
-95.914398
33
-4.000000
0
3DFACE
8
0
10
334.601990
20
26.724100
30
-4.000000
11
336.170013
21
-95.914398
31
-4.000000
12
334.601990
22
-95.724098
32
-4.000000
13
334.601990
23
-95.724098
33
-4.000000
0
3DFACE
8
0
10
334.601990
20
26.724100
30
-4.000000
11
306.170013
21
-95.914398
31
-4.000000
12
304.601990
22
-95.724098
32
-4.000000
13
304.601990
23
-95.724098
33
-4.000000
0
3DFACE
8
0
10
334.601990
20
26.724100
30
-4.000000
11
334.601990
21
-95.724098
31
-4.000000
12
306.170013
22
-95.914398
32
-4.000000
13
306.170013
23
-95.914398
33
-4.000000
0
3DFACE
8
0
10
333.125000
20
27.284201
30
-4.000000
11
334.601990
21
26.724100
31
-4.000000
12
304.601990
22
-95.724098
32
-4.000000
13
304.601990
23
-95.724098
33
-4.000000
0
3DFACE
8
0
10
333.125000
20
27.284201
30
-4.000000
11
304.601990
21
-95.724098
31
-4.000000
12
303.125000
22
-96.284203
32
-4.000000
13
303.125000
23
-96.284203
33
-4.000000
0
3DFACE
8
0
10
332.078003
20
28.466400
30
-4.000000
11
333.125000
21
27.284201
31
-4.000000
12
303.125000
22
-96.284203
32
-4.000000
13
303.125000
23
-96.284203
33
-4.000000
0
3DFACE
8
0
10
332.078003
20
28.466400
30
-4.000000
11
303.125000
21
-96.284203
31
-4.000000
12
302.078003
22
-97.466400
32
-4.000000
13
302.078003
23
-97.466400
33
-4.000000
0
3DFACE
8
0
10
350.000000
20
59.500000
30
-4.000000
11
338.204010
21
-98.210297
31
-4.000000
12
338.204010
22
29.210300
32
-4.000000
13
338.204010
23
29.210300
33
-4.000000
0
3DFACE
8
0
10
350.000000
20
59.500000
30
-4.000000
11
338.204010
21
29.210300
31
-4.000000
12
338.204010
22
30.789700
32
-4.000000
13
338.204010
23
30.789700
33
-4.000000
0
3DFACE
8
0
10
350.000000
20
59.500000
30
-4.000000
11
338.204010
21
30.789700
31
-4.000000
12
337.470001
22
32.188301
32
-4.000000
13
337.470001
23
32.188301
33
-4.000000
0
3DFACE
8
0
10
350.000000
20
59.500000
30
-4.000000
11
337.470001
21
32.188301
31
-4.000000
12
336.170013
22
33.085602
32
-4.000000
13
336.170013
23
33.085602
33
-4.000000
0
3DFACE
8
0
10
350.000000
20
59.500000
30
-4.000000
11
336.170013
21
33.085602
31
-4.000000
12
334.601990
22
33.275902
32
-4.000000
13
334.601990
23
33.275902
33
-4.000000
0
3DFACE
8
0
10
350.000000
20
59.500000
30
-4.000000
11
350.000000
21
-150.000000
31
-4.000000
12
338.204010
22
-98.210297
32
-4.000000
13
338.204010
23
-98.210297
33
-4.000000
0
3DFACE
8
0
10
319.796997
20
59.500000
30
-4.000000
11
350.000000
21
59.500000
31
-4.000000
12
334.601990
22
33.275902
32
-4.000000
13
334.601990
23
33.275902
33
-4.000000
0
3DFACE
8
0
10
319.796997
20
59.500000
30
-4.000000
11
332.078003
21
28.466400
31
-4.000000
12
302.078003
22
-97.466400
32
-4.000000
13
302.078003
23
-97.466400
33
-4.000000
0
3DFACE
8
0
10
319.796997
20
59.500000
30
-4.000000
11
331.700012
21
30.000000
31
-4.000000
12
332.078003
22
28.466400
32
-4.000000
13
332.078003
23
28.466400
33
-4.000000
0
3DFACE
8
0
10
319.796997
20
59.500000
30
-4.000000
11
334.601990
21
33.275902
31
-4.000000
12
333.125000
22
32.715801
32
-4.000000
13
333.125000
23
32.715801
33
-4.000000
0
3DFACE
8
0
10
319.796997
20
59.500000
30
-4.000000
11
333.125000
21
32.715801
31
-4.000000
12
332.078003
22
31.533600
32
-4.000000
13
332.078003
23
31.533600
33
-4.000000
0
3DFACE
8
0
10
319.796997
20
59.500000
30
-4.000000
11
332.078003
21
31.533600
31
-4.000000
12
331.700012
22
30.000000
32
-4.000000
13
331.700012
23
30.000000
33
-4.000000
0
3DFACE
8
0
10
46.970100
20
-101.188004
30
-4.000000
11
302.078003
21
-100.533997
31
-4.000000
12
303.125000
22
-101.716003
32
-4.000000
13
303.125000
23
-101.716003
33
-4.000000
0
3DFACE
8
0
10
46.970100
20
-101.188004
30
-4.000000
11
303.125000
21
-101.716003
31
-4.000000
12
350.000000
22
-150.000000
32
-4.000000
13
350.000000
23
-150.000000
33
-4.000000
0
3DFACE
8
0
10
45.670200
20
-102.085999
30
-4.000000
11
46.970100
21
-101.188004
31
-4.000000
12
350.000000
22
-150.000000
32
-4.000000
13
350.000000
23
-150.000000
33
-4.000000
0
3DFACE
8
0
10
47.704102
20
-99.789703
30
-4.000000
11
301.700012
21
-99.000000
31
-4.000000
12
302.078003
22
-100.533997
32
-4.000000
13
302.078003
23
-100.533997
33
-4.000000
0
3DFACE
8
0
10
47.704102
20
-99.789703
30
-4.000000
11
302.078003
21
-100.533997
31
-4.000000
12
46.970100
22
-101.188004
32
-4.000000
13
46.970100
23
-101.188004
33
-4.000000
0
3DFACE
8
0
10
44.102200
20
-102.276001
30
-4.000000
11
45.670200
21
-102.085999
31
-4.000000
12
350.000000
22
-150.000000
32
-4.000000
13
350.000000
23
-150.000000
33
-4.000000
0
3DFACE
8
0
10
47.704102
20
-98.210297
30
-4.000000
11
301.700012
21
-99.000000
31
-4.000000
12
47.704102
22
-99.789703
32
-4.000000
13
47.704102
23
-99.789703
33
-4.000000
0
3DFACE
8
0
10
47.704102
20
-98.210297
30
-4.000000
11
302.078003
21
-97.466400
31
-4.000000
12
301.700012
22
-99.000000
32
-4.000000
13
301.700012
23
-99.000000
33
-4.000000
0
3DFACE
8
0
10
46.970100
20
-96.811699
30
-4.000000
11
302.078003
21
-97.466400
31
-4.000000
12
47.704102
22
-98.210297
32
-4.000000
13
47.704102
23
-98.210297
33
-4.000000
0
3DFACE
8
0
10
259.500000
20
119.796997
30
-4.000000
11
319.796997
21
59.500000
31
-4.000000
12
302.078003
22
-97.466400
32
-4.000000
13
302.078003
23
-97.466400
33
-4.000000
0
3DFACE
8
0
10
231.169998
20
131.914001
30
-4.000000
11
232.470001
21
132.811996
31
-4.000000
12
259.500000
22
119.796997
32
-4.000000
13
259.500000
23
119.796997
33
-4.000000
0
3DFACE
8
0
10
233.203995
20
134.210007
30
-4.000000
11
259.500000
21
150.000000
31
-4.000000
12
259.500000
22
119.796997
32
-4.000000
13
259.500000
23
119.796997
33
-4.000000
0
3DFACE
8
0
10
233.203995
20
134.210007
30
-4.000000
11
259.500000
21
119.796997
31
-4.000000
12
232.470001
22
132.811996
32
-4.000000
13
232.470001
23
132.811996
33
-4.000000
0
3DFACE
8
0
10
229.602005
20
131.723999
30
-4.000000
11
302.078003
21
-97.466400
31
-4.000000
12
46.970100
22
-96.811699
32
-4.000000
13
46.970100
23
-96.811699
33
-4.000000
0
3DFACE
8
0
10
229.602005
20
131.723999
30
-4.000000
11
259.500000
21
119.796997
31
-4.000000
12
302.078003
22
-97.466400
32
-4.000000
13
302.078003
23
-97.466400
33
-4.000000
0
3DFACE
8
0
10
229.602005
20
131.723999
30
-4.000000
11
231.169998
21
131.914001
31
-4.000000
12
259.500000
22
119.796997
32
-4.000000
13
259.500000
23
119.796997
33
-4.000000
0
3DFACE
8
0
10
233.203995
20
135.789993
30
-4.000000
11
259.500000
21
150.000000
31
-4.000000
12
233.203995
22
134.210007
32
-4.000000
13
233.203995
23
134.210007
33
-4.000000
0
3DFACE
8
0
10
228.125000
20
132.283997
30
-4.000000
11
46.970100
21
-96.811699
31
-4.000000
12
45.670200
22
-95.914398
32
-4.000000
13
45.670200
23
-95.914398
33
-4.000000
0
3DFACE
8
0
10
228.125000
20
132.283997
30
-4.000000
11
229.602005
21
131.723999
31
-4.000000
12
46.970100
22
-96.811699
32
-4.000000
13
46.970100
23
-96.811699
33
-4.000000
0
3DFACE
8
0
10
232.470001
20
137.188004
30
-4.000000
11
259.500000
21
150.000000
31
-4.000000
12
233.203995
22
135.789993
32
-4.000000
13
233.203995
23
135.789993
33
-4.000000
0
3DFACE
8
0
10
227.078003
20
133.466003
30
-4.000000
11
228.125000
21
132.283997
31
-4.000000
12
45.670200
22
-95.914398
32
-4.000000
13
45.670200
23
-95.914398
33
-4.000000
0
3DFACE
8
0
10
231.169998
20
138.085999
30
-4.000000
11
259.500000
21
150.000000
31
-4.000000
12
232.470001
22
137.188004
32
-4.000000
13
232.470001
23
137.188004
33
-4.000000
0
3DFACE
8
0
10
229.602005
20
138.276001
30
-4.000000
11
259.500000
21
150.000000
31
-4.000000
12
231.169998
22
138.085999
32
-4.000000
13
231.169998
23
138.085999
33
-4.000000
0
3DFACE
8
0
10
-42.029900
20
-101.188004
30
-4.000000
11
41.577999
21
-100.533997
31
-4.000000
12
42.625401
22
-101.716003
32
-4.000000
13
42.625401
23
-101.716003
33
-4.000000
0
3DFACE
8
0
10
-43.329800
20
-102.085999
30
-4.000000
11
42.625401
21
-101.716003
31
-4.000000
12
44.102200
22
-102.276001
32
-4.000000
13
44.102200
23
-102.276001
33
-4.000000
0
3DFACE
8
0
10
-43.329800
20
-102.085999
30
-4.000000
11
-42.029900
21
-101.188004
31
-4.000000
12
42.625401
22
-101.716003
32
-4.000000
13
42.625401
23
-101.716003
33
-4.000000
0
3DFACE
8
0
10
-41.295898
20
-99.789703
30
-4.000000
11
41.200001
21
-99.000000
31
-4.000000
12
41.577999
22
-100.533997
32
-4.000000
13
41.577999
23
-100.533997
33
-4.000000
0
3DFACE
8
0
10
-41.295898
20
-99.789703
30
-4.000000
11
41.577999
21
-100.533997
31
-4.000000
12
-42.029900
22
-101.188004
32
-4.000000
13
-42.029900
23
-101.188004
33
-4.000000
0
3DFACE
8
0
10
-44.897800
20
-102.276001
30
-4.000000
11
-43.329800
21
-102.085999
31
-4.000000
12
44.102200
22
-102.276001
32
-4.000000
13
44.102200
23
-102.276001
33
-4.000000
0
3DFACE
8
0
10
-41.295898
20
-98.210297
30
-4.000000
11
41.200001
21
-99.000000
31
-4.000000
12
-41.295898
22
-99.789703
32
-4.000000
13
-41.295898
23
-99.789703
33
-4.000000
0
3DFACE
8
0
10
-41.295898
20
-98.210297
30
-4.000000
11
41.577999
21
-97.466400
31
-4.000000
12
41.200001
22
-99.000000
32
-4.000000
13
41.200001
23
-99.000000
33
-4.000000
0
3DFACE
8
0
10
-42.029900
20
-96.811699
30
-4.000000
11
41.577999
21
-97.466400
31
-4.000000
12
-41.295898
22
-98.210297
32
-4.000000
13
-41.295898
23
-98.210297
33
-4.000000
0
3DFACE
8
0
10
-42.029900
20
-96.811699
30
-4.000000
11
42.625401
21
-96.284203
31
-4.000000
12
41.577999
22
-97.466400
32
-4.000000
13
41.577999
23
-97.466400
33
-4.000000
0
3DFACE
8
0
10
-43.329800
20
-95.914398
30
-4.000000
11
42.625401
21
-96.284203
31
-4.000000
12
-42.029900
22
-96.811699
32
-4.000000
13
-42.029900
23
-96.811699
33
-4.000000
0
3DFACE
8
0
10
2.470100
20
132.811996
30
-4.000000
11
227.078003
21
133.466003
31
-4.000000
12
45.670200
22
-95.914398
32
-4.000000
13
45.670200
23
-95.914398
33
-4.000000
0
3DFACE
8
0
10
1.170200
20
131.914001
30
-4.000000
11
2.470100
21
132.811996
31
-4.000000
12
45.670200
22
-95.914398
32
-4.000000
13
45.670200
23
-95.914398
33
-4.000000
0
3DFACE
8
0
10
1.170200
20
131.914001
30
-4.000000
11
45.670200
21
-95.914398
31
-4.000000
12
44.102200
22
-95.724098
32
-4.000000
13
44.102200
23
-95.724098
33
-4.000000
0
3DFACE
8
0
10
3.204100
20
134.210007
30
-4.000000
11
226.699997
21
135.000000
31
-4.000000
12
227.078003
22
133.466003
32
-4.000000
13
227.078003
23
133.466003
33
-4.000000
0
3DFACE
8
0
10
3.204100
20
134.210007
30
-4.000000
11
227.078003
21
133.466003
31
-4.000000
12
2.470100
22
132.811996
32
-4.000000
13
2.470100
23
132.811996
33
-4.000000
0
3DFACE
8
0
10
-0.397800
20
131.723999
30
-4.000000
11
42.625401
21
-96.284203
31
-4.000000
12
-43.329800
22
-95.914398
32
-4.000000
13
-43.329800
23
-95.914398
33
-4.000000
0
3DFACE
8
0
10
-0.397800
20
131.723999
30
-4.000000
11
-43.329800
21
-95.914398
31
-4.000000
12
-44.897800
22
-95.724098
32
-4.000000
13
-44.897800
23
-95.724098
33
-4.000000
0
3DFACE
8
0
10
-0.397800
20
131.723999
30
-4.000000
11
1.170200
21
131.914001
31
-4.000000
12
44.102200
22
-95.724098
32
-4.000000
13
44.102200
23
-95.724098
33
-4.000000
0
3DFACE
8
0
10
-0.397800
20
131.723999
30
-4.000000
11
44.102200
21
-95.724098
31
-4.000000
12
42.625401
22
-96.284203
32
-4.000000
13
42.625401
23
-96.284203
33
-4.000000
0
3DFACE
8
0
10
3.204100
20
135.789993
30
-4.000000
11
227.078003
21
136.533997
31
-4.000000
12
226.699997
22
135.000000
32
-4.000000
13
226.699997
23
135.000000
33
-4.000000
0
3DFACE
8
0
10
3.204100
20
135.789993
30
-4.000000
11
226.699997
21
135.000000
31
-4.000000
12
3.204100
22
134.210007
32
-4.000000
13
3.204100
23
134.210007
33
-4.000000
0
3DFACE
8
0
10
-1.874600
20
132.283997
30
-4.000000
11
-44.897800
21
-95.724098
31
-4.000000
12
-46.374599
22
-96.284203
32
-4.000000
13
-46.374599
23
-96.284203
33
-4.000000
0
3DFACE
8
0
10
-1.874600
20
132.283997
30
-4.000000
11
-0.397800
21
131.723999
31
-4.000000
12
-44.897800
22
-95.724098
32
-4.000000
13
-44.897800
23
-95.724098
33
-4.000000
0
3DFACE
8
0
10
2.470100
20
137.188004
30
-4.000000
11
228.125000
21
137.716003
31
-4.000000
12
227.078003
22
136.533997
32
-4.000000
13
227.078003
23
136.533997
33
-4.000000
0
3DFACE
8
0
10
2.470100
20
137.188004
30
-4.000000
11
227.078003
21
136.533997
31
-4.000000
12
3.204100
22
135.789993
32
-4.000000
13
3.204100
23
135.789993
33
-4.000000
0
3DFACE
8
0
10
-2.922000
20
133.466003
30
-4.000000
11
-1.874600
21
132.283997
31
-4.000000
12
-46.374599
22
-96.284203
32
-4.000000
13
-46.374599
23
-96.284203
33
-4.000000
0
3DFACE
8
0
10
1.170200
20
138.085999
30
-4.000000
11
229.602005
21
138.276001
31
-4.000000
12
228.125000
22
137.716003
32
-4.000000
13
228.125000
23
137.716003
33
-4.000000
0
3DFACE
8
0
10
1.170200
20
138.085999
30
-4.000000
11
228.125000
21
137.716003
31
-4.000000
12
2.470100
22
137.188004
32
-4.000000
13
2.470100
23
137.188004
33
-4.000000
0
3DFACE
8
0
10
1.170200
20
138.085999
30
-4.000000
11
259.500000
21
150.000000
31
-4.000000
12
229.602005
22
138.276001
32
-4.000000
13
229.602005
23
138.276001
33
-4.000000
0
3DFACE
8
0
10
-350.000000
20
-150.000000
30
-4.000000
11
-46.374599
21
-101.716003
31
-4.000000
12
-44.897800
22
-102.276001
32
-4.000000
13
-44.897800
23
-102.276001
33
-4.000000
0
3DFACE
8
0
10
-350.000000
20
-150.000000
30
-4.000000
11
44.102200
21
-102.276001
31
-4.000000
12
350.000000
22
-150.000000
32
-4.000000
13
350.000000
23
-150.000000
33
-4.000000
0
3DFACE
8
0
10
-350.000000
20
-150.000000
30
-4.000000
11
-44.897800
21
-102.276001
31
-4.000000
12
44.102200
22
-102.276001
32
-4.000000
13
44.102200
23
-102.276001
33
-4.000000
0
3DFACE
8
0
10
-302.529999
20
-101.188004
30
-4.000000
11
-47.422001
21
-100.533997
31
-4.000000
12
-46.374599
22
-101.716003
32
-4.000000
13
-46.374599
23
-101.716003
33
-4.000000
0
3DFACE
8
0
10
-302.529999
20
-101.188004
30
-4.000000
11
-46.374599
21
-101.716003
31
-4.000000
12
-350.000000
22
-150.000000
32
-4.000000
13
-350.000000
23
-150.000000
33
-4.000000
0
3DFACE
8
0
10
-303.829987
20
-102.085999
30
-4.000000
11
-302.529999
21
-101.188004
31
-4.000000
12
-350.000000
22
-150.000000
32
-4.000000
13
-350.000000
23
-150.000000
33
-4.000000
0
3DFACE
8
0
10
-301.795990
20
-99.789703
30
-4.000000
11
-47.799999
21
-99.000000
31
-4.000000
12
-47.422001
22
-100.533997
32
-4.000000
13
-47.422001
23
-100.533997
33
-4.000000
0
3DFACE
8
0
10
-301.795990
20
-99.789703
30
-4.000000
11
-47.422001
21
-100.533997
31
-4.000000
12
-302.529999
22
-101.188004
32
-4.000000
13
-302.529999
23
-101.188004
33
-4.000000
0
3DFACE
8
0
10
-305.398010
20
-102.276001
30
-4.000000
11
-303.829987
21
-102.085999
31
-4.000000
12
-350.000000
22
-150.000000
32
-4.000000
13
-350.000000
23
-150.000000
33
-4.000000
0
3DFACE
8
0
10
-301.795990
20
-98.210297
30
-4.000000
11
-47.422001
21
-97.466400
31
-4.000000
12
-47.799999
22
-99.000000
32
-4.000000
13
-47.799999
23
-99.000000
33
-4.000000
0
3DFACE
8
0
10
-301.795990
20
-98.210297
30
-4.000000
11
-47.799999
21
-99.000000
31
-4.000000
12
-301.795990
22
-99.789703
32
-4.000000
13
-301.795990
23
-99.789703
33
-4.000000
0
3DFACE
8
0
10
-306.875000
20
-101.716003
30
-4.000000
11
-305.398010
21
-102.276001
31
-4.000000
12
-350.000000
22
-150.000000
32
-4.000000
13
-350.000000
23
-150.000000
33
-4.000000
0
3DFACE
8
0
10
-302.529999
20
-96.811699
30
-4.000000
11
-47.422001
21
-97.466400
31
-4.000000
12
-301.795990
22
-98.210297
32
-4.000000
13
-301.795990
23
-98.210297
33
-4.000000
0
3DFACE
8
0
10
-332.529999
20
-101.188004
30
-4.000000
11
-307.921997
21
-100.533997
31
-4.000000
12
-306.875000
22
-101.716003
32
-4.000000
13
-306.875000
23
-101.716003
33
-4.000000
0
3DFACE
8
0
10
-333.829987
20
-102.085999
30
-4.000000
11
-332.529999
21
-101.188004
31
-4.000000
12
-306.875000
22
-101.716003
32
-4.000000
13
-306.875000
23
-101.716003
33
-4.000000
0
3DFACE
8
0
10
-333.829987
20
-102.085999
30
-4.000000
11
-306.875000
21
-101.716003
31
-4.000000
12
-350.000000
22
-150.000000
32
-4.000000
13
-350.000000
23
-150.000000
33
-4.000000
0
3DFACE
8
0
10
-331.795990
20
-99.789703
30
-4.000000
11
-308.299988
21
-99.000000
31
-4.000000
12
-307.921997
22
-100.533997
32
-4.000000
13
-307.921997
23
-100.533997
33
-4.000000
0
3DFACE
8
0
10
-331.795990
20
-99.789703
30
-4.000000
11
-307.921997
21
-100.533997
31
-4.000000
12
-332.529999
22
-101.188004
32
-4.000000
13
-332.529999
23
-101.188004
33
-4.000000
0
3DFACE
8
0
10
-335.398010
20
-102.276001
30
-4.000000
11
-333.829987
21
-102.085999
31
-4.000000
12
-350.000000
22
-150.000000
32
-4.000000
13
-350.000000
23
-150.000000
33
-4.000000
0
3DFACE
8
0
10
-331.795990
20
-98.210297
30
-4.000000
11
-307.921997
21
-97.466400
31
-4.000000
12
-308.299988
22
-99.000000
32
-4.000000
13
-308.299988
23
-99.000000
33
-4.000000
0
3DFACE
8
0
10
-331.795990
20
-98.210297
30
-4.000000
11
-308.299988
21
-99.000000
31
-4.000000
12
-331.795990
22
-99.789703
32
-4.000000
13
-331.795990
23
-99.789703
33
-4.000000
0
3DFACE
8
0
10
-336.875000
20
-101.716003
30
-4.000000
11
-335.398010
21
-102.276001
31
-4.000000
12
-350.000000
22
-150.000000
32
-4.000000
13
-350.000000
23
-150.000000
33
-4.000000
0
3DFACE
8
0
10
-332.529999
20
-96.811699
30
-4.000000
11
-306.875000
21
-96.284203
31
-4.000000
12
-307.921997
22
-97.466400
32
-4.000000
13
-307.921997
23
-97.466400
33
-4.000000
0
3DFACE
8
0
10
-332.529999
20
-96.811699
30
-4.000000
11
-307.921997
21
-97.466400
31
-4.000000
12
-331.795990
22
-98.210297
32
-4.000000
13
-331.795990
23
-98.210297
33
-4.000000
0
3DFACE
8
0
10
-337.921997
20
-100.533997
30
-4.000000
11
-336.875000
21
-101.716003
31
-4.000000
12
-350.000000
22
-150.000000
32
-4.000000
13
-350.000000
23
-150.000000
33
-4.000000
0
3DFACE
8
0
10
-333.829987
20
-95.914398
30
-4.000000
11
-305.398010
21
-95.724098
31
-4.000000
12
-306.875000
22
-96.284203
32
-4.000000
13
-306.875000
23
-96.284203
33
-4.000000
0
3DFACE
8
0
10
-333.829987
20
-95.914398
30
-4.000000
11
-306.875000
21
-96.284203
31
-4.000000
12
-332.529999
22
-96.811699
32
-4.000000
13
-332.529999
23
-96.811699
33
-4.000000
0
3DFACE
8
0
10
-338.299988
20
-99.000000
30
-4.000000
11
-337.921997
21
-100.533997
31
-4.000000
12
-350.000000
22
-150.000000
32
-4.000000
13
-350.000000
23
-150.000000
33
-4.000000
0
3DFACE
8
0
10
-332.529999
20
27.811701
30
-4.000000
11
-302.529999
21
-96.811699
31
-4.000000
12
-303.829987
22
-95.914398
32
-4.000000
13
-303.829987
23
-95.914398
33
-4.000000
0
3DFACE
8
0
10
-227.529999
20
132.811996
30
-4.000000
11
-2.922000
21
133.466003
31
-4.000000
12
-46.374599
22
-96.284203
32
-4.000000
13
-46.374599
23
-96.284203
33
-4.000000
0
3DFACE
8
0
10
-228.830002
20
131.914001
30
-4.000000
11
-46.374599
21
-96.284203
31
-4.000000
12
-47.422001
22
-97.466400
32
-4.000000
13
-47.422001
23
-97.466400
33
-4.000000
0
3DFACE
8
0
10
-228.830002
20
131.914001
30
-4.000000
11
-47.422001
21
-97.466400
31
-4.000000
12
-302.529999
22
-96.811699
32
-4.000000
13
-302.529999
23
-96.811699
33
-4.000000
0
3DFACE
8
0
10
-228.830002
20
131.914001
30
-4.000000
11
-227.529999
21
132.811996
31
-4.000000
12
-46.374599
22
-96.284203
32
-4.000000
13
-46.374599
23
-96.284203
33
-4.000000
0
3DFACE
8
0
10
-333.829987
20
26.914400
30
-4.000000
11
-303.829987
21
-95.914398
31
-4.000000
12
-305.398010
22
-95.724098
32
-4.000000
13
-305.398010
23
-95.724098
33
-4.000000
0
3DFACE
8
0
10
-333.829987
20
26.914400
30
-4.000000
11
-333.829987
21
-95.914398
31
-4.000000
12
-335.398010
22
-95.724098
32
-4.000000
13
-335.398010
23
-95.724098
33
-4.000000
0
3DFACE
8
0
10
-333.829987
20
26.914400
30
-4.000000
11
-305.398010
21
-95.724098
31
-4.000000
12
-333.829987
22
-95.914398
32
-4.000000
13
-333.829987
23
-95.914398
33
-4.000000
0
3DFACE
8
0
10
-333.829987
20
26.914400
30
-4.000000
11
-332.529999
21
27.811701
31
-4.000000
12
-303.829987
22
-95.914398
32
-4.000000
13
-303.829987
23
-95.914398
33
-4.000000
0
3DFACE
8
0
10
-331.795990
20
29.210300
30
-4.000000
11
-302.529999
21
-96.811699
31
-4.000000
12
-332.529999
22
27.811701
32
-4.000000
13
-332.529999
23
27.811701
33
-4.000000
0
3DFACE
8
0
10
-226.796005
20
134.210007
30
-4.000000
11
-3.300000
21
135.000000
31
-4.000000
12
-2.922000
22
133.466003
32
-4.000000
13
-2.922000
23
133.466003
33
-4.000000
0
3DFACE
8
0
10
-226.796005
20
134.210007
30
-4.000000
11
-2.922000
21
133.466003
31
-4.000000
12
-227.529999
22
132.811996
32
-4.000000
13
-227.529999
23
132.811996
33
-4.000000
0
3DFACE
8
0
10
-335.398010
20
26.724100
30
-4.000000
11
-333.829987
21
26.914400
31
-4.000000
12
-335.398010
22
-95.724098
32
-4.000000
13
-335.398010
23
-95.724098
33
-4.000000
0
3DFACE
8
0
10
-226.796005
20
135.789993
30
-4.000000
11
-3.300000
21
135.000000
31
-4.000000
12
-226.796005
22
134.210007
32
-4.000000
13
-226.796005
23
134.210007
33
-4.000000
0
3DFACE
8
0
10
-226.796005
20
135.789993
30
-4.000000
11
-2.922000
21
136.533997
31
-4.000000
12
-3.300000
22
135.000000
32
-4.000000
13
-3.300000
23
135.000000
33
-4.000000
0
3DFACE
8
0
10
-336.875000
20
27.284201
30
-4.000000
11
-335.398010
21
26.724100
31
-4.000000
12
-335.398010
22
-95.724098
32
-4.000000
13
-335.398010
23
-95.724098
33
-4.000000
0
3DFACE
8
0
10
-336.875000
20
27.284201
30
-4.000000
11
-335.398010
21
-95.724098
31
-4.000000
12
-336.875000
22
-96.284203
32
-4.000000
13
-336.875000
23
-96.284203
33
-4.000000
0
3DFACE
8
0
10
-336.875000
20
27.284201
30
-4.000000
11
-336.875000
21
-96.284203
31
-4.000000
12
-337.921997
22
-97.466400
32
-4.000000
13
-337.921997
23
-97.466400
33
-4.000000
0
3DFACE
8
0
10
-227.529999
20
137.188004
30
-4.000000
11
-2.922000
21
136.533997
31
-4.000000
12
-226.796005
22
135.789993
32
-4.000000
13
-226.796005
23
135.789993
33
-4.000000
0
3DFACE
8
0
10
-227.529999
20
137.188004
30
-4.000000
11
-1.874600
21
137.716003
31
-4.000000
12
-2.922000
22
136.533997
32
-4.000000
13
-2.922000
23
136.533997
33
-4.000000
0
3DFACE
8
0
10
-337.921997
20
28.466400
30
-4.000000
11
-336.875000
21
27.284201
31
-4.000000
12
-337.921997
22
-97.466400
32
-4.000000
13
-337.921997
23
-97.466400
33
-4.000000
0
3DFACE
8
0
10
-228.830002
20
138.085999
30
-4.000000
11
-1.874600
21
137.716003
31
-4.000000
12
-227.529999
22
137.188004
32
-4.000000
13
-227.529999
23
137.188004
33
-4.000000
0
3DFACE
8
0
10
-228.830002
20
138.085999
30
-4.000000
11
-0.397800
21
138.276001
31
-4.000000
12
-1.874600
22
137.716003
32
-4.000000
13
-1.874600
23
137.716003
33
-4.000000
0
3DFACE
8
0
10
-259.500000
20
119.796997
30
-4.000000
11
-228.830002
21
131.914001
31
-4.000000
12
-302.529999
22
-96.811699
32
-4.000000
13
-302.529999
23
-96.811699
33
-4.000000
0
3DFACE
8
0
10
-259.500000
20
119.796997
30
-4.000000
11
-233.300003
21
135.000000
31
-4.000000
12
-232.921997
22
133.466003
32
-4.000000
13
-232.921997
23
133.466003
33
-4.000000
0
3DFACE
8
0
10
-259.500000
20
119.796997
30
-4.000000
11
-232.921997
21
133.466003
31
-4.000000
12
-231.875000
22
132.283997
32
-4.000000
13
-231.875000
23
132.283997
33
-4.000000
0
3DFACE
8
0
10
-259.500000
20
119.796997
30
-4.000000
11
-231.875000
21
132.283997
31
-4.000000
12
-230.397995
22
131.723999
32
-4.000000
13
-230.397995
23
131.723999
33
-4.000000
0
3DFACE
8
0
10
-259.500000
20
119.796997
30
-4.000000
11
-230.397995
21
131.723999
31
-4.000000
12
-228.830002
22
131.914001
32
-4.000000
13
-228.830002
23
131.914001
33
-4.000000
0
3DFACE
8
0
10
-319.796997
20
59.500000
30
-4.000000
11
-302.529999
21
-96.811699
31
-4.000000
12
-331.795990
22
29.210300
32
-4.000000
13
-331.795990
23
29.210300
33
-4.000000
0
3DFACE
8
0
10
-319.796997
20
59.500000
30
-4.000000
11
-259.500000
21
119.796997
31
-4.000000
12
-302.529999
22
-96.811699
32
-4.000000
13
-302.529999
23
-96.811699
33
-4.000000
0
3DFACE
8
0
10
-319.796997
20
59.500000
30
-4.000000
11
-331.795990
21
29.210300
31
-4.000000
12
-331.795990
22
30.789700
32
-4.000000
13
-331.795990
23
30.789700
33
-4.000000
0
3DFACE
8
0
10
-319.796997
20
59.500000
30
-4.000000
11
-331.795990
21
30.789700
31
-4.000000
12
-332.529999
22
32.188301
32
-4.000000
13
-332.529999
23
32.188301
33
-4.000000
0
3DFACE
8
0
10
-319.796997
20
59.500000
30
-4.000000
11
-332.529999
21
32.188301
31
-4.000000
12
-333.829987
22
33.085602
32
-4.000000
13
-333.829987
23
33.085602
33
-4.000000
0
3DFACE
8
0
10
-319.796997
20
59.500000
30
-4.000000
11
-333.829987
21
33.085602
31
-4.000000
12
-335.398010
22
33.275902
32
-4.000000
13
-335.398010
23
33.275902
33
-4.000000
0
3DFACE
8
0
10
-350.000000
20
59.500000
30
-4.000000
11
-337.921997
21
28.466400
31
-4.000000
12
-337.921997
22
-97.466400
32
-4.000000
13
-337.921997
23
-97.466400
33
-4.000000
0
3DFACE
8
0
10
-350.000000
20
59.500000
30
-4.000000
11
-319.796997
21
59.500000
31
-4.000000
12
-335.398010
22
33.275902
32
-4.000000
13
-335.398010
23
33.275902
33
-4.000000
0
3DFACE
8
0
10
-350.000000
20
59.500000
30
-4.000000
11
-338.299988
21
30.000000
31
-4.000000
12
-337.921997
22
28.466400
32
-4.000000
13
-337.921997
23
28.466400
33
-4.000000
0
3DFACE
8
0
10
-350.000000
20
59.500000
30
-4.000000
11
-335.398010
21
33.275902
31
-4.000000
12
-336.875000
22
32.715801
32
-4.000000
13
-336.875000
23
32.715801
33
-4.000000
0
3DFACE
8
0
10
-350.000000
20
59.500000
30
-4.000000
11
-336.875000
21
32.715801
31
-4.000000
12
-337.921997
22
31.533600
32
-4.000000
13
-337.921997
23
31.533600
33
-4.000000
0
3DFACE
8
0
10
-350.000000
20
59.500000
30
-4.000000
11
-337.921997
21
31.533600
31
-4.000000
12
-338.299988
22
30.000000
32
-4.000000
13
-338.299988
23
30.000000
33
-4.000000
0
3DFACE
8
0
10
-350.000000
20
59.500000
30
-4.000000
11
-338.299988
21
-99.000000
31
-4.000000
12
-350.000000
22
-150.000000
32
-4.000000
13
-350.000000
23
-150.000000
33
-4.000000
0
3DFACE
8
0
10
-350.000000
20
59.500000
30
-4.000000
11
-337.921997
21
-97.466400
31
-4.000000
12
-338.299988
22
-99.000000
32
-4.000000
13
-338.299988
23
-99.000000
33
-4.000000
0
3DFACE
8
0
10
-259.500000
20
150.000000
30
-4.000000
11
-232.921997
21
136.533997
31
-4.000000
12
-233.300003
22
135.000000
32
-4.000000
13
-233.300003
23
135.000000
33
-4.000000
0
3DFACE
8
0
10
-259.500000
20
150.000000
30
-4.000000
11
-233.300003
21
135.000000
31
-4.000000
12
-259.500000
22
119.796997
32
-4.000000
13
-259.500000
23
119.796997
33
-4.000000
0
3DFACE
8
0
10
-259.500000
20
150.000000
30
-4.000000
11
-228.830002
21
138.085999
31
-4.000000
12
-230.397995
22
138.276001
32
-4.000000
13
-230.397995
23
138.276001
33
-4.000000
0
3DFACE
8
0
10
-259.500000
20
150.000000
30
-4.000000
11
-0.397800
21
138.276001
31
-4.000000
12
-228.830002
22
138.085999
32
-4.000000
13
-228.830002
23
138.085999
33
-4.000000
0
3DFACE
8
0
10
-259.500000
20
150.000000
30
-4.000000
11
-230.397995
21
138.276001
31
-4.000000
12
-231.875000
22
137.716003
32
-4.000000
13
-231.875000
23
137.716003
33
-4.000000
0
3DFACE
8
0
10
-259.500000
20
150.000000
30
-4.000000
11
-231.875000
21
137.716003
31
-4.000000
12
-232.921997
22
136.533997
32
-4.000000
13
-232.921997
23
136.533997
33
-4.000000
0
3DFACE
8
0
10
-259.500000
20
150.000000
30
-4.000000
11
259.500000
21
150.000000
31
-4.000000
12
-0.397800
22
138.276001
32
-4.000000
13
-0.397800
23
138.276001
33
-4.000000
0
3DFACE
8
0
10
-0.397800
20
138.276001
30
-4.000000
11
259.500000
21
150.000000
31
-4.000000
12
1.170200
22
138.085999
32
-4.000000
13
1.170200
23
138.085999
33
-4.000000
0
ENDSEC
0
EOF
