  0
SECTION
  2
HEADER
  9
$ACADVER
  1
AC1009
  9
$INSBASE
 10
0.0
 20
0.0
 30
0.0
  9
$EXTMIN
 10
0.0
 20
0.0
 30
0.0
  9
$EXTMAX
 10
0.0
 20
0.0
 30
0.0
  0
ENDSEC
  0
SECTION
  2
TABLES
  0
TABLE
  2
VPORT
 70
0
  0
ENDTAB
  0
TABLE
  2
LTYPE
 70
1
  0
LTYPE
  2
CONTINUOUS
 70
0
  3
Solid line
 72
65
 73
0
 40
0.0
  0
ENDTAB
  0
TABLE
  2
LAYER
 70
1
  0
LAYER
  2
0
 70
64
 62
7
  6
continuous
  0
ENDTAB
  0
TABLE
  2
STYLE
 70
1
  0
STYLE
  2
STANDARD
 70
0
 40
0
 41
1.0
 50
0.0
 71
0
 42
1
 3
ARIAL.TTF
 4

  0
ENDTAB
  0
TABLE
  2
VIEW
 70
0
  0
ENDTAB
  0
ENDSEC
  0
SECTION
  2
BLOCKS
  0
BLOCK
  8
0
  2
FACEFEAT
 70
0
 10
0.0
 20
0.0
 30
0.0
  3
FACEFEAT
  0
ARC
  8
0
 62
0
 10
-335.5
 20
-234.5
 30
0.0
 40
1.7499999999999738
 50
-0.0
 51
-180.0
  0
ARC
  8
0
 62
0
 10
-335.5
 20
214.5
 30
0.0
 40
1.7499999999999738
 50
-0.0
 51
-180.0
  0
ARC
  8
0
 62
0
 10
-335.5
 20
254.5
 30
0.0
 40
1.7499999999999738
 50
-0.0
 51
-180.0
  0
ARC
  8
0
 62
0
 10
-335.5
 20
234.5
 30
0.0
 40
1.7499999999999738
 50
-0.0
 51
-180.0
  0
ARC
  8
0
 62
0
 10
-335.5
 20
-214.5
 30
0.0
 40
1.7499999999999738
 50
-0.0
 51
-180.0
  0
ARC
  8
0
 62
0
 10
-335.5
 20
-254.5
 30
0.0
 40
1.7499999999999738
 50
-0.0
 51
-180.0
  0
ARC
  8
0
 62
0
 10
-335.5
 20
-254.5
 30
0.0
 40
1.7499999999999738
 50
-180.0
 51
-0.0
  0
ARC
  8
0
 62
0
 10
-335.5
 20
-214.5
 30
0.0
 40
1.7499999999999738
 50
-180.0
 51
-0.0
  0
ARC
  8
0
 62
0
 10
-335.5
 20
234.5
 30
0.0
 40
1.7499999999999738
 50
-180.0
 51
-0.0
  0
ARC
  8
0
 62
0
 10
-335.5
 20
254.5
 30
0.0
 40
1.7499999999999738
 50
-180.0
 51
-0.0
  0
ARC
  8
0
 62
0
 10
-335.5
 20
214.5
 30
0.0
 40
1.7499999999999738
 50
-180.0
 51
-0.0
  0
ARC
  8
0
 62
0
 10
-335.5
 20
-234.5
 30
0.0
 40
1.7499999999999738
 50
-180.0
 51
-0.0
  0
LINE
  8
0
 62
0
 10
-348.0
 20
264.5
 30
0.0
 11
-319.796872451456
 21
264.49999999999994
 31
0.0
  0
LINE
  8
0
 62
0
 10
-348.0
 20
264.5
 30
0.0
 11
-348.0
 21
-264.5
 31
0.0
  0
LINE
  8
0
 62
0
 10
-348.0
 20
-264.5
 30
0.0
 11
-319.796872451456
 21
-264.49999999999994
 31
0.0
  0
LINE
  8
0
 62
0
 10
-319.796872451456
 20
-264.5
 30
0.0
 11
-259.5000000000001
 21
-324.7968724514561
 31
0.0
  0
LINE
  8
0
 62
0
 10
-259.5
 20
-355.0
 30
0.0
 11
-259.49999999999994
 21
-324.796872451456
 31
0.0
  0
LINE
  8
0
 62
0
 10
-259.5
 20
-355.0
 30
0.0
 11
263.4999999999998
 21
-354.99999999999943
 31
0.0
  0
LINE
  8
0
 62
0
 10
263.4999999999998
 20
-355.0000000000003
 30
0.0
 11
263.4999999999998
 21
-324.7968724514563
 31
0.0
  0
LINE
  8
0
 62
0
 10
323.79687245145584
 20
-264.50000000000034
 30
0.0
 11
263.4999999999999
 21
-324.7968724514564
 31
0.0
  0
LINE
  8
0
 62
0
 10
351.99999999999983
 20
-264.50000000000034
 30
0.0
 11
323.79687245145584
 21
-264.5000000000003
 31
0.0
  0
LINE
  8
0
 62
0
 10
352.00000000000034
 20
264.49999999999966
 30
0.0
 11
351.99999999999983
 21
-264.50000000000034
 31
0.0
  0
LINE
  8
0
 62
0
 10
352.00000000000034
 20
264.49999999999966
 30
0.0
 11
323.7968724514564
 21
264.4999999999996
 31
0.0
  0
LINE
  8
0
 62
0
 10
323.7968724514564
 20
264.49999999999966
 30
0.0
 11
263.5000000000001
 21
324.79687245145635
 31
0.0
  0
LINE
  8
0
 62
0
 10
263.50000000000045
 20
354.9999999999997
 30
0.0
 11
263.5000000000004
 21
324.7968724514567
 31
0.0
  0
LINE
  8
0
 62
0
 10
-259.5
 20
355.0
 30
0.0
 11
263.50000000000045
 21
355.00000000000017
 31
0.0
  0
LINE
  8
0
 62
0
 10
-259.5
 20
355.0
 30
0.0
 11
-259.5
 21
324.796872451457
 31
0.0
  0
LINE
  8
0
 62
0
 10
-319.796872451456
 20
264.5
 30
0.0
 11
-259.49999999999966
 21
324.79687245145664
 31
0.0
  0
ENDBLK
  0
ENDSEC
  0
SECTION
  2
ENTITIES
  0
INSERT
  2
FACEFEAT
  8
0
 62
0
 10
0.0
 20
0.0
 30
0.0
  0
ENDSEC
  0
EOF
