999
Created by ADMesh version 0.98.3
0
SECTION
2
HEADER
0
ENDSEC
0
SECTION
2
TABLES
0
TABLE
2
LAYER
70
1
0
LAYER
2
0
70
0
62
7
6
CONTINUOUS
0
ENDTAB
0
ENDSEC
0
SECTION
2
BLOCKS
0
ENDSEC
0
SECTION
2
ENTITIES
0
3DFACE
8
0
10
364.200012
20
-99.000000
30
0.000000
11
364.200012
21
-99.000000
31
-4.000000
12
364.578003
22
-97.466400
32
0.000000
13
364.578003
23
-97.466400
33
0.000000
0
3DFACE
8
0
10
364.578003
20
-97.466400
30
0.000000
11
364.578003
21
-97.466400
31
-4.000000
12
365.625000
22
-96.284203
32
0.000000
13
365.625000
23
-96.284203
33
0.000000
0
3DFACE
8
0
10
364.200012
20
-99.000000
30
-4.000000
11
364.578003
21
-97.466400
31
-4.000000
12
364.578003
22
-97.466400
32
0.000000
13
364.578003
23
-97.466400
33
0.000000
0
3DFACE
8
0
10
365.625000
20
-96.284203
30
0.000000
11
365.625000
21
-96.284203
31
-4.000000
12
367.101990
22
-95.724098
32
0.000000
13
367.101990
23
-95.724098
33
0.000000
0
3DFACE
8
0
10
364.578003
20
-97.466400
30
-4.000000
11
365.625000
21
-96.284203
31
-4.000000
12
365.625000
22
-96.284203
32
0.000000
13
365.625000
23
-96.284203
33
0.000000
0
3DFACE
8
0
10
367.101990
20
-95.724098
30
0.000000
11
367.101990
21
-95.724098
31
-4.000000
12
368.670013
22
-95.914398
32
0.000000
13
368.670013
23
-95.914398
33
0.000000
0
3DFACE
8
0
10
365.625000
20
-96.284203
30
-4.000000
11
367.101990
21
-95.724098
31
-4.000000
12
367.101990
22
-95.724098
32
0.000000
13
367.101990
23
-95.724098
33
0.000000
0
3DFACE
8
0
10
368.670013
20
-95.914398
30
0.000000
11
368.670013
21
-95.914398
31
-4.000000
12
369.970001
22
-96.811699
32
0.000000
13
369.970001
23
-96.811699
33
0.000000
0
3DFACE
8
0
10
367.101990
20
-95.724098
30
-4.000000
11
368.670013
21
-95.914398
31
-4.000000
12
368.670013
22
-95.914398
32
0.000000
13
368.670013
23
-95.914398
33
0.000000
0
3DFACE
8
0
10
369.970001
20
-96.811699
30
0.000000
11
369.970001
21
-96.811699
31
-4.000000
12
370.704010
22
-98.210297
32
0.000000
13
370.704010
23
-98.210297
33
0.000000
0
3DFACE
8
0
10
368.670013
20
-95.914398
30
-4.000000
11
369.970001
21
-96.811699
31
-4.000000
12
369.970001
22
-96.811699
32
0.000000
13
369.970001
23
-96.811699
33
0.000000
0
3DFACE
8
0
10
370.704010
20
-98.210297
30
0.000000
11
370.704010
21
-98.210297
31
-4.000000
12
370.704010
22
-99.789703
32
0.000000
13
370.704010
23
-99.789703
33
0.000000
0
3DFACE
8
0
10
369.970001
20
-96.811699
30
-4.000000
11
370.704010
21
-98.210297
31
-4.000000
12
370.704010
22
-98.210297
32
0.000000
13
370.704010
23
-98.210297
33
0.000000
0
3DFACE
8
0
10
370.704010
20
-99.789703
30
0.000000
11
370.704010
21
-99.789703
31
-4.000000
12
369.970001
22
-101.188004
32
0.000000
13
369.970001
23
-101.188004
33
0.000000
0
3DFACE
8
0
10
370.704010
20
-98.210297
30
-4.000000
11
370.704010
21
-99.789703
31
-4.000000
12
370.704010
22
-99.789703
32
0.000000
13
370.704010
23
-99.789703
33
0.000000
0
3DFACE
8
0
10
369.970001
20
-101.188004
30
0.000000
11
369.970001
21
-101.188004
31
-4.000000
12
368.670013
22
-102.085999
32
0.000000
13
368.670013
23
-102.085999
33
0.000000
0
3DFACE
8
0
10
370.704010
20
-99.789703
30
-4.000000
11
369.970001
21
-101.188004
31
-4.000000
12
369.970001
22
-101.188004
32
0.000000
13
369.970001
23
-101.188004
33
0.000000
0
3DFACE
8
0
10
368.670013
20
-102.085999
30
0.000000
11
368.670013
21
-102.085999
31
-4.000000
12
367.101990
22
-102.276001
32
0.000000
13
367.101990
23
-102.276001
33
0.000000
0
3DFACE
8
0
10
369.970001
20
-101.188004
30
-4.000000
11
368.670013
21
-102.085999
31
-4.000000
12
368.670013
22
-102.085999
32
0.000000
13
368.670013
23
-102.085999
33
0.000000
0
3DFACE
8
0
10
368.670013
20
-102.085999
30
-4.000000
11
367.101990
21
-102.276001
31
-4.000000
12
367.101990
22
-102.276001
32
0.000000
13
367.101990
23
-102.276001
33
0.000000
0
3DFACE
8
0
10
367.101990
20
-102.276001
30
0.000000
11
365.625000
21
-101.716003
31
-4.000000
12
365.625000
22
-101.716003
32
0.000000
13
365.625000
23
-101.716003
33
0.000000
0
3DFACE
8
0
10
365.625000
20
-101.716003
30
0.000000
11
365.625000
21
-101.716003
31
-4.000000
12
364.578003
22
-100.533997
32
0.000000
13
364.578003
23
-100.533997
33
0.000000
0
3DFACE
8
0
10
367.101990
20
-102.276001
30
-4.000000
11
365.625000
21
-101.716003
31
-4.000000
12
367.101990
22
-102.276001
32
0.000000
13
367.101990
23
-102.276001
33
0.000000
0
3DFACE
8
0
10
364.578003
20
-100.533997
30
0.000000
11
364.578003
21
-100.533997
31
-4.000000
12
364.200012
22
-99.000000
32
0.000000
13
364.200012
23
-99.000000
33
0.000000
0
3DFACE
8
0
10
365.625000
20
-101.716003
30
-4.000000
11
364.578003
21
-100.533997
31
-4.000000
12
364.578003
22
-100.533997
32
0.000000
13
364.578003
23
-100.533997
33
0.000000
0
3DFACE
8
0
10
364.578003
20
-100.533997
30
-4.000000
11
364.200012
21
-99.000000
31
-4.000000
12
364.200012
22
-99.000000
32
0.000000
13
364.200012
23
-99.000000
33
0.000000
0
3DFACE
8
0
10
259.200012
20
135.000000
30
0.000000
11
259.200012
21
135.000000
31
-4.000000
12
259.578003
22
136.533997
32
0.000000
13
259.578003
23
136.533997
33
0.000000
0
3DFACE
8
0
10
259.578003
20
136.533997
30
0.000000
11
259.578003
21
136.533997
31
-4.000000
12
260.625000
22
137.716003
32
0.000000
13
260.625000
23
137.716003
33
0.000000
0
3DFACE
8
0
10
259.200012
20
135.000000
30
-4.000000
11
259.578003
21
136.533997
31
-4.000000
12
259.578003
22
136.533997
32
0.000000
13
259.578003
23
136.533997
33
0.000000
0
3DFACE
8
0
10
260.625000
20
137.716003
30
0.000000
11
260.625000
21
137.716003
31
-4.000000
12
262.101990
22
138.276001
32
0.000000
13
262.101990
23
138.276001
33
0.000000
0
3DFACE
8
0
10
259.578003
20
136.533997
30
-4.000000
11
260.625000
21
137.716003
31
-4.000000
12
260.625000
22
137.716003
32
0.000000
13
260.625000
23
137.716003
33
0.000000
0
3DFACE
8
0
10
262.101990
20
138.276001
30
0.000000
11
262.101990
21
138.276001
31
-4.000000
12
263.670013
22
138.085999
32
0.000000
13
263.670013
23
138.085999
33
0.000000
0
3DFACE
8
0
10
260.625000
20
137.716003
30
-4.000000
11
262.101990
21
138.276001
31
-4.000000
12
262.101990
22
138.276001
32
0.000000
13
262.101990
23
138.276001
33
0.000000
0
3DFACE
8
0
10
263.670013
20
138.085999
30
0.000000
11
263.670013
21
138.085999
31
-4.000000
12
264.970001
22
137.188004
32
0.000000
13
264.970001
23
137.188004
33
0.000000
0
3DFACE
8
0
10
262.101990
20
138.276001
30
-4.000000
11
263.670013
21
138.085999
31
-4.000000
12
263.670013
22
138.085999
32
0.000000
13
263.670013
23
138.085999
33
0.000000
0
3DFACE
8
0
10
264.970001
20
137.188004
30
0.000000
11
264.970001
21
137.188004
31
-4.000000
12
265.704010
22
135.789993
32
0.000000
13
265.704010
23
135.789993
33
0.000000
0
3DFACE
8
0
10
263.670013
20
138.085999
30
-4.000000
11
264.970001
21
137.188004
31
-4.000000
12
264.970001
22
137.188004
32
0.000000
13
264.970001
23
137.188004
33
0.000000
0
3DFACE
8
0
10
265.704010
20
135.789993
30
0.000000
11
265.704010
21
135.789993
31
-4.000000
12
265.704010
22
134.210007
32
0.000000
13
265.704010
23
134.210007
33
0.000000
0
3DFACE
8
0
10
264.970001
20
137.188004
30
-4.000000
11
265.704010
21
135.789993
31
-4.000000
12
265.704010
22
135.789993
32
0.000000
13
265.704010
23
135.789993
33
0.000000
0
3DFACE
8
0
10
265.704010
20
134.210007
30
0.000000
11
265.704010
21
134.210007
31
-4.000000
12
264.970001
22
132.811996
32
0.000000
13
264.970001
23
132.811996
33
0.000000
0
3DFACE
8
0
10
265.704010
20
135.789993
30
-4.000000
11
265.704010
21
134.210007
31
-4.000000
12
265.704010
22
134.210007
32
0.000000
13
265.704010
23
134.210007
33
0.000000
0
3DFACE
8
0
10
264.970001
20
132.811996
30
0.000000
11
264.970001
21
132.811996
31
-4.000000
12
263.670013
22
131.914001
32
0.000000
13
263.670013
23
131.914001
33
0.000000
0
3DFACE
8
0
10
265.704010
20
134.210007
30
-4.000000
11
264.970001
21
132.811996
31
-4.000000
12
264.970001
22
132.811996
32
0.000000
13
264.970001
23
132.811996
33
0.000000
0
3DFACE
8
0
10
263.670013
20
131.914001
30
0.000000
11
263.670013
21
131.914001
31
-4.000000
12
262.101990
22
131.723999
32
0.000000
13
262.101990
23
131.723999
33
0.000000
0
3DFACE
8
0
10
264.970001
20
132.811996
30
-4.000000
11
263.670013
21
131.914001
31
-4.000000
12
263.670013
22
131.914001
32
0.000000
13
263.670013
23
131.914001
33
0.000000
0
3DFACE
8
0
10
263.670013
20
131.914001
30
-4.000000
11
262.101990
21
131.723999
31
-4.000000
12
262.101990
22
131.723999
32
0.000000
13
262.101990
23
131.723999
33
0.000000
0
3DFACE
8
0
10
262.101990
20
131.723999
30
0.000000
11
260.625000
21
132.283997
31
-4.000000
12
260.625000
22
132.283997
32
0.000000
13
260.625000
23
132.283997
33
0.000000
0
3DFACE
8
0
10
260.625000
20
132.283997
30
0.000000
11
260.625000
21
132.283997
31
-4.000000
12
259.578003
22
133.466003
32
0.000000
13
259.578003
23
133.466003
33
0.000000
0
3DFACE
8
0
10
262.101990
20
131.723999
30
-4.000000
11
260.625000
21
132.283997
31
-4.000000
12
262.101990
22
131.723999
32
0.000000
13
262.101990
23
131.723999
33
0.000000
0
3DFACE
8
0
10
259.578003
20
133.466003
30
0.000000
11
259.578003
21
133.466003
31
-4.000000
12
259.200012
22
135.000000
32
0.000000
13
259.200012
23
135.000000
33
0.000000
0
3DFACE
8
0
10
260.625000
20
132.283997
30
-4.000000
11
259.578003
21
133.466003
31
-4.000000
12
259.578003
22
133.466003
32
0.000000
13
259.578003
23
133.466003
33
0.000000
0
3DFACE
8
0
10
259.578003
20
133.466003
30
-4.000000
11
259.200012
21
135.000000
31
-4.000000
12
259.200012
22
135.000000
32
0.000000
13
259.200012
23
135.000000
33
0.000000
0
3DFACE
8
0
10
-340.799988
20
135.000000
30
0.000000
11
-340.799988
21
135.000000
31
-4.000000
12
-340.421997
22
136.533997
32
0.000000
13
-340.421997
23
136.533997
33
0.000000
0
3DFACE
8
0
10
-340.421997
20
136.533997
30
0.000000
11
-340.421997
21
136.533997
31
-4.000000
12
-339.375000
22
137.716003
32
0.000000
13
-339.375000
23
137.716003
33
0.000000
0
3DFACE
8
0
10
-340.799988
20
135.000000
30
-4.000000
11
-340.421997
21
136.533997
31
-4.000000
12
-340.421997
22
136.533997
32
0.000000
13
-340.421997
23
136.533997
33
0.000000
0
3DFACE
8
0
10
-339.375000
20
137.716003
30
0.000000
11
-339.375000
21
137.716003
31
-4.000000
12
-337.898010
22
138.276001
32
0.000000
13
-337.898010
23
138.276001
33
0.000000
0
3DFACE
8
0
10
-340.421997
20
136.533997
30
-4.000000
11
-339.375000
21
137.716003
31
-4.000000
12
-339.375000
22
137.716003
32
0.000000
13
-339.375000
23
137.716003
33
0.000000
0
3DFACE
8
0
10
-337.898010
20
138.276001
30
0.000000
11
-337.898010
21
138.276001
31
-4.000000
12
-336.329987
22
138.085999
32
0.000000
13
-336.329987
23
138.085999
33
0.000000
0
3DFACE
8
0
10
-339.375000
20
137.716003
30
-4.000000
11
-337.898010
21
138.276001
31
-4.000000
12
-337.898010
22
138.276001
32
0.000000
13
-337.898010
23
138.276001
33
0.000000
0
3DFACE
8
0
10
-336.329987
20
138.085999
30
0.000000
11
-336.329987
21
138.085999
31
-4.000000
12
-335.029999
22
137.188004
32
0.000000
13
-335.029999
23
137.188004
33
0.000000
0
3DFACE
8
0
10
-337.898010
20
138.276001
30
-4.000000
11
-336.329987
21
138.085999
31
-4.000000
12
-336.329987
22
138.085999
32
0.000000
13
-336.329987
23
138.085999
33
0.000000
0
3DFACE
8
0
10
-335.029999
20
137.188004
30
0.000000
11
-335.029999
21
137.188004
31
-4.000000
12
-334.295990
22
135.789993
32
0.000000
13
-334.295990
23
135.789993
33
0.000000
0
3DFACE
8
0
10
-336.329987
20
138.085999
30
-4.000000
11
-335.029999
21
137.188004
31
-4.000000
12
-335.029999
22
137.188004
32
0.000000
13
-335.029999
23
137.188004
33
0.000000
0
3DFACE
8
0
10
-334.295990
20
135.789993
30
0.000000
11
-334.295990
21
135.789993
31
-4.000000
12
-334.295990
22
134.210007
32
0.000000
13
-334.295990
23
134.210007
33
0.000000
0
3DFACE
8
0
10
-335.029999
20
137.188004
30
-4.000000
11
-334.295990
21
135.789993
31
-4.000000
12
-334.295990
22
135.789993
32
0.000000
13
-334.295990
23
135.789993
33
0.000000
0
3DFACE
8
0
10
-334.295990
20
134.210007
30
0.000000
11
-334.295990
21
134.210007
31
-4.000000
12
-335.029999
22
132.811996
32
0.000000
13
-335.029999
23
132.811996
33
0.000000
0
3DFACE
8
0
10
-334.295990
20
135.789993
30
-4.000000
11
-334.295990
21
134.210007
31
-4.000000
12
-334.295990
22
134.210007
32
0.000000
13
-334.295990
23
134.210007
33
0.000000
0
3DFACE
8
0
10
-335.029999
20
132.811996
30
0.000000
11
-335.029999
21
132.811996
31
-4.000000
12
-336.329987
22
131.914001
32
0.000000
13
-336.329987
23
131.914001
33
0.000000
0
3DFACE
8
0
10
-334.295990
20
134.210007
30
-4.000000
11
-335.029999
21
132.811996
31
-4.000000
12
-335.029999
22
132.811996
32
0.000000
13
-335.029999
23
132.811996
33
0.000000
0
3DFACE
8
0
10
-336.329987
20
131.914001
30
0.000000
11
-336.329987
21
131.914001
31
-4.000000
12
-337.898010
22
131.723999
32
0.000000
13
-337.898010
23
131.723999
33
0.000000
0
3DFACE
8
0
10
-335.029999
20
132.811996
30
-4.000000
11
-336.329987
21
131.914001
31
-4.000000
12
-336.329987
22
131.914001
32
0.000000
13
-336.329987
23
131.914001
33
0.000000
0
3DFACE
8
0
10
-336.329987
20
131.914001
30
-4.000000
11
-337.898010
21
131.723999
31
-4.000000
12
-337.898010
22
131.723999
32
0.000000
13
-337.898010
23
131.723999
33
0.000000
0
3DFACE
8
0
10
-337.898010
20
131.723999
30
0.000000
11
-339.375000
21
132.283997
31
-4.000000
12
-339.375000
22
132.283997
32
0.000000
13
-339.375000
23
132.283997
33
0.000000
0
3DFACE
8
0
10
-339.375000
20
132.283997
30
0.000000
11
-339.375000
21
132.283997
31
-4.000000
12
-340.421997
22
133.466003
32
0.000000
13
-340.421997
23
133.466003
33
0.000000
0
3DFACE
8
0
10
-337.898010
20
131.723999
30
-4.000000
11
-339.375000
21
132.283997
31
-4.000000
12
-337.898010
22
131.723999
32
0.000000
13
-337.898010
23
131.723999
33
0.000000
0
3DFACE
8
0
10
-340.421997
20
133.466003
30
0.000000
11
-340.421997
21
133.466003
31
-4.000000
12
-340.799988
22
135.000000
32
0.000000
13
-340.799988
23
135.000000
33
0.000000
0
3DFACE
8
0
10
-339.375000
20
132.283997
30
-4.000000
11
-340.421997
21
133.466003
31
-4.000000
12
-340.421997
22
133.466003
32
0.000000
13
-340.421997
23
133.466003
33
0.000000
0
3DFACE
8
0
10
-340.421997
20
133.466003
30
-4.000000
11
-340.799988
21
135.000000
31
-4.000000
12
-340.799988
22
135.000000
32
0.000000
13
-340.799988
23
135.000000
33
0.000000
0
3DFACE
8
0
10
364.200012
20
30.000000
30
0.000000
11
364.200012
21
30.000000
31
-4.000000
12
364.578003
22
31.533600
32
0.000000
13
364.578003
23
31.533600
33
0.000000
0
3DFACE
8
0
10
364.578003
20
31.533600
30
0.000000
11
364.578003
21
31.533600
31
-4.000000
12
365.625000
22
32.715801
32
0.000000
13
365.625000
23
32.715801
33
0.000000
0
3DFACE
8
0
10
364.200012
20
30.000000
30
-4.000000
11
364.578003
21
31.533600
31
-4.000000
12
364.578003
22
31.533600
32
0.000000
13
364.578003
23
31.533600
33
0.000000
0
3DFACE
8
0
10
365.625000
20
32.715801
30
0.000000
11
365.625000
21
32.715801
31
-4.000000
12
367.101990
22
33.275902
32
0.000000
13
367.101990
23
33.275902
33
0.000000
0
3DFACE
8
0
10
364.578003
20
31.533600
30
-4.000000
11
365.625000
21
32.715801
31
-4.000000
12
365.625000
22
32.715801
32
0.000000
13
365.625000
23
32.715801
33
0.000000
0
3DFACE
8
0
10
367.101990
20
33.275902
30
0.000000
11
367.101990
21
33.275902
31
-4.000000
12
368.670013
22
33.085602
32
0.000000
13
368.670013
23
33.085602
33
0.000000
0
3DFACE
8
0
10
365.625000
20
32.715801
30
-4.000000
11
367.101990
21
33.275902
31
-4.000000
12
367.101990
22
33.275902
32
0.000000
13
367.101990
23
33.275902
33
0.000000
0
3DFACE
8
0
10
368.670013
20
33.085602
30
0.000000
11
368.670013
21
33.085602
31
-4.000000
12
369.970001
22
32.188301
32
0.000000
13
369.970001
23
32.188301
33
0.000000
0
3DFACE
8
0
10
367.101990
20
33.275902
30
-4.000000
11
368.670013
21
33.085602
31
-4.000000
12
368.670013
22
33.085602
32
0.000000
13
368.670013
23
33.085602
33
0.000000
0
3DFACE
8
0
10
369.970001
20
32.188301
30
0.000000
11
369.970001
21
32.188301
31
-4.000000
12
370.704010
22
30.789700
32
0.000000
13
370.704010
23
30.789700
33
0.000000
0
3DFACE
8
0
10
368.670013
20
33.085602
30
-4.000000
11
369.970001
21
32.188301
31
-4.000000
12
369.970001
22
32.188301
32
0.000000
13
369.970001
23
32.188301
33
0.000000
0
3DFACE
8
0
10
370.704010
20
30.789700
30
0.000000
11
370.704010
21
30.789700
31
-4.000000
12
370.704010
22
29.210300
32
0.000000
13
370.704010
23
29.210300
33
0.000000
0
3DFACE
8
0
10
369.970001
20
32.188301
30
-4.000000
11
370.704010
21
30.789700
31
-4.000000
12
370.704010
22
30.789700
32
0.000000
13
370.704010
23
30.789700
33
0.000000
0
3DFACE
8
0
10
370.704010
20
29.210300
30
0.000000
11
370.704010
21
29.210300
31
-4.000000
12
369.970001
22
27.811701
32
0.000000
13
369.970001
23
27.811701
33
0.000000
0
3DFACE
8
0
10
370.704010
20
30.789700
30
-4.000000
11
370.704010
21
29.210300
31
-4.000000
12
370.704010
22
29.210300
32
0.000000
13
370.704010
23
29.210300
33
0.000000
0
3DFACE
8
0
10
369.970001
20
27.811701
30
0.000000
11
369.970001
21
27.811701
31
-4.000000
12
368.670013
22
26.914400
32
0.000000
13
368.670013
23
26.914400
33
0.000000
0
3DFACE
8
0
10
370.704010
20
29.210300
30
-4.000000
11
369.970001
21
27.811701
31
-4.000000
12
369.970001
22
27.811701
32
0.000000
13
369.970001
23
27.811701
33
0.000000
0
3DFACE
8
0
10
368.670013
20
26.914400
30
0.000000
11
368.670013
21
26.914400
31
-4.000000
12
367.101990
22
26.724100
32
0.000000
13
367.101990
23
26.724100
33
0.000000
0
3DFACE
8
0
10
369.970001
20
27.811701
30
-4.000000
11
368.670013
21
26.914400
31
-4.000000
12
368.670013
22
26.914400
32
0.000000
13
368.670013
23
26.914400
33
0.000000
0
3DFACE
8
0
10
368.670013
20
26.914400
30
-4.000000
11
367.101990
21
26.724100
31
-4.000000
12
367.101990
22
26.724100
32
0.000000
13
367.101990
23
26.724100
33
0.000000
0
3DFACE
8
0
10
367.101990
20
26.724100
30
0.000000
11
365.625000
21
27.284201
31
-4.000000
12
365.625000
22
27.284201
32
0.000000
13
365.625000
23
27.284201
33
0.000000
0
3DFACE
8
0
10
365.625000
20
27.284201
30
0.000000
11
365.625000
21
27.284201
31
-4.000000
12
364.578003
22
28.466400
32
0.000000
13
364.578003
23
28.466400
33
0.000000
0
3DFACE
8
0
10
367.101990
20
26.724100
30
-4.000000
11
365.625000
21
27.284201
31
-4.000000
12
367.101990
22
26.724100
32
0.000000
13
367.101990
23
26.724100
33
0.000000
0
3DFACE
8
0
10
364.578003
20
28.466400
30
0.000000
11
364.578003
21
28.466400
31
-4.000000
12
364.200012
22
30.000000
32
0.000000
13
364.200012
23
30.000000
33
0.000000
0
3DFACE
8
0
10
365.625000
20
27.284201
30
-4.000000
11
364.578003
21
28.466400
31
-4.000000
12
364.578003
22
28.466400
32
0.000000
13
364.578003
23
28.466400
33
0.000000
0
3DFACE
8
0
10
364.578003
20
28.466400
30
-4.000000
11
364.200012
21
30.000000
31
-4.000000
12
364.200012
22
30.000000
32
0.000000
13
364.200012
23
30.000000
33
0.000000
0
3DFACE
8
0
10
-40.799999
20
135.000000
30
0.000000
11
-40.799999
21
135.000000
31
-4.000000
12
-40.422001
22
136.533997
32
0.000000
13
-40.422001
23
136.533997
33
0.000000
0
3DFACE
8
0
10
-40.422001
20
136.533997
30
0.000000
11
-40.422001
21
136.533997
31
-4.000000
12
-39.374599
22
137.716003
32
0.000000
13
-39.374599
23
137.716003
33
0.000000
0
3DFACE
8
0
10
-40.799999
20
135.000000
30
-4.000000
11
-40.422001
21
136.533997
31
-4.000000
12
-40.422001
22
136.533997
32
0.000000
13
-40.422001
23
136.533997
33
0.000000
0
3DFACE
8
0
10
-39.374599
20
137.716003
30
0.000000
11
-39.374599
21
137.716003
31
-4.000000
12
-37.897800
22
138.276001
32
0.000000
13
-37.897800
23
138.276001
33
0.000000
0
3DFACE
8
0
10
-40.422001
20
136.533997
30
-4.000000
11
-39.374599
21
137.716003
31
-4.000000
12
-39.374599
22
137.716003
32
0.000000
13
-39.374599
23
137.716003
33
0.000000
0
3DFACE
8
0
10
-37.897800
20
138.276001
30
0.000000
11
-37.897800
21
138.276001
31
-4.000000
12
-36.329800
22
138.085999
32
0.000000
13
-36.329800
23
138.085999
33
0.000000
0
3DFACE
8
0
10
-39.374599
20
137.716003
30
-4.000000
11
-37.897800
21
138.276001
31
-4.000000
12
-37.897800
22
138.276001
32
0.000000
13
-37.897800
23
138.276001
33
0.000000
0
3DFACE
8
0
10
-36.329800
20
138.085999
30
0.000000
11
-36.329800
21
138.085999
31
-4.000000
12
-35.029900
22
137.188004
32
0.000000
13
-35.029900
23
137.188004
33
0.000000
0
3DFACE
8
0
10
-37.897800
20
138.276001
30
-4.000000
11
-36.329800
21
138.085999
31
-4.000000
12
-36.329800
22
138.085999
32
0.000000
13
-36.329800
23
138.085999
33
0.000000
0
3DFACE
8
0
10
-35.029900
20
137.188004
30
0.000000
11
-35.029900
21
137.188004
31
-4.000000
12
-34.295898
22
135.789993
32
0.000000
13
-34.295898
23
135.789993
33
0.000000
0
3DFACE
8
0
10
-36.329800
20
138.085999
30
-4.000000
11
-35.029900
21
137.188004
31
-4.000000
12
-35.029900
22
137.188004
32
0.000000
13
-35.029900
23
137.188004
33
0.000000
0
3DFACE
8
0
10
-34.295898
20
135.789993
30
0.000000
11
-34.295898
21
135.789993
31
-4.000000
12
-34.295898
22
134.210007
32
0.000000
13
-34.295898
23
134.210007
33
0.000000
0
3DFACE
8
0
10
-35.029900
20
137.188004
30
-4.000000
11
-34.295898
21
135.789993
31
-4.000000
12
-34.295898
22
135.789993
32
0.000000
13
-34.295898
23
135.789993
33
0.000000
0
3DFACE
8
0
10
-34.295898
20
134.210007
30
0.000000
11
-34.295898
21
134.210007
31
-4.000000
12
-35.029900
22
132.811996
32
0.000000
13
-35.029900
23
132.811996
33
0.000000
0
3DFACE
8
0
10
-34.295898
20
135.789993
30
-4.000000
11
-34.295898
21
134.210007
31
-4.000000
12
-34.295898
22
134.210007
32
0.000000
13
-34.295898
23
134.210007
33
0.000000
0
3DFACE
8
0
10
-35.029900
20
132.811996
30
0.000000
11
-35.029900
21
132.811996
31
-4.000000
12
-36.329800
22
131.914001
32
0.000000
13
-36.329800
23
131.914001
33
0.000000
0
3DFACE
8
0
10
-34.295898
20
134.210007
30
-4.000000
11
-35.029900
21
132.811996
31
-4.000000
12
-35.029900
22
132.811996
32
0.000000
13
-35.029900
23
132.811996
33
0.000000
0
3DFACE
8
0
10
-36.329800
20
131.914001
30
0.000000
11
-36.329800
21
131.914001
31
-4.000000
12
-37.897800
22
131.723999
32
0.000000
13
-37.897800
23
131.723999
33
0.000000
0
3DFACE
8
0
10
-35.029900
20
132.811996
30
-4.000000
11
-36.329800
21
131.914001
31
-4.000000
12
-36.329800
22
131.914001
32
0.000000
13
-36.329800
23
131.914001
33
0.000000
0
3DFACE
8
0
10
-36.329800
20
131.914001
30
-4.000000
11
-37.897800
21
131.723999
31
-4.000000
12
-37.897800
22
131.723999
32
0.000000
13
-37.897800
23
131.723999
33
0.000000
0
3DFACE
8
0
10
-37.897800
20
131.723999
30
0.000000
11
-39.374599
21
132.283997
31
-4.000000
12
-39.374599
22
132.283997
32
0.000000
13
-39.374599
23
132.283997
33
0.000000
0
3DFACE
8
0
10
-39.374599
20
132.283997
30
0.000000
11
-39.374599
21
132.283997
31
-4.000000
12
-40.422001
22
133.466003
32
0.000000
13
-40.422001
23
133.466003
33
0.000000
0
3DFACE
8
0
10
-37.897800
20
131.723999
30
-4.000000
11
-39.374599
21
132.283997
31
-4.000000
12
-37.897800
22
131.723999
32
0.000000
13
-37.897800
23
131.723999
33
0.000000
0
3DFACE
8
0
10
-40.422001
20
133.466003
30
0.000000
11
-40.422001
21
133.466003
31
-4.000000
12
-40.799999
22
135.000000
32
0.000000
13
-40.799999
23
135.000000
33
0.000000
0
3DFACE
8
0
10
-39.374599
20
132.283997
30
-4.000000
11
-40.422001
21
133.466003
31
-4.000000
12
-40.422001
22
133.466003
32
0.000000
13
-40.422001
23
133.466003
33
0.000000
0
3DFACE
8
0
10
-40.422001
20
133.466003
30
-4.000000
11
-40.799999
21
135.000000
31
-4.000000
12
-40.799999
22
135.000000
32
0.000000
13
-40.799999
23
135.000000
33
0.000000
0
3DFACE
8
0
10
-292.000000
20
-113.796997
30
-4.000000
11
-292.000000
21
-150.000000
31
0.000000
12
-292.000000
22
-113.796997
32
0.000000
13
-292.000000
23
-113.796997
33
0.000000
0
3DFACE
8
0
10
-292.000000
20
-113.796997
30
-4.000000
11
-292.000000
21
-150.000000
31
-4.000000
12
-292.000000
22
-150.000000
32
0.000000
13
-292.000000
23
-150.000000
33
0.000000
0
3DFACE
8
0
10
-292.000000
20
-150.000000
30
-4.000000
11
382.500000
21
-150.000000
31
0.000000
12
-292.000000
22
-150.000000
32
0.000000
13
-292.000000
23
-150.000000
33
0.000000
0
3DFACE
8
0
10
-292.000000
20
-150.000000
30
-4.000000
11
382.500000
21
-150.000000
31
-4.000000
12
382.500000
22
-150.000000
32
0.000000
13
382.500000
23
-150.000000
33
0.000000
0
3DFACE
8
0
10
382.500000
20
-150.000000
30
-4.000000
11
382.500000
21
59.500000
31
0.000000
12
382.500000
22
-150.000000
32
0.000000
13
382.500000
23
-150.000000
33
0.000000
0
3DFACE
8
0
10
382.500000
20
-150.000000
30
-4.000000
11
382.500000
21
59.500000
31
-4.000000
12
382.500000
22
59.500000
32
0.000000
13
382.500000
23
59.500000
33
0.000000
0
3DFACE
8
0
10
382.500000
20
59.500000
30
-4.000000
11
352.296997
21
59.500000
31
0.000000
12
382.500000
22
59.500000
32
0.000000
13
382.500000
23
59.500000
33
0.000000
0
3DFACE
8
0
10
382.500000
20
59.500000
30
-4.000000
11
352.296997
21
59.500000
31
-4.000000
12
352.296997
22
59.500000
32
0.000000
13
352.296997
23
59.500000
33
0.000000
0
3DFACE
8
0
10
352.296997
20
59.500000
30
0.000000
11
292.000000
21
119.796997
31
-4.000000
12
292.000000
22
119.796997
32
0.000000
13
292.000000
23
119.796997
33
0.000000
0
3DFACE
8
0
10
352.296997
20
59.500000
30
-4.000000
11
292.000000
21
119.796997
31
-4.000000
12
352.296997
22
59.500000
32
0.000000
13
352.296997
23
59.500000
33
0.000000
0
3DFACE
8
0
10
292.000000
20
119.796997
30
-4.000000
11
292.000000
21
150.000000
31
0.000000
12
292.000000
22
119.796997
32
0.000000
13
292.000000
23
119.796997
33
0.000000
0
3DFACE
8
0
10
292.000000
20
119.796997
30
-4.000000
11
292.000000
21
150.000000
31
-4.000000
12
292.000000
22
150.000000
32
0.000000
13
292.000000
23
150.000000
33
0.000000
0
3DFACE
8
0
10
292.000000
20
150.000000
30
-4.000000
11
-382.500000
21
150.000000
31
0.000000
12
292.000000
22
150.000000
32
0.000000
13
292.000000
23
150.000000
33
0.000000
0
3DFACE
8
0
10
292.000000
20
150.000000
30
-4.000000
11
-382.500000
21
150.000000
31
-4.000000
12
-382.500000
22
150.000000
32
0.000000
13
-382.500000
23
150.000000
33
0.000000
0
3DFACE
8
0
10
-382.500000
20
150.000000
30
-4.000000
11
-382.500000
21
-37.500000
31
0.000000
12
-382.500000
22
150.000000
32
0.000000
13
-382.500000
23
150.000000
33
0.000000
0
3DFACE
8
0
10
-382.500000
20
150.000000
30
-4.000000
11
-382.500000
21
-37.500000
31
-4.000000
12
-382.500000
22
-37.500000
32
0.000000
13
-382.500000
23
-37.500000
33
0.000000
0
3DFACE
8
0
10
-382.500000
20
-37.500000
30
0.000000
11
-367.500000
21
-52.500000
31
-4.000000
12
-367.500000
22
-52.500000
32
0.000000
13
-367.500000
23
-52.500000
33
0.000000
0
3DFACE
8
0
10
-382.500000
20
-37.500000
30
-4.000000
11
-367.500000
21
-52.500000
31
-4.000000
12
-382.500000
22
-37.500000
32
0.000000
13
-382.500000
23
-37.500000
33
0.000000
0
3DFACE
8
0
10
-367.500000
20
-52.500000
30
-4.000000
11
-353.296997
21
-52.500000
31
0.000000
12
-367.500000
22
-52.500000
32
0.000000
13
-367.500000
23
-52.500000
33
0.000000
0
3DFACE
8
0
10
-367.500000
20
-52.500000
30
-4.000000
11
-353.296997
21
-52.500000
31
-4.000000
12
-353.296997
22
-52.500000
32
0.000000
13
-353.296997
23
-52.500000
33
0.000000
0
3DFACE
8
0
10
-353.296997
20
-52.500000
30
0.000000
11
-292.000000
21
-113.796997
31
-4.000000
12
-292.000000
22
-113.796997
32
0.000000
13
-292.000000
23
-113.796997
33
0.000000
0
3DFACE
8
0
10
-353.296997
20
-52.500000
30
-4.000000
11
-292.000000
21
-113.796997
31
-4.000000
12
-353.296997
22
-52.500000
32
0.000000
13
-353.296997
23
-52.500000
33
0.000000
0
3DFACE
8
0
10
-353.296997
20
-52.500000
30
0.000000
11
-382.500000
21
-37.500000
31
0.000000
12
-367.500000
22
-52.500000
32
0.000000
13
-367.500000
23
-52.500000
33
0.000000
0
3DFACE
8
0
10
-339.375000
20
132.283997
30
0.000000
11
-382.500000
21
150.000000
31
0.000000
12
-382.500000
22
-37.500000
32
0.000000
13
-382.500000
23
-37.500000
33
0.000000
0
3DFACE
8
0
10
-340.421997
20
133.466003
30
0.000000
11
-382.500000
21
150.000000
31
0.000000
12
-339.375000
22
132.283997
32
0.000000
13
-339.375000
23
132.283997
33
0.000000
0
3DFACE
8
0
10
-337.898010
20
131.723999
30
0.000000
11
-339.375000
21
132.283997
31
0.000000
12
-382.500000
22
-37.500000
32
0.000000
13
-382.500000
23
-37.500000
33
0.000000
0
3DFACE
8
0
10
-340.799988
20
135.000000
30
0.000000
11
-382.500000
21
150.000000
31
0.000000
12
-340.421997
22
133.466003
32
0.000000
13
-340.421997
23
133.466003
33
0.000000
0
3DFACE
8
0
10
-336.329987
20
131.914001
30
0.000000
11
-382.500000
21
-37.500000
31
0.000000
12
-353.296997
22
-52.500000
32
0.000000
13
-353.296997
23
-52.500000
33
0.000000
0
3DFACE
8
0
10
-336.329987
20
131.914001
30
0.000000
11
-337.898010
21
131.723999
31
0.000000
12
-382.500000
22
-37.500000
32
0.000000
13
-382.500000
23
-37.500000
33
0.000000
0
3DFACE
8
0
10
-340.421997
20
136.533997
30
0.000000
11
-382.500000
21
150.000000
31
0.000000
12
-340.799988
22
135.000000
32
0.000000
13
-340.799988
23
135.000000
33
0.000000
0
3DFACE
8
0
10
-335.029999
20
132.811996
30
0.000000
11
-353.296997
21
-52.500000
31
0.000000
12
-292.000000
22
-113.796997
32
0.000000
13
-292.000000
23
-113.796997
33
0.000000
0
3DFACE
8
0
10
-335.029999
20
132.811996
30
0.000000
11
-336.329987
21
131.914001
31
0.000000
12
-353.296997
22
-52.500000
32
0.000000
13
-353.296997
23
-52.500000
33
0.000000
0
3DFACE
8
0
10
-339.375000
20
137.716003
30
0.000000
11
-382.500000
21
150.000000
31
0.000000
12
-340.421997
22
136.533997
32
0.000000
13
-340.421997
23
136.533997
33
0.000000
0
3DFACE
8
0
10
-337.898010
20
138.276001
30
0.000000
11
-382.500000
21
150.000000
31
0.000000
12
-339.375000
22
137.716003
32
0.000000
13
-339.375000
23
137.716003
33
0.000000
0
3DFACE
8
0
10
-336.329987
20
138.085999
30
0.000000
11
-382.500000
21
150.000000
31
0.000000
12
-337.898010
22
138.276001
32
0.000000
13
-337.898010
23
138.276001
33
0.000000
0
3DFACE
8
0
10
-40.422001
20
133.466003
30
0.000000
11
-334.295990
21
134.210007
31
0.000000
12
-335.029999
22
132.811996
32
0.000000
13
-335.029999
23
132.811996
33
0.000000
0
3DFACE
8
0
10
-40.422001
20
133.466003
30
0.000000
11
-292.000000
21
-113.796997
31
0.000000
12
-39.374599
22
132.283997
32
0.000000
13
-39.374599
23
132.283997
33
0.000000
0
3DFACE
8
0
10
-40.422001
20
133.466003
30
0.000000
11
-335.029999
21
132.811996
31
0.000000
12
-292.000000
22
-113.796997
32
0.000000
13
-292.000000
23
-113.796997
33
0.000000
0
3DFACE
8
0
10
-37.897800
20
131.723999
30
0.000000
11
-292.000000
21
-113.796997
31
0.000000
12
-292.000000
22
-150.000000
32
0.000000
13
-292.000000
23
-150.000000
33
0.000000
0
3DFACE
8
0
10
-37.897800
20
131.723999
30
0.000000
11
-39.374599
21
132.283997
31
0.000000
12
-292.000000
22
-113.796997
32
0.000000
13
-292.000000
23
-113.796997
33
0.000000
0
3DFACE
8
0
10
-40.799999
20
135.000000
30
0.000000
11
-334.295990
21
134.210007
31
0.000000
12
-40.422001
22
133.466003
32
0.000000
13
-40.422001
23
133.466003
33
0.000000
0
3DFACE
8
0
10
-40.799999
20
135.000000
30
0.000000
11
-334.295990
21
135.789993
31
0.000000
12
-334.295990
22
134.210007
32
0.000000
13
-334.295990
23
134.210007
33
0.000000
0
3DFACE
8
0
10
-36.329800
20
131.914001
30
0.000000
11
-37.897800
21
131.723999
31
0.000000
12
-292.000000
22
-150.000000
32
0.000000
13
-292.000000
23
-150.000000
33
0.000000
0
3DFACE
8
0
10
-40.422001
20
136.533997
30
0.000000
11
-334.295990
21
135.789993
31
0.000000
12
-40.799999
22
135.000000
32
0.000000
13
-40.799999
23
135.000000
33
0.000000
0
3DFACE
8
0
10
-40.422001
20
136.533997
30
0.000000
11
-335.029999
21
137.188004
31
0.000000
12
-334.295990
22
135.789993
32
0.000000
13
-334.295990
23
135.789993
33
0.000000
0
3DFACE
8
0
10
-39.374599
20
137.716003
30
0.000000
11
-335.029999
21
137.188004
31
0.000000
12
-40.422001
22
136.533997
32
0.000000
13
-40.422001
23
136.533997
33
0.000000
0
3DFACE
8
0
10
-39.374599
20
137.716003
30
0.000000
11
-336.329987
21
138.085999
31
0.000000
12
-335.029999
22
137.188004
32
0.000000
13
-335.029999
23
137.188004
33
0.000000
0
3DFACE
8
0
10
-37.897800
20
138.276001
30
0.000000
11
-336.329987
21
138.085999
31
0.000000
12
-39.374599
22
137.716003
32
0.000000
13
-39.374599
23
137.716003
33
0.000000
0
3DFACE
8
0
10
364.578003
20
-100.533997
30
0.000000
11
-292.000000
21
-150.000000
31
0.000000
12
382.500000
22
-150.000000
32
0.000000
13
382.500000
23
-150.000000
33
0.000000
0
3DFACE
8
0
10
364.578003
20
-100.533997
30
0.000000
11
-36.329800
21
131.914001
31
0.000000
12
-292.000000
22
-150.000000
32
0.000000
13
-292.000000
23
-150.000000
33
0.000000
0
3DFACE
8
0
10
364.578003
20
-100.533997
30
0.000000
11
382.500000
21
-150.000000
31
0.000000
12
365.625000
22
-101.716003
32
0.000000
13
365.625000
23
-101.716003
33
0.000000
0
3DFACE
8
0
10
367.101990
20
-102.276001
30
0.000000
11
365.625000
21
-101.716003
31
0.000000
12
382.500000
22
-150.000000
32
0.000000
13
382.500000
23
-150.000000
33
0.000000
0
3DFACE
8
0
10
364.200012
20
-99.000000
30
0.000000
11
-36.329800
21
131.914001
31
0.000000
12
364.578003
22
-100.533997
32
0.000000
13
364.578003
23
-100.533997
33
0.000000
0
3DFACE
8
0
10
364.200012
20
-99.000000
30
0.000000
11
-35.029900
21
132.811996
31
0.000000
12
-36.329800
22
131.914001
32
0.000000
13
-36.329800
23
131.914001
33
0.000000
0
3DFACE
8
0
10
368.670013
20
-102.085999
30
0.000000
11
367.101990
21
-102.276001
31
0.000000
12
382.500000
22
-150.000000
32
0.000000
13
382.500000
23
-150.000000
33
0.000000
0
3DFACE
8
0
10
369.970001
20
-101.188004
30
0.000000
11
368.670013
21
-102.085999
31
0.000000
12
382.500000
22
-150.000000
32
0.000000
13
382.500000
23
-150.000000
33
0.000000
0
3DFACE
8
0
10
370.704010
20
-99.789703
30
0.000000
11
369.970001
21
-101.188004
31
0.000000
12
382.500000
22
-150.000000
32
0.000000
13
382.500000
23
-150.000000
33
0.000000
0
3DFACE
8
0
10
370.704010
20
-98.210297
30
0.000000
11
370.704010
21
-99.789703
31
0.000000
12
382.500000
22
-150.000000
32
0.000000
13
382.500000
23
-150.000000
33
0.000000
0
3DFACE
8
0
10
365.625000
20
27.284201
30
0.000000
11
364.578003
21
-97.466400
31
0.000000
12
365.625000
22
-96.284203
32
0.000000
13
365.625000
23
-96.284203
33
0.000000
0
3DFACE
8
0
10
260.625000
20
132.283997
30
0.000000
11
364.200012
21
-99.000000
31
0.000000
12
364.578003
22
-97.466400
32
0.000000
13
364.578003
23
-97.466400
33
0.000000
0
3DFACE
8
0
10
260.625000
20
132.283997
30
0.000000
11
-35.029900
21
132.811996
31
0.000000
12
364.200012
22
-99.000000
32
0.000000
13
364.200012
23
-99.000000
33
0.000000
0
3DFACE
8
0
10
259.578003
20
133.466003
30
0.000000
11
-34.295898
21
134.210007
31
0.000000
12
-35.029900
22
132.811996
32
0.000000
13
-35.029900
23
132.811996
33
0.000000
0
3DFACE
8
0
10
259.578003
20
133.466003
30
0.000000
11
-35.029900
21
132.811996
31
0.000000
12
260.625000
22
132.283997
32
0.000000
13
260.625000
23
132.283997
33
0.000000
0
3DFACE
8
0
10
364.578003
20
28.466400
30
0.000000
11
364.578003
21
-97.466400
31
0.000000
12
365.625000
22
27.284201
32
0.000000
13
365.625000
23
27.284201
33
0.000000
0
3DFACE
8
0
10
364.578003
20
28.466400
30
0.000000
11
260.625000
21
132.283997
31
0.000000
12
364.578003
22
-97.466400
32
0.000000
13
364.578003
23
-97.466400
33
0.000000
0
3DFACE
8
0
10
367.101990
20
26.724100
30
0.000000
11
365.625000
21
-96.284203
31
0.000000
12
367.101990
22
-95.724098
32
0.000000
13
367.101990
23
-95.724098
33
0.000000
0
3DFACE
8
0
10
367.101990
20
26.724100
30
0.000000
11
365.625000
21
27.284201
31
0.000000
12
365.625000
22
-96.284203
32
0.000000
13
365.625000
23
-96.284203
33
0.000000
0
3DFACE
8
0
10
262.101990
20
131.723999
30
0.000000
11
260.625000
21
132.283997
31
0.000000
12
364.578003
22
28.466400
32
0.000000
13
364.578003
23
28.466400
33
0.000000
0
3DFACE
8
0
10
259.200012
20
135.000000
30
0.000000
11
-34.295898
21
135.789993
31
0.000000
12
-34.295898
22
134.210007
32
0.000000
13
-34.295898
23
134.210007
33
0.000000
0
3DFACE
8
0
10
259.200012
20
135.000000
30
0.000000
11
-34.295898
21
134.210007
31
0.000000
12
259.578003
22
133.466003
32
0.000000
13
259.578003
23
133.466003
33
0.000000
0
3DFACE
8
0
10
368.670013
20
26.914400
30
0.000000
11
367.101990
21
-95.724098
31
0.000000
12
368.670013
22
-95.914398
32
0.000000
13
368.670013
23
-95.914398
33
0.000000
0
3DFACE
8
0
10
368.670013
20
26.914400
30
0.000000
11
367.101990
21
26.724100
31
0.000000
12
367.101990
22
-95.724098
32
0.000000
13
367.101990
23
-95.724098
33
0.000000
0
3DFACE
8
0
10
259.578003
20
136.533997
30
0.000000
11
-35.029900
21
137.188004
31
0.000000
12
-34.295898
22
135.789993
32
0.000000
13
-34.295898
23
135.789993
33
0.000000
0
3DFACE
8
0
10
259.578003
20
136.533997
30
0.000000
11
-34.295898
21
135.789993
31
0.000000
12
259.200012
22
135.000000
32
0.000000
13
259.200012
23
135.000000
33
0.000000
0
3DFACE
8
0
10
369.970001
20
27.811701
30
0.000000
11
368.670013
21
-95.914398
31
0.000000
12
369.970001
22
-96.811699
32
0.000000
13
369.970001
23
-96.811699
33
0.000000
0
3DFACE
8
0
10
369.970001
20
27.811701
30
0.000000
11
368.670013
21
26.914400
31
0.000000
12
368.670013
22
-95.914398
32
0.000000
13
368.670013
23
-95.914398
33
0.000000
0
3DFACE
8
0
10
260.625000
20
137.716003
30
0.000000
11
-36.329800
21
138.085999
31
0.000000
12
-35.029900
22
137.188004
32
0.000000
13
-35.029900
23
137.188004
33
0.000000
0
3DFACE
8
0
10
260.625000
20
137.716003
30
0.000000
11
-35.029900
21
137.188004
31
0.000000
12
259.578003
22
136.533997
32
0.000000
13
259.578003
23
136.533997
33
0.000000
0
3DFACE
8
0
10
370.704010
20
29.210300
30
0.000000
11
369.970001
21
-96.811699
31
0.000000
12
370.704010
22
-98.210297
32
0.000000
13
370.704010
23
-98.210297
33
0.000000
0
3DFACE
8
0
10
370.704010
20
29.210300
30
0.000000
11
369.970001
21
27.811701
31
0.000000
12
369.970001
22
-96.811699
32
0.000000
13
369.970001
23
-96.811699
33
0.000000
0
3DFACE
8
0
10
292.000000
20
119.796997
30
0.000000
11
265.704010
21
134.210007
31
0.000000
12
264.970001
22
132.811996
32
0.000000
13
264.970001
23
132.811996
33
0.000000
0
3DFACE
8
0
10
292.000000
20
119.796997
30
0.000000
11
264.970001
21
132.811996
31
0.000000
12
263.670013
22
131.914001
32
0.000000
13
263.670013
23
131.914001
33
0.000000
0
3DFACE
8
0
10
292.000000
20
119.796997
30
0.000000
11
263.670013
21
131.914001
31
0.000000
12
262.101990
22
131.723999
32
0.000000
13
262.101990
23
131.723999
33
0.000000
0
3DFACE
8
0
10
352.296997
20
59.500000
30
0.000000
11
292.000000
21
119.796997
31
0.000000
12
262.101990
22
131.723999
32
0.000000
13
262.101990
23
131.723999
33
0.000000
0
3DFACE
8
0
10
352.296997
20
59.500000
30
0.000000
11
364.200012
21
30.000000
31
0.000000
12
364.578003
22
31.533600
32
0.000000
13
364.578003
23
31.533600
33
0.000000
0
3DFACE
8
0
10
352.296997
20
59.500000
30
0.000000
11
364.578003
21
31.533600
31
0.000000
12
365.625000
22
32.715801
32
0.000000
13
365.625000
23
32.715801
33
0.000000
0
3DFACE
8
0
10
352.296997
20
59.500000
30
0.000000
11
365.625000
21
32.715801
31
0.000000
12
367.101990
22
33.275902
32
0.000000
13
367.101990
23
33.275902
33
0.000000
0
3DFACE
8
0
10
352.296997
20
59.500000
30
0.000000
11
364.578003
21
28.466400
31
0.000000
12
364.200012
22
30.000000
32
0.000000
13
364.200012
23
30.000000
33
0.000000
0
3DFACE
8
0
10
352.296997
20
59.500000
30
0.000000
11
262.101990
21
131.723999
31
0.000000
12
364.578003
22
28.466400
32
0.000000
13
364.578003
23
28.466400
33
0.000000
0
3DFACE
8
0
10
292.000000
20
150.000000
30
0.000000
11
265.704010
21
134.210007
31
0.000000
12
292.000000
22
119.796997
32
0.000000
13
292.000000
23
119.796997
33
0.000000
0
3DFACE
8
0
10
292.000000
20
150.000000
30
0.000000
11
262.101990
21
138.276001
31
0.000000
12
263.670013
22
138.085999
32
0.000000
13
263.670013
23
138.085999
33
0.000000
0
3DFACE
8
0
10
292.000000
20
150.000000
30
0.000000
11
263.670013
21
138.085999
31
0.000000
12
264.970001
22
137.188004
32
0.000000
13
264.970001
23
137.188004
33
0.000000
0
3DFACE
8
0
10
292.000000
20
150.000000
30
0.000000
11
264.970001
21
137.188004
31
0.000000
12
265.704010
22
135.789993
32
0.000000
13
265.704010
23
135.789993
33
0.000000
0
3DFACE
8
0
10
292.000000
20
150.000000
30
0.000000
11
265.704010
21
135.789993
31
0.000000
12
265.704010
22
134.210007
32
0.000000
13
265.704010
23
134.210007
33
0.000000
0
3DFACE
8
0
10
382.500000
20
59.500000
30
0.000000
11
367.101990
21
33.275902
31
0.000000
12
368.670013
22
33.085602
32
0.000000
13
368.670013
23
33.085602
33
0.000000
0
3DFACE
8
0
10
382.500000
20
59.500000
30
0.000000
11
368.670013
21
33.085602
31
0.000000
12
369.970001
22
32.188301
32
0.000000
13
369.970001
23
32.188301
33
0.000000
0
3DFACE
8
0
10
382.500000
20
59.500000
30
0.000000
11
369.970001
21
32.188301
31
0.000000
12
370.704010
22
30.789700
32
0.000000
13
370.704010
23
30.789700
33
0.000000
0
3DFACE
8
0
10
382.500000
20
59.500000
30
0.000000
11
370.704010
21
30.789700
31
0.000000
12
370.704010
22
29.210300
32
0.000000
13
370.704010
23
29.210300
33
0.000000
0
3DFACE
8
0
10
382.500000
20
59.500000
30
0.000000
11
370.704010
21
29.210300
31
0.000000
12
370.704010
22
-98.210297
32
0.000000
13
370.704010
23
-98.210297
33
0.000000
0
3DFACE
8
0
10
382.500000
20
59.500000
30
0.000000
11
370.704010
21
-98.210297
31
0.000000
12
382.500000
22
-150.000000
32
0.000000
13
382.500000
23
-150.000000
33
0.000000
0
3DFACE
8
0
10
382.500000
20
59.500000
30
0.000000
11
352.296997
21
59.500000
31
0.000000
12
367.101990
22
33.275902
32
0.000000
13
367.101990
23
33.275902
33
0.000000
0
3DFACE
8
0
10
292.000000
20
150.000000
30
0.000000
11
-382.500000
21
150.000000
31
0.000000
12
-37.897800
22
138.276001
32
0.000000
13
-37.897800
23
138.276001
33
0.000000
0
3DFACE
8
0
10
-37.897800
20
138.276001
30
0.000000
11
-382.500000
21
150.000000
31
0.000000
12
-336.329987
22
138.085999
32
0.000000
13
-336.329987
23
138.085999
33
0.000000
0
3DFACE
8
0
10
292.000000
20
150.000000
30
0.000000
11
-37.897800
21
138.276001
31
0.000000
12
-36.329800
22
138.085999
32
0.000000
13
-36.329800
23
138.085999
33
0.000000
0
3DFACE
8
0
10
292.000000
20
150.000000
30
0.000000
11
-36.329800
21
138.085999
31
0.000000
12
262.101990
22
138.276001
32
0.000000
13
262.101990
23
138.276001
33
0.000000
0
3DFACE
8
0
10
262.101990
20
138.276001
30
0.000000
11
-36.329800
21
138.085999
31
0.000000
12
260.625000
22
137.716003
32
0.000000
13
260.625000
23
137.716003
33
0.000000
0
3DFACE
8
0
10
368.670013
20
-102.085999
30
-4.000000
11
369.970001
21
-101.188004
31
-4.000000
12
382.500000
22
-150.000000
32
-4.000000
13
382.500000
23
-150.000000
33
-4.000000
0
3DFACE
8
0
10
370.704010
20
-99.789703
30
-4.000000
11
382.500000
21
-150.000000
31
-4.000000
12
369.970001
22
-101.188004
32
-4.000000
13
369.970001
23
-101.188004
33
-4.000000
0
3DFACE
8
0
10
367.101990
20
-102.276001
30
-4.000000
11
368.670013
21
-102.085999
31
-4.000000
12
382.500000
22
-150.000000
32
-4.000000
13
382.500000
23
-150.000000
33
-4.000000
0
3DFACE
8
0
10
370.704010
20
-98.210297
30
-4.000000
11
382.500000
21
-150.000000
31
-4.000000
12
370.704010
22
-99.789703
32
-4.000000
13
370.704010
23
-99.789703
33
-4.000000
0
3DFACE
8
0
10
365.625000
20
-101.716003
30
-4.000000
11
367.101990
21
-102.276001
31
-4.000000
12
382.500000
22
-150.000000
32
-4.000000
13
382.500000
23
-150.000000
33
-4.000000
0
3DFACE
8
0
10
364.578003
20
-100.533997
30
-4.000000
11
365.625000
21
-101.716003
31
-4.000000
12
382.500000
22
-150.000000
32
-4.000000
13
382.500000
23
-150.000000
33
-4.000000
0
3DFACE
8
0
10
368.670013
20
26.914400
30
-4.000000
11
369.970001
21
27.811701
31
-4.000000
12
369.970001
22
-96.811699
32
-4.000000
13
369.970001
23
-96.811699
33
-4.000000
0
3DFACE
8
0
10
368.670013
20
26.914400
30
-4.000000
11
369.970001
21
-96.811699
31
-4.000000
12
368.670013
22
-95.914398
32
-4.000000
13
368.670013
23
-95.914398
33
-4.000000
0
3DFACE
8
0
10
370.704010
20
29.210300
30
-4.000000
11
369.970001
21
-96.811699
31
-4.000000
12
369.970001
22
27.811701
32
-4.000000
13
369.970001
23
27.811701
33
-4.000000
0
3DFACE
8
0
10
370.704010
20
29.210300
30
-4.000000
11
370.704010
21
-98.210297
31
-4.000000
12
369.970001
22
-96.811699
32
-4.000000
13
369.970001
23
-96.811699
33
-4.000000
0
3DFACE
8
0
10
367.101990
20
26.724100
30
-4.000000
11
368.670013
21
-95.914398
31
-4.000000
12
367.101990
22
-95.724098
32
-4.000000
13
367.101990
23
-95.724098
33
-4.000000
0
3DFACE
8
0
10
367.101990
20
26.724100
30
-4.000000
11
367.101990
21
-95.724098
31
-4.000000
12
365.625000
22
-96.284203
32
-4.000000
13
365.625000
23
-96.284203
33
-4.000000
0
3DFACE
8
0
10
367.101990
20
26.724100
30
-4.000000
11
368.670013
21
26.914400
31
-4.000000
12
368.670013
22
-95.914398
32
-4.000000
13
368.670013
23
-95.914398
33
-4.000000
0
3DFACE
8
0
10
365.625000
20
27.284201
30
-4.000000
11
367.101990
21
26.724100
31
-4.000000
12
365.625000
22
-96.284203
32
-4.000000
13
365.625000
23
-96.284203
33
-4.000000
0
3DFACE
8
0
10
364.578003
20
28.466400
30
-4.000000
11
365.625000
21
-96.284203
31
-4.000000
12
364.578003
22
-97.466400
32
-4.000000
13
364.578003
23
-97.466400
33
-4.000000
0
3DFACE
8
0
10
364.578003
20
28.466400
30
-4.000000
11
365.625000
21
27.284201
31
-4.000000
12
365.625000
22
-96.284203
32
-4.000000
13
365.625000
23
-96.284203
33
-4.000000
0
3DFACE
8
0
10
382.500000
20
59.500000
30
-4.000000
11
370.704010
21
-98.210297
31
-4.000000
12
370.704010
22
29.210300
32
-4.000000
13
370.704010
23
29.210300
33
-4.000000
0
3DFACE
8
0
10
382.500000
20
59.500000
30
-4.000000
11
370.704010
21
29.210300
31
-4.000000
12
370.704010
22
30.789700
32
-4.000000
13
370.704010
23
30.789700
33
-4.000000
0
3DFACE
8
0
10
382.500000
20
59.500000
30
-4.000000
11
370.704010
21
30.789700
31
-4.000000
12
369.970001
22
32.188301
32
-4.000000
13
369.970001
23
32.188301
33
-4.000000
0
3DFACE
8
0
10
382.500000
20
59.500000
30
-4.000000
11
369.970001
21
32.188301
31
-4.000000
12
368.670013
22
33.085602
32
-4.000000
13
368.670013
23
33.085602
33
-4.000000
0
3DFACE
8
0
10
382.500000
20
59.500000
30
-4.000000
11
368.670013
21
33.085602
31
-4.000000
12
367.101990
22
33.275902
32
-4.000000
13
367.101990
23
33.275902
33
-4.000000
0
3DFACE
8
0
10
382.500000
20
59.500000
30
-4.000000
11
382.500000
21
-150.000000
31
-4.000000
12
370.704010
22
-98.210297
32
-4.000000
13
370.704010
23
-98.210297
33
-4.000000
0
3DFACE
8
0
10
352.296997
20
59.500000
30
-4.000000
11
382.500000
21
59.500000
31
-4.000000
12
367.101990
22
33.275902
32
-4.000000
13
367.101990
23
33.275902
33
-4.000000
0
3DFACE
8
0
10
352.296997
20
59.500000
30
-4.000000
11
364.200012
21
30.000000
31
-4.000000
12
364.578003
22
28.466400
32
-4.000000
13
364.578003
23
28.466400
33
-4.000000
0
3DFACE
8
0
10
352.296997
20
59.500000
30
-4.000000
11
367.101990
21
33.275902
31
-4.000000
12
365.625000
22
32.715801
32
-4.000000
13
365.625000
23
32.715801
33
-4.000000
0
3DFACE
8
0
10
352.296997
20
59.500000
30
-4.000000
11
365.625000
21
32.715801
31
-4.000000
12
364.578003
22
31.533600
32
-4.000000
13
364.578003
23
31.533600
33
-4.000000
0
3DFACE
8
0
10
352.296997
20
59.500000
30
-4.000000
11
364.578003
21
31.533600
31
-4.000000
12
364.200012
22
30.000000
32
-4.000000
13
364.200012
23
30.000000
33
-4.000000
0
3DFACE
8
0
10
263.670013
20
131.914001
30
-4.000000
11
264.970001
21
132.811996
31
-4.000000
12
292.000000
22
119.796997
32
-4.000000
13
292.000000
23
119.796997
33
-4.000000
0
3DFACE
8
0
10
265.704010
20
134.210007
30
-4.000000
11
292.000000
21
150.000000
31
-4.000000
12
292.000000
22
119.796997
32
-4.000000
13
292.000000
23
119.796997
33
-4.000000
0
3DFACE
8
0
10
265.704010
20
134.210007
30
-4.000000
11
292.000000
21
119.796997
31
-4.000000
12
264.970001
22
132.811996
32
-4.000000
13
264.970001
23
132.811996
33
-4.000000
0
3DFACE
8
0
10
262.101990
20
131.723999
30
-4.000000
11
292.000000
21
119.796997
31
-4.000000
12
352.296997
22
59.500000
32
-4.000000
13
352.296997
23
59.500000
33
-4.000000
0
3DFACE
8
0
10
262.101990
20
131.723999
30
-4.000000
11
263.670013
21
131.914001
31
-4.000000
12
292.000000
22
119.796997
32
-4.000000
13
292.000000
23
119.796997
33
-4.000000
0
3DFACE
8
0
10
262.101990
20
131.723999
30
-4.000000
11
352.296997
21
59.500000
31
-4.000000
12
364.578003
22
28.466400
32
-4.000000
13
364.578003
23
28.466400
33
-4.000000
0
3DFACE
8
0
10
265.704010
20
135.789993
30
-4.000000
11
292.000000
21
150.000000
31
-4.000000
12
265.704010
22
134.210007
32
-4.000000
13
265.704010
23
134.210007
33
-4.000000
0
3DFACE
8
0
10
260.625000
20
132.283997
30
-4.000000
11
364.578003
21
28.466400
31
-4.000000
12
364.578003
22
-97.466400
32
-4.000000
13
364.578003
23
-97.466400
33
-4.000000
0
3DFACE
8
0
10
260.625000
20
132.283997
30
-4.000000
11
364.578003
21
-97.466400
31
-4.000000
12
364.200012
22
-99.000000
32
-4.000000
13
364.200012
23
-99.000000
33
-4.000000
0
3DFACE
8
0
10
260.625000
20
132.283997
30
-4.000000
11
262.101990
21
131.723999
31
-4.000000
12
364.578003
22
28.466400
32
-4.000000
13
364.578003
23
28.466400
33
-4.000000
0
3DFACE
8
0
10
264.970001
20
137.188004
30
-4.000000
11
292.000000
21
150.000000
31
-4.000000
12
265.704010
22
135.789993
32
-4.000000
13
265.704010
23
135.789993
33
-4.000000
0
3DFACE
8
0
10
263.670013
20
138.085999
30
-4.000000
11
292.000000
21
150.000000
31
-4.000000
12
264.970001
22
137.188004
32
-4.000000
13
264.970001
23
137.188004
33
-4.000000
0
3DFACE
8
0
10
262.101990
20
138.276001
30
-4.000000
11
292.000000
21
150.000000
31
-4.000000
12
263.670013
22
138.085999
32
-4.000000
13
263.670013
23
138.085999
33
-4.000000
0
3DFACE
8
0
10
-292.000000
20
-150.000000
30
-4.000000
11
364.578003
21
-100.533997
31
-4.000000
12
382.500000
22
-150.000000
32
-4.000000
13
382.500000
23
-150.000000
33
-4.000000
0
3DFACE
8
0
10
-35.029900
20
132.811996
30
-4.000000
11
259.578003
21
133.466003
31
-4.000000
12
260.625000
22
132.283997
32
-4.000000
13
260.625000
23
132.283997
33
-4.000000
0
3DFACE
8
0
10
-35.029900
20
132.811996
30
-4.000000
11
260.625000
21
132.283997
31
-4.000000
12
364.200012
22
-99.000000
32
-4.000000
13
364.200012
23
-99.000000
33
-4.000000
0
3DFACE
8
0
10
-36.329800
20
131.914001
30
-4.000000
11
364.200012
21
-99.000000
31
-4.000000
12
364.578003
22
-100.533997
32
-4.000000
13
364.578003
23
-100.533997
33
-4.000000
0
3DFACE
8
0
10
-36.329800
20
131.914001
30
-4.000000
11
364.578003
21
-100.533997
31
-4.000000
12
-292.000000
22
-150.000000
32
-4.000000
13
-292.000000
23
-150.000000
33
-4.000000
0
3DFACE
8
0
10
-36.329800
20
131.914001
30
-4.000000
11
-35.029900
21
132.811996
31
-4.000000
12
364.200012
22
-99.000000
32
-4.000000
13
364.200012
23
-99.000000
33
-4.000000
0
3DFACE
8
0
10
-34.295898
20
134.210007
30
-4.000000
11
259.200012
21
135.000000
31
-4.000000
12
259.578003
22
133.466003
32
-4.000000
13
259.578003
23
133.466003
33
-4.000000
0
3DFACE
8
0
10
-34.295898
20
134.210007
30
-4.000000
11
259.578003
21
133.466003
31
-4.000000
12
-35.029900
22
132.811996
32
-4.000000
13
-35.029900
23
132.811996
33
-4.000000
0
3DFACE
8
0
10
-37.897800
20
131.723999
30
-4.000000
11
-36.329800
21
131.914001
31
-4.000000
12
-292.000000
22
-150.000000
32
-4.000000
13
-292.000000
23
-150.000000
33
-4.000000
0
3DFACE
8
0
10
-34.295898
20
135.789993
30
-4.000000
11
259.578003
21
136.533997
31
-4.000000
12
259.200012
22
135.000000
32
-4.000000
13
259.200012
23
135.000000
33
-4.000000
0
3DFACE
8
0
10
-34.295898
20
135.789993
30
-4.000000
11
259.200012
21
135.000000
31
-4.000000
12
-34.295898
22
134.210007
32
-4.000000
13
-34.295898
23
134.210007
33
-4.000000
0
3DFACE
8
0
10
-35.029900
20
137.188004
30
-4.000000
11
260.625000
21
137.716003
31
-4.000000
12
259.578003
22
136.533997
32
-4.000000
13
259.578003
23
136.533997
33
-4.000000
0
3DFACE
8
0
10
-35.029900
20
137.188004
30
-4.000000
11
259.578003
21
136.533997
31
-4.000000
12
-34.295898
22
135.789993
32
-4.000000
13
-34.295898
23
135.789993
33
-4.000000
0
3DFACE
8
0
10
-36.329800
20
138.085999
30
-4.000000
11
260.625000
21
137.716003
31
-4.000000
12
-35.029900
22
137.188004
32
-4.000000
13
-35.029900
23
137.188004
33
-4.000000
0
3DFACE
8
0
10
-292.000000
20
-113.796997
30
-4.000000
11
-40.422001
21
133.466003
31
-4.000000
12
-39.374599
22
132.283997
32
-4.000000
13
-39.374599
23
132.283997
33
-4.000000
0
3DFACE
8
0
10
-292.000000
20
-113.796997
30
-4.000000
11
-39.374599
21
132.283997
31
-4.000000
12
-37.897800
22
131.723999
32
-4.000000
13
-37.897800
23
131.723999
33
-4.000000
0
3DFACE
8
0
10
-292.000000
20
-113.796997
30
-4.000000
11
-37.897800
21
131.723999
31
-4.000000
12
-292.000000
22
-150.000000
32
-4.000000
13
-292.000000
23
-150.000000
33
-4.000000
0
3DFACE
8
0
10
-382.500000
20
-37.500000
30
-4.000000
11
-353.296997
21
-52.500000
31
-4.000000
12
-367.500000
22
-52.500000
32
-4.000000
13
-367.500000
23
-52.500000
33
-4.000000
0
3DFACE
8
0
10
-335.029999
20
132.811996
30
-4.000000
11
-292.000000
21
-113.796997
31
-4.000000
12
-353.296997
22
-52.500000
32
-4.000000
13
-353.296997
23
-52.500000
33
-4.000000
0
3DFACE
8
0
10
-335.029999
20
132.811996
30
-4.000000
11
-40.422001
21
133.466003
31
-4.000000
12
-292.000000
22
-113.796997
32
-4.000000
13
-292.000000
23
-113.796997
33
-4.000000
0
3DFACE
8
0
10
-336.329987
20
131.914001
30
-4.000000
11
-353.296997
21
-52.500000
31
-4.000000
12
-382.500000
22
-37.500000
32
-4.000000
13
-382.500000
23
-37.500000
33
-4.000000
0
3DFACE
8
0
10
-336.329987
20
131.914001
30
-4.000000
11
-335.029999
21
132.811996
31
-4.000000
12
-353.296997
22
-52.500000
32
-4.000000
13
-353.296997
23
-52.500000
33
-4.000000
0
3DFACE
8
0
10
-334.295990
20
134.210007
30
-4.000000
11
-40.799999
21
135.000000
31
-4.000000
12
-40.422001
22
133.466003
32
-4.000000
13
-40.422001
23
133.466003
33
-4.000000
0
3DFACE
8
0
10
-334.295990
20
134.210007
30
-4.000000
11
-40.422001
21
133.466003
31
-4.000000
12
-335.029999
22
132.811996
32
-4.000000
13
-335.029999
23
132.811996
33
-4.000000
0
3DFACE
8
0
10
-337.898010
20
131.723999
30
-4.000000
11
-336.329987
21
131.914001
31
-4.000000
12
-382.500000
22
-37.500000
32
-4.000000
13
-382.500000
23
-37.500000
33
-4.000000
0
3DFACE
8
0
10
-334.295990
20
135.789993
30
-4.000000
11
-40.799999
21
135.000000
31
-4.000000
12
-334.295990
22
134.210007
32
-4.000000
13
-334.295990
23
134.210007
33
-4.000000
0
3DFACE
8
0
10
-334.295990
20
135.789993
30
-4.000000
11
-40.422001
21
136.533997
31
-4.000000
12
-40.799999
22
135.000000
32
-4.000000
13
-40.799999
23
135.000000
33
-4.000000
0
3DFACE
8
0
10
-339.375000
20
132.283997
30
-4.000000
11
-337.898010
21
131.723999
31
-4.000000
12
-382.500000
22
-37.500000
32
-4.000000
13
-382.500000
23
-37.500000
33
-4.000000
0
3DFACE
8
0
10
-335.029999
20
137.188004
30
-4.000000
11
-40.422001
21
136.533997
31
-4.000000
12
-334.295990
22
135.789993
32
-4.000000
13
-334.295990
23
135.789993
33
-4.000000
0
3DFACE
8
0
10
-335.029999
20
137.188004
30
-4.000000
11
-39.374599
21
137.716003
31
-4.000000
12
-40.422001
22
136.533997
32
-4.000000
13
-40.422001
23
136.533997
33
-4.000000
0
3DFACE
8
0
10
-336.329987
20
138.085999
30
-4.000000
11
-39.374599
21
137.716003
31
-4.000000
12
-335.029999
22
137.188004
32
-4.000000
13
-335.029999
23
137.188004
33
-4.000000
0
3DFACE
8
0
10
-336.329987
20
138.085999
30
-4.000000
11
-37.897800
21
138.276001
31
-4.000000
12
-39.374599
22
137.716003
32
-4.000000
13
-39.374599
23
137.716003
33
-4.000000
0
3DFACE
8
0
10
-382.500000
20
150.000000
30
-4.000000
11
-340.799988
21
135.000000
31
-4.000000
12
-340.421997
22
133.466003
32
-4.000000
13
-340.421997
23
133.466003
33
-4.000000
0
3DFACE
8
0
10
-382.500000
20
150.000000
30
-4.000000
11
-340.421997
21
133.466003
31
-4.000000
12
-339.375000
22
132.283997
32
-4.000000
13
-339.375000
23
132.283997
33
-4.000000
0
3DFACE
8
0
10
-382.500000
20
150.000000
30
-4.000000
11
-336.329987
21
138.085999
31
-4.000000
12
-337.898010
22
138.276001
32
-4.000000
13
-337.898010
23
138.276001
33
-4.000000
0
3DFACE
8
0
10
-382.500000
20
150.000000
30
-4.000000
11
-337.898010
21
138.276001
31
-4.000000
12
-339.375000
22
137.716003
32
-4.000000
13
-339.375000
23
137.716003
33
-4.000000
0
3DFACE
8
0
10
-382.500000
20
150.000000
30
-4.000000
11
-339.375000
21
137.716003
31
-4.000000
12
-340.421997
22
136.533997
32
-4.000000
13
-340.421997
23
136.533997
33
-4.000000
0
3DFACE
8
0
10
-382.500000
20
150.000000
30
-4.000000
11
-340.421997
21
136.533997
31
-4.000000
12
-340.799988
22
135.000000
32
-4.000000
13
-340.799988
23
135.000000
33
-4.000000
0
3DFACE
8
0
10
-382.500000
20
150.000000
30
-4.000000
11
-339.375000
21
132.283997
31
-4.000000
12
-382.500000
22
-37.500000
32
-4.000000
13
-382.500000
23
-37.500000
33
-4.000000
0
3DFACE
8
0
10
-382.500000
20
150.000000
30
-4.000000
11
292.000000
21
150.000000
31
-4.000000
12
262.101990
22
138.276001
32
-4.000000
13
262.101990
23
138.276001
33
-4.000000
0
3DFACE
8
0
10
-382.500000
20
150.000000
30
-4.000000
11
262.101990
21
138.276001
31
-4.000000
12
260.625000
22
137.716003
32
-4.000000
13
260.625000
23
137.716003
33
-4.000000
0
3DFACE
8
0
10
-382.500000
20
150.000000
30
-4.000000
11
260.625000
21
137.716003
31
-4.000000
12
-37.897800
22
138.276001
32
-4.000000
13
-37.897800
23
138.276001
33
-4.000000
0
3DFACE
8
0
10
-37.897800
20
138.276001
30
-4.000000
11
260.625000
21
137.716003
31
-4.000000
12
-36.329800
22
138.085999
32
-4.000000
13
-36.329800
23
138.085999
33
-4.000000
0
3DFACE
8
0
10
-382.500000
20
150.000000
30
-4.000000
11
-37.897800
21
138.276001
31
-4.000000
12
-336.329987
22
138.085999
32
-4.000000
13
-336.329987
23
138.085999
33
-4.000000
0
ENDSEC
0
EOF
