999
Created by ADMesh version 0.98.3
0
SECTION
2
HEADER
0
ENDSEC
0
SECTION
2
TABLES
0
TABLE
2
LAYER
70
1
0
LAYER
2
0
70
0
62
7
6
CONTINUOUS
0
ENDTAB
0
ENDSEC
0
SECTION
2
BLOCKS
0
ENDSEC
0
SECTION
2
ENTITIES
0
3DFACE
8
0
10
-337.250000
20
-234.500000
30
-4.000000
11
-337.076996
21
-233.740997
31
-4.000000
12
-337.250000
22
-234.500000
32
0.000000
13
-337.250000
23
-234.500000
33
0.000000
0
3DFACE
8
0
10
-337.250000
20
-234.500000
30
0.000000
11
-337.076996
21
-233.740997
31
-4.000000
12
-337.076996
22
-233.740997
32
0.000000
13
-337.076996
23
-233.740997
33
0.000000
0
3DFACE
8
0
10
-337.076996
20
-233.740997
30
0.000000
11
-336.591003
21
-233.132004
31
-4.000000
12
-336.591003
22
-233.132004
32
0.000000
13
-336.591003
23
-233.132004
33
0.000000
0
3DFACE
8
0
10
-337.076996
20
-233.740997
30
-4.000000
11
-336.591003
21
-233.132004
31
-4.000000
12
-337.076996
22
-233.740997
32
0.000000
13
-337.076996
23
-233.740997
33
0.000000
0
3DFACE
8
0
10
-336.591003
20
-233.132004
30
0.000000
11
-335.889008
21
-232.794006
31
-4.000000
12
-335.889008
22
-232.794006
32
0.000000
13
-335.889008
23
-232.794006
33
0.000000
0
3DFACE
8
0
10
-336.591003
20
-233.132004
30
-4.000000
11
-335.889008
21
-232.794006
31
-4.000000
12
-336.591003
22
-233.132004
32
0.000000
13
-336.591003
23
-233.132004
33
0.000000
0
3DFACE
8
0
10
-335.889008
20
-232.794006
30
0.000000
11
-335.110992
21
-232.794006
31
-4.000000
12
-335.110992
22
-232.794006
32
0.000000
13
-335.110992
23
-232.794006
33
0.000000
0
3DFACE
8
0
10
-335.889008
20
-232.794006
30
-4.000000
11
-335.110992
21
-232.794006
31
-4.000000
12
-335.889008
22
-232.794006
32
0.000000
13
-335.889008
23
-232.794006
33
0.000000
0
3DFACE
8
0
10
-335.110992
20
-232.794006
30
0.000000
11
-334.408997
21
-233.132004
31
-4.000000
12
-334.408997
22
-233.132004
32
0.000000
13
-334.408997
23
-233.132004
33
0.000000
0
3DFACE
8
0
10
-335.110992
20
-232.794006
30
-4.000000
11
-334.408997
21
-233.132004
31
-4.000000
12
-335.110992
22
-232.794006
32
0.000000
13
-335.110992
23
-232.794006
33
0.000000
0
3DFACE
8
0
10
-334.408997
20
-233.132004
30
0.000000
11
-333.923004
21
-233.740997
31
-4.000000
12
-333.923004
22
-233.740997
32
0.000000
13
-333.923004
23
-233.740997
33
0.000000
0
3DFACE
8
0
10
-333.923004
20
-233.740997
30
0.000000
11
-333.923004
21
-233.740997
31
-4.000000
12
-333.750000
22
-234.500000
32
0.000000
13
-333.750000
23
-234.500000
33
0.000000
0
3DFACE
8
0
10
-334.408997
20
-233.132004
30
-4.000000
11
-333.923004
21
-233.740997
31
-4.000000
12
-334.408997
22
-233.132004
32
0.000000
13
-334.408997
23
-233.132004
33
0.000000
0
3DFACE
8
0
10
-333.923004
20
-233.740997
30
-4.000000
11
-333.750000
21
-234.500000
31
-4.000000
12
-333.750000
22
-234.500000
32
0.000000
13
-333.750000
23
-234.500000
33
0.000000
0
3DFACE
8
0
10
-337.250000
20
214.500000
30
-4.000000
11
-337.076996
21
215.259003
31
-4.000000
12
-337.250000
22
214.500000
32
0.000000
13
-337.250000
23
214.500000
33
0.000000
0
3DFACE
8
0
10
-337.250000
20
214.500000
30
0.000000
11
-337.076996
21
215.259003
31
-4.000000
12
-337.076996
22
215.259003
32
0.000000
13
-337.076996
23
215.259003
33
0.000000
0
3DFACE
8
0
10
-337.076996
20
215.259003
30
0.000000
11
-336.591003
21
215.867996
31
-4.000000
12
-336.591003
22
215.867996
32
0.000000
13
-336.591003
23
215.867996
33
0.000000
0
3DFACE
8
0
10
-337.076996
20
215.259003
30
-4.000000
11
-336.591003
21
215.867996
31
-4.000000
12
-337.076996
22
215.259003
32
0.000000
13
-337.076996
23
215.259003
33
0.000000
0
3DFACE
8
0
10
-336.591003
20
215.867996
30
0.000000
11
-335.889008
21
216.205994
31
-4.000000
12
-335.889008
22
216.205994
32
0.000000
13
-335.889008
23
216.205994
33
0.000000
0
3DFACE
8
0
10
-336.591003
20
215.867996
30
-4.000000
11
-335.889008
21
216.205994
31
-4.000000
12
-336.591003
22
215.867996
32
0.000000
13
-336.591003
23
215.867996
33
0.000000
0
3DFACE
8
0
10
-335.889008
20
216.205994
30
0.000000
11
-335.110992
21
216.205994
31
-4.000000
12
-335.110992
22
216.205994
32
0.000000
13
-335.110992
23
216.205994
33
0.000000
0
3DFACE
8
0
10
-335.889008
20
216.205994
30
-4.000000
11
-335.110992
21
216.205994
31
-4.000000
12
-335.889008
22
216.205994
32
0.000000
13
-335.889008
23
216.205994
33
0.000000
0
3DFACE
8
0
10
-335.110992
20
216.205994
30
0.000000
11
-334.408997
21
215.867996
31
-4.000000
12
-334.408997
22
215.867996
32
0.000000
13
-334.408997
23
215.867996
33
0.000000
0
3DFACE
8
0
10
-335.110992
20
216.205994
30
-4.000000
11
-334.408997
21
215.867996
31
-4.000000
12
-335.110992
22
216.205994
32
0.000000
13
-335.110992
23
216.205994
33
0.000000
0
3DFACE
8
0
10
-334.408997
20
215.867996
30
0.000000
11
-333.923004
21
215.259003
31
-4.000000
12
-333.923004
22
215.259003
32
0.000000
13
-333.923004
23
215.259003
33
0.000000
0
3DFACE
8
0
10
-333.923004
20
215.259003
30
0.000000
11
-333.923004
21
215.259003
31
-4.000000
12
-333.750000
22
214.500000
32
0.000000
13
-333.750000
23
214.500000
33
0.000000
0
3DFACE
8
0
10
-334.408997
20
215.867996
30
-4.000000
11
-333.923004
21
215.259003
31
-4.000000
12
-334.408997
22
215.867996
32
0.000000
13
-334.408997
23
215.867996
33
0.000000
0
3DFACE
8
0
10
-333.923004
20
215.259003
30
-4.000000
11
-333.750000
21
214.500000
31
-4.000000
12
-333.750000
22
214.500000
32
0.000000
13
-333.750000
23
214.500000
33
0.000000
0
3DFACE
8
0
10
-337.250000
20
254.500000
30
-4.000000
11
-337.076996
21
255.259003
31
-4.000000
12
-337.250000
22
254.500000
32
0.000000
13
-337.250000
23
254.500000
33
0.000000
0
3DFACE
8
0
10
-337.250000
20
254.500000
30
0.000000
11
-337.076996
21
255.259003
31
-4.000000
12
-337.076996
22
255.259003
32
0.000000
13
-337.076996
23
255.259003
33
0.000000
0
3DFACE
8
0
10
-337.076996
20
255.259003
30
0.000000
11
-336.591003
21
255.867996
31
-4.000000
12
-336.591003
22
255.867996
32
0.000000
13
-336.591003
23
255.867996
33
0.000000
0
3DFACE
8
0
10
-337.076996
20
255.259003
30
-4.000000
11
-336.591003
21
255.867996
31
-4.000000
12
-337.076996
22
255.259003
32
0.000000
13
-337.076996
23
255.259003
33
0.000000
0
3DFACE
8
0
10
-336.591003
20
255.867996
30
0.000000
11
-335.889008
21
256.205994
31
-4.000000
12
-335.889008
22
256.205994
32
0.000000
13
-335.889008
23
256.205994
33
0.000000
0
3DFACE
8
0
10
-336.591003
20
255.867996
30
-4.000000
11
-335.889008
21
256.205994
31
-4.000000
12
-336.591003
22
255.867996
32
0.000000
13
-336.591003
23
255.867996
33
0.000000
0
3DFACE
8
0
10
-335.889008
20
256.205994
30
0.000000
11
-335.110992
21
256.205994
31
-4.000000
12
-335.110992
22
256.205994
32
0.000000
13
-335.110992
23
256.205994
33
0.000000
0
3DFACE
8
0
10
-335.889008
20
256.205994
30
-4.000000
11
-335.110992
21
256.205994
31
-4.000000
12
-335.889008
22
256.205994
32
0.000000
13
-335.889008
23
256.205994
33
0.000000
0
3DFACE
8
0
10
-335.110992
20
256.205994
30
0.000000
11
-334.408997
21
255.867996
31
-4.000000
12
-334.408997
22
255.867996
32
0.000000
13
-334.408997
23
255.867996
33
0.000000
0
3DFACE
8
0
10
-335.110992
20
256.205994
30
-4.000000
11
-334.408997
21
255.867996
31
-4.000000
12
-335.110992
22
256.205994
32
0.000000
13
-335.110992
23
256.205994
33
0.000000
0
3DFACE
8
0
10
-334.408997
20
255.867996
30
0.000000
11
-333.923004
21
255.259003
31
-4.000000
12
-333.923004
22
255.259003
32
0.000000
13
-333.923004
23
255.259003
33
0.000000
0
3DFACE
8
0
10
-333.923004
20
255.259003
30
0.000000
11
-333.923004
21
255.259003
31
-4.000000
12
-333.750000
22
254.500000
32
0.000000
13
-333.750000
23
254.500000
33
0.000000
0
3DFACE
8
0
10
-334.408997
20
255.867996
30
-4.000000
11
-333.923004
21
255.259003
31
-4.000000
12
-334.408997
22
255.867996
32
0.000000
13
-334.408997
23
255.867996
33
0.000000
0
3DFACE
8
0
10
-333.923004
20
255.259003
30
-4.000000
11
-333.750000
21
254.500000
31
-4.000000
12
-333.750000
22
254.500000
32
0.000000
13
-333.750000
23
254.500000
33
0.000000
0
3DFACE
8
0
10
-337.250000
20
234.500000
30
-4.000000
11
-337.076996
21
235.259003
31
-4.000000
12
-337.250000
22
234.500000
32
0.000000
13
-337.250000
23
234.500000
33
0.000000
0
3DFACE
8
0
10
-337.250000
20
234.500000
30
0.000000
11
-337.076996
21
235.259003
31
-4.000000
12
-337.076996
22
235.259003
32
0.000000
13
-337.076996
23
235.259003
33
0.000000
0
3DFACE
8
0
10
-337.076996
20
235.259003
30
0.000000
11
-336.591003
21
235.867996
31
-4.000000
12
-336.591003
22
235.867996
32
0.000000
13
-336.591003
23
235.867996
33
0.000000
0
3DFACE
8
0
10
-337.076996
20
235.259003
30
-4.000000
11
-336.591003
21
235.867996
31
-4.000000
12
-337.076996
22
235.259003
32
0.000000
13
-337.076996
23
235.259003
33
0.000000
0
3DFACE
8
0
10
-336.591003
20
235.867996
30
0.000000
11
-335.889008
21
236.205994
31
-4.000000
12
-335.889008
22
236.205994
32
0.000000
13
-335.889008
23
236.205994
33
0.000000
0
3DFACE
8
0
10
-336.591003
20
235.867996
30
-4.000000
11
-335.889008
21
236.205994
31
-4.000000
12
-336.591003
22
235.867996
32
0.000000
13
-336.591003
23
235.867996
33
0.000000
0
3DFACE
8
0
10
-335.889008
20
236.205994
30
0.000000
11
-335.110992
21
236.205994
31
-4.000000
12
-335.110992
22
236.205994
32
0.000000
13
-335.110992
23
236.205994
33
0.000000
0
3DFACE
8
0
10
-335.889008
20
236.205994
30
-4.000000
11
-335.110992
21
236.205994
31
-4.000000
12
-335.889008
22
236.205994
32
0.000000
13
-335.889008
23
236.205994
33
0.000000
0
3DFACE
8
0
10
-335.110992
20
236.205994
30
0.000000
11
-334.408997
21
235.867996
31
-4.000000
12
-334.408997
22
235.867996
32
0.000000
13
-334.408997
23
235.867996
33
0.000000
0
3DFACE
8
0
10
-335.110992
20
236.205994
30
-4.000000
11
-334.408997
21
235.867996
31
-4.000000
12
-335.110992
22
236.205994
32
0.000000
13
-335.110992
23
236.205994
33
0.000000
0
3DFACE
8
0
10
-334.408997
20
235.867996
30
0.000000
11
-333.923004
21
235.259003
31
-4.000000
12
-333.923004
22
235.259003
32
0.000000
13
-333.923004
23
235.259003
33
0.000000
0
3DFACE
8
0
10
-333.923004
20
235.259003
30
0.000000
11
-333.923004
21
235.259003
31
-4.000000
12
-333.750000
22
234.500000
32
0.000000
13
-333.750000
23
234.500000
33
0.000000
0
3DFACE
8
0
10
-334.408997
20
235.867996
30
-4.000000
11
-333.923004
21
235.259003
31
-4.000000
12
-334.408997
22
235.867996
32
0.000000
13
-334.408997
23
235.867996
33
0.000000
0
3DFACE
8
0
10
-333.923004
20
235.259003
30
-4.000000
11
-333.750000
21
234.500000
31
-4.000000
12
-333.750000
22
234.500000
32
0.000000
13
-333.750000
23
234.500000
33
0.000000
0
3DFACE
8
0
10
-337.250000
20
-214.500000
30
-4.000000
11
-337.076996
21
-213.740997
31
-4.000000
12
-337.250000
22
-214.500000
32
0.000000
13
-337.250000
23
-214.500000
33
0.000000
0
3DFACE
8
0
10
-337.250000
20
-214.500000
30
0.000000
11
-337.076996
21
-213.740997
31
-4.000000
12
-337.076996
22
-213.740997
32
0.000000
13
-337.076996
23
-213.740997
33
0.000000
0
3DFACE
8
0
10
-337.076996
20
-213.740997
30
0.000000
11
-336.591003
21
-213.132004
31
-4.000000
12
-336.591003
22
-213.132004
32
0.000000
13
-336.591003
23
-213.132004
33
0.000000
0
3DFACE
8
0
10
-337.076996
20
-213.740997
30
-4.000000
11
-336.591003
21
-213.132004
31
-4.000000
12
-337.076996
22
-213.740997
32
0.000000
13
-337.076996
23
-213.740997
33
0.000000
0
3DFACE
8
0
10
-336.591003
20
-213.132004
30
0.000000
11
-335.889008
21
-212.794006
31
-4.000000
12
-335.889008
22
-212.794006
32
0.000000
13
-335.889008
23
-212.794006
33
0.000000
0
3DFACE
8
0
10
-336.591003
20
-213.132004
30
-4.000000
11
-335.889008
21
-212.794006
31
-4.000000
12
-336.591003
22
-213.132004
32
0.000000
13
-336.591003
23
-213.132004
33
0.000000
0
3DFACE
8
0
10
-335.889008
20
-212.794006
30
0.000000
11
-335.110992
21
-212.794006
31
-4.000000
12
-335.110992
22
-212.794006
32
0.000000
13
-335.110992
23
-212.794006
33
0.000000
0
3DFACE
8
0
10
-335.889008
20
-212.794006
30
-4.000000
11
-335.110992
21
-212.794006
31
-4.000000
12
-335.889008
22
-212.794006
32
0.000000
13
-335.889008
23
-212.794006
33
0.000000
0
3DFACE
8
0
10
-335.110992
20
-212.794006
30
0.000000
11
-334.408997
21
-213.132004
31
-4.000000
12
-334.408997
22
-213.132004
32
0.000000
13
-334.408997
23
-213.132004
33
0.000000
0
3DFACE
8
0
10
-335.110992
20
-212.794006
30
-4.000000
11
-334.408997
21
-213.132004
31
-4.000000
12
-335.110992
22
-212.794006
32
0.000000
13
-335.110992
23
-212.794006
33
0.000000
0
3DFACE
8
0
10
-334.408997
20
-213.132004
30
0.000000
11
-333.923004
21
-213.740997
31
-4.000000
12
-333.923004
22
-213.740997
32
0.000000
13
-333.923004
23
-213.740997
33
0.000000
0
3DFACE
8
0
10
-333.923004
20
-213.740997
30
0.000000
11
-333.923004
21
-213.740997
31
-4.000000
12
-333.750000
22
-214.500000
32
0.000000
13
-333.750000
23
-214.500000
33
0.000000
0
3DFACE
8
0
10
-334.408997
20
-213.132004
30
-4.000000
11
-333.923004
21
-213.740997
31
-4.000000
12
-334.408997
22
-213.132004
32
0.000000
13
-334.408997
23
-213.132004
33
0.000000
0
3DFACE
8
0
10
-333.923004
20
-213.740997
30
-4.000000
11
-333.750000
21
-214.500000
31
-4.000000
12
-333.750000
22
-214.500000
32
0.000000
13
-333.750000
23
-214.500000
33
0.000000
0
3DFACE
8
0
10
-337.250000
20
-254.500000
30
-4.000000
11
-337.076996
21
-253.740997
31
-4.000000
12
-337.250000
22
-254.500000
32
0.000000
13
-337.250000
23
-254.500000
33
0.000000
0
3DFACE
8
0
10
-337.250000
20
-254.500000
30
0.000000
11
-337.076996
21
-253.740997
31
-4.000000
12
-337.076996
22
-253.740997
32
0.000000
13
-337.076996
23
-253.740997
33
0.000000
0
3DFACE
8
0
10
-337.076996
20
-253.740997
30
0.000000
11
-336.591003
21
-253.132004
31
-4.000000
12
-336.591003
22
-253.132004
32
0.000000
13
-336.591003
23
-253.132004
33
0.000000
0
3DFACE
8
0
10
-337.076996
20
-253.740997
30
-4.000000
11
-336.591003
21
-253.132004
31
-4.000000
12
-337.076996
22
-253.740997
32
0.000000
13
-337.076996
23
-253.740997
33
0.000000
0
3DFACE
8
0
10
-336.591003
20
-253.132004
30
0.000000
11
-335.889008
21
-252.794006
31
-4.000000
12
-335.889008
22
-252.794006
32
0.000000
13
-335.889008
23
-252.794006
33
0.000000
0
3DFACE
8
0
10
-336.591003
20
-253.132004
30
-4.000000
11
-335.889008
21
-252.794006
31
-4.000000
12
-336.591003
22
-253.132004
32
0.000000
13
-336.591003
23
-253.132004
33
0.000000
0
3DFACE
8
0
10
-335.889008
20
-252.794006
30
0.000000
11
-335.110992
21
-252.794006
31
-4.000000
12
-335.110992
22
-252.794006
32
0.000000
13
-335.110992
23
-252.794006
33
0.000000
0
3DFACE
8
0
10
-335.889008
20
-252.794006
30
-4.000000
11
-335.110992
21
-252.794006
31
-4.000000
12
-335.889008
22
-252.794006
32
0.000000
13
-335.889008
23
-252.794006
33
0.000000
0
3DFACE
8
0
10
-335.110992
20
-252.794006
30
0.000000
11
-334.408997
21
-253.132004
31
-4.000000
12
-334.408997
22
-253.132004
32
0.000000
13
-334.408997
23
-253.132004
33
0.000000
0
3DFACE
8
0
10
-335.110992
20
-252.794006
30
-4.000000
11
-334.408997
21
-253.132004
31
-4.000000
12
-335.110992
22
-252.794006
32
0.000000
13
-335.110992
23
-252.794006
33
0.000000
0
3DFACE
8
0
10
-334.408997
20
-253.132004
30
0.000000
11
-333.923004
21
-253.740997
31
-4.000000
12
-333.923004
22
-253.740997
32
0.000000
13
-333.923004
23
-253.740997
33
0.000000
0
3DFACE
8
0
10
-333.923004
20
-253.740997
30
0.000000
11
-333.923004
21
-253.740997
31
-4.000000
12
-333.750000
22
-254.500000
32
0.000000
13
-333.750000
23
-254.500000
33
0.000000
0
3DFACE
8
0
10
-334.408997
20
-253.132004
30
-4.000000
11
-333.923004
21
-253.740997
31
-4.000000
12
-334.408997
22
-253.132004
32
0.000000
13
-334.408997
23
-253.132004
33
0.000000
0
3DFACE
8
0
10
-333.923004
20
-253.740997
30
-4.000000
11
-333.750000
21
-254.500000
31
-4.000000
12
-333.750000
22
-254.500000
32
0.000000
13
-333.750000
23
-254.500000
33
0.000000
0
3DFACE
8
0
10
-259.500000
20
355.000000
30
-4.000000
11
263.500000
21
355.000000
31
-4.000000
12
263.500000
22
324.796997
32
-4.000000
13
263.500000
23
324.796997
33
-4.000000
0
3DFACE
8
0
10
352.000000
20
-264.500000
30
-4.000000
11
323.796997
21
264.500000
31
-4.000000
12
352.000000
22
264.500000
32
-4.000000
13
352.000000
23
264.500000
33
-4.000000
0
3DFACE
8
0
10
-259.500000
20
324.796997
30
-4.000000
11
-259.500000
21
355.000000
31
-4.000000
12
263.500000
22
324.796997
32
-4.000000
13
263.500000
23
324.796997
33
-4.000000
0
3DFACE
8
0
10
323.796997
20
-264.500000
30
-4.000000
11
323.796997
21
264.500000
31
-4.000000
12
352.000000
22
-264.500000
32
-4.000000
13
352.000000
23
-264.500000
33
-4.000000
0
3DFACE
8
0
10
-333.923004
20
255.259003
30
-4.000000
11
-334.408997
21
255.867996
31
-4.000000
12
-319.796997
22
264.500000
32
-4.000000
13
-319.796997
23
264.500000
33
-4.000000
0
3DFACE
8
0
10
-335.110992
20
256.205994
30
-4.000000
11
-319.796997
21
264.500000
31
-4.000000
12
-334.408997
22
255.867996
32
-4.000000
13
-334.408997
23
255.867996
33
-4.000000
0
3DFACE
8
0
10
-333.750000
20
254.500000
30
-4.000000
11
-333.923004
21
255.259003
31
-4.000000
12
-319.796997
22
264.500000
32
-4.000000
13
-319.796997
23
264.500000
33
-4.000000
0
3DFACE
8
0
10
-333.923004
20
253.740997
30
-4.000000
11
-333.750000
21
254.500000
31
-4.000000
12
-319.796997
22
264.500000
32
-4.000000
13
-319.796997
23
264.500000
33
-4.000000
0
3DFACE
8
0
10
-348.000000
20
264.500000
30
-4.000000
11
-319.796997
21
264.500000
31
-4.000000
12
-335.110992
22
256.205994
32
-4.000000
13
-335.110992
23
256.205994
33
-4.000000
0
3DFACE
8
0
10
-348.000000
20
264.500000
30
-4.000000
11
-335.110992
21
256.205994
31
-4.000000
12
-335.889008
22
256.205994
32
-4.000000
13
-335.889008
23
256.205994
33
-4.000000
0
3DFACE
8
0
10
-348.000000
20
264.500000
30
-4.000000
11
-335.889008
21
256.205994
31
-4.000000
12
-336.591003
22
255.867996
32
-4.000000
13
-336.591003
23
255.867996
33
-4.000000
0
3DFACE
8
0
10
-348.000000
20
264.500000
30
-4.000000
11
-336.591003
21
255.867996
31
-4.000000
12
-337.076996
22
255.259003
32
-4.000000
13
-337.076996
23
255.259003
33
-4.000000
0
3DFACE
8
0
10
-348.000000
20
264.500000
30
-4.000000
11
-337.076996
21
255.259003
31
-4.000000
12
-337.250000
22
254.500000
32
-4.000000
13
-337.250000
23
254.500000
33
-4.000000
0
3DFACE
8
0
10
-348.000000
20
264.500000
30
-4.000000
11
-337.250000
21
254.500000
31
-4.000000
12
-337.076996
22
253.740997
32
-4.000000
13
-337.076996
23
253.740997
33
-4.000000
0
3DFACE
8
0
10
-334.408997
20
235.867996
30
-4.000000
11
-335.110992
21
252.794006
31
-4.000000
12
-334.408997
22
253.132004
32
-4.000000
13
-334.408997
23
253.132004
33
-4.000000
0
3DFACE
8
0
10
-334.408997
20
235.867996
30
-4.000000
11
-334.408997
21
253.132004
31
-4.000000
12
-333.923004
22
253.740997
32
-4.000000
13
-333.923004
23
253.740997
33
-4.000000
0
3DFACE
8
0
10
-333.923004
20
235.259003
30
-4.000000
11
-333.923004
21
253.740997
31
-4.000000
12
-319.796997
22
264.500000
32
-4.000000
13
-319.796997
23
264.500000
33
-4.000000
0
3DFACE
8
0
10
-333.923004
20
235.259003
30
-4.000000
11
-334.408997
21
235.867996
31
-4.000000
12
-333.923004
22
253.740997
32
-4.000000
13
-333.923004
23
253.740997
33
-4.000000
0
3DFACE
8
0
10
-335.110992
20
236.205994
30
-4.000000
11
-335.110992
21
252.794006
31
-4.000000
12
-334.408997
22
235.867996
32
-4.000000
13
-334.408997
23
235.867996
33
-4.000000
0
3DFACE
8
0
10
-333.750000
20
234.500000
30
-4.000000
11
-333.923004
21
235.259003
31
-4.000000
12
-319.796997
22
264.500000
32
-4.000000
13
-319.796997
23
264.500000
33
-4.000000
0
3DFACE
8
0
10
-335.889008
20
236.205994
30
-4.000000
11
-335.110992
21
252.794006
31
-4.000000
12
-335.110992
22
236.205994
32
-4.000000
13
-335.110992
23
236.205994
33
-4.000000
0
3DFACE
8
0
10
-335.889008
20
236.205994
30
-4.000000
11
-335.889008
21
252.794006
31
-4.000000
12
-335.110992
22
252.794006
32
-4.000000
13
-335.110992
23
252.794006
33
-4.000000
0
3DFACE
8
0
10
-336.591003
20
235.867996
30
-4.000000
11
-335.889008
21
252.794006
31
-4.000000
12
-335.889008
22
236.205994
32
-4.000000
13
-335.889008
23
236.205994
33
-4.000000
0
3DFACE
8
0
10
-336.591003
20
235.867996
30
-4.000000
11
-336.591003
21
253.132004
31
-4.000000
12
-335.889008
22
252.794006
32
-4.000000
13
-335.889008
23
252.794006
33
-4.000000
0
3DFACE
8
0
10
-337.076996
20
235.259003
30
-4.000000
11
-348.000000
21
264.500000
31
-4.000000
12
-337.076996
22
253.740997
32
-4.000000
13
-337.076996
23
253.740997
33
-4.000000
0
3DFACE
8
0
10
-337.076996
20
235.259003
30
-4.000000
11
-337.076996
21
253.740997
31
-4.000000
12
-336.591003
22
253.132004
32
-4.000000
13
-336.591003
23
253.132004
33
-4.000000
0
3DFACE
8
0
10
-337.076996
20
235.259003
30
-4.000000
11
-336.591003
21
253.132004
31
-4.000000
12
-336.591003
22
235.867996
32
-4.000000
13
-336.591003
23
235.867996
33
-4.000000
0
3DFACE
8
0
10
-337.250000
20
234.500000
30
-4.000000
11
-348.000000
21
264.500000
31
-4.000000
12
-337.076996
22
235.259003
32
-4.000000
13
-337.076996
23
235.259003
33
-4.000000
0
3DFACE
8
0
10
-334.408997
20
215.867996
30
-4.000000
11
-334.408997
21
233.132004
31
-4.000000
12
-333.923004
22
233.740997
32
-4.000000
13
-333.923004
23
233.740997
33
-4.000000
0
3DFACE
8
0
10
-333.923004
20
215.259003
30
-4.000000
11
-333.923004
21
233.740997
31
-4.000000
12
-333.750000
22
234.500000
32
-4.000000
13
-333.750000
23
234.500000
33
-4.000000
0
3DFACE
8
0
10
-333.923004
20
215.259003
30
-4.000000
11
-334.408997
21
215.867996
31
-4.000000
12
-333.923004
22
233.740997
32
-4.000000
13
-333.923004
23
233.740997
33
-4.000000
0
3DFACE
8
0
10
-335.110992
20
216.205994
30
-4.000000
11
-335.110992
21
232.794006
31
-4.000000
12
-334.408997
22
233.132004
32
-4.000000
13
-334.408997
23
233.132004
33
-4.000000
0
3DFACE
8
0
10
-335.110992
20
216.205994
30
-4.000000
11
-334.408997
21
233.132004
31
-4.000000
12
-334.408997
22
215.867996
32
-4.000000
13
-334.408997
23
215.867996
33
-4.000000
0
3DFACE
8
0
10
-333.750000
20
214.500000
30
-4.000000
11
-319.796997
21
264.500000
31
-4.000000
12
-259.500000
22
324.796997
32
-4.000000
13
-259.500000
23
324.796997
33
-4.000000
0
3DFACE
8
0
10
-333.750000
20
214.500000
30
-4.000000
11
-333.750000
21
234.500000
31
-4.000000
12
-319.796997
22
264.500000
32
-4.000000
13
-319.796997
23
264.500000
33
-4.000000
0
3DFACE
8
0
10
-333.750000
20
214.500000
30
-4.000000
11
-333.923004
21
215.259003
31
-4.000000
12
-333.750000
22
234.500000
32
-4.000000
13
-333.750000
23
234.500000
33
-4.000000
0
3DFACE
8
0
10
-335.889008
20
216.205994
30
-4.000000
11
-335.110992
21
232.794006
31
-4.000000
12
-335.110992
22
216.205994
32
-4.000000
13
-335.110992
23
216.205994
33
-4.000000
0
3DFACE
8
0
10
-335.889008
20
216.205994
30
-4.000000
11
-335.889008
21
232.794006
31
-4.000000
12
-335.110992
22
232.794006
32
-4.000000
13
-335.110992
23
232.794006
33
-4.000000
0
3DFACE
8
0
10
-333.923004
20
213.740997
30
-4.000000
11
263.500000
21
324.796997
31
-4.000000
12
323.796997
22
264.500000
32
-4.000000
13
323.796997
23
264.500000
33
-4.000000
0
3DFACE
8
0
10
-333.923004
20
213.740997
30
-4.000000
11
-259.500000
21
324.796997
31
-4.000000
12
263.500000
22
324.796997
32
-4.000000
13
263.500000
23
324.796997
33
-4.000000
0
3DFACE
8
0
10
-333.923004
20
213.740997
30
-4.000000
11
-333.750000
21
214.500000
31
-4.000000
12
-259.500000
22
324.796997
32
-4.000000
13
-259.500000
23
324.796997
33
-4.000000
0
3DFACE
8
0
10
-336.591003
20
215.867996
30
-4.000000
11
-336.591003
21
233.132004
31
-4.000000
12
-335.889008
22
232.794006
32
-4.000000
13
-335.889008
23
232.794006
33
-4.000000
0
3DFACE
8
0
10
-336.591003
20
215.867996
30
-4.000000
11
-335.889008
21
232.794006
31
-4.000000
12
-335.889008
22
216.205994
32
-4.000000
13
-335.889008
23
216.205994
33
-4.000000
0
3DFACE
8
0
10
-337.076996
20
215.259003
30
-4.000000
11
-337.076996
21
233.740997
31
-4.000000
12
-336.591003
22
233.132004
32
-4.000000
13
-336.591003
23
233.132004
33
-4.000000
0
3DFACE
8
0
10
-337.076996
20
215.259003
30
-4.000000
11
-336.591003
21
233.132004
31
-4.000000
12
-336.591003
22
215.867996
32
-4.000000
13
-336.591003
23
215.867996
33
-4.000000
0
3DFACE
8
0
10
-337.250000
20
214.500000
30
-4.000000
11
-348.000000
21
264.500000
31
-4.000000
12
-337.250000
22
234.500000
32
-4.000000
13
-337.250000
23
234.500000
33
-4.000000
0
3DFACE
8
0
10
-337.250000
20
214.500000
30
-4.000000
11
-337.250000
21
234.500000
31
-4.000000
12
-337.076996
22
233.740997
32
-4.000000
13
-337.076996
23
233.740997
33
-4.000000
0
3DFACE
8
0
10
-337.250000
20
214.500000
30
-4.000000
11
-337.076996
21
233.740997
31
-4.000000
12
-337.076996
22
215.259003
32
-4.000000
13
-337.076996
23
215.259003
33
-4.000000
0
3DFACE
8
0
10
-333.923004
20
-213.740997
30
-4.000000
11
323.796997
21
-264.500000
31
-4.000000
12
263.500000
22
-324.796997
32
-4.000000
13
263.500000
23
-324.796997
33
-4.000000
0
3DFACE
8
0
10
-333.923004
20
-213.740997
30
-4.000000
11
-334.408997
21
-213.132004
31
-4.000000
12
-334.408997
22
213.132004
32
-4.000000
13
-334.408997
23
213.132004
33
-4.000000
0
3DFACE
8
0
10
-333.923004
20
-213.740997
30
-4.000000
11
323.796997
21
264.500000
31
-4.000000
12
323.796997
22
-264.500000
32
-4.000000
13
323.796997
23
-264.500000
33
-4.000000
0
3DFACE
8
0
10
-333.923004
20
-213.740997
30
-4.000000
11
-334.408997
21
213.132004
31
-4.000000
12
-333.923004
22
213.740997
32
-4.000000
13
-333.923004
23
213.740997
33
-4.000000
0
3DFACE
8
0
10
-333.923004
20
-213.740997
30
-4.000000
11
-333.923004
21
213.740997
31
-4.000000
12
323.796997
22
264.500000
32
-4.000000
13
323.796997
23
264.500000
33
-4.000000
0
3DFACE
8
0
10
-335.110992
20
-212.794006
30
-4.000000
11
-334.408997
21
213.132004
31
-4.000000
12
-334.408997
22
-213.132004
32
-4.000000
13
-334.408997
23
-213.132004
33
-4.000000
0
3DFACE
8
0
10
-335.110992
20
-212.794006
30
-4.000000
11
-335.110992
21
212.794006
31
-4.000000
12
-334.408997
22
213.132004
32
-4.000000
13
-334.408997
23
213.132004
33
-4.000000
0
3DFACE
8
0
10
-335.889008
20
-212.794006
30
-4.000000
11
-335.110992
21
212.794006
31
-4.000000
12
-335.110992
22
-212.794006
32
-4.000000
13
-335.110992
23
-212.794006
33
-4.000000
0
3DFACE
8
0
10
-335.889008
20
-212.794006
30
-4.000000
11
-335.889008
21
212.794006
31
-4.000000
12
-335.110992
22
212.794006
32
-4.000000
13
-335.110992
23
212.794006
33
-4.000000
0
3DFACE
8
0
10
-336.591003
20
-213.132004
30
-4.000000
11
-335.889008
21
212.794006
31
-4.000000
12
-335.889008
22
-212.794006
32
-4.000000
13
-335.889008
23
-212.794006
33
-4.000000
0
3DFACE
8
0
10
-336.591003
20
-213.132004
30
-4.000000
11
-336.591003
21
213.132004
31
-4.000000
12
-335.889008
22
212.794006
32
-4.000000
13
-335.889008
23
212.794006
33
-4.000000
0
3DFACE
8
0
10
-337.076996
20
-213.740997
30
-4.000000
11
-336.591003
21
213.132004
31
-4.000000
12
-336.591003
22
-213.132004
32
-4.000000
13
-336.591003
23
-213.132004
33
-4.000000
0
3DFACE
8
0
10
-337.076996
20
-213.740997
30
-4.000000
11
-337.076996
21
213.740997
31
-4.000000
12
-336.591003
22
213.132004
32
-4.000000
13
-336.591003
23
213.132004
33
-4.000000
0
3DFACE
8
0
10
-334.408997
20
-233.132004
30
-4.000000
11
-334.408997
21
-215.867996
31
-4.000000
12
-333.923004
22
-215.259003
32
-4.000000
13
-333.923004
23
-215.259003
33
-4.000000
0
3DFACE
8
0
10
-333.923004
20
-233.740997
30
-4.000000
11
-334.408997
21
-233.132004
31
-4.000000
12
-333.923004
22
-215.259003
32
-4.000000
13
-333.923004
23
-215.259003
33
-4.000000
0
3DFACE
8
0
10
-333.923004
20
-233.740997
30
-4.000000
11
-333.923004
21
-215.259003
31
-4.000000
12
-333.750000
22
-214.500000
32
-4.000000
13
-333.750000
23
-214.500000
33
-4.000000
0
3DFACE
8
0
10
-335.110992
20
-232.794006
30
-4.000000
11
-334.408997
21
-215.867996
31
-4.000000
12
-334.408997
22
-233.132004
32
-4.000000
13
-334.408997
23
-233.132004
33
-4.000000
0
3DFACE
8
0
10
-335.110992
20
-232.794006
30
-4.000000
11
-335.889008
21
-216.205994
31
-4.000000
12
-335.110992
22
-216.205994
32
-4.000000
13
-335.110992
23
-216.205994
33
-4.000000
0
3DFACE
8
0
10
-335.110992
20
-232.794006
30
-4.000000
11
-335.110992
21
-216.205994
31
-4.000000
12
-334.408997
22
-215.867996
32
-4.000000
13
-334.408997
23
-215.867996
33
-4.000000
0
3DFACE
8
0
10
-333.750000
20
-234.500000
30
-4.000000
11
-333.923004
21
-233.740997
31
-4.000000
12
-333.750000
22
-214.500000
32
-4.000000
13
-333.750000
23
-214.500000
33
-4.000000
0
3DFACE
8
0
10
-335.889008
20
-232.794006
30
-4.000000
11
-335.889008
21
-216.205994
31
-4.000000
12
-335.110992
22
-232.794006
32
-4.000000
13
-335.110992
23
-232.794006
33
-4.000000
0
3DFACE
8
0
10
-336.591003
20
-233.132004
30
-4.000000
11
-335.889008
21
-216.205994
31
-4.000000
12
-335.889008
22
-232.794006
32
-4.000000
13
-335.889008
23
-232.794006
33
-4.000000
0
3DFACE
8
0
10
-336.591003
20
-233.132004
30
-4.000000
11
-336.591003
21
-215.867996
31
-4.000000
12
-335.889008
22
-216.205994
32
-4.000000
13
-335.889008
23
-216.205994
33
-4.000000
0
3DFACE
8
0
10
-337.076996
20
-233.740997
30
-4.000000
11
-337.250000
21
-214.500000
31
-4.000000
12
-337.076996
22
-215.259003
32
-4.000000
13
-337.076996
23
-215.259003
33
-4.000000
0
3DFACE
8
0
10
-337.076996
20
-233.740997
30
-4.000000
11
-337.076996
21
-215.259003
31
-4.000000
12
-336.591003
22
-215.867996
32
-4.000000
13
-336.591003
23
-215.867996
33
-4.000000
0
3DFACE
8
0
10
-337.076996
20
-233.740997
30
-4.000000
11
-336.591003
21
-215.867996
31
-4.000000
12
-336.591003
22
-233.132004
32
-4.000000
13
-336.591003
23
-233.132004
33
-4.000000
0
3DFACE
8
0
10
-337.250000
20
-234.500000
30
-4.000000
11
-337.250000
21
-214.500000
31
-4.000000
12
-337.076996
22
-233.740997
32
-4.000000
13
-337.076996
23
-233.740997
33
-4.000000
0
3DFACE
8
0
10
-319.796997
20
-264.500000
30
-4.000000
11
-333.750000
21
-234.500000
31
-4.000000
12
-333.750000
22
-214.500000
32
-4.000000
13
-333.750000
23
-214.500000
33
-4.000000
0
3DFACE
8
0
10
-319.796997
20
-264.500000
30
-4.000000
11
-333.923004
21
-235.259003
31
-4.000000
12
-333.750000
22
-234.500000
32
-4.000000
13
-333.750000
23
-234.500000
33
-4.000000
0
3DFACE
8
0
10
-259.500000
20
-324.796997
30
-4.000000
11
-333.923004
21
-213.740997
31
-4.000000
12
263.500000
22
-324.796997
32
-4.000000
13
263.500000
23
-324.796997
33
-4.000000
0
3DFACE
8
0
10
-259.500000
20
-324.796997
30
-4.000000
11
-333.750000
21
-214.500000
31
-4.000000
12
-333.923004
22
-213.740997
32
-4.000000
13
-333.923004
23
-213.740997
33
-4.000000
0
3DFACE
8
0
10
-259.500000
20
-324.796997
30
-4.000000
11
-319.796997
21
-264.500000
31
-4.000000
12
-333.750000
22
-214.500000
32
-4.000000
13
-333.750000
23
-214.500000
33
-4.000000
0
3DFACE
8
0
10
-334.408997
20
-253.132004
30
-4.000000
11
-334.408997
21
-235.867996
31
-4.000000
12
-333.923004
22
-235.259003
32
-4.000000
13
-333.923004
23
-235.259003
33
-4.000000
0
3DFACE
8
0
10
-333.923004
20
-253.740997
30
-4.000000
11
-334.408997
21
-253.132004
31
-4.000000
12
-333.923004
22
-235.259003
32
-4.000000
13
-333.923004
23
-235.259003
33
-4.000000
0
3DFACE
8
0
10
-333.923004
20
-253.740997
30
-4.000000
11
-333.923004
21
-235.259003
31
-4.000000
12
-319.796997
22
-264.500000
32
-4.000000
13
-319.796997
23
-264.500000
33
-4.000000
0
3DFACE
8
0
10
-335.110992
20
-252.794006
30
-4.000000
11
-334.408997
21
-235.867996
31
-4.000000
12
-334.408997
22
-253.132004
32
-4.000000
13
-334.408997
23
-253.132004
33
-4.000000
0
3DFACE
8
0
10
-335.110992
20
-252.794006
30
-4.000000
11
-335.110992
21
-236.205994
31
-4.000000
12
-334.408997
22
-235.867996
32
-4.000000
13
-334.408997
23
-235.867996
33
-4.000000
0
3DFACE
8
0
10
-333.750000
20
-254.500000
30
-4.000000
11
-333.923004
21
-253.740997
31
-4.000000
12
-319.796997
22
-264.500000
32
-4.000000
13
-319.796997
23
-264.500000
33
-4.000000
0
3DFACE
8
0
10
-335.889008
20
-252.794006
30
-4.000000
11
-335.110992
21
-236.205994
31
-4.000000
12
-335.110992
22
-252.794006
32
-4.000000
13
-335.110992
23
-252.794006
33
-4.000000
0
3DFACE
8
0
10
-335.889008
20
-252.794006
30
-4.000000
11
-336.591003
21
-235.867996
31
-4.000000
12
-335.889008
22
-236.205994
32
-4.000000
13
-335.889008
23
-236.205994
33
-4.000000
0
3DFACE
8
0
10
-335.889008
20
-252.794006
30
-4.000000
11
-335.889008
21
-236.205994
31
-4.000000
12
-335.110992
22
-236.205994
32
-4.000000
13
-335.110992
23
-236.205994
33
-4.000000
0
3DFACE
8
0
10
-333.923004
20
-255.259003
30
-4.000000
11
-333.750000
21
-254.500000
31
-4.000000
12
-319.796997
22
-264.500000
32
-4.000000
13
-319.796997
23
-264.500000
33
-4.000000
0
3DFACE
8
0
10
-336.591003
20
-253.132004
30
-4.000000
11
-336.591003
21
-235.867996
31
-4.000000
12
-335.889008
22
-252.794006
32
-4.000000
13
-335.889008
23
-252.794006
33
-4.000000
0
3DFACE
8
0
10
-334.408997
20
-255.867996
30
-4.000000
11
-333.923004
21
-255.259003
31
-4.000000
12
-319.796997
22
-264.500000
32
-4.000000
13
-319.796997
23
-264.500000
33
-4.000000
0
3DFACE
8
0
10
-337.076996
20
-253.740997
30
-4.000000
11
-336.591003
21
-235.867996
31
-4.000000
12
-336.591003
22
-253.132004
32
-4.000000
13
-336.591003
23
-253.132004
33
-4.000000
0
3DFACE
8
0
10
-337.076996
20
-253.740997
30
-4.000000
11
-337.076996
21
-235.259003
31
-4.000000
12
-336.591003
22
-235.867996
32
-4.000000
13
-336.591003
23
-235.867996
33
-4.000000
0
3DFACE
8
0
10
-335.110992
20
-256.205994
30
-4.000000
11
-334.408997
21
-255.867996
31
-4.000000
12
-319.796997
22
-264.500000
32
-4.000000
13
-319.796997
23
-264.500000
33
-4.000000
0
3DFACE
8
0
10
-348.000000
20
-264.500000
30
-4.000000
11
-337.076996
21
-253.740997
31
-4.000000
12
-337.250000
22
-254.500000
32
-4.000000
13
-337.250000
23
-254.500000
33
-4.000000
0
3DFACE
8
0
10
-348.000000
20
-264.500000
30
-4.000000
11
-337.250000
21
-254.500000
31
-4.000000
12
-337.076996
22
-255.259003
32
-4.000000
13
-337.076996
23
-255.259003
33
-4.000000
0
3DFACE
8
0
10
-348.000000
20
-264.500000
30
-4.000000
11
-337.076996
21
-255.259003
31
-4.000000
12
-336.591003
22
-255.867996
32
-4.000000
13
-336.591003
23
-255.867996
33
-4.000000
0
3DFACE
8
0
10
-348.000000
20
-264.500000
30
-4.000000
11
-336.591003
21
-255.867996
31
-4.000000
12
-335.889008
22
-256.205994
32
-4.000000
13
-335.889008
23
-256.205994
33
-4.000000
0
3DFACE
8
0
10
-348.000000
20
-264.500000
30
-4.000000
11
-335.889008
21
-256.205994
31
-4.000000
12
-335.110992
22
-256.205994
32
-4.000000
13
-335.110992
23
-256.205994
33
-4.000000
0
3DFACE
8
0
10
-348.000000
20
-264.500000
30
-4.000000
11
-337.250000
21
-214.500000
31
-4.000000
12
-337.250000
22
-234.500000
32
-4.000000
13
-337.250000
23
-234.500000
33
-4.000000
0
3DFACE
8
0
10
-348.000000
20
-264.500000
30
-4.000000
11
-337.076996
21
-235.259003
31
-4.000000
12
-337.076996
22
-253.740997
32
-4.000000
13
-337.076996
23
-253.740997
33
-4.000000
0
3DFACE
8
0
10
-348.000000
20
-264.500000
30
-4.000000
11
-337.250000
21
-234.500000
31
-4.000000
12
-337.076996
22
-235.259003
32
-4.000000
13
-337.076996
23
-235.259003
33
-4.000000
0
3DFACE
8
0
10
-348.000000
20
-264.500000
30
-4.000000
11
-335.110992
21
-256.205994
31
-4.000000
12
-319.796997
22
-264.500000
32
-4.000000
13
-319.796997
23
-264.500000
33
-4.000000
0
3DFACE
8
0
10
-259.500000
20
-355.000000
30
-4.000000
11
263.500000
21
-324.796997
31
-4.000000
12
263.500000
22
-355.000000
32
-4.000000
13
263.500000
23
-355.000000
33
-4.000000
0
3DFACE
8
0
10
-259.500000
20
-355.000000
30
-4.000000
11
-259.500000
21
-324.796997
31
-4.000000
12
263.500000
22
-324.796997
32
-4.000000
13
263.500000
23
-324.796997
33
-4.000000
0
3DFACE
8
0
10
-348.000000
20
-264.500000
30
-4.000000
11
-348.000000
21
264.500000
31
-4.000000
12
-337.250000
22
214.500000
32
-4.000000
13
-337.250000
23
214.500000
33
-4.000000
0
3DFACE
8
0
10
-348.000000
20
-264.500000
30
-4.000000
11
-337.250000
21
214.500000
31
-4.000000
12
-337.076996
22
213.740997
32
-4.000000
13
-337.076996
23
213.740997
33
-4.000000
0
3DFACE
8
0
10
-348.000000
20
-264.500000
30
-4.000000
11
-337.076996
21
213.740997
31
-4.000000
12
-337.250000
22
-214.500000
32
-4.000000
13
-337.250000
23
-214.500000
33
-4.000000
0
3DFACE
8
0
10
-337.250000
20
-214.500000
30
-4.000000
11
-337.076996
21
213.740997
31
-4.000000
12
-337.076996
22
-213.740997
32
-4.000000
13
-337.076996
23
-213.740997
33
-4.000000
0
3DFACE
8
0
10
-337.076996
20
-255.259003
30
0.000000
11
-348.000000
21
-264.500000
31
0.000000
12
-336.591003
22
-255.867996
32
0.000000
13
-336.591003
23
-255.867996
33
0.000000
0
3DFACE
8
0
10
-335.889008
20
-256.205994
30
0.000000
11
-336.591003
21
-255.867996
31
0.000000
12
-348.000000
22
-264.500000
32
0.000000
13
-348.000000
23
-264.500000
33
0.000000
0
3DFACE
8
0
10
-337.250000
20
-254.500000
30
0.000000
11
-348.000000
21
-264.500000
31
0.000000
12
-337.076996
22
-255.259003
32
0.000000
13
-337.076996
23
-255.259003
33
0.000000
0
3DFACE
8
0
10
-335.110992
20
-256.205994
30
0.000000
11
-335.889008
21
-256.205994
31
0.000000
12
-348.000000
22
-264.500000
32
0.000000
13
-348.000000
23
-264.500000
33
0.000000
0
3DFACE
8
0
10
-337.076996
20
-253.740997
30
0.000000
11
-348.000000
21
-264.500000
31
0.000000
12
-337.250000
22
-254.500000
32
0.000000
13
-337.250000
23
-254.500000
33
0.000000
0
3DFACE
8
0
10
-319.796997
20
-264.500000
30
0.000000
11
-335.110992
21
-256.205994
31
0.000000
12
-348.000000
22
-264.500000
32
0.000000
13
-348.000000
23
-264.500000
33
0.000000
0
3DFACE
8
0
10
-319.796997
20
-264.500000
30
0.000000
11
-333.750000
21
-254.500000
31
0.000000
12
-333.923004
22
-255.259003
32
0.000000
13
-333.923004
23
-255.259003
33
0.000000
0
3DFACE
8
0
10
-319.796997
20
-264.500000
30
0.000000
11
-333.923004
21
-255.259003
31
0.000000
12
-334.408997
22
-255.867996
32
0.000000
13
-334.408997
23
-255.867996
33
0.000000
0
3DFACE
8
0
10
-319.796997
20
-264.500000
30
0.000000
11
-334.408997
21
-255.867996
31
0.000000
12
-335.110992
22
-256.205994
32
0.000000
13
-335.110992
23
-256.205994
33
0.000000
0
3DFACE
8
0
10
-319.796997
20
-264.500000
30
0.000000
11
-333.923004
21
-253.740997
31
0.000000
12
-333.750000
22
-254.500000
32
0.000000
13
-333.750000
23
-254.500000
33
0.000000
0
3DFACE
8
0
10
-337.076996
20
-235.259003
30
0.000000
11
-348.000000
21
-264.500000
31
0.000000
12
-337.076996
22
-253.740997
32
0.000000
13
-337.076996
23
-253.740997
33
0.000000
0
3DFACE
8
0
10
-337.076996
20
-235.259003
30
0.000000
11
-336.591003
21
-253.132004
31
0.000000
12
-336.591003
22
-235.867996
32
0.000000
13
-336.591003
23
-235.867996
33
0.000000
0
3DFACE
8
0
10
-337.076996
20
-235.259003
30
0.000000
11
-337.076996
21
-253.740997
31
0.000000
12
-336.591003
22
-253.132004
32
0.000000
13
-336.591003
23
-253.132004
33
0.000000
0
3DFACE
8
0
10
-335.889008
20
-236.205994
30
0.000000
11
-336.591003
21
-235.867996
31
0.000000
12
-336.591003
22
-253.132004
32
0.000000
13
-336.591003
23
-253.132004
33
0.000000
0
3DFACE
8
0
10
-335.889008
20
-236.205994
30
0.000000
11
-336.591003
21
-253.132004
31
0.000000
12
-335.889008
22
-252.794006
32
0.000000
13
-335.889008
23
-252.794006
33
0.000000
0
3DFACE
8
0
10
-337.250000
20
-234.500000
30
0.000000
11
-348.000000
21
-264.500000
31
0.000000
12
-337.076996
22
-235.259003
32
0.000000
13
-337.076996
23
-235.259003
33
0.000000
0
3DFACE
8
0
10
-335.110992
20
-236.205994
30
0.000000
11
-335.889008
21
-252.794006
31
0.000000
12
-335.110992
22
-252.794006
32
0.000000
13
-335.110992
23
-252.794006
33
0.000000
0
3DFACE
8
0
10
-335.110992
20
-236.205994
30
0.000000
11
-335.110992
21
-252.794006
31
0.000000
12
-334.408997
22
-253.132004
32
0.000000
13
-334.408997
23
-253.132004
33
0.000000
0
3DFACE
8
0
10
-335.110992
20
-236.205994
30
0.000000
11
-335.889008
21
-236.205994
31
0.000000
12
-335.889008
22
-252.794006
32
0.000000
13
-335.889008
23
-252.794006
33
0.000000
0
3DFACE
8
0
10
-334.408997
20
-235.867996
30
0.000000
11
-335.110992
21
-236.205994
31
0.000000
12
-334.408997
22
-253.132004
32
0.000000
13
-334.408997
23
-253.132004
33
0.000000
0
3DFACE
8
0
10
-333.923004
20
-235.259003
30
0.000000
11
-334.408997
21
-253.132004
31
0.000000
12
-333.923004
22
-253.740997
32
0.000000
13
-333.923004
23
-253.740997
33
0.000000
0
3DFACE
8
0
10
-333.923004
20
-235.259003
30
0.000000
11
-334.408997
21
-235.867996
31
0.000000
12
-334.408997
22
-253.132004
32
0.000000
13
-334.408997
23
-253.132004
33
0.000000
0
3DFACE
8
0
10
-333.923004
20
-235.259003
30
0.000000
11
-333.923004
21
-253.740997
31
0.000000
12
-319.796997
22
-264.500000
32
0.000000
13
-319.796997
23
-264.500000
33
0.000000
0
3DFACE
8
0
10
-333.750000
20
-234.500000
30
0.000000
11
-333.923004
21
-235.259003
31
0.000000
12
-319.796997
22
-264.500000
32
0.000000
13
-319.796997
23
-264.500000
33
0.000000
0
3DFACE
8
0
10
-336.591003
20
-215.867996
30
0.000000
11
-337.076996
21
-233.740997
31
0.000000
12
-336.591003
22
-233.132004
32
0.000000
13
-336.591003
23
-233.132004
33
0.000000
0
3DFACE
8
0
10
-337.076996
20
-215.259003
30
0.000000
11
-337.076996
21
-233.740997
31
0.000000
12
-336.591003
22
-215.867996
32
0.000000
13
-336.591003
23
-215.867996
33
0.000000
0
3DFACE
8
0
10
-335.889008
20
-216.205994
30
0.000000
11
-336.591003
21
-215.867996
31
0.000000
12
-336.591003
22
-233.132004
32
0.000000
13
-336.591003
23
-233.132004
33
0.000000
0
3DFACE
8
0
10
-335.889008
20
-216.205994
30
0.000000
11
-336.591003
21
-233.132004
31
0.000000
12
-335.889008
22
-232.794006
32
0.000000
13
-335.889008
23
-232.794006
33
0.000000
0
3DFACE
8
0
10
-337.250000
20
-214.500000
30
0.000000
11
-348.000000
21
-264.500000
31
0.000000
12
-337.250000
22
-234.500000
32
0.000000
13
-337.250000
23
-234.500000
33
0.000000
0
3DFACE
8
0
10
-337.250000
20
-214.500000
30
0.000000
11
-337.076996
21
-233.740997
31
0.000000
12
-337.076996
22
-215.259003
32
0.000000
13
-337.076996
23
-215.259003
33
0.000000
0
3DFACE
8
0
10
-337.250000
20
-214.500000
30
0.000000
11
-337.250000
21
-234.500000
31
0.000000
12
-337.076996
22
-233.740997
32
0.000000
13
-337.076996
23
-233.740997
33
0.000000
0
3DFACE
8
0
10
-335.110992
20
-216.205994
30
0.000000
11
-335.889008
21
-216.205994
31
0.000000
12
-335.889008
22
-232.794006
32
0.000000
13
-335.889008
23
-232.794006
33
0.000000
0
3DFACE
8
0
10
-335.110992
20
-216.205994
30
0.000000
11
-335.889008
21
-232.794006
31
0.000000
12
-335.110992
22
-232.794006
32
0.000000
13
-335.110992
23
-232.794006
33
0.000000
0
3DFACE
8
0
10
-335.110992
20
-216.205994
30
0.000000
11
-335.110992
21
-232.794006
31
0.000000
12
-334.408997
22
-233.132004
32
0.000000
13
-334.408997
23
-233.132004
33
0.000000
0
3DFACE
8
0
10
-334.408997
20
-215.867996
30
0.000000
11
-335.110992
21
-216.205994
31
0.000000
12
-334.408997
22
-233.132004
32
0.000000
13
-334.408997
23
-233.132004
33
0.000000
0
3DFACE
8
0
10
-333.923004
20
-215.259003
30
0.000000
11
-334.408997
21
-215.867996
31
0.000000
12
-334.408997
22
-233.132004
32
0.000000
13
-334.408997
23
-233.132004
33
0.000000
0
3DFACE
8
0
10
-333.923004
20
-215.259003
30
0.000000
11
-334.408997
21
-233.132004
31
0.000000
12
-333.923004
22
-233.740997
32
0.000000
13
-333.923004
23
-233.740997
33
0.000000
0
3DFACE
8
0
10
-333.750000
20
-214.500000
30
0.000000
11
-319.796997
21
-264.500000
31
0.000000
12
-259.500000
22
-324.796997
32
0.000000
13
-259.500000
23
-324.796997
33
0.000000
0
3DFACE
8
0
10
-333.750000
20
-214.500000
30
0.000000
11
-333.750000
21
-234.500000
31
0.000000
12
-319.796997
22
-264.500000
32
0.000000
13
-319.796997
23
-264.500000
33
0.000000
0
3DFACE
8
0
10
-333.750000
20
-214.500000
30
0.000000
11
-333.923004
21
-215.259003
31
0.000000
12
-333.923004
22
-233.740997
32
0.000000
13
-333.923004
23
-233.740997
33
0.000000
0
3DFACE
8
0
10
-333.750000
20
-214.500000
30
0.000000
11
-333.923004
21
-233.740997
31
0.000000
12
-333.750000
22
-234.500000
32
0.000000
13
-333.750000
23
-234.500000
33
0.000000
0
3DFACE
8
0
10
-333.923004
20
-213.740997
30
0.000000
11
-333.750000
21
-214.500000
31
0.000000
12
-259.500000
22
-324.796997
32
0.000000
13
-259.500000
23
-324.796997
33
0.000000
0
3DFACE
8
0
10
-337.076996
20
213.740997
30
0.000000
11
-336.591003
21
-213.132004
31
0.000000
12
-336.591003
22
213.132004
32
0.000000
13
-336.591003
23
213.132004
33
0.000000
0
3DFACE
8
0
10
-337.076996
20
213.740997
30
0.000000
11
-337.076996
21
-213.740997
31
0.000000
12
-336.591003
22
-213.132004
32
0.000000
13
-336.591003
23
-213.132004
33
0.000000
0
3DFACE
8
0
10
-335.889008
20
212.794006
30
0.000000
11
-336.591003
21
213.132004
31
0.000000
12
-336.591003
22
-213.132004
32
0.000000
13
-336.591003
23
-213.132004
33
0.000000
0
3DFACE
8
0
10
-335.889008
20
212.794006
30
0.000000
11
-336.591003
21
-213.132004
31
0.000000
12
-335.889008
22
-212.794006
32
0.000000
13
-335.889008
23
-212.794006
33
0.000000
0
3DFACE
8
0
10
-335.889008
20
212.794006
30
0.000000
11
-335.889008
21
-212.794006
31
0.000000
12
-335.110992
22
-212.794006
32
0.000000
13
-335.110992
23
-212.794006
33
0.000000
0
3DFACE
8
0
10
-337.250000
20
214.500000
30
0.000000
11
-337.250000
21
-214.500000
31
0.000000
12
-337.076996
22
-213.740997
32
0.000000
13
-337.076996
23
-213.740997
33
0.000000
0
3DFACE
8
0
10
-337.250000
20
214.500000
30
0.000000
11
-337.076996
21
-213.740997
31
0.000000
12
-337.076996
22
213.740997
32
0.000000
13
-337.076996
23
213.740997
33
0.000000
0
3DFACE
8
0
10
-335.110992
20
212.794006
30
0.000000
11
-335.110992
21
-212.794006
31
0.000000
12
-334.408997
22
-213.132004
32
0.000000
13
-334.408997
23
-213.132004
33
0.000000
0
3DFACE
8
0
10
-335.110992
20
212.794006
30
0.000000
11
-335.889008
21
212.794006
31
0.000000
12
-335.110992
22
-212.794006
32
0.000000
13
-335.110992
23
-212.794006
33
0.000000
0
3DFACE
8
0
10
-334.408997
20
213.132004
30
0.000000
11
-335.110992
21
212.794006
31
0.000000
12
-334.408997
22
-213.132004
32
0.000000
13
-334.408997
23
-213.132004
33
0.000000
0
3DFACE
8
0
10
-333.923004
20
213.740997
30
0.000000
11
-334.408997
21
213.132004
31
0.000000
12
-334.408997
22
-213.132004
32
0.000000
13
-334.408997
23
-213.132004
33
0.000000
0
3DFACE
8
0
10
-333.923004
20
213.740997
30
0.000000
11
-334.408997
21
-213.132004
31
0.000000
12
-333.923004
22
-213.740997
32
0.000000
13
-333.923004
23
-213.740997
33
0.000000
0
3DFACE
8
0
10
-337.076996
20
233.740997
30
0.000000
11
-336.591003
21
215.867996
31
0.000000
12
-336.591003
22
233.132004
32
0.000000
13
-336.591003
23
233.132004
33
0.000000
0
3DFACE
8
0
10
-337.076996
20
233.740997
30
0.000000
11
-337.076996
21
215.259003
31
0.000000
12
-336.591003
22
215.867996
32
0.000000
13
-336.591003
23
215.867996
33
0.000000
0
3DFACE
8
0
10
-335.889008
20
232.794006
30
0.000000
11
-336.591003
21
233.132004
31
0.000000
12
-336.591003
22
215.867996
32
0.000000
13
-336.591003
23
215.867996
33
0.000000
0
3DFACE
8
0
10
-335.889008
20
232.794006
30
0.000000
11
-336.591003
21
215.867996
31
0.000000
12
-335.889008
22
216.205994
32
0.000000
13
-335.889008
23
216.205994
33
0.000000
0
3DFACE
8
0
10
-337.250000
20
234.500000
30
0.000000
11
-337.076996
21
215.259003
31
0.000000
12
-337.076996
22
233.740997
32
0.000000
13
-337.076996
23
233.740997
33
0.000000
0
3DFACE
8
0
10
-337.250000
20
234.500000
30
0.000000
11
-337.250000
21
214.500000
31
0.000000
12
-337.076996
22
215.259003
32
0.000000
13
-337.076996
23
215.259003
33
0.000000
0
3DFACE
8
0
10
-335.110992
20
232.794006
30
0.000000
11
-335.889008
21
232.794006
31
0.000000
12
-335.889008
22
216.205994
32
0.000000
13
-335.889008
23
216.205994
33
0.000000
0
3DFACE
8
0
10
-335.110992
20
232.794006
30
0.000000
11
-335.889008
21
216.205994
31
0.000000
12
-335.110992
22
216.205994
32
0.000000
13
-335.110992
23
216.205994
33
0.000000
0
3DFACE
8
0
10
-335.110992
20
232.794006
30
0.000000
11
-335.110992
21
216.205994
31
0.000000
12
-334.408997
22
215.867996
32
0.000000
13
-334.408997
23
215.867996
33
0.000000
0
3DFACE
8
0
10
-334.408997
20
233.132004
30
0.000000
11
-335.110992
21
232.794006
31
0.000000
12
-334.408997
22
215.867996
32
0.000000
13
-334.408997
23
215.867996
33
0.000000
0
3DFACE
8
0
10
-334.408997
20
233.132004
30
0.000000
11
-334.408997
21
215.867996
31
0.000000
12
-333.923004
22
215.259003
32
0.000000
13
-333.923004
23
215.259003
33
0.000000
0
3DFACE
8
0
10
-333.923004
20
233.740997
30
0.000000
11
-334.408997
21
233.132004
31
0.000000
12
-333.923004
22
215.259003
32
0.000000
13
-333.923004
23
215.259003
33
0.000000
0
3DFACE
8
0
10
-333.750000
20
234.500000
30
0.000000
11
-333.923004
21
233.740997
31
0.000000
12
-333.923004
22
215.259003
32
0.000000
13
-333.923004
23
215.259003
33
0.000000
0
3DFACE
8
0
10
-333.750000
20
234.500000
30
0.000000
11
-333.923004
21
215.259003
31
0.000000
12
-333.750000
22
214.500000
32
0.000000
13
-333.750000
23
214.500000
33
0.000000
0
3DFACE
8
0
10
263.500000
20
-355.000000
30
0.000000
11
-259.500000
21
-324.796997
31
0.000000
12
-259.500000
22
-355.000000
32
0.000000
13
-259.500000
23
-355.000000
33
0.000000
0
3DFACE
8
0
10
-348.000000
20
264.500000
30
0.000000
11
-337.250000
21
214.500000
31
0.000000
12
-337.250000
22
234.500000
32
0.000000
13
-337.250000
23
234.500000
33
0.000000
0
3DFACE
8
0
10
-348.000000
20
264.500000
30
0.000000
11
-337.250000
21
234.500000
31
0.000000
12
-337.076996
22
235.259003
32
0.000000
13
-337.076996
23
235.259003
33
0.000000
0
3DFACE
8
0
10
-337.076996
20
253.740997
30
0.000000
11
-348.000000
21
264.500000
31
0.000000
12
-337.076996
22
235.259003
32
0.000000
13
-337.076996
23
235.259003
33
0.000000
0
3DFACE
8
0
10
-337.076996
20
253.740997
30
0.000000
11
-336.591003
21
235.867996
31
0.000000
12
-336.591003
22
253.132004
32
0.000000
13
-336.591003
23
253.132004
33
0.000000
0
3DFACE
8
0
10
-337.076996
20
253.740997
30
0.000000
11
-337.076996
21
235.259003
31
0.000000
12
-336.591003
22
235.867996
32
0.000000
13
-336.591003
23
235.867996
33
0.000000
0
3DFACE
8
0
10
-335.889008
20
252.794006
30
0.000000
11
-336.591003
21
253.132004
31
0.000000
12
-336.591003
22
235.867996
32
0.000000
13
-336.591003
23
235.867996
33
0.000000
0
3DFACE
8
0
10
-335.889008
20
252.794006
30
0.000000
11
-336.591003
21
235.867996
31
0.000000
12
-335.889008
22
236.205994
32
0.000000
13
-335.889008
23
236.205994
33
0.000000
0
3DFACE
8
0
10
-337.250000
20
254.500000
30
0.000000
11
-348.000000
21
264.500000
31
0.000000
12
-337.076996
22
253.740997
32
0.000000
13
-337.076996
23
253.740997
33
0.000000
0
3DFACE
8
0
10
-335.110992
20
252.794006
30
0.000000
11
-335.889008
21
236.205994
31
0.000000
12
-335.110992
22
236.205994
32
0.000000
13
-335.110992
23
236.205994
33
0.000000
0
3DFACE
8
0
10
-335.110992
20
252.794006
30
0.000000
11
-335.110992
21
236.205994
31
0.000000
12
-334.408997
22
235.867996
32
0.000000
13
-334.408997
23
235.867996
33
0.000000
0
3DFACE
8
0
10
-335.110992
20
252.794006
30
0.000000
11
-335.889008
21
252.794006
31
0.000000
12
-335.889008
22
236.205994
32
0.000000
13
-335.889008
23
236.205994
33
0.000000
0
3DFACE
8
0
10
-337.076996
20
255.259003
30
0.000000
11
-348.000000
21
264.500000
31
0.000000
12
-337.250000
22
254.500000
32
0.000000
13
-337.250000
23
254.500000
33
0.000000
0
3DFACE
8
0
10
-334.408997
20
253.132004
30
0.000000
11
-335.110992
21
252.794006
31
0.000000
12
-334.408997
22
235.867996
32
0.000000
13
-334.408997
23
235.867996
33
0.000000
0
3DFACE
8
0
10
-336.591003
20
255.867996
30
0.000000
11
-348.000000
21
264.500000
31
0.000000
12
-337.076996
22
255.259003
32
0.000000
13
-337.076996
23
255.259003
33
0.000000
0
3DFACE
8
0
10
-333.923004
20
253.740997
30
0.000000
11
-334.408997
21
253.132004
31
0.000000
12
-334.408997
22
235.867996
32
0.000000
13
-334.408997
23
235.867996
33
0.000000
0
3DFACE
8
0
10
-333.923004
20
253.740997
30
0.000000
11
-334.408997
21
235.867996
31
0.000000
12
-333.923004
22
235.259003
32
0.000000
13
-333.923004
23
235.259003
33
0.000000
0
3DFACE
8
0
10
-335.889008
20
256.205994
30
0.000000
11
-348.000000
21
264.500000
31
0.000000
12
-336.591003
22
255.867996
32
0.000000
13
-336.591003
23
255.867996
33
0.000000
0
3DFACE
8
0
10
-335.110992
20
256.205994
30
0.000000
11
-348.000000
21
264.500000
31
0.000000
12
-335.889008
22
256.205994
32
0.000000
13
-335.889008
23
256.205994
33
0.000000
0
3DFACE
8
0
10
263.500000
20
-324.796997
30
0.000000
11
-259.500000
21
-324.796997
31
0.000000
12
263.500000
22
-355.000000
32
0.000000
13
263.500000
23
-355.000000
33
0.000000
0
3DFACE
8
0
10
263.500000
20
-324.796997
30
0.000000
11
-333.923004
21
-213.740997
31
0.000000
12
-259.500000
22
-324.796997
32
0.000000
13
-259.500000
23
-324.796997
33
0.000000
0
3DFACE
8
0
10
-319.796997
20
264.500000
30
0.000000
11
-333.750000
21
234.500000
31
0.000000
12
-333.750000
22
214.500000
32
0.000000
13
-333.750000
23
214.500000
33
0.000000
0
3DFACE
8
0
10
-319.796997
20
264.500000
30
0.000000
11
-333.923004
21
253.740997
31
0.000000
12
-333.923004
22
235.259003
32
0.000000
13
-333.923004
23
235.259003
33
0.000000
0
3DFACE
8
0
10
-319.796997
20
264.500000
30
0.000000
11
-333.923004
21
235.259003
31
0.000000
12
-333.750000
22
234.500000
32
0.000000
13
-333.750000
23
234.500000
33
0.000000
0
3DFACE
8
0
10
-319.796997
20
264.500000
30
0.000000
11
-333.750000
21
254.500000
31
0.000000
12
-333.923004
22
253.740997
32
0.000000
13
-333.923004
23
253.740997
33
0.000000
0
3DFACE
8
0
10
-319.796997
20
264.500000
30
0.000000
11
-335.110992
21
256.205994
31
0.000000
12
-334.408997
22
255.867996
32
0.000000
13
-334.408997
23
255.867996
33
0.000000
0
3DFACE
8
0
10
-319.796997
20
264.500000
30
0.000000
11
-334.408997
21
255.867996
31
0.000000
12
-333.923004
22
255.259003
32
0.000000
13
-333.923004
23
255.259003
33
0.000000
0
3DFACE
8
0
10
-319.796997
20
264.500000
30
0.000000
11
-333.923004
21
255.259003
31
0.000000
12
-333.750000
22
254.500000
32
0.000000
13
-333.750000
23
254.500000
33
0.000000
0
3DFACE
8
0
10
-319.796997
20
264.500000
30
0.000000
11
-348.000000
21
264.500000
31
0.000000
12
-335.110992
22
256.205994
32
0.000000
13
-335.110992
23
256.205994
33
0.000000
0
3DFACE
8
0
10
323.796997
20
-264.500000
30
0.000000
11
-333.923004
21
-213.740997
31
0.000000
12
263.500000
22
-324.796997
32
0.000000
13
263.500000
23
-324.796997
33
0.000000
0
3DFACE
8
0
10
-259.500000
20
324.796997
30
0.000000
11
-333.750000
21
214.500000
31
0.000000
12
-333.923004
22
213.740997
32
0.000000
13
-333.923004
23
213.740997
33
0.000000
0
3DFACE
8
0
10
-259.500000
20
324.796997
30
0.000000
11
-319.796997
21
264.500000
31
0.000000
12
-333.750000
22
214.500000
32
0.000000
13
-333.750000
23
214.500000
33
0.000000
0
3DFACE
8
0
10
323.796997
20
264.500000
30
0.000000
11
-333.923004
21
213.740997
31
0.000000
12
-333.923004
22
-213.740997
32
0.000000
13
-333.923004
23
-213.740997
33
0.000000
0
3DFACE
8
0
10
323.796997
20
264.500000
30
0.000000
11
-333.923004
21
-213.740997
31
0.000000
12
323.796997
22
-264.500000
32
0.000000
13
323.796997
23
-264.500000
33
0.000000
0
3DFACE
8
0
10
263.500000
20
324.796997
30
0.000000
11
-333.923004
21
213.740997
31
0.000000
12
323.796997
22
264.500000
32
0.000000
13
323.796997
23
264.500000
33
0.000000
0
3DFACE
8
0
10
263.500000
20
324.796997
30
0.000000
11
-259.500000
21
324.796997
31
0.000000
12
-333.923004
22
213.740997
32
0.000000
13
-333.923004
23
213.740997
33
0.000000
0
3DFACE
8
0
10
352.000000
20
264.500000
30
0.000000
11
323.796997
21
-264.500000
31
0.000000
12
352.000000
22
-264.500000
32
0.000000
13
352.000000
23
-264.500000
33
0.000000
0
3DFACE
8
0
10
352.000000
20
264.500000
30
0.000000
11
323.796997
21
264.500000
31
0.000000
12
323.796997
22
-264.500000
32
0.000000
13
323.796997
23
-264.500000
33
0.000000
0
3DFACE
8
0
10
263.500000
20
355.000000
30
0.000000
11
-259.500000
21
355.000000
31
0.000000
12
-259.500000
22
324.796997
32
0.000000
13
-259.500000
23
324.796997
33
0.000000
0
3DFACE
8
0
10
263.500000
20
355.000000
30
0.000000
11
-259.500000
21
324.796997
31
0.000000
12
263.500000
22
324.796997
32
0.000000
13
263.500000
23
324.796997
33
0.000000
0
3DFACE
8
0
10
-348.000000
20
264.500000
30
0.000000
11
-348.000000
21
-264.500000
31
0.000000
12
-337.250000
22
-214.500000
32
0.000000
13
-337.250000
23
-214.500000
33
0.000000
0
3DFACE
8
0
10
-348.000000
20
264.500000
30
0.000000
11
-337.250000
21
-214.500000
31
0.000000
12
-337.250000
22
214.500000
32
0.000000
13
-337.250000
23
214.500000
33
0.000000
0
3DFACE
8
0
10
-319.796997
20
264.500000
30
-4.000000
11
-348.000000
21
264.500000
31
0.000000
12
-319.796997
22
264.500000
32
0.000000
13
-319.796997
23
264.500000
33
0.000000
0
3DFACE
8
0
10
-319.796997
20
264.500000
30
-4.000000
11
-348.000000
21
264.500000
31
-4.000000
12
-348.000000
22
264.500000
32
0.000000
13
-348.000000
23
264.500000
33
0.000000
0
3DFACE
8
0
10
-259.500000
20
324.796997
30
0.000000
11
-259.500000
21
324.796997
31
-4.000000
12
-319.796997
22
264.500000
32
-4.000000
13
-319.796997
23
264.500000
33
-4.000000
0
3DFACE
8
0
10
-259.500000
20
324.796997
30
0.000000
11
-319.796997
21
264.500000
31
-4.000000
12
-319.796997
22
264.500000
32
0.000000
13
-319.796997
23
264.500000
33
0.000000
0
3DFACE
8
0
10
-259.500000
20
355.000000
30
0.000000
11
-259.500000
21
355.000000
31
-4.000000
12
-259.500000
22
324.796997
32
-4.000000
13
-259.500000
23
324.796997
33
-4.000000
0
3DFACE
8
0
10
-259.500000
20
355.000000
30
0.000000
11
-259.500000
21
324.796997
31
-4.000000
12
-259.500000
22
324.796997
32
0.000000
13
-259.500000
23
324.796997
33
0.000000
0
3DFACE
8
0
10
263.500000
20
355.000000
30
-4.000000
11
-259.500000
21
355.000000
31
0.000000
12
263.500000
22
355.000000
32
0.000000
13
263.500000
23
355.000000
33
0.000000
0
3DFACE
8
0
10
263.500000
20
355.000000
30
-4.000000
11
-259.500000
21
355.000000
31
-4.000000
12
-259.500000
22
355.000000
32
0.000000
13
-259.500000
23
355.000000
33
0.000000
0
3DFACE
8
0
10
263.500000
20
-355.000000
30
-4.000000
11
263.500000
21
-355.000000
31
0.000000
12
-259.500000
22
-355.000000
32
0.000000
13
-259.500000
23
-355.000000
33
0.000000
0
3DFACE
8
0
10
263.500000
20
-355.000000
30
-4.000000
11
-259.500000
21
-355.000000
31
0.000000
12
-259.500000
22
-355.000000
32
-4.000000
13
-259.500000
23
-355.000000
33
-4.000000
0
3DFACE
8
0
10
-259.500000
20
-324.796997
30
0.000000
11
-259.500000
21
-324.796997
31
-4.000000
12
-259.500000
22
-355.000000
32
-4.000000
13
-259.500000
23
-355.000000
33
-4.000000
0
3DFACE
8
0
10
-259.500000
20
-324.796997
30
0.000000
11
-259.500000
21
-355.000000
31
-4.000000
12
-259.500000
22
-355.000000
32
0.000000
13
-259.500000
23
-355.000000
33
0.000000
0
3DFACE
8
0
10
-319.796997
20
-264.500000
30
-4.000000
11
-259.500000
21
-324.796997
31
0.000000
12
-319.796997
22
-264.500000
32
0.000000
13
-319.796997
23
-264.500000
33
0.000000
0
3DFACE
8
0
10
-319.796997
20
-264.500000
30
-4.000000
11
-259.500000
21
-324.796997
31
-4.000000
12
-259.500000
22
-324.796997
32
0.000000
13
-259.500000
23
-324.796997
33
0.000000
0
3DFACE
8
0
10
-319.796997
20
-264.500000
30
-4.000000
11
-319.796997
21
-264.500000
31
0.000000
12
-348.000000
22
-264.500000
32
0.000000
13
-348.000000
23
-264.500000
33
0.000000
0
3DFACE
8
0
10
-319.796997
20
-264.500000
30
-4.000000
11
-348.000000
21
-264.500000
31
0.000000
12
-348.000000
22
-264.500000
32
-4.000000
13
-348.000000
23
-264.500000
33
-4.000000
0
3DFACE
8
0
10
-348.000000
20
264.500000
30
-4.000000
11
-348.000000
21
-264.500000
31
-4.000000
12
-348.000000
22
-264.500000
32
0.000000
13
-348.000000
23
-264.500000
33
0.000000
0
3DFACE
8
0
10
-348.000000
20
264.500000
30
0.000000
11
-348.000000
21
264.500000
31
-4.000000
12
-348.000000
22
-264.500000
32
0.000000
13
-348.000000
23
-264.500000
33
0.000000
0
3DFACE
8
0
10
-333.750000
20
-254.500000
30
-4.000000
11
-333.923004
21
-255.259003
31
-4.000000
12
-333.750000
22
-254.500000
32
0.000000
13
-333.750000
23
-254.500000
33
0.000000
0
3DFACE
8
0
10
-333.750000
20
-254.500000
30
0.000000
11
-333.923004
21
-255.259003
31
-4.000000
12
-333.923004
22
-255.259003
32
0.000000
13
-333.923004
23
-255.259003
33
0.000000
0
3DFACE
8
0
10
-333.923004
20
-255.259003
30
0.000000
11
-334.408997
21
-255.867996
31
-4.000000
12
-334.408997
22
-255.867996
32
0.000000
13
-334.408997
23
-255.867996
33
0.000000
0
3DFACE
8
0
10
-333.923004
20
-255.259003
30
-4.000000
11
-334.408997
21
-255.867996
31
-4.000000
12
-333.923004
22
-255.259003
32
0.000000
13
-333.923004
23
-255.259003
33
0.000000
0
3DFACE
8
0
10
-334.408997
20
-255.867996
30
0.000000
11
-335.110992
21
-256.205994
31
-4.000000
12
-335.110992
22
-256.205994
32
0.000000
13
-335.110992
23
-256.205994
33
0.000000
0
3DFACE
8
0
10
-334.408997
20
-255.867996
30
-4.000000
11
-335.110992
21
-256.205994
31
-4.000000
12
-334.408997
22
-255.867996
32
0.000000
13
-334.408997
23
-255.867996
33
0.000000
0
3DFACE
8
0
10
-335.110992
20
-256.205994
30
0.000000
11
-335.889008
21
-256.205994
31
-4.000000
12
-335.889008
22
-256.205994
32
0.000000
13
-335.889008
23
-256.205994
33
0.000000
0
3DFACE
8
0
10
-335.110992
20
-256.205994
30
-4.000000
11
-335.889008
21
-256.205994
31
-4.000000
12
-335.110992
22
-256.205994
32
0.000000
13
-335.110992
23
-256.205994
33
0.000000
0
3DFACE
8
0
10
-335.889008
20
-256.205994
30
0.000000
11
-336.591003
21
-255.867996
31
-4.000000
12
-336.591003
22
-255.867996
32
0.000000
13
-336.591003
23
-255.867996
33
0.000000
0
3DFACE
8
0
10
-335.889008
20
-256.205994
30
-4.000000
11
-336.591003
21
-255.867996
31
-4.000000
12
-335.889008
22
-256.205994
32
0.000000
13
-335.889008
23
-256.205994
33
0.000000
0
3DFACE
8
0
10
-336.591003
20
-255.867996
30
0.000000
11
-337.076996
21
-255.259003
31
-4.000000
12
-337.076996
22
-255.259003
32
0.000000
13
-337.076996
23
-255.259003
33
0.000000
0
3DFACE
8
0
10
-337.076996
20
-255.259003
30
0.000000
11
-337.076996
21
-255.259003
31
-4.000000
12
-337.250000
22
-254.500000
32
0.000000
13
-337.250000
23
-254.500000
33
0.000000
0
3DFACE
8
0
10
-336.591003
20
-255.867996
30
-4.000000
11
-337.076996
21
-255.259003
31
-4.000000
12
-336.591003
22
-255.867996
32
0.000000
13
-336.591003
23
-255.867996
33
0.000000
0
3DFACE
8
0
10
-337.076996
20
-255.259003
30
-4.000000
11
-337.250000
21
-254.500000
31
-4.000000
12
-337.250000
22
-254.500000
32
0.000000
13
-337.250000
23
-254.500000
33
0.000000
0
3DFACE
8
0
10
-333.750000
20
-214.500000
30
-4.000000
11
-333.923004
21
-215.259003
31
-4.000000
12
-333.750000
22
-214.500000
32
0.000000
13
-333.750000
23
-214.500000
33
0.000000
0
3DFACE
8
0
10
-333.750000
20
-214.500000
30
0.000000
11
-333.923004
21
-215.259003
31
-4.000000
12
-333.923004
22
-215.259003
32
0.000000
13
-333.923004
23
-215.259003
33
0.000000
0
3DFACE
8
0
10
-333.923004
20
-215.259003
30
0.000000
11
-334.408997
21
-215.867996
31
-4.000000
12
-334.408997
22
-215.867996
32
0.000000
13
-334.408997
23
-215.867996
33
0.000000
0
3DFACE
8
0
10
-333.923004
20
-215.259003
30
-4.000000
11
-334.408997
21
-215.867996
31
-4.000000
12
-333.923004
22
-215.259003
32
0.000000
13
-333.923004
23
-215.259003
33
0.000000
0
3DFACE
8
0
10
-334.408997
20
-215.867996
30
0.000000
11
-335.110992
21
-216.205994
31
-4.000000
12
-335.110992
22
-216.205994
32
0.000000
13
-335.110992
23
-216.205994
33
0.000000
0
3DFACE
8
0
10
-334.408997
20
-215.867996
30
-4.000000
11
-335.110992
21
-216.205994
31
-4.000000
12
-334.408997
22
-215.867996
32
0.000000
13
-334.408997
23
-215.867996
33
0.000000
0
3DFACE
8
0
10
-335.110992
20
-216.205994
30
0.000000
11
-335.889008
21
-216.205994
31
-4.000000
12
-335.889008
22
-216.205994
32
0.000000
13
-335.889008
23
-216.205994
33
0.000000
0
3DFACE
8
0
10
-335.110992
20
-216.205994
30
-4.000000
11
-335.889008
21
-216.205994
31
-4.000000
12
-335.110992
22
-216.205994
32
0.000000
13
-335.110992
23
-216.205994
33
0.000000
0
3DFACE
8
0
10
-335.889008
20
-216.205994
30
0.000000
11
-336.591003
21
-215.867996
31
-4.000000
12
-336.591003
22
-215.867996
32
0.000000
13
-336.591003
23
-215.867996
33
0.000000
0
3DFACE
8
0
10
-335.889008
20
-216.205994
30
-4.000000
11
-336.591003
21
-215.867996
31
-4.000000
12
-335.889008
22
-216.205994
32
0.000000
13
-335.889008
23
-216.205994
33
0.000000
0
3DFACE
8
0
10
-336.591003
20
-215.867996
30
0.000000
11
-337.076996
21
-215.259003
31
-4.000000
12
-337.076996
22
-215.259003
32
0.000000
13
-337.076996
23
-215.259003
33
0.000000
0
3DFACE
8
0
10
-337.076996
20
-215.259003
30
0.000000
11
-337.076996
21
-215.259003
31
-4.000000
12
-337.250000
22
-214.500000
32
0.000000
13
-337.250000
23
-214.500000
33
0.000000
0
3DFACE
8
0
10
-336.591003
20
-215.867996
30
-4.000000
11
-337.076996
21
-215.259003
31
-4.000000
12
-336.591003
22
-215.867996
32
0.000000
13
-336.591003
23
-215.867996
33
0.000000
0
3DFACE
8
0
10
-337.076996
20
-215.259003
30
-4.000000
11
-337.250000
21
-214.500000
31
-4.000000
12
-337.250000
22
-214.500000
32
0.000000
13
-337.250000
23
-214.500000
33
0.000000
0
3DFACE
8
0
10
-333.750000
20
234.500000
30
-4.000000
11
-333.923004
21
233.740997
31
-4.000000
12
-333.750000
22
234.500000
32
0.000000
13
-333.750000
23
234.500000
33
0.000000
0
3DFACE
8
0
10
-333.750000
20
234.500000
30
0.000000
11
-333.923004
21
233.740997
31
-4.000000
12
-333.923004
22
233.740997
32
0.000000
13
-333.923004
23
233.740997
33
0.000000
0
3DFACE
8
0
10
-333.923004
20
233.740997
30
0.000000
11
-334.408997
21
233.132004
31
-4.000000
12
-334.408997
22
233.132004
32
0.000000
13
-334.408997
23
233.132004
33
0.000000
0
3DFACE
8
0
10
-333.923004
20
233.740997
30
-4.000000
11
-334.408997
21
233.132004
31
-4.000000
12
-333.923004
22
233.740997
32
0.000000
13
-333.923004
23
233.740997
33
0.000000
0
3DFACE
8
0
10
-334.408997
20
233.132004
30
0.000000
11
-335.110992
21
232.794006
31
-4.000000
12
-335.110992
22
232.794006
32
0.000000
13
-335.110992
23
232.794006
33
0.000000
0
3DFACE
8
0
10
-334.408997
20
233.132004
30
-4.000000
11
-335.110992
21
232.794006
31
-4.000000
12
-334.408997
22
233.132004
32
0.000000
13
-334.408997
23
233.132004
33
0.000000
0
3DFACE
8
0
10
-335.110992
20
232.794006
30
0.000000
11
-335.889008
21
232.794006
31
-4.000000
12
-335.889008
22
232.794006
32
0.000000
13
-335.889008
23
232.794006
33
0.000000
0
3DFACE
8
0
10
-335.110992
20
232.794006
30
-4.000000
11
-335.889008
21
232.794006
31
-4.000000
12
-335.110992
22
232.794006
32
0.000000
13
-335.110992
23
232.794006
33
0.000000
0
3DFACE
8
0
10
-335.889008
20
232.794006
30
0.000000
11
-336.591003
21
233.132004
31
-4.000000
12
-336.591003
22
233.132004
32
0.000000
13
-336.591003
23
233.132004
33
0.000000
0
3DFACE
8
0
10
-335.889008
20
232.794006
30
-4.000000
11
-336.591003
21
233.132004
31
-4.000000
12
-335.889008
22
232.794006
32
0.000000
13
-335.889008
23
232.794006
33
0.000000
0
3DFACE
8
0
10
-336.591003
20
233.132004
30
0.000000
11
-337.076996
21
233.740997
31
-4.000000
12
-337.076996
22
233.740997
32
0.000000
13
-337.076996
23
233.740997
33
0.000000
0
3DFACE
8
0
10
-337.076996
20
233.740997
30
0.000000
11
-337.076996
21
233.740997
31
-4.000000
12
-337.250000
22
234.500000
32
0.000000
13
-337.250000
23
234.500000
33
0.000000
0
3DFACE
8
0
10
-336.591003
20
233.132004
30
-4.000000
11
-337.076996
21
233.740997
31
-4.000000
12
-336.591003
22
233.132004
32
0.000000
13
-336.591003
23
233.132004
33
0.000000
0
3DFACE
8
0
10
-337.076996
20
233.740997
30
-4.000000
11
-337.250000
21
234.500000
31
-4.000000
12
-337.250000
22
234.500000
32
0.000000
13
-337.250000
23
234.500000
33
0.000000
0
3DFACE
8
0
10
-333.750000
20
254.500000
30
-4.000000
11
-333.923004
21
253.740997
31
-4.000000
12
-333.750000
22
254.500000
32
0.000000
13
-333.750000
23
254.500000
33
0.000000
0
3DFACE
8
0
10
-333.750000
20
254.500000
30
0.000000
11
-333.923004
21
253.740997
31
-4.000000
12
-333.923004
22
253.740997
32
0.000000
13
-333.923004
23
253.740997
33
0.000000
0
3DFACE
8
0
10
-333.923004
20
253.740997
30
0.000000
11
-334.408997
21
253.132004
31
-4.000000
12
-334.408997
22
253.132004
32
0.000000
13
-334.408997
23
253.132004
33
0.000000
0
3DFACE
8
0
10
-333.923004
20
253.740997
30
-4.000000
11
-334.408997
21
253.132004
31
-4.000000
12
-333.923004
22
253.740997
32
0.000000
13
-333.923004
23
253.740997
33
0.000000
0
3DFACE
8
0
10
-334.408997
20
253.132004
30
0.000000
11
-335.110992
21
252.794006
31
-4.000000
12
-335.110992
22
252.794006
32
0.000000
13
-335.110992
23
252.794006
33
0.000000
0
3DFACE
8
0
10
-334.408997
20
253.132004
30
-4.000000
11
-335.110992
21
252.794006
31
-4.000000
12
-334.408997
22
253.132004
32
0.000000
13
-334.408997
23
253.132004
33
0.000000
0
3DFACE
8
0
10
-335.110992
20
252.794006
30
0.000000
11
-335.889008
21
252.794006
31
-4.000000
12
-335.889008
22
252.794006
32
0.000000
13
-335.889008
23
252.794006
33
0.000000
0
3DFACE
8
0
10
-335.110992
20
252.794006
30
-4.000000
11
-335.889008
21
252.794006
31
-4.000000
12
-335.110992
22
252.794006
32
0.000000
13
-335.110992
23
252.794006
33
0.000000
0
3DFACE
8
0
10
-335.889008
20
252.794006
30
0.000000
11
-336.591003
21
253.132004
31
-4.000000
12
-336.591003
22
253.132004
32
0.000000
13
-336.591003
23
253.132004
33
0.000000
0
3DFACE
8
0
10
-335.889008
20
252.794006
30
-4.000000
11
-336.591003
21
253.132004
31
-4.000000
12
-335.889008
22
252.794006
32
0.000000
13
-335.889008
23
252.794006
33
0.000000
0
3DFACE
8
0
10
-336.591003
20
253.132004
30
0.000000
11
-337.076996
21
253.740997
31
-4.000000
12
-337.076996
22
253.740997
32
0.000000
13
-337.076996
23
253.740997
33
0.000000
0
3DFACE
8
0
10
-337.076996
20
253.740997
30
0.000000
11
-337.076996
21
253.740997
31
-4.000000
12
-337.250000
22
254.500000
32
0.000000
13
-337.250000
23
254.500000
33
0.000000
0
3DFACE
8
0
10
-336.591003
20
253.132004
30
-4.000000
11
-337.076996
21
253.740997
31
-4.000000
12
-336.591003
22
253.132004
32
0.000000
13
-336.591003
23
253.132004
33
0.000000
0
3DFACE
8
0
10
-337.076996
20
253.740997
30
-4.000000
11
-337.250000
21
254.500000
31
-4.000000
12
-337.250000
22
254.500000
32
0.000000
13
-337.250000
23
254.500000
33
0.000000
0
3DFACE
8
0
10
-333.750000
20
214.500000
30
-4.000000
11
-333.923004
21
213.740997
31
-4.000000
12
-333.750000
22
214.500000
32
0.000000
13
-333.750000
23
214.500000
33
0.000000
0
3DFACE
8
0
10
-333.750000
20
214.500000
30
0.000000
11
-333.923004
21
213.740997
31
-4.000000
12
-333.923004
22
213.740997
32
0.000000
13
-333.923004
23
213.740997
33
0.000000
0
3DFACE
8
0
10
-333.923004
20
213.740997
30
0.000000
11
-334.408997
21
213.132004
31
-4.000000
12
-334.408997
22
213.132004
32
0.000000
13
-334.408997
23
213.132004
33
0.000000
0
3DFACE
8
0
10
-333.923004
20
213.740997
30
-4.000000
11
-334.408997
21
213.132004
31
-4.000000
12
-333.923004
22
213.740997
32
0.000000
13
-333.923004
23
213.740997
33
0.000000
0
3DFACE
8
0
10
-334.408997
20
213.132004
30
0.000000
11
-335.110992
21
212.794006
31
-4.000000
12
-335.110992
22
212.794006
32
0.000000
13
-335.110992
23
212.794006
33
0.000000
0
3DFACE
8
0
10
-334.408997
20
213.132004
30
-4.000000
11
-335.110992
21
212.794006
31
-4.000000
12
-334.408997
22
213.132004
32
0.000000
13
-334.408997
23
213.132004
33
0.000000
0
3DFACE
8
0
10
-335.110992
20
212.794006
30
0.000000
11
-335.889008
21
212.794006
31
-4.000000
12
-335.889008
22
212.794006
32
0.000000
13
-335.889008
23
212.794006
33
0.000000
0
3DFACE
8
0
10
-335.110992
20
212.794006
30
-4.000000
11
-335.889008
21
212.794006
31
-4.000000
12
-335.110992
22
212.794006
32
0.000000
13
-335.110992
23
212.794006
33
0.000000
0
3DFACE
8
0
10
-335.889008
20
212.794006
30
0.000000
11
-336.591003
21
213.132004
31
-4.000000
12
-336.591003
22
213.132004
32
0.000000
13
-336.591003
23
213.132004
33
0.000000
0
3DFACE
8
0
10
-335.889008
20
212.794006
30
-4.000000
11
-336.591003
21
213.132004
31
-4.000000
12
-335.889008
22
212.794006
32
0.000000
13
-335.889008
23
212.794006
33
0.000000
0
3DFACE
8
0
10
-336.591003
20
213.132004
30
0.000000
11
-337.076996
21
213.740997
31
-4.000000
12
-337.076996
22
213.740997
32
0.000000
13
-337.076996
23
213.740997
33
0.000000
0
3DFACE
8
0
10
-337.076996
20
213.740997
30
0.000000
11
-337.076996
21
213.740997
31
-4.000000
12
-337.250000
22
214.500000
32
0.000000
13
-337.250000
23
214.500000
33
0.000000
0
3DFACE
8
0
10
-336.591003
20
213.132004
30
-4.000000
11
-337.076996
21
213.740997
31
-4.000000
12
-336.591003
22
213.132004
32
0.000000
13
-336.591003
23
213.132004
33
0.000000
0
3DFACE
8
0
10
-337.076996
20
213.740997
30
-4.000000
11
-337.250000
21
214.500000
31
-4.000000
12
-337.250000
22
214.500000
32
0.000000
13
-337.250000
23
214.500000
33
0.000000
0
3DFACE
8
0
10
-333.750000
20
-234.500000
30
-4.000000
11
-333.923004
21
-235.259003
31
-4.000000
12
-333.750000
22
-234.500000
32
0.000000
13
-333.750000
23
-234.500000
33
0.000000
0
3DFACE
8
0
10
-333.750000
20
-234.500000
30
0.000000
11
-333.923004
21
-235.259003
31
-4.000000
12
-333.923004
22
-235.259003
32
0.000000
13
-333.923004
23
-235.259003
33
0.000000
0
3DFACE
8
0
10
-333.923004
20
-235.259003
30
0.000000
11
-334.408997
21
-235.867996
31
-4.000000
12
-334.408997
22
-235.867996
32
0.000000
13
-334.408997
23
-235.867996
33
0.000000
0
3DFACE
8
0
10
-333.923004
20
-235.259003
30
-4.000000
11
-334.408997
21
-235.867996
31
-4.000000
12
-333.923004
22
-235.259003
32
0.000000
13
-333.923004
23
-235.259003
33
0.000000
0
3DFACE
8
0
10
-334.408997
20
-235.867996
30
0.000000
11
-335.110992
21
-236.205994
31
-4.000000
12
-335.110992
22
-236.205994
32
0.000000
13
-335.110992
23
-236.205994
33
0.000000
0
3DFACE
8
0
10
-334.408997
20
-235.867996
30
-4.000000
11
-335.110992
21
-236.205994
31
-4.000000
12
-334.408997
22
-235.867996
32
0.000000
13
-334.408997
23
-235.867996
33
0.000000
0
3DFACE
8
0
10
-335.110992
20
-236.205994
30
0.000000
11
-335.889008
21
-236.205994
31
-4.000000
12
-335.889008
22
-236.205994
32
0.000000
13
-335.889008
23
-236.205994
33
0.000000
0
3DFACE
8
0
10
-335.110992
20
-236.205994
30
-4.000000
11
-335.889008
21
-236.205994
31
-4.000000
12
-335.110992
22
-236.205994
32
0.000000
13
-335.110992
23
-236.205994
33
0.000000
0
3DFACE
8
0
10
-335.889008
20
-236.205994
30
0.000000
11
-336.591003
21
-235.867996
31
-4.000000
12
-336.591003
22
-235.867996
32
0.000000
13
-336.591003
23
-235.867996
33
0.000000
0
3DFACE
8
0
10
-335.889008
20
-236.205994
30
-4.000000
11
-336.591003
21
-235.867996
31
-4.000000
12
-335.889008
22
-236.205994
32
0.000000
13
-335.889008
23
-236.205994
33
0.000000
0
3DFACE
8
0
10
-336.591003
20
-235.867996
30
0.000000
11
-337.076996
21
-235.259003
31
-4.000000
12
-337.076996
22
-235.259003
32
0.000000
13
-337.076996
23
-235.259003
33
0.000000
0
3DFACE
8
0
10
-337.076996
20
-235.259003
30
0.000000
11
-337.076996
21
-235.259003
31
-4.000000
12
-337.250000
22
-234.500000
32
0.000000
13
-337.250000
23
-234.500000
33
0.000000
0
3DFACE
8
0
10
-336.591003
20
-235.867996
30
-4.000000
11
-337.076996
21
-235.259003
31
-4.000000
12
-336.591003
22
-235.867996
32
0.000000
13
-336.591003
23
-235.867996
33
0.000000
0
3DFACE
8
0
10
-337.076996
20
-235.259003
30
-4.000000
11
-337.250000
21
-234.500000
31
-4.000000
12
-337.250000
22
-234.500000
32
0.000000
13
-337.250000
23
-234.500000
33
0.000000
0
3DFACE
8
0
10
323.796997
20
264.500000
30
-4.000000
11
352.000000
21
264.500000
31
0.000000
12
352.000000
22
264.500000
32
-4.000000
13
352.000000
23
264.500000
33
-4.000000
0
3DFACE
8
0
10
323.796997
20
264.500000
30
0.000000
11
352.000000
21
264.500000
31
0.000000
12
323.796997
22
264.500000
32
-4.000000
13
323.796997
23
264.500000
33
-4.000000
0
3DFACE
8
0
10
323.796997
20
264.500000
30
0.000000
11
323.796997
21
264.500000
31
-4.000000
12
263.500000
22
324.796997
32
-4.000000
13
263.500000
23
324.796997
33
-4.000000
0
3DFACE
8
0
10
323.796997
20
264.500000
30
0.000000
11
263.500000
21
324.796997
31
-4.000000
12
263.500000
22
324.796997
32
0.000000
13
263.500000
23
324.796997
33
0.000000
0
3DFACE
8
0
10
263.500000
20
324.796997
30
0.000000
11
263.500000
21
324.796997
31
-4.000000
12
263.500000
22
355.000000
32
-4.000000
13
263.500000
23
355.000000
33
-4.000000
0
3DFACE
8
0
10
263.500000
20
324.796997
30
0.000000
11
263.500000
21
355.000000
31
-4.000000
12
263.500000
22
355.000000
32
0.000000
13
263.500000
23
355.000000
33
0.000000
0
3DFACE
8
0
10
263.500000
20
-355.000000
30
0.000000
11
263.500000
21
-355.000000
31
-4.000000
12
263.500000
22
-324.796997
32
-4.000000
13
263.500000
23
-324.796997
33
-4.000000
0
3DFACE
8
0
10
263.500000
20
-355.000000
30
0.000000
11
263.500000
21
-324.796997
31
-4.000000
12
263.500000
22
-324.796997
32
0.000000
13
263.500000
23
-324.796997
33
0.000000
0
3DFACE
8
0
10
323.796997
20
-264.500000
30
-4.000000
11
263.500000
21
-324.796997
31
0.000000
12
263.500000
22
-324.796997
32
-4.000000
13
263.500000
23
-324.796997
33
-4.000000
0
3DFACE
8
0
10
323.796997
20
-264.500000
30
0.000000
11
263.500000
21
-324.796997
31
0.000000
12
323.796997
22
-264.500000
32
-4.000000
13
323.796997
23
-264.500000
33
-4.000000
0
3DFACE
8
0
10
352.000000
20
-264.500000
30
-4.000000
11
352.000000
21
-264.500000
31
0.000000
12
323.796997
22
-264.500000
32
0.000000
13
323.796997
23
-264.500000
33
0.000000
0
3DFACE
8
0
10
352.000000
20
-264.500000
30
-4.000000
11
323.796997
21
-264.500000
31
0.000000
12
323.796997
22
-264.500000
32
-4.000000
13
323.796997
23
-264.500000
33
-4.000000
0
3DFACE
8
0
10
352.000000
20
-264.500000
30
-4.000000
11
352.000000
21
264.500000
31
-4.000000
12
352.000000
22
264.500000
32
0.000000
13
352.000000
23
264.500000
33
0.000000
0
3DFACE
8
0
10
352.000000
20
-264.500000
30
0.000000
11
352.000000
21
-264.500000
31
-4.000000
12
352.000000
22
264.500000
32
0.000000
13
352.000000
23
264.500000
33
0.000000
0
ENDSEC
0
EOF
