999
Created by ADMesh version 0.98.3
0
SECTION
2
HEADER
0
ENDSEC
0
SECTION
2
TABLES
0
TABLE
2
LAYER
70
1
0
LAYER
2
0
70
0
62
7
6
CONTINUOUS
0
ENDTAB
0
ENDSEC
0
SECTION
2
BLOCKS
0
ENDSEC
0
SECTION
2
ENTITIES
0
3DFACE
8
0
10
287.200012
20
245.000000
30
-4.000000
11
287.527008
21
246.432007
31
-4.000000
12
287.200012
22
245.000000
32
0.000000
13
287.200012
23
245.000000
33
0.000000
0
3DFACE
8
0
10
287.200012
20
245.000000
30
0.000000
11
287.527008
21
246.432007
31
-4.000000
12
287.527008
22
246.432007
32
0.000000
13
287.527008
23
246.432007
33
0.000000
0
3DFACE
8
0
10
287.527008
20
246.432007
30
0.000000
11
288.441986
21
247.580002
31
-4.000000
12
288.441986
22
247.580002
32
0.000000
13
288.441986
23
247.580002
33
0.000000
0
3DFACE
8
0
10
287.527008
20
246.432007
30
-4.000000
11
288.441986
21
247.580002
31
-4.000000
12
287.527008
22
246.432007
32
0.000000
13
287.527008
23
246.432007
33
0.000000
0
3DFACE
8
0
10
288.441986
20
247.580002
30
0.000000
11
289.765991
21
248.216995
31
-4.000000
12
289.765991
22
248.216995
32
0.000000
13
289.765991
23
248.216995
33
0.000000
0
3DFACE
8
0
10
288.441986
20
247.580002
30
-4.000000
11
289.765991
21
248.216995
31
-4.000000
12
288.441986
22
247.580002
32
0.000000
13
288.441986
23
247.580002
33
0.000000
0
3DFACE
8
0
10
289.765991
20
248.216995
30
0.000000
11
291.234009
21
248.216995
31
-4.000000
12
291.234009
22
248.216995
32
0.000000
13
291.234009
23
248.216995
33
0.000000
0
3DFACE
8
0
10
289.765991
20
248.216995
30
-4.000000
11
291.234009
21
248.216995
31
-4.000000
12
289.765991
22
248.216995
32
0.000000
13
289.765991
23
248.216995
33
0.000000
0
3DFACE
8
0
10
291.234009
20
248.216995
30
0.000000
11
292.558014
21
247.580002
31
-4.000000
12
292.558014
22
247.580002
32
0.000000
13
292.558014
23
247.580002
33
0.000000
0
3DFACE
8
0
10
291.234009
20
248.216995
30
-4.000000
11
292.558014
21
247.580002
31
-4.000000
12
291.234009
22
248.216995
32
0.000000
13
291.234009
23
248.216995
33
0.000000
0
3DFACE
8
0
10
292.558014
20
247.580002
30
0.000000
11
293.472992
21
246.432007
31
-4.000000
12
293.472992
22
246.432007
32
0.000000
13
293.472992
23
246.432007
33
0.000000
0
3DFACE
8
0
10
293.472992
20
246.432007
30
0.000000
11
293.472992
21
246.432007
31
-4.000000
12
293.799988
22
245.000000
32
0.000000
13
293.799988
23
245.000000
33
0.000000
0
3DFACE
8
0
10
292.558014
20
247.580002
30
-4.000000
11
293.472992
21
246.432007
31
-4.000000
12
292.558014
22
247.580002
32
0.000000
13
292.558014
23
247.580002
33
0.000000
0
3DFACE
8
0
10
293.472992
20
246.432007
30
-4.000000
11
293.799988
21
245.000000
31
-4.000000
12
293.799988
22
245.000000
32
0.000000
13
293.799988
23
245.000000
33
0.000000
0
3DFACE
8
0
10
-370.799988
20
189.500000
30
-4.000000
11
-370.472992
21
190.932007
31
-4.000000
12
-370.799988
22
189.500000
32
0.000000
13
-370.799988
23
189.500000
33
0.000000
0
3DFACE
8
0
10
-370.799988
20
189.500000
30
0.000000
11
-370.472992
21
190.932007
31
-4.000000
12
-370.472992
22
190.932007
32
0.000000
13
-370.472992
23
190.932007
33
0.000000
0
3DFACE
8
0
10
-370.472992
20
190.932007
30
0.000000
11
-369.558014
21
192.080002
31
-4.000000
12
-369.558014
22
192.080002
32
0.000000
13
-369.558014
23
192.080002
33
0.000000
0
3DFACE
8
0
10
-370.472992
20
190.932007
30
-4.000000
11
-369.558014
21
192.080002
31
-4.000000
12
-370.472992
22
190.932007
32
0.000000
13
-370.472992
23
190.932007
33
0.000000
0
3DFACE
8
0
10
-369.558014
20
192.080002
30
0.000000
11
-368.234009
21
192.716995
31
-4.000000
12
-368.234009
22
192.716995
32
0.000000
13
-368.234009
23
192.716995
33
0.000000
0
3DFACE
8
0
10
-369.558014
20
192.080002
30
-4.000000
11
-368.234009
21
192.716995
31
-4.000000
12
-369.558014
22
192.080002
32
0.000000
13
-369.558014
23
192.080002
33
0.000000
0
3DFACE
8
0
10
-368.234009
20
192.716995
30
0.000000
11
-366.765991
21
192.716995
31
-4.000000
12
-366.765991
22
192.716995
32
0.000000
13
-366.765991
23
192.716995
33
0.000000
0
3DFACE
8
0
10
-368.234009
20
192.716995
30
-4.000000
11
-366.765991
21
192.716995
31
-4.000000
12
-368.234009
22
192.716995
32
0.000000
13
-368.234009
23
192.716995
33
0.000000
0
3DFACE
8
0
10
-366.765991
20
192.716995
30
0.000000
11
-365.441986
21
192.080002
31
-4.000000
12
-365.441986
22
192.080002
32
0.000000
13
-365.441986
23
192.080002
33
0.000000
0
3DFACE
8
0
10
-366.765991
20
192.716995
30
-4.000000
11
-365.441986
21
192.080002
31
-4.000000
12
-366.765991
22
192.716995
32
0.000000
13
-366.765991
23
192.716995
33
0.000000
0
3DFACE
8
0
10
-365.441986
20
192.080002
30
0.000000
11
-364.527008
21
190.932007
31
-4.000000
12
-364.527008
22
190.932007
32
0.000000
13
-364.527008
23
190.932007
33
0.000000
0
3DFACE
8
0
10
-364.527008
20
190.932007
30
0.000000
11
-364.527008
21
190.932007
31
-4.000000
12
-364.200012
22
189.500000
32
0.000000
13
-364.200012
23
189.500000
33
0.000000
0
3DFACE
8
0
10
-365.441986
20
192.080002
30
-4.000000
11
-364.527008
21
190.932007
31
-4.000000
12
-365.441986
22
192.080002
32
0.000000
13
-365.441986
23
192.080002
33
0.000000
0
3DFACE
8
0
10
-364.527008
20
190.932007
30
-4.000000
11
-364.200012
21
189.500000
31
-4.000000
12
-364.200012
22
189.500000
32
0.000000
13
-364.200012
23
189.500000
33
0.000000
0
3DFACE
8
0
10
-275.799988
20
-340.000000
30
-4.000000
11
-275.472992
21
-338.567993
31
-4.000000
12
-275.799988
22
-340.000000
32
0.000000
13
-275.799988
23
-340.000000
33
0.000000
0
3DFACE
8
0
10
-275.799988
20
-340.000000
30
0.000000
11
-275.472992
21
-338.567993
31
-4.000000
12
-275.472992
22
-338.567993
32
0.000000
13
-275.472992
23
-338.567993
33
0.000000
0
3DFACE
8
0
10
-275.472992
20
-338.567993
30
0.000000
11
-274.558014
21
-337.420013
31
-4.000000
12
-274.558014
22
-337.420013
32
0.000000
13
-274.558014
23
-337.420013
33
0.000000
0
3DFACE
8
0
10
-275.472992
20
-338.567993
30
-4.000000
11
-274.558014
21
-337.420013
31
-4.000000
12
-275.472992
22
-338.567993
32
0.000000
13
-275.472992
23
-338.567993
33
0.000000
0
3DFACE
8
0
10
-274.558014
20
-337.420013
30
0.000000
11
-273.234009
21
-336.782990
31
-4.000000
12
-273.234009
22
-336.782990
32
0.000000
13
-273.234009
23
-336.782990
33
0.000000
0
3DFACE
8
0
10
-274.558014
20
-337.420013
30
-4.000000
11
-273.234009
21
-336.782990
31
-4.000000
12
-274.558014
22
-337.420013
32
0.000000
13
-274.558014
23
-337.420013
33
0.000000
0
3DFACE
8
0
10
-273.234009
20
-336.782990
30
0.000000
11
-271.765991
21
-336.782990
31
-4.000000
12
-271.765991
22
-336.782990
32
0.000000
13
-271.765991
23
-336.782990
33
0.000000
0
3DFACE
8
0
10
-273.234009
20
-336.782990
30
-4.000000
11
-271.765991
21
-336.782990
31
-4.000000
12
-273.234009
22
-336.782990
32
0.000000
13
-273.234009
23
-336.782990
33
0.000000
0
3DFACE
8
0
10
-271.765991
20
-336.782990
30
0.000000
11
-270.441986
21
-337.420013
31
-4.000000
12
-270.441986
22
-337.420013
32
0.000000
13
-270.441986
23
-337.420013
33
0.000000
0
3DFACE
8
0
10
-271.765991
20
-336.782990
30
-4.000000
11
-270.441986
21
-337.420013
31
-4.000000
12
-271.765991
22
-336.782990
32
0.000000
13
-271.765991
23
-336.782990
33
0.000000
0
3DFACE
8
0
10
-270.441986
20
-337.420013
30
0.000000
11
-269.527008
21
-338.567993
31
-4.000000
12
-269.527008
22
-338.567993
32
0.000000
13
-269.527008
23
-338.567993
33
0.000000
0
3DFACE
8
0
10
-269.527008
20
-338.567993
30
0.000000
11
-269.527008
21
-338.567993
31
-4.000000
12
-269.200012
22
-340.000000
32
0.000000
13
-269.200012
23
-340.000000
33
0.000000
0
3DFACE
8
0
10
-270.441986
20
-337.420013
30
-4.000000
11
-269.527008
21
-338.567993
31
-4.000000
12
-270.441986
22
-337.420013
32
0.000000
13
-270.441986
23
-337.420013
33
0.000000
0
3DFACE
8
0
10
-269.527008
20
-338.567993
30
-4.000000
11
-269.200012
21
-340.000000
31
-4.000000
12
-269.200012
22
-340.000000
32
0.000000
13
-269.200012
23
-340.000000
33
0.000000
0
3DFACE
8
0
10
269.200012
20
-340.000000
30
-4.000000
11
269.527008
21
-338.567993
31
-4.000000
12
269.200012
22
-340.000000
32
0.000000
13
269.200012
23
-340.000000
33
0.000000
0
3DFACE
8
0
10
269.200012
20
-340.000000
30
0.000000
11
269.527008
21
-338.567993
31
-4.000000
12
269.527008
22
-338.567993
32
0.000000
13
269.527008
23
-338.567993
33
0.000000
0
3DFACE
8
0
10
269.527008
20
-338.567993
30
0.000000
11
270.441986
21
-337.420013
31
-4.000000
12
270.441986
22
-337.420013
32
0.000000
13
270.441986
23
-337.420013
33
0.000000
0
3DFACE
8
0
10
269.527008
20
-338.567993
30
-4.000000
11
270.441986
21
-337.420013
31
-4.000000
12
269.527008
22
-338.567993
32
0.000000
13
269.527008
23
-338.567993
33
0.000000
0
3DFACE
8
0
10
270.441986
20
-337.420013
30
0.000000
11
271.765991
21
-336.782990
31
-4.000000
12
271.765991
22
-336.782990
32
0.000000
13
271.765991
23
-336.782990
33
0.000000
0
3DFACE
8
0
10
270.441986
20
-337.420013
30
-4.000000
11
271.765991
21
-336.782990
31
-4.000000
12
270.441986
22
-337.420013
32
0.000000
13
270.441986
23
-337.420013
33
0.000000
0
3DFACE
8
0
10
271.765991
20
-336.782990
30
0.000000
11
273.234009
21
-336.782990
31
-4.000000
12
273.234009
22
-336.782990
32
0.000000
13
273.234009
23
-336.782990
33
0.000000
0
3DFACE
8
0
10
271.765991
20
-336.782990
30
-4.000000
11
273.234009
21
-336.782990
31
-4.000000
12
271.765991
22
-336.782990
32
0.000000
13
271.765991
23
-336.782990
33
0.000000
0
3DFACE
8
0
10
273.234009
20
-336.782990
30
0.000000
11
274.558014
21
-337.420013
31
-4.000000
12
274.558014
22
-337.420013
32
0.000000
13
274.558014
23
-337.420013
33
0.000000
0
3DFACE
8
0
10
273.234009
20
-336.782990
30
-4.000000
11
274.558014
21
-337.420013
31
-4.000000
12
273.234009
22
-336.782990
32
0.000000
13
273.234009
23
-336.782990
33
0.000000
0
3DFACE
8
0
10
274.558014
20
-337.420013
30
0.000000
11
275.472992
21
-338.567993
31
-4.000000
12
275.472992
22
-338.567993
32
0.000000
13
275.472992
23
-338.567993
33
0.000000
0
3DFACE
8
0
10
275.472992
20
-338.567993
30
0.000000
11
275.472992
21
-338.567993
31
-4.000000
12
275.799988
22
-340.000000
32
0.000000
13
275.799988
23
-340.000000
33
0.000000
0
3DFACE
8
0
10
274.558014
20
-337.420013
30
-4.000000
11
275.472992
21
-338.567993
31
-4.000000
12
274.558014
22
-337.420013
32
0.000000
13
274.558014
23
-337.420013
33
0.000000
0
3DFACE
8
0
10
275.472992
20
-338.567993
30
-4.000000
11
275.799988
21
-340.000000
31
-4.000000
12
275.799988
22
-340.000000
32
0.000000
13
275.799988
23
-340.000000
33
0.000000
0
3DFACE
8
0
10
364.200012
20
0.000000
30
-4.000000
11
364.527008
21
1.431800
31
-4.000000
12
364.200012
22
0.000000
32
0.000000
13
364.200012
23
0.000000
33
0.000000
0
3DFACE
8
0
10
364.200012
20
0.000000
30
0.000000
11
364.527008
21
1.431800
31
-4.000000
12
364.527008
22
1.431800
32
0.000000
13
364.527008
23
1.431800
33
0.000000
0
3DFACE
8
0
10
364.527008
20
1.431800
30
0.000000
11
365.441986
21
2.580000
31
-4.000000
12
365.441986
22
2.580000
32
0.000000
13
365.441986
23
2.580000
33
0.000000
0
3DFACE
8
0
10
364.527008
20
1.431800
30
-4.000000
11
365.441986
21
2.580000
31
-4.000000
12
364.527008
22
1.431800
32
0.000000
13
364.527008
23
1.431800
33
0.000000
0
3DFACE
8
0
10
365.441986
20
2.580000
30
0.000000
11
366.765991
21
3.217300
31
-4.000000
12
366.765991
22
3.217300
32
0.000000
13
366.765991
23
3.217300
33
0.000000
0
3DFACE
8
0
10
365.441986
20
2.580000
30
-4.000000
11
366.765991
21
3.217300
31
-4.000000
12
365.441986
22
2.580000
32
0.000000
13
365.441986
23
2.580000
33
0.000000
0
3DFACE
8
0
10
366.765991
20
3.217300
30
0.000000
11
368.234009
21
3.217300
31
-4.000000
12
368.234009
22
3.217300
32
0.000000
13
368.234009
23
3.217300
33
0.000000
0
3DFACE
8
0
10
366.765991
20
3.217300
30
-4.000000
11
368.234009
21
3.217300
31
-4.000000
12
366.765991
22
3.217300
32
0.000000
13
366.765991
23
3.217300
33
0.000000
0
3DFACE
8
0
10
368.234009
20
3.217300
30
0.000000
11
369.558014
21
2.580000
31
-4.000000
12
369.558014
22
2.580000
32
0.000000
13
369.558014
23
2.580000
33
0.000000
0
3DFACE
8
0
10
368.234009
20
3.217300
30
-4.000000
11
369.558014
21
2.580000
31
-4.000000
12
368.234009
22
3.217300
32
0.000000
13
368.234009
23
3.217300
33
0.000000
0
3DFACE
8
0
10
369.558014
20
2.580000
30
0.000000
11
370.472992
21
1.431800
31
-4.000000
12
370.472992
22
1.431800
32
0.000000
13
370.472992
23
1.431800
33
0.000000
0
3DFACE
8
0
10
370.472992
20
1.431800
30
0.000000
11
370.472992
21
1.431800
31
-4.000000
12
370.799988
22
0.000000
32
0.000000
13
370.799988
23
0.000000
33
0.000000
0
3DFACE
8
0
10
369.558014
20
2.580000
30
-4.000000
11
370.472992
21
1.431800
31
-4.000000
12
369.558014
22
2.580000
32
0.000000
13
369.558014
23
2.580000
33
0.000000
0
3DFACE
8
0
10
370.472992
20
1.431800
30
-4.000000
11
370.799988
21
0.000000
31
-4.000000
12
370.799988
22
0.000000
32
0.000000
13
370.799988
23
0.000000
33
0.000000
0
3DFACE
8
0
10
364.200012
20
245.000000
30
-4.000000
11
364.527008
21
246.432007
31
-4.000000
12
364.200012
22
245.000000
32
0.000000
13
364.200012
23
245.000000
33
0.000000
0
3DFACE
8
0
10
364.200012
20
245.000000
30
0.000000
11
364.527008
21
246.432007
31
-4.000000
12
364.527008
22
246.432007
32
0.000000
13
364.527008
23
246.432007
33
0.000000
0
3DFACE
8
0
10
364.527008
20
246.432007
30
0.000000
11
365.441986
21
247.580002
31
-4.000000
12
365.441986
22
247.580002
32
0.000000
13
365.441986
23
247.580002
33
0.000000
0
3DFACE
8
0
10
364.527008
20
246.432007
30
-4.000000
11
365.441986
21
247.580002
31
-4.000000
12
364.527008
22
246.432007
32
0.000000
13
364.527008
23
246.432007
33
0.000000
0
3DFACE
8
0
10
365.441986
20
247.580002
30
0.000000
11
366.765991
21
248.216995
31
-4.000000
12
366.765991
22
248.216995
32
0.000000
13
366.765991
23
248.216995
33
0.000000
0
3DFACE
8
0
10
365.441986
20
247.580002
30
-4.000000
11
366.765991
21
248.216995
31
-4.000000
12
365.441986
22
247.580002
32
0.000000
13
365.441986
23
247.580002
33
0.000000
0
3DFACE
8
0
10
366.765991
20
248.216995
30
0.000000
11
368.234009
21
248.216995
31
-4.000000
12
368.234009
22
248.216995
32
0.000000
13
368.234009
23
248.216995
33
0.000000
0
3DFACE
8
0
10
366.765991
20
248.216995
30
-4.000000
11
368.234009
21
248.216995
31
-4.000000
12
366.765991
22
248.216995
32
0.000000
13
366.765991
23
248.216995
33
0.000000
0
3DFACE
8
0
10
368.234009
20
248.216995
30
0.000000
11
369.558014
21
247.580002
31
-4.000000
12
369.558014
22
247.580002
32
0.000000
13
369.558014
23
247.580002
33
0.000000
0
3DFACE
8
0
10
368.234009
20
248.216995
30
-4.000000
11
369.558014
21
247.580002
31
-4.000000
12
368.234009
22
248.216995
32
0.000000
13
368.234009
23
248.216995
33
0.000000
0
3DFACE
8
0
10
369.558014
20
247.580002
30
0.000000
11
370.472992
21
246.432007
31
-4.000000
12
370.472992
22
246.432007
32
0.000000
13
370.472992
23
246.432007
33
0.000000
0
3DFACE
8
0
10
370.472992
20
246.432007
30
0.000000
11
370.472992
21
246.432007
31
-4.000000
12
370.799988
22
245.000000
32
0.000000
13
370.799988
23
245.000000
33
0.000000
0
3DFACE
8
0
10
369.558014
20
247.580002
30
-4.000000
11
370.472992
21
246.432007
31
-4.000000
12
369.558014
22
247.580002
32
0.000000
13
369.558014
23
247.580002
33
0.000000
0
3DFACE
8
0
10
370.472992
20
246.432007
30
-4.000000
11
370.799988
21
245.000000
31
-4.000000
12
370.799988
22
245.000000
32
0.000000
13
370.799988
23
245.000000
33
0.000000
0
3DFACE
8
0
10
-3.300000
20
340.000000
30
-4.000000
11
-2.973200
21
341.432007
31
-4.000000
12
-3.300000
22
340.000000
32
0.000000
13
-3.300000
23
340.000000
33
0.000000
0
3DFACE
8
0
10
-3.300000
20
340.000000
30
0.000000
11
-2.973200
21
341.432007
31
-4.000000
12
-2.973200
22
341.432007
32
0.000000
13
-2.973200
23
341.432007
33
0.000000
0
3DFACE
8
0
10
-2.973200
20
341.432007
30
0.000000
11
-2.057500
21
342.579987
31
-4.000000
12
-2.057500
22
342.579987
32
0.000000
13
-2.057500
23
342.579987
33
0.000000
0
3DFACE
8
0
10
-2.973200
20
341.432007
30
-4.000000
11
-2.057500
21
342.579987
31
-4.000000
12
-2.973200
22
341.432007
32
0.000000
13
-2.973200
23
341.432007
33
0.000000
0
3DFACE
8
0
10
-2.057500
20
342.579987
30
0.000000
11
-0.734300
21
343.217010
31
-4.000000
12
-0.734300
22
343.217010
32
0.000000
13
-0.734300
23
343.217010
33
0.000000
0
3DFACE
8
0
10
-2.057500
20
342.579987
30
-4.000000
11
-0.734300
21
343.217010
31
-4.000000
12
-2.057500
22
342.579987
32
0.000000
13
-2.057500
23
342.579987
33
0.000000
0
3DFACE
8
0
10
-0.734300
20
343.217010
30
0.000000
11
0.734300
21
343.217010
31
-4.000000
12
0.734300
22
343.217010
32
0.000000
13
0.734300
23
343.217010
33
0.000000
0
3DFACE
8
0
10
-0.734300
20
343.217010
30
-4.000000
11
0.734300
21
343.217010
31
-4.000000
12
-0.734300
22
343.217010
32
0.000000
13
-0.734300
23
343.217010
33
0.000000
0
3DFACE
8
0
10
0.734300
20
343.217010
30
0.000000
11
2.057500
21
342.579987
31
-4.000000
12
2.057500
22
342.579987
32
0.000000
13
2.057500
23
342.579987
33
0.000000
0
3DFACE
8
0
10
0.734300
20
343.217010
30
-4.000000
11
2.057500
21
342.579987
31
-4.000000
12
0.734300
22
343.217010
32
0.000000
13
0.734300
23
343.217010
33
0.000000
0
3DFACE
8
0
10
2.057500
20
342.579987
30
0.000000
11
2.973200
21
341.432007
31
-4.000000
12
2.973200
22
341.432007
32
0.000000
13
2.973200
23
341.432007
33
0.000000
0
3DFACE
8
0
10
2.973200
20
341.432007
30
0.000000
11
2.973200
21
341.432007
31
-4.000000
12
3.300000
22
340.000000
32
0.000000
13
3.300000
23
340.000000
33
0.000000
0
3DFACE
8
0
10
2.057500
20
342.579987
30
-4.000000
11
2.973200
21
341.432007
31
-4.000000
12
2.057500
22
342.579987
32
0.000000
13
2.057500
23
342.579987
33
0.000000
0
3DFACE
8
0
10
2.973200
20
341.432007
30
-4.000000
11
3.300000
21
340.000000
31
-4.000000
12
3.300000
22
340.000000
32
0.000000
13
3.300000
23
340.000000
33
0.000000
0
3DFACE
8
0
10
-275.799988
20
340.000000
30
-4.000000
11
-275.472992
21
341.432007
31
-4.000000
12
-275.799988
22
340.000000
32
0.000000
13
-275.799988
23
340.000000
33
0.000000
0
3DFACE
8
0
10
-275.799988
20
340.000000
30
0.000000
11
-275.472992
21
341.432007
31
-4.000000
12
-275.472992
22
341.432007
32
0.000000
13
-275.472992
23
341.432007
33
0.000000
0
3DFACE
8
0
10
-275.472992
20
341.432007
30
0.000000
11
-274.558014
21
342.579987
31
-4.000000
12
-274.558014
22
342.579987
32
0.000000
13
-274.558014
23
342.579987
33
0.000000
0
3DFACE
8
0
10
-275.472992
20
341.432007
30
-4.000000
11
-274.558014
21
342.579987
31
-4.000000
12
-275.472992
22
341.432007
32
0.000000
13
-275.472992
23
341.432007
33
0.000000
0
3DFACE
8
0
10
-274.558014
20
342.579987
30
0.000000
11
-273.234009
21
343.217010
31
-4.000000
12
-273.234009
22
343.217010
32
0.000000
13
-273.234009
23
343.217010
33
0.000000
0
3DFACE
8
0
10
-274.558014
20
342.579987
30
-4.000000
11
-273.234009
21
343.217010
31
-4.000000
12
-274.558014
22
342.579987
32
0.000000
13
-274.558014
23
342.579987
33
0.000000
0
3DFACE
8
0
10
-273.234009
20
343.217010
30
0.000000
11
-271.765991
21
343.217010
31
-4.000000
12
-271.765991
22
343.217010
32
0.000000
13
-271.765991
23
343.217010
33
0.000000
0
3DFACE
8
0
10
-273.234009
20
343.217010
30
-4.000000
11
-271.765991
21
343.217010
31
-4.000000
12
-273.234009
22
343.217010
32
0.000000
13
-273.234009
23
343.217010
33
0.000000
0
3DFACE
8
0
10
-271.765991
20
343.217010
30
0.000000
11
-270.441986
21
342.579987
31
-4.000000
12
-270.441986
22
342.579987
32
0.000000
13
-270.441986
23
342.579987
33
0.000000
0
3DFACE
8
0
10
-271.765991
20
343.217010
30
-4.000000
11
-270.441986
21
342.579987
31
-4.000000
12
-271.765991
22
343.217010
32
0.000000
13
-271.765991
23
343.217010
33
0.000000
0
3DFACE
8
0
10
-270.441986
20
342.579987
30
0.000000
11
-269.527008
21
341.432007
31
-4.000000
12
-269.527008
22
341.432007
32
0.000000
13
-269.527008
23
341.432007
33
0.000000
0
3DFACE
8
0
10
-269.527008
20
341.432007
30
0.000000
11
-269.527008
21
341.432007
31
-4.000000
12
-269.200012
22
340.000000
32
0.000000
13
-269.200012
23
340.000000
33
0.000000
0
3DFACE
8
0
10
-270.441986
20
342.579987
30
-4.000000
11
-269.527008
21
341.432007
31
-4.000000
12
-270.441986
22
342.579987
32
0.000000
13
-270.441986
23
342.579987
33
0.000000
0
3DFACE
8
0
10
-269.527008
20
341.432007
30
-4.000000
11
-269.200012
21
340.000000
31
-4.000000
12
-269.200012
22
340.000000
32
0.000000
13
-269.200012
23
340.000000
33
0.000000
0
3DFACE
8
0
10
269.200012
20
340.000000
30
-4.000000
11
269.527008
21
341.432007
31
-4.000000
12
269.200012
22
340.000000
32
0.000000
13
269.200012
23
340.000000
33
0.000000
0
3DFACE
8
0
10
269.200012
20
340.000000
30
0.000000
11
269.527008
21
341.432007
31
-4.000000
12
269.527008
22
341.432007
32
0.000000
13
269.527008
23
341.432007
33
0.000000
0
3DFACE
8
0
10
269.527008
20
341.432007
30
0.000000
11
270.441986
21
342.579987
31
-4.000000
12
270.441986
22
342.579987
32
0.000000
13
270.441986
23
342.579987
33
0.000000
0
3DFACE
8
0
10
269.527008
20
341.432007
30
-4.000000
11
270.441986
21
342.579987
31
-4.000000
12
269.527008
22
341.432007
32
0.000000
13
269.527008
23
341.432007
33
0.000000
0
3DFACE
8
0
10
270.441986
20
342.579987
30
0.000000
11
271.765991
21
343.217010
31
-4.000000
12
271.765991
22
343.217010
32
0.000000
13
271.765991
23
343.217010
33
0.000000
0
3DFACE
8
0
10
270.441986
20
342.579987
30
-4.000000
11
271.765991
21
343.217010
31
-4.000000
12
270.441986
22
342.579987
32
0.000000
13
270.441986
23
342.579987
33
0.000000
0
3DFACE
8
0
10
271.765991
20
343.217010
30
0.000000
11
273.234009
21
343.217010
31
-4.000000
12
273.234009
22
343.217010
32
0.000000
13
273.234009
23
343.217010
33
0.000000
0
3DFACE
8
0
10
271.765991
20
343.217010
30
-4.000000
11
273.234009
21
343.217010
31
-4.000000
12
271.765991
22
343.217010
32
0.000000
13
271.765991
23
343.217010
33
0.000000
0
3DFACE
8
0
10
273.234009
20
343.217010
30
0.000000
11
274.558014
21
342.579987
31
-4.000000
12
274.558014
22
342.579987
32
0.000000
13
274.558014
23
342.579987
33
0.000000
0
3DFACE
8
0
10
273.234009
20
343.217010
30
-4.000000
11
274.558014
21
342.579987
31
-4.000000
12
273.234009
22
343.217010
32
0.000000
13
273.234009
23
343.217010
33
0.000000
0
3DFACE
8
0
10
274.558014
20
342.579987
30
0.000000
11
275.472992
21
341.432007
31
-4.000000
12
275.472992
22
341.432007
32
0.000000
13
275.472992
23
341.432007
33
0.000000
0
3DFACE
8
0
10
275.472992
20
341.432007
30
0.000000
11
275.472992
21
341.432007
31
-4.000000
12
275.799988
22
340.000000
32
0.000000
13
275.799988
23
340.000000
33
0.000000
0
3DFACE
8
0
10
274.558014
20
342.579987
30
-4.000000
11
275.472992
21
341.432007
31
-4.000000
12
274.558014
22
342.579987
32
0.000000
13
274.558014
23
342.579987
33
0.000000
0
3DFACE
8
0
10
275.472992
20
341.432007
30
-4.000000
11
275.799988
21
340.000000
31
-4.000000
12
275.799988
22
340.000000
32
0.000000
13
275.799988
23
340.000000
33
0.000000
0
3DFACE
8
0
10
287.200012
20
0.000000
30
-4.000000
11
287.527008
21
1.431800
31
-4.000000
12
287.200012
22
0.000000
32
0.000000
13
287.200012
23
0.000000
33
0.000000
0
3DFACE
8
0
10
287.200012
20
0.000000
30
0.000000
11
287.527008
21
1.431800
31
-4.000000
12
287.527008
22
1.431800
32
0.000000
13
287.527008
23
1.431800
33
0.000000
0
3DFACE
8
0
10
287.527008
20
1.431800
30
0.000000
11
288.441986
21
2.580000
31
-4.000000
12
288.441986
22
2.580000
32
0.000000
13
288.441986
23
2.580000
33
0.000000
0
3DFACE
8
0
10
287.527008
20
1.431800
30
-4.000000
11
288.441986
21
2.580000
31
-4.000000
12
287.527008
22
1.431800
32
0.000000
13
287.527008
23
1.431800
33
0.000000
0
3DFACE
8
0
10
288.441986
20
2.580000
30
0.000000
11
289.765991
21
3.217300
31
-4.000000
12
289.765991
22
3.217300
32
0.000000
13
289.765991
23
3.217300
33
0.000000
0
3DFACE
8
0
10
288.441986
20
2.580000
30
-4.000000
11
289.765991
21
3.217300
31
-4.000000
12
288.441986
22
2.580000
32
0.000000
13
288.441986
23
2.580000
33
0.000000
0
3DFACE
8
0
10
289.765991
20
3.217300
30
0.000000
11
291.234009
21
3.217300
31
-4.000000
12
291.234009
22
3.217300
32
0.000000
13
291.234009
23
3.217300
33
0.000000
0
3DFACE
8
0
10
289.765991
20
3.217300
30
-4.000000
11
291.234009
21
3.217300
31
-4.000000
12
289.765991
22
3.217300
32
0.000000
13
289.765991
23
3.217300
33
0.000000
0
3DFACE
8
0
10
291.234009
20
3.217300
30
0.000000
11
292.558014
21
2.580000
31
-4.000000
12
292.558014
22
2.580000
32
0.000000
13
292.558014
23
2.580000
33
0.000000
0
3DFACE
8
0
10
291.234009
20
3.217300
30
-4.000000
11
292.558014
21
2.580000
31
-4.000000
12
291.234009
22
3.217300
32
0.000000
13
291.234009
23
3.217300
33
0.000000
0
3DFACE
8
0
10
292.558014
20
2.580000
30
0.000000
11
293.472992
21
1.431800
31
-4.000000
12
293.472992
22
1.431800
32
0.000000
13
293.472992
23
1.431800
33
0.000000
0
3DFACE
8
0
10
293.472992
20
1.431800
30
0.000000
11
293.472992
21
1.431800
31
-4.000000
12
293.799988
22
0.000000
32
0.000000
13
293.799988
23
0.000000
33
0.000000
0
3DFACE
8
0
10
292.558014
20
2.580000
30
-4.000000
11
293.472992
21
1.431800
31
-4.000000
12
292.558014
22
2.580000
32
0.000000
13
292.558014
23
2.580000
33
0.000000
0
3DFACE
8
0
10
293.472992
20
1.431800
30
-4.000000
11
293.799988
21
0.000000
31
-4.000000
12
293.799988
22
0.000000
32
0.000000
13
293.799988
23
0.000000
33
0.000000
0
3DFACE
8
0
10
364.200012
20
-245.000000
30
-4.000000
11
364.527008
21
-243.567993
31
-4.000000
12
364.200012
22
-245.000000
32
0.000000
13
364.200012
23
-245.000000
33
0.000000
0
3DFACE
8
0
10
364.200012
20
-245.000000
30
0.000000
11
364.527008
21
-243.567993
31
-4.000000
12
364.527008
22
-243.567993
32
0.000000
13
364.527008
23
-243.567993
33
0.000000
0
3DFACE
8
0
10
364.527008
20
-243.567993
30
0.000000
11
365.441986
21
-242.419998
31
-4.000000
12
365.441986
22
-242.419998
32
0.000000
13
365.441986
23
-242.419998
33
0.000000
0
3DFACE
8
0
10
364.527008
20
-243.567993
30
-4.000000
11
365.441986
21
-242.419998
31
-4.000000
12
364.527008
22
-243.567993
32
0.000000
13
364.527008
23
-243.567993
33
0.000000
0
3DFACE
8
0
10
365.441986
20
-242.419998
30
0.000000
11
366.765991
21
-241.783005
31
-4.000000
12
366.765991
22
-241.783005
32
0.000000
13
366.765991
23
-241.783005
33
0.000000
0
3DFACE
8
0
10
365.441986
20
-242.419998
30
-4.000000
11
366.765991
21
-241.783005
31
-4.000000
12
365.441986
22
-242.419998
32
0.000000
13
365.441986
23
-242.419998
33
0.000000
0
3DFACE
8
0
10
366.765991
20
-241.783005
30
0.000000
11
368.234009
21
-241.783005
31
-4.000000
12
368.234009
22
-241.783005
32
0.000000
13
368.234009
23
-241.783005
33
0.000000
0
3DFACE
8
0
10
366.765991
20
-241.783005
30
-4.000000
11
368.234009
21
-241.783005
31
-4.000000
12
366.765991
22
-241.783005
32
0.000000
13
366.765991
23
-241.783005
33
0.000000
0
3DFACE
8
0
10
368.234009
20
-241.783005
30
0.000000
11
369.558014
21
-242.419998
31
-4.000000
12
369.558014
22
-242.419998
32
0.000000
13
369.558014
23
-242.419998
33
0.000000
0
3DFACE
8
0
10
368.234009
20
-241.783005
30
-4.000000
11
369.558014
21
-242.419998
31
-4.000000
12
368.234009
22
-241.783005
32
0.000000
13
368.234009
23
-241.783005
33
0.000000
0
3DFACE
8
0
10
369.558014
20
-242.419998
30
0.000000
11
370.472992
21
-243.567993
31
-4.000000
12
370.472992
22
-243.567993
32
0.000000
13
370.472992
23
-243.567993
33
0.000000
0
3DFACE
8
0
10
370.472992
20
-243.567993
30
0.000000
11
370.472992
21
-243.567993
31
-4.000000
12
370.799988
22
-245.000000
32
0.000000
13
370.799988
23
-245.000000
33
0.000000
0
3DFACE
8
0
10
369.558014
20
-242.419998
30
-4.000000
11
370.472992
21
-243.567993
31
-4.000000
12
369.558014
22
-242.419998
32
0.000000
13
369.558014
23
-242.419998
33
0.000000
0
3DFACE
8
0
10
370.472992
20
-243.567993
30
-4.000000
11
370.799988
21
-245.000000
31
-4.000000
12
370.799988
22
-245.000000
32
0.000000
13
370.799988
23
-245.000000
33
0.000000
0
3DFACE
8
0
10
-3.300000
20
-340.000000
30
-4.000000
11
-2.973200
21
-338.567993
31
-4.000000
12
-3.300000
22
-340.000000
32
0.000000
13
-3.300000
23
-340.000000
33
0.000000
0
3DFACE
8
0
10
-3.300000
20
-340.000000
30
0.000000
11
-2.973200
21
-338.567993
31
-4.000000
12
-2.973200
22
-338.567993
32
0.000000
13
-2.973200
23
-338.567993
33
0.000000
0
3DFACE
8
0
10
-2.973200
20
-338.567993
30
0.000000
11
-2.057500
21
-337.420013
31
-4.000000
12
-2.057500
22
-337.420013
32
0.000000
13
-2.057500
23
-337.420013
33
0.000000
0
3DFACE
8
0
10
-2.973200
20
-338.567993
30
-4.000000
11
-2.057500
21
-337.420013
31
-4.000000
12
-2.973200
22
-338.567993
32
0.000000
13
-2.973200
23
-338.567993
33
0.000000
0
3DFACE
8
0
10
-2.057500
20
-337.420013
30
0.000000
11
-0.734300
21
-336.782990
31
-4.000000
12
-0.734300
22
-336.782990
32
0.000000
13
-0.734300
23
-336.782990
33
0.000000
0
3DFACE
8
0
10
-2.057500
20
-337.420013
30
-4.000000
11
-0.734300
21
-336.782990
31
-4.000000
12
-2.057500
22
-337.420013
32
0.000000
13
-2.057500
23
-337.420013
33
0.000000
0
3DFACE
8
0
10
-0.734300
20
-336.782990
30
0.000000
11
0.734300
21
-336.782990
31
-4.000000
12
0.734300
22
-336.782990
32
0.000000
13
0.734300
23
-336.782990
33
0.000000
0
3DFACE
8
0
10
-0.734300
20
-336.782990
30
-4.000000
11
0.734300
21
-336.782990
31
-4.000000
12
-0.734300
22
-336.782990
32
0.000000
13
-0.734300
23
-336.782990
33
0.000000
0
3DFACE
8
0
10
0.734300
20
-336.782990
30
0.000000
11
2.057500
21
-337.420013
31
-4.000000
12
2.057500
22
-337.420013
32
0.000000
13
2.057500
23
-337.420013
33
0.000000
0
3DFACE
8
0
10
0.734300
20
-336.782990
30
-4.000000
11
2.057500
21
-337.420013
31
-4.000000
12
0.734300
22
-336.782990
32
0.000000
13
0.734300
23
-336.782990
33
0.000000
0
3DFACE
8
0
10
2.057500
20
-337.420013
30
0.000000
11
2.973200
21
-338.567993
31
-4.000000
12
2.973200
22
-338.567993
32
0.000000
13
2.973200
23
-338.567993
33
0.000000
0
3DFACE
8
0
10
2.973200
20
-338.567993
30
0.000000
11
2.973200
21
-338.567993
31
-4.000000
12
3.300000
22
-340.000000
32
0.000000
13
3.300000
23
-340.000000
33
0.000000
0
3DFACE
8
0
10
2.057500
20
-337.420013
30
-4.000000
11
2.973200
21
-338.567993
31
-4.000000
12
2.057500
22
-337.420013
32
0.000000
13
2.057500
23
-337.420013
33
0.000000
0
3DFACE
8
0
10
2.973200
20
-338.567993
30
-4.000000
11
3.300000
21
-340.000000
31
-4.000000
12
3.300000
22
-340.000000
32
0.000000
13
3.300000
23
-340.000000
33
0.000000
0
3DFACE
8
0
10
-370.799988
20
0.000000
30
-4.000000
11
-370.472992
21
1.431800
31
-4.000000
12
-370.799988
22
0.000000
32
0.000000
13
-370.799988
23
0.000000
33
0.000000
0
3DFACE
8
0
10
-370.799988
20
0.000000
30
0.000000
11
-370.472992
21
1.431800
31
-4.000000
12
-370.472992
22
1.431800
32
0.000000
13
-370.472992
23
1.431800
33
0.000000
0
3DFACE
8
0
10
-370.472992
20
1.431800
30
0.000000
11
-369.558014
21
2.580000
31
-4.000000
12
-369.558014
22
2.580000
32
0.000000
13
-369.558014
23
2.580000
33
0.000000
0
3DFACE
8
0
10
-370.472992
20
1.431800
30
-4.000000
11
-369.558014
21
2.580000
31
-4.000000
12
-370.472992
22
1.431800
32
0.000000
13
-370.472992
23
1.431800
33
0.000000
0
3DFACE
8
0
10
-369.558014
20
2.580000
30
0.000000
11
-368.234009
21
3.217300
31
-4.000000
12
-368.234009
22
3.217300
32
0.000000
13
-368.234009
23
3.217300
33
0.000000
0
3DFACE
8
0
10
-369.558014
20
2.580000
30
-4.000000
11
-368.234009
21
3.217300
31
-4.000000
12
-369.558014
22
2.580000
32
0.000000
13
-369.558014
23
2.580000
33
0.000000
0
3DFACE
8
0
10
-368.234009
20
3.217300
30
0.000000
11
-366.765991
21
3.217300
31
-4.000000
12
-366.765991
22
3.217300
32
0.000000
13
-366.765991
23
3.217300
33
0.000000
0
3DFACE
8
0
10
-368.234009
20
3.217300
30
-4.000000
11
-366.765991
21
3.217300
31
-4.000000
12
-368.234009
22
3.217300
32
0.000000
13
-368.234009
23
3.217300
33
0.000000
0
3DFACE
8
0
10
-366.765991
20
3.217300
30
0.000000
11
-365.441986
21
2.580000
31
-4.000000
12
-365.441986
22
2.580000
32
0.000000
13
-365.441986
23
2.580000
33
0.000000
0
3DFACE
8
0
10
-366.765991
20
3.217300
30
-4.000000
11
-365.441986
21
2.580000
31
-4.000000
12
-366.765991
22
3.217300
32
0.000000
13
-366.765991
23
3.217300
33
0.000000
0
3DFACE
8
0
10
-365.441986
20
2.580000
30
0.000000
11
-364.527008
21
1.431800
31
-4.000000
12
-364.527008
22
1.431800
32
0.000000
13
-364.527008
23
1.431800
33
0.000000
0
3DFACE
8
0
10
-364.527008
20
1.431800
30
0.000000
11
-364.527008
21
1.431800
31
-4.000000
12
-364.200012
22
0.000000
32
0.000000
13
-364.200012
23
0.000000
33
0.000000
0
3DFACE
8
0
10
-365.441986
20
2.580000
30
-4.000000
11
-364.527008
21
1.431800
31
-4.000000
12
-365.441986
22
2.580000
32
0.000000
13
-365.441986
23
2.580000
33
0.000000
0
3DFACE
8
0
10
-364.527008
20
1.431800
30
-4.000000
11
-364.200012
21
0.000000
31
-4.000000
12
-364.200012
22
0.000000
32
0.000000
13
-364.200012
23
0.000000
33
0.000000
0
3DFACE
8
0
10
-370.799988
20
-189.500000
30
-4.000000
11
-370.472992
21
-188.067993
31
-4.000000
12
-370.799988
22
-189.500000
32
0.000000
13
-370.799988
23
-189.500000
33
0.000000
0
3DFACE
8
0
10
-370.799988
20
-189.500000
30
0.000000
11
-370.472992
21
-188.067993
31
-4.000000
12
-370.472992
22
-188.067993
32
0.000000
13
-370.472992
23
-188.067993
33
0.000000
0
3DFACE
8
0
10
-370.472992
20
-188.067993
30
0.000000
11
-369.558014
21
-186.919998
31
-4.000000
12
-369.558014
22
-186.919998
32
0.000000
13
-369.558014
23
-186.919998
33
0.000000
0
3DFACE
8
0
10
-370.472992
20
-188.067993
30
-4.000000
11
-369.558014
21
-186.919998
31
-4.000000
12
-370.472992
22
-188.067993
32
0.000000
13
-370.472992
23
-188.067993
33
0.000000
0
3DFACE
8
0
10
-369.558014
20
-186.919998
30
0.000000
11
-368.234009
21
-186.283005
31
-4.000000
12
-368.234009
22
-186.283005
32
0.000000
13
-368.234009
23
-186.283005
33
0.000000
0
3DFACE
8
0
10
-369.558014
20
-186.919998
30
-4.000000
11
-368.234009
21
-186.283005
31
-4.000000
12
-369.558014
22
-186.919998
32
0.000000
13
-369.558014
23
-186.919998
33
0.000000
0
3DFACE
8
0
10
-368.234009
20
-186.283005
30
0.000000
11
-366.765991
21
-186.283005
31
-4.000000
12
-366.765991
22
-186.283005
32
0.000000
13
-366.765991
23
-186.283005
33
0.000000
0
3DFACE
8
0
10
-368.234009
20
-186.283005
30
-4.000000
11
-366.765991
21
-186.283005
31
-4.000000
12
-368.234009
22
-186.283005
32
0.000000
13
-368.234009
23
-186.283005
33
0.000000
0
3DFACE
8
0
10
-366.765991
20
-186.283005
30
0.000000
11
-365.441986
21
-186.919998
31
-4.000000
12
-365.441986
22
-186.919998
32
0.000000
13
-365.441986
23
-186.919998
33
0.000000
0
3DFACE
8
0
10
-366.765991
20
-186.283005
30
-4.000000
11
-365.441986
21
-186.919998
31
-4.000000
12
-366.765991
22
-186.283005
32
0.000000
13
-366.765991
23
-186.283005
33
0.000000
0
3DFACE
8
0
10
-365.441986
20
-186.919998
30
0.000000
11
-364.527008
21
-188.067993
31
-4.000000
12
-364.527008
22
-188.067993
32
0.000000
13
-364.527008
23
-188.067993
33
0.000000
0
3DFACE
8
0
10
-364.527008
20
-188.067993
30
0.000000
11
-364.527008
21
-188.067993
31
-4.000000
12
-364.200012
22
-189.500000
32
0.000000
13
-364.200012
23
-189.500000
33
0.000000
0
3DFACE
8
0
10
-365.441986
20
-186.919998
30
-4.000000
11
-364.527008
21
-188.067993
31
-4.000000
12
-365.441986
22
-186.919998
32
0.000000
13
-365.441986
23
-186.919998
33
0.000000
0
3DFACE
8
0
10
-364.527008
20
-188.067993
30
-4.000000
11
-364.200012
21
-189.500000
31
-4.000000
12
-364.200012
22
-189.500000
32
0.000000
13
-364.200012
23
-189.500000
33
0.000000
0
3DFACE
8
0
10
287.200012
20
-245.000000
30
-4.000000
11
287.527008
21
-243.567993
31
-4.000000
12
287.200012
22
-245.000000
32
0.000000
13
287.200012
23
-245.000000
33
0.000000
0
3DFACE
8
0
10
287.200012
20
-245.000000
30
0.000000
11
287.527008
21
-243.567993
31
-4.000000
12
287.527008
22
-243.567993
32
0.000000
13
287.527008
23
-243.567993
33
0.000000
0
3DFACE
8
0
10
287.527008
20
-243.567993
30
0.000000
11
288.441986
21
-242.419998
31
-4.000000
12
288.441986
22
-242.419998
32
0.000000
13
288.441986
23
-242.419998
33
0.000000
0
3DFACE
8
0
10
287.527008
20
-243.567993
30
-4.000000
11
288.441986
21
-242.419998
31
-4.000000
12
287.527008
22
-243.567993
32
0.000000
13
287.527008
23
-243.567993
33
0.000000
0
3DFACE
8
0
10
288.441986
20
-242.419998
30
0.000000
11
289.765991
21
-241.783005
31
-4.000000
12
289.765991
22
-241.783005
32
0.000000
13
289.765991
23
-241.783005
33
0.000000
0
3DFACE
8
0
10
288.441986
20
-242.419998
30
-4.000000
11
289.765991
21
-241.783005
31
-4.000000
12
288.441986
22
-242.419998
32
0.000000
13
288.441986
23
-242.419998
33
0.000000
0
3DFACE
8
0
10
289.765991
20
-241.783005
30
0.000000
11
291.234009
21
-241.783005
31
-4.000000
12
291.234009
22
-241.783005
32
0.000000
13
291.234009
23
-241.783005
33
0.000000
0
3DFACE
8
0
10
289.765991
20
-241.783005
30
-4.000000
11
291.234009
21
-241.783005
31
-4.000000
12
289.765991
22
-241.783005
32
0.000000
13
289.765991
23
-241.783005
33
0.000000
0
3DFACE
8
0
10
291.234009
20
-241.783005
30
0.000000
11
292.558014
21
-242.419998
31
-4.000000
12
292.558014
22
-242.419998
32
0.000000
13
292.558014
23
-242.419998
33
0.000000
0
3DFACE
8
0
10
291.234009
20
-241.783005
30
-4.000000
11
292.558014
21
-242.419998
31
-4.000000
12
291.234009
22
-241.783005
32
0.000000
13
291.234009
23
-241.783005
33
0.000000
0
3DFACE
8
0
10
292.558014
20
-242.419998
30
0.000000
11
293.472992
21
-243.567993
31
-4.000000
12
293.472992
22
-243.567993
32
0.000000
13
293.472992
23
-243.567993
33
0.000000
0
3DFACE
8
0
10
293.472992
20
-243.567993
30
0.000000
11
293.472992
21
-243.567993
31
-4.000000
12
293.799988
22
-245.000000
32
0.000000
13
293.799988
23
-245.000000
33
0.000000
0
3DFACE
8
0
10
292.558014
20
-242.419998
30
-4.000000
11
293.472992
21
-243.567993
31
-4.000000
12
292.558014
22
-242.419998
32
0.000000
13
292.558014
23
-242.419998
33
0.000000
0
3DFACE
8
0
10
293.472992
20
-243.567993
30
-4.000000
11
293.799988
21
-245.000000
31
-4.000000
12
293.799988
22
-245.000000
32
0.000000
13
293.799988
23
-245.000000
33
0.000000
0
3DFACE
8
0
10
370.472992
20
246.432007
30
-4.000000
11
369.558014
21
247.580002
31
-4.000000
12
382.500000
22
264.500000
32
-4.000000
13
382.500000
23
264.500000
33
-4.000000
0
3DFACE
8
0
10
275.472992
20
341.432007
30
-4.000000
11
274.558014
21
342.579987
31
-4.000000
12
292.000000
22
355.000000
32
-4.000000
13
292.000000
23
355.000000
33
-4.000000
0
3DFACE
8
0
10
368.234009
20
248.216995
30
-4.000000
11
382.500000
21
264.500000
31
-4.000000
12
369.558014
22
247.580002
32
-4.000000
13
369.558014
23
247.580002
33
-4.000000
0
3DFACE
8
0
10
273.234009
20
343.217010
30
-4.000000
11
292.000000
21
355.000000
31
-4.000000
12
274.558014
22
342.579987
32
-4.000000
13
274.558014
23
342.579987
33
-4.000000
0
3DFACE
8
0
10
370.799988
20
245.000000
30
-4.000000
11
370.472992
21
246.432007
31
-4.000000
12
382.500000
22
264.500000
32
-4.000000
13
382.500000
23
264.500000
33
-4.000000
0
3DFACE
8
0
10
275.799988
20
340.000000
30
-4.000000
11
292.000000
21
355.000000
31
-4.000000
12
292.000000
22
324.796997
32
-4.000000
13
292.000000
23
324.796997
33
-4.000000
0
3DFACE
8
0
10
275.799988
20
340.000000
30
-4.000000
11
275.472992
21
341.432007
31
-4.000000
12
292.000000
22
355.000000
32
-4.000000
13
292.000000
23
355.000000
33
-4.000000
0
3DFACE
8
0
10
366.765991
20
248.216995
30
-4.000000
11
352.296997
21
264.500000
31
-4.000000
12
382.500000
22
264.500000
32
-4.000000
13
382.500000
23
264.500000
33
-4.000000
0
3DFACE
8
0
10
366.765991
20
248.216995
30
-4.000000
11
382.500000
21
264.500000
31
-4.000000
12
368.234009
22
248.216995
32
-4.000000
13
368.234009
23
248.216995
33
-4.000000
0
3DFACE
8
0
10
271.765991
20
343.217010
30
-4.000000
11
292.000000
21
355.000000
31
-4.000000
12
273.234009
22
343.217010
32
-4.000000
13
273.234009
23
343.217010
33
-4.000000
0
3DFACE
8
0
10
370.472992
20
243.567993
30
-4.000000
11
370.799988
21
245.000000
31
-4.000000
12
382.500000
22
264.500000
32
-4.000000
13
382.500000
23
264.500000
33
-4.000000
0
3DFACE
8
0
10
275.472992
20
338.567993
30
-4.000000
11
275.799988
21
340.000000
31
-4.000000
12
292.000000
22
324.796997
32
-4.000000
13
292.000000
23
324.796997
33
-4.000000
0
3DFACE
8
0
10
365.441986
20
247.580002
30
-4.000000
11
352.296997
21
264.500000
31
-4.000000
12
366.765991
22
248.216995
32
-4.000000
13
366.765991
23
248.216995
33
-4.000000
0
3DFACE
8
0
10
270.441986
20
342.579987
30
-4.000000
11
292.000000
21
355.000000
31
-4.000000
12
271.765991
22
343.217010
32
-4.000000
13
271.765991
23
343.217010
33
-4.000000
0
3DFACE
8
0
10
274.558014
20
337.420013
30
-4.000000
11
275.472992
21
338.567993
31
-4.000000
12
292.000000
22
324.796997
32
-4.000000
13
292.000000
23
324.796997
33
-4.000000
0
3DFACE
8
0
10
364.527008
20
246.432007
30
-4.000000
11
352.296997
21
264.500000
31
-4.000000
12
365.441986
22
247.580002
32
-4.000000
13
365.441986
23
247.580002
33
-4.000000
0
3DFACE
8
0
10
273.234009
20
336.782990
30
-4.000000
11
274.558014
21
337.420013
31
-4.000000
12
292.000000
22
324.796997
32
-4.000000
13
292.000000
23
324.796997
33
-4.000000
0
3DFACE
8
0
10
364.200012
20
245.000000
30
-4.000000
11
352.296997
21
264.500000
31
-4.000000
12
364.527008
22
246.432007
32
-4.000000
13
364.527008
23
246.432007
33
-4.000000
0
3DFACE
8
0
10
271.765991
20
336.782990
30
-4.000000
11
273.234009
21
336.782990
31
-4.000000
12
292.000000
22
324.796997
32
-4.000000
13
292.000000
23
324.796997
33
-4.000000
0
3DFACE
8
0
10
292.558014
20
247.580002
30
-4.000000
11
292.000000
21
324.796997
31
-4.000000
12
352.296997
22
264.500000
32
-4.000000
13
352.296997
23
264.500000
33
-4.000000
0
3DFACE
8
0
10
293.472992
20
246.432007
30
-4.000000
11
292.558014
21
247.580002
31
-4.000000
12
352.296997
22
264.500000
32
-4.000000
13
352.296997
23
264.500000
33
-4.000000
0
3DFACE
8
0
10
291.234009
20
248.216995
30
-4.000000
11
292.000000
21
324.796997
31
-4.000000
12
292.558014
22
247.580002
32
-4.000000
13
292.558014
23
247.580002
33
-4.000000
0
3DFACE
8
0
10
293.799988
20
245.000000
30
-4.000000
11
364.200012
21
245.000000
31
-4.000000
12
364.527008
22
243.567993
32
-4.000000
13
364.527008
23
243.567993
33
-4.000000
0
3DFACE
8
0
10
293.799988
20
245.000000
30
-4.000000
11
352.296997
21
264.500000
31
-4.000000
12
364.200012
22
245.000000
32
-4.000000
13
364.200012
23
245.000000
33
-4.000000
0
3DFACE
8
0
10
293.799988
20
245.000000
30
-4.000000
11
293.472992
21
246.432007
31
-4.000000
12
352.296997
22
264.500000
32
-4.000000
13
352.296997
23
264.500000
33
-4.000000
0
3DFACE
8
0
10
289.765991
20
248.216995
30
-4.000000
11
292.000000
21
324.796997
31
-4.000000
12
291.234009
22
248.216995
32
-4.000000
13
291.234009
23
248.216995
33
-4.000000
0
3DFACE
8
0
10
293.472992
20
243.567993
30
-4.000000
11
364.527008
21
243.567993
31
-4.000000
12
365.441986
22
242.419998
32
-4.000000
13
365.441986
23
242.419998
33
-4.000000
0
3DFACE
8
0
10
293.472992
20
243.567993
30
-4.000000
11
293.799988
21
245.000000
31
-4.000000
12
364.527008
22
243.567993
32
-4.000000
13
364.527008
23
243.567993
33
-4.000000
0
3DFACE
8
0
10
288.441986
20
247.580002
30
-4.000000
11
292.000000
21
324.796997
31
-4.000000
12
289.765991
22
248.216995
32
-4.000000
13
289.765991
23
248.216995
33
-4.000000
0
3DFACE
8
0
10
288.441986
20
247.580002
30
-4.000000
11
270.441986
21
337.420013
31
-4.000000
12
271.765991
22
336.782990
32
-4.000000
13
271.765991
23
336.782990
33
-4.000000
0
3DFACE
8
0
10
288.441986
20
247.580002
30
-4.000000
11
271.765991
21
336.782990
31
-4.000000
12
292.000000
22
324.796997
32
-4.000000
13
292.000000
23
324.796997
33
-4.000000
0
3DFACE
8
0
10
292.558014
20
242.419998
30
-4.000000
11
293.472992
21
243.567993
31
-4.000000
12
365.441986
22
242.419998
32
-4.000000
13
365.441986
23
242.419998
33
-4.000000
0
3DFACE
8
0
10
287.527008
20
246.432007
30
-4.000000
11
269.527008
21
338.567993
31
-4.000000
12
270.441986
22
337.420013
32
-4.000000
13
270.441986
23
337.420013
33
-4.000000
0
3DFACE
8
0
10
287.527008
20
246.432007
30
-4.000000
11
270.441986
21
337.420013
31
-4.000000
12
288.441986
22
247.580002
32
-4.000000
13
288.441986
23
247.580002
33
-4.000000
0
3DFACE
8
0
10
291.234009
20
241.783005
30
-4.000000
11
365.441986
21
242.419998
31
-4.000000
12
366.765991
22
241.783005
32
-4.000000
13
366.765991
23
241.783005
33
-4.000000
0
3DFACE
8
0
10
291.234009
20
241.783005
30
-4.000000
11
292.558014
21
242.419998
31
-4.000000
12
365.441986
22
242.419998
32
-4.000000
13
365.441986
23
242.419998
33
-4.000000
0
3DFACE
8
0
10
287.200012
20
245.000000
30
-4.000000
11
269.527008
21
338.567993
31
-4.000000
12
287.527008
22
246.432007
32
-4.000000
13
287.527008
23
246.432007
33
-4.000000
0
3DFACE
8
0
10
370.472992
20
1.431800
30
-4.000000
11
369.558014
21
2.580000
31
-4.000000
12
369.558014
22
242.419998
32
-4.000000
13
369.558014
23
242.419998
33
-4.000000
0
3DFACE
8
0
10
370.472992
20
1.431800
30
-4.000000
11
369.558014
21
242.419998
31
-4.000000
12
370.472992
22
243.567993
32
-4.000000
13
370.472992
23
243.567993
33
-4.000000
0
3DFACE
8
0
10
370.472992
20
1.431800
30
-4.000000
11
370.472992
21
243.567993
31
-4.000000
12
382.500000
22
264.500000
32
-4.000000
13
382.500000
23
264.500000
33
-4.000000
0
3DFACE
8
0
10
368.234009
20
3.217300
30
-4.000000
11
369.558014
21
242.419998
31
-4.000000
12
369.558014
22
2.580000
32
-4.000000
13
369.558014
23
2.580000
33
-4.000000
0
3DFACE
8
0
10
368.234009
20
3.217300
30
-4.000000
11
368.234009
21
241.783005
31
-4.000000
12
369.558014
22
242.419998
32
-4.000000
13
369.558014
23
242.419998
33
-4.000000
0
3DFACE
8
0
10
370.799988
20
0.000000
30
-4.000000
11
370.472992
21
1.431800
31
-4.000000
12
382.500000
22
264.500000
32
-4.000000
13
382.500000
23
264.500000
33
-4.000000
0
3DFACE
8
0
10
366.765991
20
3.217300
30
-4.000000
11
368.234009
21
241.783005
31
-4.000000
12
368.234009
22
3.217300
32
-4.000000
13
368.234009
23
3.217300
33
-4.000000
0
3DFACE
8
0
10
366.765991
20
3.217300
30
-4.000000
11
366.765991
21
241.783005
31
-4.000000
12
368.234009
22
241.783005
32
-4.000000
13
368.234009
23
241.783005
33
-4.000000
0
3DFACE
8
0
10
2.057500
20
342.579987
30
-4.000000
11
292.000000
21
355.000000
31
-4.000000
12
270.441986
22
342.579987
32
-4.000000
13
270.441986
23
342.579987
33
-4.000000
0
3DFACE
8
0
10
2.973200
20
341.432007
30
-4.000000
11
270.441986
21
342.579987
31
-4.000000
12
269.527008
22
341.432007
32
-4.000000
13
269.527008
23
341.432007
33
-4.000000
0
3DFACE
8
0
10
2.973200
20
341.432007
30
-4.000000
11
2.057500
21
342.579987
31
-4.000000
12
270.441986
22
342.579987
32
-4.000000
13
270.441986
23
342.579987
33
-4.000000
0
3DFACE
8
0
10
0.734300
20
343.217010
30
-4.000000
11
292.000000
21
355.000000
31
-4.000000
12
2.057500
22
342.579987
32
-4.000000
13
2.057500
23
342.579987
33
-4.000000
0
3DFACE
8
0
10
3.300000
20
340.000000
30
-4.000000
11
269.527008
21
341.432007
31
-4.000000
12
269.200012
22
340.000000
32
-4.000000
13
269.200012
23
340.000000
33
-4.000000
0
3DFACE
8
0
10
3.300000
20
340.000000
30
-4.000000
11
269.200012
21
340.000000
31
-4.000000
12
269.527008
22
338.567993
32
-4.000000
13
269.527008
23
338.567993
33
-4.000000
0
3DFACE
8
0
10
3.300000
20
340.000000
30
-4.000000
11
2.973200
21
341.432007
31
-4.000000
12
269.527008
22
341.432007
32
-4.000000
13
269.527008
23
341.432007
33
-4.000000
0
3DFACE
8
0
10
2.973200
20
338.567993
30
-4.000000
11
269.527008
21
338.567993
31
-4.000000
12
287.200012
22
245.000000
32
-4.000000
13
287.200012
23
245.000000
33
-4.000000
0
3DFACE
8
0
10
2.973200
20
338.567993
30
-4.000000
11
3.300000
21
340.000000
31
-4.000000
12
269.527008
22
338.567993
32
-4.000000
13
269.527008
23
338.567993
33
-4.000000
0
3DFACE
8
0
10
2.057500
20
337.420013
30
-4.000000
11
287.200012
21
245.000000
31
-4.000000
12
287.527008
22
243.567993
32
-4.000000
13
287.527008
23
243.567993
33
-4.000000
0
3DFACE
8
0
10
2.057500
20
337.420013
30
-4.000000
11
2.973200
21
338.567993
31
-4.000000
12
287.200012
22
245.000000
32
-4.000000
13
287.200012
23
245.000000
33
-4.000000
0
3DFACE
8
0
10
0.734300
20
336.782990
30
-4.000000
11
2.057500
21
337.420013
31
-4.000000
12
287.527008
22
243.567993
32
-4.000000
13
287.527008
23
243.567993
33
-4.000000
0
3DFACE
8
0
10
292.558014
20
2.580000
30
-4.000000
11
365.441986
21
2.580000
31
-4.000000
12
364.527008
22
1.431800
32
-4.000000
13
364.527008
23
1.431800
33
-4.000000
0
3DFACE
8
0
10
293.472992
20
1.431800
30
-4.000000
11
292.558014
21
2.580000
31
-4.000000
12
364.527008
22
1.431800
32
-4.000000
13
364.527008
23
1.431800
33
-4.000000
0
3DFACE
8
0
10
293.472992
20
1.431800
30
-4.000000
11
364.527008
21
1.431800
31
-4.000000
12
364.200012
22
0.000000
32
-4.000000
13
364.200012
23
0.000000
33
-4.000000
0
3DFACE
8
0
10
291.234009
20
3.217300
30
-4.000000
11
291.234009
21
241.783005
31
-4.000000
12
366.765991
22
241.783005
32
-4.000000
13
366.765991
23
241.783005
33
-4.000000
0
3DFACE
8
0
10
291.234009
20
3.217300
30
-4.000000
11
365.441986
21
2.580000
31
-4.000000
12
292.558014
22
2.580000
32
-4.000000
13
292.558014
23
2.580000
33
-4.000000
0
3DFACE
8
0
10
291.234009
20
3.217300
30
-4.000000
11
366.765991
21
241.783005
31
-4.000000
12
366.765991
22
3.217300
32
-4.000000
13
366.765991
23
3.217300
33
-4.000000
0
3DFACE
8
0
10
291.234009
20
3.217300
30
-4.000000
11
366.765991
21
3.217300
31
-4.000000
12
365.441986
22
2.580000
32
-4.000000
13
365.441986
23
2.580000
33
-4.000000
0
3DFACE
8
0
10
293.799988
20
0.000000
30
-4.000000
11
293.472992
21
1.431800
31
-4.000000
12
364.200012
22
0.000000
32
-4.000000
13
364.200012
23
0.000000
33
-4.000000
0
3DFACE
8
0
10
293.799988
20
0.000000
30
-4.000000
11
364.200012
21
0.000000
31
-4.000000
12
364.527008
22
-1.431800
32
-4.000000
13
364.527008
23
-1.431800
33
-4.000000
0
3DFACE
8
0
10
289.765991
20
3.217300
30
-4.000000
11
288.441986
21
242.419998
31
-4.000000
12
289.765991
22
241.783005
32
-4.000000
13
289.765991
23
241.783005
33
-4.000000
0
3DFACE
8
0
10
289.765991
20
3.217300
30
-4.000000
11
289.765991
21
241.783005
31
-4.000000
12
291.234009
22
241.783005
32
-4.000000
13
291.234009
23
241.783005
33
-4.000000
0
3DFACE
8
0
10
289.765991
20
3.217300
30
-4.000000
11
291.234009
21
241.783005
31
-4.000000
12
291.234009
22
3.217300
32
-4.000000
13
291.234009
23
3.217300
33
-4.000000
0
3DFACE
8
0
10
293.472992
20
-1.431800
30
-4.000000
11
293.799988
21
0.000000
31
-4.000000
12
364.527008
22
-1.431800
32
-4.000000
13
364.527008
23
-1.431800
33
-4.000000
0
3DFACE
8
0
10
288.441986
20
2.580000
30
-4.000000
11
288.441986
21
242.419998
31
-4.000000
12
289.765991
22
3.217300
32
-4.000000
13
289.765991
23
3.217300
33
-4.000000
0
3DFACE
8
0
10
292.558014
20
-2.580000
30
-4.000000
11
364.527008
21
-1.431800
31
-4.000000
12
365.441986
22
-2.580000
32
-4.000000
13
365.441986
23
-2.580000
33
-4.000000
0
3DFACE
8
0
10
292.558014
20
-2.580000
30
-4.000000
11
365.441986
21
-2.580000
31
-4.000000
12
366.765991
22
-3.217300
32
-4.000000
13
366.765991
23
-3.217300
33
-4.000000
0
3DFACE
8
0
10
292.558014
20
-2.580000
30
-4.000000
11
293.472992
21
-1.431800
31
-4.000000
12
364.527008
22
-1.431800
32
-4.000000
13
364.527008
23
-1.431800
33
-4.000000
0
3DFACE
8
0
10
287.527008
20
1.431800
30
-4.000000
11
287.527008
21
243.567993
31
-4.000000
12
288.441986
22
242.419998
32
-4.000000
13
288.441986
23
242.419998
33
-4.000000
0
3DFACE
8
0
10
287.527008
20
1.431800
30
-4.000000
11
0.734300
21
336.782990
31
-4.000000
12
287.527008
22
243.567993
32
-4.000000
13
287.527008
23
243.567993
33
-4.000000
0
3DFACE
8
0
10
287.527008
20
1.431800
30
-4.000000
11
288.441986
21
242.419998
31
-4.000000
12
288.441986
22
2.580000
32
-4.000000
13
288.441986
23
2.580000
33
-4.000000
0
3DFACE
8
0
10
291.234009
20
-3.217300
30
-4.000000
11
292.558014
21
-2.580000
31
-4.000000
12
366.765991
22
-3.217300
32
-4.000000
13
366.765991
23
-3.217300
33
-4.000000
0
3DFACE
8
0
10
287.200012
20
0.000000
30
-4.000000
11
-0.734300
21
336.782990
31
-4.000000
12
0.734300
22
336.782990
32
-4.000000
13
0.734300
23
336.782990
33
-4.000000
0
3DFACE
8
0
10
287.200012
20
0.000000
30
-4.000000
11
0.734300
21
336.782990
31
-4.000000
12
287.527008
22
1.431800
32
-4.000000
13
287.527008
23
1.431800
33
-4.000000
0
3DFACE
8
0
10
370.472992
20
-243.567993
30
-4.000000
11
369.558014
21
-242.419998
31
-4.000000
12
369.558014
22
-2.580000
32
-4.000000
13
369.558014
23
-2.580000
33
-4.000000
0
3DFACE
8
0
10
370.472992
20
-243.567993
30
-4.000000
11
369.558014
21
-2.580000
31
-4.000000
12
370.472992
22
-1.431800
32
-4.000000
13
370.472992
23
-1.431800
33
-4.000000
0
3DFACE
8
0
10
368.234009
20
-241.783005
30
-4.000000
11
369.558014
21
-2.580000
31
-4.000000
12
369.558014
22
-242.419998
32
-4.000000
13
369.558014
23
-242.419998
33
-4.000000
0
3DFACE
8
0
10
368.234009
20
-241.783005
30
-4.000000
11
366.765991
21
-3.217300
31
-4.000000
12
368.234009
22
-3.217300
32
-4.000000
13
368.234009
23
-3.217300
33
-4.000000
0
3DFACE
8
0
10
368.234009
20
-241.783005
30
-4.000000
11
368.234009
21
-3.217300
31
-4.000000
12
369.558014
22
-2.580000
32
-4.000000
13
369.558014
23
-2.580000
33
-4.000000
0
3DFACE
8
0
10
366.765991
20
-241.783005
30
-4.000000
11
366.765991
21
-3.217300
31
-4.000000
12
368.234009
22
-241.783005
32
-4.000000
13
368.234009
23
-241.783005
33
-4.000000
0
3DFACE
8
0
10
366.765991
20
-241.783005
30
-4.000000
11
291.234009
21
-3.217300
31
-4.000000
12
366.765991
22
-3.217300
32
-4.000000
13
366.765991
23
-3.217300
33
-4.000000
0
3DFACE
8
0
10
382.500000
20
-264.500000
30
-4.000000
11
370.472992
21
-243.567993
31
-4.000000
12
370.472992
22
-1.431800
32
-4.000000
13
370.472992
23
-1.431800
33
-4.000000
0
3DFACE
8
0
10
382.500000
20
-264.500000
30
-4.000000
11
370.472992
21
-1.431800
31
-4.000000
12
370.799988
22
0.000000
32
-4.000000
13
370.799988
23
0.000000
33
-4.000000
0
3DFACE
8
0
10
382.500000
20
-264.500000
30
-4.000000
11
370.799988
21
-245.000000
31
-4.000000
12
370.472992
22
-243.567993
32
-4.000000
13
370.472992
23
-243.567993
33
-4.000000
0
3DFACE
8
0
10
382.500000
20
-264.500000
30
-4.000000
11
366.765991
21
-248.216995
31
-4.000000
12
368.234009
22
-248.216995
32
-4.000000
13
368.234009
23
-248.216995
33
-4.000000
0
3DFACE
8
0
10
382.500000
20
-264.500000
30
-4.000000
11
368.234009
21
-248.216995
31
-4.000000
12
369.558014
22
-247.580002
32
-4.000000
13
369.558014
23
-247.580002
33
-4.000000
0
3DFACE
8
0
10
382.500000
20
-264.500000
30
-4.000000
11
369.558014
21
-247.580002
31
-4.000000
12
370.472992
22
-246.432007
32
-4.000000
13
370.472992
23
-246.432007
33
-4.000000
0
3DFACE
8
0
10
382.500000
20
-264.500000
30
-4.000000
11
370.472992
21
-246.432007
31
-4.000000
12
370.799988
22
-245.000000
32
-4.000000
13
370.799988
23
-245.000000
33
-4.000000
0
3DFACE
8
0
10
352.296997
20
-264.500000
30
-4.000000
11
366.765991
21
-248.216995
31
-4.000000
12
382.500000
22
-264.500000
32
-4.000000
13
382.500000
23
-264.500000
33
-4.000000
0
3DFACE
8
0
10
352.296997
20
-264.500000
30
-4.000000
11
364.200012
21
-245.000000
31
-4.000000
12
364.527008
22
-246.432007
32
-4.000000
13
364.527008
23
-246.432007
33
-4.000000
0
3DFACE
8
0
10
352.296997
20
-264.500000
30
-4.000000
11
364.527008
21
-246.432007
31
-4.000000
12
365.441986
22
-247.580002
32
-4.000000
13
365.441986
23
-247.580002
33
-4.000000
0
3DFACE
8
0
10
352.296997
20
-264.500000
30
-4.000000
11
365.441986
21
-247.580002
31
-4.000000
12
366.765991
22
-248.216995
32
-4.000000
13
366.765991
23
-248.216995
33
-4.000000
0
3DFACE
8
0
10
-269.527008
20
341.432007
30
-4.000000
11
-2.057500
21
342.579987
31
-4.000000
12
-2.973200
22
341.432007
32
-4.000000
13
-2.973200
23
341.432007
33
-4.000000
0
3DFACE
8
0
10
-269.527008
20
341.432007
30
-4.000000
11
-2.973200
21
341.432007
31
-4.000000
12
-3.300000
22
340.000000
32
-4.000000
13
-3.300000
23
340.000000
33
-4.000000
0
3DFACE
8
0
10
-269.527008
20
341.432007
30
-4.000000
11
-270.441986
21
342.579987
31
-4.000000
12
-2.057500
22
342.579987
32
-4.000000
13
-2.057500
23
342.579987
33
-4.000000
0
3DFACE
8
0
10
-269.200012
20
340.000000
30
-4.000000
11
-3.300000
21
340.000000
31
-4.000000
12
-2.973200
22
338.567993
32
-4.000000
13
-2.973200
23
338.567993
33
-4.000000
0
3DFACE
8
0
10
-269.200012
20
340.000000
30
-4.000000
11
-269.527008
21
341.432007
31
-4.000000
12
-3.300000
22
340.000000
32
-4.000000
13
-3.300000
23
340.000000
33
-4.000000
0
3DFACE
8
0
10
-269.527008
20
338.567993
30
-4.000000
11
-269.200012
21
340.000000
31
-4.000000
12
-2.973200
22
338.567993
32
-4.000000
13
-2.973200
23
338.567993
33
-4.000000
0
3DFACE
8
0
10
-270.441986
20
337.420013
30
-4.000000
11
-2.973200
21
338.567993
31
-4.000000
12
-2.057500
22
337.420013
32
-4.000000
13
-2.057500
23
337.420013
33
-4.000000
0
3DFACE
8
0
10
-270.441986
20
337.420013
30
-4.000000
11
-269.527008
21
338.567993
31
-4.000000
12
-2.973200
22
338.567993
32
-4.000000
13
-2.973200
23
338.567993
33
-4.000000
0
3DFACE
8
0
10
-292.000000
20
355.000000
30
-4.000000
11
-270.441986
21
342.579987
31
-4.000000
12
-271.765991
22
343.217010
32
-4.000000
13
-271.765991
23
343.217010
33
-4.000000
0
3DFACE
8
0
10
-292.000000
20
355.000000
30
-4.000000
11
-271.765991
21
343.217010
31
-4.000000
12
-273.234009
22
343.217010
32
-4.000000
13
-273.234009
23
343.217010
33
-4.000000
0
3DFACE
8
0
10
-292.000000
20
355.000000
30
-4.000000
11
-273.234009
21
343.217010
31
-4.000000
12
-274.558014
22
342.579987
32
-4.000000
13
-274.558014
23
342.579987
33
-4.000000
0
3DFACE
8
0
10
-292.000000
20
355.000000
30
-4.000000
11
-274.558014
21
342.579987
31
-4.000000
12
-275.472992
22
341.432007
32
-4.000000
13
-275.472992
23
341.432007
33
-4.000000
0
3DFACE
8
0
10
-292.000000
20
355.000000
30
-4.000000
11
-275.472992
21
341.432007
31
-4.000000
12
-275.799988
22
340.000000
32
-4.000000
13
-275.799988
23
340.000000
33
-4.000000
0
3DFACE
8
0
10
-292.000000
20
355.000000
30
-4.000000
11
-0.734300
21
343.217010
31
-4.000000
12
-2.057500
22
342.579987
32
-4.000000
13
-2.057500
23
342.579987
33
-4.000000
0
3DFACE
8
0
10
-292.000000
20
355.000000
30
-4.000000
11
-2.057500
21
342.579987
31
-4.000000
12
-270.441986
22
342.579987
32
-4.000000
13
-270.441986
23
342.579987
33
-4.000000
0
3DFACE
8
0
10
292.558014
20
-242.419998
30
-4.000000
11
366.765991
21
-241.783005
31
-4.000000
12
365.441986
22
-242.419998
32
-4.000000
13
365.441986
23
-242.419998
33
-4.000000
0
3DFACE
8
0
10
293.472992
20
-243.567993
30
-4.000000
11
292.558014
21
-242.419998
31
-4.000000
12
365.441986
22
-242.419998
32
-4.000000
13
365.441986
23
-242.419998
33
-4.000000
0
3DFACE
8
0
10
293.472992
20
-243.567993
30
-4.000000
11
365.441986
21
-242.419998
31
-4.000000
12
364.527008
22
-243.567993
32
-4.000000
13
364.527008
23
-243.567993
33
-4.000000
0
3DFACE
8
0
10
291.234009
20
-241.783005
30
-4.000000
11
291.234009
21
-3.217300
31
-4.000000
12
366.765991
22
-241.783005
32
-4.000000
13
366.765991
23
-241.783005
33
-4.000000
0
3DFACE
8
0
10
291.234009
20
-241.783005
30
-4.000000
11
366.765991
21
-241.783005
31
-4.000000
12
292.558014
22
-242.419998
32
-4.000000
13
292.558014
23
-242.419998
33
-4.000000
0
3DFACE
8
0
10
293.799988
20
-245.000000
30
-4.000000
11
364.200012
21
-245.000000
31
-4.000000
12
352.296997
22
-264.500000
32
-4.000000
13
352.296997
23
-264.500000
33
-4.000000
0
3DFACE
8
0
10
293.799988
20
-245.000000
30
-4.000000
11
293.472992
21
-243.567993
31
-4.000000
12
364.527008
22
-243.567993
32
-4.000000
13
364.527008
23
-243.567993
33
-4.000000
0
3DFACE
8
0
10
293.799988
20
-245.000000
30
-4.000000
11
364.527008
21
-243.567993
31
-4.000000
12
364.200012
22
-245.000000
32
-4.000000
13
364.200012
23
-245.000000
33
-4.000000
0
3DFACE
8
0
10
289.765991
20
-241.783005
30
-4.000000
11
291.234009
21
-3.217300
31
-4.000000
12
291.234009
22
-241.783005
32
-4.000000
13
291.234009
23
-241.783005
33
-4.000000
0
3DFACE
8
0
10
289.765991
20
-241.783005
30
-4.000000
11
289.765991
21
-3.217300
31
-4.000000
12
291.234009
22
-3.217300
32
-4.000000
13
291.234009
23
-3.217300
33
-4.000000
0
3DFACE
8
0
10
293.472992
20
-246.432007
30
-4.000000
11
293.799988
21
-245.000000
31
-4.000000
12
352.296997
22
-264.500000
32
-4.000000
13
352.296997
23
-264.500000
33
-4.000000
0
3DFACE
8
0
10
288.441986
20
-242.419998
30
-4.000000
11
289.765991
21
-3.217300
31
-4.000000
12
289.765991
22
-241.783005
32
-4.000000
13
289.765991
23
-241.783005
33
-4.000000
0
3DFACE
8
0
10
288.441986
20
-242.419998
30
-4.000000
11
288.441986
21
-2.580000
31
-4.000000
12
289.765991
22
-3.217300
32
-4.000000
13
289.765991
23
-3.217300
33
-4.000000
0
3DFACE
8
0
10
292.558014
20
-247.580002
30
-4.000000
11
293.472992
21
-246.432007
31
-4.000000
12
352.296997
22
-264.500000
32
-4.000000
13
352.296997
23
-264.500000
33
-4.000000
0
3DFACE
8
0
10
287.527008
20
-243.567993
30
-4.000000
11
288.441986
21
-2.580000
31
-4.000000
12
288.441986
22
-242.419998
32
-4.000000
13
288.441986
23
-242.419998
33
-4.000000
0
3DFACE
8
0
10
287.527008
20
-243.567993
30
-4.000000
11
287.527008
21
-1.431800
31
-4.000000
12
288.441986
22
-2.580000
32
-4.000000
13
288.441986
23
-2.580000
33
-4.000000
0
3DFACE
8
0
10
-292.000000
20
324.796997
30
-4.000000
11
-275.799988
21
340.000000
31
-4.000000
12
-275.472992
22
338.567993
32
-4.000000
13
-275.472992
23
338.567993
33
-4.000000
0
3DFACE
8
0
10
-292.000000
20
324.796997
30
-4.000000
11
-275.472992
21
338.567993
31
-4.000000
12
-274.558014
22
337.420013
32
-4.000000
13
-274.558014
23
337.420013
33
-4.000000
0
3DFACE
8
0
10
-292.000000
20
324.796997
30
-4.000000
11
-274.558014
21
337.420013
31
-4.000000
12
-273.234009
22
336.782990
32
-4.000000
13
-273.234009
23
336.782990
33
-4.000000
0
3DFACE
8
0
10
-292.000000
20
324.796997
30
-4.000000
11
-273.234009
21
336.782990
31
-4.000000
12
-271.765991
22
336.782990
32
-4.000000
13
-271.765991
23
336.782990
33
-4.000000
0
3DFACE
8
0
10
-292.000000
20
324.796997
30
-4.000000
11
-271.765991
21
336.782990
31
-4.000000
12
-270.441986
22
337.420013
32
-4.000000
13
-270.441986
23
337.420013
33
-4.000000
0
3DFACE
8
0
10
-292.000000
20
324.796997
30
-4.000000
11
-292.000000
21
355.000000
31
-4.000000
12
-275.799988
22
340.000000
32
-4.000000
13
-275.799988
23
340.000000
33
-4.000000
0
3DFACE
8
0
10
292.000000
20
-324.796997
30
-4.000000
11
288.441986
21
-247.580002
31
-4.000000
12
289.765991
22
-248.216995
32
-4.000000
13
289.765991
23
-248.216995
33
-4.000000
0
3DFACE
8
0
10
292.000000
20
-324.796997
30
-4.000000
11
289.765991
21
-248.216995
31
-4.000000
12
291.234009
22
-248.216995
32
-4.000000
13
291.234009
23
-248.216995
33
-4.000000
0
3DFACE
8
0
10
292.000000
20
-324.796997
30
-4.000000
11
291.234009
21
-248.216995
31
-4.000000
12
292.558014
22
-247.580002
32
-4.000000
13
292.558014
23
-247.580002
33
-4.000000
0
3DFACE
8
0
10
292.000000
20
-324.796997
30
-4.000000
11
292.558014
21
-247.580002
31
-4.000000
12
352.296997
22
-264.500000
32
-4.000000
13
352.296997
23
-264.500000
33
-4.000000
0
3DFACE
8
0
10
275.472992
20
-338.567993
30
-4.000000
11
274.558014
21
-337.420013
31
-4.000000
12
292.000000
22
-324.796997
32
-4.000000
13
292.000000
23
-324.796997
33
-4.000000
0
3DFACE
8
0
10
273.234009
20
-336.782990
30
-4.000000
11
292.000000
21
-324.796997
31
-4.000000
12
274.558014
22
-337.420013
32
-4.000000
13
274.558014
23
-337.420013
33
-4.000000
0
3DFACE
8
0
10
275.799988
20
-340.000000
30
-4.000000
11
292.000000
21
-324.796997
31
-4.000000
12
292.000000
22
-355.000000
32
-4.000000
13
292.000000
23
-355.000000
33
-4.000000
0
3DFACE
8
0
10
275.799988
20
-340.000000
30
-4.000000
11
275.472992
21
-338.567993
31
-4.000000
12
292.000000
22
-324.796997
32
-4.000000
13
292.000000
23
-324.796997
33
-4.000000
0
3DFACE
8
0
10
271.765991
20
-336.782990
30
-4.000000
11
288.441986
21
-247.580002
31
-4.000000
12
292.000000
22
-324.796997
32
-4.000000
13
292.000000
23
-324.796997
33
-4.000000
0
3DFACE
8
0
10
271.765991
20
-336.782990
30
-4.000000
11
292.000000
21
-324.796997
31
-4.000000
12
273.234009
22
-336.782990
32
-4.000000
13
273.234009
23
-336.782990
33
-4.000000
0
3DFACE
8
0
10
275.472992
20
-341.432007
30
-4.000000
11
275.799988
21
-340.000000
31
-4.000000
12
292.000000
22
-355.000000
32
-4.000000
13
292.000000
23
-355.000000
33
-4.000000
0
3DFACE
8
0
10
270.441986
20
-337.420013
30
-4.000000
11
287.527008
21
-246.432007
31
-4.000000
12
288.441986
22
-247.580002
32
-4.000000
13
288.441986
23
-247.580002
33
-4.000000
0
3DFACE
8
0
10
270.441986
20
-337.420013
30
-4.000000
11
288.441986
21
-247.580002
31
-4.000000
12
271.765991
22
-336.782990
32
-4.000000
13
271.765991
23
-336.782990
33
-4.000000
0
3DFACE
8
0
10
274.558014
20
-342.579987
30
-4.000000
11
275.472992
21
-341.432007
31
-4.000000
12
292.000000
22
-355.000000
32
-4.000000
13
292.000000
23
-355.000000
33
-4.000000
0
3DFACE
8
0
10
269.527008
20
-338.567993
30
-4.000000
11
287.200012
21
-245.000000
31
-4.000000
12
287.527008
22
-246.432007
32
-4.000000
13
287.527008
23
-246.432007
33
-4.000000
0
3DFACE
8
0
10
269.527008
20
-338.567993
30
-4.000000
11
287.527008
21
-246.432007
31
-4.000000
12
270.441986
22
-337.420013
32
-4.000000
13
270.441986
23
-337.420013
33
-4.000000
0
3DFACE
8
0
10
273.234009
20
-343.217010
30
-4.000000
11
274.558014
21
-342.579987
31
-4.000000
12
292.000000
22
-355.000000
32
-4.000000
13
292.000000
23
-355.000000
33
-4.000000
0
3DFACE
8
0
10
271.765991
20
-343.217010
30
-4.000000
11
273.234009
21
-343.217010
31
-4.000000
12
292.000000
22
-355.000000
32
-4.000000
13
292.000000
23
-355.000000
33
-4.000000
0
3DFACE
8
0
10
270.441986
20
-342.579987
30
-4.000000
11
271.765991
21
-343.217010
31
-4.000000
12
292.000000
22
-355.000000
32
-4.000000
13
292.000000
23
-355.000000
33
-4.000000
0
3DFACE
8
0
10
-364.527008
20
190.932007
30
-4.000000
11
-365.441986
21
192.080002
31
-4.000000
12
-352.296997
22
264.500000
32
-4.000000
13
-352.296997
23
264.500000
33
-4.000000
0
3DFACE
8
0
10
-366.765991
20
192.716995
30
-4.000000
11
-382.500000
21
264.500000
31
-4.000000
12
-352.296997
22
264.500000
32
-4.000000
13
-352.296997
23
264.500000
33
-4.000000
0
3DFACE
8
0
10
-366.765991
20
192.716995
30
-4.000000
11
-352.296997
21
264.500000
31
-4.000000
12
-365.441986
22
192.080002
32
-4.000000
13
-365.441986
23
192.080002
33
-4.000000
0
3DFACE
8
0
10
-364.200012
20
189.500000
30
-4.000000
11
-352.296997
21
264.500000
31
-4.000000
12
-292.000000
22
324.796997
32
-4.000000
13
-292.000000
23
324.796997
33
-4.000000
0
3DFACE
8
0
10
-364.200012
20
189.500000
30
-4.000000
11
-364.527008
21
190.932007
31
-4.000000
12
-352.296997
22
264.500000
32
-4.000000
13
-352.296997
23
264.500000
33
-4.000000
0
3DFACE
8
0
10
-364.200012
20
189.500000
30
-4.000000
11
-270.441986
21
337.420013
31
-4.000000
12
-2.057500
22
337.420013
32
-4.000000
13
-2.057500
23
337.420013
33
-4.000000
0
3DFACE
8
0
10
-364.200012
20
189.500000
30
-4.000000
11
-292.000000
21
324.796997
31
-4.000000
12
-270.441986
22
337.420013
32
-4.000000
13
-270.441986
23
337.420013
33
-4.000000
0
3DFACE
8
0
10
-368.234009
20
192.716995
30
-4.000000
11
-382.500000
21
264.500000
31
-4.000000
12
-366.765991
22
192.716995
32
-4.000000
13
-366.765991
23
192.716995
33
-4.000000
0
3DFACE
8
0
10
-364.527008
20
188.067993
30
-4.000000
11
-364.200012
21
189.500000
31
-4.000000
12
-2.057500
22
337.420013
32
-4.000000
13
-2.057500
23
337.420013
33
-4.000000
0
3DFACE
8
0
10
-364.527008
20
188.067993
30
-4.000000
11
-2.057500
21
337.420013
31
-4.000000
12
-0.734300
22
336.782990
32
-4.000000
13
-0.734300
23
336.782990
33
-4.000000
0
3DFACE
8
0
10
-369.558014
20
192.080002
30
-4.000000
11
-382.500000
21
264.500000
31
-4.000000
12
-368.234009
22
192.716995
32
-4.000000
13
-368.234009
23
192.716995
33
-4.000000
0
3DFACE
8
0
10
-370.472992
20
190.932007
30
-4.000000
11
-382.500000
21
264.500000
31
-4.000000
12
-369.558014
22
192.080002
32
-4.000000
13
-369.558014
23
192.080002
33
-4.000000
0
3DFACE
8
0
10
-370.799988
20
189.500000
30
-4.000000
11
-382.500000
21
264.500000
31
-4.000000
12
-370.472992
22
190.932007
32
-4.000000
13
-370.472992
23
190.932007
33
-4.000000
0
3DFACE
8
0
10
2.057500
20
-337.420013
30
-4.000000
11
287.527008
21
-243.567993
31
-4.000000
12
287.200012
22
-245.000000
32
-4.000000
13
287.200012
23
-245.000000
33
-4.000000
0
3DFACE
8
0
10
2.973200
20
-338.567993
30
-4.000000
11
2.057500
21
-337.420013
31
-4.000000
12
287.200012
22
-245.000000
32
-4.000000
13
287.200012
23
-245.000000
33
-4.000000
0
3DFACE
8
0
10
2.973200
20
-338.567993
30
-4.000000
11
287.200012
21
-245.000000
31
-4.000000
12
269.527008
22
-338.567993
32
-4.000000
13
269.527008
23
-338.567993
33
-4.000000
0
3DFACE
8
0
10
0.734300
20
-336.782990
30
-4.000000
11
287.527008
21
-1.431800
31
-4.000000
12
287.527008
22
-243.567993
32
-4.000000
13
287.527008
23
-243.567993
33
-4.000000
0
3DFACE
8
0
10
0.734300
20
-336.782990
30
-4.000000
11
287.527008
21
-243.567993
31
-4.000000
12
2.057500
22
-337.420013
32
-4.000000
13
2.057500
23
-337.420013
33
-4.000000
0
3DFACE
8
0
10
0.734300
20
-336.782990
30
-4.000000
11
287.200012
21
0.000000
31
-4.000000
12
287.527008
22
-1.431800
32
-4.000000
13
287.527008
23
-1.431800
33
-4.000000
0
3DFACE
8
0
10
3.300000
20
-340.000000
30
-4.000000
11
2.973200
21
-338.567993
31
-4.000000
12
269.527008
22
-338.567993
32
-4.000000
13
269.527008
23
-338.567993
33
-4.000000
0
3DFACE
8
0
10
3.300000
20
-340.000000
30
-4.000000
11
269.527008
21
-338.567993
31
-4.000000
12
269.200012
22
-340.000000
32
-4.000000
13
269.200012
23
-340.000000
33
-4.000000
0
3DFACE
8
0
10
-0.734300
20
-336.782990
30
-4.000000
11
287.200012
21
0.000000
31
-4.000000
12
0.734300
22
-336.782990
32
-4.000000
13
0.734300
23
-336.782990
33
-4.000000
0
3DFACE
8
0
10
2.973200
20
-341.432007
30
-4.000000
11
3.300000
21
-340.000000
31
-4.000000
12
269.200012
22
-340.000000
32
-4.000000
13
269.200012
23
-340.000000
33
-4.000000
0
3DFACE
8
0
10
2.973200
20
-341.432007
30
-4.000000
11
269.200012
21
-340.000000
31
-4.000000
12
269.527008
22
-341.432007
32
-4.000000
13
269.527008
23
-341.432007
33
-4.000000
0
3DFACE
8
0
10
2.973200
20
-341.432007
30
-4.000000
11
269.527008
21
-341.432007
31
-4.000000
12
270.441986
22
-342.579987
32
-4.000000
13
270.441986
23
-342.579987
33
-4.000000
0
3DFACE
8
0
10
2.057500
20
-342.579987
30
-4.000000
11
270.441986
21
-342.579987
31
-4.000000
12
292.000000
22
-355.000000
32
-4.000000
13
292.000000
23
-355.000000
33
-4.000000
0
3DFACE
8
0
10
2.057500
20
-342.579987
30
-4.000000
11
2.973200
21
-341.432007
31
-4.000000
12
270.441986
22
-342.579987
32
-4.000000
13
270.441986
23
-342.579987
33
-4.000000
0
3DFACE
8
0
10
0.734300
20
-343.217010
30
-4.000000
11
2.057500
21
-342.579987
31
-4.000000
12
292.000000
22
-355.000000
32
-4.000000
13
292.000000
23
-355.000000
33
-4.000000
0
3DFACE
8
0
10
-364.527008
20
1.431800
30
-4.000000
11
-365.441986
21
186.919998
31
-4.000000
12
-364.527008
22
188.067993
32
-4.000000
13
-364.527008
23
188.067993
33
-4.000000
0
3DFACE
8
0
10
-364.527008
20
1.431800
30
-4.000000
11
-364.527008
21
188.067993
31
-4.000000
12
-0.734300
22
336.782990
32
-4.000000
13
-0.734300
23
336.782990
33
-4.000000
0
3DFACE
8
0
10
-364.527008
20
1.431800
30
-4.000000
11
-365.441986
21
2.580000
31
-4.000000
12
-365.441986
22
186.919998
32
-4.000000
13
-365.441986
23
186.919998
33
-4.000000
0
3DFACE
8
0
10
-366.765991
20
3.217300
30
-4.000000
11
-368.234009
21
186.283005
31
-4.000000
12
-366.765991
22
186.283005
32
-4.000000
13
-366.765991
23
186.283005
33
-4.000000
0
3DFACE
8
0
10
-366.765991
20
3.217300
30
-4.000000
11
-366.765991
21
186.283005
31
-4.000000
12
-365.441986
22
186.919998
32
-4.000000
13
-365.441986
23
186.919998
33
-4.000000
0
3DFACE
8
0
10
-366.765991
20
3.217300
30
-4.000000
11
-365.441986
21
186.919998
31
-4.000000
12
-365.441986
22
2.580000
32
-4.000000
13
-365.441986
23
2.580000
33
-4.000000
0
3DFACE
8
0
10
-364.200012
20
0.000000
30
-4.000000
11
-364.527008
21
1.431800
31
-4.000000
12
-0.734300
22
336.782990
32
-4.000000
13
-0.734300
23
336.782990
33
-4.000000
0
3DFACE
8
0
10
-364.200012
20
0.000000
30
-4.000000
11
287.200012
21
0.000000
31
-4.000000
12
-0.734300
22
-336.782990
32
-4.000000
13
-0.734300
23
-336.782990
33
-4.000000
0
3DFACE
8
0
10
-364.200012
20
0.000000
30
-4.000000
11
-0.734300
21
336.782990
31
-4.000000
12
287.200012
22
0.000000
32
-4.000000
13
287.200012
23
0.000000
33
-4.000000
0
3DFACE
8
0
10
-368.234009
20
3.217300
30
-4.000000
11
-369.558014
21
186.919998
31
-4.000000
12
-368.234009
22
186.283005
32
-4.000000
13
-368.234009
23
186.283005
33
-4.000000
0
3DFACE
8
0
10
-368.234009
20
3.217300
30
-4.000000
11
-368.234009
21
186.283005
31
-4.000000
12
-366.765991
22
3.217300
32
-4.000000
13
-366.765991
23
3.217300
33
-4.000000
0
3DFACE
8
0
10
-364.527008
20
-1.431800
30
-4.000000
11
-364.200012
21
0.000000
31
-4.000000
12
-0.734300
22
-336.782990
32
-4.000000
13
-0.734300
23
-336.782990
33
-4.000000
0
3DFACE
8
0
10
-369.558014
20
2.580000
30
-4.000000
11
-369.558014
21
186.919998
31
-4.000000
12
-368.234009
22
3.217300
32
-4.000000
13
-368.234009
23
3.217300
33
-4.000000
0
3DFACE
8
0
10
-370.472992
20
1.431800
30
-4.000000
11
-370.472992
21
188.067993
31
-4.000000
12
-369.558014
22
186.919998
32
-4.000000
13
-369.558014
23
186.919998
33
-4.000000
0
3DFACE
8
0
10
-370.472992
20
1.431800
30
-4.000000
11
-369.558014
21
186.919998
31
-4.000000
12
-369.558014
22
2.580000
32
-4.000000
13
-369.558014
23
2.580000
33
-4.000000
0
3DFACE
8
0
10
-364.527008
20
-188.067993
30
-4.000000
11
-365.441986
21
-186.919998
31
-4.000000
12
-365.441986
22
-2.580000
32
-4.000000
13
-365.441986
23
-2.580000
33
-4.000000
0
3DFACE
8
0
10
-364.527008
20
-188.067993
30
-4.000000
11
-365.441986
21
-2.580000
31
-4.000000
12
-364.527008
22
-1.431800
32
-4.000000
13
-364.527008
23
-1.431800
33
-4.000000
0
3DFACE
8
0
10
-364.527008
20
-188.067993
30
-4.000000
11
-0.734300
21
-336.782990
31
-4.000000
12
-2.057500
22
-337.420013
32
-4.000000
13
-2.057500
23
-337.420013
33
-4.000000
0
3DFACE
8
0
10
-364.527008
20
-188.067993
30
-4.000000
11
-364.527008
21
-1.431800
31
-4.000000
12
-0.734300
22
-336.782990
32
-4.000000
13
-0.734300
23
-336.782990
33
-4.000000
0
3DFACE
8
0
10
-366.765991
20
-186.283005
30
-4.000000
11
-365.441986
21
-2.580000
31
-4.000000
12
-365.441986
22
-186.919998
32
-4.000000
13
-365.441986
23
-186.919998
33
-4.000000
0
3DFACE
8
0
10
-366.765991
20
-186.283005
30
-4.000000
11
-368.234009
21
-3.217300
31
-4.000000
12
-366.765991
22
-3.217300
32
-4.000000
13
-366.765991
23
-3.217300
33
-4.000000
0
3DFACE
8
0
10
-366.765991
20
-186.283005
30
-4.000000
11
-366.765991
21
-3.217300
31
-4.000000
12
-365.441986
22
-2.580000
32
-4.000000
13
-365.441986
23
-2.580000
33
-4.000000
0
3DFACE
8
0
10
-364.200012
20
-189.500000
30
-4.000000
11
-364.527008
21
-188.067993
31
-4.000000
12
-2.057500
22
-337.420013
32
-4.000000
13
-2.057500
23
-337.420013
33
-4.000000
0
3DFACE
8
0
10
-368.234009
20
-186.283005
30
-4.000000
11
-368.234009
21
-3.217300
31
-4.000000
12
-366.765991
22
-186.283005
32
-4.000000
13
-366.765991
23
-186.283005
33
-4.000000
0
3DFACE
8
0
10
-368.234009
20
-186.283005
30
-4.000000
11
-369.558014
21
-2.580000
31
-4.000000
12
-368.234009
22
-3.217300
32
-4.000000
13
-368.234009
23
-3.217300
33
-4.000000
0
3DFACE
8
0
10
-369.558014
20
-186.919998
30
-4.000000
11
-369.558014
21
-2.580000
31
-4.000000
12
-368.234009
22
-186.283005
32
-4.000000
13
-368.234009
23
-186.283005
33
-4.000000
0
3DFACE
8
0
10
-370.472992
20
-188.067993
30
-4.000000
11
-369.558014
21
-2.580000
31
-4.000000
12
-369.558014
22
-186.919998
32
-4.000000
13
-369.558014
23
-186.919998
33
-4.000000
0
3DFACE
8
0
10
-370.472992
20
-188.067993
30
-4.000000
11
-370.472992
21
-1.431800
31
-4.000000
12
-369.558014
22
-2.580000
32
-4.000000
13
-369.558014
23
-2.580000
33
-4.000000
0
3DFACE
8
0
10
-270.441986
20
-337.420013
30
-4.000000
11
-364.200012
21
-189.500000
31
-4.000000
12
-2.057500
22
-337.420013
32
-4.000000
13
-2.057500
23
-337.420013
33
-4.000000
0
3DFACE
8
0
10
-269.527008
20
-338.567993
30
-4.000000
11
-270.441986
21
-337.420013
31
-4.000000
12
-2.057500
22
-337.420013
32
-4.000000
13
-2.057500
23
-337.420013
33
-4.000000
0
3DFACE
8
0
10
-269.527008
20
-338.567993
30
-4.000000
11
-2.057500
21
-337.420013
31
-4.000000
12
-2.973200
22
-338.567993
32
-4.000000
13
-2.973200
23
-338.567993
33
-4.000000
0
3DFACE
8
0
10
-269.200012
20
-340.000000
30
-4.000000
11
-269.527008
21
-338.567993
31
-4.000000
12
-2.973200
22
-338.567993
32
-4.000000
13
-2.973200
23
-338.567993
33
-4.000000
0
3DFACE
8
0
10
-269.200012
20
-340.000000
30
-4.000000
11
-2.973200
21
-338.567993
31
-4.000000
12
-3.300000
22
-340.000000
32
-4.000000
13
-3.300000
23
-340.000000
33
-4.000000
0
3DFACE
8
0
10
-269.200012
20
-340.000000
30
-4.000000
11
-3.300000
21
-340.000000
31
-4.000000
12
-2.973200
22
-341.432007
32
-4.000000
13
-2.973200
23
-341.432007
33
-4.000000
0
3DFACE
8
0
10
-269.527008
20
-341.432007
30
-4.000000
11
-269.200012
21
-340.000000
31
-4.000000
12
-2.973200
22
-341.432007
32
-4.000000
13
-2.973200
23
-341.432007
33
-4.000000
0
3DFACE
8
0
10
-270.441986
20
-342.579987
30
-4.000000
11
-269.527008
21
-341.432007
31
-4.000000
12
-2.973200
22
-341.432007
32
-4.000000
13
-2.973200
23
-341.432007
33
-4.000000
0
3DFACE
8
0
10
-270.441986
20
-342.579987
30
-4.000000
11
-2.973200
21
-341.432007
31
-4.000000
12
-2.057500
22
-342.579987
32
-4.000000
13
-2.057500
23
-342.579987
33
-4.000000
0
3DFACE
8
0
10
-292.000000
20
-324.796997
30
-4.000000
11
-364.200012
21
-189.500000
31
-4.000000
12
-270.441986
22
-337.420013
32
-4.000000
13
-270.441986
23
-337.420013
33
-4.000000
0
3DFACE
8
0
10
-292.000000
20
-324.796997
30
-4.000000
11
-270.441986
21
-337.420013
31
-4.000000
12
-271.765991
22
-336.782990
32
-4.000000
13
-271.765991
23
-336.782990
33
-4.000000
0
3DFACE
8
0
10
-292.000000
20
-324.796997
30
-4.000000
11
-271.765991
21
-336.782990
31
-4.000000
12
-273.234009
22
-336.782990
32
-4.000000
13
-273.234009
23
-336.782990
33
-4.000000
0
3DFACE
8
0
10
-292.000000
20
-324.796997
30
-4.000000
11
-273.234009
21
-336.782990
31
-4.000000
12
-274.558014
22
-337.420013
32
-4.000000
13
-274.558014
23
-337.420013
33
-4.000000
0
3DFACE
8
0
10
-292.000000
20
-324.796997
30
-4.000000
11
-274.558014
21
-337.420013
31
-4.000000
12
-275.472992
22
-338.567993
32
-4.000000
13
-275.472992
23
-338.567993
33
-4.000000
0
3DFACE
8
0
10
-292.000000
20
-324.796997
30
-4.000000
11
-275.472992
21
-338.567993
31
-4.000000
12
-275.799988
22
-340.000000
32
-4.000000
13
-275.799988
23
-340.000000
33
-4.000000
0
3DFACE
8
0
10
-352.296997
20
-264.500000
30
-4.000000
11
-364.200012
21
-189.500000
31
-4.000000
12
-292.000000
22
-324.796997
32
-4.000000
13
-292.000000
23
-324.796997
33
-4.000000
0
3DFACE
8
0
10
-352.296997
20
-264.500000
30
-4.000000
11
-366.765991
21
-192.716995
31
-4.000000
12
-365.441986
22
-192.080002
32
-4.000000
13
-365.441986
23
-192.080002
33
-4.000000
0
3DFACE
8
0
10
-352.296997
20
-264.500000
30
-4.000000
11
-365.441986
21
-192.080002
31
-4.000000
12
-364.527008
22
-190.932007
32
-4.000000
13
-364.527008
23
-190.932007
33
-4.000000
0
3DFACE
8
0
10
-352.296997
20
-264.500000
30
-4.000000
11
-364.527008
21
-190.932007
31
-4.000000
12
-364.200012
22
-189.500000
32
-4.000000
13
-364.200012
23
-189.500000
33
-4.000000
0
3DFACE
8
0
10
-382.500000
20
-264.500000
30
-4.000000
11
-366.765991
21
-192.716995
31
-4.000000
12
-352.296997
22
-264.500000
32
-4.000000
13
-352.296997
23
-264.500000
33
-4.000000
0
3DFACE
8
0
10
-382.500000
20
-264.500000
30
-4.000000
11
-370.799988
21
-189.500000
31
-4.000000
12
-370.472992
22
-190.932007
32
-4.000000
13
-370.472992
23
-190.932007
33
-4.000000
0
3DFACE
8
0
10
-382.500000
20
-264.500000
30
-4.000000
11
-370.472992
21
-190.932007
31
-4.000000
12
-369.558014
22
-192.080002
32
-4.000000
13
-369.558014
23
-192.080002
33
-4.000000
0
3DFACE
8
0
10
-382.500000
20
-264.500000
30
-4.000000
11
-369.558014
21
-192.080002
31
-4.000000
12
-368.234009
22
-192.716995
32
-4.000000
13
-368.234009
23
-192.716995
33
-4.000000
0
3DFACE
8
0
10
-382.500000
20
-264.500000
30
-4.000000
11
-368.234009
21
-192.716995
31
-4.000000
12
-366.765991
22
-192.716995
32
-4.000000
13
-366.765991
23
-192.716995
33
-4.000000
0
3DFACE
8
0
10
-292.000000
20
-355.000000
30
-4.000000
11
-292.000000
21
-324.796997
31
-4.000000
12
-275.799988
22
-340.000000
32
-4.000000
13
-275.799988
23
-340.000000
33
-4.000000
0
3DFACE
8
0
10
-292.000000
20
-355.000000
30
-4.000000
11
-270.441986
21
-342.579987
31
-4.000000
12
-2.057500
22
-342.579987
32
-4.000000
13
-2.057500
23
-342.579987
33
-4.000000
0
3DFACE
8
0
10
-292.000000
20
-355.000000
30
-4.000000
11
-2.057500
21
-342.579987
31
-4.000000
12
-0.734300
22
-343.217010
32
-4.000000
13
-0.734300
23
-343.217010
33
-4.000000
0
3DFACE
8
0
10
-292.000000
20
-355.000000
30
-4.000000
11
-275.799988
21
-340.000000
31
-4.000000
12
-275.472992
22
-341.432007
32
-4.000000
13
-275.472992
23
-341.432007
33
-4.000000
0
3DFACE
8
0
10
-292.000000
20
-355.000000
30
-4.000000
11
-275.472992
21
-341.432007
31
-4.000000
12
-274.558014
22
-342.579987
32
-4.000000
13
-274.558014
23
-342.579987
33
-4.000000
0
3DFACE
8
0
10
-292.000000
20
-355.000000
30
-4.000000
11
-274.558014
21
-342.579987
31
-4.000000
12
-273.234009
22
-343.217010
32
-4.000000
13
-273.234009
23
-343.217010
33
-4.000000
0
3DFACE
8
0
10
-292.000000
20
-355.000000
30
-4.000000
11
-273.234009
21
-343.217010
31
-4.000000
12
-271.765991
22
-343.217010
32
-4.000000
13
-271.765991
23
-343.217010
33
-4.000000
0
3DFACE
8
0
10
-292.000000
20
-355.000000
30
-4.000000
11
-271.765991
21
-343.217010
31
-4.000000
12
-270.441986
22
-342.579987
32
-4.000000
13
-270.441986
23
-342.579987
33
-4.000000
0
3DFACE
8
0
10
-292.000000
20
355.000000
30
-4.000000
11
292.000000
21
355.000000
31
-4.000000
12
0.734300
22
343.217010
32
-4.000000
13
0.734300
23
343.217010
33
-4.000000
0
3DFACE
8
0
10
-292.000000
20
355.000000
30
-4.000000
11
0.734300
21
343.217010
31
-4.000000
12
-0.734300
22
343.217010
32
-4.000000
13
-0.734300
23
343.217010
33
-4.000000
0
3DFACE
8
0
10
382.500000
20
264.500000
30
-4.000000
11
382.500000
21
-264.500000
31
-4.000000
12
370.799988
22
0.000000
32
-4.000000
13
370.799988
23
0.000000
33
-4.000000
0
3DFACE
8
0
10
292.000000
20
-355.000000
30
-4.000000
11
-292.000000
21
-355.000000
31
-4.000000
12
-0.734300
22
-343.217010
32
-4.000000
13
-0.734300
23
-343.217010
33
-4.000000
0
3DFACE
8
0
10
292.000000
20
-355.000000
30
-4.000000
11
-0.734300
21
-343.217010
31
-4.000000
12
0.734300
22
-343.217010
32
-4.000000
13
0.734300
23
-343.217010
33
-4.000000
0
3DFACE
8
0
10
-382.500000
20
-264.500000
30
-4.000000
11
-382.500000
21
264.500000
31
-4.000000
12
-370.799988
22
189.500000
32
-4.000000
13
-370.799988
23
189.500000
33
-4.000000
0
3DFACE
8
0
10
-382.500000
20
-264.500000
30
-4.000000
11
-370.799988
21
189.500000
31
-4.000000
12
-370.472992
22
188.067993
32
-4.000000
13
-370.472992
23
188.067993
33
-4.000000
0
3DFACE
8
0
10
-382.500000
20
-264.500000
30
-4.000000
11
-370.472992
21
188.067993
31
-4.000000
12
-370.799988
22
0.000000
32
-4.000000
13
-370.799988
23
0.000000
33
-4.000000
0
3DFACE
8
0
10
-370.799988
20
0.000000
30
-4.000000
11
-370.472992
21
188.067993
31
-4.000000
12
-370.472992
22
1.431800
32
-4.000000
13
-370.472992
23
1.431800
33
-4.000000
0
3DFACE
8
0
10
-382.500000
20
-264.500000
30
-4.000000
11
-370.799988
21
0.000000
31
-4.000000
12
-370.472992
22
-1.431800
32
-4.000000
13
-370.472992
23
-1.431800
33
-4.000000
0
3DFACE
8
0
10
-382.500000
20
-264.500000
30
-4.000000
11
-370.472992
21
-1.431800
31
-4.000000
12
-370.799988
22
-189.500000
32
-4.000000
13
-370.799988
23
-189.500000
33
-4.000000
0
3DFACE
8
0
10
-370.799988
20
-189.500000
30
-4.000000
11
-370.472992
21
-1.431800
31
-4.000000
12
-370.472992
22
-188.067993
32
-4.000000
13
-370.472992
23
-188.067993
33
-4.000000
0
3DFACE
8
0
10
-275.472992
20
-341.432007
30
0.000000
11
-292.000000
21
-355.000000
31
0.000000
12
-274.558014
22
-342.579987
32
0.000000
13
-274.558014
23
-342.579987
33
0.000000
0
3DFACE
8
0
10
-273.234009
20
-343.217010
30
0.000000
11
-274.558014
21
-342.579987
31
0.000000
12
-292.000000
22
-355.000000
32
0.000000
13
-292.000000
23
-355.000000
33
0.000000
0
3DFACE
8
0
10
-275.799988
20
-340.000000
30
0.000000
11
-292.000000
21
-324.796997
31
0.000000
12
-292.000000
22
-355.000000
32
0.000000
13
-292.000000
23
-355.000000
33
0.000000
0
3DFACE
8
0
10
-275.799988
20
-340.000000
30
0.000000
11
-292.000000
21
-355.000000
31
0.000000
12
-275.472992
22
-341.432007
32
0.000000
13
-275.472992
23
-341.432007
33
0.000000
0
3DFACE
8
0
10
-271.765991
20
-343.217010
30
0.000000
11
-273.234009
21
-343.217010
31
0.000000
12
-292.000000
22
-355.000000
32
0.000000
13
-292.000000
23
-355.000000
33
0.000000
0
3DFACE
8
0
10
-275.472992
20
-338.567993
30
0.000000
11
-292.000000
21
-324.796997
31
0.000000
12
-275.799988
22
-340.000000
32
0.000000
13
-275.799988
23
-340.000000
33
0.000000
0
3DFACE
8
0
10
-270.441986
20
-342.579987
30
0.000000
11
-271.765991
21
-343.217010
31
0.000000
12
-292.000000
22
-355.000000
32
0.000000
13
-292.000000
23
-355.000000
33
0.000000
0
3DFACE
8
0
10
-274.558014
20
-337.420013
30
0.000000
11
-292.000000
21
-324.796997
31
0.000000
12
-275.472992
22
-338.567993
32
0.000000
13
-275.472992
23
-338.567993
33
0.000000
0
3DFACE
8
0
10
-273.234009
20
-336.782990
30
0.000000
11
-292.000000
21
-324.796997
31
0.000000
12
-274.558014
22
-337.420013
32
0.000000
13
-274.558014
23
-337.420013
33
0.000000
0
3DFACE
8
0
10
-271.765991
20
-336.782990
30
0.000000
11
-292.000000
21
-324.796997
31
0.000000
12
-273.234009
22
-336.782990
32
0.000000
13
-273.234009
23
-336.782990
33
0.000000
0
3DFACE
8
0
10
-270.441986
20
-337.420013
30
0.000000
11
-292.000000
21
-324.796997
31
0.000000
12
-271.765991
22
-336.782990
32
0.000000
13
-271.765991
23
-336.782990
33
0.000000
0
3DFACE
8
0
10
-370.472992
20
-190.932007
30
0.000000
11
-382.500000
21
-264.500000
31
0.000000
12
-369.558014
22
-192.080002
32
0.000000
13
-369.558014
23
-192.080002
33
0.000000
0
3DFACE
8
0
10
-368.234009
20
-192.716995
30
0.000000
11
-369.558014
21
-192.080002
31
0.000000
12
-382.500000
22
-264.500000
32
0.000000
13
-382.500000
23
-264.500000
33
0.000000
0
3DFACE
8
0
10
-370.799988
20
-189.500000
30
0.000000
11
-382.500000
21
-264.500000
31
0.000000
12
-370.472992
22
-190.932007
32
0.000000
13
-370.472992
23
-190.932007
33
0.000000
0
3DFACE
8
0
10
-366.765991
20
-192.716995
30
0.000000
11
-382.500000
21
-264.500000
31
0.000000
12
-352.296997
22
-264.500000
32
0.000000
13
-352.296997
23
-264.500000
33
0.000000
0
3DFACE
8
0
10
-366.765991
20
-192.716995
30
0.000000
11
-368.234009
21
-192.716995
31
0.000000
12
-382.500000
22
-264.500000
32
0.000000
13
-382.500000
23
-264.500000
33
0.000000
0
3DFACE
8
0
10
-365.441986
20
-192.080002
30
0.000000
11
-366.765991
21
-192.716995
31
0.000000
12
-352.296997
22
-264.500000
32
0.000000
13
-352.296997
23
-264.500000
33
0.000000
0
3DFACE
8
0
10
-364.527008
20
-190.932007
30
0.000000
11
-365.441986
21
-192.080002
31
0.000000
12
-352.296997
22
-264.500000
32
0.000000
13
-352.296997
23
-264.500000
33
0.000000
0
3DFACE
8
0
10
-364.200012
20
-189.500000
30
0.000000
11
-352.296997
21
-264.500000
31
0.000000
12
-292.000000
22
-324.796997
32
0.000000
13
-292.000000
23
-324.796997
33
0.000000
0
3DFACE
8
0
10
-364.200012
20
-189.500000
30
0.000000
11
-292.000000
21
-324.796997
31
0.000000
12
-270.441986
22
-337.420013
32
0.000000
13
-270.441986
23
-337.420013
33
0.000000
0
3DFACE
8
0
10
-364.200012
20
-189.500000
30
0.000000
11
-364.527008
21
-190.932007
31
0.000000
12
-352.296997
22
-264.500000
32
0.000000
13
-352.296997
23
-264.500000
33
0.000000
0
3DFACE
8
0
10
-370.472992
20
-1.431800
30
0.000000
11
-370.472992
21
-188.067993
31
0.000000
12
-369.558014
22
-186.919998
32
0.000000
13
-369.558014
23
-186.919998
33
0.000000
0
3DFACE
8
0
10
-370.472992
20
-1.431800
30
0.000000
11
-369.558014
21
-186.919998
31
0.000000
12
-369.558014
22
-2.580000
32
0.000000
13
-369.558014
23
-2.580000
33
0.000000
0
3DFACE
8
0
10
-368.234009
20
-3.217300
30
0.000000
11
-369.558014
21
-186.919998
31
0.000000
12
-368.234009
22
-186.283005
32
0.000000
13
-368.234009
23
-186.283005
33
0.000000
0
3DFACE
8
0
10
-368.234009
20
-3.217300
30
0.000000
11
-369.558014
21
-2.580000
31
0.000000
12
-369.558014
22
-186.919998
32
0.000000
13
-369.558014
23
-186.919998
33
0.000000
0
3DFACE
8
0
10
-370.799988
20
0.000000
30
0.000000
11
-370.799988
21
-189.500000
31
0.000000
12
-370.472992
22
-188.067993
32
0.000000
13
-370.472992
23
-188.067993
33
0.000000
0
3DFACE
8
0
10
-370.799988
20
0.000000
30
0.000000
11
-382.500000
21
-264.500000
31
0.000000
12
-370.799988
22
-189.500000
32
0.000000
13
-370.799988
23
-189.500000
33
0.000000
0
3DFACE
8
0
10
-370.799988
20
0.000000
30
0.000000
11
-370.472992
21
-188.067993
31
0.000000
12
-370.472992
22
-1.431800
32
0.000000
13
-370.472992
23
-1.431800
33
0.000000
0
3DFACE
8
0
10
-366.765991
20
-3.217300
30
0.000000
11
-368.234009
21
-186.283005
31
0.000000
12
-366.765991
22
-186.283005
32
0.000000
13
-366.765991
23
-186.283005
33
0.000000
0
3DFACE
8
0
10
-366.765991
20
-3.217300
30
0.000000
11
-368.234009
21
-3.217300
31
0.000000
12
-368.234009
22
-186.283005
32
0.000000
13
-368.234009
23
-186.283005
33
0.000000
0
3DFACE
8
0
10
-365.441986
20
-2.580000
30
0.000000
11
-366.765991
21
-3.217300
31
0.000000
12
-366.765991
22
-186.283005
32
0.000000
13
-366.765991
23
-186.283005
33
0.000000
0
3DFACE
8
0
10
-365.441986
20
-2.580000
30
0.000000
11
-366.765991
21
-186.283005
31
0.000000
12
-365.441986
22
-186.919998
32
0.000000
13
-365.441986
23
-186.919998
33
0.000000
0
3DFACE
8
0
10
-364.527008
20
-1.431800
30
0.000000
11
-365.441986
21
-2.580000
31
0.000000
12
-365.441986
22
-186.919998
32
0.000000
13
-365.441986
23
-186.919998
33
0.000000
0
3DFACE
8
0
10
-364.527008
20
-1.431800
30
0.000000
11
-365.441986
21
-186.919998
31
0.000000
12
-364.527008
22
-188.067993
32
0.000000
13
-364.527008
23
-188.067993
33
0.000000
0
3DFACE
8
0
10
-2.057500
20
-342.579987
30
0.000000
11
-270.441986
21
-342.579987
31
0.000000
12
-292.000000
22
-355.000000
32
0.000000
13
-292.000000
23
-355.000000
33
0.000000
0
3DFACE
8
0
10
-2.057500
20
-342.579987
30
0.000000
11
-269.527008
21
-341.432007
31
0.000000
12
-270.441986
22
-342.579987
32
0.000000
13
-270.441986
23
-342.579987
33
0.000000
0
3DFACE
8
0
10
-2.973200
20
-341.432007
30
0.000000
11
-269.527008
21
-341.432007
31
0.000000
12
-2.057500
22
-342.579987
32
0.000000
13
-2.057500
23
-342.579987
33
0.000000
0
3DFACE
8
0
10
-0.734300
20
-343.217010
30
0.000000
11
-2.057500
21
-342.579987
31
0.000000
12
-292.000000
22
-355.000000
32
0.000000
13
-292.000000
23
-355.000000
33
0.000000
0
3DFACE
8
0
10
-3.300000
20
-340.000000
30
0.000000
11
-269.527008
21
-341.432007
31
0.000000
12
-2.973200
22
-341.432007
32
0.000000
13
-2.973200
23
-341.432007
33
0.000000
0
3DFACE
8
0
10
-3.300000
20
-340.000000
30
0.000000
11
-269.200012
21
-340.000000
31
0.000000
12
-269.527008
22
-341.432007
32
0.000000
13
-269.527008
23
-341.432007
33
0.000000
0
3DFACE
8
0
10
-2.973200
20
-338.567993
30
0.000000
11
-269.200012
21
-340.000000
31
0.000000
12
-3.300000
22
-340.000000
32
0.000000
13
-3.300000
23
-340.000000
33
0.000000
0
3DFACE
8
0
10
-2.973200
20
-338.567993
30
0.000000
11
-269.527008
21
-338.567993
31
0.000000
12
-269.200012
22
-340.000000
32
0.000000
13
-269.200012
23
-340.000000
33
0.000000
0
3DFACE
8
0
10
-2.057500
20
-337.420013
30
0.000000
11
-269.527008
21
-338.567993
31
0.000000
12
-2.973200
22
-338.567993
32
0.000000
13
-2.973200
23
-338.567993
33
0.000000
0
3DFACE
8
0
10
-2.057500
20
-337.420013
30
0.000000
11
-364.527008
21
-188.067993
31
0.000000
12
-364.200012
22
-189.500000
32
0.000000
13
-364.200012
23
-189.500000
33
0.000000
0
3DFACE
8
0
10
-2.057500
20
-337.420013
30
0.000000
11
-364.200012
21
-189.500000
31
0.000000
12
-270.441986
22
-337.420013
32
0.000000
13
-270.441986
23
-337.420013
33
0.000000
0
3DFACE
8
0
10
-2.057500
20
-337.420013
30
0.000000
11
-270.441986
21
-337.420013
31
0.000000
12
-269.527008
22
-338.567993
32
0.000000
13
-269.527008
23
-338.567993
33
0.000000
0
3DFACE
8
0
10
-0.734300
20
-336.782990
30
0.000000
11
-364.527008
21
-188.067993
31
0.000000
12
-2.057500
22
-337.420013
32
0.000000
13
-2.057500
23
-337.420013
33
0.000000
0
3DFACE
8
0
10
-0.734300
20
-336.782990
30
0.000000
11
-364.200012
21
0.000000
31
0.000000
12
-364.527008
22
-1.431800
32
0.000000
13
-364.527008
23
-1.431800
33
0.000000
0
3DFACE
8
0
10
-0.734300
20
-336.782990
30
0.000000
11
-364.527008
21
-1.431800
31
0.000000
12
-364.527008
22
-188.067993
32
0.000000
13
-364.527008
23
-188.067993
33
0.000000
0
3DFACE
8
0
10
-370.472992
20
188.067993
30
0.000000
11
-369.558014
21
2.580000
31
0.000000
12
-369.558014
22
186.919998
32
0.000000
13
-369.558014
23
186.919998
33
0.000000
0
3DFACE
8
0
10
-370.472992
20
188.067993
30
0.000000
11
-370.799988
21
0.000000
31
0.000000
12
-370.472992
22
1.431800
32
0.000000
13
-370.472992
23
1.431800
33
0.000000
0
3DFACE
8
0
10
-370.472992
20
188.067993
30
0.000000
11
-370.472992
21
1.431800
31
0.000000
12
-369.558014
22
2.580000
32
0.000000
13
-369.558014
23
2.580000
33
0.000000
0
3DFACE
8
0
10
-368.234009
20
186.283005
30
0.000000
11
-369.558014
21
186.919998
31
0.000000
12
-369.558014
22
2.580000
32
0.000000
13
-369.558014
23
2.580000
33
0.000000
0
3DFACE
8
0
10
-368.234009
20
186.283005
30
0.000000
11
-369.558014
21
2.580000
31
0.000000
12
-368.234009
22
3.217300
32
0.000000
13
-368.234009
23
3.217300
33
0.000000
0
3DFACE
8
0
10
-370.799988
20
189.500000
30
0.000000
11
-370.799988
21
0.000000
31
0.000000
12
-370.472992
22
188.067993
32
0.000000
13
-370.472992
23
188.067993
33
0.000000
0
3DFACE
8
0
10
-366.765991
20
186.283005
30
0.000000
11
-368.234009
21
186.283005
31
0.000000
12
-368.234009
22
3.217300
32
0.000000
13
-368.234009
23
3.217300
33
0.000000
0
3DFACE
8
0
10
-366.765991
20
186.283005
30
0.000000
11
-368.234009
21
3.217300
31
0.000000
12
-366.765991
22
3.217300
32
0.000000
13
-366.765991
23
3.217300
33
0.000000
0
3DFACE
8
0
10
-365.441986
20
186.919998
30
0.000000
11
-366.765991
21
3.217300
31
0.000000
12
-365.441986
22
2.580000
32
0.000000
13
-365.441986
23
2.580000
33
0.000000
0
3DFACE
8
0
10
-365.441986
20
186.919998
30
0.000000
11
-366.765991
21
186.283005
31
0.000000
12
-366.765991
22
3.217300
32
0.000000
13
-366.765991
23
3.217300
33
0.000000
0
3DFACE
8
0
10
-365.441986
20
186.919998
30
0.000000
11
-365.441986
21
2.580000
31
0.000000
12
-364.527008
22
1.431800
32
0.000000
13
-364.527008
23
1.431800
33
0.000000
0
3DFACE
8
0
10
-364.527008
20
188.067993
30
0.000000
11
-365.441986
21
186.919998
31
0.000000
12
-364.527008
22
1.431800
32
0.000000
13
-364.527008
23
1.431800
33
0.000000
0
3DFACE
8
0
10
-382.500000
20
264.500000
30
0.000000
11
-370.799988
21
189.500000
31
0.000000
12
-370.472992
22
190.932007
32
0.000000
13
-370.472992
23
190.932007
33
0.000000
0
3DFACE
8
0
10
-382.500000
20
264.500000
30
0.000000
11
-370.472992
21
190.932007
31
0.000000
12
-369.558014
22
192.080002
32
0.000000
13
-369.558014
23
192.080002
33
0.000000
0
3DFACE
8
0
10
-382.500000
20
264.500000
30
0.000000
11
-369.558014
21
192.080002
31
0.000000
12
-368.234009
22
192.716995
32
0.000000
13
-368.234009
23
192.716995
33
0.000000
0
3DFACE
8
0
10
-382.500000
20
264.500000
30
0.000000
11
-368.234009
21
192.716995
31
0.000000
12
-366.765991
22
192.716995
32
0.000000
13
-366.765991
23
192.716995
33
0.000000
0
3DFACE
8
0
10
-382.500000
20
264.500000
30
0.000000
11
-370.799988
21
0.000000
31
0.000000
12
-370.799988
22
189.500000
32
0.000000
13
-370.799988
23
189.500000
33
0.000000
0
3DFACE
8
0
10
-352.296997
20
264.500000
30
0.000000
11
-366.765991
21
192.716995
31
0.000000
12
-365.441986
22
192.080002
32
0.000000
13
-365.441986
23
192.080002
33
0.000000
0
3DFACE
8
0
10
-352.296997
20
264.500000
30
0.000000
11
-365.441986
21
192.080002
31
0.000000
12
-364.527008
22
190.932007
32
0.000000
13
-364.527008
23
190.932007
33
0.000000
0
3DFACE
8
0
10
-352.296997
20
264.500000
30
0.000000
11
-364.527008
21
190.932007
31
0.000000
12
-364.200012
22
189.500000
32
0.000000
13
-364.200012
23
189.500000
33
0.000000
0
3DFACE
8
0
10
-352.296997
20
264.500000
30
0.000000
11
-382.500000
21
264.500000
31
0.000000
12
-366.765991
22
192.716995
32
0.000000
13
-366.765991
23
192.716995
33
0.000000
0
3DFACE
8
0
10
270.441986
20
-342.579987
30
0.000000
11
2.973200
21
-341.432007
31
0.000000
12
2.057500
22
-342.579987
32
0.000000
13
2.057500
23
-342.579987
33
0.000000
0
3DFACE
8
0
10
269.527008
20
-341.432007
30
0.000000
11
2.973200
21
-341.432007
31
0.000000
12
270.441986
22
-342.579987
32
0.000000
13
270.441986
23
-342.579987
33
0.000000
0
3DFACE
8
0
10
269.200012
20
-340.000000
30
0.000000
11
3.300000
21
-340.000000
31
0.000000
12
2.973200
22
-341.432007
32
0.000000
13
2.973200
23
-341.432007
33
0.000000
0
3DFACE
8
0
10
269.200012
20
-340.000000
30
0.000000
11
2.973200
21
-341.432007
31
0.000000
12
269.527008
22
-341.432007
32
0.000000
13
269.527008
23
-341.432007
33
0.000000
0
3DFACE
8
0
10
269.527008
20
-338.567993
30
0.000000
11
2.973200
21
-338.567993
31
0.000000
12
3.300000
22
-340.000000
32
0.000000
13
3.300000
23
-340.000000
33
0.000000
0
3DFACE
8
0
10
269.527008
20
-338.567993
30
0.000000
11
3.300000
21
-340.000000
31
0.000000
12
269.200012
22
-340.000000
32
0.000000
13
269.200012
23
-340.000000
33
0.000000
0
3DFACE
8
0
10
292.000000
20
-355.000000
30
0.000000
11
270.441986
21
-342.579987
31
0.000000
12
2.057500
22
-342.579987
32
0.000000
13
2.057500
23
-342.579987
33
0.000000
0
3DFACE
8
0
10
292.000000
20
-355.000000
30
0.000000
11
2.057500
21
-342.579987
31
0.000000
12
0.734300
22
-343.217010
32
0.000000
13
0.734300
23
-343.217010
33
0.000000
0
3DFACE
8
0
10
292.000000
20
-355.000000
30
0.000000
11
275.799988
21
-340.000000
31
0.000000
12
275.472992
22
-341.432007
32
0.000000
13
275.472992
23
-341.432007
33
0.000000
0
3DFACE
8
0
10
292.000000
20
-355.000000
30
0.000000
11
275.472992
21
-341.432007
31
0.000000
12
274.558014
22
-342.579987
32
0.000000
13
274.558014
23
-342.579987
33
0.000000
0
3DFACE
8
0
10
292.000000
20
-355.000000
30
0.000000
11
274.558014
21
-342.579987
31
0.000000
12
273.234009
22
-343.217010
32
0.000000
13
273.234009
23
-343.217010
33
0.000000
0
3DFACE
8
0
10
292.000000
20
-355.000000
30
0.000000
11
273.234009
21
-343.217010
31
0.000000
12
271.765991
22
-343.217010
32
0.000000
13
271.765991
23
-343.217010
33
0.000000
0
3DFACE
8
0
10
292.000000
20
-355.000000
30
0.000000
11
271.765991
21
-343.217010
31
0.000000
12
270.441986
22
-342.579987
32
0.000000
13
270.441986
23
-342.579987
33
0.000000
0
3DFACE
8
0
10
292.000000
20
-324.796997
30
0.000000
11
275.799988
21
-340.000000
31
0.000000
12
292.000000
22
-355.000000
32
0.000000
13
292.000000
23
-355.000000
33
0.000000
0
3DFACE
8
0
10
292.000000
20
-324.796997
30
0.000000
11
271.765991
21
-336.782990
31
0.000000
12
273.234009
22
-336.782990
32
0.000000
13
273.234009
23
-336.782990
33
0.000000
0
3DFACE
8
0
10
292.000000
20
-324.796997
30
0.000000
11
273.234009
21
-336.782990
31
0.000000
12
274.558014
22
-337.420013
32
0.000000
13
274.558014
23
-337.420013
33
0.000000
0
3DFACE
8
0
10
292.000000
20
-324.796997
30
0.000000
11
274.558014
21
-337.420013
31
0.000000
12
275.472992
22
-338.567993
32
0.000000
13
275.472992
23
-338.567993
33
0.000000
0
3DFACE
8
0
10
292.000000
20
-324.796997
30
0.000000
11
275.472992
21
-338.567993
31
0.000000
12
275.799988
22
-340.000000
32
0.000000
13
275.799988
23
-340.000000
33
0.000000
0
3DFACE
8
0
10
-292.000000
20
324.796997
30
0.000000
11
-352.296997
21
264.500000
31
0.000000
12
-364.200012
22
189.500000
32
0.000000
13
-364.200012
23
189.500000
33
0.000000
0
3DFACE
8
0
10
288.441986
20
-247.580002
30
0.000000
11
270.441986
21
-337.420013
31
0.000000
12
271.765991
22
-336.782990
32
0.000000
13
271.765991
23
-336.782990
33
0.000000
0
3DFACE
8
0
10
288.441986
20
-247.580002
30
0.000000
11
271.765991
21
-336.782990
31
0.000000
12
292.000000
22
-324.796997
32
0.000000
13
292.000000
23
-324.796997
33
0.000000
0
3DFACE
8
0
10
287.527008
20
-246.432007
30
0.000000
11
270.441986
21
-337.420013
31
0.000000
12
288.441986
22
-247.580002
32
0.000000
13
288.441986
23
-247.580002
33
0.000000
0
3DFACE
8
0
10
287.527008
20
-246.432007
30
0.000000
11
269.527008
21
-338.567993
31
0.000000
12
270.441986
22
-337.420013
32
0.000000
13
270.441986
23
-337.420013
33
0.000000
0
3DFACE
8
0
10
289.765991
20
-248.216995
30
0.000000
11
288.441986
21
-247.580002
31
0.000000
12
292.000000
22
-324.796997
32
0.000000
13
292.000000
23
-324.796997
33
0.000000
0
3DFACE
8
0
10
287.200012
20
-245.000000
30
0.000000
11
269.527008
21
-338.567993
31
0.000000
12
287.527008
22
-246.432007
32
0.000000
13
287.527008
23
-246.432007
33
0.000000
0
3DFACE
8
0
10
287.200012
20
-245.000000
30
0.000000
11
2.057500
21
-337.420013
31
0.000000
12
2.973200
22
-338.567993
32
0.000000
13
2.973200
23
-338.567993
33
0.000000
0
3DFACE
8
0
10
287.200012
20
-245.000000
30
0.000000
11
2.973200
21
-338.567993
31
0.000000
12
269.527008
22
-338.567993
32
0.000000
13
269.527008
23
-338.567993
33
0.000000
0
3DFACE
8
0
10
291.234009
20
-248.216995
30
0.000000
11
289.765991
21
-248.216995
31
0.000000
12
292.000000
22
-324.796997
32
0.000000
13
292.000000
23
-324.796997
33
0.000000
0
3DFACE
8
0
10
287.527008
20
-243.567993
30
0.000000
11
2.057500
21
-337.420013
31
0.000000
12
287.200012
22
-245.000000
32
0.000000
13
287.200012
23
-245.000000
33
0.000000
0
3DFACE
8
0
10
287.527008
20
-243.567993
30
0.000000
11
0.734300
21
-336.782990
31
0.000000
12
2.057500
22
-337.420013
32
0.000000
13
2.057500
23
-337.420013
33
0.000000
0
3DFACE
8
0
10
292.558014
20
-247.580002
30
0.000000
11
291.234009
21
-248.216995
31
0.000000
12
292.000000
22
-324.796997
32
0.000000
13
292.000000
23
-324.796997
33
0.000000
0
3DFACE
8
0
10
-275.472992
20
338.567993
30
0.000000
11
-292.000000
21
324.796997
31
0.000000
12
-274.558014
22
337.420013
32
0.000000
13
-274.558014
23
337.420013
33
0.000000
0
3DFACE
8
0
10
-273.234009
20
336.782990
30
0.000000
11
-274.558014
21
337.420013
31
0.000000
12
-292.000000
22
324.796997
32
0.000000
13
-292.000000
23
324.796997
33
0.000000
0
3DFACE
8
0
10
-275.799988
20
340.000000
30
0.000000
11
-292.000000
21
355.000000
31
0.000000
12
-292.000000
22
324.796997
32
0.000000
13
-292.000000
23
324.796997
33
0.000000
0
3DFACE
8
0
10
-275.799988
20
340.000000
30
0.000000
11
-292.000000
21
324.796997
31
0.000000
12
-275.472992
22
338.567993
32
0.000000
13
-275.472992
23
338.567993
33
0.000000
0
3DFACE
8
0
10
-271.765991
20
336.782990
30
0.000000
11
-273.234009
21
336.782990
31
0.000000
12
-292.000000
22
324.796997
32
0.000000
13
-292.000000
23
324.796997
33
0.000000
0
3DFACE
8
0
10
-275.472992
20
341.432007
30
0.000000
11
-292.000000
21
355.000000
31
0.000000
12
-275.799988
22
340.000000
32
0.000000
13
-275.799988
23
340.000000
33
0.000000
0
3DFACE
8
0
10
-270.441986
20
337.420013
30
0.000000
11
-271.765991
21
336.782990
31
0.000000
12
-292.000000
22
324.796997
32
0.000000
13
-292.000000
23
324.796997
33
0.000000
0
3DFACE
8
0
10
-270.441986
20
337.420013
30
0.000000
11
-292.000000
21
324.796997
31
0.000000
12
-364.200012
22
189.500000
32
0.000000
13
-364.200012
23
189.500000
33
0.000000
0
3DFACE
8
0
10
-274.558014
20
342.579987
30
0.000000
11
-292.000000
21
355.000000
31
0.000000
12
-275.472992
22
341.432007
32
0.000000
13
-275.472992
23
341.432007
33
0.000000
0
3DFACE
8
0
10
-273.234009
20
343.217010
30
0.000000
11
-292.000000
21
355.000000
31
0.000000
12
-274.558014
22
342.579987
32
0.000000
13
-274.558014
23
342.579987
33
0.000000
0
3DFACE
8
0
10
-271.765991
20
343.217010
30
0.000000
11
-292.000000
21
355.000000
31
0.000000
12
-273.234009
22
343.217010
32
0.000000
13
-273.234009
23
343.217010
33
0.000000
0
3DFACE
8
0
10
-270.441986
20
342.579987
30
0.000000
11
-292.000000
21
355.000000
31
0.000000
12
-271.765991
22
343.217010
32
0.000000
13
-271.765991
23
343.217010
33
0.000000
0
3DFACE
8
0
10
352.296997
20
-264.500000
30
0.000000
11
292.558014
21
-247.580002
31
0.000000
12
292.000000
22
-324.796997
32
0.000000
13
292.000000
23
-324.796997
33
0.000000
0
3DFACE
8
0
10
352.296997
20
-264.500000
30
0.000000
11
293.799988
21
-245.000000
31
0.000000
12
293.472992
22
-246.432007
32
0.000000
13
293.472992
23
-246.432007
33
0.000000
0
3DFACE
8
0
10
352.296997
20
-264.500000
30
0.000000
11
293.472992
21
-246.432007
31
0.000000
12
292.558014
22
-247.580002
32
0.000000
13
292.558014
23
-247.580002
33
0.000000
0
3DFACE
8
0
10
364.527008
20
-246.432007
30
0.000000
11
352.296997
21
-264.500000
31
0.000000
12
365.441986
22
-247.580002
32
0.000000
13
365.441986
23
-247.580002
33
0.000000
0
3DFACE
8
0
10
366.765991
20
-248.216995
30
0.000000
11
352.296997
21
-264.500000
31
0.000000
12
382.500000
22
-264.500000
32
0.000000
13
382.500000
23
-264.500000
33
0.000000
0
3DFACE
8
0
10
366.765991
20
-248.216995
30
0.000000
11
365.441986
21
-247.580002
31
0.000000
12
352.296997
22
-264.500000
32
0.000000
13
352.296997
23
-264.500000
33
0.000000
0
3DFACE
8
0
10
364.200012
20
-245.000000
30
0.000000
11
293.799988
21
-245.000000
31
0.000000
12
352.296997
22
-264.500000
32
0.000000
13
352.296997
23
-264.500000
33
0.000000
0
3DFACE
8
0
10
364.200012
20
-245.000000
30
0.000000
11
293.472992
21
-243.567993
31
0.000000
12
293.799988
22
-245.000000
32
0.000000
13
293.799988
23
-245.000000
33
0.000000
0
3DFACE
8
0
10
364.200012
20
-245.000000
30
0.000000
11
352.296997
21
-264.500000
31
0.000000
12
364.527008
22
-246.432007
32
0.000000
13
364.527008
23
-246.432007
33
0.000000
0
3DFACE
8
0
10
368.234009
20
-248.216995
30
0.000000
11
366.765991
21
-248.216995
31
0.000000
12
382.500000
22
-264.500000
32
0.000000
13
382.500000
23
-264.500000
33
0.000000
0
3DFACE
8
0
10
364.527008
20
-243.567993
30
0.000000
11
292.558014
21
-242.419998
31
0.000000
12
293.472992
22
-243.567993
32
0.000000
13
293.472992
23
-243.567993
33
0.000000
0
3DFACE
8
0
10
364.527008
20
-243.567993
30
0.000000
11
293.472992
21
-243.567993
31
0.000000
12
364.200012
22
-245.000000
32
0.000000
13
364.200012
23
-245.000000
33
0.000000
0
3DFACE
8
0
10
369.558014
20
-247.580002
30
0.000000
11
368.234009
21
-248.216995
31
0.000000
12
382.500000
22
-264.500000
32
0.000000
13
382.500000
23
-264.500000
33
0.000000
0
3DFACE
8
0
10
365.441986
20
-242.419998
30
0.000000
11
292.558014
21
-242.419998
31
0.000000
12
364.527008
22
-243.567993
32
0.000000
13
364.527008
23
-243.567993
33
0.000000
0
3DFACE
8
0
10
370.472992
20
-246.432007
30
0.000000
11
369.558014
21
-247.580002
31
0.000000
12
382.500000
22
-264.500000
32
0.000000
13
382.500000
23
-264.500000
33
0.000000
0
3DFACE
8
0
10
366.765991
20
-241.783005
30
0.000000
11
291.234009
21
-241.783005
31
0.000000
12
292.558014
22
-242.419998
32
0.000000
13
292.558014
23
-242.419998
33
0.000000
0
3DFACE
8
0
10
366.765991
20
-241.783005
30
0.000000
11
292.558014
21
-242.419998
31
0.000000
12
365.441986
22
-242.419998
32
0.000000
13
365.441986
23
-242.419998
33
0.000000
0
3DFACE
8
0
10
370.799988
20
-245.000000
30
0.000000
11
370.472992
21
-246.432007
31
0.000000
12
382.500000
22
-264.500000
32
0.000000
13
382.500000
23
-264.500000
33
0.000000
0
3DFACE
8
0
10
370.472992
20
-243.567993
30
0.000000
11
370.799988
21
-245.000000
31
0.000000
12
382.500000
22
-264.500000
32
0.000000
13
382.500000
23
-264.500000
33
0.000000
0
3DFACE
8
0
10
287.527008
20
-1.431800
30
0.000000
11
287.527008
21
-243.567993
31
0.000000
12
288.441986
22
-242.419998
32
0.000000
13
288.441986
23
-242.419998
33
0.000000
0
3DFACE
8
0
10
287.527008
20
-1.431800
30
0.000000
11
0.734300
21
-336.782990
31
0.000000
12
287.527008
22
-243.567993
32
0.000000
13
287.527008
23
-243.567993
33
0.000000
0
3DFACE
8
0
10
287.527008
20
-1.431800
30
0.000000
11
288.441986
21
-242.419998
31
0.000000
12
288.441986
22
-2.580000
32
0.000000
13
288.441986
23
-2.580000
33
0.000000
0
3DFACE
8
0
10
289.765991
20
-3.217300
30
0.000000
11
288.441986
21
-242.419998
31
0.000000
12
289.765991
22
-241.783005
32
0.000000
13
289.765991
23
-241.783005
33
0.000000
0
3DFACE
8
0
10
289.765991
20
-3.217300
30
0.000000
11
289.765991
21
-241.783005
31
0.000000
12
291.234009
22
-241.783005
32
0.000000
13
291.234009
23
-241.783005
33
0.000000
0
3DFACE
8
0
10
289.765991
20
-3.217300
30
0.000000
11
288.441986
21
-2.580000
31
0.000000
12
288.441986
22
-242.419998
32
0.000000
13
288.441986
23
-242.419998
33
0.000000
0
3DFACE
8
0
10
287.200012
20
0.000000
30
0.000000
11
-364.200012
21
0.000000
31
0.000000
12
-0.734300
22
-336.782990
32
0.000000
13
-0.734300
23
-336.782990
33
0.000000
0
3DFACE
8
0
10
287.200012
20
0.000000
30
0.000000
11
-0.734300
21
-336.782990
31
0.000000
12
0.734300
22
-336.782990
32
0.000000
13
0.734300
23
-336.782990
33
0.000000
0
3DFACE
8
0
10
287.200012
20
0.000000
30
0.000000
11
0.734300
21
-336.782990
31
0.000000
12
287.527008
22
-1.431800
32
0.000000
13
287.527008
23
-1.431800
33
0.000000
0
3DFACE
8
0
10
291.234009
20
-3.217300
30
0.000000
11
289.765991
21
-3.217300
31
0.000000
12
291.234009
22
-241.783005
32
0.000000
13
291.234009
23
-241.783005
33
0.000000
0
3DFACE
8
0
10
-2.057500
20
337.420013
30
0.000000
11
-269.527008
21
338.567993
31
0.000000
12
-270.441986
22
337.420013
32
0.000000
13
-270.441986
23
337.420013
33
0.000000
0
3DFACE
8
0
10
-2.057500
20
337.420013
30
0.000000
11
-270.441986
21
337.420013
31
0.000000
12
-364.200012
22
189.500000
32
0.000000
13
-364.200012
23
189.500000
33
0.000000
0
3DFACE
8
0
10
-2.057500
20
337.420013
30
0.000000
11
-364.200012
21
189.500000
31
0.000000
12
-364.527008
22
188.067993
32
0.000000
13
-364.527008
23
188.067993
33
0.000000
0
3DFACE
8
0
10
-2.973200
20
338.567993
30
0.000000
11
-269.527008
21
338.567993
31
0.000000
12
-2.057500
22
337.420013
32
0.000000
13
-2.057500
23
337.420013
33
0.000000
0
3DFACE
8
0
10
-0.734300
20
336.782990
30
0.000000
11
-364.200012
21
0.000000
31
0.000000
12
287.200012
22
0.000000
32
0.000000
13
287.200012
23
0.000000
33
0.000000
0
3DFACE
8
0
10
-0.734300
20
336.782990
30
0.000000
11
-2.057500
21
337.420013
31
0.000000
12
-364.527008
22
188.067993
32
0.000000
13
-364.527008
23
188.067993
33
0.000000
0
3DFACE
8
0
10
-0.734300
20
336.782990
30
0.000000
11
-364.527008
21
1.431800
31
0.000000
12
-364.200012
22
0.000000
32
0.000000
13
-364.200012
23
0.000000
33
0.000000
0
3DFACE
8
0
10
-0.734300
20
336.782990
30
0.000000
11
-364.527008
21
188.067993
31
0.000000
12
-364.527008
22
1.431800
32
0.000000
13
-364.527008
23
1.431800
33
0.000000
0
3DFACE
8
0
10
-3.300000
20
340.000000
30
0.000000
11
-269.200012
21
340.000000
31
0.000000
12
-269.527008
22
338.567993
32
0.000000
13
-269.527008
23
338.567993
33
0.000000
0
3DFACE
8
0
10
-3.300000
20
340.000000
30
0.000000
11
-269.527008
21
338.567993
31
0.000000
12
-2.973200
22
338.567993
32
0.000000
13
-2.973200
23
338.567993
33
0.000000
0
3DFACE
8
0
10
0.734300
20
336.782990
30
0.000000
11
287.200012
21
0.000000
31
0.000000
12
287.527008
22
1.431800
32
0.000000
13
287.527008
23
1.431800
33
0.000000
0
3DFACE
8
0
10
0.734300
20
336.782990
30
0.000000
11
-0.734300
21
336.782990
31
0.000000
12
287.200012
22
0.000000
32
0.000000
13
287.200012
23
0.000000
33
0.000000
0
3DFACE
8
0
10
-2.973200
20
341.432007
30
0.000000
11
-269.527008
21
341.432007
31
0.000000
12
-269.200012
22
340.000000
32
0.000000
13
-269.200012
23
340.000000
33
0.000000
0
3DFACE
8
0
10
-2.973200
20
341.432007
30
0.000000
11
-269.200012
21
340.000000
31
0.000000
12
-3.300000
22
340.000000
32
0.000000
13
-3.300000
23
340.000000
33
0.000000
0
3DFACE
8
0
10
-2.057500
20
342.579987
30
0.000000
11
-270.441986
21
342.579987
31
0.000000
12
-269.527008
22
341.432007
32
0.000000
13
-269.527008
23
341.432007
33
0.000000
0
3DFACE
8
0
10
-2.057500
20
342.579987
30
0.000000
11
-269.527008
21
341.432007
31
0.000000
12
-2.973200
22
341.432007
32
0.000000
13
-2.973200
23
341.432007
33
0.000000
0
3DFACE
8
0
10
-2.057500
20
342.579987
30
0.000000
11
-292.000000
21
355.000000
31
0.000000
12
-270.441986
22
342.579987
32
0.000000
13
-270.441986
23
342.579987
33
0.000000
0
3DFACE
8
0
10
-0.734300
20
343.217010
30
0.000000
11
-292.000000
21
355.000000
31
0.000000
12
-2.057500
22
342.579987
32
0.000000
13
-2.057500
23
342.579987
33
0.000000
0
3DFACE
8
0
10
364.527008
20
-1.431800
30
0.000000
11
292.558014
21
-2.580000
31
0.000000
12
365.441986
22
-2.580000
32
0.000000
13
365.441986
23
-2.580000
33
0.000000
0
3DFACE
8
0
10
364.527008
20
-1.431800
30
0.000000
11
293.799988
21
0.000000
31
0.000000
12
293.472992
22
-1.431800
32
0.000000
13
293.472992
23
-1.431800
33
0.000000
0
3DFACE
8
0
10
364.527008
20
-1.431800
30
0.000000
11
293.472992
21
-1.431800
31
0.000000
12
292.558014
22
-2.580000
32
0.000000
13
292.558014
23
-2.580000
33
0.000000
0
3DFACE
8
0
10
366.765991
20
-3.217300
30
0.000000
11
291.234009
21
-3.217300
31
0.000000
12
291.234009
22
-241.783005
32
0.000000
13
291.234009
23
-241.783005
33
0.000000
0
3DFACE
8
0
10
366.765991
20
-3.217300
30
0.000000
11
365.441986
21
-2.580000
31
0.000000
12
292.558014
22
-2.580000
32
0.000000
13
292.558014
23
-2.580000
33
0.000000
0
3DFACE
8
0
10
366.765991
20
-3.217300
30
0.000000
11
292.558014
21
-2.580000
31
0.000000
12
291.234009
22
-3.217300
32
0.000000
13
291.234009
23
-3.217300
33
0.000000
0
3DFACE
8
0
10
366.765991
20
-3.217300
30
0.000000
11
291.234009
21
-241.783005
31
0.000000
12
366.765991
22
-241.783005
32
0.000000
13
366.765991
23
-241.783005
33
0.000000
0
3DFACE
8
0
10
364.200012
20
0.000000
30
0.000000
11
293.799988
21
0.000000
31
0.000000
12
364.527008
22
-1.431800
32
0.000000
13
364.527008
23
-1.431800
33
0.000000
0
3DFACE
8
0
10
368.234009
20
-3.217300
30
0.000000
11
366.765991
21
-3.217300
31
0.000000
12
366.765991
22
-241.783005
32
0.000000
13
366.765991
23
-241.783005
33
0.000000
0
3DFACE
8
0
10
368.234009
20
-3.217300
30
0.000000
11
366.765991
21
-241.783005
31
0.000000
12
368.234009
22
-241.783005
32
0.000000
13
368.234009
23
-241.783005
33
0.000000
0
3DFACE
8
0
10
364.527008
20
1.431800
30
0.000000
11
293.799988
21
0.000000
31
0.000000
12
364.200012
22
0.000000
32
0.000000
13
364.200012
23
0.000000
33
0.000000
0
3DFACE
8
0
10
364.527008
20
1.431800
30
0.000000
11
292.558014
21
2.580000
31
0.000000
12
293.472992
22
1.431800
32
0.000000
13
293.472992
23
1.431800
33
0.000000
0
3DFACE
8
0
10
364.527008
20
1.431800
30
0.000000
11
293.472992
21
1.431800
31
0.000000
12
293.799988
22
0.000000
32
0.000000
13
293.799988
23
0.000000
33
0.000000
0
3DFACE
8
0
10
369.558014
20
-2.580000
30
0.000000
11
368.234009
21
-3.217300
31
0.000000
12
368.234009
22
-241.783005
32
0.000000
13
368.234009
23
-241.783005
33
0.000000
0
3DFACE
8
0
10
369.558014
20
-2.580000
30
0.000000
11
368.234009
21
-241.783005
31
0.000000
12
369.558014
22
-242.419998
32
0.000000
13
369.558014
23
-242.419998
33
0.000000
0
3DFACE
8
0
10
369.558014
20
-2.580000
30
0.000000
11
369.558014
21
-242.419998
31
0.000000
12
370.472992
22
-243.567993
32
0.000000
13
370.472992
23
-243.567993
33
0.000000
0
3DFACE
8
0
10
365.441986
20
2.580000
30
0.000000
11
292.558014
21
2.580000
31
0.000000
12
364.527008
22
1.431800
32
0.000000
13
364.527008
23
1.431800
33
0.000000
0
3DFACE
8
0
10
370.472992
20
-1.431800
30
0.000000
11
370.472992
21
-243.567993
31
0.000000
12
382.500000
22
-264.500000
32
0.000000
13
382.500000
23
-264.500000
33
0.000000
0
3DFACE
8
0
10
370.472992
20
-1.431800
30
0.000000
11
369.558014
21
-2.580000
31
0.000000
12
370.472992
22
-243.567993
32
0.000000
13
370.472992
23
-243.567993
33
0.000000
0
3DFACE
8
0
10
366.765991
20
3.217300
30
0.000000
11
292.558014
21
2.580000
31
0.000000
12
365.441986
22
2.580000
32
0.000000
13
365.441986
23
2.580000
33
0.000000
0
3DFACE
8
0
10
366.765991
20
3.217300
30
0.000000
11
291.234009
21
3.217300
31
0.000000
12
292.558014
22
2.580000
32
0.000000
13
292.558014
23
2.580000
33
0.000000
0
3DFACE
8
0
10
370.799988
20
0.000000
30
0.000000
11
370.472992
21
-1.431800
31
0.000000
12
382.500000
22
-264.500000
32
0.000000
13
382.500000
23
-264.500000
33
0.000000
0
3DFACE
8
0
10
288.441986
20
242.419998
30
0.000000
11
288.441986
21
2.580000
31
0.000000
12
289.765991
22
3.217300
32
0.000000
13
289.765991
23
3.217300
33
0.000000
0
3DFACE
8
0
10
287.527008
20
243.567993
30
0.000000
11
0.734300
21
336.782990
31
0.000000
12
287.527008
22
1.431800
32
0.000000
13
287.527008
23
1.431800
33
0.000000
0
3DFACE
8
0
10
287.527008
20
243.567993
30
0.000000
11
2.057500
21
337.420013
31
0.000000
12
0.734300
22
336.782990
32
0.000000
13
0.734300
23
336.782990
33
0.000000
0
3DFACE
8
0
10
287.527008
20
243.567993
30
0.000000
11
288.441986
21
2.580000
31
0.000000
12
288.441986
22
242.419998
32
0.000000
13
288.441986
23
242.419998
33
0.000000
0
3DFACE
8
0
10
287.527008
20
243.567993
30
0.000000
11
287.527008
21
1.431800
31
0.000000
12
288.441986
22
2.580000
32
0.000000
13
288.441986
23
2.580000
33
0.000000
0
3DFACE
8
0
10
289.765991
20
241.783005
30
0.000000
11
288.441986
21
242.419998
31
0.000000
12
289.765991
22
3.217300
32
0.000000
13
289.765991
23
3.217300
33
0.000000
0
3DFACE
8
0
10
287.200012
20
245.000000
30
0.000000
11
2.973200
21
338.567993
31
0.000000
12
2.057500
22
337.420013
32
0.000000
13
2.057500
23
337.420013
33
0.000000
0
3DFACE
8
0
10
287.200012
20
245.000000
30
0.000000
11
2.057500
21
337.420013
31
0.000000
12
287.527008
22
243.567993
32
0.000000
13
287.527008
23
243.567993
33
0.000000
0
3DFACE
8
0
10
291.234009
20
241.783005
30
0.000000
11
291.234009
21
3.217300
31
0.000000
12
366.765991
22
3.217300
32
0.000000
13
366.765991
23
3.217300
33
0.000000
0
3DFACE
8
0
10
291.234009
20
241.783005
30
0.000000
11
289.765991
21
241.783005
31
0.000000
12
289.765991
22
3.217300
32
0.000000
13
289.765991
23
3.217300
33
0.000000
0
3DFACE
8
0
10
291.234009
20
241.783005
30
0.000000
11
289.765991
21
3.217300
31
0.000000
12
291.234009
22
3.217300
32
0.000000
13
291.234009
23
3.217300
33
0.000000
0
3DFACE
8
0
10
365.441986
20
242.419998
30
0.000000
11
293.472992
21
243.567993
31
0.000000
12
292.558014
22
242.419998
32
0.000000
13
292.558014
23
242.419998
33
0.000000
0
3DFACE
8
0
10
270.441986
20
337.420013
30
0.000000
11
287.527008
21
246.432007
31
0.000000
12
288.441986
22
247.580002
32
0.000000
13
288.441986
23
247.580002
33
0.000000
0
3DFACE
8
0
10
364.527008
20
243.567993
30
0.000000
11
293.472992
21
243.567993
31
0.000000
12
365.441986
22
242.419998
32
0.000000
13
365.441986
23
242.419998
33
0.000000
0
3DFACE
8
0
10
269.527008
20
338.567993
30
0.000000
11
287.527008
21
246.432007
31
0.000000
12
270.441986
22
337.420013
32
0.000000
13
270.441986
23
337.420013
33
0.000000
0
3DFACE
8
0
10
269.527008
20
338.567993
30
0.000000
11
287.200012
21
245.000000
31
0.000000
12
287.527008
22
246.432007
32
0.000000
13
287.527008
23
246.432007
33
0.000000
0
3DFACE
8
0
10
269.527008
20
338.567993
30
0.000000
11
2.973200
21
338.567993
31
0.000000
12
287.200012
22
245.000000
32
0.000000
13
287.200012
23
245.000000
33
0.000000
0
3DFACE
8
0
10
366.765991
20
241.783005
30
0.000000
11
365.441986
21
242.419998
31
0.000000
12
292.558014
22
242.419998
32
0.000000
13
292.558014
23
242.419998
33
0.000000
0
3DFACE
8
0
10
366.765991
20
241.783005
30
0.000000
11
292.558014
21
242.419998
31
0.000000
12
291.234009
22
241.783005
32
0.000000
13
291.234009
23
241.783005
33
0.000000
0
3DFACE
8
0
10
366.765991
20
241.783005
30
0.000000
11
291.234009
21
241.783005
31
0.000000
12
366.765991
22
3.217300
32
0.000000
13
366.765991
23
3.217300
33
0.000000
0
3DFACE
8
0
10
366.765991
20
241.783005
30
0.000000
11
366.765991
21
3.217300
31
0.000000
12
368.234009
22
3.217300
32
0.000000
13
368.234009
23
3.217300
33
0.000000
0
3DFACE
8
0
10
271.765991
20
336.782990
30
0.000000
11
270.441986
21
337.420013
31
0.000000
12
288.441986
22
247.580002
32
0.000000
13
288.441986
23
247.580002
33
0.000000
0
3DFACE
8
0
10
364.200012
20
245.000000
30
0.000000
11
293.472992
21
243.567993
31
0.000000
12
364.527008
22
243.567993
32
0.000000
13
364.527008
23
243.567993
33
0.000000
0
3DFACE
8
0
10
364.200012
20
245.000000
30
0.000000
11
293.799988
21
245.000000
31
0.000000
12
293.472992
22
243.567993
32
0.000000
13
293.472992
23
243.567993
33
0.000000
0
3DFACE
8
0
10
269.200012
20
340.000000
30
0.000000
11
3.300000
21
340.000000
31
0.000000
12
2.973200
22
338.567993
32
0.000000
13
2.973200
23
338.567993
33
0.000000
0
3DFACE
8
0
10
269.200012
20
340.000000
30
0.000000
11
2.973200
21
338.567993
31
0.000000
12
269.527008
22
338.567993
32
0.000000
13
269.527008
23
338.567993
33
0.000000
0
3DFACE
8
0
10
368.234009
20
241.783005
30
0.000000
11
366.765991
21
241.783005
31
0.000000
12
368.234009
22
3.217300
32
0.000000
13
368.234009
23
3.217300
33
0.000000
0
3DFACE
8
0
10
269.527008
20
341.432007
30
0.000000
11
3.300000
21
340.000000
31
0.000000
12
269.200012
22
340.000000
32
0.000000
13
269.200012
23
340.000000
33
0.000000
0
3DFACE
8
0
10
269.527008
20
341.432007
30
0.000000
11
2.973200
21
341.432007
31
0.000000
12
3.300000
22
340.000000
32
0.000000
13
3.300000
23
340.000000
33
0.000000
0
3DFACE
8
0
10
369.558014
20
242.419998
30
0.000000
11
368.234009
21
241.783005
31
0.000000
12
368.234009
22
3.217300
32
0.000000
13
368.234009
23
3.217300
33
0.000000
0
3DFACE
8
0
10
369.558014
20
242.419998
30
0.000000
11
368.234009
21
3.217300
31
0.000000
12
369.558014
22
2.580000
32
0.000000
13
369.558014
23
2.580000
33
0.000000
0
3DFACE
8
0
10
369.558014
20
242.419998
30
0.000000
11
369.558014
21
2.580000
31
0.000000
12
370.472992
22
1.431800
32
0.000000
13
370.472992
23
1.431800
33
0.000000
0
3DFACE
8
0
10
270.441986
20
342.579987
30
0.000000
11
2.973200
21
341.432007
31
0.000000
12
269.527008
22
341.432007
32
0.000000
13
269.527008
23
341.432007
33
0.000000
0
3DFACE
8
0
10
270.441986
20
342.579987
30
0.000000
11
2.057500
21
342.579987
31
0.000000
12
2.973200
22
341.432007
32
0.000000
13
2.973200
23
341.432007
33
0.000000
0
3DFACE
8
0
10
370.472992
20
243.567993
30
0.000000
11
369.558014
21
242.419998
31
0.000000
12
370.472992
22
1.431800
32
0.000000
13
370.472992
23
1.431800
33
0.000000
0
3DFACE
8
0
10
352.296997
20
264.500000
30
0.000000
11
293.799988
21
245.000000
31
0.000000
12
364.200012
22
245.000000
32
0.000000
13
364.200012
23
245.000000
33
0.000000
0
3DFACE
8
0
10
352.296997
20
264.500000
30
0.000000
11
292.558014
21
247.580002
31
0.000000
12
293.472992
22
246.432007
32
0.000000
13
293.472992
23
246.432007
33
0.000000
0
3DFACE
8
0
10
352.296997
20
264.500000
30
0.000000
11
293.472992
21
246.432007
31
0.000000
12
293.799988
22
245.000000
32
0.000000
13
293.799988
23
245.000000
33
0.000000
0
3DFACE
8
0
10
352.296997
20
264.500000
30
0.000000
11
364.200012
21
245.000000
31
0.000000
12
364.527008
22
246.432007
32
0.000000
13
364.527008
23
246.432007
33
0.000000
0
3DFACE
8
0
10
352.296997
20
264.500000
30
0.000000
11
364.527008
21
246.432007
31
0.000000
12
365.441986
22
247.580002
32
0.000000
13
365.441986
23
247.580002
33
0.000000
0
3DFACE
8
0
10
352.296997
20
264.500000
30
0.000000
11
365.441986
21
247.580002
31
0.000000
12
366.765991
22
248.216995
32
0.000000
13
366.765991
23
248.216995
33
0.000000
0
3DFACE
8
0
10
292.000000
20
324.796997
30
0.000000
11
275.799988
21
340.000000
31
0.000000
12
275.472992
22
338.567993
32
0.000000
13
275.472992
23
338.567993
33
0.000000
0
3DFACE
8
0
10
292.000000
20
324.796997
30
0.000000
11
275.472992
21
338.567993
31
0.000000
12
274.558014
22
337.420013
32
0.000000
13
274.558014
23
337.420013
33
0.000000
0
3DFACE
8
0
10
292.000000
20
324.796997
30
0.000000
11
274.558014
21
337.420013
31
0.000000
12
273.234009
22
336.782990
32
0.000000
13
273.234009
23
336.782990
33
0.000000
0
3DFACE
8
0
10
292.000000
20
324.796997
30
0.000000
11
273.234009
21
336.782990
31
0.000000
12
271.765991
22
336.782990
32
0.000000
13
271.765991
23
336.782990
33
0.000000
0
3DFACE
8
0
10
292.000000
20
324.796997
30
0.000000
11
271.765991
21
336.782990
31
0.000000
12
288.441986
22
247.580002
32
0.000000
13
288.441986
23
247.580002
33
0.000000
0
3DFACE
8
0
10
292.000000
20
324.796997
30
0.000000
11
288.441986
21
247.580002
31
0.000000
12
289.765991
22
248.216995
32
0.000000
13
289.765991
23
248.216995
33
0.000000
0
3DFACE
8
0
10
292.000000
20
324.796997
30
0.000000
11
289.765991
21
248.216995
31
0.000000
12
291.234009
22
248.216995
32
0.000000
13
291.234009
23
248.216995
33
0.000000
0
3DFACE
8
0
10
292.000000
20
324.796997
30
0.000000
11
291.234009
21
248.216995
31
0.000000
12
292.558014
22
247.580002
32
0.000000
13
292.558014
23
247.580002
33
0.000000
0
3DFACE
8
0
10
292.000000
20
324.796997
30
0.000000
11
292.558014
21
247.580002
31
0.000000
12
352.296997
22
264.500000
32
0.000000
13
352.296997
23
264.500000
33
0.000000
0
3DFACE
8
0
10
382.500000
20
264.500000
30
0.000000
11
370.472992
21
243.567993
31
0.000000
12
370.472992
22
1.431800
32
0.000000
13
370.472992
23
1.431800
33
0.000000
0
3DFACE
8
0
10
382.500000
20
264.500000
30
0.000000
11
370.799988
21
245.000000
31
0.000000
12
370.472992
22
243.567993
32
0.000000
13
370.472992
23
243.567993
33
0.000000
0
3DFACE
8
0
10
382.500000
20
264.500000
30
0.000000
11
366.765991
21
248.216995
31
0.000000
12
368.234009
22
248.216995
32
0.000000
13
368.234009
23
248.216995
33
0.000000
0
3DFACE
8
0
10
382.500000
20
264.500000
30
0.000000
11
368.234009
21
248.216995
31
0.000000
12
369.558014
22
247.580002
32
0.000000
13
369.558014
23
247.580002
33
0.000000
0
3DFACE
8
0
10
382.500000
20
264.500000
30
0.000000
11
369.558014
21
247.580002
31
0.000000
12
370.472992
22
246.432007
32
0.000000
13
370.472992
23
246.432007
33
0.000000
0
3DFACE
8
0
10
382.500000
20
264.500000
30
0.000000
11
370.472992
21
246.432007
31
0.000000
12
370.799988
22
245.000000
32
0.000000
13
370.799988
23
245.000000
33
0.000000
0
3DFACE
8
0
10
382.500000
20
264.500000
30
0.000000
11
352.296997
21
264.500000
31
0.000000
12
366.765991
22
248.216995
32
0.000000
13
366.765991
23
248.216995
33
0.000000
0
3DFACE
8
0
10
382.500000
20
264.500000
30
0.000000
11
370.472992
21
1.431800
31
0.000000
12
370.799988
22
0.000000
32
0.000000
13
370.799988
23
0.000000
33
0.000000
0
3DFACE
8
0
10
292.000000
20
355.000000
30
0.000000
11
270.441986
21
342.579987
31
0.000000
12
271.765991
22
343.217010
32
0.000000
13
271.765991
23
343.217010
33
0.000000
0
3DFACE
8
0
10
292.000000
20
355.000000
30
0.000000
11
271.765991
21
343.217010
31
0.000000
12
273.234009
22
343.217010
32
0.000000
13
273.234009
23
343.217010
33
0.000000
0
3DFACE
8
0
10
292.000000
20
355.000000
30
0.000000
11
273.234009
21
343.217010
31
0.000000
12
274.558014
22
342.579987
32
0.000000
13
274.558014
23
342.579987
33
0.000000
0
3DFACE
8
0
10
292.000000
20
355.000000
30
0.000000
11
274.558014
21
342.579987
31
0.000000
12
275.472992
22
341.432007
32
0.000000
13
275.472992
23
341.432007
33
0.000000
0
3DFACE
8
0
10
292.000000
20
355.000000
30
0.000000
11
275.472992
21
341.432007
31
0.000000
12
275.799988
22
340.000000
32
0.000000
13
275.799988
23
340.000000
33
0.000000
0
3DFACE
8
0
10
292.000000
20
355.000000
30
0.000000
11
275.799988
21
340.000000
31
0.000000
12
292.000000
22
324.796997
32
0.000000
13
292.000000
23
324.796997
33
0.000000
0
3DFACE
8
0
10
292.000000
20
355.000000
30
0.000000
11
2.057500
21
342.579987
31
0.000000
12
270.441986
22
342.579987
32
0.000000
13
270.441986
23
342.579987
33
0.000000
0
3DFACE
8
0
10
292.000000
20
355.000000
30
0.000000
11
0.734300
21
343.217010
31
0.000000
12
2.057500
22
342.579987
32
0.000000
13
2.057500
23
342.579987
33
0.000000
0
3DFACE
8
0
10
-382.500000
20
264.500000
30
0.000000
11
-382.500000
21
-264.500000
31
0.000000
12
-370.799988
22
0.000000
32
0.000000
13
-370.799988
23
0.000000
33
0.000000
0
3DFACE
8
0
10
-292.000000
20
-355.000000
30
0.000000
11
292.000000
21
-355.000000
31
0.000000
12
0.734300
22
-343.217010
32
0.000000
13
0.734300
23
-343.217010
33
0.000000
0
3DFACE
8
0
10
-292.000000
20
-355.000000
30
0.000000
11
0.734300
21
-343.217010
31
0.000000
12
-0.734300
22
-343.217010
32
0.000000
13
-0.734300
23
-343.217010
33
0.000000
0
3DFACE
8
0
10
382.500000
20
-264.500000
30
0.000000
11
382.500000
21
264.500000
31
0.000000
12
370.799988
22
0.000000
32
0.000000
13
370.799988
23
0.000000
33
0.000000
0
3DFACE
8
0
10
292.000000
20
355.000000
30
0.000000
11
-292.000000
21
355.000000
31
0.000000
12
-0.734300
22
343.217010
32
0.000000
13
-0.734300
23
343.217010
33
0.000000
0
3DFACE
8
0
10
292.000000
20
355.000000
30
0.000000
11
-0.734300
21
343.217010
31
0.000000
12
0.734300
22
343.217010
32
0.000000
13
0.734300
23
343.217010
33
0.000000
0
3DFACE
8
0
10
-352.296997
20
264.500000
30
-4.000000
11
-382.500000
21
264.500000
31
0.000000
12
-352.296997
22
264.500000
32
0.000000
13
-352.296997
23
264.500000
33
0.000000
0
3DFACE
8
0
10
-352.296997
20
264.500000
30
-4.000000
11
-382.500000
21
264.500000
31
-4.000000
12
-382.500000
22
264.500000
32
0.000000
13
-382.500000
23
264.500000
33
0.000000
0
3DFACE
8
0
10
-292.000000
20
324.796997
30
0.000000
11
-292.000000
21
324.796997
31
-4.000000
12
-352.296997
22
264.500000
32
-4.000000
13
-352.296997
23
264.500000
33
-4.000000
0
3DFACE
8
0
10
-292.000000
20
324.796997
30
0.000000
11
-352.296997
21
264.500000
31
-4.000000
12
-352.296997
22
264.500000
32
0.000000
13
-352.296997
23
264.500000
33
0.000000
0
3DFACE
8
0
10
-292.000000
20
355.000000
30
0.000000
11
-292.000000
21
355.000000
31
-4.000000
12
-292.000000
22
324.796997
32
-4.000000
13
-292.000000
23
324.796997
33
-4.000000
0
3DFACE
8
0
10
-292.000000
20
355.000000
30
0.000000
11
-292.000000
21
324.796997
31
-4.000000
12
-292.000000
22
324.796997
32
0.000000
13
-292.000000
23
324.796997
33
0.000000
0
3DFACE
8
0
10
292.000000
20
355.000000
30
0.000000
11
-292.000000
21
355.000000
31
-4.000000
12
-292.000000
22
355.000000
32
0.000000
13
-292.000000
23
355.000000
33
0.000000
0
3DFACE
8
0
10
292.000000
20
355.000000
30
-4.000000
11
-292.000000
21
355.000000
31
-4.000000
12
292.000000
22
355.000000
32
0.000000
13
292.000000
23
355.000000
33
0.000000
0
3DFACE
8
0
10
292.000000
20
324.796997
30
-4.000000
11
292.000000
21
355.000000
31
0.000000
12
292.000000
22
324.796997
32
0.000000
13
292.000000
23
324.796997
33
0.000000
0
3DFACE
8
0
10
292.000000
20
324.796997
30
-4.000000
11
292.000000
21
355.000000
31
-4.000000
12
292.000000
22
355.000000
32
0.000000
13
292.000000
23
355.000000
33
0.000000
0
3DFACE
8
0
10
292.000000
20
324.796997
30
-4.000000
11
292.000000
21
324.796997
31
0.000000
12
352.296997
22
264.500000
32
0.000000
13
352.296997
23
264.500000
33
0.000000
0
3DFACE
8
0
10
292.000000
20
324.796997
30
-4.000000
11
352.296997
21
264.500000
31
0.000000
12
352.296997
22
264.500000
32
-4.000000
13
352.296997
23
264.500000
33
-4.000000
0
3DFACE
8
0
10
382.500000
20
264.500000
30
-4.000000
11
352.296997
21
264.500000
31
0.000000
12
382.500000
22
264.500000
32
0.000000
13
382.500000
23
264.500000
33
0.000000
0
3DFACE
8
0
10
382.500000
20
264.500000
30
-4.000000
11
352.296997
21
264.500000
31
-4.000000
12
352.296997
22
264.500000
32
0.000000
13
352.296997
23
264.500000
33
0.000000
0
3DFACE
8
0
10
382.500000
20
264.500000
30
-4.000000
11
382.500000
21
-264.500000
31
0.000000
12
382.500000
22
-264.500000
32
-4.000000
13
382.500000
23
-264.500000
33
-4.000000
0
3DFACE
8
0
10
382.500000
20
264.500000
30
0.000000
11
382.500000
21
-264.500000
31
0.000000
12
382.500000
22
264.500000
32
-4.000000
13
382.500000
23
264.500000
33
-4.000000
0
3DFACE
8
0
10
352.296997
20
-264.500000
30
-4.000000
11
382.500000
21
-264.500000
31
0.000000
12
352.296997
22
-264.500000
32
0.000000
13
352.296997
23
-264.500000
33
0.000000
0
3DFACE
8
0
10
352.296997
20
-264.500000
30
-4.000000
11
382.500000
21
-264.500000
31
-4.000000
12
382.500000
22
-264.500000
32
0.000000
13
382.500000
23
-264.500000
33
0.000000
0
3DFACE
8
0
10
352.296997
20
-264.500000
30
-4.000000
11
352.296997
21
-264.500000
31
0.000000
12
292.000000
22
-324.796997
32
0.000000
13
292.000000
23
-324.796997
33
0.000000
0
3DFACE
8
0
10
352.296997
20
-264.500000
30
-4.000000
11
292.000000
21
-324.796997
31
0.000000
12
292.000000
22
-324.796997
32
-4.000000
13
292.000000
23
-324.796997
33
-4.000000
0
3DFACE
8
0
10
292.000000
20
-355.000000
30
-4.000000
11
292.000000
21
-324.796997
31
0.000000
12
292.000000
22
-355.000000
32
0.000000
13
292.000000
23
-355.000000
33
0.000000
0
3DFACE
8
0
10
292.000000
20
-355.000000
30
-4.000000
11
292.000000
21
-324.796997
31
-4.000000
12
292.000000
22
-324.796997
32
0.000000
13
292.000000
23
-324.796997
33
0.000000
0
3DFACE
8
0
10
292.000000
20
-355.000000
30
0.000000
11
-292.000000
21
-355.000000
31
0.000000
12
-292.000000
22
-355.000000
32
-4.000000
13
-292.000000
23
-355.000000
33
-4.000000
0
3DFACE
8
0
10
292.000000
20
-355.000000
30
-4.000000
11
292.000000
21
-355.000000
31
0.000000
12
-292.000000
22
-355.000000
32
-4.000000
13
-292.000000
23
-355.000000
33
-4.000000
0
3DFACE
8
0
10
-292.000000
20
-324.796997
30
0.000000
11
-292.000000
21
-324.796997
31
-4.000000
12
-292.000000
22
-355.000000
32
-4.000000
13
-292.000000
23
-355.000000
33
-4.000000
0
3DFACE
8
0
10
-292.000000
20
-324.796997
30
0.000000
11
-292.000000
21
-355.000000
31
-4.000000
12
-292.000000
22
-355.000000
32
0.000000
13
-292.000000
23
-355.000000
33
0.000000
0
3DFACE
8
0
10
-352.296997
20
-264.500000
30
-4.000000
11
-292.000000
21
-324.796997
31
0.000000
12
-352.296997
22
-264.500000
32
0.000000
13
-352.296997
23
-264.500000
33
0.000000
0
3DFACE
8
0
10
-352.296997
20
-264.500000
30
-4.000000
11
-292.000000
21
-324.796997
31
-4.000000
12
-292.000000
22
-324.796997
32
0.000000
13
-292.000000
23
-324.796997
33
0.000000
0
3DFACE
8
0
10
-352.296997
20
-264.500000
30
0.000000
11
-382.500000
21
-264.500000
31
0.000000
12
-382.500000
22
-264.500000
32
-4.000000
13
-382.500000
23
-264.500000
33
-4.000000
0
3DFACE
8
0
10
-352.296997
20
-264.500000
30
-4.000000
11
-352.296997
21
-264.500000
31
0.000000
12
-382.500000
22
-264.500000
32
-4.000000
13
-382.500000
23
-264.500000
33
-4.000000
0
3DFACE
8
0
10
-382.500000
20
264.500000
30
-4.000000
11
-382.500000
21
-264.500000
31
-4.000000
12
-382.500000
22
-264.500000
32
0.000000
13
-382.500000
23
-264.500000
33
0.000000
0
3DFACE
8
0
10
-382.500000
20
264.500000
30
0.000000
11
-382.500000
21
264.500000
31
-4.000000
12
-382.500000
22
-264.500000
32
0.000000
13
-382.500000
23
-264.500000
33
0.000000
0
3DFACE
8
0
10
293.799988
20
-245.000000
30
-4.000000
11
293.472992
21
-246.432007
31
-4.000000
12
293.799988
22
-245.000000
32
0.000000
13
293.799988
23
-245.000000
33
0.000000
0
3DFACE
8
0
10
293.799988
20
-245.000000
30
0.000000
11
293.472992
21
-246.432007
31
-4.000000
12
293.472992
22
-246.432007
32
0.000000
13
293.472992
23
-246.432007
33
0.000000
0
3DFACE
8
0
10
293.472992
20
-246.432007
30
0.000000
11
292.558014
21
-247.580002
31
-4.000000
12
292.558014
22
-247.580002
32
0.000000
13
292.558014
23
-247.580002
33
0.000000
0
3DFACE
8
0
10
293.472992
20
-246.432007
30
-4.000000
11
292.558014
21
-247.580002
31
-4.000000
12
293.472992
22
-246.432007
32
0.000000
13
293.472992
23
-246.432007
33
0.000000
0
3DFACE
8
0
10
292.558014
20
-247.580002
30
0.000000
11
291.234009
21
-248.216995
31
-4.000000
12
291.234009
22
-248.216995
32
0.000000
13
291.234009
23
-248.216995
33
0.000000
0
3DFACE
8
0
10
292.558014
20
-247.580002
30
-4.000000
11
291.234009
21
-248.216995
31
-4.000000
12
292.558014
22
-247.580002
32
0.000000
13
292.558014
23
-247.580002
33
0.000000
0
3DFACE
8
0
10
291.234009
20
-248.216995
30
0.000000
11
289.765991
21
-248.216995
31
-4.000000
12
289.765991
22
-248.216995
32
0.000000
13
289.765991
23
-248.216995
33
0.000000
0
3DFACE
8
0
10
291.234009
20
-248.216995
30
-4.000000
11
289.765991
21
-248.216995
31
-4.000000
12
291.234009
22
-248.216995
32
0.000000
13
291.234009
23
-248.216995
33
0.000000
0
3DFACE
8
0
10
289.765991
20
-248.216995
30
0.000000
11
288.441986
21
-247.580002
31
-4.000000
12
288.441986
22
-247.580002
32
0.000000
13
288.441986
23
-247.580002
33
0.000000
0
3DFACE
8
0
10
289.765991
20
-248.216995
30
-4.000000
11
288.441986
21
-247.580002
31
-4.000000
12
289.765991
22
-248.216995
32
0.000000
13
289.765991
23
-248.216995
33
0.000000
0
3DFACE
8
0
10
288.441986
20
-247.580002
30
0.000000
11
287.527008
21
-246.432007
31
-4.000000
12
287.527008
22
-246.432007
32
0.000000
13
287.527008
23
-246.432007
33
0.000000
0
3DFACE
8
0
10
287.527008
20
-246.432007
30
0.000000
11
287.527008
21
-246.432007
31
-4.000000
12
287.200012
22
-245.000000
32
0.000000
13
287.200012
23
-245.000000
33
0.000000
0
3DFACE
8
0
10
288.441986
20
-247.580002
30
-4.000000
11
287.527008
21
-246.432007
31
-4.000000
12
288.441986
22
-247.580002
32
0.000000
13
288.441986
23
-247.580002
33
0.000000
0
3DFACE
8
0
10
287.527008
20
-246.432007
30
-4.000000
11
287.200012
21
-245.000000
31
-4.000000
12
287.200012
22
-245.000000
32
0.000000
13
287.200012
23
-245.000000
33
0.000000
0
3DFACE
8
0
10
-364.200012
20
-189.500000
30
-4.000000
11
-364.527008
21
-190.932007
31
-4.000000
12
-364.200012
22
-189.500000
32
0.000000
13
-364.200012
23
-189.500000
33
0.000000
0
3DFACE
8
0
10
-364.200012
20
-189.500000
30
0.000000
11
-364.527008
21
-190.932007
31
-4.000000
12
-364.527008
22
-190.932007
32
0.000000
13
-364.527008
23
-190.932007
33
0.000000
0
3DFACE
8
0
10
-364.527008
20
-190.932007
30
0.000000
11
-365.441986
21
-192.080002
31
-4.000000
12
-365.441986
22
-192.080002
32
0.000000
13
-365.441986
23
-192.080002
33
0.000000
0
3DFACE
8
0
10
-364.527008
20
-190.932007
30
-4.000000
11
-365.441986
21
-192.080002
31
-4.000000
12
-364.527008
22
-190.932007
32
0.000000
13
-364.527008
23
-190.932007
33
0.000000
0
3DFACE
8
0
10
-365.441986
20
-192.080002
30
0.000000
11
-366.765991
21
-192.716995
31
-4.000000
12
-366.765991
22
-192.716995
32
0.000000
13
-366.765991
23
-192.716995
33
0.000000
0
3DFACE
8
0
10
-365.441986
20
-192.080002
30
-4.000000
11
-366.765991
21
-192.716995
31
-4.000000
12
-365.441986
22
-192.080002
32
0.000000
13
-365.441986
23
-192.080002
33
0.000000
0
3DFACE
8
0
10
-366.765991
20
-192.716995
30
0.000000
11
-368.234009
21
-192.716995
31
-4.000000
12
-368.234009
22
-192.716995
32
0.000000
13
-368.234009
23
-192.716995
33
0.000000
0
3DFACE
8
0
10
-366.765991
20
-192.716995
30
-4.000000
11
-368.234009
21
-192.716995
31
-4.000000
12
-366.765991
22
-192.716995
32
0.000000
13
-366.765991
23
-192.716995
33
0.000000
0
3DFACE
8
0
10
-368.234009
20
-192.716995
30
0.000000
11
-369.558014
21
-192.080002
31
-4.000000
12
-369.558014
22
-192.080002
32
0.000000
13
-369.558014
23
-192.080002
33
0.000000
0
3DFACE
8
0
10
-368.234009
20
-192.716995
30
-4.000000
11
-369.558014
21
-192.080002
31
-4.000000
12
-368.234009
22
-192.716995
32
0.000000
13
-368.234009
23
-192.716995
33
0.000000
0
3DFACE
8
0
10
-369.558014
20
-192.080002
30
0.000000
11
-370.472992
21
-190.932007
31
-4.000000
12
-370.472992
22
-190.932007
32
0.000000
13
-370.472992
23
-190.932007
33
0.000000
0
3DFACE
8
0
10
-370.472992
20
-190.932007
30
0.000000
11
-370.472992
21
-190.932007
31
-4.000000
12
-370.799988
22
-189.500000
32
0.000000
13
-370.799988
23
-189.500000
33
0.000000
0
3DFACE
8
0
10
-369.558014
20
-192.080002
30
-4.000000
11
-370.472992
21
-190.932007
31
-4.000000
12
-369.558014
22
-192.080002
32
0.000000
13
-369.558014
23
-192.080002
33
0.000000
0
3DFACE
8
0
10
-370.472992
20
-190.932007
30
-4.000000
11
-370.799988
21
-189.500000
31
-4.000000
12
-370.799988
22
-189.500000
32
0.000000
13
-370.799988
23
-189.500000
33
0.000000
0
3DFACE
8
0
10
-364.200012
20
0.000000
30
-4.000000
11
-364.527008
21
-1.431800
31
-4.000000
12
-364.200012
22
0.000000
32
0.000000
13
-364.200012
23
0.000000
33
0.000000
0
3DFACE
8
0
10
-364.200012
20
0.000000
30
0.000000
11
-364.527008
21
-1.431800
31
-4.000000
12
-364.527008
22
-1.431800
32
0.000000
13
-364.527008
23
-1.431800
33
0.000000
0
3DFACE
8
0
10
-364.527008
20
-1.431800
30
0.000000
11
-365.441986
21
-2.580000
31
-4.000000
12
-365.441986
22
-2.580000
32
0.000000
13
-365.441986
23
-2.580000
33
0.000000
0
3DFACE
8
0
10
-364.527008
20
-1.431800
30
-4.000000
11
-365.441986
21
-2.580000
31
-4.000000
12
-364.527008
22
-1.431800
32
0.000000
13
-364.527008
23
-1.431800
33
0.000000
0
3DFACE
8
0
10
-365.441986
20
-2.580000
30
0.000000
11
-366.765991
21
-3.217300
31
-4.000000
12
-366.765991
22
-3.217300
32
0.000000
13
-366.765991
23
-3.217300
33
0.000000
0
3DFACE
8
0
10
-365.441986
20
-2.580000
30
-4.000000
11
-366.765991
21
-3.217300
31
-4.000000
12
-365.441986
22
-2.580000
32
0.000000
13
-365.441986
23
-2.580000
33
0.000000
0
3DFACE
8
0
10
-366.765991
20
-3.217300
30
0.000000
11
-368.234009
21
-3.217300
31
-4.000000
12
-368.234009
22
-3.217300
32
0.000000
13
-368.234009
23
-3.217300
33
0.000000
0
3DFACE
8
0
10
-366.765991
20
-3.217300
30
-4.000000
11
-368.234009
21
-3.217300
31
-4.000000
12
-366.765991
22
-3.217300
32
0.000000
13
-366.765991
23
-3.217300
33
0.000000
0
3DFACE
8
0
10
-368.234009
20
-3.217300
30
0.000000
11
-369.558014
21
-2.580000
31
-4.000000
12
-369.558014
22
-2.580000
32
0.000000
13
-369.558014
23
-2.580000
33
0.000000
0
3DFACE
8
0
10
-368.234009
20
-3.217300
30
-4.000000
11
-369.558014
21
-2.580000
31
-4.000000
12
-368.234009
22
-3.217300
32
0.000000
13
-368.234009
23
-3.217300
33
0.000000
0
3DFACE
8
0
10
-369.558014
20
-2.580000
30
0.000000
11
-370.472992
21
-1.431800
31
-4.000000
12
-370.472992
22
-1.431800
32
0.000000
13
-370.472992
23
-1.431800
33
0.000000
0
3DFACE
8
0
10
-370.472992
20
-1.431800
30
0.000000
11
-370.472992
21
-1.431800
31
-4.000000
12
-370.799988
22
0.000000
32
0.000000
13
-370.799988
23
0.000000
33
0.000000
0
3DFACE
8
0
10
-369.558014
20
-2.580000
30
-4.000000
11
-370.472992
21
-1.431800
31
-4.000000
12
-369.558014
22
-2.580000
32
0.000000
13
-369.558014
23
-2.580000
33
0.000000
0
3DFACE
8
0
10
-370.472992
20
-1.431800
30
-4.000000
11
-370.799988
21
0.000000
31
-4.000000
12
-370.799988
22
0.000000
32
0.000000
13
-370.799988
23
0.000000
33
0.000000
0
3DFACE
8
0
10
3.300000
20
-340.000000
30
-4.000000
11
2.973200
21
-341.432007
31
-4.000000
12
3.300000
22
-340.000000
32
0.000000
13
3.300000
23
-340.000000
33
0.000000
0
3DFACE
8
0
10
3.300000
20
-340.000000
30
0.000000
11
2.973200
21
-341.432007
31
-4.000000
12
2.973200
22
-341.432007
32
0.000000
13
2.973200
23
-341.432007
33
0.000000
0
3DFACE
8
0
10
2.973200
20
-341.432007
30
0.000000
11
2.057500
21
-342.579987
31
-4.000000
12
2.057500
22
-342.579987
32
0.000000
13
2.057500
23
-342.579987
33
0.000000
0
3DFACE
8
0
10
2.973200
20
-341.432007
30
-4.000000
11
2.057500
21
-342.579987
31
-4.000000
12
2.973200
22
-341.432007
32
0.000000
13
2.973200
23
-341.432007
33
0.000000
0
3DFACE
8
0
10
2.057500
20
-342.579987
30
0.000000
11
0.734300
21
-343.217010
31
-4.000000
12
0.734300
22
-343.217010
32
0.000000
13
0.734300
23
-343.217010
33
0.000000
0
3DFACE
8
0
10
2.057500
20
-342.579987
30
-4.000000
11
0.734300
21
-343.217010
31
-4.000000
12
2.057500
22
-342.579987
32
0.000000
13
2.057500
23
-342.579987
33
0.000000
0
3DFACE
8
0
10
0.734300
20
-343.217010
30
0.000000
11
-0.734300
21
-343.217010
31
-4.000000
12
-0.734300
22
-343.217010
32
0.000000
13
-0.734300
23
-343.217010
33
0.000000
0
3DFACE
8
0
10
0.734300
20
-343.217010
30
-4.000000
11
-0.734300
21
-343.217010
31
-4.000000
12
0.734300
22
-343.217010
32
0.000000
13
0.734300
23
-343.217010
33
0.000000
0
3DFACE
8
0
10
-0.734300
20
-343.217010
30
0.000000
11
-2.057500
21
-342.579987
31
-4.000000
12
-2.057500
22
-342.579987
32
0.000000
13
-2.057500
23
-342.579987
33
0.000000
0
3DFACE
8
0
10
-0.734300
20
-343.217010
30
-4.000000
11
-2.057500
21
-342.579987
31
-4.000000
12
-0.734300
22
-343.217010
32
0.000000
13
-0.734300
23
-343.217010
33
0.000000
0
3DFACE
8
0
10
-2.057500
20
-342.579987
30
0.000000
11
-2.973200
21
-341.432007
31
-4.000000
12
-2.973200
22
-341.432007
32
0.000000
13
-2.973200
23
-341.432007
33
0.000000
0
3DFACE
8
0
10
-2.973200
20
-341.432007
30
0.000000
11
-2.973200
21
-341.432007
31
-4.000000
12
-3.300000
22
-340.000000
32
0.000000
13
-3.300000
23
-340.000000
33
0.000000
0
3DFACE
8
0
10
-2.057500
20
-342.579987
30
-4.000000
11
-2.973200
21
-341.432007
31
-4.000000
12
-2.057500
22
-342.579987
32
0.000000
13
-2.057500
23
-342.579987
33
0.000000
0
3DFACE
8
0
10
-2.973200
20
-341.432007
30
-4.000000
11
-3.300000
21
-340.000000
31
-4.000000
12
-3.300000
22
-340.000000
32
0.000000
13
-3.300000
23
-340.000000
33
0.000000
0
3DFACE
8
0
10
370.799988
20
-245.000000
30
-4.000000
11
370.472992
21
-246.432007
31
-4.000000
12
370.799988
22
-245.000000
32
0.000000
13
370.799988
23
-245.000000
33
0.000000
0
3DFACE
8
0
10
370.799988
20
-245.000000
30
0.000000
11
370.472992
21
-246.432007
31
-4.000000
12
370.472992
22
-246.432007
32
0.000000
13
370.472992
23
-246.432007
33
0.000000
0
3DFACE
8
0
10
370.472992
20
-246.432007
30
0.000000
11
369.558014
21
-247.580002
31
-4.000000
12
369.558014
22
-247.580002
32
0.000000
13
369.558014
23
-247.580002
33
0.000000
0
3DFACE
8
0
10
370.472992
20
-246.432007
30
-4.000000
11
369.558014
21
-247.580002
31
-4.000000
12
370.472992
22
-246.432007
32
0.000000
13
370.472992
23
-246.432007
33
0.000000
0
3DFACE
8
0
10
369.558014
20
-247.580002
30
0.000000
11
368.234009
21
-248.216995
31
-4.000000
12
368.234009
22
-248.216995
32
0.000000
13
368.234009
23
-248.216995
33
0.000000
0
3DFACE
8
0
10
369.558014
20
-247.580002
30
-4.000000
11
368.234009
21
-248.216995
31
-4.000000
12
369.558014
22
-247.580002
32
0.000000
13
369.558014
23
-247.580002
33
0.000000
0
3DFACE
8
0
10
368.234009
20
-248.216995
30
0.000000
11
366.765991
21
-248.216995
31
-4.000000
12
366.765991
22
-248.216995
32
0.000000
13
366.765991
23
-248.216995
33
0.000000
0
3DFACE
8
0
10
368.234009
20
-248.216995
30
-4.000000
11
366.765991
21
-248.216995
31
-4.000000
12
368.234009
22
-248.216995
32
0.000000
13
368.234009
23
-248.216995
33
0.000000
0
3DFACE
8
0
10
366.765991
20
-248.216995
30
0.000000
11
365.441986
21
-247.580002
31
-4.000000
12
365.441986
22
-247.580002
32
0.000000
13
365.441986
23
-247.580002
33
0.000000
0
3DFACE
8
0
10
366.765991
20
-248.216995
30
-4.000000
11
365.441986
21
-247.580002
31
-4.000000
12
366.765991
22
-248.216995
32
0.000000
13
366.765991
23
-248.216995
33
0.000000
0
3DFACE
8
0
10
365.441986
20
-247.580002
30
0.000000
11
364.527008
21
-246.432007
31
-4.000000
12
364.527008
22
-246.432007
32
0.000000
13
364.527008
23
-246.432007
33
0.000000
0
3DFACE
8
0
10
364.527008
20
-246.432007
30
0.000000
11
364.527008
21
-246.432007
31
-4.000000
12
364.200012
22
-245.000000
32
0.000000
13
364.200012
23
-245.000000
33
0.000000
0
3DFACE
8
0
10
365.441986
20
-247.580002
30
-4.000000
11
364.527008
21
-246.432007
31
-4.000000
12
365.441986
22
-247.580002
32
0.000000
13
365.441986
23
-247.580002
33
0.000000
0
3DFACE
8
0
10
364.527008
20
-246.432007
30
-4.000000
11
364.200012
21
-245.000000
31
-4.000000
12
364.200012
22
-245.000000
32
0.000000
13
364.200012
23
-245.000000
33
0.000000
0
3DFACE
8
0
10
293.799988
20
0.000000
30
-4.000000
11
293.472992
21
-1.431800
31
-4.000000
12
293.799988
22
0.000000
32
0.000000
13
293.799988
23
0.000000
33
0.000000
0
3DFACE
8
0
10
293.799988
20
0.000000
30
0.000000
11
293.472992
21
-1.431800
31
-4.000000
12
293.472992
22
-1.431800
32
0.000000
13
293.472992
23
-1.431800
33
0.000000
0
3DFACE
8
0
10
293.472992
20
-1.431800
30
0.000000
11
292.558014
21
-2.580000
31
-4.000000
12
292.558014
22
-2.580000
32
0.000000
13
292.558014
23
-2.580000
33
0.000000
0
3DFACE
8
0
10
293.472992
20
-1.431800
30
-4.000000
11
292.558014
21
-2.580000
31
-4.000000
12
293.472992
22
-1.431800
32
0.000000
13
293.472992
23
-1.431800
33
0.000000
0
3DFACE
8
0
10
292.558014
20
-2.580000
30
0.000000
11
291.234009
21
-3.217300
31
-4.000000
12
291.234009
22
-3.217300
32
0.000000
13
291.234009
23
-3.217300
33
0.000000
0
3DFACE
8
0
10
292.558014
20
-2.580000
30
-4.000000
11
291.234009
21
-3.217300
31
-4.000000
12
292.558014
22
-2.580000
32
0.000000
13
292.558014
23
-2.580000
33
0.000000
0
3DFACE
8
0
10
291.234009
20
-3.217300
30
0.000000
11
289.765991
21
-3.217300
31
-4.000000
12
289.765991
22
-3.217300
32
0.000000
13
289.765991
23
-3.217300
33
0.000000
0
3DFACE
8
0
10
291.234009
20
-3.217300
30
-4.000000
11
289.765991
21
-3.217300
31
-4.000000
12
291.234009
22
-3.217300
32
0.000000
13
291.234009
23
-3.217300
33
0.000000
0
3DFACE
8
0
10
289.765991
20
-3.217300
30
0.000000
11
288.441986
21
-2.580000
31
-4.000000
12
288.441986
22
-2.580000
32
0.000000
13
288.441986
23
-2.580000
33
0.000000
0
3DFACE
8
0
10
289.765991
20
-3.217300
30
-4.000000
11
288.441986
21
-2.580000
31
-4.000000
12
289.765991
22
-3.217300
32
0.000000
13
289.765991
23
-3.217300
33
0.000000
0
3DFACE
8
0
10
288.441986
20
-2.580000
30
0.000000
11
287.527008
21
-1.431800
31
-4.000000
12
287.527008
22
-1.431800
32
0.000000
13
287.527008
23
-1.431800
33
0.000000
0
3DFACE
8
0
10
287.527008
20
-1.431800
30
0.000000
11
287.527008
21
-1.431800
31
-4.000000
12
287.200012
22
0.000000
32
0.000000
13
287.200012
23
0.000000
33
0.000000
0
3DFACE
8
0
10
288.441986
20
-2.580000
30
-4.000000
11
287.527008
21
-1.431800
31
-4.000000
12
288.441986
22
-2.580000
32
0.000000
13
288.441986
23
-2.580000
33
0.000000
0
3DFACE
8
0
10
287.527008
20
-1.431800
30
-4.000000
11
287.200012
21
0.000000
31
-4.000000
12
287.200012
22
0.000000
32
0.000000
13
287.200012
23
0.000000
33
0.000000
0
3DFACE
8
0
10
275.799988
20
340.000000
30
-4.000000
11
275.472992
21
338.567993
31
-4.000000
12
275.799988
22
340.000000
32
0.000000
13
275.799988
23
340.000000
33
0.000000
0
3DFACE
8
0
10
275.799988
20
340.000000
30
0.000000
11
275.472992
21
338.567993
31
-4.000000
12
275.472992
22
338.567993
32
0.000000
13
275.472992
23
338.567993
33
0.000000
0
3DFACE
8
0
10
275.472992
20
338.567993
30
0.000000
11
274.558014
21
337.420013
31
-4.000000
12
274.558014
22
337.420013
32
0.000000
13
274.558014
23
337.420013
33
0.000000
0
3DFACE
8
0
10
275.472992
20
338.567993
30
-4.000000
11
274.558014
21
337.420013
31
-4.000000
12
275.472992
22
338.567993
32
0.000000
13
275.472992
23
338.567993
33
0.000000
0
3DFACE
8
0
10
274.558014
20
337.420013
30
0.000000
11
273.234009
21
336.782990
31
-4.000000
12
273.234009
22
336.782990
32
0.000000
13
273.234009
23
336.782990
33
0.000000
0
3DFACE
8
0
10
274.558014
20
337.420013
30
-4.000000
11
273.234009
21
336.782990
31
-4.000000
12
274.558014
22
337.420013
32
0.000000
13
274.558014
23
337.420013
33
0.000000
0
3DFACE
8
0
10
273.234009
20
336.782990
30
0.000000
11
271.765991
21
336.782990
31
-4.000000
12
271.765991
22
336.782990
32
0.000000
13
271.765991
23
336.782990
33
0.000000
0
3DFACE
8
0
10
273.234009
20
336.782990
30
-4.000000
11
271.765991
21
336.782990
31
-4.000000
12
273.234009
22
336.782990
32
0.000000
13
273.234009
23
336.782990
33
0.000000
0
3DFACE
8
0
10
271.765991
20
336.782990
30
0.000000
11
270.441986
21
337.420013
31
-4.000000
12
270.441986
22
337.420013
32
0.000000
13
270.441986
23
337.420013
33
0.000000
0
3DFACE
8
0
10
271.765991
20
336.782990
30
-4.000000
11
270.441986
21
337.420013
31
-4.000000
12
271.765991
22
336.782990
32
0.000000
13
271.765991
23
336.782990
33
0.000000
0
3DFACE
8
0
10
270.441986
20
337.420013
30
0.000000
11
269.527008
21
338.567993
31
-4.000000
12
269.527008
22
338.567993
32
0.000000
13
269.527008
23
338.567993
33
0.000000
0
3DFACE
8
0
10
269.527008
20
338.567993
30
0.000000
11
269.527008
21
338.567993
31
-4.000000
12
269.200012
22
340.000000
32
0.000000
13
269.200012
23
340.000000
33
0.000000
0
3DFACE
8
0
10
270.441986
20
337.420013
30
-4.000000
11
269.527008
21
338.567993
31
-4.000000
12
270.441986
22
337.420013
32
0.000000
13
270.441986
23
337.420013
33
0.000000
0
3DFACE
8
0
10
269.527008
20
338.567993
30
-4.000000
11
269.200012
21
340.000000
31
-4.000000
12
269.200012
22
340.000000
32
0.000000
13
269.200012
23
340.000000
33
0.000000
0
3DFACE
8
0
10
-269.200012
20
340.000000
30
-4.000000
11
-269.527008
21
338.567993
31
-4.000000
12
-269.200012
22
340.000000
32
0.000000
13
-269.200012
23
340.000000
33
0.000000
0
3DFACE
8
0
10
-269.200012
20
340.000000
30
0.000000
11
-269.527008
21
338.567993
31
-4.000000
12
-269.527008
22
338.567993
32
0.000000
13
-269.527008
23
338.567993
33
0.000000
0
3DFACE
8
0
10
-269.527008
20
338.567993
30
0.000000
11
-270.441986
21
337.420013
31
-4.000000
12
-270.441986
22
337.420013
32
0.000000
13
-270.441986
23
337.420013
33
0.000000
0
3DFACE
8
0
10
-269.527008
20
338.567993
30
-4.000000
11
-270.441986
21
337.420013
31
-4.000000
12
-269.527008
22
338.567993
32
0.000000
13
-269.527008
23
338.567993
33
0.000000
0
3DFACE
8
0
10
-270.441986
20
337.420013
30
0.000000
11
-271.765991
21
336.782990
31
-4.000000
12
-271.765991
22
336.782990
32
0.000000
13
-271.765991
23
336.782990
33
0.000000
0
3DFACE
8
0
10
-270.441986
20
337.420013
30
-4.000000
11
-271.765991
21
336.782990
31
-4.000000
12
-270.441986
22
337.420013
32
0.000000
13
-270.441986
23
337.420013
33
0.000000
0
3DFACE
8
0
10
-271.765991
20
336.782990
30
0.000000
11
-273.234009
21
336.782990
31
-4.000000
12
-273.234009
22
336.782990
32
0.000000
13
-273.234009
23
336.782990
33
0.000000
0
3DFACE
8
0
10
-271.765991
20
336.782990
30
-4.000000
11
-273.234009
21
336.782990
31
-4.000000
12
-271.765991
22
336.782990
32
0.000000
13
-271.765991
23
336.782990
33
0.000000
0
3DFACE
8
0
10
-273.234009
20
336.782990
30
0.000000
11
-274.558014
21
337.420013
31
-4.000000
12
-274.558014
22
337.420013
32
0.000000
13
-274.558014
23
337.420013
33
0.000000
0
3DFACE
8
0
10
-273.234009
20
336.782990
30
-4.000000
11
-274.558014
21
337.420013
31
-4.000000
12
-273.234009
22
336.782990
32
0.000000
13
-273.234009
23
336.782990
33
0.000000
0
3DFACE
8
0
10
-274.558014
20
337.420013
30
0.000000
11
-275.472992
21
338.567993
31
-4.000000
12
-275.472992
22
338.567993
32
0.000000
13
-275.472992
23
338.567993
33
0.000000
0
3DFACE
8
0
10
-275.472992
20
338.567993
30
0.000000
11
-275.472992
21
338.567993
31
-4.000000
12
-275.799988
22
340.000000
32
0.000000
13
-275.799988
23
340.000000
33
0.000000
0
3DFACE
8
0
10
-274.558014
20
337.420013
30
-4.000000
11
-275.472992
21
338.567993
31
-4.000000
12
-274.558014
22
337.420013
32
0.000000
13
-274.558014
23
337.420013
33
0.000000
0
3DFACE
8
0
10
-275.472992
20
338.567993
30
-4.000000
11
-275.799988
21
340.000000
31
-4.000000
12
-275.799988
22
340.000000
32
0.000000
13
-275.799988
23
340.000000
33
0.000000
0
3DFACE
8
0
10
3.300000
20
340.000000
30
-4.000000
11
2.973200
21
338.567993
31
-4.000000
12
3.300000
22
340.000000
32
0.000000
13
3.300000
23
340.000000
33
0.000000
0
3DFACE
8
0
10
3.300000
20
340.000000
30
0.000000
11
2.973200
21
338.567993
31
-4.000000
12
2.973200
22
338.567993
32
0.000000
13
2.973200
23
338.567993
33
0.000000
0
3DFACE
8
0
10
2.973200
20
338.567993
30
0.000000
11
2.057500
21
337.420013
31
-4.000000
12
2.057500
22
337.420013
32
0.000000
13
2.057500
23
337.420013
33
0.000000
0
3DFACE
8
0
10
2.973200
20
338.567993
30
-4.000000
11
2.057500
21
337.420013
31
-4.000000
12
2.973200
22
338.567993
32
0.000000
13
2.973200
23
338.567993
33
0.000000
0
3DFACE
8
0
10
2.057500
20
337.420013
30
0.000000
11
0.734300
21
336.782990
31
-4.000000
12
0.734300
22
336.782990
32
0.000000
13
0.734300
23
336.782990
33
0.000000
0
3DFACE
8
0
10
2.057500
20
337.420013
30
-4.000000
11
0.734300
21
336.782990
31
-4.000000
12
2.057500
22
337.420013
32
0.000000
13
2.057500
23
337.420013
33
0.000000
0
3DFACE
8
0
10
0.734300
20
336.782990
30
0.000000
11
-0.734300
21
336.782990
31
-4.000000
12
-0.734300
22
336.782990
32
0.000000
13
-0.734300
23
336.782990
33
0.000000
0
3DFACE
8
0
10
0.734300
20
336.782990
30
-4.000000
11
-0.734300
21
336.782990
31
-4.000000
12
0.734300
22
336.782990
32
0.000000
13
0.734300
23
336.782990
33
0.000000
0
3DFACE
8
0
10
-0.734300
20
336.782990
30
0.000000
11
-2.057500
21
337.420013
31
-4.000000
12
-2.057500
22
337.420013
32
0.000000
13
-2.057500
23
337.420013
33
0.000000
0
3DFACE
8
0
10
-0.734300
20
336.782990
30
-4.000000
11
-2.057500
21
337.420013
31
-4.000000
12
-0.734300
22
336.782990
32
0.000000
13
-0.734300
23
336.782990
33
0.000000
0
3DFACE
8
0
10
-2.057500
20
337.420013
30
0.000000
11
-2.973200
21
338.567993
31
-4.000000
12
-2.973200
22
338.567993
32
0.000000
13
-2.973200
23
338.567993
33
0.000000
0
3DFACE
8
0
10
-2.973200
20
338.567993
30
0.000000
11
-2.973200
21
338.567993
31
-4.000000
12
-3.300000
22
340.000000
32
0.000000
13
-3.300000
23
340.000000
33
0.000000
0
3DFACE
8
0
10
-2.057500
20
337.420013
30
-4.000000
11
-2.973200
21
338.567993
31
-4.000000
12
-2.057500
22
337.420013
32
0.000000
13
-2.057500
23
337.420013
33
0.000000
0
3DFACE
8
0
10
-2.973200
20
338.567993
30
-4.000000
11
-3.300000
21
340.000000
31
-4.000000
12
-3.300000
22
340.000000
32
0.000000
13
-3.300000
23
340.000000
33
0.000000
0
3DFACE
8
0
10
370.799988
20
245.000000
30
-4.000000
11
370.472992
21
243.567993
31
-4.000000
12
370.799988
22
245.000000
32
0.000000
13
370.799988
23
245.000000
33
0.000000
0
3DFACE
8
0
10
370.799988
20
245.000000
30
0.000000
11
370.472992
21
243.567993
31
-4.000000
12
370.472992
22
243.567993
32
0.000000
13
370.472992
23
243.567993
33
0.000000
0
3DFACE
8
0
10
370.472992
20
243.567993
30
0.000000
11
369.558014
21
242.419998
31
-4.000000
12
369.558014
22
242.419998
32
0.000000
13
369.558014
23
242.419998
33
0.000000
0
3DFACE
8
0
10
370.472992
20
243.567993
30
-4.000000
11
369.558014
21
242.419998
31
-4.000000
12
370.472992
22
243.567993
32
0.000000
13
370.472992
23
243.567993
33
0.000000
0
3DFACE
8
0
10
369.558014
20
242.419998
30
0.000000
11
368.234009
21
241.783005
31
-4.000000
12
368.234009
22
241.783005
32
0.000000
13
368.234009
23
241.783005
33
0.000000
0
3DFACE
8
0
10
369.558014
20
242.419998
30
-4.000000
11
368.234009
21
241.783005
31
-4.000000
12
369.558014
22
242.419998
32
0.000000
13
369.558014
23
242.419998
33
0.000000
0
3DFACE
8
0
10
368.234009
20
241.783005
30
0.000000
11
366.765991
21
241.783005
31
-4.000000
12
366.765991
22
241.783005
32
0.000000
13
366.765991
23
241.783005
33
0.000000
0
3DFACE
8
0
10
368.234009
20
241.783005
30
-4.000000
11
366.765991
21
241.783005
31
-4.000000
12
368.234009
22
241.783005
32
0.000000
13
368.234009
23
241.783005
33
0.000000
0
3DFACE
8
0
10
366.765991
20
241.783005
30
0.000000
11
365.441986
21
242.419998
31
-4.000000
12
365.441986
22
242.419998
32
0.000000
13
365.441986
23
242.419998
33
0.000000
0
3DFACE
8
0
10
366.765991
20
241.783005
30
-4.000000
11
365.441986
21
242.419998
31
-4.000000
12
366.765991
22
241.783005
32
0.000000
13
366.765991
23
241.783005
33
0.000000
0
3DFACE
8
0
10
365.441986
20
242.419998
30
0.000000
11
364.527008
21
243.567993
31
-4.000000
12
364.527008
22
243.567993
32
0.000000
13
364.527008
23
243.567993
33
0.000000
0
3DFACE
8
0
10
364.527008
20
243.567993
30
0.000000
11
364.527008
21
243.567993
31
-4.000000
12
364.200012
22
245.000000
32
0.000000
13
364.200012
23
245.000000
33
0.000000
0
3DFACE
8
0
10
365.441986
20
242.419998
30
-4.000000
11
364.527008
21
243.567993
31
-4.000000
12
365.441986
22
242.419998
32
0.000000
13
365.441986
23
242.419998
33
0.000000
0
3DFACE
8
0
10
364.527008
20
243.567993
30
-4.000000
11
364.200012
21
245.000000
31
-4.000000
12
364.200012
22
245.000000
32
0.000000
13
364.200012
23
245.000000
33
0.000000
0
3DFACE
8
0
10
370.799988
20
0.000000
30
-4.000000
11
370.472992
21
-1.431800
31
-4.000000
12
370.799988
22
0.000000
32
0.000000
13
370.799988
23
0.000000
33
0.000000
0
3DFACE
8
0
10
370.799988
20
0.000000
30
0.000000
11
370.472992
21
-1.431800
31
-4.000000
12
370.472992
22
-1.431800
32
0.000000
13
370.472992
23
-1.431800
33
0.000000
0
3DFACE
8
0
10
370.472992
20
-1.431800
30
0.000000
11
369.558014
21
-2.580000
31
-4.000000
12
369.558014
22
-2.580000
32
0.000000
13
369.558014
23
-2.580000
33
0.000000
0
3DFACE
8
0
10
370.472992
20
-1.431800
30
-4.000000
11
369.558014
21
-2.580000
31
-4.000000
12
370.472992
22
-1.431800
32
0.000000
13
370.472992
23
-1.431800
33
0.000000
0
3DFACE
8
0
10
369.558014
20
-2.580000
30
0.000000
11
368.234009
21
-3.217300
31
-4.000000
12
368.234009
22
-3.217300
32
0.000000
13
368.234009
23
-3.217300
33
0.000000
0
3DFACE
8
0
10
369.558014
20
-2.580000
30
-4.000000
11
368.234009
21
-3.217300
31
-4.000000
12
369.558014
22
-2.580000
32
0.000000
13
369.558014
23
-2.580000
33
0.000000
0
3DFACE
8
0
10
368.234009
20
-3.217300
30
0.000000
11
366.765991
21
-3.217300
31
-4.000000
12
366.765991
22
-3.217300
32
0.000000
13
366.765991
23
-3.217300
33
0.000000
0
3DFACE
8
0
10
368.234009
20
-3.217300
30
-4.000000
11
366.765991
21
-3.217300
31
-4.000000
12
368.234009
22
-3.217300
32
0.000000
13
368.234009
23
-3.217300
33
0.000000
0
3DFACE
8
0
10
366.765991
20
-3.217300
30
0.000000
11
365.441986
21
-2.580000
31
-4.000000
12
365.441986
22
-2.580000
32
0.000000
13
365.441986
23
-2.580000
33
0.000000
0
3DFACE
8
0
10
366.765991
20
-3.217300
30
-4.000000
11
365.441986
21
-2.580000
31
-4.000000
12
366.765991
22
-3.217300
32
0.000000
13
366.765991
23
-3.217300
33
0.000000
0
3DFACE
8
0
10
365.441986
20
-2.580000
30
0.000000
11
364.527008
21
-1.431800
31
-4.000000
12
364.527008
22
-1.431800
32
0.000000
13
364.527008
23
-1.431800
33
0.000000
0
3DFACE
8
0
10
364.527008
20
-1.431800
30
0.000000
11
364.527008
21
-1.431800
31
-4.000000
12
364.200012
22
0.000000
32
0.000000
13
364.200012
23
0.000000
33
0.000000
0
3DFACE
8
0
10
365.441986
20
-2.580000
30
-4.000000
11
364.527008
21
-1.431800
31
-4.000000
12
365.441986
22
-2.580000
32
0.000000
13
365.441986
23
-2.580000
33
0.000000
0
3DFACE
8
0
10
364.527008
20
-1.431800
30
-4.000000
11
364.200012
21
0.000000
31
-4.000000
12
364.200012
22
0.000000
32
0.000000
13
364.200012
23
0.000000
33
0.000000
0
3DFACE
8
0
10
275.799988
20
-340.000000
30
-4.000000
11
275.472992
21
-341.432007
31
-4.000000
12
275.799988
22
-340.000000
32
0.000000
13
275.799988
23
-340.000000
33
0.000000
0
3DFACE
8
0
10
275.799988
20
-340.000000
30
0.000000
11
275.472992
21
-341.432007
31
-4.000000
12
275.472992
22
-341.432007
32
0.000000
13
275.472992
23
-341.432007
33
0.000000
0
3DFACE
8
0
10
275.472992
20
-341.432007
30
0.000000
11
274.558014
21
-342.579987
31
-4.000000
12
274.558014
22
-342.579987
32
0.000000
13
274.558014
23
-342.579987
33
0.000000
0
3DFACE
8
0
10
275.472992
20
-341.432007
30
-4.000000
11
274.558014
21
-342.579987
31
-4.000000
12
275.472992
22
-341.432007
32
0.000000
13
275.472992
23
-341.432007
33
0.000000
0
3DFACE
8
0
10
274.558014
20
-342.579987
30
0.000000
11
273.234009
21
-343.217010
31
-4.000000
12
273.234009
22
-343.217010
32
0.000000
13
273.234009
23
-343.217010
33
0.000000
0
3DFACE
8
0
10
274.558014
20
-342.579987
30
-4.000000
11
273.234009
21
-343.217010
31
-4.000000
12
274.558014
22
-342.579987
32
0.000000
13
274.558014
23
-342.579987
33
0.000000
0
3DFACE
8
0
10
273.234009
20
-343.217010
30
0.000000
11
271.765991
21
-343.217010
31
-4.000000
12
271.765991
22
-343.217010
32
0.000000
13
271.765991
23
-343.217010
33
0.000000
0
3DFACE
8
0
10
273.234009
20
-343.217010
30
-4.000000
11
271.765991
21
-343.217010
31
-4.000000
12
273.234009
22
-343.217010
32
0.000000
13
273.234009
23
-343.217010
33
0.000000
0
3DFACE
8
0
10
271.765991
20
-343.217010
30
0.000000
11
270.441986
21
-342.579987
31
-4.000000
12
270.441986
22
-342.579987
32
0.000000
13
270.441986
23
-342.579987
33
0.000000
0
3DFACE
8
0
10
271.765991
20
-343.217010
30
-4.000000
11
270.441986
21
-342.579987
31
-4.000000
12
271.765991
22
-343.217010
32
0.000000
13
271.765991
23
-343.217010
33
0.000000
0
3DFACE
8
0
10
270.441986
20
-342.579987
30
0.000000
11
269.527008
21
-341.432007
31
-4.000000
12
269.527008
22
-341.432007
32
0.000000
13
269.527008
23
-341.432007
33
0.000000
0
3DFACE
8
0
10
269.527008
20
-341.432007
30
0.000000
11
269.527008
21
-341.432007
31
-4.000000
12
269.200012
22
-340.000000
32
0.000000
13
269.200012
23
-340.000000
33
0.000000
0
3DFACE
8
0
10
270.441986
20
-342.579987
30
-4.000000
11
269.527008
21
-341.432007
31
-4.000000
12
270.441986
22
-342.579987
32
0.000000
13
270.441986
23
-342.579987
33
0.000000
0
3DFACE
8
0
10
269.527008
20
-341.432007
30
-4.000000
11
269.200012
21
-340.000000
31
-4.000000
12
269.200012
22
-340.000000
32
0.000000
13
269.200012
23
-340.000000
33
0.000000
0
3DFACE
8
0
10
-269.200012
20
-340.000000
30
-4.000000
11
-269.527008
21
-341.432007
31
-4.000000
12
-269.200012
22
-340.000000
32
0.000000
13
-269.200012
23
-340.000000
33
0.000000
0
3DFACE
8
0
10
-269.200012
20
-340.000000
30
0.000000
11
-269.527008
21
-341.432007
31
-4.000000
12
-269.527008
22
-341.432007
32
0.000000
13
-269.527008
23
-341.432007
33
0.000000
0
3DFACE
8
0
10
-269.527008
20
-341.432007
30
0.000000
11
-270.441986
21
-342.579987
31
-4.000000
12
-270.441986
22
-342.579987
32
0.000000
13
-270.441986
23
-342.579987
33
0.000000
0
3DFACE
8
0
10
-269.527008
20
-341.432007
30
-4.000000
11
-270.441986
21
-342.579987
31
-4.000000
12
-269.527008
22
-341.432007
32
0.000000
13
-269.527008
23
-341.432007
33
0.000000
0
3DFACE
8
0
10
-270.441986
20
-342.579987
30
0.000000
11
-271.765991
21
-343.217010
31
-4.000000
12
-271.765991
22
-343.217010
32
0.000000
13
-271.765991
23
-343.217010
33
0.000000
0
3DFACE
8
0
10
-270.441986
20
-342.579987
30
-4.000000
11
-271.765991
21
-343.217010
31
-4.000000
12
-270.441986
22
-342.579987
32
0.000000
13
-270.441986
23
-342.579987
33
0.000000
0
3DFACE
8
0
10
-271.765991
20
-343.217010
30
0.000000
11
-273.234009
21
-343.217010
31
-4.000000
12
-273.234009
22
-343.217010
32
0.000000
13
-273.234009
23
-343.217010
33
0.000000
0
3DFACE
8
0
10
-271.765991
20
-343.217010
30
-4.000000
11
-273.234009
21
-343.217010
31
-4.000000
12
-271.765991
22
-343.217010
32
0.000000
13
-271.765991
23
-343.217010
33
0.000000
0
3DFACE
8
0
10
-273.234009
20
-343.217010
30
0.000000
11
-274.558014
21
-342.579987
31
-4.000000
12
-274.558014
22
-342.579987
32
0.000000
13
-274.558014
23
-342.579987
33
0.000000
0
3DFACE
8
0
10
-273.234009
20
-343.217010
30
-4.000000
11
-274.558014
21
-342.579987
31
-4.000000
12
-273.234009
22
-343.217010
32
0.000000
13
-273.234009
23
-343.217010
33
0.000000
0
3DFACE
8
0
10
-274.558014
20
-342.579987
30
0.000000
11
-275.472992
21
-341.432007
31
-4.000000
12
-275.472992
22
-341.432007
32
0.000000
13
-275.472992
23
-341.432007
33
0.000000
0
3DFACE
8
0
10
-275.472992
20
-341.432007
30
0.000000
11
-275.472992
21
-341.432007
31
-4.000000
12
-275.799988
22
-340.000000
32
0.000000
13
-275.799988
23
-340.000000
33
0.000000
0
3DFACE
8
0
10
-274.558014
20
-342.579987
30
-4.000000
11
-275.472992
21
-341.432007
31
-4.000000
12
-274.558014
22
-342.579987
32
0.000000
13
-274.558014
23
-342.579987
33
0.000000
0
3DFACE
8
0
10
-275.472992
20
-341.432007
30
-4.000000
11
-275.799988
21
-340.000000
31
-4.000000
12
-275.799988
22
-340.000000
32
0.000000
13
-275.799988
23
-340.000000
33
0.000000
0
3DFACE
8
0
10
-364.200012
20
189.500000
30
-4.000000
11
-364.527008
21
188.067993
31
-4.000000
12
-364.200012
22
189.500000
32
0.000000
13
-364.200012
23
189.500000
33
0.000000
0
3DFACE
8
0
10
-364.200012
20
189.500000
30
0.000000
11
-364.527008
21
188.067993
31
-4.000000
12
-364.527008
22
188.067993
32
0.000000
13
-364.527008
23
188.067993
33
0.000000
0
3DFACE
8
0
10
-364.527008
20
188.067993
30
0.000000
11
-365.441986
21
186.919998
31
-4.000000
12
-365.441986
22
186.919998
32
0.000000
13
-365.441986
23
186.919998
33
0.000000
0
3DFACE
8
0
10
-364.527008
20
188.067993
30
-4.000000
11
-365.441986
21
186.919998
31
-4.000000
12
-364.527008
22
188.067993
32
0.000000
13
-364.527008
23
188.067993
33
0.000000
0
3DFACE
8
0
10
-365.441986
20
186.919998
30
0.000000
11
-366.765991
21
186.283005
31
-4.000000
12
-366.765991
22
186.283005
32
0.000000
13
-366.765991
23
186.283005
33
0.000000
0
3DFACE
8
0
10
-365.441986
20
186.919998
30
-4.000000
11
-366.765991
21
186.283005
31
-4.000000
12
-365.441986
22
186.919998
32
0.000000
13
-365.441986
23
186.919998
33
0.000000
0
3DFACE
8
0
10
-366.765991
20
186.283005
30
0.000000
11
-368.234009
21
186.283005
31
-4.000000
12
-368.234009
22
186.283005
32
0.000000
13
-368.234009
23
186.283005
33
0.000000
0
3DFACE
8
0
10
-366.765991
20
186.283005
30
-4.000000
11
-368.234009
21
186.283005
31
-4.000000
12
-366.765991
22
186.283005
32
0.000000
13
-366.765991
23
186.283005
33
0.000000
0
3DFACE
8
0
10
-368.234009
20
186.283005
30
0.000000
11
-369.558014
21
186.919998
31
-4.000000
12
-369.558014
22
186.919998
32
0.000000
13
-369.558014
23
186.919998
33
0.000000
0
3DFACE
8
0
10
-368.234009
20
186.283005
30
-4.000000
11
-369.558014
21
186.919998
31
-4.000000
12
-368.234009
22
186.283005
32
0.000000
13
-368.234009
23
186.283005
33
0.000000
0
3DFACE
8
0
10
-369.558014
20
186.919998
30
0.000000
11
-370.472992
21
188.067993
31
-4.000000
12
-370.472992
22
188.067993
32
0.000000
13
-370.472992
23
188.067993
33
0.000000
0
3DFACE
8
0
10
-370.472992
20
188.067993
30
0.000000
11
-370.472992
21
188.067993
31
-4.000000
12
-370.799988
22
189.500000
32
0.000000
13
-370.799988
23
189.500000
33
0.000000
0
3DFACE
8
0
10
-369.558014
20
186.919998
30
-4.000000
11
-370.472992
21
188.067993
31
-4.000000
12
-369.558014
22
186.919998
32
0.000000
13
-369.558014
23
186.919998
33
0.000000
0
3DFACE
8
0
10
-370.472992
20
188.067993
30
-4.000000
11
-370.799988
21
189.500000
31
-4.000000
12
-370.799988
22
189.500000
32
0.000000
13
-370.799988
23
189.500000
33
0.000000
0
3DFACE
8
0
10
293.799988
20
245.000000
30
-4.000000
11
293.472992
21
243.567993
31
-4.000000
12
293.799988
22
245.000000
32
0.000000
13
293.799988
23
245.000000
33
0.000000
0
3DFACE
8
0
10
293.799988
20
245.000000
30
0.000000
11
293.472992
21
243.567993
31
-4.000000
12
293.472992
22
243.567993
32
0.000000
13
293.472992
23
243.567993
33
0.000000
0
3DFACE
8
0
10
293.472992
20
243.567993
30
0.000000
11
292.558014
21
242.419998
31
-4.000000
12
292.558014
22
242.419998
32
0.000000
13
292.558014
23
242.419998
33
0.000000
0
3DFACE
8
0
10
293.472992
20
243.567993
30
-4.000000
11
292.558014
21
242.419998
31
-4.000000
12
293.472992
22
243.567993
32
0.000000
13
293.472992
23
243.567993
33
0.000000
0
3DFACE
8
0
10
292.558014
20
242.419998
30
0.000000
11
291.234009
21
241.783005
31
-4.000000
12
291.234009
22
241.783005
32
0.000000
13
291.234009
23
241.783005
33
0.000000
0
3DFACE
8
0
10
292.558014
20
242.419998
30
-4.000000
11
291.234009
21
241.783005
31
-4.000000
12
292.558014
22
242.419998
32
0.000000
13
292.558014
23
242.419998
33
0.000000
0
3DFACE
8
0
10
291.234009
20
241.783005
30
0.000000
11
289.765991
21
241.783005
31
-4.000000
12
289.765991
22
241.783005
32
0.000000
13
289.765991
23
241.783005
33
0.000000
0
3DFACE
8
0
10
291.234009
20
241.783005
30
-4.000000
11
289.765991
21
241.783005
31
-4.000000
12
291.234009
22
241.783005
32
0.000000
13
291.234009
23
241.783005
33
0.000000
0
3DFACE
8
0
10
289.765991
20
241.783005
30
0.000000
11
288.441986
21
242.419998
31
-4.000000
12
288.441986
22
242.419998
32
0.000000
13
288.441986
23
242.419998
33
0.000000
0
3DFACE
8
0
10
289.765991
20
241.783005
30
-4.000000
11
288.441986
21
242.419998
31
-4.000000
12
289.765991
22
241.783005
32
0.000000
13
289.765991
23
241.783005
33
0.000000
0
3DFACE
8
0
10
288.441986
20
242.419998
30
0.000000
11
287.527008
21
243.567993
31
-4.000000
12
287.527008
22
243.567993
32
0.000000
13
287.527008
23
243.567993
33
0.000000
0
3DFACE
8
0
10
287.527008
20
243.567993
30
0.000000
11
287.527008
21
243.567993
31
-4.000000
12
287.200012
22
245.000000
32
0.000000
13
287.200012
23
245.000000
33
0.000000
0
3DFACE
8
0
10
288.441986
20
242.419998
30
-4.000000
11
287.527008
21
243.567993
31
-4.000000
12
288.441986
22
242.419998
32
0.000000
13
288.441986
23
242.419998
33
0.000000
0
3DFACE
8
0
10
287.527008
20
243.567993
30
-4.000000
11
287.200012
21
245.000000
31
-4.000000
12
287.200012
22
245.000000
32
0.000000
13
287.200012
23
245.000000
33
0.000000
0
ENDSEC
0
EOF
