999
Created by ADMesh version 0.98.3
0
SECTION
2
HEADER
0
ENDSEC
0
SECTION
2
TABLES
0
TABLE
2
LAYER
70
1
0
LAYER
2
0
70
0
62
7
6
CONTINUOUS
0
ENDTAB
0
ENDSEC
0
SECTION
2
BLOCKS
0
ENDSEC
0
SECTION
2
ENTITIES
0
3DFACE
8
0
10
-3.300000
20
0.000000
30
0.000000
11
-3.300000
21
0.000000
31
-4.000000
12
-2.922000
22
1.533600
32
0.000000
13
-2.922000
23
1.533600
33
0.000000
0
3DFACE
8
0
10
-2.922000
20
1.533600
30
0.000000
11
-2.922000
21
1.533600
31
-4.000000
12
-1.874600
22
2.715800
32
0.000000
13
-1.874600
23
2.715800
33
0.000000
0
3DFACE
8
0
10
-3.300000
20
0.000000
30
-4.000000
11
-2.922000
21
1.533600
31
-4.000000
12
-2.922000
22
1.533600
32
0.000000
13
-2.922000
23
1.533600
33
0.000000
0
3DFACE
8
0
10
-1.874600
20
2.715800
30
0.000000
11
-1.874600
21
2.715800
31
-4.000000
12
-0.397800
22
3.275900
32
0.000000
13
-0.397800
23
3.275900
33
0.000000
0
3DFACE
8
0
10
-2.922000
20
1.533600
30
-4.000000
11
-1.874600
21
2.715800
31
-4.000000
12
-1.874600
22
2.715800
32
0.000000
13
-1.874600
23
2.715800
33
0.000000
0
3DFACE
8
0
10
-0.397800
20
3.275900
30
0.000000
11
-0.397800
21
3.275900
31
-4.000000
12
1.170200
22
3.085600
32
0.000000
13
1.170200
23
3.085600
33
0.000000
0
3DFACE
8
0
10
-1.874600
20
2.715800
30
-4.000000
11
-0.397800
21
3.275900
31
-4.000000
12
-0.397800
22
3.275900
32
0.000000
13
-0.397800
23
3.275900
33
0.000000
0
3DFACE
8
0
10
1.170200
20
3.085600
30
0.000000
11
1.170200
21
3.085600
31
-4.000000
12
2.470100
22
2.188300
32
0.000000
13
2.470100
23
2.188300
33
0.000000
0
3DFACE
8
0
10
-0.397800
20
3.275900
30
-4.000000
11
1.170200
21
3.085600
31
-4.000000
12
1.170200
22
3.085600
32
0.000000
13
1.170200
23
3.085600
33
0.000000
0
3DFACE
8
0
10
2.470100
20
2.188300
30
0.000000
11
2.470100
21
2.188300
31
-4.000000
12
3.204100
22
0.789700
32
0.000000
13
3.204100
23
0.789700
33
0.000000
0
3DFACE
8
0
10
1.170200
20
3.085600
30
-4.000000
11
2.470100
21
2.188300
31
-4.000000
12
2.470100
22
2.188300
32
0.000000
13
2.470100
23
2.188300
33
0.000000
0
3DFACE
8
0
10
3.204100
20
0.789700
30
0.000000
11
3.204100
21
0.789700
31
-4.000000
12
3.204100
22
-0.789700
32
0.000000
13
3.204100
23
-0.789700
33
0.000000
0
3DFACE
8
0
10
2.470100
20
2.188300
30
-4.000000
11
3.204100
21
0.789700
31
-4.000000
12
3.204100
22
0.789700
32
0.000000
13
3.204100
23
0.789700
33
0.000000
0
3DFACE
8
0
10
3.204100
20
-0.789700
30
0.000000
11
3.204100
21
-0.789700
31
-4.000000
12
2.470100
22
-2.188300
32
0.000000
13
2.470100
23
-2.188300
33
0.000000
0
3DFACE
8
0
10
3.204100
20
0.789700
30
-4.000000
11
3.204100
21
-0.789700
31
-4.000000
12
3.204100
22
-0.789700
32
0.000000
13
3.204100
23
-0.789700
33
0.000000
0
3DFACE
8
0
10
2.470100
20
-2.188300
30
0.000000
11
2.470100
21
-2.188300
31
-4.000000
12
1.170200
22
-3.085600
32
0.000000
13
1.170200
23
-3.085600
33
0.000000
0
3DFACE
8
0
10
3.204100
20
-0.789700
30
-4.000000
11
2.470100
21
-2.188300
31
-4.000000
12
2.470100
22
-2.188300
32
0.000000
13
2.470100
23
-2.188300
33
0.000000
0
3DFACE
8
0
10
1.170200
20
-3.085600
30
0.000000
11
1.170200
21
-3.085600
31
-4.000000
12
-0.397800
22
-3.275900
32
0.000000
13
-0.397800
23
-3.275900
33
0.000000
0
3DFACE
8
0
10
2.470100
20
-2.188300
30
-4.000000
11
1.170200
21
-3.085600
31
-4.000000
12
1.170200
22
-3.085600
32
0.000000
13
1.170200
23
-3.085600
33
0.000000
0
3DFACE
8
0
10
-0.397800
20
-3.275900
30
0.000000
11
-0.397800
21
-3.275900
31
-4.000000
12
-1.874600
22
-2.715800
32
0.000000
13
-1.874600
23
-2.715800
33
0.000000
0
3DFACE
8
0
10
1.170200
20
-3.085600
30
-4.000000
11
-0.397800
21
-3.275900
31
-4.000000
12
-0.397800
22
-3.275900
32
0.000000
13
-0.397800
23
-3.275900
33
0.000000
0
3DFACE
8
0
10
-0.397800
20
-3.275900
30
-4.000000
11
-1.874600
21
-2.715800
31
-4.000000
12
-1.874600
22
-2.715800
32
0.000000
13
-1.874600
23
-2.715800
33
0.000000
0
3DFACE
8
0
10
-1.874600
20
-2.715800
30
0.000000
11
-2.922000
21
-1.533600
31
-4.000000
12
-2.922000
22
-1.533600
32
0.000000
13
-2.922000
23
-1.533600
33
0.000000
0
3DFACE
8
0
10
-2.922000
20
-1.533600
30
0.000000
11
-2.922000
21
-1.533600
31
-4.000000
12
-3.300000
22
0.000000
32
0.000000
13
-3.300000
23
0.000000
33
0.000000
0
3DFACE
8
0
10
-1.874600
20
-2.715800
30
-4.000000
11
-2.922000
21
-1.533600
31
-4.000000
12
-1.874600
22
-2.715800
32
0.000000
13
-1.874600
23
-2.715800
33
0.000000
0
3DFACE
8
0
10
-2.922000
20
-1.533600
30
-4.000000
11
-3.300000
21
0.000000
31
-4.000000
12
-3.300000
22
0.000000
32
0.000000
13
-3.300000
23
0.000000
33
0.000000
0
3DFACE
8
0
10
331.700012
20
-162.500000
30
0.000000
11
331.700012
21
-162.500000
31
-4.000000
12
332.078003
22
-160.966003
32
0.000000
13
332.078003
23
-160.966003
33
0.000000
0
3DFACE
8
0
10
332.078003
20
-160.966003
30
0.000000
11
332.078003
21
-160.966003
31
-4.000000
12
333.125000
22
-159.783997
32
0.000000
13
333.125000
23
-159.783997
33
0.000000
0
3DFACE
8
0
10
331.700012
20
-162.500000
30
-4.000000
11
332.078003
21
-160.966003
31
-4.000000
12
332.078003
22
-160.966003
32
0.000000
13
332.078003
23
-160.966003
33
0.000000
0
3DFACE
8
0
10
333.125000
20
-159.783997
30
0.000000
11
333.125000
21
-159.783997
31
-4.000000
12
334.601990
22
-159.223999
32
0.000000
13
334.601990
23
-159.223999
33
0.000000
0
3DFACE
8
0
10
332.078003
20
-160.966003
30
-4.000000
11
333.125000
21
-159.783997
31
-4.000000
12
333.125000
22
-159.783997
32
0.000000
13
333.125000
23
-159.783997
33
0.000000
0
3DFACE
8
0
10
334.601990
20
-159.223999
30
0.000000
11
334.601990
21
-159.223999
31
-4.000000
12
336.170013
22
-159.414001
32
0.000000
13
336.170013
23
-159.414001
33
0.000000
0
3DFACE
8
0
10
333.125000
20
-159.783997
30
-4.000000
11
334.601990
21
-159.223999
31
-4.000000
12
334.601990
22
-159.223999
32
0.000000
13
334.601990
23
-159.223999
33
0.000000
0
3DFACE
8
0
10
336.170013
20
-159.414001
30
0.000000
11
336.170013
21
-159.414001
31
-4.000000
12
337.470001
22
-160.311996
32
0.000000
13
337.470001
23
-160.311996
33
0.000000
0
3DFACE
8
0
10
334.601990
20
-159.223999
30
-4.000000
11
336.170013
21
-159.414001
31
-4.000000
12
336.170013
22
-159.414001
32
0.000000
13
336.170013
23
-159.414001
33
0.000000
0
3DFACE
8
0
10
337.470001
20
-160.311996
30
0.000000
11
337.470001
21
-160.311996
31
-4.000000
12
338.204010
22
-161.710007
32
0.000000
13
338.204010
23
-161.710007
33
0.000000
0
3DFACE
8
0
10
336.170013
20
-159.414001
30
-4.000000
11
337.470001
21
-160.311996
31
-4.000000
12
337.470001
22
-160.311996
32
0.000000
13
337.470001
23
-160.311996
33
0.000000
0
3DFACE
8
0
10
338.204010
20
-161.710007
30
0.000000
11
338.204010
21
-161.710007
31
-4.000000
12
338.204010
22
-163.289993
32
0.000000
13
338.204010
23
-163.289993
33
0.000000
0
3DFACE
8
0
10
337.470001
20
-160.311996
30
-4.000000
11
338.204010
21
-161.710007
31
-4.000000
12
338.204010
22
-161.710007
32
0.000000
13
338.204010
23
-161.710007
33
0.000000
0
3DFACE
8
0
10
338.204010
20
-163.289993
30
0.000000
11
338.204010
21
-163.289993
31
-4.000000
12
337.470001
22
-164.688004
32
0.000000
13
337.470001
23
-164.688004
33
0.000000
0
3DFACE
8
0
10
338.204010
20
-161.710007
30
-4.000000
11
338.204010
21
-163.289993
31
-4.000000
12
338.204010
22
-163.289993
32
0.000000
13
338.204010
23
-163.289993
33
0.000000
0
3DFACE
8
0
10
337.470001
20
-164.688004
30
0.000000
11
337.470001
21
-164.688004
31
-4.000000
12
336.170013
22
-165.585999
32
0.000000
13
336.170013
23
-165.585999
33
0.000000
0
3DFACE
8
0
10
338.204010
20
-163.289993
30
-4.000000
11
337.470001
21
-164.688004
31
-4.000000
12
337.470001
22
-164.688004
32
0.000000
13
337.470001
23
-164.688004
33
0.000000
0
3DFACE
8
0
10
336.170013
20
-165.585999
30
0.000000
11
336.170013
21
-165.585999
31
-4.000000
12
334.601990
22
-165.776001
32
0.000000
13
334.601990
23
-165.776001
33
0.000000
0
3DFACE
8
0
10
337.470001
20
-164.688004
30
-4.000000
11
336.170013
21
-165.585999
31
-4.000000
12
336.170013
22
-165.585999
32
0.000000
13
336.170013
23
-165.585999
33
0.000000
0
3DFACE
8
0
10
334.601990
20
-165.776001
30
0.000000
11
334.601990
21
-165.776001
31
-4.000000
12
333.125000
22
-165.216003
32
0.000000
13
333.125000
23
-165.216003
33
0.000000
0
3DFACE
8
0
10
336.170013
20
-165.585999
30
-4.000000
11
334.601990
21
-165.776001
31
-4.000000
12
334.601990
22
-165.776001
32
0.000000
13
334.601990
23
-165.776001
33
0.000000
0
3DFACE
8
0
10
334.601990
20
-165.776001
30
-4.000000
11
333.125000
21
-165.216003
31
-4.000000
12
333.125000
22
-165.216003
32
0.000000
13
333.125000
23
-165.216003
33
0.000000
0
3DFACE
8
0
10
333.125000
20
-165.216003
30
0.000000
11
332.078003
21
-164.033997
31
-4.000000
12
332.078003
22
-164.033997
32
0.000000
13
332.078003
23
-164.033997
33
0.000000
0
3DFACE
8
0
10
332.078003
20
-164.033997
30
0.000000
11
332.078003
21
-164.033997
31
-4.000000
12
331.700012
22
-162.500000
32
0.000000
13
331.700012
23
-162.500000
33
0.000000
0
3DFACE
8
0
10
333.125000
20
-165.216003
30
-4.000000
11
332.078003
21
-164.033997
31
-4.000000
12
333.125000
22
-165.216003
32
0.000000
13
333.125000
23
-165.216003
33
0.000000
0
3DFACE
8
0
10
332.078003
20
-164.033997
30
-4.000000
11
331.700012
21
-162.500000
31
-4.000000
12
331.700012
22
-162.500000
32
0.000000
13
331.700012
23
-162.500000
33
0.000000
0
3DFACE
8
0
10
331.700012
20
162.500000
30
0.000000
11
331.700012
21
162.500000
31
-4.000000
12
332.078003
22
164.033997
32
0.000000
13
332.078003
23
164.033997
33
0.000000
0
3DFACE
8
0
10
332.078003
20
164.033997
30
0.000000
11
332.078003
21
164.033997
31
-4.000000
12
333.125000
22
165.216003
32
0.000000
13
333.125000
23
165.216003
33
0.000000
0
3DFACE
8
0
10
331.700012
20
162.500000
30
-4.000000
11
332.078003
21
164.033997
31
-4.000000
12
332.078003
22
164.033997
32
0.000000
13
332.078003
23
164.033997
33
0.000000
0
3DFACE
8
0
10
333.125000
20
165.216003
30
0.000000
11
333.125000
21
165.216003
31
-4.000000
12
334.601990
22
165.776001
32
0.000000
13
334.601990
23
165.776001
33
0.000000
0
3DFACE
8
0
10
332.078003
20
164.033997
30
-4.000000
11
333.125000
21
165.216003
31
-4.000000
12
333.125000
22
165.216003
32
0.000000
13
333.125000
23
165.216003
33
0.000000
0
3DFACE
8
0
10
334.601990
20
165.776001
30
0.000000
11
334.601990
21
165.776001
31
-4.000000
12
336.170013
22
165.585999
32
0.000000
13
336.170013
23
165.585999
33
0.000000
0
3DFACE
8
0
10
333.125000
20
165.216003
30
-4.000000
11
334.601990
21
165.776001
31
-4.000000
12
334.601990
22
165.776001
32
0.000000
13
334.601990
23
165.776001
33
0.000000
0
3DFACE
8
0
10
336.170013
20
165.585999
30
0.000000
11
336.170013
21
165.585999
31
-4.000000
12
337.470001
22
164.688004
32
0.000000
13
337.470001
23
164.688004
33
0.000000
0
3DFACE
8
0
10
334.601990
20
165.776001
30
-4.000000
11
336.170013
21
165.585999
31
-4.000000
12
336.170013
22
165.585999
32
0.000000
13
336.170013
23
165.585999
33
0.000000
0
3DFACE
8
0
10
337.470001
20
164.688004
30
0.000000
11
337.470001
21
164.688004
31
-4.000000
12
338.204010
22
163.289993
32
0.000000
13
338.204010
23
163.289993
33
0.000000
0
3DFACE
8
0
10
336.170013
20
165.585999
30
-4.000000
11
337.470001
21
164.688004
31
-4.000000
12
337.470001
22
164.688004
32
0.000000
13
337.470001
23
164.688004
33
0.000000
0
3DFACE
8
0
10
338.204010
20
163.289993
30
0.000000
11
338.204010
21
163.289993
31
-4.000000
12
338.204010
22
161.710007
32
0.000000
13
338.204010
23
161.710007
33
0.000000
0
3DFACE
8
0
10
337.470001
20
164.688004
30
-4.000000
11
338.204010
21
163.289993
31
-4.000000
12
338.204010
22
163.289993
32
0.000000
13
338.204010
23
163.289993
33
0.000000
0
3DFACE
8
0
10
338.204010
20
161.710007
30
0.000000
11
338.204010
21
161.710007
31
-4.000000
12
337.470001
22
160.311996
32
0.000000
13
337.470001
23
160.311996
33
0.000000
0
3DFACE
8
0
10
338.204010
20
163.289993
30
-4.000000
11
338.204010
21
161.710007
31
-4.000000
12
338.204010
22
161.710007
32
0.000000
13
338.204010
23
161.710007
33
0.000000
0
3DFACE
8
0
10
337.470001
20
160.311996
30
0.000000
11
337.470001
21
160.311996
31
-4.000000
12
336.170013
22
159.414001
32
0.000000
13
336.170013
23
159.414001
33
0.000000
0
3DFACE
8
0
10
338.204010
20
161.710007
30
-4.000000
11
337.470001
21
160.311996
31
-4.000000
12
337.470001
22
160.311996
32
0.000000
13
337.470001
23
160.311996
33
0.000000
0
3DFACE
8
0
10
336.170013
20
159.414001
30
0.000000
11
336.170013
21
159.414001
31
-4.000000
12
334.601990
22
159.223999
32
0.000000
13
334.601990
23
159.223999
33
0.000000
0
3DFACE
8
0
10
337.470001
20
160.311996
30
-4.000000
11
336.170013
21
159.414001
31
-4.000000
12
336.170013
22
159.414001
32
0.000000
13
336.170013
23
159.414001
33
0.000000
0
3DFACE
8
0
10
334.601990
20
159.223999
30
0.000000
11
334.601990
21
159.223999
31
-4.000000
12
333.125000
22
159.783997
32
0.000000
13
333.125000
23
159.783997
33
0.000000
0
3DFACE
8
0
10
336.170013
20
159.414001
30
-4.000000
11
334.601990
21
159.223999
31
-4.000000
12
334.601990
22
159.223999
32
0.000000
13
334.601990
23
159.223999
33
0.000000
0
3DFACE
8
0
10
334.601990
20
159.223999
30
-4.000000
11
333.125000
21
159.783997
31
-4.000000
12
333.125000
22
159.783997
32
0.000000
13
333.125000
23
159.783997
33
0.000000
0
3DFACE
8
0
10
333.125000
20
159.783997
30
0.000000
11
332.078003
21
160.966003
31
-4.000000
12
332.078003
22
160.966003
32
0.000000
13
332.078003
23
160.966003
33
0.000000
0
3DFACE
8
0
10
332.078003
20
160.966003
30
0.000000
11
332.078003
21
160.966003
31
-4.000000
12
331.700012
22
162.500000
32
0.000000
13
331.700012
23
162.500000
33
0.000000
0
3DFACE
8
0
10
333.125000
20
159.783997
30
-4.000000
11
332.078003
21
160.966003
31
-4.000000
12
333.125000
22
159.783997
32
0.000000
13
333.125000
23
159.783997
33
0.000000
0
3DFACE
8
0
10
332.078003
20
160.966003
30
-4.000000
11
331.700012
21
162.500000
31
-4.000000
12
331.700012
22
162.500000
32
0.000000
13
331.700012
23
162.500000
33
0.000000
0
3DFACE
8
0
10
-3.300000
20
-325.000000
30
0.000000
11
-3.300000
21
-325.000000
31
-4.000000
12
-2.922000
22
-323.466003
32
0.000000
13
-2.922000
23
-323.466003
33
0.000000
0
3DFACE
8
0
10
-2.922000
20
-323.466003
30
0.000000
11
-2.922000
21
-323.466003
31
-4.000000
12
-1.874600
22
-322.283997
32
0.000000
13
-1.874600
23
-322.283997
33
0.000000
0
3DFACE
8
0
10
-3.300000
20
-325.000000
30
-4.000000
11
-2.922000
21
-323.466003
31
-4.000000
12
-2.922000
22
-323.466003
32
0.000000
13
-2.922000
23
-323.466003
33
0.000000
0
3DFACE
8
0
10
-1.874600
20
-322.283997
30
0.000000
11
-1.874600
21
-322.283997
31
-4.000000
12
-0.397800
22
-321.723999
32
0.000000
13
-0.397800
23
-321.723999
33
0.000000
0
3DFACE
8
0
10
-2.922000
20
-323.466003
30
-4.000000
11
-1.874600
21
-322.283997
31
-4.000000
12
-1.874600
22
-322.283997
32
0.000000
13
-1.874600
23
-322.283997
33
0.000000
0
3DFACE
8
0
10
-0.397800
20
-321.723999
30
0.000000
11
-0.397800
21
-321.723999
31
-4.000000
12
1.170200
22
-321.914001
32
0.000000
13
1.170200
23
-321.914001
33
0.000000
0
3DFACE
8
0
10
-1.874600
20
-322.283997
30
-4.000000
11
-0.397800
21
-321.723999
31
-4.000000
12
-0.397800
22
-321.723999
32
0.000000
13
-0.397800
23
-321.723999
33
0.000000
0
3DFACE
8
0
10
1.170200
20
-321.914001
30
0.000000
11
1.170200
21
-321.914001
31
-4.000000
12
2.470100
22
-322.812012
32
0.000000
13
2.470100
23
-322.812012
33
0.000000
0
3DFACE
8
0
10
-0.397800
20
-321.723999
30
-4.000000
11
1.170200
21
-321.914001
31
-4.000000
12
1.170200
22
-321.914001
32
0.000000
13
1.170200
23
-321.914001
33
0.000000
0
3DFACE
8
0
10
2.470100
20
-322.812012
30
0.000000
11
2.470100
21
-322.812012
31
-4.000000
12
3.204100
22
-324.209991
32
0.000000
13
3.204100
23
-324.209991
33
0.000000
0
3DFACE
8
0
10
1.170200
20
-321.914001
30
-4.000000
11
2.470100
21
-322.812012
31
-4.000000
12
2.470100
22
-322.812012
32
0.000000
13
2.470100
23
-322.812012
33
0.000000
0
3DFACE
8
0
10
3.204100
20
-324.209991
30
0.000000
11
3.204100
21
-324.209991
31
-4.000000
12
3.204100
22
-325.790009
32
0.000000
13
3.204100
23
-325.790009
33
0.000000
0
3DFACE
8
0
10
2.470100
20
-322.812012
30
-4.000000
11
3.204100
21
-324.209991
31
-4.000000
12
3.204100
22
-324.209991
32
0.000000
13
3.204100
23
-324.209991
33
0.000000
0
3DFACE
8
0
10
3.204100
20
-325.790009
30
0.000000
11
3.204100
21
-325.790009
31
-4.000000
12
2.470100
22
-327.187988
32
0.000000
13
2.470100
23
-327.187988
33
0.000000
0
3DFACE
8
0
10
3.204100
20
-324.209991
30
-4.000000
11
3.204100
21
-325.790009
31
-4.000000
12
3.204100
22
-325.790009
32
0.000000
13
3.204100
23
-325.790009
33
0.000000
0
3DFACE
8
0
10
2.470100
20
-327.187988
30
0.000000
11
2.470100
21
-327.187988
31
-4.000000
12
1.170200
22
-328.085999
32
0.000000
13
1.170200
23
-328.085999
33
0.000000
0
3DFACE
8
0
10
3.204100
20
-325.790009
30
-4.000000
11
2.470100
21
-327.187988
31
-4.000000
12
2.470100
22
-327.187988
32
0.000000
13
2.470100
23
-327.187988
33
0.000000
0
3DFACE
8
0
10
1.170200
20
-328.085999
30
0.000000
11
1.170200
21
-328.085999
31
-4.000000
12
-0.397800
22
-328.276001
32
0.000000
13
-0.397800
23
-328.276001
33
0.000000
0
3DFACE
8
0
10
2.470100
20
-327.187988
30
-4.000000
11
1.170200
21
-328.085999
31
-4.000000
12
1.170200
22
-328.085999
32
0.000000
13
1.170200
23
-328.085999
33
0.000000
0
3DFACE
8
0
10
-0.397800
20
-328.276001
30
0.000000
11
-0.397800
21
-328.276001
31
-4.000000
12
-1.874600
22
-327.716003
32
0.000000
13
-1.874600
23
-327.716003
33
0.000000
0
3DFACE
8
0
10
1.170200
20
-328.085999
30
-4.000000
11
-0.397800
21
-328.276001
31
-4.000000
12
-0.397800
22
-328.276001
32
0.000000
13
-0.397800
23
-328.276001
33
0.000000
0
3DFACE
8
0
10
-0.397800
20
-328.276001
30
-4.000000
11
-1.874600
21
-327.716003
31
-4.000000
12
-1.874600
22
-327.716003
32
0.000000
13
-1.874600
23
-327.716003
33
0.000000
0
3DFACE
8
0
10
-1.874600
20
-327.716003
30
0.000000
11
-2.922000
21
-326.533997
31
-4.000000
12
-2.922000
22
-326.533997
32
0.000000
13
-2.922000
23
-326.533997
33
0.000000
0
3DFACE
8
0
10
-2.922000
20
-326.533997
30
0.000000
11
-2.922000
21
-326.533997
31
-4.000000
12
-3.300000
22
-325.000000
32
0.000000
13
-3.300000
23
-325.000000
33
0.000000
0
3DFACE
8
0
10
-1.874600
20
-327.716003
30
-4.000000
11
-2.922000
21
-326.533997
31
-4.000000
12
-1.874600
22
-327.716003
32
0.000000
13
-1.874600
23
-327.716003
33
0.000000
0
3DFACE
8
0
10
-2.922000
20
-326.533997
30
-4.000000
11
-3.300000
21
-325.000000
31
-4.000000
12
-3.300000
22
-325.000000
32
0.000000
13
-3.300000
23
-325.000000
33
0.000000
0
3DFACE
8
0
10
-338.299988
20
-162.500000
30
0.000000
11
-338.299988
21
-162.500000
31
-4.000000
12
-337.921997
22
-160.966003
32
0.000000
13
-337.921997
23
-160.966003
33
0.000000
0
3DFACE
8
0
10
-337.921997
20
-160.966003
30
0.000000
11
-337.921997
21
-160.966003
31
-4.000000
12
-336.875000
22
-159.783997
32
0.000000
13
-336.875000
23
-159.783997
33
0.000000
0
3DFACE
8
0
10
-338.299988
20
-162.500000
30
-4.000000
11
-337.921997
21
-160.966003
31
-4.000000
12
-337.921997
22
-160.966003
32
0.000000
13
-337.921997
23
-160.966003
33
0.000000
0
3DFACE
8
0
10
-336.875000
20
-159.783997
30
0.000000
11
-336.875000
21
-159.783997
31
-4.000000
12
-335.398010
22
-159.223999
32
0.000000
13
-335.398010
23
-159.223999
33
0.000000
0
3DFACE
8
0
10
-337.921997
20
-160.966003
30
-4.000000
11
-336.875000
21
-159.783997
31
-4.000000
12
-336.875000
22
-159.783997
32
0.000000
13
-336.875000
23
-159.783997
33
0.000000
0
3DFACE
8
0
10
-335.398010
20
-159.223999
30
0.000000
11
-335.398010
21
-159.223999
31
-4.000000
12
-333.829987
22
-159.414001
32
0.000000
13
-333.829987
23
-159.414001
33
0.000000
0
3DFACE
8
0
10
-336.875000
20
-159.783997
30
-4.000000
11
-335.398010
21
-159.223999
31
-4.000000
12
-335.398010
22
-159.223999
32
0.000000
13
-335.398010
23
-159.223999
33
0.000000
0
3DFACE
8
0
10
-333.829987
20
-159.414001
30
0.000000
11
-333.829987
21
-159.414001
31
-4.000000
12
-332.529999
22
-160.311996
32
0.000000
13
-332.529999
23
-160.311996
33
0.000000
0
3DFACE
8
0
10
-335.398010
20
-159.223999
30
-4.000000
11
-333.829987
21
-159.414001
31
-4.000000
12
-333.829987
22
-159.414001
32
0.000000
13
-333.829987
23
-159.414001
33
0.000000
0
3DFACE
8
0
10
-332.529999
20
-160.311996
30
0.000000
11
-332.529999
21
-160.311996
31
-4.000000
12
-331.795990
22
-161.710007
32
0.000000
13
-331.795990
23
-161.710007
33
0.000000
0
3DFACE
8
0
10
-333.829987
20
-159.414001
30
-4.000000
11
-332.529999
21
-160.311996
31
-4.000000
12
-332.529999
22
-160.311996
32
0.000000
13
-332.529999
23
-160.311996
33
0.000000
0
3DFACE
8
0
10
-331.795990
20
-161.710007
30
0.000000
11
-331.795990
21
-161.710007
31
-4.000000
12
-331.795990
22
-163.289993
32
0.000000
13
-331.795990
23
-163.289993
33
0.000000
0
3DFACE
8
0
10
-332.529999
20
-160.311996
30
-4.000000
11
-331.795990
21
-161.710007
31
-4.000000
12
-331.795990
22
-161.710007
32
0.000000
13
-331.795990
23
-161.710007
33
0.000000
0
3DFACE
8
0
10
-331.795990
20
-163.289993
30
0.000000
11
-331.795990
21
-163.289993
31
-4.000000
12
-332.529999
22
-164.688004
32
0.000000
13
-332.529999
23
-164.688004
33
0.000000
0
3DFACE
8
0
10
-331.795990
20
-161.710007
30
-4.000000
11
-331.795990
21
-163.289993
31
-4.000000
12
-331.795990
22
-163.289993
32
0.000000
13
-331.795990
23
-163.289993
33
0.000000
0
3DFACE
8
0
10
-332.529999
20
-164.688004
30
0.000000
11
-332.529999
21
-164.688004
31
-4.000000
12
-333.829987
22
-165.585999
32
0.000000
13
-333.829987
23
-165.585999
33
0.000000
0
3DFACE
8
0
10
-331.795990
20
-163.289993
30
-4.000000
11
-332.529999
21
-164.688004
31
-4.000000
12
-332.529999
22
-164.688004
32
0.000000
13
-332.529999
23
-164.688004
33
0.000000
0
3DFACE
8
0
10
-333.829987
20
-165.585999
30
0.000000
11
-333.829987
21
-165.585999
31
-4.000000
12
-335.398010
22
-165.776001
32
0.000000
13
-335.398010
23
-165.776001
33
0.000000
0
3DFACE
8
0
10
-332.529999
20
-164.688004
30
-4.000000
11
-333.829987
21
-165.585999
31
-4.000000
12
-333.829987
22
-165.585999
32
0.000000
13
-333.829987
23
-165.585999
33
0.000000
0
3DFACE
8
0
10
-335.398010
20
-165.776001
30
0.000000
11
-335.398010
21
-165.776001
31
-4.000000
12
-336.875000
22
-165.216003
32
0.000000
13
-336.875000
23
-165.216003
33
0.000000
0
3DFACE
8
0
10
-333.829987
20
-165.585999
30
-4.000000
11
-335.398010
21
-165.776001
31
-4.000000
12
-335.398010
22
-165.776001
32
0.000000
13
-335.398010
23
-165.776001
33
0.000000
0
3DFACE
8
0
10
-335.398010
20
-165.776001
30
-4.000000
11
-336.875000
21
-165.216003
31
-4.000000
12
-336.875000
22
-165.216003
32
0.000000
13
-336.875000
23
-165.216003
33
0.000000
0
3DFACE
8
0
10
-336.875000
20
-165.216003
30
0.000000
11
-337.921997
21
-164.033997
31
-4.000000
12
-337.921997
22
-164.033997
32
0.000000
13
-337.921997
23
-164.033997
33
0.000000
0
3DFACE
8
0
10
-337.921997
20
-164.033997
30
0.000000
11
-337.921997
21
-164.033997
31
-4.000000
12
-338.299988
22
-162.500000
32
0.000000
13
-338.299988
23
-162.500000
33
0.000000
0
3DFACE
8
0
10
-336.875000
20
-165.216003
30
-4.000000
11
-337.921997
21
-164.033997
31
-4.000000
12
-336.875000
22
-165.216003
32
0.000000
13
-336.875000
23
-165.216003
33
0.000000
0
3DFACE
8
0
10
-337.921997
20
-164.033997
30
-4.000000
11
-338.299988
21
-162.500000
31
-4.000000
12
-338.299988
22
-162.500000
32
0.000000
13
-338.299988
23
-162.500000
33
0.000000
0
3DFACE
8
0
10
-338.299988
20
162.500000
30
0.000000
11
-338.299988
21
162.500000
31
-4.000000
12
-337.921997
22
164.033997
32
0.000000
13
-337.921997
23
164.033997
33
0.000000
0
3DFACE
8
0
10
-337.921997
20
164.033997
30
0.000000
11
-337.921997
21
164.033997
31
-4.000000
12
-336.875000
22
165.216003
32
0.000000
13
-336.875000
23
165.216003
33
0.000000
0
3DFACE
8
0
10
-338.299988
20
162.500000
30
-4.000000
11
-337.921997
21
164.033997
31
-4.000000
12
-337.921997
22
164.033997
32
0.000000
13
-337.921997
23
164.033997
33
0.000000
0
3DFACE
8
0
10
-336.875000
20
165.216003
30
0.000000
11
-336.875000
21
165.216003
31
-4.000000
12
-335.398010
22
165.776001
32
0.000000
13
-335.398010
23
165.776001
33
0.000000
0
3DFACE
8
0
10
-337.921997
20
164.033997
30
-4.000000
11
-336.875000
21
165.216003
31
-4.000000
12
-336.875000
22
165.216003
32
0.000000
13
-336.875000
23
165.216003
33
0.000000
0
3DFACE
8
0
10
-335.398010
20
165.776001
30
0.000000
11
-335.398010
21
165.776001
31
-4.000000
12
-333.829987
22
165.585999
32
0.000000
13
-333.829987
23
165.585999
33
0.000000
0
3DFACE
8
0
10
-336.875000
20
165.216003
30
-4.000000
11
-335.398010
21
165.776001
31
-4.000000
12
-335.398010
22
165.776001
32
0.000000
13
-335.398010
23
165.776001
33
0.000000
0
3DFACE
8
0
10
-333.829987
20
165.585999
30
0.000000
11
-333.829987
21
165.585999
31
-4.000000
12
-332.529999
22
164.688004
32
0.000000
13
-332.529999
23
164.688004
33
0.000000
0
3DFACE
8
0
10
-335.398010
20
165.776001
30
-4.000000
11
-333.829987
21
165.585999
31
-4.000000
12
-333.829987
22
165.585999
32
0.000000
13
-333.829987
23
165.585999
33
0.000000
0
3DFACE
8
0
10
-332.529999
20
164.688004
30
0.000000
11
-332.529999
21
164.688004
31
-4.000000
12
-331.795990
22
163.289993
32
0.000000
13
-331.795990
23
163.289993
33
0.000000
0
3DFACE
8
0
10
-333.829987
20
165.585999
30
-4.000000
11
-332.529999
21
164.688004
31
-4.000000
12
-332.529999
22
164.688004
32
0.000000
13
-332.529999
23
164.688004
33
0.000000
0
3DFACE
8
0
10
-331.795990
20
163.289993
30
0.000000
11
-331.795990
21
163.289993
31
-4.000000
12
-331.795990
22
161.710007
32
0.000000
13
-331.795990
23
161.710007
33
0.000000
0
3DFACE
8
0
10
-332.529999
20
164.688004
30
-4.000000
11
-331.795990
21
163.289993
31
-4.000000
12
-331.795990
22
163.289993
32
0.000000
13
-331.795990
23
163.289993
33
0.000000
0
3DFACE
8
0
10
-331.795990
20
161.710007
30
0.000000
11
-331.795990
21
161.710007
31
-4.000000
12
-332.529999
22
160.311996
32
0.000000
13
-332.529999
23
160.311996
33
0.000000
0
3DFACE
8
0
10
-331.795990
20
163.289993
30
-4.000000
11
-331.795990
21
161.710007
31
-4.000000
12
-331.795990
22
161.710007
32
0.000000
13
-331.795990
23
161.710007
33
0.000000
0
3DFACE
8
0
10
-332.529999
20
160.311996
30
0.000000
11
-332.529999
21
160.311996
31
-4.000000
12
-333.829987
22
159.414001
32
0.000000
13
-333.829987
23
159.414001
33
0.000000
0
3DFACE
8
0
10
-331.795990
20
161.710007
30
-4.000000
11
-332.529999
21
160.311996
31
-4.000000
12
-332.529999
22
160.311996
32
0.000000
13
-332.529999
23
160.311996
33
0.000000
0
3DFACE
8
0
10
-333.829987
20
159.414001
30
0.000000
11
-333.829987
21
159.414001
31
-4.000000
12
-335.398010
22
159.223999
32
0.000000
13
-335.398010
23
159.223999
33
0.000000
0
3DFACE
8
0
10
-332.529999
20
160.311996
30
-4.000000
11
-333.829987
21
159.414001
31
-4.000000
12
-333.829987
22
159.414001
32
0.000000
13
-333.829987
23
159.414001
33
0.000000
0
3DFACE
8
0
10
-335.398010
20
159.223999
30
0.000000
11
-335.398010
21
159.223999
31
-4.000000
12
-336.875000
22
159.783997
32
0.000000
13
-336.875000
23
159.783997
33
0.000000
0
3DFACE
8
0
10
-333.829987
20
159.414001
30
-4.000000
11
-335.398010
21
159.223999
31
-4.000000
12
-335.398010
22
159.223999
32
0.000000
13
-335.398010
23
159.223999
33
0.000000
0
3DFACE
8
0
10
-335.398010
20
159.223999
30
-4.000000
11
-336.875000
21
159.783997
31
-4.000000
12
-336.875000
22
159.783997
32
0.000000
13
-336.875000
23
159.783997
33
0.000000
0
3DFACE
8
0
10
-336.875000
20
159.783997
30
0.000000
11
-337.921997
21
160.966003
31
-4.000000
12
-337.921997
22
160.966003
32
0.000000
13
-337.921997
23
160.966003
33
0.000000
0
3DFACE
8
0
10
-337.921997
20
160.966003
30
0.000000
11
-337.921997
21
160.966003
31
-4.000000
12
-338.299988
22
162.500000
32
0.000000
13
-338.299988
23
162.500000
33
0.000000
0
3DFACE
8
0
10
-336.875000
20
159.783997
30
-4.000000
11
-337.921997
21
160.966003
31
-4.000000
12
-336.875000
22
159.783997
32
0.000000
13
-336.875000
23
159.783997
33
0.000000
0
3DFACE
8
0
10
-337.921997
20
160.966003
30
-4.000000
11
-338.299988
21
162.500000
31
-4.000000
12
-338.299988
22
162.500000
32
0.000000
13
-338.299988
23
162.500000
33
0.000000
0
3DFACE
8
0
10
-170.800003
20
325.000000
30
0.000000
11
-170.800003
21
325.000000
31
-4.000000
12
-170.421997
22
326.533997
32
0.000000
13
-170.421997
23
326.533997
33
0.000000
0
3DFACE
8
0
10
-170.421997
20
326.533997
30
0.000000
11
-170.421997
21
326.533997
31
-4.000000
12
-169.375000
22
327.716003
32
0.000000
13
-169.375000
23
327.716003
33
0.000000
0
3DFACE
8
0
10
-170.800003
20
325.000000
30
-4.000000
11
-170.421997
21
326.533997
31
-4.000000
12
-170.421997
22
326.533997
32
0.000000
13
-170.421997
23
326.533997
33
0.000000
0
3DFACE
8
0
10
-169.375000
20
327.716003
30
0.000000
11
-169.375000
21
327.716003
31
-4.000000
12
-167.897995
22
328.276001
32
0.000000
13
-167.897995
23
328.276001
33
0.000000
0
3DFACE
8
0
10
-170.421997
20
326.533997
30
-4.000000
11
-169.375000
21
327.716003
31
-4.000000
12
-169.375000
22
327.716003
32
0.000000
13
-169.375000
23
327.716003
33
0.000000
0
3DFACE
8
0
10
-167.897995
20
328.276001
30
0.000000
11
-167.897995
21
328.276001
31
-4.000000
12
-166.330002
22
328.085999
32
0.000000
13
-166.330002
23
328.085999
33
0.000000
0
3DFACE
8
0
10
-169.375000
20
327.716003
30
-4.000000
11
-167.897995
21
328.276001
31
-4.000000
12
-167.897995
22
328.276001
32
0.000000
13
-167.897995
23
328.276001
33
0.000000
0
3DFACE
8
0
10
-166.330002
20
328.085999
30
0.000000
11
-166.330002
21
328.085999
31
-4.000000
12
-165.029999
22
327.187988
32
0.000000
13
-165.029999
23
327.187988
33
0.000000
0
3DFACE
8
0
10
-167.897995
20
328.276001
30
-4.000000
11
-166.330002
21
328.085999
31
-4.000000
12
-166.330002
22
328.085999
32
0.000000
13
-166.330002
23
328.085999
33
0.000000
0
3DFACE
8
0
10
-165.029999
20
327.187988
30
0.000000
11
-165.029999
21
327.187988
31
-4.000000
12
-164.296005
22
325.790009
32
0.000000
13
-164.296005
23
325.790009
33
0.000000
0
3DFACE
8
0
10
-166.330002
20
328.085999
30
-4.000000
11
-165.029999
21
327.187988
31
-4.000000
12
-165.029999
22
327.187988
32
0.000000
13
-165.029999
23
327.187988
33
0.000000
0
3DFACE
8
0
10
-164.296005
20
325.790009
30
0.000000
11
-164.296005
21
325.790009
31
-4.000000
12
-164.296005
22
324.209991
32
0.000000
13
-164.296005
23
324.209991
33
0.000000
0
3DFACE
8
0
10
-165.029999
20
327.187988
30
-4.000000
11
-164.296005
21
325.790009
31
-4.000000
12
-164.296005
22
325.790009
32
0.000000
13
-164.296005
23
325.790009
33
0.000000
0
3DFACE
8
0
10
-164.296005
20
324.209991
30
0.000000
11
-164.296005
21
324.209991
31
-4.000000
12
-165.029999
22
322.812012
32
0.000000
13
-165.029999
23
322.812012
33
0.000000
0
3DFACE
8
0
10
-164.296005
20
325.790009
30
-4.000000
11
-164.296005
21
324.209991
31
-4.000000
12
-164.296005
22
324.209991
32
0.000000
13
-164.296005
23
324.209991
33
0.000000
0
3DFACE
8
0
10
-165.029999
20
322.812012
30
0.000000
11
-165.029999
21
322.812012
31
-4.000000
12
-166.330002
22
321.914001
32
0.000000
13
-166.330002
23
321.914001
33
0.000000
0
3DFACE
8
0
10
-164.296005
20
324.209991
30
-4.000000
11
-165.029999
21
322.812012
31
-4.000000
12
-165.029999
22
322.812012
32
0.000000
13
-165.029999
23
322.812012
33
0.000000
0
3DFACE
8
0
10
-166.330002
20
321.914001
30
0.000000
11
-166.330002
21
321.914001
31
-4.000000
12
-167.897995
22
321.723999
32
0.000000
13
-167.897995
23
321.723999
33
0.000000
0
3DFACE
8
0
10
-165.029999
20
322.812012
30
-4.000000
11
-166.330002
21
321.914001
31
-4.000000
12
-166.330002
22
321.914001
32
0.000000
13
-166.330002
23
321.914001
33
0.000000
0
3DFACE
8
0
10
-167.897995
20
321.723999
30
0.000000
11
-167.897995
21
321.723999
31
-4.000000
12
-169.375000
22
322.283997
32
0.000000
13
-169.375000
23
322.283997
33
0.000000
0
3DFACE
8
0
10
-166.330002
20
321.914001
30
-4.000000
11
-167.897995
21
321.723999
31
-4.000000
12
-167.897995
22
321.723999
32
0.000000
13
-167.897995
23
321.723999
33
0.000000
0
3DFACE
8
0
10
-167.897995
20
321.723999
30
-4.000000
11
-169.375000
21
322.283997
31
-4.000000
12
-169.375000
22
322.283997
32
0.000000
13
-169.375000
23
322.283997
33
0.000000
0
3DFACE
8
0
10
-169.375000
20
322.283997
30
0.000000
11
-170.421997
21
323.466003
31
-4.000000
12
-170.421997
22
323.466003
32
0.000000
13
-170.421997
23
323.466003
33
0.000000
0
3DFACE
8
0
10
-170.421997
20
323.466003
30
0.000000
11
-170.421997
21
323.466003
31
-4.000000
12
-170.800003
22
325.000000
32
0.000000
13
-170.800003
23
325.000000
33
0.000000
0
3DFACE
8
0
10
-169.375000
20
322.283997
30
-4.000000
11
-170.421997
21
323.466003
31
-4.000000
12
-169.375000
22
322.283997
32
0.000000
13
-169.375000
23
322.283997
33
0.000000
0
3DFACE
8
0
10
-170.421997
20
323.466003
30
-4.000000
11
-170.800003
21
325.000000
31
-4.000000
12
-170.800003
22
325.000000
32
0.000000
13
-170.800003
23
325.000000
33
0.000000
0
3DFACE
8
0
10
164.199997
20
325.000000
30
0.000000
11
164.199997
21
325.000000
31
-4.000000
12
164.578003
22
326.533997
32
0.000000
13
164.578003
23
326.533997
33
0.000000
0
3DFACE
8
0
10
164.578003
20
326.533997
30
0.000000
11
164.578003
21
326.533997
31
-4.000000
12
165.625000
22
327.716003
32
0.000000
13
165.625000
23
327.716003
33
0.000000
0
3DFACE
8
0
10
164.199997
20
325.000000
30
-4.000000
11
164.578003
21
326.533997
31
-4.000000
12
164.578003
22
326.533997
32
0.000000
13
164.578003
23
326.533997
33
0.000000
0
3DFACE
8
0
10
165.625000
20
327.716003
30
0.000000
11
165.625000
21
327.716003
31
-4.000000
12
167.102005
22
328.276001
32
0.000000
13
167.102005
23
328.276001
33
0.000000
0
3DFACE
8
0
10
164.578003
20
326.533997
30
-4.000000
11
165.625000
21
327.716003
31
-4.000000
12
165.625000
22
327.716003
32
0.000000
13
165.625000
23
327.716003
33
0.000000
0
3DFACE
8
0
10
167.102005
20
328.276001
30
0.000000
11
167.102005
21
328.276001
31
-4.000000
12
168.669998
22
328.085999
32
0.000000
13
168.669998
23
328.085999
33
0.000000
0
3DFACE
8
0
10
165.625000
20
327.716003
30
-4.000000
11
167.102005
21
328.276001
31
-4.000000
12
167.102005
22
328.276001
32
0.000000
13
167.102005
23
328.276001
33
0.000000
0
3DFACE
8
0
10
168.669998
20
328.085999
30
0.000000
11
168.669998
21
328.085999
31
-4.000000
12
169.970001
22
327.187988
32
0.000000
13
169.970001
23
327.187988
33
0.000000
0
3DFACE
8
0
10
167.102005
20
328.276001
30
-4.000000
11
168.669998
21
328.085999
31
-4.000000
12
168.669998
22
328.085999
32
0.000000
13
168.669998
23
328.085999
33
0.000000
0
3DFACE
8
0
10
169.970001
20
327.187988
30
0.000000
11
169.970001
21
327.187988
31
-4.000000
12
170.703995
22
325.790009
32
0.000000
13
170.703995
23
325.790009
33
0.000000
0
3DFACE
8
0
10
168.669998
20
328.085999
30
-4.000000
11
169.970001
21
327.187988
31
-4.000000
12
169.970001
22
327.187988
32
0.000000
13
169.970001
23
327.187988
33
0.000000
0
3DFACE
8
0
10
170.703995
20
325.790009
30
0.000000
11
170.703995
21
325.790009
31
-4.000000
12
170.703995
22
324.209991
32
0.000000
13
170.703995
23
324.209991
33
0.000000
0
3DFACE
8
0
10
169.970001
20
327.187988
30
-4.000000
11
170.703995
21
325.790009
31
-4.000000
12
170.703995
22
325.790009
32
0.000000
13
170.703995
23
325.790009
33
0.000000
0
3DFACE
8
0
10
170.703995
20
324.209991
30
0.000000
11
170.703995
21
324.209991
31
-4.000000
12
169.970001
22
322.812012
32
0.000000
13
169.970001
23
322.812012
33
0.000000
0
3DFACE
8
0
10
170.703995
20
325.790009
30
-4.000000
11
170.703995
21
324.209991
31
-4.000000
12
170.703995
22
324.209991
32
0.000000
13
170.703995
23
324.209991
33
0.000000
0
3DFACE
8
0
10
169.970001
20
322.812012
30
0.000000
11
169.970001
21
322.812012
31
-4.000000
12
168.669998
22
321.914001
32
0.000000
13
168.669998
23
321.914001
33
0.000000
0
3DFACE
8
0
10
170.703995
20
324.209991
30
-4.000000
11
169.970001
21
322.812012
31
-4.000000
12
169.970001
22
322.812012
32
0.000000
13
169.970001
23
322.812012
33
0.000000
0
3DFACE
8
0
10
168.669998
20
321.914001
30
0.000000
11
168.669998
21
321.914001
31
-4.000000
12
167.102005
22
321.723999
32
0.000000
13
167.102005
23
321.723999
33
0.000000
0
3DFACE
8
0
10
169.970001
20
322.812012
30
-4.000000
11
168.669998
21
321.914001
31
-4.000000
12
168.669998
22
321.914001
32
0.000000
13
168.669998
23
321.914001
33
0.000000
0
3DFACE
8
0
10
167.102005
20
321.723999
30
0.000000
11
167.102005
21
321.723999
31
-4.000000
12
165.625000
22
322.283997
32
0.000000
13
165.625000
23
322.283997
33
0.000000
0
3DFACE
8
0
10
168.669998
20
321.914001
30
-4.000000
11
167.102005
21
321.723999
31
-4.000000
12
167.102005
22
321.723999
32
0.000000
13
167.102005
23
321.723999
33
0.000000
0
3DFACE
8
0
10
167.102005
20
321.723999
30
-4.000000
11
165.625000
21
322.283997
31
-4.000000
12
165.625000
22
322.283997
32
0.000000
13
165.625000
23
322.283997
33
0.000000
0
3DFACE
8
0
10
165.625000
20
322.283997
30
0.000000
11
164.578003
21
323.466003
31
-4.000000
12
164.578003
22
323.466003
32
0.000000
13
164.578003
23
323.466003
33
0.000000
0
3DFACE
8
0
10
164.578003
20
323.466003
30
0.000000
11
164.578003
21
323.466003
31
-4.000000
12
164.199997
22
325.000000
32
0.000000
13
164.199997
23
325.000000
33
0.000000
0
3DFACE
8
0
10
165.625000
20
322.283997
30
-4.000000
11
164.578003
21
323.466003
31
-4.000000
12
165.625000
22
322.283997
32
0.000000
13
165.625000
23
322.283997
33
0.000000
0
3DFACE
8
0
10
164.578003
20
323.466003
30
-4.000000
11
164.199997
21
325.000000
31
-4.000000
12
164.199997
22
325.000000
32
0.000000
13
164.199997
23
325.000000
33
0.000000
0
3DFACE
8
0
10
-338.299988
20
0.000000
30
0.000000
11
-338.299988
21
0.000000
31
-4.000000
12
-337.921997
22
1.533600
32
0.000000
13
-337.921997
23
1.533600
33
0.000000
0
3DFACE
8
0
10
-337.921997
20
1.533600
30
0.000000
11
-337.921997
21
1.533600
31
-4.000000
12
-336.875000
22
2.715800
32
0.000000
13
-336.875000
23
2.715800
33
0.000000
0
3DFACE
8
0
10
-338.299988
20
0.000000
30
-4.000000
11
-337.921997
21
1.533600
31
-4.000000
12
-337.921997
22
1.533600
32
0.000000
13
-337.921997
23
1.533600
33
0.000000
0
3DFACE
8
0
10
-336.875000
20
2.715800
30
0.000000
11
-336.875000
21
2.715800
31
-4.000000
12
-335.398010
22
3.275900
32
0.000000
13
-335.398010
23
3.275900
33
0.000000
0
3DFACE
8
0
10
-337.921997
20
1.533600
30
-4.000000
11
-336.875000
21
2.715800
31
-4.000000
12
-336.875000
22
2.715800
32
0.000000
13
-336.875000
23
2.715800
33
0.000000
0
3DFACE
8
0
10
-335.398010
20
3.275900
30
0.000000
11
-335.398010
21
3.275900
31
-4.000000
12
-333.829987
22
3.085600
32
0.000000
13
-333.829987
23
3.085600
33
0.000000
0
3DFACE
8
0
10
-336.875000
20
2.715800
30
-4.000000
11
-335.398010
21
3.275900
31
-4.000000
12
-335.398010
22
3.275900
32
0.000000
13
-335.398010
23
3.275900
33
0.000000
0
3DFACE
8
0
10
-333.829987
20
3.085600
30
0.000000
11
-333.829987
21
3.085600
31
-4.000000
12
-332.529999
22
2.188300
32
0.000000
13
-332.529999
23
2.188300
33
0.000000
0
3DFACE
8
0
10
-335.398010
20
3.275900
30
-4.000000
11
-333.829987
21
3.085600
31
-4.000000
12
-333.829987
22
3.085600
32
0.000000
13
-333.829987
23
3.085600
33
0.000000
0
3DFACE
8
0
10
-332.529999
20
2.188300
30
0.000000
11
-332.529999
21
2.188300
31
-4.000000
12
-331.795990
22
0.789700
32
0.000000
13
-331.795990
23
0.789700
33
0.000000
0
3DFACE
8
0
10
-333.829987
20
3.085600
30
-4.000000
11
-332.529999
21
2.188300
31
-4.000000
12
-332.529999
22
2.188300
32
0.000000
13
-332.529999
23
2.188300
33
0.000000
0
3DFACE
8
0
10
-331.795990
20
0.789700
30
0.000000
11
-331.795990
21
0.789700
31
-4.000000
12
-331.795990
22
-0.789700
32
0.000000
13
-331.795990
23
-0.789700
33
0.000000
0
3DFACE
8
0
10
-332.529999
20
2.188300
30
-4.000000
11
-331.795990
21
0.789700
31
-4.000000
12
-331.795990
22
0.789700
32
0.000000
13
-331.795990
23
0.789700
33
0.000000
0
3DFACE
8
0
10
-331.795990
20
-0.789700
30
0.000000
11
-331.795990
21
-0.789700
31
-4.000000
12
-332.529999
22
-2.188300
32
0.000000
13
-332.529999
23
-2.188300
33
0.000000
0
3DFACE
8
0
10
-331.795990
20
0.789700
30
-4.000000
11
-331.795990
21
-0.789700
31
-4.000000
12
-331.795990
22
-0.789700
32
0.000000
13
-331.795990
23
-0.789700
33
0.000000
0
3DFACE
8
0
10
-332.529999
20
-2.188300
30
0.000000
11
-332.529999
21
-2.188300
31
-4.000000
12
-333.829987
22
-3.085600
32
0.000000
13
-333.829987
23
-3.085600
33
0.000000
0
3DFACE
8
0
10
-331.795990
20
-0.789700
30
-4.000000
11
-332.529999
21
-2.188300
31
-4.000000
12
-332.529999
22
-2.188300
32
0.000000
13
-332.529999
23
-2.188300
33
0.000000
0
3DFACE
8
0
10
-333.829987
20
-3.085600
30
0.000000
11
-333.829987
21
-3.085600
31
-4.000000
12
-335.398010
22
-3.275900
32
0.000000
13
-335.398010
23
-3.275900
33
0.000000
0
3DFACE
8
0
10
-332.529999
20
-2.188300
30
-4.000000
11
-333.829987
21
-3.085600
31
-4.000000
12
-333.829987
22
-3.085600
32
0.000000
13
-333.829987
23
-3.085600
33
0.000000
0
3DFACE
8
0
10
-335.398010
20
-3.275900
30
0.000000
11
-335.398010
21
-3.275900
31
-4.000000
12
-336.875000
22
-2.715800
32
0.000000
13
-336.875000
23
-2.715800
33
0.000000
0
3DFACE
8
0
10
-333.829987
20
-3.085600
30
-4.000000
11
-335.398010
21
-3.275900
31
-4.000000
12
-335.398010
22
-3.275900
32
0.000000
13
-335.398010
23
-3.275900
33
0.000000
0
3DFACE
8
0
10
-335.398010
20
-3.275900
30
-4.000000
11
-336.875000
21
-2.715800
31
-4.000000
12
-336.875000
22
-2.715800
32
0.000000
13
-336.875000
23
-2.715800
33
0.000000
0
3DFACE
8
0
10
-336.875000
20
-2.715800
30
0.000000
11
-337.921997
21
-1.533600
31
-4.000000
12
-337.921997
22
-1.533600
32
0.000000
13
-337.921997
23
-1.533600
33
0.000000
0
3DFACE
8
0
10
-337.921997
20
-1.533600
30
0.000000
11
-337.921997
21
-1.533600
31
-4.000000
12
-338.299988
22
0.000000
32
0.000000
13
-338.299988
23
0.000000
33
0.000000
0
3DFACE
8
0
10
-336.875000
20
-2.715800
30
-4.000000
11
-337.921997
21
-1.533600
31
-4.000000
12
-336.875000
22
-2.715800
32
0.000000
13
-336.875000
23
-2.715800
33
0.000000
0
3DFACE
8
0
10
-337.921997
20
-1.533600
30
-4.000000
11
-338.299988
21
0.000000
31
-4.000000
12
-338.299988
22
0.000000
32
0.000000
13
-338.299988
23
0.000000
33
0.000000
0
3DFACE
8
0
10
-170.800003
20
-325.000000
30
0.000000
11
-170.800003
21
-325.000000
31
-4.000000
12
-170.421997
22
-323.466003
32
0.000000
13
-170.421997
23
-323.466003
33
0.000000
0
3DFACE
8
0
10
-170.421997
20
-323.466003
30
0.000000
11
-170.421997
21
-323.466003
31
-4.000000
12
-169.375000
22
-322.283997
32
0.000000
13
-169.375000
23
-322.283997
33
0.000000
0
3DFACE
8
0
10
-170.800003
20
-325.000000
30
-4.000000
11
-170.421997
21
-323.466003
31
-4.000000
12
-170.421997
22
-323.466003
32
0.000000
13
-170.421997
23
-323.466003
33
0.000000
0
3DFACE
8
0
10
-169.375000
20
-322.283997
30
0.000000
11
-169.375000
21
-322.283997
31
-4.000000
12
-167.897995
22
-321.723999
32
0.000000
13
-167.897995
23
-321.723999
33
0.000000
0
3DFACE
8
0
10
-170.421997
20
-323.466003
30
-4.000000
11
-169.375000
21
-322.283997
31
-4.000000
12
-169.375000
22
-322.283997
32
0.000000
13
-169.375000
23
-322.283997
33
0.000000
0
3DFACE
8
0
10
-167.897995
20
-321.723999
30
0.000000
11
-167.897995
21
-321.723999
31
-4.000000
12
-166.330002
22
-321.914001
32
0.000000
13
-166.330002
23
-321.914001
33
0.000000
0
3DFACE
8
0
10
-169.375000
20
-322.283997
30
-4.000000
11
-167.897995
21
-321.723999
31
-4.000000
12
-167.897995
22
-321.723999
32
0.000000
13
-167.897995
23
-321.723999
33
0.000000
0
3DFACE
8
0
10
-166.330002
20
-321.914001
30
0.000000
11
-166.330002
21
-321.914001
31
-4.000000
12
-165.029999
22
-322.812012
32
0.000000
13
-165.029999
23
-322.812012
33
0.000000
0
3DFACE
8
0
10
-167.897995
20
-321.723999
30
-4.000000
11
-166.330002
21
-321.914001
31
-4.000000
12
-166.330002
22
-321.914001
32
0.000000
13
-166.330002
23
-321.914001
33
0.000000
0
3DFACE
8
0
10
-165.029999
20
-322.812012
30
0.000000
11
-165.029999
21
-322.812012
31
-4.000000
12
-164.296005
22
-324.209991
32
0.000000
13
-164.296005
23
-324.209991
33
0.000000
0
3DFACE
8
0
10
-166.330002
20
-321.914001
30
-4.000000
11
-165.029999
21
-322.812012
31
-4.000000
12
-165.029999
22
-322.812012
32
0.000000
13
-165.029999
23
-322.812012
33
0.000000
0
3DFACE
8
0
10
-164.296005
20
-324.209991
30
0.000000
11
-164.296005
21
-324.209991
31
-4.000000
12
-164.296005
22
-325.790009
32
0.000000
13
-164.296005
23
-325.790009
33
0.000000
0
3DFACE
8
0
10
-165.029999
20
-322.812012
30
-4.000000
11
-164.296005
21
-324.209991
31
-4.000000
12
-164.296005
22
-324.209991
32
0.000000
13
-164.296005
23
-324.209991
33
0.000000
0
3DFACE
8
0
10
-164.296005
20
-325.790009
30
0.000000
11
-164.296005
21
-325.790009
31
-4.000000
12
-165.029999
22
-327.187988
32
0.000000
13
-165.029999
23
-327.187988
33
0.000000
0
3DFACE
8
0
10
-164.296005
20
-324.209991
30
-4.000000
11
-164.296005
21
-325.790009
31
-4.000000
12
-164.296005
22
-325.790009
32
0.000000
13
-164.296005
23
-325.790009
33
0.000000
0
3DFACE
8
0
10
-165.029999
20
-327.187988
30
0.000000
11
-165.029999
21
-327.187988
31
-4.000000
12
-166.330002
22
-328.085999
32
0.000000
13
-166.330002
23
-328.085999
33
0.000000
0
3DFACE
8
0
10
-164.296005
20
-325.790009
30
-4.000000
11
-165.029999
21
-327.187988
31
-4.000000
12
-165.029999
22
-327.187988
32
0.000000
13
-165.029999
23
-327.187988
33
0.000000
0
3DFACE
8
0
10
-166.330002
20
-328.085999
30
0.000000
11
-166.330002
21
-328.085999
31
-4.000000
12
-167.897995
22
-328.276001
32
0.000000
13
-167.897995
23
-328.276001
33
0.000000
0
3DFACE
8
0
10
-165.029999
20
-327.187988
30
-4.000000
11
-166.330002
21
-328.085999
31
-4.000000
12
-166.330002
22
-328.085999
32
0.000000
13
-166.330002
23
-328.085999
33
0.000000
0
3DFACE
8
0
10
-167.897995
20
-328.276001
30
0.000000
11
-167.897995
21
-328.276001
31
-4.000000
12
-169.375000
22
-327.716003
32
0.000000
13
-169.375000
23
-327.716003
33
0.000000
0
3DFACE
8
0
10
-166.330002
20
-328.085999
30
-4.000000
11
-167.897995
21
-328.276001
31
-4.000000
12
-167.897995
22
-328.276001
32
0.000000
13
-167.897995
23
-328.276001
33
0.000000
0
3DFACE
8
0
10
-167.897995
20
-328.276001
30
-4.000000
11
-169.375000
21
-327.716003
31
-4.000000
12
-169.375000
22
-327.716003
32
0.000000
13
-169.375000
23
-327.716003
33
0.000000
0
3DFACE
8
0
10
-169.375000
20
-327.716003
30
0.000000
11
-170.421997
21
-326.533997
31
-4.000000
12
-170.421997
22
-326.533997
32
0.000000
13
-170.421997
23
-326.533997
33
0.000000
0
3DFACE
8
0
10
-170.421997
20
-326.533997
30
0.000000
11
-170.421997
21
-326.533997
31
-4.000000
12
-170.800003
22
-325.000000
32
0.000000
13
-170.800003
23
-325.000000
33
0.000000
0
3DFACE
8
0
10
-169.375000
20
-327.716003
30
-4.000000
11
-170.421997
21
-326.533997
31
-4.000000
12
-169.375000
22
-327.716003
32
0.000000
13
-169.375000
23
-327.716003
33
0.000000
0
3DFACE
8
0
10
-170.421997
20
-326.533997
30
-4.000000
11
-170.800003
21
-325.000000
31
-4.000000
12
-170.800003
22
-325.000000
32
0.000000
13
-170.800003
23
-325.000000
33
0.000000
0
3DFACE
8
0
10
164.199997
20
-325.000000
30
0.000000
11
164.199997
21
-325.000000
31
-4.000000
12
164.578003
22
-323.466003
32
0.000000
13
164.578003
23
-323.466003
33
0.000000
0
3DFACE
8
0
10
164.578003
20
-323.466003
30
0.000000
11
164.578003
21
-323.466003
31
-4.000000
12
165.625000
22
-322.283997
32
0.000000
13
165.625000
23
-322.283997
33
0.000000
0
3DFACE
8
0
10
164.199997
20
-325.000000
30
-4.000000
11
164.578003
21
-323.466003
31
-4.000000
12
164.578003
22
-323.466003
32
0.000000
13
164.578003
23
-323.466003
33
0.000000
0
3DFACE
8
0
10
165.625000
20
-322.283997
30
0.000000
11
165.625000
21
-322.283997
31
-4.000000
12
167.102005
22
-321.723999
32
0.000000
13
167.102005
23
-321.723999
33
0.000000
0
3DFACE
8
0
10
164.578003
20
-323.466003
30
-4.000000
11
165.625000
21
-322.283997
31
-4.000000
12
165.625000
22
-322.283997
32
0.000000
13
165.625000
23
-322.283997
33
0.000000
0
3DFACE
8
0
10
167.102005
20
-321.723999
30
0.000000
11
167.102005
21
-321.723999
31
-4.000000
12
168.669998
22
-321.914001
32
0.000000
13
168.669998
23
-321.914001
33
0.000000
0
3DFACE
8
0
10
165.625000
20
-322.283997
30
-4.000000
11
167.102005
21
-321.723999
31
-4.000000
12
167.102005
22
-321.723999
32
0.000000
13
167.102005
23
-321.723999
33
0.000000
0
3DFACE
8
0
10
168.669998
20
-321.914001
30
0.000000
11
168.669998
21
-321.914001
31
-4.000000
12
169.970001
22
-322.812012
32
0.000000
13
169.970001
23
-322.812012
33
0.000000
0
3DFACE
8
0
10
167.102005
20
-321.723999
30
-4.000000
11
168.669998
21
-321.914001
31
-4.000000
12
168.669998
22
-321.914001
32
0.000000
13
168.669998
23
-321.914001
33
0.000000
0
3DFACE
8
0
10
169.970001
20
-322.812012
30
0.000000
11
169.970001
21
-322.812012
31
-4.000000
12
170.703995
22
-324.209991
32
0.000000
13
170.703995
23
-324.209991
33
0.000000
0
3DFACE
8
0
10
168.669998
20
-321.914001
30
-4.000000
11
169.970001
21
-322.812012
31
-4.000000
12
169.970001
22
-322.812012
32
0.000000
13
169.970001
23
-322.812012
33
0.000000
0
3DFACE
8
0
10
170.703995
20
-324.209991
30
0.000000
11
170.703995
21
-324.209991
31
-4.000000
12
170.703995
22
-325.790009
32
0.000000
13
170.703995
23
-325.790009
33
0.000000
0
3DFACE
8
0
10
169.970001
20
-322.812012
30
-4.000000
11
170.703995
21
-324.209991
31
-4.000000
12
170.703995
22
-324.209991
32
0.000000
13
170.703995
23
-324.209991
33
0.000000
0
3DFACE
8
0
10
170.703995
20
-325.790009
30
0.000000
11
170.703995
21
-325.790009
31
-4.000000
12
169.970001
22
-327.187988
32
0.000000
13
169.970001
23
-327.187988
33
0.000000
0
3DFACE
8
0
10
170.703995
20
-324.209991
30
-4.000000
11
170.703995
21
-325.790009
31
-4.000000
12
170.703995
22
-325.790009
32
0.000000
13
170.703995
23
-325.790009
33
0.000000
0
3DFACE
8
0
10
169.970001
20
-327.187988
30
0.000000
11
169.970001
21
-327.187988
31
-4.000000
12
168.669998
22
-328.085999
32
0.000000
13
168.669998
23
-328.085999
33
0.000000
0
3DFACE
8
0
10
170.703995
20
-325.790009
30
-4.000000
11
169.970001
21
-327.187988
31
-4.000000
12
169.970001
22
-327.187988
32
0.000000
13
169.970001
23
-327.187988
33
0.000000
0
3DFACE
8
0
10
168.669998
20
-328.085999
30
0.000000
11
168.669998
21
-328.085999
31
-4.000000
12
167.102005
22
-328.276001
32
0.000000
13
167.102005
23
-328.276001
33
0.000000
0
3DFACE
8
0
10
169.970001
20
-327.187988
30
-4.000000
11
168.669998
21
-328.085999
31
-4.000000
12
168.669998
22
-328.085999
32
0.000000
13
168.669998
23
-328.085999
33
0.000000
0
3DFACE
8
0
10
167.102005
20
-328.276001
30
0.000000
11
167.102005
21
-328.276001
31
-4.000000
12
165.625000
22
-327.716003
32
0.000000
13
165.625000
23
-327.716003
33
0.000000
0
3DFACE
8
0
10
168.669998
20
-328.085999
30
-4.000000
11
167.102005
21
-328.276001
31
-4.000000
12
167.102005
22
-328.276001
32
0.000000
13
167.102005
23
-328.276001
33
0.000000
0
3DFACE
8
0
10
167.102005
20
-328.276001
30
-4.000000
11
165.625000
21
-327.716003
31
-4.000000
12
165.625000
22
-327.716003
32
0.000000
13
165.625000
23
-327.716003
33
0.000000
0
3DFACE
8
0
10
165.625000
20
-327.716003
30
0.000000
11
164.578003
21
-326.533997
31
-4.000000
12
164.578003
22
-326.533997
32
0.000000
13
164.578003
23
-326.533997
33
0.000000
0
3DFACE
8
0
10
164.578003
20
-326.533997
30
0.000000
11
164.578003
21
-326.533997
31
-4.000000
12
164.199997
22
-325.000000
32
0.000000
13
164.199997
23
-325.000000
33
0.000000
0
3DFACE
8
0
10
165.625000
20
-327.716003
30
-4.000000
11
164.578003
21
-326.533997
31
-4.000000
12
165.625000
22
-327.716003
32
0.000000
13
165.625000
23
-327.716003
33
0.000000
0
3DFACE
8
0
10
164.578003
20
-326.533997
30
-4.000000
11
164.199997
21
-325.000000
31
-4.000000
12
164.199997
22
-325.000000
32
0.000000
13
164.199997
23
-325.000000
33
0.000000
0
3DFACE
8
0
10
331.700012
20
0.000000
30
0.000000
11
331.700012
21
0.000000
31
-4.000000
12
332.078003
22
1.533600
32
0.000000
13
332.078003
23
1.533600
33
0.000000
0
3DFACE
8
0
10
332.078003
20
1.533600
30
0.000000
11
332.078003
21
1.533600
31
-4.000000
12
333.125000
22
2.715800
32
0.000000
13
333.125000
23
2.715800
33
0.000000
0
3DFACE
8
0
10
331.700012
20
0.000000
30
-4.000000
11
332.078003
21
1.533600
31
-4.000000
12
332.078003
22
1.533600
32
0.000000
13
332.078003
23
1.533600
33
0.000000
0
3DFACE
8
0
10
333.125000
20
2.715800
30
0.000000
11
333.125000
21
2.715800
31
-4.000000
12
334.601990
22
3.275900
32
0.000000
13
334.601990
23
3.275900
33
0.000000
0
3DFACE
8
0
10
332.078003
20
1.533600
30
-4.000000
11
333.125000
21
2.715800
31
-4.000000
12
333.125000
22
2.715800
32
0.000000
13
333.125000
23
2.715800
33
0.000000
0
3DFACE
8
0
10
334.601990
20
3.275900
30
0.000000
11
334.601990
21
3.275900
31
-4.000000
12
336.170013
22
3.085600
32
0.000000
13
336.170013
23
3.085600
33
0.000000
0
3DFACE
8
0
10
333.125000
20
2.715800
30
-4.000000
11
334.601990
21
3.275900
31
-4.000000
12
334.601990
22
3.275900
32
0.000000
13
334.601990
23
3.275900
33
0.000000
0
3DFACE
8
0
10
336.170013
20
3.085600
30
0.000000
11
336.170013
21
3.085600
31
-4.000000
12
337.470001
22
2.188300
32
0.000000
13
337.470001
23
2.188300
33
0.000000
0
3DFACE
8
0
10
334.601990
20
3.275900
30
-4.000000
11
336.170013
21
3.085600
31
-4.000000
12
336.170013
22
3.085600
32
0.000000
13
336.170013
23
3.085600
33
0.000000
0
3DFACE
8
0
10
337.470001
20
2.188300
30
0.000000
11
337.470001
21
2.188300
31
-4.000000
12
338.204010
22
0.789700
32
0.000000
13
338.204010
23
0.789700
33
0.000000
0
3DFACE
8
0
10
336.170013
20
3.085600
30
-4.000000
11
337.470001
21
2.188300
31
-4.000000
12
337.470001
22
2.188300
32
0.000000
13
337.470001
23
2.188300
33
0.000000
0
3DFACE
8
0
10
338.204010
20
0.789700
30
0.000000
11
338.204010
21
0.789700
31
-4.000000
12
338.204010
22
-0.789700
32
0.000000
13
338.204010
23
-0.789700
33
0.000000
0
3DFACE
8
0
10
337.470001
20
2.188300
30
-4.000000
11
338.204010
21
0.789700
31
-4.000000
12
338.204010
22
0.789700
32
0.000000
13
338.204010
23
0.789700
33
0.000000
0
3DFACE
8
0
10
338.204010
20
-0.789700
30
0.000000
11
338.204010
21
-0.789700
31
-4.000000
12
337.470001
22
-2.188300
32
0.000000
13
337.470001
23
-2.188300
33
0.000000
0
3DFACE
8
0
10
338.204010
20
0.789700
30
-4.000000
11
338.204010
21
-0.789700
31
-4.000000
12
338.204010
22
-0.789700
32
0.000000
13
338.204010
23
-0.789700
33
0.000000
0
3DFACE
8
0
10
337.470001
20
-2.188300
30
0.000000
11
337.470001
21
-2.188300
31
-4.000000
12
336.170013
22
-3.085600
32
0.000000
13
336.170013
23
-3.085600
33
0.000000
0
3DFACE
8
0
10
338.204010
20
-0.789700
30
-4.000000
11
337.470001
21
-2.188300
31
-4.000000
12
337.470001
22
-2.188300
32
0.000000
13
337.470001
23
-2.188300
33
0.000000
0
3DFACE
8
0
10
336.170013
20
-3.085600
30
0.000000
11
336.170013
21
-3.085600
31
-4.000000
12
334.601990
22
-3.275900
32
0.000000
13
334.601990
23
-3.275900
33
0.000000
0
3DFACE
8
0
10
337.470001
20
-2.188300
30
-4.000000
11
336.170013
21
-3.085600
31
-4.000000
12
336.170013
22
-3.085600
32
0.000000
13
336.170013
23
-3.085600
33
0.000000
0
3DFACE
8
0
10
334.601990
20
-3.275900
30
0.000000
11
334.601990
21
-3.275900
31
-4.000000
12
333.125000
22
-2.715800
32
0.000000
13
333.125000
23
-2.715800
33
0.000000
0
3DFACE
8
0
10
336.170013
20
-3.085600
30
-4.000000
11
334.601990
21
-3.275900
31
-4.000000
12
334.601990
22
-3.275900
32
0.000000
13
334.601990
23
-3.275900
33
0.000000
0
3DFACE
8
0
10
334.601990
20
-3.275900
30
-4.000000
11
333.125000
21
-2.715800
31
-4.000000
12
333.125000
22
-2.715800
32
0.000000
13
333.125000
23
-2.715800
33
0.000000
0
3DFACE
8
0
10
333.125000
20
-2.715800
30
0.000000
11
332.078003
21
-1.533600
31
-4.000000
12
332.078003
22
-1.533600
32
0.000000
13
332.078003
23
-1.533600
33
0.000000
0
3DFACE
8
0
10
332.078003
20
-1.533600
30
0.000000
11
332.078003
21
-1.533600
31
-4.000000
12
331.700012
22
0.000000
32
0.000000
13
331.700012
23
0.000000
33
0.000000
0
3DFACE
8
0
10
333.125000
20
-2.715800
30
-4.000000
11
332.078003
21
-1.533600
31
-4.000000
12
333.125000
22
-2.715800
32
0.000000
13
333.125000
23
-2.715800
33
0.000000
0
3DFACE
8
0
10
332.078003
20
-1.533600
30
-4.000000
11
331.700012
21
0.000000
31
-4.000000
12
331.700012
22
0.000000
32
0.000000
13
331.700012
23
0.000000
33
0.000000
0
3DFACE
8
0
10
-3.300000
20
162.500000
30
0.000000
11
-3.300000
21
162.500000
31
-4.000000
12
-2.922000
22
164.033997
32
0.000000
13
-2.922000
23
164.033997
33
0.000000
0
3DFACE
8
0
10
-2.922000
20
164.033997
30
0.000000
11
-2.922000
21
164.033997
31
-4.000000
12
-1.874600
22
165.216003
32
0.000000
13
-1.874600
23
165.216003
33
0.000000
0
3DFACE
8
0
10
-3.300000
20
162.500000
30
-4.000000
11
-2.922000
21
164.033997
31
-4.000000
12
-2.922000
22
164.033997
32
0.000000
13
-2.922000
23
164.033997
33
0.000000
0
3DFACE
8
0
10
-1.874600
20
165.216003
30
0.000000
11
-1.874600
21
165.216003
31
-4.000000
12
-0.397800
22
165.776001
32
0.000000
13
-0.397800
23
165.776001
33
0.000000
0
3DFACE
8
0
10
-2.922000
20
164.033997
30
-4.000000
11
-1.874600
21
165.216003
31
-4.000000
12
-1.874600
22
165.216003
32
0.000000
13
-1.874600
23
165.216003
33
0.000000
0
3DFACE
8
0
10
-0.397800
20
165.776001
30
0.000000
11
-0.397800
21
165.776001
31
-4.000000
12
1.170200
22
165.585999
32
0.000000
13
1.170200
23
165.585999
33
0.000000
0
3DFACE
8
0
10
-1.874600
20
165.216003
30
-4.000000
11
-0.397800
21
165.776001
31
-4.000000
12
-0.397800
22
165.776001
32
0.000000
13
-0.397800
23
165.776001
33
0.000000
0
3DFACE
8
0
10
1.170200
20
165.585999
30
0.000000
11
1.170200
21
165.585999
31
-4.000000
12
2.470100
22
164.688004
32
0.000000
13
2.470100
23
164.688004
33
0.000000
0
3DFACE
8
0
10
-0.397800
20
165.776001
30
-4.000000
11
1.170200
21
165.585999
31
-4.000000
12
1.170200
22
165.585999
32
0.000000
13
1.170200
23
165.585999
33
0.000000
0
3DFACE
8
0
10
2.470100
20
164.688004
30
0.000000
11
2.470100
21
164.688004
31
-4.000000
12
3.204100
22
163.289993
32
0.000000
13
3.204100
23
163.289993
33
0.000000
0
3DFACE
8
0
10
1.170200
20
165.585999
30
-4.000000
11
2.470100
21
164.688004
31
-4.000000
12
2.470100
22
164.688004
32
0.000000
13
2.470100
23
164.688004
33
0.000000
0
3DFACE
8
0
10
3.204100
20
163.289993
30
0.000000
11
3.204100
21
163.289993
31
-4.000000
12
3.204100
22
161.710007
32
0.000000
13
3.204100
23
161.710007
33
0.000000
0
3DFACE
8
0
10
2.470100
20
164.688004
30
-4.000000
11
3.204100
21
163.289993
31
-4.000000
12
3.204100
22
163.289993
32
0.000000
13
3.204100
23
163.289993
33
0.000000
0
3DFACE
8
0
10
3.204100
20
161.710007
30
0.000000
11
3.204100
21
161.710007
31
-4.000000
12
2.470100
22
160.311996
32
0.000000
13
2.470100
23
160.311996
33
0.000000
0
3DFACE
8
0
10
3.204100
20
163.289993
30
-4.000000
11
3.204100
21
161.710007
31
-4.000000
12
3.204100
22
161.710007
32
0.000000
13
3.204100
23
161.710007
33
0.000000
0
3DFACE
8
0
10
2.470100
20
160.311996
30
0.000000
11
2.470100
21
160.311996
31
-4.000000
12
1.170200
22
159.414001
32
0.000000
13
1.170200
23
159.414001
33
0.000000
0
3DFACE
8
0
10
3.204100
20
161.710007
30
-4.000000
11
2.470100
21
160.311996
31
-4.000000
12
2.470100
22
160.311996
32
0.000000
13
2.470100
23
160.311996
33
0.000000
0
3DFACE
8
0
10
1.170200
20
159.414001
30
0.000000
11
1.170200
21
159.414001
31
-4.000000
12
-0.397800
22
159.223999
32
0.000000
13
-0.397800
23
159.223999
33
0.000000
0
3DFACE
8
0
10
2.470100
20
160.311996
30
-4.000000
11
1.170200
21
159.414001
31
-4.000000
12
1.170200
22
159.414001
32
0.000000
13
1.170200
23
159.414001
33
0.000000
0
3DFACE
8
0
10
-0.397800
20
159.223999
30
0.000000
11
-0.397800
21
159.223999
31
-4.000000
12
-1.874600
22
159.783997
32
0.000000
13
-1.874600
23
159.783997
33
0.000000
0
3DFACE
8
0
10
1.170200
20
159.414001
30
-4.000000
11
-0.397800
21
159.223999
31
-4.000000
12
-0.397800
22
159.223999
32
0.000000
13
-0.397800
23
159.223999
33
0.000000
0
3DFACE
8
0
10
-0.397800
20
159.223999
30
-4.000000
11
-1.874600
21
159.783997
31
-4.000000
12
-1.874600
22
159.783997
32
0.000000
13
-1.874600
23
159.783997
33
0.000000
0
3DFACE
8
0
10
-1.874600
20
159.783997
30
0.000000
11
-2.922000
21
160.966003
31
-4.000000
12
-2.922000
22
160.966003
32
0.000000
13
-2.922000
23
160.966003
33
0.000000
0
3DFACE
8
0
10
-2.922000
20
160.966003
30
0.000000
11
-2.922000
21
160.966003
31
-4.000000
12
-3.300000
22
162.500000
32
0.000000
13
-3.300000
23
162.500000
33
0.000000
0
3DFACE
8
0
10
-1.874600
20
159.783997
30
-4.000000
11
-2.922000
21
160.966003
31
-4.000000
12
-1.874600
22
159.783997
32
0.000000
13
-1.874600
23
159.783997
33
0.000000
0
3DFACE
8
0
10
-2.922000
20
160.966003
30
-4.000000
11
-3.300000
21
162.500000
31
-4.000000
12
-3.300000
22
162.500000
32
0.000000
13
-3.300000
23
162.500000
33
0.000000
0
3DFACE
8
0
10
-3.300000
20
-162.500000
30
0.000000
11
-3.300000
21
-162.500000
31
-4.000000
12
-2.922000
22
-160.966003
32
0.000000
13
-2.922000
23
-160.966003
33
0.000000
0
3DFACE
8
0
10
-2.922000
20
-160.966003
30
0.000000
11
-2.922000
21
-160.966003
31
-4.000000
12
-1.874600
22
-159.783997
32
0.000000
13
-1.874600
23
-159.783997
33
0.000000
0
3DFACE
8
0
10
-3.300000
20
-162.500000
30
-4.000000
11
-2.922000
21
-160.966003
31
-4.000000
12
-2.922000
22
-160.966003
32
0.000000
13
-2.922000
23
-160.966003
33
0.000000
0
3DFACE
8
0
10
-1.874600
20
-159.783997
30
0.000000
11
-1.874600
21
-159.783997
31
-4.000000
12
-0.397800
22
-159.223999
32
0.000000
13
-0.397800
23
-159.223999
33
0.000000
0
3DFACE
8
0
10
-2.922000
20
-160.966003
30
-4.000000
11
-1.874600
21
-159.783997
31
-4.000000
12
-1.874600
22
-159.783997
32
0.000000
13
-1.874600
23
-159.783997
33
0.000000
0
3DFACE
8
0
10
-0.397800
20
-159.223999
30
0.000000
11
-0.397800
21
-159.223999
31
-4.000000
12
1.170200
22
-159.414001
32
0.000000
13
1.170200
23
-159.414001
33
0.000000
0
3DFACE
8
0
10
-1.874600
20
-159.783997
30
-4.000000
11
-0.397800
21
-159.223999
31
-4.000000
12
-0.397800
22
-159.223999
32
0.000000
13
-0.397800
23
-159.223999
33
0.000000
0
3DFACE
8
0
10
1.170200
20
-159.414001
30
0.000000
11
1.170200
21
-159.414001
31
-4.000000
12
2.470100
22
-160.311996
32
0.000000
13
2.470100
23
-160.311996
33
0.000000
0
3DFACE
8
0
10
-0.397800
20
-159.223999
30
-4.000000
11
1.170200
21
-159.414001
31
-4.000000
12
1.170200
22
-159.414001
32
0.000000
13
1.170200
23
-159.414001
33
0.000000
0
3DFACE
8
0
10
2.470100
20
-160.311996
30
0.000000
11
2.470100
21
-160.311996
31
-4.000000
12
3.204100
22
-161.710007
32
0.000000
13
3.204100
23
-161.710007
33
0.000000
0
3DFACE
8
0
10
1.170200
20
-159.414001
30
-4.000000
11
2.470100
21
-160.311996
31
-4.000000
12
2.470100
22
-160.311996
32
0.000000
13
2.470100
23
-160.311996
33
0.000000
0
3DFACE
8
0
10
3.204100
20
-161.710007
30
0.000000
11
3.204100
21
-161.710007
31
-4.000000
12
3.204100
22
-163.289993
32
0.000000
13
3.204100
23
-163.289993
33
0.000000
0
3DFACE
8
0
10
2.470100
20
-160.311996
30
-4.000000
11
3.204100
21
-161.710007
31
-4.000000
12
3.204100
22
-161.710007
32
0.000000
13
3.204100
23
-161.710007
33
0.000000
0
3DFACE
8
0
10
3.204100
20
-163.289993
30
0.000000
11
3.204100
21
-163.289993
31
-4.000000
12
2.470100
22
-164.688004
32
0.000000
13
2.470100
23
-164.688004
33
0.000000
0
3DFACE
8
0
10
3.204100
20
-161.710007
30
-4.000000
11
3.204100
21
-163.289993
31
-4.000000
12
3.204100
22
-163.289993
32
0.000000
13
3.204100
23
-163.289993
33
0.000000
0
3DFACE
8
0
10
2.470100
20
-164.688004
30
0.000000
11
2.470100
21
-164.688004
31
-4.000000
12
1.170200
22
-165.585999
32
0.000000
13
1.170200
23
-165.585999
33
0.000000
0
3DFACE
8
0
10
3.204100
20
-163.289993
30
-4.000000
11
2.470100
21
-164.688004
31
-4.000000
12
2.470100
22
-164.688004
32
0.000000
13
2.470100
23
-164.688004
33
0.000000
0
3DFACE
8
0
10
1.170200
20
-165.585999
30
0.000000
11
1.170200
21
-165.585999
31
-4.000000
12
-0.397800
22
-165.776001
32
0.000000
13
-0.397800
23
-165.776001
33
0.000000
0
3DFACE
8
0
10
2.470100
20
-164.688004
30
-4.000000
11
1.170200
21
-165.585999
31
-4.000000
12
1.170200
22
-165.585999
32
0.000000
13
1.170200
23
-165.585999
33
0.000000
0
3DFACE
8
0
10
-0.397800
20
-165.776001
30
0.000000
11
-0.397800
21
-165.776001
31
-4.000000
12
-1.874600
22
-165.216003
32
0.000000
13
-1.874600
23
-165.216003
33
0.000000
0
3DFACE
8
0
10
1.170200
20
-165.585999
30
-4.000000
11
-0.397800
21
-165.776001
31
-4.000000
12
-0.397800
22
-165.776001
32
0.000000
13
-0.397800
23
-165.776001
33
0.000000
0
3DFACE
8
0
10
-0.397800
20
-165.776001
30
-4.000000
11
-1.874600
21
-165.216003
31
-4.000000
12
-1.874600
22
-165.216003
32
0.000000
13
-1.874600
23
-165.216003
33
0.000000
0
3DFACE
8
0
10
-1.874600
20
-165.216003
30
0.000000
11
-2.922000
21
-164.033997
31
-4.000000
12
-2.922000
22
-164.033997
32
0.000000
13
-2.922000
23
-164.033997
33
0.000000
0
3DFACE
8
0
10
-2.922000
20
-164.033997
30
0.000000
11
-2.922000
21
-164.033997
31
-4.000000
12
-3.300000
22
-162.500000
32
0.000000
13
-3.300000
23
-162.500000
33
0.000000
0
3DFACE
8
0
10
-1.874600
20
-165.216003
30
-4.000000
11
-2.922000
21
-164.033997
31
-4.000000
12
-1.874600
22
-165.216003
32
0.000000
13
-1.874600
23
-165.216003
33
0.000000
0
3DFACE
8
0
10
-2.922000
20
-164.033997
30
-4.000000
11
-3.300000
21
-162.500000
31
-4.000000
12
-3.300000
22
-162.500000
32
0.000000
13
-3.300000
23
-162.500000
33
0.000000
0
3DFACE
8
0
10
-103.000000
20
-280.000000
30
0.000000
11
-103.000000
21
-280.000000
31
-4.000000
12
-102.084000
22
-276.282013
32
0.000000
13
-102.084000
23
-276.282013
33
0.000000
0
3DFACE
8
0
10
-102.084000
20
-276.282013
30
0.000000
11
-102.084000
21
-276.282013
31
-4.000000
12
-99.544502
22
-273.415985
32
0.000000
13
-99.544502
23
-273.415985
33
0.000000
0
3DFACE
8
0
10
-103.000000
20
-280.000000
30
-4.000000
11
-102.084000
21
-276.282013
31
-4.000000
12
-102.084000
22
-276.282013
32
0.000000
13
-102.084000
23
-276.282013
33
0.000000
0
3DFACE
8
0
10
-99.544502
20
-273.415985
30
0.000000
11
-99.544502
21
-273.415985
31
-4.000000
12
-95.964302
22
-272.058014
32
0.000000
13
-95.964302
23
-272.058014
33
0.000000
0
3DFACE
8
0
10
-102.084000
20
-276.282013
30
-4.000000
11
-99.544502
21
-273.415985
31
-4.000000
12
-99.544502
22
-273.415985
32
0.000000
13
-99.544502
23
-273.415985
33
0.000000
0
3DFACE
8
0
10
-95.964302
20
-272.058014
30
0.000000
11
-95.964302
21
-272.058014
31
-4.000000
12
-92.163200
22
-272.519989
32
0.000000
13
-92.163200
23
-272.519989
33
0.000000
0
3DFACE
8
0
10
-99.544502
20
-273.415985
30
-4.000000
11
-95.964302
21
-272.058014
31
-4.000000
12
-95.964302
22
-272.058014
32
0.000000
13
-95.964302
23
-272.058014
33
0.000000
0
3DFACE
8
0
10
-92.163200
20
-272.519989
30
0.000000
11
-92.163200
21
-272.519989
31
-4.000000
12
-89.011902
22
-274.695007
32
0.000000
13
-89.011902
23
-274.695007
33
0.000000
0
3DFACE
8
0
10
-95.964302
20
-272.058014
30
-4.000000
11
-92.163200
21
-272.519989
31
-4.000000
12
-92.163200
22
-272.519989
32
0.000000
13
-92.163200
23
-272.519989
33
0.000000
0
3DFACE
8
0
10
-89.011902
20
-274.695007
30
0.000000
11
-89.011902
21
-274.695007
31
-4.000000
12
-87.232498
22
-278.085999
32
0.000000
13
-87.232498
23
-278.085999
33
0.000000
0
3DFACE
8
0
10
-92.163200
20
-272.519989
30
-4.000000
11
-89.011902
21
-274.695007
31
-4.000000
12
-89.011902
22
-274.695007
32
0.000000
13
-89.011902
23
-274.695007
33
0.000000
0
3DFACE
8
0
10
-87.232498
20
-278.085999
30
0.000000
11
-87.232498
21
-278.085999
31
-4.000000
12
-87.232498
22
-281.914001
32
0.000000
13
-87.232498
23
-281.914001
33
0.000000
0
3DFACE
8
0
10
-89.011902
20
-274.695007
30
-4.000000
11
-87.232498
21
-278.085999
31
-4.000000
12
-87.232498
22
-278.085999
32
0.000000
13
-87.232498
23
-278.085999
33
0.000000
0
3DFACE
8
0
10
-87.232498
20
-281.914001
30
0.000000
11
-87.232498
21
-281.914001
31
-4.000000
12
-89.011902
22
-285.304993
32
0.000000
13
-89.011902
23
-285.304993
33
0.000000
0
3DFACE
8
0
10
-87.232498
20
-278.085999
30
-4.000000
11
-87.232498
21
-281.914001
31
-4.000000
12
-87.232498
22
-281.914001
32
0.000000
13
-87.232498
23
-281.914001
33
0.000000
0
3DFACE
8
0
10
-89.011902
20
-285.304993
30
0.000000
11
-89.011902
21
-285.304993
31
-4.000000
12
-92.163200
22
-287.480011
32
0.000000
13
-92.163200
23
-287.480011
33
0.000000
0
3DFACE
8
0
10
-87.232498
20
-281.914001
30
-4.000000
11
-89.011902
21
-285.304993
31
-4.000000
12
-89.011902
22
-285.304993
32
0.000000
13
-89.011902
23
-285.304993
33
0.000000
0
3DFACE
8
0
10
-89.011902
20
-285.304993
30
-4.000000
11
-92.163200
21
-287.480011
31
-4.000000
12
-92.163200
22
-287.480011
32
0.000000
13
-92.163200
23
-287.480011
33
0.000000
0
3DFACE
8
0
10
-92.163200
20
-287.480011
30
0.000000
11
-95.964302
21
-287.941986
31
-4.000000
12
-95.964302
22
-287.941986
32
0.000000
13
-95.964302
23
-287.941986
33
0.000000
0
3DFACE
8
0
10
-95.964302
20
-287.941986
30
0.000000
11
-95.964302
21
-287.941986
31
-4.000000
12
-99.544502
22
-286.584015
32
0.000000
13
-99.544502
23
-286.584015
33
0.000000
0
3DFACE
8
0
10
-92.163200
20
-287.480011
30
-4.000000
11
-95.964302
21
-287.941986
31
-4.000000
12
-92.163200
22
-287.480011
32
0.000000
13
-92.163200
23
-287.480011
33
0.000000
0
3DFACE
8
0
10
-95.964302
20
-287.941986
30
-4.000000
11
-99.544502
21
-286.584015
31
-4.000000
12
-99.544502
22
-286.584015
32
0.000000
13
-99.544502
23
-286.584015
33
0.000000
0
3DFACE
8
0
10
-99.544502
20
-286.584015
30
0.000000
11
-102.084000
21
-283.717987
31
-4.000000
12
-102.084000
22
-283.717987
32
0.000000
13
-102.084000
23
-283.717987
33
0.000000
0
3DFACE
8
0
10
-102.084000
20
-283.717987
30
0.000000
11
-102.084000
21
-283.717987
31
-4.000000
12
-103.000000
22
-280.000000
32
0.000000
13
-103.000000
23
-280.000000
33
0.000000
0
3DFACE
8
0
10
-99.544502
20
-286.584015
30
-4.000000
11
-102.084000
21
-283.717987
31
-4.000000
12
-99.544502
22
-286.584015
32
0.000000
13
-99.544502
23
-286.584015
33
0.000000
0
3DFACE
8
0
10
-102.084000
20
-283.717987
30
-4.000000
11
-103.000000
21
-280.000000
31
-4.000000
12
-103.000000
22
-280.000000
32
0.000000
13
-103.000000
23
-280.000000
33
0.000000
0
3DFACE
8
0
10
-350.000000
20
340.000000
30
-4.000000
11
-350.000000
21
-310.000000
31
0.000000
12
-350.000000
22
340.000000
32
0.000000
13
-350.000000
23
340.000000
33
0.000000
0
3DFACE
8
0
10
-350.000000
20
340.000000
30
-4.000000
11
-350.000000
21
-310.000000
31
-4.000000
12
-350.000000
22
-310.000000
32
0.000000
13
-350.000000
23
-310.000000
33
0.000000
0
3DFACE
8
0
10
-350.000000
20
-310.000000
30
-4.000000
11
-320.000000
21
-310.000000
31
0.000000
12
-350.000000
22
-310.000000
32
0.000000
13
-350.000000
23
-310.000000
33
0.000000
0
3DFACE
8
0
10
-350.000000
20
-310.000000
30
-4.000000
11
-320.000000
21
-310.000000
31
-4.000000
12
-320.000000
22
-310.000000
32
0.000000
13
-320.000000
23
-310.000000
33
0.000000
0
3DFACE
8
0
10
-320.000000
20
-310.000000
30
-4.000000
11
-320.000000
21
-340.000000
31
0.000000
12
-320.000000
22
-310.000000
32
0.000000
13
-320.000000
23
-310.000000
33
0.000000
0
3DFACE
8
0
10
-320.000000
20
-310.000000
30
-4.000000
11
-320.000000
21
-340.000000
31
-4.000000
12
-320.000000
22
-340.000000
32
0.000000
13
-320.000000
23
-340.000000
33
0.000000
0
3DFACE
8
0
10
-320.000000
20
-340.000000
30
-4.000000
11
320.000000
21
-340.000000
31
0.000000
12
-320.000000
22
-340.000000
32
0.000000
13
-320.000000
23
-340.000000
33
0.000000
0
3DFACE
8
0
10
-320.000000
20
-340.000000
30
-4.000000
11
320.000000
21
-340.000000
31
-4.000000
12
320.000000
22
-340.000000
32
0.000000
13
320.000000
23
-340.000000
33
0.000000
0
3DFACE
8
0
10
320.000000
20
-340.000000
30
-4.000000
11
320.000000
21
-310.000000
31
0.000000
12
320.000000
22
-340.000000
32
0.000000
13
320.000000
23
-340.000000
33
0.000000
0
3DFACE
8
0
10
320.000000
20
-340.000000
30
-4.000000
11
320.000000
21
-310.000000
31
-4.000000
12
320.000000
22
-310.000000
32
0.000000
13
320.000000
23
-310.000000
33
0.000000
0
3DFACE
8
0
10
320.000000
20
-310.000000
30
-4.000000
11
350.000000
21
-310.000000
31
0.000000
12
320.000000
22
-310.000000
32
0.000000
13
320.000000
23
-310.000000
33
0.000000
0
3DFACE
8
0
10
320.000000
20
-310.000000
30
-4.000000
11
350.000000
21
-310.000000
31
-4.000000
12
350.000000
22
-310.000000
32
0.000000
13
350.000000
23
-310.000000
33
0.000000
0
3DFACE
8
0
10
350.000000
20
-310.000000
30
-4.000000
11
350.000000
21
340.000000
31
0.000000
12
350.000000
22
-310.000000
32
0.000000
13
350.000000
23
-310.000000
33
0.000000
0
3DFACE
8
0
10
350.000000
20
-310.000000
30
-4.000000
11
350.000000
21
340.000000
31
-4.000000
12
350.000000
22
340.000000
32
0.000000
13
350.000000
23
340.000000
33
0.000000
0
3DFACE
8
0
10
350.000000
20
340.000000
30
0.000000
11
-350.000000
21
340.000000
31
-4.000000
12
-350.000000
22
340.000000
32
0.000000
13
-350.000000
23
340.000000
33
0.000000
0
3DFACE
8
0
10
350.000000
20
340.000000
30
-4.000000
11
-350.000000
21
340.000000
31
-4.000000
12
350.000000
22
340.000000
32
0.000000
13
350.000000
23
340.000000
33
0.000000
0
3DFACE
8
0
10
-337.921997
20
-164.033997
30
0.000000
11
-350.000000
21
-310.000000
31
0.000000
12
-336.875000
22
-165.216003
32
0.000000
13
-336.875000
23
-165.216003
33
0.000000
0
3DFACE
8
0
10
-335.398010
20
-165.776001
30
0.000000
11
-350.000000
21
-310.000000
31
0.000000
12
-320.000000
22
-310.000000
32
0.000000
13
-320.000000
23
-310.000000
33
0.000000
0
3DFACE
8
0
10
-335.398010
20
-165.776001
30
0.000000
11
-336.875000
21
-165.216003
31
0.000000
12
-350.000000
22
-310.000000
32
0.000000
13
-350.000000
23
-310.000000
33
0.000000
0
3DFACE
8
0
10
-338.299988
20
-162.500000
30
0.000000
11
-350.000000
21
-310.000000
31
0.000000
12
-337.921997
22
-164.033997
32
0.000000
13
-337.921997
23
-164.033997
33
0.000000
0
3DFACE
8
0
10
-333.829987
20
-165.585999
30
0.000000
11
-335.398010
21
-165.776001
31
0.000000
12
-320.000000
22
-310.000000
32
0.000000
13
-320.000000
23
-310.000000
33
0.000000
0
3DFACE
8
0
10
-332.529999
20
-164.688004
30
0.000000
11
-333.829987
21
-165.585999
31
0.000000
12
-320.000000
22
-310.000000
32
0.000000
13
-320.000000
23
-310.000000
33
0.000000
0
3DFACE
8
0
10
-170.421997
20
-326.533997
30
0.000000
11
-320.000000
21
-340.000000
31
0.000000
12
-169.375000
22
-327.716003
32
0.000000
13
-169.375000
23
-327.716003
33
0.000000
0
3DFACE
8
0
10
-167.897995
20
-328.276001
30
0.000000
11
-169.375000
21
-327.716003
31
0.000000
12
-320.000000
22
-340.000000
32
0.000000
13
-320.000000
23
-340.000000
33
0.000000
0
3DFACE
8
0
10
-170.800003
20
-325.000000
30
0.000000
11
-320.000000
21
-310.000000
31
0.000000
12
-320.000000
22
-340.000000
32
0.000000
13
-320.000000
23
-340.000000
33
0.000000
0
3DFACE
8
0
10
-170.800003
20
-325.000000
30
0.000000
11
-320.000000
21
-340.000000
31
0.000000
12
-170.421997
22
-326.533997
32
0.000000
13
-170.421997
23
-326.533997
33
0.000000
0
3DFACE
8
0
10
-170.421997
20
-323.466003
30
0.000000
11
-320.000000
21
-310.000000
31
0.000000
12
-170.800003
22
-325.000000
32
0.000000
13
-170.800003
23
-325.000000
33
0.000000
0
3DFACE
8
0
10
-169.375000
20
-322.283997
30
0.000000
11
-332.529999
21
-164.688004
31
0.000000
12
-320.000000
22
-310.000000
32
0.000000
13
-320.000000
23
-310.000000
33
0.000000
0
3DFACE
8
0
10
-169.375000
20
-322.283997
30
0.000000
11
-320.000000
21
-310.000000
31
0.000000
12
-170.421997
22
-323.466003
32
0.000000
13
-170.421997
23
-323.466003
33
0.000000
0
3DFACE
8
0
10
-169.375000
20
-322.283997
30
0.000000
11
-331.795990
21
-163.289993
31
0.000000
12
-332.529999
22
-164.688004
32
0.000000
13
-332.529999
23
-164.688004
33
0.000000
0
3DFACE
8
0
10
-167.897995
20
-321.723999
30
0.000000
11
-331.795990
21
-163.289993
31
0.000000
12
-169.375000
22
-322.283997
32
0.000000
13
-169.375000
23
-322.283997
33
0.000000
0
3DFACE
8
0
10
-99.544502
20
-286.584015
30
0.000000
11
-164.296005
21
-324.209991
31
0.000000
12
-164.296005
22
-325.790009
32
0.000000
13
-164.296005
23
-325.790009
33
0.000000
0
3DFACE
8
0
10
-102.084000
20
-283.717987
30
0.000000
11
-165.029999
21
-322.812012
31
0.000000
12
-164.296005
22
-324.209991
32
0.000000
13
-164.296005
23
-324.209991
33
0.000000
0
3DFACE
8
0
10
-102.084000
20
-283.717987
30
0.000000
11
-164.296005
21
-324.209991
31
0.000000
12
-99.544502
22
-286.584015
32
0.000000
13
-99.544502
23
-286.584015
33
0.000000
0
3DFACE
8
0
10
-95.964302
20
-287.941986
30
0.000000
11
-164.296005
21
-325.790009
31
0.000000
12
-165.029999
22
-327.187988
32
0.000000
13
-165.029999
23
-327.187988
33
0.000000
0
3DFACE
8
0
10
-95.964302
20
-287.941986
30
0.000000
11
-99.544502
21
-286.584015
31
0.000000
12
-164.296005
22
-325.790009
32
0.000000
13
-164.296005
23
-325.790009
33
0.000000
0
3DFACE
8
0
10
-103.000000
20
-280.000000
30
0.000000
11
-166.330002
21
-321.914001
31
0.000000
12
-165.029999
22
-322.812012
32
0.000000
13
-165.029999
23
-322.812012
33
0.000000
0
3DFACE
8
0
10
-103.000000
20
-280.000000
30
0.000000
11
-165.029999
21
-322.812012
31
0.000000
12
-102.084000
22
-283.717987
32
0.000000
13
-102.084000
23
-283.717987
33
0.000000
0
3DFACE
8
0
10
-102.084000
20
-276.282013
30
0.000000
11
-167.897995
21
-321.723999
31
0.000000
12
-166.330002
22
-321.914001
32
0.000000
13
-166.330002
23
-321.914001
33
0.000000
0
3DFACE
8
0
10
-102.084000
20
-276.282013
30
0.000000
11
-166.330002
21
-321.914001
31
0.000000
12
-103.000000
22
-280.000000
32
0.000000
13
-103.000000
23
-280.000000
33
0.000000
0
3DFACE
8
0
10
-102.084000
20
-276.282013
30
0.000000
11
-331.795990
21
-163.289993
31
0.000000
12
-167.897995
22
-321.723999
32
0.000000
13
-167.897995
23
-321.723999
33
0.000000
0
3DFACE
8
0
10
-99.544502
20
-273.415985
30
0.000000
11
-331.795990
21
-161.710007
31
0.000000
12
-331.795990
22
-163.289993
32
0.000000
13
-331.795990
23
-163.289993
33
0.000000
0
3DFACE
8
0
10
-99.544502
20
-273.415985
30
0.000000
11
-331.795990
21
-163.289993
31
0.000000
12
-102.084000
22
-276.282013
32
0.000000
13
-102.084000
23
-276.282013
33
0.000000
0
3DFACE
8
0
10
-337.921997
20
-1.533600
30
0.000000
11
-336.875000
21
-159.783997
31
0.000000
12
-336.875000
22
-2.715800
32
0.000000
13
-336.875000
23
-2.715800
33
0.000000
0
3DFACE
8
0
10
-337.921997
20
-1.533600
30
0.000000
11
-337.921997
21
-160.966003
31
0.000000
12
-336.875000
22
-159.783997
32
0.000000
13
-336.875000
23
-159.783997
33
0.000000
0
3DFACE
8
0
10
-335.398010
20
-3.275900
30
0.000000
11
-336.875000
21
-2.715800
31
0.000000
12
-336.875000
22
-159.783997
32
0.000000
13
-336.875000
23
-159.783997
33
0.000000
0
3DFACE
8
0
10
-335.398010
20
-3.275900
30
0.000000
11
-336.875000
21
-159.783997
31
0.000000
12
-335.398010
22
-159.223999
32
0.000000
13
-335.398010
23
-159.223999
33
0.000000
0
3DFACE
8
0
10
-338.299988
20
0.000000
30
0.000000
11
-338.299988
21
-162.500000
31
0.000000
12
-337.921997
22
-160.966003
32
0.000000
13
-337.921997
23
-160.966003
33
0.000000
0
3DFACE
8
0
10
-338.299988
20
0.000000
30
0.000000
11
-337.921997
21
-160.966003
31
0.000000
12
-337.921997
22
-1.533600
32
0.000000
13
-337.921997
23
-1.533600
33
0.000000
0
3DFACE
8
0
10
-333.829987
20
-3.085600
30
0.000000
11
-335.398010
21
-159.223999
31
0.000000
12
-333.829987
22
-159.414001
32
0.000000
13
-333.829987
23
-159.414001
33
0.000000
0
3DFACE
8
0
10
-333.829987
20
-3.085600
30
0.000000
11
-335.398010
21
-3.275900
31
0.000000
12
-335.398010
22
-159.223999
32
0.000000
13
-335.398010
23
-159.223999
33
0.000000
0
3DFACE
8
0
10
-332.529999
20
-2.188300
30
0.000000
11
-333.829987
21
-159.414001
31
0.000000
12
-332.529999
22
-160.311996
32
0.000000
13
-332.529999
23
-160.311996
33
0.000000
0
3DFACE
8
0
10
-332.529999
20
-2.188300
30
0.000000
11
-333.829987
21
-3.085600
31
0.000000
12
-333.829987
22
-159.414001
32
0.000000
13
-333.829987
23
-159.414001
33
0.000000
0
3DFACE
8
0
10
-331.795990
20
-0.789700
30
0.000000
11
-332.529999
21
-2.188300
31
0.000000
12
-332.529999
22
-160.311996
32
0.000000
13
-332.529999
23
-160.311996
33
0.000000
0
3DFACE
8
0
10
-331.795990
20
-0.789700
30
0.000000
11
-332.529999
21
-160.311996
31
0.000000
12
-331.795990
22
-161.710007
32
0.000000
13
-331.795990
23
-161.710007
33
0.000000
0
3DFACE
8
0
10
-1.874600
20
-327.716003
30
0.000000
11
-165.029999
21
-327.187988
31
0.000000
12
-166.330002
22
-328.085999
32
0.000000
13
-166.330002
23
-328.085999
33
0.000000
0
3DFACE
8
0
10
-2.922000
20
-326.533997
30
0.000000
11
-95.964302
21
-287.941986
31
0.000000
12
-165.029999
22
-327.187988
32
0.000000
13
-165.029999
23
-327.187988
33
0.000000
0
3DFACE
8
0
10
-2.922000
20
-326.533997
30
0.000000
11
-165.029999
21
-327.187988
31
0.000000
12
-1.874600
22
-327.716003
32
0.000000
13
-1.874600
23
-327.716003
33
0.000000
0
3DFACE
8
0
10
-2.922000
20
-326.533997
30
0.000000
11
-92.163200
21
-287.480011
31
0.000000
12
-95.964302
22
-287.941986
32
0.000000
13
-95.964302
23
-287.941986
33
0.000000
0
3DFACE
8
0
10
-0.397800
20
-328.276001
30
0.000000
11
-167.897995
21
-328.276001
31
0.000000
12
-320.000000
22
-340.000000
32
0.000000
13
-320.000000
23
-340.000000
33
0.000000
0
3DFACE
8
0
10
-0.397800
20
-328.276001
30
0.000000
11
-166.330002
21
-328.085999
31
0.000000
12
-167.897995
22
-328.276001
32
0.000000
13
-167.897995
23
-328.276001
33
0.000000
0
3DFACE
8
0
10
-0.397800
20
-328.276001
30
0.000000
11
-1.874600
21
-327.716003
31
0.000000
12
-166.330002
22
-328.085999
32
0.000000
13
-166.330002
23
-328.085999
33
0.000000
0
3DFACE
8
0
10
-3.300000
20
-325.000000
30
0.000000
11
-92.163200
21
-287.480011
31
0.000000
12
-2.922000
22
-326.533997
32
0.000000
13
-2.922000
23
-326.533997
33
0.000000
0
3DFACE
8
0
10
-3.300000
20
-325.000000
30
0.000000
11
-89.011902
21
-285.304993
31
0.000000
12
-92.163200
22
-287.480011
32
0.000000
13
-92.163200
23
-287.480011
33
0.000000
0
3DFACE
8
0
10
-2.922000
20
-323.466003
30
0.000000
11
-89.011902
21
-285.304993
31
0.000000
12
-3.300000
22
-325.000000
32
0.000000
13
-3.300000
23
-325.000000
33
0.000000
0
3DFACE
8
0
10
-2.922000
20
-323.466003
30
0.000000
11
-87.232498
21
-281.914001
31
0.000000
12
-89.011902
22
-285.304993
32
0.000000
13
-89.011902
23
-285.304993
33
0.000000
0
3DFACE
8
0
10
-1.874600
20
-322.283997
30
0.000000
11
-87.232498
21
-281.914001
31
0.000000
12
-2.922000
22
-323.466003
32
0.000000
13
-2.922000
23
-323.466003
33
0.000000
0
3DFACE
8
0
10
-1.874600
20
-322.283997
30
0.000000
11
-87.232498
21
-278.085999
31
0.000000
12
-87.232498
22
-281.914001
32
0.000000
13
-87.232498
23
-281.914001
33
0.000000
0
3DFACE
8
0
10
-0.397800
20
-321.723999
30
0.000000
11
-87.232498
21
-278.085999
31
0.000000
12
-1.874600
22
-322.283997
32
0.000000
13
-1.874600
23
-322.283997
33
0.000000
0
3DFACE
8
0
10
-336.875000
20
159.783997
30
0.000000
11
-336.875000
21
2.715800
31
0.000000
12
-335.398010
22
3.275900
32
0.000000
13
-335.398010
23
3.275900
33
0.000000
0
3DFACE
8
0
10
-337.921997
20
160.966003
30
0.000000
11
-337.921997
21
1.533600
31
0.000000
12
-336.875000
22
2.715800
32
0.000000
13
-336.875000
23
2.715800
33
0.000000
0
3DFACE
8
0
10
-337.921997
20
160.966003
30
0.000000
11
-336.875000
21
2.715800
31
0.000000
12
-336.875000
22
159.783997
32
0.000000
13
-336.875000
23
159.783997
33
0.000000
0
3DFACE
8
0
10
-335.398010
20
159.223999
30
0.000000
11
-336.875000
21
159.783997
31
0.000000
12
-335.398010
22
3.275900
32
0.000000
13
-335.398010
23
3.275900
33
0.000000
0
3DFACE
8
0
10
-338.299988
20
162.500000
30
0.000000
11
-338.299988
21
0.000000
31
0.000000
12
-337.921997
22
1.533600
32
0.000000
13
-337.921997
23
1.533600
33
0.000000
0
3DFACE
8
0
10
-338.299988
20
162.500000
30
0.000000
11
-337.921997
21
1.533600
31
0.000000
12
-337.921997
22
160.966003
32
0.000000
13
-337.921997
23
160.966003
33
0.000000
0
3DFACE
8
0
10
-333.829987
20
159.414001
30
0.000000
11
-335.398010
21
3.275900
31
0.000000
12
-333.829987
22
3.085600
32
0.000000
13
-333.829987
23
3.085600
33
0.000000
0
3DFACE
8
0
10
-333.829987
20
159.414001
30
0.000000
11
-335.398010
21
159.223999
31
0.000000
12
-335.398010
22
3.275900
32
0.000000
13
-335.398010
23
3.275900
33
0.000000
0
3DFACE
8
0
10
-332.529999
20
160.311996
30
0.000000
11
-333.829987
21
159.414001
31
0.000000
12
-333.829987
22
3.085600
32
0.000000
13
-333.829987
23
3.085600
33
0.000000
0
3DFACE
8
0
10
-332.529999
20
160.311996
30
0.000000
11
-333.829987
21
3.085600
31
0.000000
12
-332.529999
22
2.188300
32
0.000000
13
-332.529999
23
2.188300
33
0.000000
0
3DFACE
8
0
10
-332.529999
20
160.311996
30
0.000000
11
-332.529999
21
2.188300
31
0.000000
12
-331.795990
22
0.789700
32
0.000000
13
-331.795990
23
0.789700
33
0.000000
0
3DFACE
8
0
10
-331.795990
20
161.710007
30
0.000000
11
-332.529999
21
160.311996
31
0.000000
12
-331.795990
22
0.789700
32
0.000000
13
-331.795990
23
0.789700
33
0.000000
0
3DFACE
8
0
10
-1.874600
20
-165.216003
30
0.000000
11
-92.163200
21
-272.519989
31
0.000000
12
-89.011902
22
-274.695007
32
0.000000
13
-89.011902
23
-274.695007
33
0.000000
0
3DFACE
8
0
10
-2.922000
20
-164.033997
30
0.000000
11
-92.163200
21
-272.519989
31
0.000000
12
-1.874600
22
-165.216003
32
0.000000
13
-1.874600
23
-165.216003
33
0.000000
0
3DFACE
8
0
10
-2.922000
20
-164.033997
30
0.000000
11
-95.964302
21
-272.058014
31
0.000000
12
-92.163200
22
-272.519989
32
0.000000
13
-92.163200
23
-272.519989
33
0.000000
0
3DFACE
8
0
10
-0.397800
20
-165.776001
30
0.000000
11
-87.232498
21
-278.085999
31
0.000000
12
-0.397800
22
-321.723999
32
0.000000
13
-0.397800
23
-321.723999
33
0.000000
0
3DFACE
8
0
10
-0.397800
20
-165.776001
30
0.000000
11
-1.874600
21
-165.216003
31
0.000000
12
-89.011902
22
-274.695007
32
0.000000
13
-89.011902
23
-274.695007
33
0.000000
0
3DFACE
8
0
10
-0.397800
20
-165.776001
30
0.000000
11
-89.011902
21
-274.695007
31
0.000000
12
-87.232498
22
-278.085999
32
0.000000
13
-87.232498
23
-278.085999
33
0.000000
0
3DFACE
8
0
10
-3.300000
20
-162.500000
30
0.000000
11
-95.964302
21
-272.058014
31
0.000000
12
-2.922000
22
-164.033997
32
0.000000
13
-2.922000
23
-164.033997
33
0.000000
0
3DFACE
8
0
10
-3.300000
20
-162.500000
30
0.000000
11
-99.544502
21
-273.415985
31
0.000000
12
-95.964302
22
-272.058014
32
0.000000
13
-95.964302
23
-272.058014
33
0.000000
0
3DFACE
8
0
10
1.170200
20
-165.585999
30
0.000000
11
-0.397800
21
-165.776001
31
0.000000
12
-0.397800
22
-321.723999
32
0.000000
13
-0.397800
23
-321.723999
33
0.000000
0
3DFACE
8
0
10
1.170200
20
-165.585999
30
0.000000
11
-0.397800
21
-321.723999
31
0.000000
12
1.170200
22
-321.914001
32
0.000000
13
1.170200
23
-321.914001
33
0.000000
0
3DFACE
8
0
10
1.170200
20
-165.585999
30
0.000000
11
1.170200
21
-321.914001
31
0.000000
12
2.470100
22
-322.812012
32
0.000000
13
2.470100
23
-322.812012
33
0.000000
0
3DFACE
8
0
10
-2.922000
20
-160.966003
30
0.000000
11
-99.544502
21
-273.415985
31
0.000000
12
-3.300000
22
-162.500000
32
0.000000
13
-3.300000
23
-162.500000
33
0.000000
0
3DFACE
8
0
10
-2.922000
20
-160.966003
30
0.000000
11
-331.795990
21
-161.710007
31
0.000000
12
-99.544502
22
-273.415985
32
0.000000
13
-99.544502
23
-273.415985
33
0.000000
0
3DFACE
8
0
10
2.470100
20
-164.688004
30
0.000000
11
1.170200
21
-165.585999
31
0.000000
12
2.470100
22
-322.812012
32
0.000000
13
2.470100
23
-322.812012
33
0.000000
0
3DFACE
8
0
10
165.625000
20
-327.716003
30
0.000000
11
2.470100
21
-327.187988
31
0.000000
12
1.170200
22
-328.085999
32
0.000000
13
1.170200
23
-328.085999
33
0.000000
0
3DFACE
8
0
10
164.578003
20
-326.533997
30
0.000000
11
3.204100
21
-325.790009
31
0.000000
12
2.470100
22
-327.187988
32
0.000000
13
2.470100
23
-327.187988
33
0.000000
0
3DFACE
8
0
10
164.578003
20
-326.533997
30
0.000000
11
2.470100
21
-327.187988
31
0.000000
12
165.625000
22
-327.716003
32
0.000000
13
165.625000
23
-327.716003
33
0.000000
0
3DFACE
8
0
10
167.102005
20
-328.276001
30
0.000000
11
1.170200
21
-328.085999
31
0.000000
12
-0.397800
22
-328.276001
32
0.000000
13
-0.397800
23
-328.276001
33
0.000000
0
3DFACE
8
0
10
167.102005
20
-328.276001
30
0.000000
11
165.625000
21
-327.716003
31
0.000000
12
1.170200
22
-328.085999
32
0.000000
13
1.170200
23
-328.085999
33
0.000000
0
3DFACE
8
0
10
164.199997
20
-325.000000
30
0.000000
11
3.204100
21
-325.790009
31
0.000000
12
164.578003
22
-326.533997
32
0.000000
13
164.578003
23
-326.533997
33
0.000000
0
3DFACE
8
0
10
164.199997
20
-325.000000
30
0.000000
11
3.204100
21
-324.209991
31
0.000000
12
3.204100
22
-325.790009
32
0.000000
13
3.204100
23
-325.790009
33
0.000000
0
3DFACE
8
0
10
164.578003
20
-323.466003
30
0.000000
11
3.204100
21
-324.209991
31
0.000000
12
164.199997
22
-325.000000
32
0.000000
13
164.199997
23
-325.000000
33
0.000000
0
3DFACE
8
0
10
164.578003
20
-323.466003
30
0.000000
11
2.470100
21
-322.812012
31
0.000000
12
3.204100
22
-324.209991
32
0.000000
13
3.204100
23
-324.209991
33
0.000000
0
3DFACE
8
0
10
165.625000
20
-322.283997
30
0.000000
11
2.470100
21
-164.688004
31
0.000000
12
2.470100
22
-322.812012
32
0.000000
13
2.470100
23
-322.812012
33
0.000000
0
3DFACE
8
0
10
165.625000
20
-322.283997
30
0.000000
11
3.204100
21
-163.289993
31
0.000000
12
2.470100
22
-164.688004
32
0.000000
13
2.470100
23
-164.688004
33
0.000000
0
3DFACE
8
0
10
165.625000
20
-322.283997
30
0.000000
11
2.470100
21
-322.812012
31
0.000000
12
164.578003
22
-323.466003
32
0.000000
13
164.578003
23
-323.466003
33
0.000000
0
3DFACE
8
0
10
167.102005
20
-321.723999
30
0.000000
11
3.204100
21
-163.289993
31
0.000000
12
165.625000
22
-322.283997
32
0.000000
13
165.625000
23
-322.283997
33
0.000000
0
3DFACE
8
0
10
167.102005
20
-321.723999
30
0.000000
11
3.204100
21
-161.710007
31
0.000000
12
3.204100
22
-163.289993
32
0.000000
13
3.204100
23
-163.289993
33
0.000000
0
3DFACE
8
0
10
320.000000
20
-340.000000
30
0.000000
11
170.703995
21
-325.790009
31
0.000000
12
169.970001
22
-327.187988
32
0.000000
13
169.970001
23
-327.187988
33
0.000000
0
3DFACE
8
0
10
320.000000
20
-340.000000
30
0.000000
11
169.970001
21
-327.187988
31
0.000000
12
168.669998
22
-328.085999
32
0.000000
13
168.669998
23
-328.085999
33
0.000000
0
3DFACE
8
0
10
320.000000
20
-340.000000
30
0.000000
11
168.669998
21
-328.085999
31
0.000000
12
167.102005
22
-328.276001
32
0.000000
13
167.102005
23
-328.276001
33
0.000000
0
3DFACE
8
0
10
320.000000
20
-340.000000
30
0.000000
11
167.102005
21
-328.276001
31
0.000000
12
-0.397800
22
-328.276001
32
0.000000
13
-0.397800
23
-328.276001
33
0.000000
0
3DFACE
8
0
10
-350.000000
20
340.000000
30
0.000000
11
-338.299988
21
162.500000
31
0.000000
12
-337.921997
22
164.033997
32
0.000000
13
-337.921997
23
164.033997
33
0.000000
0
3DFACE
8
0
10
-350.000000
20
340.000000
30
0.000000
11
-337.921997
21
164.033997
31
0.000000
12
-336.875000
22
165.216003
32
0.000000
13
-336.875000
23
165.216003
33
0.000000
0
3DFACE
8
0
10
-350.000000
20
340.000000
30
0.000000
11
-336.875000
21
165.216003
31
0.000000
12
-335.398010
22
165.776001
32
0.000000
13
-335.398010
23
165.776001
33
0.000000
0
3DFACE
8
0
10
-350.000000
20
340.000000
30
0.000000
11
-335.398010
21
165.776001
31
0.000000
12
-333.829987
22
165.585999
32
0.000000
13
-333.829987
23
165.585999
33
0.000000
0
3DFACE
8
0
10
-350.000000
20
340.000000
30
0.000000
11
-333.829987
21
165.585999
31
0.000000
12
-332.529999
22
164.688004
32
0.000000
13
-332.529999
23
164.688004
33
0.000000
0
3DFACE
8
0
10
-1.874600
20
-2.715800
30
0.000000
11
-1.874600
21
-159.783997
31
0.000000
12
-0.397800
22
-159.223999
32
0.000000
13
-0.397800
23
-159.223999
33
0.000000
0
3DFACE
8
0
10
-2.922000
20
-1.533600
30
0.000000
11
-1.874600
21
-159.783997
31
0.000000
12
-1.874600
22
-2.715800
32
0.000000
13
-1.874600
23
-2.715800
33
0.000000
0
3DFACE
8
0
10
-2.922000
20
-1.533600
30
0.000000
11
-331.795990
21
-161.710007
31
0.000000
12
-2.922000
22
-160.966003
32
0.000000
13
-2.922000
23
-160.966003
33
0.000000
0
3DFACE
8
0
10
-2.922000
20
-1.533600
30
0.000000
11
-331.795990
21
-0.789700
31
0.000000
12
-331.795990
22
-161.710007
32
0.000000
13
-331.795990
23
-161.710007
33
0.000000
0
3DFACE
8
0
10
-2.922000
20
-1.533600
30
0.000000
11
-2.922000
21
-160.966003
31
0.000000
12
-1.874600
22
-159.783997
32
0.000000
13
-1.874600
23
-159.783997
33
0.000000
0
3DFACE
8
0
10
-0.397800
20
-3.275900
30
0.000000
11
-1.874600
21
-2.715800
31
0.000000
12
-0.397800
22
-159.223999
32
0.000000
13
-0.397800
23
-159.223999
33
0.000000
0
3DFACE
8
0
10
-3.300000
20
0.000000
30
0.000000
11
-331.795990
21
0.789700
31
0.000000
12
-331.795990
22
-0.789700
32
0.000000
13
-331.795990
23
-0.789700
33
0.000000
0
3DFACE
8
0
10
-3.300000
20
0.000000
30
0.000000
11
-331.795990
21
-0.789700
31
0.000000
12
-2.922000
22
-1.533600
32
0.000000
13
-2.922000
23
-1.533600
33
0.000000
0
3DFACE
8
0
10
1.170200
20
-3.085600
30
0.000000
11
-0.397800
21
-3.275900
31
0.000000
12
-0.397800
22
-159.223999
32
0.000000
13
-0.397800
23
-159.223999
33
0.000000
0
3DFACE
8
0
10
1.170200
20
-3.085600
30
0.000000
11
-0.397800
21
-159.223999
31
0.000000
12
1.170200
22
-159.414001
32
0.000000
13
1.170200
23
-159.414001
33
0.000000
0
3DFACE
8
0
10
-2.922000
20
1.533600
30
0.000000
11
-331.795990
21
0.789700
31
0.000000
12
-3.300000
22
0.000000
32
0.000000
13
-3.300000
23
0.000000
33
0.000000
0
3DFACE
8
0
10
2.470100
20
-2.188300
30
0.000000
11
1.170200
21
-3.085600
31
0.000000
12
1.170200
22
-159.414001
32
0.000000
13
1.170200
23
-159.414001
33
0.000000
0
3DFACE
8
0
10
2.470100
20
-2.188300
30
0.000000
11
1.170200
21
-159.414001
31
0.000000
12
2.470100
22
-160.311996
32
0.000000
13
2.470100
23
-160.311996
33
0.000000
0
3DFACE
8
0
10
2.470100
20
-2.188300
30
0.000000
11
2.470100
21
-160.311996
31
0.000000
12
3.204100
22
-161.710007
32
0.000000
13
3.204100
23
-161.710007
33
0.000000
0
3DFACE
8
0
10
3.204100
20
-0.789700
30
0.000000
11
2.470100
21
-2.188300
31
0.000000
12
3.204100
22
-161.710007
32
0.000000
13
3.204100
23
-161.710007
33
0.000000
0
3DFACE
8
0
10
320.000000
20
-310.000000
30
0.000000
11
169.970001
21
-322.812012
31
0.000000
12
170.703995
22
-324.209991
32
0.000000
13
170.703995
23
-324.209991
33
0.000000
0
3DFACE
8
0
10
320.000000
20
-310.000000
30
0.000000
11
170.703995
21
-324.209991
31
0.000000
12
170.703995
22
-325.790009
32
0.000000
13
170.703995
23
-325.790009
33
0.000000
0
3DFACE
8
0
10
320.000000
20
-310.000000
30
0.000000
11
170.703995
21
-325.790009
31
0.000000
12
320.000000
22
-340.000000
32
0.000000
13
320.000000
23
-340.000000
33
0.000000
0
3DFACE
8
0
10
-169.375000
20
322.283997
30
0.000000
11
-332.529999
21
164.688004
31
0.000000
12
-331.795990
22
163.289993
32
0.000000
13
-331.795990
23
163.289993
33
0.000000
0
3DFACE
8
0
10
-170.421997
20
323.466003
30
0.000000
11
-350.000000
21
340.000000
31
0.000000
12
-332.529999
22
164.688004
32
0.000000
13
-332.529999
23
164.688004
33
0.000000
0
3DFACE
8
0
10
-170.421997
20
323.466003
30
0.000000
11
-332.529999
21
164.688004
31
0.000000
12
-169.375000
22
322.283997
32
0.000000
13
-169.375000
23
322.283997
33
0.000000
0
3DFACE
8
0
10
-167.897995
20
321.723999
30
0.000000
11
-169.375000
21
322.283997
31
0.000000
12
-331.795990
22
163.289993
32
0.000000
13
-331.795990
23
163.289993
33
0.000000
0
3DFACE
8
0
10
-167.897995
20
321.723999
30
0.000000
11
-331.795990
21
163.289993
31
0.000000
12
-331.795990
22
161.710007
32
0.000000
13
-331.795990
23
161.710007
33
0.000000
0
3DFACE
8
0
10
-170.800003
20
325.000000
30
0.000000
11
-350.000000
21
340.000000
31
0.000000
12
-170.421997
22
323.466003
32
0.000000
13
-170.421997
23
323.466003
33
0.000000
0
3DFACE
8
0
10
-170.421997
20
326.533997
30
0.000000
11
-350.000000
21
340.000000
31
0.000000
12
-170.800003
22
325.000000
32
0.000000
13
-170.800003
23
325.000000
33
0.000000
0
3DFACE
8
0
10
-1.874600
20
159.783997
30
0.000000
11
-1.874600
21
2.715800
31
0.000000
12
-0.397800
22
3.275900
32
0.000000
13
-0.397800
23
3.275900
33
0.000000
0
3DFACE
8
0
10
-2.922000
20
160.966003
30
0.000000
11
-2.922000
21
1.533600
31
0.000000
12
-1.874600
22
2.715800
32
0.000000
13
-1.874600
23
2.715800
33
0.000000
0
3DFACE
8
0
10
-2.922000
20
160.966003
30
0.000000
11
-331.795990
21
161.710007
31
0.000000
12
-331.795990
22
0.789700
32
0.000000
13
-331.795990
23
0.789700
33
0.000000
0
3DFACE
8
0
10
-2.922000
20
160.966003
30
0.000000
11
-331.795990
21
0.789700
31
0.000000
12
-2.922000
22
1.533600
32
0.000000
13
-2.922000
23
1.533600
33
0.000000
0
3DFACE
8
0
10
-2.922000
20
160.966003
30
0.000000
11
-1.874600
21
2.715800
31
0.000000
12
-1.874600
22
159.783997
32
0.000000
13
-1.874600
23
159.783997
33
0.000000
0
3DFACE
8
0
10
-169.375000
20
327.716003
30
0.000000
11
-350.000000
21
340.000000
31
0.000000
12
-170.421997
22
326.533997
32
0.000000
13
-170.421997
23
326.533997
33
0.000000
0
3DFACE
8
0
10
-0.397800
20
159.223999
30
0.000000
11
-1.874600
21
159.783997
31
0.000000
12
-0.397800
22
3.275900
32
0.000000
13
-0.397800
23
3.275900
33
0.000000
0
3DFACE
8
0
10
-3.300000
20
162.500000
30
0.000000
11
-331.795990
21
161.710007
31
0.000000
12
-2.922000
22
160.966003
32
0.000000
13
-2.922000
23
160.966003
33
0.000000
0
3DFACE
8
0
10
-3.300000
20
162.500000
30
0.000000
11
-167.897995
21
321.723999
31
0.000000
12
-331.795990
22
161.710007
32
0.000000
13
-331.795990
23
161.710007
33
0.000000
0
3DFACE
8
0
10
-3.300000
20
162.500000
30
0.000000
11
-166.330002
21
321.914001
31
0.000000
12
-167.897995
22
321.723999
32
0.000000
13
-167.897995
23
321.723999
33
0.000000
0
3DFACE
8
0
10
-167.897995
20
328.276001
30
0.000000
11
-350.000000
21
340.000000
31
0.000000
12
-169.375000
22
327.716003
32
0.000000
13
-169.375000
23
327.716003
33
0.000000
0
3DFACE
8
0
10
1.170200
20
159.414001
30
0.000000
11
-0.397800
21
159.223999
31
0.000000
12
-0.397800
22
3.275900
32
0.000000
13
-0.397800
23
3.275900
33
0.000000
0
3DFACE
8
0
10
1.170200
20
159.414001
30
0.000000
11
-0.397800
21
3.275900
31
0.000000
12
1.170200
22
3.085600
32
0.000000
13
1.170200
23
3.085600
33
0.000000
0
3DFACE
8
0
10
-2.922000
20
164.033997
30
0.000000
11
-166.330002
21
321.914001
31
0.000000
12
-3.300000
22
162.500000
32
0.000000
13
-3.300000
23
162.500000
33
0.000000
0
3DFACE
8
0
10
-2.922000
20
164.033997
30
0.000000
11
-165.029999
21
322.812012
31
0.000000
12
-166.330002
22
321.914001
32
0.000000
13
-166.330002
23
321.914001
33
0.000000
0
3DFACE
8
0
10
2.470100
20
160.311996
30
0.000000
11
1.170200
21
3.085600
31
0.000000
12
2.470100
22
2.188300
32
0.000000
13
2.470100
23
2.188300
33
0.000000
0
3DFACE
8
0
10
2.470100
20
160.311996
30
0.000000
11
2.470100
21
2.188300
31
0.000000
12
3.204100
22
0.789700
32
0.000000
13
3.204100
23
0.789700
33
0.000000
0
3DFACE
8
0
10
2.470100
20
160.311996
30
0.000000
11
1.170200
21
159.414001
31
0.000000
12
1.170200
22
3.085600
32
0.000000
13
1.170200
23
3.085600
33
0.000000
0
3DFACE
8
0
10
-1.874600
20
165.216003
30
0.000000
11
-165.029999
21
322.812012
31
0.000000
12
-2.922000
22
164.033997
32
0.000000
13
-2.922000
23
164.033997
33
0.000000
0
3DFACE
8
0
10
-1.874600
20
165.216003
30
0.000000
11
-164.296005
21
324.209991
31
0.000000
12
-165.029999
22
322.812012
32
0.000000
13
-165.029999
23
322.812012
33
0.000000
0
3DFACE
8
0
10
3.204100
20
161.710007
30
0.000000
11
2.470100
21
160.311996
31
0.000000
12
3.204100
22
0.789700
32
0.000000
13
3.204100
23
0.789700
33
0.000000
0
3DFACE
8
0
10
-0.397800
20
165.776001
30
0.000000
11
-164.296005
21
325.790009
31
0.000000
12
-164.296005
22
324.209991
32
0.000000
13
-164.296005
23
324.209991
33
0.000000
0
3DFACE
8
0
10
-0.397800
20
165.776001
30
0.000000
11
-164.296005
21
324.209991
31
0.000000
12
-1.874600
22
165.216003
32
0.000000
13
-1.874600
23
165.216003
33
0.000000
0
3DFACE
8
0
10
332.078003
20
-164.033997
30
0.000000
11
168.669998
21
-321.914001
31
0.000000
12
169.970001
22
-322.812012
32
0.000000
13
169.970001
23
-322.812012
33
0.000000
0
3DFACE
8
0
10
332.078003
20
-164.033997
30
0.000000
11
169.970001
21
-322.812012
31
0.000000
12
320.000000
22
-310.000000
32
0.000000
13
320.000000
23
-310.000000
33
0.000000
0
3DFACE
8
0
10
332.078003
20
-164.033997
30
0.000000
11
320.000000
21
-310.000000
31
0.000000
12
333.125000
22
-165.216003
32
0.000000
13
333.125000
23
-165.216003
33
0.000000
0
3DFACE
8
0
10
334.601990
20
-165.776001
30
0.000000
11
320.000000
21
-310.000000
31
0.000000
12
350.000000
22
-310.000000
32
0.000000
13
350.000000
23
-310.000000
33
0.000000
0
3DFACE
8
0
10
334.601990
20
-165.776001
30
0.000000
11
333.125000
21
-165.216003
31
0.000000
12
320.000000
22
-310.000000
32
0.000000
13
320.000000
23
-310.000000
33
0.000000
0
3DFACE
8
0
10
331.700012
20
-162.500000
30
0.000000
11
168.669998
21
-321.914001
31
0.000000
12
332.078003
22
-164.033997
32
0.000000
13
332.078003
23
-164.033997
33
0.000000
0
3DFACE
8
0
10
331.700012
20
-162.500000
30
0.000000
11
3.204100
21
-161.710007
31
0.000000
12
167.102005
22
-321.723999
32
0.000000
13
167.102005
23
-321.723999
33
0.000000
0
3DFACE
8
0
10
331.700012
20
-162.500000
30
0.000000
11
167.102005
21
-321.723999
31
0.000000
12
168.669998
22
-321.914001
32
0.000000
13
168.669998
23
-321.914001
33
0.000000
0
3DFACE
8
0
10
336.170013
20
-165.585999
30
0.000000
11
334.601990
21
-165.776001
31
0.000000
12
350.000000
22
-310.000000
32
0.000000
13
350.000000
23
-310.000000
33
0.000000
0
3DFACE
8
0
10
332.078003
20
-160.966003
30
0.000000
11
3.204100
21
-161.710007
31
0.000000
12
331.700012
22
-162.500000
32
0.000000
13
331.700012
23
-162.500000
33
0.000000
0
3DFACE
8
0
10
337.470001
20
-164.688004
30
0.000000
11
336.170013
21
-165.585999
31
0.000000
12
350.000000
22
-310.000000
32
0.000000
13
350.000000
23
-310.000000
33
0.000000
0
3DFACE
8
0
10
338.204010
20
-163.289993
30
0.000000
11
337.470001
21
-164.688004
31
0.000000
12
350.000000
22
-310.000000
32
0.000000
13
350.000000
23
-310.000000
33
0.000000
0
3DFACE
8
0
10
338.204010
20
-161.710007
30
0.000000
11
338.204010
21
-163.289993
31
0.000000
12
350.000000
22
-310.000000
32
0.000000
13
350.000000
23
-310.000000
33
0.000000
0
3DFACE
8
0
10
332.078003
20
-1.533600
30
0.000000
11
3.204100
21
-161.710007
31
0.000000
12
332.078003
22
-160.966003
32
0.000000
13
332.078003
23
-160.966003
33
0.000000
0
3DFACE
8
0
10
332.078003
20
-1.533600
30
0.000000
11
333.125000
21
-159.783997
31
0.000000
12
333.125000
22
-2.715800
32
0.000000
13
333.125000
23
-2.715800
33
0.000000
0
3DFACE
8
0
10
332.078003
20
-1.533600
30
0.000000
11
332.078003
21
-160.966003
31
0.000000
12
333.125000
22
-159.783997
32
0.000000
13
333.125000
23
-159.783997
33
0.000000
0
3DFACE
8
0
10
332.078003
20
-1.533600
30
0.000000
11
3.204100
21
-0.789700
31
0.000000
12
3.204100
22
-161.710007
32
0.000000
13
3.204100
23
-161.710007
33
0.000000
0
3DFACE
8
0
10
334.601990
20
-3.275900
30
0.000000
11
333.125000
21
-2.715800
31
0.000000
12
333.125000
22
-159.783997
32
0.000000
13
333.125000
23
-159.783997
33
0.000000
0
3DFACE
8
0
10
334.601990
20
-3.275900
30
0.000000
11
333.125000
21
-159.783997
31
0.000000
12
334.601990
22
-159.223999
32
0.000000
13
334.601990
23
-159.223999
33
0.000000
0
3DFACE
8
0
10
331.700012
20
0.000000
30
0.000000
11
3.204100
21
0.789700
31
0.000000
12
3.204100
22
-0.789700
32
0.000000
13
3.204100
23
-0.789700
33
0.000000
0
3DFACE
8
0
10
331.700012
20
0.000000
30
0.000000
11
3.204100
21
-0.789700
31
0.000000
12
332.078003
22
-1.533600
32
0.000000
13
332.078003
23
-1.533600
33
0.000000
0
3DFACE
8
0
10
336.170013
20
-3.085600
30
0.000000
11
334.601990
21
-159.223999
31
0.000000
12
336.170013
22
-159.414001
32
0.000000
13
336.170013
23
-159.414001
33
0.000000
0
3DFACE
8
0
10
336.170013
20
-3.085600
30
0.000000
11
334.601990
21
-3.275900
31
0.000000
12
334.601990
22
-159.223999
32
0.000000
13
334.601990
23
-159.223999
33
0.000000
0
3DFACE
8
0
10
332.078003
20
1.533600
30
0.000000
11
3.204100
21
0.789700
31
0.000000
12
331.700012
22
0.000000
32
0.000000
13
331.700012
23
0.000000
33
0.000000
0
3DFACE
8
0
10
337.470001
20
-2.188300
30
0.000000
11
336.170013
21
-159.414001
31
0.000000
12
337.470001
22
-160.311996
32
0.000000
13
337.470001
23
-160.311996
33
0.000000
0
3DFACE
8
0
10
337.470001
20
-2.188300
30
0.000000
11
336.170013
21
-3.085600
31
0.000000
12
336.170013
22
-159.414001
32
0.000000
13
336.170013
23
-159.414001
33
0.000000
0
3DFACE
8
0
10
338.204010
20
-0.789700
30
0.000000
11
337.470001
21
-2.188300
31
0.000000
12
337.470001
22
-160.311996
32
0.000000
13
337.470001
23
-160.311996
33
0.000000
0
3DFACE
8
0
10
338.204010
20
-0.789700
30
0.000000
11
337.470001
21
-160.311996
31
0.000000
12
338.204010
22
-161.710007
32
0.000000
13
338.204010
23
-161.710007
33
0.000000
0
3DFACE
8
0
10
165.625000
20
322.283997
30
0.000000
11
2.470100
21
164.688004
31
0.000000
12
3.204100
22
163.289993
32
0.000000
13
3.204100
23
163.289993
33
0.000000
0
3DFACE
8
0
10
164.578003
20
323.466003
30
0.000000
11
2.470100
21
164.688004
31
0.000000
12
165.625000
22
322.283997
32
0.000000
13
165.625000
23
322.283997
33
0.000000
0
3DFACE
8
0
10
164.578003
20
323.466003
30
0.000000
11
1.170200
21
165.585999
31
0.000000
12
2.470100
22
164.688004
32
0.000000
13
2.470100
23
164.688004
33
0.000000
0
3DFACE
8
0
10
167.102005
20
321.723999
30
0.000000
11
3.204100
21
163.289993
31
0.000000
12
3.204100
22
161.710007
32
0.000000
13
3.204100
23
161.710007
33
0.000000
0
3DFACE
8
0
10
167.102005
20
321.723999
30
0.000000
11
165.625000
21
322.283997
31
0.000000
12
3.204100
22
163.289993
32
0.000000
13
3.204100
23
163.289993
33
0.000000
0
3DFACE
8
0
10
164.199997
20
325.000000
30
0.000000
11
-0.397800
21
165.776001
31
0.000000
12
1.170200
22
165.585999
32
0.000000
13
1.170200
23
165.585999
33
0.000000
0
3DFACE
8
0
10
164.199997
20
325.000000
30
0.000000
11
1.170200
21
165.585999
31
0.000000
12
164.578003
22
323.466003
32
0.000000
13
164.578003
23
323.466003
33
0.000000
0
3DFACE
8
0
10
164.199997
20
325.000000
30
0.000000
11
-164.296005
21
325.790009
31
0.000000
12
-0.397800
22
165.776001
32
0.000000
13
-0.397800
23
165.776001
33
0.000000
0
3DFACE
8
0
10
164.578003
20
326.533997
30
0.000000
11
-164.296005
21
325.790009
31
0.000000
12
164.199997
22
325.000000
32
0.000000
13
164.199997
23
325.000000
33
0.000000
0
3DFACE
8
0
10
164.578003
20
326.533997
30
0.000000
11
-165.029999
21
327.187988
31
0.000000
12
-164.296005
22
325.790009
32
0.000000
13
-164.296005
23
325.790009
33
0.000000
0
3DFACE
8
0
10
332.078003
20
160.966003
30
0.000000
11
3.204100
21
0.789700
31
0.000000
12
332.078003
22
1.533600
32
0.000000
13
332.078003
23
1.533600
33
0.000000
0
3DFACE
8
0
10
332.078003
20
160.966003
30
0.000000
11
333.125000
21
2.715800
31
0.000000
12
333.125000
22
159.783997
32
0.000000
13
333.125000
23
159.783997
33
0.000000
0
3DFACE
8
0
10
332.078003
20
160.966003
30
0.000000
11
332.078003
21
1.533600
31
0.000000
12
333.125000
22
2.715800
32
0.000000
13
333.125000
23
2.715800
33
0.000000
0
3DFACE
8
0
10
332.078003
20
160.966003
30
0.000000
11
3.204100
21
161.710007
31
0.000000
12
3.204100
22
0.789700
32
0.000000
13
3.204100
23
0.789700
33
0.000000
0
3DFACE
8
0
10
165.625000
20
327.716003
30
0.000000
11
-165.029999
21
327.187988
31
0.000000
12
164.578003
22
326.533997
32
0.000000
13
164.578003
23
326.533997
33
0.000000
0
3DFACE
8
0
10
165.625000
20
327.716003
30
0.000000
11
-166.330002
21
328.085999
31
0.000000
12
-165.029999
22
327.187988
32
0.000000
13
-165.029999
23
327.187988
33
0.000000
0
3DFACE
8
0
10
334.601990
20
159.223999
30
0.000000
11
333.125000
21
159.783997
31
0.000000
12
333.125000
22
2.715800
32
0.000000
13
333.125000
23
2.715800
33
0.000000
0
3DFACE
8
0
10
334.601990
20
159.223999
30
0.000000
11
333.125000
21
2.715800
31
0.000000
12
334.601990
22
3.275900
32
0.000000
13
334.601990
23
3.275900
33
0.000000
0
3DFACE
8
0
10
331.700012
20
162.500000
30
0.000000
11
168.669998
21
321.914001
31
0.000000
12
167.102005
22
321.723999
32
0.000000
13
167.102005
23
321.723999
33
0.000000
0
3DFACE
8
0
10
331.700012
20
162.500000
30
0.000000
11
167.102005
21
321.723999
31
0.000000
12
3.204100
22
161.710007
32
0.000000
13
3.204100
23
161.710007
33
0.000000
0
3DFACE
8
0
10
331.700012
20
162.500000
30
0.000000
11
3.204100
21
161.710007
31
0.000000
12
332.078003
22
160.966003
32
0.000000
13
332.078003
23
160.966003
33
0.000000
0
3DFACE
8
0
10
336.170013
20
159.414001
30
0.000000
11
334.601990
21
3.275900
31
0.000000
12
336.170013
22
3.085600
32
0.000000
13
336.170013
23
3.085600
33
0.000000
0
3DFACE
8
0
10
336.170013
20
159.414001
30
0.000000
11
334.601990
21
159.223999
31
0.000000
12
334.601990
22
3.275900
32
0.000000
13
334.601990
23
3.275900
33
0.000000
0
3DFACE
8
0
10
332.078003
20
164.033997
30
0.000000
11
169.970001
21
322.812012
31
0.000000
12
168.669998
22
321.914001
32
0.000000
13
168.669998
23
321.914001
33
0.000000
0
3DFACE
8
0
10
332.078003
20
164.033997
30
0.000000
11
168.669998
21
321.914001
31
0.000000
12
331.700012
22
162.500000
32
0.000000
13
331.700012
23
162.500000
33
0.000000
0
3DFACE
8
0
10
337.470001
20
160.311996
30
0.000000
11
336.170013
21
3.085600
31
0.000000
12
337.470001
22
2.188300
32
0.000000
13
337.470001
23
2.188300
33
0.000000
0
3DFACE
8
0
10
337.470001
20
160.311996
30
0.000000
11
337.470001
21
2.188300
31
0.000000
12
338.204010
22
0.789700
32
0.000000
13
338.204010
23
0.789700
33
0.000000
0
3DFACE
8
0
10
337.470001
20
160.311996
30
0.000000
11
336.170013
21
159.414001
31
0.000000
12
336.170013
22
3.085600
32
0.000000
13
336.170013
23
3.085600
33
0.000000
0
3DFACE
8
0
10
333.125000
20
165.216003
30
0.000000
11
169.970001
21
322.812012
31
0.000000
12
332.078003
22
164.033997
32
0.000000
13
332.078003
23
164.033997
33
0.000000
0
3DFACE
8
0
10
338.204010
20
161.710007
30
0.000000
11
337.470001
21
160.311996
31
0.000000
12
338.204010
22
0.789700
32
0.000000
13
338.204010
23
0.789700
33
0.000000
0
3DFACE
8
0
10
350.000000
20
340.000000
30
0.000000
11
168.669998
21
328.085999
31
0.000000
12
169.970001
22
327.187988
32
0.000000
13
169.970001
23
327.187988
33
0.000000
0
3DFACE
8
0
10
350.000000
20
340.000000
30
0.000000
11
169.970001
21
327.187988
31
0.000000
12
170.703995
22
325.790009
32
0.000000
13
170.703995
23
325.790009
33
0.000000
0
3DFACE
8
0
10
350.000000
20
340.000000
30
0.000000
11
170.703995
21
325.790009
31
0.000000
12
170.703995
22
324.209991
32
0.000000
13
170.703995
23
324.209991
33
0.000000
0
3DFACE
8
0
10
350.000000
20
340.000000
30
0.000000
11
170.703995
21
324.209991
31
0.000000
12
169.970001
22
322.812012
32
0.000000
13
169.970001
23
322.812012
33
0.000000
0
3DFACE
8
0
10
350.000000
20
340.000000
30
0.000000
11
333.125000
21
165.216003
31
0.000000
12
334.601990
22
165.776001
32
0.000000
13
334.601990
23
165.776001
33
0.000000
0
3DFACE
8
0
10
350.000000
20
340.000000
30
0.000000
11
334.601990
21
165.776001
31
0.000000
12
336.170013
22
165.585999
32
0.000000
13
336.170013
23
165.585999
33
0.000000
0
3DFACE
8
0
10
350.000000
20
340.000000
30
0.000000
11
336.170013
21
165.585999
31
0.000000
12
337.470001
22
164.688004
32
0.000000
13
337.470001
23
164.688004
33
0.000000
0
3DFACE
8
0
10
350.000000
20
340.000000
30
0.000000
11
337.470001
21
164.688004
31
0.000000
12
338.204010
22
163.289993
32
0.000000
13
338.204010
23
163.289993
33
0.000000
0
3DFACE
8
0
10
350.000000
20
340.000000
30
0.000000
11
169.970001
21
322.812012
31
0.000000
12
333.125000
22
165.216003
32
0.000000
13
333.125000
23
165.216003
33
0.000000
0
3DFACE
8
0
10
350.000000
20
340.000000
30
0.000000
11
-350.000000
21
340.000000
31
0.000000
12
-167.897995
22
328.276001
32
0.000000
13
-167.897995
23
328.276001
33
0.000000
0
3DFACE
8
0
10
350.000000
20
340.000000
30
0.000000
11
-167.897995
21
328.276001
31
0.000000
12
-166.330002
22
328.085999
32
0.000000
13
-166.330002
23
328.085999
33
0.000000
0
3DFACE
8
0
10
350.000000
20
340.000000
30
0.000000
11
-166.330002
21
328.085999
31
0.000000
12
167.102005
22
328.276001
32
0.000000
13
167.102005
23
328.276001
33
0.000000
0
3DFACE
8
0
10
167.102005
20
328.276001
30
0.000000
11
-166.330002
21
328.085999
31
0.000000
12
165.625000
22
327.716003
32
0.000000
13
165.625000
23
327.716003
33
0.000000
0
3DFACE
8
0
10
350.000000
20
340.000000
30
0.000000
11
167.102005
21
328.276001
31
0.000000
12
168.669998
22
328.085999
32
0.000000
13
168.669998
23
328.085999
33
0.000000
0
3DFACE
8
0
10
-350.000000
20
340.000000
30
0.000000
11
-350.000000
21
-310.000000
31
0.000000
12
-338.299988
22
-162.500000
32
0.000000
13
-338.299988
23
-162.500000
33
0.000000
0
3DFACE
8
0
10
-350.000000
20
340.000000
30
0.000000
11
-338.299988
21
-162.500000
31
0.000000
12
-338.299988
22
0.000000
32
0.000000
13
-338.299988
23
0.000000
33
0.000000
0
3DFACE
8
0
10
-350.000000
20
340.000000
30
0.000000
11
-338.299988
21
0.000000
31
0.000000
12
-338.299988
22
162.500000
32
0.000000
13
-338.299988
23
162.500000
33
0.000000
0
3DFACE
8
0
10
-320.000000
20
-340.000000
30
0.000000
11
320.000000
21
-340.000000
31
0.000000
12
-0.397800
22
-328.276001
32
0.000000
13
-0.397800
23
-328.276001
33
0.000000
0
3DFACE
8
0
10
350.000000
20
-310.000000
30
0.000000
11
350.000000
21
340.000000
31
0.000000
12
338.204010
22
-161.710007
32
0.000000
13
338.204010
23
-161.710007
33
0.000000
0
3DFACE
8
0
10
338.204010
20
-161.710007
30
0.000000
11
350.000000
21
340.000000
31
0.000000
12
338.204010
22
-0.789700
32
0.000000
13
338.204010
23
-0.789700
33
0.000000
0
3DFACE
8
0
10
338.204010
20
-0.789700
30
0.000000
11
350.000000
21
340.000000
31
0.000000
12
338.204010
22
0.789700
32
0.000000
13
338.204010
23
0.789700
33
0.000000
0
3DFACE
8
0
10
338.204010
20
0.789700
30
0.000000
11
350.000000
21
340.000000
31
0.000000
12
338.204010
22
161.710007
32
0.000000
13
338.204010
23
161.710007
33
0.000000
0
3DFACE
8
0
10
338.204010
20
161.710007
30
0.000000
11
350.000000
21
340.000000
31
0.000000
12
338.204010
22
163.289993
32
0.000000
13
338.204010
23
163.289993
33
0.000000
0
3DFACE
8
0
10
-350.000000
20
-310.000000
30
-4.000000
11
-337.921997
21
-164.033997
31
-4.000000
12
-336.875000
22
-165.216003
32
-4.000000
13
-336.875000
23
-165.216003
33
-4.000000
0
3DFACE
8
0
10
-350.000000
20
-310.000000
30
-4.000000
11
-335.398010
21
-165.776001
31
-4.000000
12
-320.000000
22
-310.000000
32
-4.000000
13
-320.000000
23
-310.000000
33
-4.000000
0
3DFACE
8
0
10
-336.875000
20
-165.216003
30
-4.000000
11
-335.398010
21
-165.776001
31
-4.000000
12
-350.000000
22
-310.000000
32
-4.000000
13
-350.000000
23
-310.000000
33
-4.000000
0
3DFACE
8
0
10
-350.000000
20
-310.000000
30
-4.000000
11
-338.299988
21
-162.500000
31
-4.000000
12
-337.921997
22
-164.033997
32
-4.000000
13
-337.921997
23
-164.033997
33
-4.000000
0
3DFACE
8
0
10
-335.398010
20
-165.776001
30
-4.000000
11
-333.829987
21
-165.585999
31
-4.000000
12
-320.000000
22
-310.000000
32
-4.000000
13
-320.000000
23
-310.000000
33
-4.000000
0
3DFACE
8
0
10
-333.829987
20
-165.585999
30
-4.000000
11
-332.529999
21
-164.688004
31
-4.000000
12
-320.000000
22
-310.000000
32
-4.000000
13
-320.000000
23
-310.000000
33
-4.000000
0
3DFACE
8
0
10
-320.000000
20
-340.000000
30
-4.000000
11
-170.421997
21
-326.533997
31
-4.000000
12
-169.375000
22
-327.716003
32
-4.000000
13
-169.375000
23
-327.716003
33
-4.000000
0
3DFACE
8
0
10
-169.375000
20
-327.716003
30
-4.000000
11
-167.897995
21
-328.276001
31
-4.000000
12
-320.000000
22
-340.000000
32
-4.000000
13
-320.000000
23
-340.000000
33
-4.000000
0
3DFACE
8
0
10
-320.000000
20
-310.000000
30
-4.000000
11
-170.800003
21
-325.000000
31
-4.000000
12
-320.000000
22
-340.000000
32
-4.000000
13
-320.000000
23
-340.000000
33
-4.000000
0
3DFACE
8
0
10
-320.000000
20
-340.000000
30
-4.000000
11
-170.800003
21
-325.000000
31
-4.000000
12
-170.421997
22
-326.533997
32
-4.000000
13
-170.421997
23
-326.533997
33
-4.000000
0
3DFACE
8
0
10
-320.000000
20
-310.000000
30
-4.000000
11
-170.421997
21
-323.466003
31
-4.000000
12
-170.800003
22
-325.000000
32
-4.000000
13
-170.800003
23
-325.000000
33
-4.000000
0
3DFACE
8
0
10
-332.529999
20
-164.688004
30
-4.000000
11
-169.375000
21
-322.283997
31
-4.000000
12
-320.000000
22
-310.000000
32
-4.000000
13
-320.000000
23
-310.000000
33
-4.000000
0
3DFACE
8
0
10
-320.000000
20
-310.000000
30
-4.000000
11
-169.375000
21
-322.283997
31
-4.000000
12
-170.421997
22
-323.466003
32
-4.000000
13
-170.421997
23
-323.466003
33
-4.000000
0
3DFACE
8
0
10
-331.795990
20
-163.289993
30
-4.000000
11
-169.375000
21
-322.283997
31
-4.000000
12
-332.529999
22
-164.688004
32
-4.000000
13
-332.529999
23
-164.688004
33
-4.000000
0
3DFACE
8
0
10
-331.795990
20
-163.289993
30
-4.000000
11
-167.897995
21
-321.723999
31
-4.000000
12
-169.375000
22
-322.283997
32
-4.000000
13
-169.375000
23
-322.283997
33
-4.000000
0
3DFACE
8
0
10
-164.296005
20
-324.209991
30
-4.000000
11
-99.544502
21
-286.584015
31
-4.000000
12
-164.296005
22
-325.790009
32
-4.000000
13
-164.296005
23
-325.790009
33
-4.000000
0
3DFACE
8
0
10
-165.029999
20
-322.812012
30
-4.000000
11
-102.084000
21
-283.717987
31
-4.000000
12
-164.296005
22
-324.209991
32
-4.000000
13
-164.296005
23
-324.209991
33
-4.000000
0
3DFACE
8
0
10
-164.296005
20
-324.209991
30
-4.000000
11
-102.084000
21
-283.717987
31
-4.000000
12
-99.544502
22
-286.584015
32
-4.000000
13
-99.544502
23
-286.584015
33
-4.000000
0
3DFACE
8
0
10
-164.296005
20
-325.790009
30
-4.000000
11
-95.964302
21
-287.941986
31
-4.000000
12
-165.029999
22
-327.187988
32
-4.000000
13
-165.029999
23
-327.187988
33
-4.000000
0
3DFACE
8
0
10
-99.544502
20
-286.584015
30
-4.000000
11
-95.964302
21
-287.941986
31
-4.000000
12
-164.296005
22
-325.790009
32
-4.000000
13
-164.296005
23
-325.790009
33
-4.000000
0
3DFACE
8
0
10
-166.330002
20
-321.914001
30
-4.000000
11
-103.000000
21
-280.000000
31
-4.000000
12
-165.029999
22
-322.812012
32
-4.000000
13
-165.029999
23
-322.812012
33
-4.000000
0
3DFACE
8
0
10
-165.029999
20
-322.812012
30
-4.000000
11
-103.000000
21
-280.000000
31
-4.000000
12
-102.084000
22
-283.717987
32
-4.000000
13
-102.084000
23
-283.717987
33
-4.000000
0
3DFACE
8
0
10
-166.330002
20
-321.914001
30
-4.000000
11
-102.084000
21
-276.282013
31
-4.000000
12
-103.000000
22
-280.000000
32
-4.000000
13
-103.000000
23
-280.000000
33
-4.000000
0
3DFACE
8
0
10
-167.897995
20
-321.723999
30
-4.000000
11
-102.084000
21
-276.282013
31
-4.000000
12
-166.330002
22
-321.914001
32
-4.000000
13
-166.330002
23
-321.914001
33
-4.000000
0
3DFACE
8
0
10
-331.795990
20
-163.289993
30
-4.000000
11
-102.084000
21
-276.282013
31
-4.000000
12
-167.897995
22
-321.723999
32
-4.000000
13
-167.897995
23
-321.723999
33
-4.000000
0
3DFACE
8
0
10
-331.795990
20
-161.710007
30
-4.000000
11
-99.544502
21
-273.415985
31
-4.000000
12
-331.795990
22
-163.289993
32
-4.000000
13
-331.795990
23
-163.289993
33
-4.000000
0
3DFACE
8
0
10
-331.795990
20
-163.289993
30
-4.000000
11
-99.544502
21
-273.415985
31
-4.000000
12
-102.084000
22
-276.282013
32
-4.000000
13
-102.084000
23
-276.282013
33
-4.000000
0
3DFACE
8
0
10
-336.875000
20
-159.783997
30
-4.000000
11
-337.921997
21
-1.533600
31
-4.000000
12
-336.875000
22
-2.715800
32
-4.000000
13
-336.875000
23
-2.715800
33
-4.000000
0
3DFACE
8
0
10
-337.921997
20
-160.966003
30
-4.000000
11
-337.921997
21
-1.533600
31
-4.000000
12
-336.875000
22
-159.783997
32
-4.000000
13
-336.875000
23
-159.783997
33
-4.000000
0
3DFACE
8
0
10
-336.875000
20
-2.715800
30
-4.000000
11
-335.398010
21
-3.275900
31
-4.000000
12
-336.875000
22
-159.783997
32
-4.000000
13
-336.875000
23
-159.783997
33
-4.000000
0
3DFACE
8
0
10
-336.875000
20
-159.783997
30
-4.000000
11
-335.398010
21
-3.275900
31
-4.000000
12
-335.398010
22
-159.223999
32
-4.000000
13
-335.398010
23
-159.223999
33
-4.000000
0
3DFACE
8
0
10
-338.299988
20
-162.500000
30
-4.000000
11
-338.299988
21
0.000000
31
-4.000000
12
-337.921997
22
-160.966003
32
-4.000000
13
-337.921997
23
-160.966003
33
-4.000000
0
3DFACE
8
0
10
-337.921997
20
-160.966003
30
-4.000000
11
-338.299988
21
0.000000
31
-4.000000
12
-337.921997
22
-1.533600
32
-4.000000
13
-337.921997
23
-1.533600
33
-4.000000
0
3DFACE
8
0
10
-333.829987
20
-159.414001
30
-4.000000
11
-333.829987
21
-3.085600
31
-4.000000
12
-332.529999
22
-160.311996
32
-4.000000
13
-332.529999
23
-160.311996
33
-4.000000
0
3DFACE
8
0
10
-335.398010
20
-159.223999
30
-4.000000
11
-333.829987
21
-3.085600
31
-4.000000
12
-333.829987
22
-159.414001
32
-4.000000
13
-333.829987
23
-159.414001
33
-4.000000
0
3DFACE
8
0
10
-335.398010
20
-3.275900
30
-4.000000
11
-333.829987
21
-3.085600
31
-4.000000
12
-335.398010
22
-159.223999
32
-4.000000
13
-335.398010
23
-159.223999
33
-4.000000
0
3DFACE
8
0
10
-333.829987
20
-3.085600
30
-4.000000
11
-332.529999
21
-2.188300
31
-4.000000
12
-332.529999
22
-160.311996
32
-4.000000
13
-332.529999
23
-160.311996
33
-4.000000
0
3DFACE
8
0
10
-332.529999
20
-160.311996
30
-4.000000
11
-331.795990
21
-0.789700
31
-4.000000
12
-331.795990
22
-161.710007
32
-4.000000
13
-331.795990
23
-161.710007
33
-4.000000
0
3DFACE
8
0
10
-332.529999
20
-2.188300
30
-4.000000
11
-331.795990
21
-0.789700
31
-4.000000
12
-332.529999
22
-160.311996
32
-4.000000
13
-332.529999
23
-160.311996
33
-4.000000
0
3DFACE
8
0
10
-165.029999
20
-327.187988
30
-4.000000
11
-1.874600
21
-327.716003
31
-4.000000
12
-166.330002
22
-328.085999
32
-4.000000
13
-166.330002
23
-328.085999
33
-4.000000
0
3DFACE
8
0
10
-165.029999
20
-327.187988
30
-4.000000
11
-2.922000
21
-326.533997
31
-4.000000
12
-1.874600
22
-327.716003
32
-4.000000
13
-1.874600
23
-327.716003
33
-4.000000
0
3DFACE
8
0
10
-95.964302
20
-287.941986
30
-4.000000
11
-2.922000
21
-326.533997
31
-4.000000
12
-165.029999
22
-327.187988
32
-4.000000
13
-165.029999
23
-327.187988
33
-4.000000
0
3DFACE
8
0
10
-92.163200
20
-287.480011
30
-4.000000
11
-2.922000
21
-326.533997
31
-4.000000
12
-95.964302
22
-287.941986
32
-4.000000
13
-95.964302
23
-287.941986
33
-4.000000
0
3DFACE
8
0
10
-166.330002
20
-328.085999
30
-4.000000
11
-0.397800
21
-328.276001
31
-4.000000
12
-167.897995
22
-328.276001
32
-4.000000
13
-167.897995
23
-328.276001
33
-4.000000
0
3DFACE
8
0
10
-167.897995
20
-328.276001
30
-4.000000
11
-0.397800
21
-328.276001
31
-4.000000
12
-320.000000
22
-340.000000
32
-4.000000
13
-320.000000
23
-340.000000
33
-4.000000
0
3DFACE
8
0
10
-1.874600
20
-327.716003
30
-4.000000
11
-0.397800
21
-328.276001
31
-4.000000
12
-166.330002
22
-328.085999
32
-4.000000
13
-166.330002
23
-328.085999
33
-4.000000
0
3DFACE
8
0
10
-92.163200
20
-287.480011
30
-4.000000
11
-3.300000
21
-325.000000
31
-4.000000
12
-2.922000
22
-326.533997
32
-4.000000
13
-2.922000
23
-326.533997
33
-4.000000
0
3DFACE
8
0
10
-89.011902
20
-285.304993
30
-4.000000
11
-3.300000
21
-325.000000
31
-4.000000
12
-92.163200
22
-287.480011
32
-4.000000
13
-92.163200
23
-287.480011
33
-4.000000
0
3DFACE
8
0
10
-89.011902
20
-285.304993
30
-4.000000
11
-2.922000
21
-323.466003
31
-4.000000
12
-3.300000
22
-325.000000
32
-4.000000
13
-3.300000
23
-325.000000
33
-4.000000
0
3DFACE
8
0
10
-87.232498
20
-281.914001
30
-4.000000
11
-2.922000
21
-323.466003
31
-4.000000
12
-89.011902
22
-285.304993
32
-4.000000
13
-89.011902
23
-285.304993
33
-4.000000
0
3DFACE
8
0
10
-87.232498
20
-278.085999
30
-4.000000
11
-1.874600
21
-322.283997
31
-4.000000
12
-87.232498
22
-281.914001
32
-4.000000
13
-87.232498
23
-281.914001
33
-4.000000
0
3DFACE
8
0
10
-87.232498
20
-281.914001
30
-4.000000
11
-1.874600
21
-322.283997
31
-4.000000
12
-2.922000
22
-323.466003
32
-4.000000
13
-2.922000
23
-323.466003
33
-4.000000
0
3DFACE
8
0
10
-87.232498
20
-278.085999
30
-4.000000
11
-0.397800
21
-321.723999
31
-4.000000
12
-1.874600
22
-322.283997
32
-4.000000
13
-1.874600
23
-322.283997
33
-4.000000
0
3DFACE
8
0
10
-336.875000
20
2.715800
30
-4.000000
11
-336.875000
21
159.783997
31
-4.000000
12
-335.398010
22
3.275900
32
-4.000000
13
-335.398010
23
3.275900
33
-4.000000
0
3DFACE
8
0
10
-337.921997
20
1.533600
30
-4.000000
11
-337.921997
21
160.966003
31
-4.000000
12
-336.875000
22
2.715800
32
-4.000000
13
-336.875000
23
2.715800
33
-4.000000
0
3DFACE
8
0
10
-336.875000
20
2.715800
30
-4.000000
11
-337.921997
21
160.966003
31
-4.000000
12
-336.875000
22
159.783997
32
-4.000000
13
-336.875000
23
159.783997
33
-4.000000
0
3DFACE
8
0
10
-336.875000
20
159.783997
30
-4.000000
11
-335.398010
21
159.223999
31
-4.000000
12
-335.398010
22
3.275900
32
-4.000000
13
-335.398010
23
3.275900
33
-4.000000
0
3DFACE
8
0
10
-338.299988
20
0.000000
30
-4.000000
11
-338.299988
21
162.500000
31
-4.000000
12
-337.921997
22
1.533600
32
-4.000000
13
-337.921997
23
1.533600
33
-4.000000
0
3DFACE
8
0
10
-337.921997
20
1.533600
30
-4.000000
11
-338.299988
21
162.500000
31
-4.000000
12
-337.921997
22
160.966003
32
-4.000000
13
-337.921997
23
160.966003
33
-4.000000
0
3DFACE
8
0
10
-335.398010
20
3.275900
30
-4.000000
11
-333.829987
21
159.414001
31
-4.000000
12
-333.829987
22
3.085600
32
-4.000000
13
-333.829987
23
3.085600
33
-4.000000
0
3DFACE
8
0
10
-335.398010
20
159.223999
30
-4.000000
11
-333.829987
21
159.414001
31
-4.000000
12
-335.398010
22
3.275900
32
-4.000000
13
-335.398010
23
3.275900
33
-4.000000
0
3DFACE
8
0
10
-333.829987
20
3.085600
30
-4.000000
11
-332.529999
21
160.311996
31
-4.000000
12
-332.529999
22
2.188300
32
-4.000000
13
-332.529999
23
2.188300
33
-4.000000
0
3DFACE
8
0
10
-333.829987
20
159.414001
30
-4.000000
11
-332.529999
21
160.311996
31
-4.000000
12
-333.829987
22
3.085600
32
-4.000000
13
-333.829987
23
3.085600
33
-4.000000
0
3DFACE
8
0
10
-332.529999
20
160.311996
30
-4.000000
11
-331.795990
21
161.710007
31
-4.000000
12
-332.529999
22
2.188300
32
-4.000000
13
-332.529999
23
2.188300
33
-4.000000
0
3DFACE
8
0
10
-332.529999
20
2.188300
30
-4.000000
11
-331.795990
21
161.710007
31
-4.000000
12
-331.795990
22
0.789700
32
-4.000000
13
-331.795990
23
0.789700
33
-4.000000
0
3DFACE
8
0
10
-92.163200
20
-272.519989
30
-4.000000
11
-1.874600
21
-165.216003
31
-4.000000
12
-89.011902
22
-274.695007
32
-4.000000
13
-89.011902
23
-274.695007
33
-4.000000
0
3DFACE
8
0
10
-92.163200
20
-272.519989
30
-4.000000
11
-2.922000
21
-164.033997
31
-4.000000
12
-1.874600
22
-165.216003
32
-4.000000
13
-1.874600
23
-165.216003
33
-4.000000
0
3DFACE
8
0
10
-95.964302
20
-272.058014
30
-4.000000
11
-2.922000
21
-164.033997
31
-4.000000
12
-92.163200
22
-272.519989
32
-4.000000
13
-92.163200
23
-272.519989
33
-4.000000
0
3DFACE
8
0
10
-87.232498
20
-278.085999
30
-4.000000
11
-0.397800
21
-165.776001
31
-4.000000
12
-0.397800
22
-321.723999
32
-4.000000
13
-0.397800
23
-321.723999
33
-4.000000
0
3DFACE
8
0
10
-1.874600
20
-165.216003
30
-4.000000
11
-0.397800
21
-165.776001
31
-4.000000
12
-89.011902
22
-274.695007
32
-4.000000
13
-89.011902
23
-274.695007
33
-4.000000
0
3DFACE
8
0
10
-89.011902
20
-274.695007
30
-4.000000
11
-0.397800
21
-165.776001
31
-4.000000
12
-87.232498
22
-278.085999
32
-4.000000
13
-87.232498
23
-278.085999
33
-4.000000
0
3DFACE
8
0
10
-95.964302
20
-272.058014
30
-4.000000
11
-3.300000
21
-162.500000
31
-4.000000
12
-2.922000
22
-164.033997
32
-4.000000
13
-2.922000
23
-164.033997
33
-4.000000
0
3DFACE
8
0
10
-99.544502
20
-273.415985
30
-4.000000
11
-3.300000
21
-162.500000
31
-4.000000
12
-95.964302
22
-272.058014
32
-4.000000
13
-95.964302
23
-272.058014
33
-4.000000
0
3DFACE
8
0
10
-0.397800
20
-165.776001
30
-4.000000
11
1.170200
21
-165.585999
31
-4.000000
12
-0.397800
22
-321.723999
32
-4.000000
13
-0.397800
23
-321.723999
33
-4.000000
0
3DFACE
8
0
10
1.170200
20
-321.914001
30
-4.000000
11
1.170200
21
-165.585999
31
-4.000000
12
2.470100
22
-322.812012
32
-4.000000
13
2.470100
23
-322.812012
33
-4.000000
0
3DFACE
8
0
10
-0.397800
20
-321.723999
30
-4.000000
11
1.170200
21
-165.585999
31
-4.000000
12
1.170200
22
-321.914001
32
-4.000000
13
1.170200
23
-321.914001
33
-4.000000
0
3DFACE
8
0
10
-331.795990
20
-161.710007
30
-4.000000
11
-2.922000
21
-160.966003
31
-4.000000
12
-99.544502
22
-273.415985
32
-4.000000
13
-99.544502
23
-273.415985
33
-4.000000
0
3DFACE
8
0
10
-99.544502
20
-273.415985
30
-4.000000
11
-2.922000
21
-160.966003
31
-4.000000
12
-3.300000
22
-162.500000
32
-4.000000
13
-3.300000
23
-162.500000
33
-4.000000
0
3DFACE
8
0
10
1.170200
20
-165.585999
30
-4.000000
11
2.470100
21
-164.688004
31
-4.000000
12
2.470100
22
-322.812012
32
-4.000000
13
2.470100
23
-322.812012
33
-4.000000
0
3DFACE
8
0
10
2.470100
20
-327.187988
30
-4.000000
11
165.625000
21
-327.716003
31
-4.000000
12
1.170200
22
-328.085999
32
-4.000000
13
1.170200
23
-328.085999
33
-4.000000
0
3DFACE
8
0
10
2.470100
20
-327.187988
30
-4.000000
11
164.578003
21
-326.533997
31
-4.000000
12
165.625000
22
-327.716003
32
-4.000000
13
165.625000
23
-327.716003
33
-4.000000
0
3DFACE
8
0
10
3.204100
20
-325.790009
30
-4.000000
11
164.578003
21
-326.533997
31
-4.000000
12
2.470100
22
-327.187988
32
-4.000000
13
2.470100
23
-327.187988
33
-4.000000
0
3DFACE
8
0
10
165.625000
20
-327.716003
30
-4.000000
11
167.102005
21
-328.276001
31
-4.000000
12
1.170200
22
-328.085999
32
-4.000000
13
1.170200
23
-328.085999
33
-4.000000
0
3DFACE
8
0
10
1.170200
20
-328.085999
30
-4.000000
11
167.102005
21
-328.276001
31
-4.000000
12
-0.397800
22
-328.276001
32
-4.000000
13
-0.397800
23
-328.276001
33
-4.000000
0
3DFACE
8
0
10
3.204100
20
-324.209991
30
-4.000000
11
164.199997
21
-325.000000
31
-4.000000
12
3.204100
22
-325.790009
32
-4.000000
13
3.204100
23
-325.790009
33
-4.000000
0
3DFACE
8
0
10
3.204100
20
-325.790009
30
-4.000000
11
164.199997
21
-325.000000
31
-4.000000
12
164.578003
22
-326.533997
32
-4.000000
13
164.578003
23
-326.533997
33
-4.000000
0
3DFACE
8
0
10
2.470100
20
-322.812012
30
-4.000000
11
164.578003
21
-323.466003
31
-4.000000
12
3.204100
22
-324.209991
32
-4.000000
13
3.204100
23
-324.209991
33
-4.000000
0
3DFACE
8
0
10
3.204100
20
-324.209991
30
-4.000000
11
164.578003
21
-323.466003
31
-4.000000
12
164.199997
22
-325.000000
32
-4.000000
13
164.199997
23
-325.000000
33
-4.000000
0
3DFACE
8
0
10
2.470100
20
-164.688004
30
-4.000000
11
165.625000
21
-322.283997
31
-4.000000
12
2.470100
22
-322.812012
32
-4.000000
13
2.470100
23
-322.812012
33
-4.000000
0
3DFACE
8
0
10
3.204100
20
-163.289993
30
-4.000000
11
165.625000
21
-322.283997
31
-4.000000
12
2.470100
22
-164.688004
32
-4.000000
13
2.470100
23
-164.688004
33
-4.000000
0
3DFACE
8
0
10
2.470100
20
-322.812012
30
-4.000000
11
165.625000
21
-322.283997
31
-4.000000
12
164.578003
22
-323.466003
32
-4.000000
13
164.578003
23
-323.466003
33
-4.000000
0
3DFACE
8
0
10
3.204100
20
-163.289993
30
-4.000000
11
167.102005
21
-321.723999
31
-4.000000
12
165.625000
22
-322.283997
32
-4.000000
13
165.625000
23
-322.283997
33
-4.000000
0
3DFACE
8
0
10
3.204100
20
-161.710007
30
-4.000000
11
167.102005
21
-321.723999
31
-4.000000
12
3.204100
22
-163.289993
32
-4.000000
13
3.204100
23
-163.289993
33
-4.000000
0
3DFACE
8
0
10
168.669998
20
-328.085999
30
-4.000000
11
320.000000
21
-340.000000
31
-4.000000
12
167.102005
22
-328.276001
32
-4.000000
13
167.102005
23
-328.276001
33
-4.000000
0
3DFACE
8
0
10
169.970001
20
-327.187988
30
-4.000000
11
320.000000
21
-340.000000
31
-4.000000
12
168.669998
22
-328.085999
32
-4.000000
13
168.669998
23
-328.085999
33
-4.000000
0
3DFACE
8
0
10
170.703995
20
-325.790009
30
-4.000000
11
320.000000
21
-340.000000
31
-4.000000
12
169.970001
22
-327.187988
32
-4.000000
13
169.970001
23
-327.187988
33
-4.000000
0
3DFACE
8
0
10
167.102005
20
-328.276001
30
-4.000000
11
320.000000
21
-340.000000
31
-4.000000
12
-0.397800
22
-328.276001
32
-4.000000
13
-0.397800
23
-328.276001
33
-4.000000
0
3DFACE
8
0
10
-333.829987
20
165.585999
30
-4.000000
11
-350.000000
21
340.000000
31
-4.000000
12
-332.529999
22
164.688004
32
-4.000000
13
-332.529999
23
164.688004
33
-4.000000
0
3DFACE
8
0
10
-335.398010
20
165.776001
30
-4.000000
11
-350.000000
21
340.000000
31
-4.000000
12
-333.829987
22
165.585999
32
-4.000000
13
-333.829987
23
165.585999
33
-4.000000
0
3DFACE
8
0
10
-336.875000
20
165.216003
30
-4.000000
11
-350.000000
21
340.000000
31
-4.000000
12
-335.398010
22
165.776001
32
-4.000000
13
-335.398010
23
165.776001
33
-4.000000
0
3DFACE
8
0
10
-337.921997
20
164.033997
30
-4.000000
11
-350.000000
21
340.000000
31
-4.000000
12
-336.875000
22
165.216003
32
-4.000000
13
-336.875000
23
165.216003
33
-4.000000
0
3DFACE
8
0
10
-338.299988
20
162.500000
30
-4.000000
11
-350.000000
21
340.000000
31
-4.000000
12
-337.921997
22
164.033997
32
-4.000000
13
-337.921997
23
164.033997
33
-4.000000
0
3DFACE
8
0
10
-1.874600
20
-159.783997
30
-4.000000
11
-1.874600
21
-2.715800
31
-4.000000
12
-0.397800
22
-159.223999
32
-4.000000
13
-0.397800
23
-159.223999
33
-4.000000
0
3DFACE
8
0
10
-1.874600
20
-159.783997
30
-4.000000
11
-2.922000
21
-1.533600
31
-4.000000
12
-1.874600
22
-2.715800
32
-4.000000
13
-1.874600
23
-2.715800
33
-4.000000
0
3DFACE
8
0
10
-331.795990
20
-161.710007
30
-4.000000
11
-2.922000
21
-1.533600
31
-4.000000
12
-2.922000
22
-160.966003
32
-4.000000
13
-2.922000
23
-160.966003
33
-4.000000
0
3DFACE
8
0
10
-331.795990
20
-0.789700
30
-4.000000
11
-2.922000
21
-1.533600
31
-4.000000
12
-331.795990
22
-161.710007
32
-4.000000
13
-331.795990
23
-161.710007
33
-4.000000
0
3DFACE
8
0
10
-2.922000
20
-160.966003
30
-4.000000
11
-2.922000
21
-1.533600
31
-4.000000
12
-1.874600
22
-159.783997
32
-4.000000
13
-1.874600
23
-159.783997
33
-4.000000
0
3DFACE
8
0
10
-1.874600
20
-2.715800
30
-4.000000
11
-0.397800
21
-3.275900
31
-4.000000
12
-0.397800
22
-159.223999
32
-4.000000
13
-0.397800
23
-159.223999
33
-4.000000
0
3DFACE
8
0
10
-331.795990
20
0.789700
30
-4.000000
11
-3.300000
21
0.000000
31
-4.000000
12
-331.795990
22
-0.789700
32
-4.000000
13
-331.795990
23
-0.789700
33
-4.000000
0
3DFACE
8
0
10
-331.795990
20
-0.789700
30
-4.000000
11
-3.300000
21
0.000000
31
-4.000000
12
-2.922000
22
-1.533600
32
-4.000000
13
-2.922000
23
-1.533600
33
-4.000000
0
3DFACE
8
0
10
-0.397800
20
-3.275900
30
-4.000000
11
1.170200
21
-3.085600
31
-4.000000
12
-0.397800
22
-159.223999
32
-4.000000
13
-0.397800
23
-159.223999
33
-4.000000
0
3DFACE
8
0
10
-0.397800
20
-159.223999
30
-4.000000
11
1.170200
21
-3.085600
31
-4.000000
12
1.170200
22
-159.414001
32
-4.000000
13
1.170200
23
-159.414001
33
-4.000000
0
3DFACE
8
0
10
-331.795990
20
0.789700
30
-4.000000
11
-2.922000
21
1.533600
31
-4.000000
12
-3.300000
22
0.000000
32
-4.000000
13
-3.300000
23
0.000000
33
-4.000000
0
3DFACE
8
0
10
1.170200
20
-3.085600
30
-4.000000
11
2.470100
21
-2.188300
31
-4.000000
12
1.170200
22
-159.414001
32
-4.000000
13
1.170200
23
-159.414001
33
-4.000000
0
3DFACE
8
0
10
2.470100
20
-160.311996
30
-4.000000
11
2.470100
21
-2.188300
31
-4.000000
12
3.204100
22
-161.710007
32
-4.000000
13
3.204100
23
-161.710007
33
-4.000000
0
3DFACE
8
0
10
1.170200
20
-159.414001
30
-4.000000
11
2.470100
21
-2.188300
31
-4.000000
12
2.470100
22
-160.311996
32
-4.000000
13
2.470100
23
-160.311996
33
-4.000000
0
3DFACE
8
0
10
2.470100
20
-2.188300
30
-4.000000
11
3.204100
21
-0.789700
31
-4.000000
12
3.204100
22
-161.710007
32
-4.000000
13
3.204100
23
-161.710007
33
-4.000000
0
3DFACE
8
0
10
170.703995
20
-325.790009
30
-4.000000
11
320.000000
21
-310.000000
31
-4.000000
12
320.000000
22
-340.000000
32
-4.000000
13
320.000000
23
-340.000000
33
-4.000000
0
3DFACE
8
0
10
170.703995
20
-324.209991
30
-4.000000
11
320.000000
21
-310.000000
31
-4.000000
12
170.703995
22
-325.790009
32
-4.000000
13
170.703995
23
-325.790009
33
-4.000000
0
3DFACE
8
0
10
169.970001
20
-322.812012
30
-4.000000
11
320.000000
21
-310.000000
31
-4.000000
12
170.703995
22
-324.209991
32
-4.000000
13
170.703995
23
-324.209991
33
-4.000000
0
3DFACE
8
0
10
-332.529999
20
164.688004
30
-4.000000
11
-169.375000
21
322.283997
31
-4.000000
12
-331.795990
22
163.289993
32
-4.000000
13
-331.795990
23
163.289993
33
-4.000000
0
3DFACE
8
0
10
-332.529999
20
164.688004
30
-4.000000
11
-170.421997
21
323.466003
31
-4.000000
12
-169.375000
22
322.283997
32
-4.000000
13
-169.375000
23
322.283997
33
-4.000000
0
3DFACE
8
0
10
-350.000000
20
340.000000
30
-4.000000
11
-170.421997
21
323.466003
31
-4.000000
12
-332.529999
22
164.688004
32
-4.000000
13
-332.529999
23
164.688004
33
-4.000000
0
3DFACE
8
0
10
-169.375000
20
322.283997
30
-4.000000
11
-167.897995
21
321.723999
31
-4.000000
12
-331.795990
22
163.289993
32
-4.000000
13
-331.795990
23
163.289993
33
-4.000000
0
3DFACE
8
0
10
-331.795990
20
163.289993
30
-4.000000
11
-167.897995
21
321.723999
31
-4.000000
12
-331.795990
22
161.710007
32
-4.000000
13
-331.795990
23
161.710007
33
-4.000000
0
3DFACE
8
0
10
-350.000000
20
340.000000
30
-4.000000
11
-170.800003
21
325.000000
31
-4.000000
12
-170.421997
22
323.466003
32
-4.000000
13
-170.421997
23
323.466003
33
-4.000000
0
3DFACE
8
0
10
-350.000000
20
340.000000
30
-4.000000
11
-170.421997
21
326.533997
31
-4.000000
12
-170.800003
22
325.000000
32
-4.000000
13
-170.800003
23
325.000000
33
-4.000000
0
3DFACE
8
0
10
-1.874600
20
2.715800
30
-4.000000
11
-1.874600
21
159.783997
31
-4.000000
12
-0.397800
22
3.275900
32
-4.000000
13
-0.397800
23
3.275900
33
-4.000000
0
3DFACE
8
0
10
-2.922000
20
1.533600
30
-4.000000
11
-2.922000
21
160.966003
31
-4.000000
12
-1.874600
22
2.715800
32
-4.000000
13
-1.874600
23
2.715800
33
-4.000000
0
3DFACE
8
0
10
-331.795990
20
161.710007
30
-4.000000
11
-2.922000
21
160.966003
31
-4.000000
12
-331.795990
22
0.789700
32
-4.000000
13
-331.795990
23
0.789700
33
-4.000000
0
3DFACE
8
0
10
-331.795990
20
0.789700
30
-4.000000
11
-2.922000
21
160.966003
31
-4.000000
12
-2.922000
22
1.533600
32
-4.000000
13
-2.922000
23
1.533600
33
-4.000000
0
3DFACE
8
0
10
-1.874600
20
2.715800
30
-4.000000
11
-2.922000
21
160.966003
31
-4.000000
12
-1.874600
22
159.783997
32
-4.000000
13
-1.874600
23
159.783997
33
-4.000000
0
3DFACE
8
0
10
-350.000000
20
340.000000
30
-4.000000
11
-169.375000
21
327.716003
31
-4.000000
12
-170.421997
22
326.533997
32
-4.000000
13
-170.421997
23
326.533997
33
-4.000000
0
3DFACE
8
0
10
-1.874600
20
159.783997
30
-4.000000
11
-0.397800
21
159.223999
31
-4.000000
12
-0.397800
22
3.275900
32
-4.000000
13
-0.397800
23
3.275900
33
-4.000000
0
3DFACE
8
0
10
-167.897995
20
321.723999
30
-4.000000
11
-3.300000
21
162.500000
31
-4.000000
12
-331.795990
22
161.710007
32
-4.000000
13
-331.795990
23
161.710007
33
-4.000000
0
3DFACE
8
0
10
-331.795990
20
161.710007
30
-4.000000
11
-3.300000
21
162.500000
31
-4.000000
12
-2.922000
22
160.966003
32
-4.000000
13
-2.922000
23
160.966003
33
-4.000000
0
3DFACE
8
0
10
-166.330002
20
321.914001
30
-4.000000
11
-3.300000
21
162.500000
31
-4.000000
12
-167.897995
22
321.723999
32
-4.000000
13
-167.897995
23
321.723999
33
-4.000000
0
3DFACE
8
0
10
-350.000000
20
340.000000
30
-4.000000
11
-167.897995
21
328.276001
31
-4.000000
12
-169.375000
22
327.716003
32
-4.000000
13
-169.375000
23
327.716003
33
-4.000000
0
3DFACE
8
0
10
-0.397800
20
3.275900
30
-4.000000
11
1.170200
21
159.414001
31
-4.000000
12
1.170200
22
3.085600
32
-4.000000
13
1.170200
23
3.085600
33
-4.000000
0
3DFACE
8
0
10
-0.397800
20
159.223999
30
-4.000000
11
1.170200
21
159.414001
31
-4.000000
12
-0.397800
22
3.275900
32
-4.000000
13
-0.397800
23
3.275900
33
-4.000000
0
3DFACE
8
0
10
-166.330002
20
321.914001
30
-4.000000
11
-2.922000
21
164.033997
31
-4.000000
12
-3.300000
22
162.500000
32
-4.000000
13
-3.300000
23
162.500000
33
-4.000000
0
3DFACE
8
0
10
-165.029999
20
322.812012
30
-4.000000
11
-2.922000
21
164.033997
31
-4.000000
12
-166.330002
22
321.914001
32
-4.000000
13
-166.330002
23
321.914001
33
-4.000000
0
3DFACE
8
0
10
1.170200
20
159.414001
30
-4.000000
11
2.470100
21
160.311996
31
-4.000000
12
1.170200
22
3.085600
32
-4.000000
13
1.170200
23
3.085600
33
-4.000000
0
3DFACE
8
0
10
2.470100
20
2.188300
30
-4.000000
11
2.470100
21
160.311996
31
-4.000000
12
3.204100
22
0.789700
32
-4.000000
13
3.204100
23
0.789700
33
-4.000000
0
3DFACE
8
0
10
1.170200
20
3.085600
30
-4.000000
11
2.470100
21
160.311996
31
-4.000000
12
2.470100
22
2.188300
32
-4.000000
13
2.470100
23
2.188300
33
-4.000000
0
3DFACE
8
0
10
-165.029999
20
322.812012
30
-4.000000
11
-1.874600
21
165.216003
31
-4.000000
12
-2.922000
22
164.033997
32
-4.000000
13
-2.922000
23
164.033997
33
-4.000000
0
3DFACE
8
0
10
-164.296005
20
324.209991
30
-4.000000
11
-1.874600
21
165.216003
31
-4.000000
12
-165.029999
22
322.812012
32
-4.000000
13
-165.029999
23
322.812012
33
-4.000000
0
3DFACE
8
0
10
2.470100
20
160.311996
30
-4.000000
11
3.204100
21
161.710007
31
-4.000000
12
3.204100
22
0.789700
32
-4.000000
13
3.204100
23
0.789700
33
-4.000000
0
3DFACE
8
0
10
-164.296005
20
324.209991
30
-4.000000
11
-0.397800
21
165.776001
31
-4.000000
12
-1.874600
22
165.216003
32
-4.000000
13
-1.874600
23
165.216003
33
-4.000000
0
3DFACE
8
0
10
-164.296005
20
325.790009
30
-4.000000
11
-0.397800
21
165.776001
31
-4.000000
12
-164.296005
22
324.209991
32
-4.000000
13
-164.296005
23
324.209991
33
-4.000000
0
3DFACE
8
0
10
168.669998
20
-321.914001
30
-4.000000
11
332.078003
21
-164.033997
31
-4.000000
12
169.970001
22
-322.812012
32
-4.000000
13
169.970001
23
-322.812012
33
-4.000000
0
3DFACE
8
0
10
169.970001
20
-322.812012
30
-4.000000
11
332.078003
21
-164.033997
31
-4.000000
12
320.000000
22
-310.000000
32
-4.000000
13
320.000000
23
-310.000000
33
-4.000000
0
3DFACE
8
0
10
320.000000
20
-310.000000
30
-4.000000
11
332.078003
21
-164.033997
31
-4.000000
12
333.125000
22
-165.216003
32
-4.000000
13
333.125000
23
-165.216003
33
-4.000000
0
3DFACE
8
0
10
320.000000
20
-310.000000
30
-4.000000
11
334.601990
21
-165.776001
31
-4.000000
12
350.000000
22
-310.000000
32
-4.000000
13
350.000000
23
-310.000000
33
-4.000000
0
3DFACE
8
0
10
333.125000
20
-165.216003
30
-4.000000
11
334.601990
21
-165.776001
31
-4.000000
12
320.000000
22
-310.000000
32
-4.000000
13
320.000000
23
-310.000000
33
-4.000000
0
3DFACE
8
0
10
3.204100
20
-161.710007
30
-4.000000
11
331.700012
21
-162.500000
31
-4.000000
12
167.102005
22
-321.723999
32
-4.000000
13
167.102005
23
-321.723999
33
-4.000000
0
3DFACE
8
0
10
167.102005
20
-321.723999
30
-4.000000
11
331.700012
21
-162.500000
31
-4.000000
12
168.669998
22
-321.914001
32
-4.000000
13
168.669998
23
-321.914001
33
-4.000000
0
3DFACE
8
0
10
168.669998
20
-321.914001
30
-4.000000
11
331.700012
21
-162.500000
31
-4.000000
12
332.078003
22
-164.033997
32
-4.000000
13
332.078003
23
-164.033997
33
-4.000000
0
3DFACE
8
0
10
334.601990
20
-165.776001
30
-4.000000
11
336.170013
21
-165.585999
31
-4.000000
12
350.000000
22
-310.000000
32
-4.000000
13
350.000000
23
-310.000000
33
-4.000000
0
3DFACE
8
0
10
3.204100
20
-161.710007
30
-4.000000
11
332.078003
21
-160.966003
31
-4.000000
12
331.700012
22
-162.500000
32
-4.000000
13
331.700012
23
-162.500000
33
-4.000000
0
3DFACE
8
0
10
336.170013
20
-165.585999
30
-4.000000
11
337.470001
21
-164.688004
31
-4.000000
12
350.000000
22
-310.000000
32
-4.000000
13
350.000000
23
-310.000000
33
-4.000000
0
3DFACE
8
0
10
337.470001
20
-164.688004
30
-4.000000
11
338.204010
21
-163.289993
31
-4.000000
12
350.000000
22
-310.000000
32
-4.000000
13
350.000000
23
-310.000000
33
-4.000000
0
3DFACE
8
0
10
338.204010
20
-163.289993
30
-4.000000
11
338.204010
21
-161.710007
31
-4.000000
12
350.000000
22
-310.000000
32
-4.000000
13
350.000000
23
-310.000000
33
-4.000000
0
3DFACE
8
0
10
333.125000
20
-159.783997
30
-4.000000
11
332.078003
21
-1.533600
31
-4.000000
12
333.125000
22
-2.715800
32
-4.000000
13
333.125000
23
-2.715800
33
-4.000000
0
3DFACE
8
0
10
3.204100
20
-161.710007
30
-4.000000
11
332.078003
21
-1.533600
31
-4.000000
12
332.078003
22
-160.966003
32
-4.000000
13
332.078003
23
-160.966003
33
-4.000000
0
3DFACE
8
0
10
3.204100
20
-0.789700
30
-4.000000
11
332.078003
21
-1.533600
31
-4.000000
12
3.204100
22
-161.710007
32
-4.000000
13
3.204100
23
-161.710007
33
-4.000000
0
3DFACE
8
0
10
332.078003
20
-160.966003
30
-4.000000
11
332.078003
21
-1.533600
31
-4.000000
12
333.125000
22
-159.783997
32
-4.000000
13
333.125000
23
-159.783997
33
-4.000000
0
3DFACE
8
0
10
333.125000
20
-2.715800
30
-4.000000
11
334.601990
21
-3.275900
31
-4.000000
12
333.125000
22
-159.783997
32
-4.000000
13
333.125000
23
-159.783997
33
-4.000000
0
3DFACE
8
0
10
333.125000
20
-159.783997
30
-4.000000
11
334.601990
21
-3.275900
31
-4.000000
12
334.601990
22
-159.223999
32
-4.000000
13
334.601990
23
-159.223999
33
-4.000000
0
3DFACE
8
0
10
3.204100
20
0.789700
30
-4.000000
11
331.700012
21
0.000000
31
-4.000000
12
3.204100
22
-0.789700
32
-4.000000
13
3.204100
23
-0.789700
33
-4.000000
0
3DFACE
8
0
10
3.204100
20
-0.789700
30
-4.000000
11
331.700012
21
0.000000
31
-4.000000
12
332.078003
22
-1.533600
32
-4.000000
13
332.078003
23
-1.533600
33
-4.000000
0
3DFACE
8
0
10
334.601990
20
-159.223999
30
-4.000000
11
336.170013
21
-3.085600
31
-4.000000
12
336.170013
22
-159.414001
32
-4.000000
13
336.170013
23
-159.414001
33
-4.000000
0
3DFACE
8
0
10
334.601990
20
-3.275900
30
-4.000000
11
336.170013
21
-3.085600
31
-4.000000
12
334.601990
22
-159.223999
32
-4.000000
13
334.601990
23
-159.223999
33
-4.000000
0
3DFACE
8
0
10
3.204100
20
0.789700
30
-4.000000
11
332.078003
21
1.533600
31
-4.000000
12
331.700012
22
0.000000
32
-4.000000
13
331.700012
23
0.000000
33
-4.000000
0
3DFACE
8
0
10
337.470001
20
-160.311996
30
-4.000000
11
337.470001
21
-2.188300
31
-4.000000
12
338.204010
22
-161.710007
32
-4.000000
13
338.204010
23
-161.710007
33
-4.000000
0
3DFACE
8
0
10
336.170013
20
-159.414001
30
-4.000000
11
337.470001
21
-2.188300
31
-4.000000
12
337.470001
22
-160.311996
32
-4.000000
13
337.470001
23
-160.311996
33
-4.000000
0
3DFACE
8
0
10
336.170013
20
-3.085600
30
-4.000000
11
337.470001
21
-2.188300
31
-4.000000
12
336.170013
22
-159.414001
32
-4.000000
13
336.170013
23
-159.414001
33
-4.000000
0
3DFACE
8
0
10
337.470001
20
-2.188300
30
-4.000000
11
338.204010
21
-0.789700
31
-4.000000
12
338.204010
22
-161.710007
32
-4.000000
13
338.204010
23
-161.710007
33
-4.000000
0
3DFACE
8
0
10
2.470100
20
164.688004
30
-4.000000
11
165.625000
21
322.283997
31
-4.000000
12
3.204100
22
163.289993
32
-4.000000
13
3.204100
23
163.289993
33
-4.000000
0
3DFACE
8
0
10
2.470100
20
164.688004
30
-4.000000
11
164.578003
21
323.466003
31
-4.000000
12
165.625000
22
322.283997
32
-4.000000
13
165.625000
23
322.283997
33
-4.000000
0
3DFACE
8
0
10
1.170200
20
165.585999
30
-4.000000
11
164.578003
21
323.466003
31
-4.000000
12
2.470100
22
164.688004
32
-4.000000
13
2.470100
23
164.688004
33
-4.000000
0
3DFACE
8
0
10
165.625000
20
322.283997
30
-4.000000
11
167.102005
21
321.723999
31
-4.000000
12
3.204100
22
163.289993
32
-4.000000
13
3.204100
23
163.289993
33
-4.000000
0
3DFACE
8
0
10
3.204100
20
163.289993
30
-4.000000
11
167.102005
21
321.723999
31
-4.000000
12
3.204100
22
161.710007
32
-4.000000
13
3.204100
23
161.710007
33
-4.000000
0
3DFACE
8
0
10
1.170200
20
165.585999
30
-4.000000
11
164.199997
21
325.000000
31
-4.000000
12
164.578003
22
323.466003
32
-4.000000
13
164.578003
23
323.466003
33
-4.000000
0
3DFACE
8
0
10
-0.397800
20
165.776001
30
-4.000000
11
164.199997
21
325.000000
31
-4.000000
12
1.170200
22
165.585999
32
-4.000000
13
1.170200
23
165.585999
33
-4.000000
0
3DFACE
8
0
10
-164.296005
20
325.790009
30
-4.000000
11
164.199997
21
325.000000
31
-4.000000
12
-0.397800
22
165.776001
32
-4.000000
13
-0.397800
23
165.776001
33
-4.000000
0
3DFACE
8
0
10
-164.296005
20
325.790009
30
-4.000000
11
164.578003
21
326.533997
31
-4.000000
12
164.199997
22
325.000000
32
-4.000000
13
164.199997
23
325.000000
33
-4.000000
0
3DFACE
8
0
10
-165.029999
20
327.187988
30
-4.000000
11
164.578003
21
326.533997
31
-4.000000
12
-164.296005
22
325.790009
32
-4.000000
13
-164.296005
23
325.790009
33
-4.000000
0
3DFACE
8
0
10
332.078003
20
1.533600
30
-4.000000
11
333.125000
21
159.783997
31
-4.000000
12
333.125000
22
2.715800
32
-4.000000
13
333.125000
23
2.715800
33
-4.000000
0
3DFACE
8
0
10
3.204100
20
0.789700
30
-4.000000
11
332.078003
21
160.966003
31
-4.000000
12
332.078003
22
1.533600
32
-4.000000
13
332.078003
23
1.533600
33
-4.000000
0
3DFACE
8
0
10
332.078003
20
1.533600
30
-4.000000
11
332.078003
21
160.966003
31
-4.000000
12
333.125000
22
159.783997
32
-4.000000
13
333.125000
23
159.783997
33
-4.000000
0
3DFACE
8
0
10
3.204100
20
161.710007
30
-4.000000
11
332.078003
21
160.966003
31
-4.000000
12
3.204100
22
0.789700
32
-4.000000
13
3.204100
23
0.789700
33
-4.000000
0
3DFACE
8
0
10
-165.029999
20
327.187988
30
-4.000000
11
165.625000
21
327.716003
31
-4.000000
12
164.578003
22
326.533997
32
-4.000000
13
164.578003
23
326.533997
33
-4.000000
0
3DFACE
8
0
10
-166.330002
20
328.085999
30
-4.000000
11
165.625000
21
327.716003
31
-4.000000
12
-165.029999
22
327.187988
32
-4.000000
13
-165.029999
23
327.187988
33
-4.000000
0
3DFACE
8
0
10
333.125000
20
2.715800
30
-4.000000
11
334.601990
21
159.223999
31
-4.000000
12
334.601990
22
3.275900
32
-4.000000
13
334.601990
23
3.275900
33
-4.000000
0
3DFACE
8
0
10
333.125000
20
159.783997
30
-4.000000
11
334.601990
21
159.223999
31
-4.000000
12
333.125000
22
2.715800
32
-4.000000
13
333.125000
23
2.715800
33
-4.000000
0
3DFACE
8
0
10
168.669998
20
321.914001
30
-4.000000
11
331.700012
21
162.500000
31
-4.000000
12
167.102005
22
321.723999
32
-4.000000
13
167.102005
23
321.723999
33
-4.000000
0
3DFACE
8
0
10
167.102005
20
321.723999
30
-4.000000
11
331.700012
21
162.500000
31
-4.000000
12
3.204100
22
161.710007
32
-4.000000
13
3.204100
23
161.710007
33
-4.000000
0
3DFACE
8
0
10
3.204100
20
161.710007
30
-4.000000
11
331.700012
21
162.500000
31
-4.000000
12
332.078003
22
160.966003
32
-4.000000
13
332.078003
23
160.966003
33
-4.000000
0
3DFACE
8
0
10
334.601990
20
3.275900
30
-4.000000
11
336.170013
21
159.414001
31
-4.000000
12
336.170013
22
3.085600
32
-4.000000
13
336.170013
23
3.085600
33
-4.000000
0
3DFACE
8
0
10
334.601990
20
159.223999
30
-4.000000
11
336.170013
21
159.414001
31
-4.000000
12
334.601990
22
3.275900
32
-4.000000
13
334.601990
23
3.275900
33
-4.000000
0
3DFACE
8
0
10
169.970001
20
322.812012
30
-4.000000
11
332.078003
21
164.033997
31
-4.000000
12
168.669998
22
321.914001
32
-4.000000
13
168.669998
23
321.914001
33
-4.000000
0
3DFACE
8
0
10
168.669998
20
321.914001
30
-4.000000
11
332.078003
21
164.033997
31
-4.000000
12
331.700012
22
162.500000
32
-4.000000
13
331.700012
23
162.500000
33
-4.000000
0
3DFACE
8
0
10
337.470001
20
2.188300
30
-4.000000
11
337.470001
21
160.311996
31
-4.000000
12
338.204010
22
0.789700
32
-4.000000
13
338.204010
23
0.789700
33
-4.000000
0
3DFACE
8
0
10
336.170013
20
3.085600
30
-4.000000
11
337.470001
21
160.311996
31
-4.000000
12
337.470001
22
2.188300
32
-4.000000
13
337.470001
23
2.188300
33
-4.000000
0
3DFACE
8
0
10
336.170013
20
159.414001
30
-4.000000
11
337.470001
21
160.311996
31
-4.000000
12
336.170013
22
3.085600
32
-4.000000
13
336.170013
23
3.085600
33
-4.000000
0
3DFACE
8
0
10
169.970001
20
322.812012
30
-4.000000
11
333.125000
21
165.216003
31
-4.000000
12
332.078003
22
164.033997
32
-4.000000
13
332.078003
23
164.033997
33
-4.000000
0
3DFACE
8
0
10
337.470001
20
160.311996
30
-4.000000
11
338.204010
21
161.710007
31
-4.000000
12
338.204010
22
0.789700
32
-4.000000
13
338.204010
23
0.789700
33
-4.000000
0
3DFACE
8
0
10
170.703995
20
324.209991
30
-4.000000
11
350.000000
21
340.000000
31
-4.000000
12
169.970001
22
322.812012
32
-4.000000
13
169.970001
23
322.812012
33
-4.000000
0
3DFACE
8
0
10
170.703995
20
325.790009
30
-4.000000
11
350.000000
21
340.000000
31
-4.000000
12
170.703995
22
324.209991
32
-4.000000
13
170.703995
23
324.209991
33
-4.000000
0
3DFACE
8
0
10
169.970001
20
327.187988
30
-4.000000
11
350.000000
21
340.000000
31
-4.000000
12
170.703995
22
325.790009
32
-4.000000
13
170.703995
23
325.790009
33
-4.000000
0
3DFACE
8
0
10
168.669998
20
328.085999
30
-4.000000
11
350.000000
21
340.000000
31
-4.000000
12
169.970001
22
327.187988
32
-4.000000
13
169.970001
23
327.187988
33
-4.000000
0
3DFACE
8
0
10
337.470001
20
164.688004
30
-4.000000
11
350.000000
21
340.000000
31
-4.000000
12
338.204010
22
163.289993
32
-4.000000
13
338.204010
23
163.289993
33
-4.000000
0
3DFACE
8
0
10
336.170013
20
165.585999
30
-4.000000
11
350.000000
21
340.000000
31
-4.000000
12
337.470001
22
164.688004
32
-4.000000
13
337.470001
23
164.688004
33
-4.000000
0
3DFACE
8
0
10
334.601990
20
165.776001
30
-4.000000
11
350.000000
21
340.000000
31
-4.000000
12
336.170013
22
165.585999
32
-4.000000
13
336.170013
23
165.585999
33
-4.000000
0
3DFACE
8
0
10
333.125000
20
165.216003
30
-4.000000
11
350.000000
21
340.000000
31
-4.000000
12
334.601990
22
165.776001
32
-4.000000
13
334.601990
23
165.776001
33
-4.000000
0
3DFACE
8
0
10
169.970001
20
322.812012
30
-4.000000
11
350.000000
21
340.000000
31
-4.000000
12
333.125000
22
165.216003
32
-4.000000
13
333.125000
23
165.216003
33
-4.000000
0
3DFACE
8
0
10
-350.000000
20
-310.000000
30
-4.000000
11
-350.000000
21
340.000000
31
-4.000000
12
-338.299988
22
-162.500000
32
-4.000000
13
-338.299988
23
-162.500000
33
-4.000000
0
3DFACE
8
0
10
-338.299988
20
-162.500000
30
-4.000000
11
-350.000000
21
340.000000
31
-4.000000
12
-338.299988
22
0.000000
32
-4.000000
13
-338.299988
23
0.000000
33
-4.000000
0
3DFACE
8
0
10
-338.299988
20
0.000000
30
-4.000000
11
-350.000000
21
340.000000
31
-4.000000
12
-338.299988
22
162.500000
32
-4.000000
13
-338.299988
23
162.500000
33
-4.000000
0
3DFACE
8
0
10
320.000000
20
-340.000000
30
-4.000000
11
-320.000000
21
-340.000000
31
-4.000000
12
-0.397800
22
-328.276001
32
-4.000000
13
-0.397800
23
-328.276001
33
-4.000000
0
3DFACE
8
0
10
350.000000
20
340.000000
30
-4.000000
11
350.000000
21
-310.000000
31
-4.000000
12
338.204010
22
-161.710007
32
-4.000000
13
338.204010
23
-161.710007
33
-4.000000
0
3DFACE
8
0
10
350.000000
20
340.000000
30
-4.000000
11
338.204010
21
-161.710007
31
-4.000000
12
338.204010
22
-0.789700
32
-4.000000
13
338.204010
23
-0.789700
33
-4.000000
0
3DFACE
8
0
10
350.000000
20
340.000000
30
-4.000000
11
338.204010
21
-0.789700
31
-4.000000
12
338.204010
22
0.789700
32
-4.000000
13
338.204010
23
0.789700
33
-4.000000
0
3DFACE
8
0
10
350.000000
20
340.000000
30
-4.000000
11
338.204010
21
0.789700
31
-4.000000
12
338.204010
22
161.710007
32
-4.000000
13
338.204010
23
161.710007
33
-4.000000
0
3DFACE
8
0
10
350.000000
20
340.000000
30
-4.000000
11
338.204010
21
161.710007
31
-4.000000
12
338.204010
22
163.289993
32
-4.000000
13
338.204010
23
163.289993
33
-4.000000
0
3DFACE
8
0
10
-350.000000
20
340.000000
30
-4.000000
11
350.000000
21
340.000000
31
-4.000000
12
-167.897995
22
328.276001
32
-4.000000
13
-167.897995
23
328.276001
33
-4.000000
0
3DFACE
8
0
10
-167.897995
20
328.276001
30
-4.000000
11
350.000000
21
340.000000
31
-4.000000
12
-166.330002
22
328.085999
32
-4.000000
13
-166.330002
23
328.085999
33
-4.000000
0
3DFACE
8
0
10
-166.330002
20
328.085999
30
-4.000000
11
350.000000
21
340.000000
31
-4.000000
12
167.102005
22
328.276001
32
-4.000000
13
167.102005
23
328.276001
33
-4.000000
0
3DFACE
8
0
10
-166.330002
20
328.085999
30
-4.000000
11
167.102005
21
328.276001
31
-4.000000
12
165.625000
22
327.716003
32
-4.000000
13
165.625000
23
327.716003
33
-4.000000
0
3DFACE
8
0
10
167.102005
20
328.276001
30
-4.000000
11
350.000000
21
340.000000
31
-4.000000
12
168.669998
22
328.085999
32
-4.000000
13
168.669998
23
328.085999
33
-4.000000
0
ENDSEC
0
EOF
