  0
SECTION
  2
HEADER
  9
$ACADVER
  1
AC1009
  9
$INSBASE
 10
0.0
 20
0.0
 30
0.0
  9
$EXTMIN
 10
0.0
 20
0.0
 30
0.0
  9
$EXTMAX
 10
0.0
 20
0.0
 30
0.0
  0
ENDSEC
  0
SECTION
  2
TABLES
  0
TABLE
  2
VPORT
 70
0
  0
ENDTAB
  0
TABLE
  2
LTYPE
 70
1
  0
LTYPE
  2
CONTINUOUS
 70
0
  3
Solid line
 72
65
 73
0
 40
0.0
  0
ENDTAB
  0
TABLE
  2
LAYER
 70
1
  0
LAYER
  2
0
 70
64
 62
7
  6
continuous
  0
ENDTAB
  0
TABLE
  2
STYLE
 70
1
  0
STYLE
  2
STANDARD
 70
0
 40
0
 41
1.0
 50
0.0
 71
0
 42
1
 3
ARIAL.TTF
 4

  0
ENDTAB
  0
TABLE
  2
VIEW
 70
0
  0
ENDTAB
  0
ENDSEC
  0
SECTION
  2
BLOCKS
  0
BLOCK
  8
0
  2
FACEFEAT
 70
0
 10
0.0
 20
0.0
 30
0.0
  3
FACEFEAT
  0
ARC
  8
0
 62
0
 10
290.5
 20
245.0
 30
0.0
 40
3.300000000000025
 50
-0.0
 51
-180.0
  0
ARC
  8
0
 62
0
 10
-367.5
 20
189.5
 30
0.0
 40
3.300000000000025
 50
-0.0
 51
-180.0
  0
ARC
  8
0
 62
0
 10
-272.5
 20
-340.0
 30
0.0
 40
3.300000000000025
 50
-0.0
 51
-180.0
  0
ARC
  8
0
 62
0
 10
272.5
 20
-340.0
 30
0.0
 40
3.300000000000025
 50
-0.0
 51
-180.0
  0
ARC
  8
0
 62
0
 10
367.5
 20
-2.40763149734505e-13
 30
0.0
 40
3.300000000000025
 50
0.0
 51
-180.0
  0
ARC
  8
0
 62
0
 10
367.5
 20
245.0
 30
0.0
 40
3.300000000000025
 50
-0.0
 51
-180.0
  0
ARC
  8
0
 62
0
 10
9.995300261235568e-14
 20
340.0
 30
0.0
 40
3.3
 50
-0.0
 51
-180.0
  0
ARC
  8
0
 62
0
 10
-272.5
 20
340.0
 30
0.0
 40
3.300000000000025
 50
-0.0
 51
-180.0
  0
ARC
  8
0
 62
0
 10
272.5
 20
340.0
 30
0.0
 40
3.300000000000025
 50
-0.0
 51
-180.0
  0
ARC
  8
0
 62
0
 10
290.5
 20
-3.0443549297355497e-13
 30
0.0
 40
3.300000000000025
 50
0.0
 51
-180.0
  0
ARC
  8
0
 62
0
 10
367.5
 20
-245.0
 30
0.0
 40
3.300000000000025
 50
-0.0
 51
-180.0
  0
ARC
  8
0
 62
0
 10
1.6297015574428897e-13
 20
-340.0
 30
0.0
 40
3.3
 50
-0.0
 51
-180.0
  0
ARC
  8
0
 62
0
 10
-367.5
 20
-2.67239524511542e-15
 30
0.0
 40
3.300000000000025
 50
0.0
 51
-180.0
  0
ARC
  8
0
 62
0
 10
-367.5
 20
-189.5
 30
0.0
 40
3.300000000000025
 50
-0.0
 51
-180.0
  0
ARC
  8
0
 62
0
 10
290.5
 20
-245.0
 30
0.0
 40
3.300000000000025
 50
-0.0
 51
-180.0
  0
LINE
  8
0
 62
0
 10
-382.5
 20
264.5
 30
0.0
 11
-382.5
 21
-264.5
 31
0.0
  0
LINE
  8
0
 62
0
 10
-382.5
 20
-264.5
 30
0.0
 11
-352.29687245145595
 21
-264.49999999999994
 31
0.0
  0
LINE
  8
0
 62
0
 10
-352.29687245145595
 20
-264.5
 30
0.0
 11
-291.99999999999994
 21
-324.79687245145595
 31
0.0
  0
LINE
  8
0
 62
0
 10
-292.0
 20
-355.0
 30
0.0
 11
-292.0
 21
-324.796872451456
 31
0.0
  0
LINE
  8
0
 62
0
 10
-292.0
 20
-355.0
 30
0.0
 11
292.0
 21
-355.0
 31
0.0
  0
LINE
  8
0
 62
0
 10
292.0
 20
-355.0
 30
0.0
 11
292.00000000000006
 21
-324.796872451456
 31
0.0
  0
LINE
  8
0
 62
0
 10
352.29687245145595
 20
-264.5
 30
0.0
 11
291.9999999999999
 21
-324.7968724514559
 31
0.0
  0
LINE
  8
0
 62
0
 10
382.5
 20
-264.5
 30
0.0
 11
352.29687245145595
 21
-264.49999999999994
 31
0.0
  0
LINE
  8
0
 62
0
 10
382.5
 20
-264.5
 30
0.0
 11
382.4999999999996
 21
264.5
 31
0.0
  0
LINE
  8
0
 62
0
 10
382.5
 20
264.5
 30
0.0
 11
352.29687245145595
 21
264.49999999999994
 31
0.0
  0
LINE
  8
0
 62
0
 10
352.29687245145595
 20
264.5
 30
0.0
 11
291.99999999999983
 21
324.79687245145584
 31
0.0
  0
LINE
  8
0
 62
0
 10
292.0
 20
355.0
 30
0.0
 11
291.99999999999994
 21
324.796872451456
 31
0.0
  0
LINE
  8
0
 62
0
 10
292.0
 20
355.0
 30
0.0
 11
-292.0
 21
355.0000000000004
 31
0.0
  0
LINE
  8
0
 62
0
 10
-292.0
 20
355.0
 30
0.0
 11
-292.00000000000006
 21
324.796872451456
 31
0.0
  0
LINE
  8
0
 62
0
 10
-352.29687245145595
 20
264.5
 30
0.0
 11
-291.9999999999999
 21
324.7968724514559
 31
0.0
  0
LINE
  8
0
 62
0
 10
-382.5
 20
264.5
 30
0.0
 11
-352.29687245145595
 21
264.49999999999994
 31
0.0
  0
ARC
  8
0
 62
0
 10
290.5
 20
-245.0
 30
0.0
 40
3.300000000000025
 50
-180.0
 51
-0.0
  0
ARC
  8
0
 62
0
 10
-367.5
 20
-189.5
 30
0.0
 40
3.300000000000025
 50
-180.0
 51
-0.0
  0
ARC
  8
0
 62
0
 10
-367.5
 20
-2.67239524511542e-15
 30
0.0
 40
3.300000000000025
 50
-180.0
 51
-0.0
  0
ARC
  8
0
 62
0
 10
1.6297015574428897e-13
 20
-340.0
 30
0.0
 40
3.3
 50
-180.0
 51
-0.0
  0
ARC
  8
0
 62
0
 10
367.5
 20
-245.0
 30
0.0
 40
3.300000000000025
 50
-180.0
 51
-0.0
  0
ARC
  8
0
 62
0
 10
290.5
 20
-3.0443549297355497e-13
 30
0.0
 40
3.300000000000025
 50
-180.0
 51
-0.0
  0
ARC
  8
0
 62
0
 10
272.5
 20
340.0
 30
0.0
 40
3.300000000000025
 50
-180.0
 51
-0.0
  0
ARC
  8
0
 62
0
 10
-272.5
 20
340.0
 30
0.0
 40
3.300000000000025
 50
-180.0
 51
-0.0
  0
ARC
  8
0
 62
0
 10
9.995300261235568e-14
 20
340.0
 30
0.0
 40
3.3
 50
-180.0
 51
-0.0
  0
ARC
  8
0
 62
0
 10
367.5
 20
245.0
 30
0.0
 40
3.300000000000025
 50
-180.0
 51
-0.0
  0
ARC
  8
0
 62
0
 10
367.5
 20
-2.40763149734505e-13
 30
0.0
 40
3.300000000000025
 50
-180.0
 51
-0.0
  0
ARC
  8
0
 62
0
 10
272.5
 20
-340.0
 30
0.0
 40
3.300000000000025
 50
-180.0
 51
-0.0
  0
ARC
  8
0
 62
0
 10
-272.5
 20
-340.0
 30
0.0
 40
3.300000000000025
 50
-180.0
 51
-0.0
  0
ARC
  8
0
 62
0
 10
-367.5
 20
189.5
 30
0.0
 40
3.300000000000025
 50
-180.0
 51
-0.0
  0
ARC
  8
0
 62
0
 10
290.5
 20
245.0
 30
0.0
 40
3.300000000000025
 50
-180.0
 51
-0.0
  0
ENDBLK
  0
ENDSEC
  0
SECTION
  2
ENTITIES
  0
INSERT
  2
FACEFEAT
  8
0
 62
0
 10
0.0
 20
0.0
 30
0.0
  0
ENDSEC
  0
EOF
